%
T1C.00984F0S0
X040394Y043858
X040394Y044724
X040433Y045157
X040433Y045551
X042028Y045866
X041634Y046161
X04124Y046555
X04122Y049528
X042165Y049606
X041417Y049724
X041063Y049803
X041614Y049921
X040945Y050079
X041043Y050965
X040551Y051102
X041496Y051181
X040719Y051378
X042224Y052343
X041437Y052362
X042224Y052559
X039941Y053248
X040748Y053346
X040748Y053642
X039941Y053839
X040846Y054331
X042244Y054724
X042244Y054941
X040846Y055217
X041781Y05561
X040827Y05561
X041417Y055807
X041781Y056201
X040846Y056299
X040728Y056988
X041679Y057185
X040748Y057362
X042028Y057677
X04124Y057874
X040925Y058169
X042028Y058465
X04Y058543
X040295Y059449
X040807Y059449
X040059Y066142
X042618Y066437
X044488Y065945
X044488Y065669
X043307Y060492
X043071Y060492
X043071Y060276
X043307Y060276
X043661Y06
X044665Y06
X044508Y059547
X042776Y059547
X044488Y058465
X043209Y058386
X042679Y058386
X044035Y058071
X042913Y057677
X044035Y057677
X042679Y057185
X044094Y057087
X043602Y056988
X043268Y056535
X043652Y056398
X04252Y056102
X042441Y055807
X043268Y055551
X04248Y054941
X042461Y054724
X043878Y054469
X043425Y054154
X043425Y053681
X04439Y053386
X044587Y052992
X044016Y052913
X04315Y05252
X043858Y052461
X042717Y052441
X044488Y052362
X042717Y052205
X043858Y052067
X044488Y052047
X042776Y05187
X044488Y051732
X043701Y051378
X042776Y051378
X043504Y05122
X043898Y05122
X043209Y051004
X043602Y050079
X043209Y050079
X043898Y050079
X044685Y049862
X04439Y049862
X042362Y049803
X042598Y049803
X042913Y049803
X043622Y049528
X042697Y04937
X043083Y04937
X042421Y04937
X044287Y049301
X043886Y049291
X044685Y047205
X044291Y047126
X043307Y043937
X044488Y043307
X044094Y043307
X043031Y043268
X042756Y043268
X04376Y04315
X042717Y042815
X044488Y042323
X044094Y042323
X042913Y042323
X043209Y042323
X043356Y041732
X044252Y041732
X043971Y041378
X043971Y040551
X043553Y040404
X044636Y040404
X045374Y040404
X04626Y040896
X044995Y041417
X044882Y042402
X044882Y042815
X044843Y043504
X045571Y047126
X045177Y047205
X046366Y049291
X047091Y049291
X045492Y049291
X045894Y049291
X046063Y050945
X045768Y050945
X046654Y051024
X047047Y051043
X044882Y051732
X045276Y051732
X047185Y051811
X046673Y051811
X044882Y052047
X045276Y052047
X045276Y052362
X044882Y052362
X04498Y053012
X046752Y053091
X045276Y053346
X045748Y053346
X046024Y05374
X044783Y054409
X045768Y054409
X045276Y054409
X046457Y055118
X04626Y055354
X046024Y055551
X045768Y055856
X045325Y055856
X046211Y056152
X046211Y056398
X046506Y056693
X044783Y058169
X045177Y058268
X045669Y058268
X046457Y058425
X046654Y05935
X047146Y05935
X045315Y059409
X045315Y059685
X045827Y059941
X045374Y060039
X045945Y060197
X046181Y060197
X046417Y060197
X047205Y060236
X045374Y060433
X046417Y060512
X045945Y060512
X047205Y060531
X045374Y060669
X045374Y060906
X045374Y061181
X044803Y065669
X044803Y065945
X046949Y06624
X048622Y066535
X049016Y060236
X047697Y060098
X048209Y060098
X048425Y05876
X047343Y058268
X049055Y058051
X048209Y057972
X049055Y057776
X047992Y056102
X047776Y056102
X047343Y056102
X047559Y056102
X047976Y05573
X047441Y055728
X048209Y055728
X047441Y055512
X047736Y055512
X049055Y055217
X04813Y053445
X049055Y053248
X047293Y053189
X047933Y051949
X049055Y05128
X049055Y050866
X047756Y049291
X04872Y049134
X04748Y048622
T2C.01575F095S3
X039764Y040354
X040157Y040846
X040157Y041339
X040748Y041339
X039764Y041693
X041929Y041732
X040748Y041929
X040748Y04311
X042185Y043465
X041476Y043484
X041831Y043484
X041378Y043937
X039764Y044646
X041535Y044685
X041535Y045472
X041486Y052953
X042224Y053445
X042224Y053839
X040945Y054823
X041683Y055217
X040551Y059843
X040551Y060433
X04Y060433
X041142Y060433
X040945Y064567
X041486Y064567
X041831Y06501
X041191Y06501
X040305Y06501
X041585Y065354
X040748Y065404
X043455Y066191
X043996Y066191
X042815Y065945
X043996Y065433
X042323Y065354
X042815Y065157
X042815Y064665
X043957Y060433
X044291Y060433
X044626Y060433
X044734Y057628
X042894Y055354
X043356Y054823
X043012Y053839
X042618Y053839
X043012Y053445
X042618Y053445
X04252Y052953
X043307Y052953
X043327Y051772
X042717Y046949
X043898Y046949
X042717Y04626
X043898Y04626
X042323Y045472
X043898Y045079
X042323Y044685
X04311Y044685
X042717Y043701
X042618Y041043
X046457Y041535
X045669Y042717
X046457Y042717
X046457Y043898
X045669Y043898
X044882Y045079
X045669Y045079
X046457Y045079
X046457Y04626
X045669Y04626
X044882Y04626
X044941Y046831
X046378Y049843
X047047Y049902
X045719Y049951
X046555Y053839
X047244Y054134
X046211Y054626
X047244Y054823
X046998Y055512
X046112Y059547
X045886Y06124
X04622Y06124
X046555Y06124
X04624Y061811
X045906Y061811
X045906Y062205
X04624Y062205
X046161Y065256
X046998Y065404
X046555Y06565
X046161Y06565
X046161Y066043
X046555Y066043
X048868Y06565
X047884Y065404
X048868Y064961
X047992Y061457
X047638Y061457
X048031Y061024
X047638Y061024
X048376Y060433
X047638Y060433
X047785Y059547
X049213Y05935
X048376Y05935
X049213Y058563
X047982Y054429
X047441Y053543
X048327Y050591
X04813Y049803
X049213Y048425
X048425Y048425
X049213Y047244
X047638Y047244
X048425Y047244
X049213Y04626
X047441Y04626
X048425Y04626
X047441Y045079
X049213Y045079
X048425Y045079
X047441Y043898
X048425Y043898
X049213Y043898
X049213Y042717
X047441Y042717
X048425Y042717
X048425Y041535
X049213Y041535
X047441Y041535
X049213Y040354
T3C.02165F197S55
X039862Y042274
X039862Y042766
X039862Y043258
X039862Y04375
T4C.0315F197S55
X043066Y039803
X045901Y039803
X045901Y040079
X043066Y040079
T5C.03346F197S55
X043529Y041083
X045438Y041083
T6C.03543F197S55
X039862Y045472
X039862Y04626
X039862Y047047
X039862Y047835
X039862Y049606
X039862Y050394
T7C.03937F197S55
X040354Y061319
X040354Y062303
X042126Y062303
X042126Y063287
X040354Y063287
X040354Y064272
X042126Y064272
X04685Y064272
X048622Y064272
X048622Y063287
X04685Y063287
X04685Y062303
X048622Y062303
X048622Y061319
T8C.12795F035S794
X041988Y040386
X046988Y040386
M30
