*
*
G04 PADS Layout (Build Number 2005.266.2) generated Gerber (RS-274-X) file*
G04 PC Version=2.1*
*
%IN "COMMXEL_REVD_SMD(181102"*%
*
%MOIN*%
*
%FSLAX35Y35*%
*
*
*
*
G04 PC Standard Apertures*
*
*
G04 Thermal Relief Aperture macro.*
%AMTER*
1,1,$1,0,0*
1,0,$1-$2,0,0*
21,0,$3,$4,0,0,45*
21,0,$3,$4,0,0,135*
%
*
*
G04 Annular Aperture macro.*
%AMANN*
1,1,$1,0,0*
1,0,$2,0,0*
%
*
*
G04 Odd Aperture macro.*
%AMODD*
1,1,$1,0,0*
1,0,$1-0.005,0,0*
%
*
*
G04 PC Custom Aperture Macros*
*
*
*
*
*
*
G04 PC Aperture Table*
*
%ADD010C,0.00394*%
%ADD012C,0.01*%
%ADD163C,0.001*%
*
*
*
*
G04 PC Custom Flashes*
G04 Layer Name COMMXEL_REVD_SMD(181102 - flashes*
%LPD*%
*
*
G04 PC Circuitry*
G04 Layer Name COMMXEL_REVD_SMD(181102 - circuitry*
%LPD*%
*
G54D10*
G01X430659Y398819D02*
X432628Y400787D01*
X430659Y402756*
X428691Y400787*
X430659Y398819*
Y400787D02*
Y402756D01*
Y396063D02*
X432628Y398031D01*
X432628D02*
X430659Y400000D01*
X428691Y398031*
X428691D02*
X430659Y396063D01*
Y398031D02*
Y400000D01*
X432234Y400787D02*
G75*
G03X429085I-1575J0D01*
G01Y398031*
X429085D02*
G03X432234I1574J0D01*
G01X432234D02*
Y400787D01*
X459006Y398819D02*
X460974Y400787D01*
X459006Y402756*
X457037Y400787*
X459006Y398819*
Y400787D02*
Y402756D01*
Y396063D02*
X460974Y398031D01*
X460974D02*
X459006Y400000D01*
X457037Y398031*
X457037D02*
X459006Y396063D01*
Y398031D02*
Y400000D01*
X460581Y400787D02*
G03X457431I-1575J0D01*
G01Y398031*
X457431D02*
G03X460581I1575J0D01*
G01X460581D02*
Y400787D01*
X433317Y408858D02*
X437254D01*
X433317Y412795*
X437254*
X433317Y408858*
X452411D02*
X456348D01*
X452411Y412795*
X456348*
X452411Y408858*
X401575Y642717D02*
X405512D01*
X403543Y640748D02*
Y644685D01*
X406639Y643772D02*
X406281Y643880D01*
X406031Y644094*
X405637Y644130*
X405208Y644345*
X405422Y644560*
X405673Y644631*
X405816Y644596*
X405923*
X406102Y644631*
X406174Y644775*
X406031Y644953*
X405816Y644882*
X405709Y644703*
X405601Y644596*
X405422Y644560*
X405243Y644524*
X405422Y645061*
X405959Y645419*
X405744Y645669*
X405637Y645884*
Y646063*
X405673Y646170*
X405816Y646314*
X406210Y645884*
Y645956*
X406246Y646278*
X406353Y646421*
X406603Y646564*
X406711Y645884*
Y645956*
X406818Y646135*
X406926Y646242*
X407069Y646278*
X407212Y646314*
X407283*
X407176Y646027*
X407069Y645598*
X406926Y645132*
X407391Y644059*
X407248Y643880*
X407069Y643737*
X406747Y643593*
X406639Y643772*
X406818Y645311D02*
X406926Y645633D01*
X406926D02*
X407033Y646027D01*
X407105Y646206*
X406961Y646099*
X406890Y645991*
X406854Y645848*
X406782Y645669*
X406818Y645311*
X406711Y645455D02*
X406460Y646385D01*
X406389Y646242*
X406353Y646099*
Y645920*
X406389Y645741*
X406711Y645455*
X406639Y645383D02*
X405780Y646099D01*
Y646063*
Y645884*
X405888Y645705*
X406138Y645455*
X406639Y645383*
X406747Y643880D02*
X406854Y643737D01*
X407033Y643880*
X407212Y644059*
X406747Y645168*
X406031Y645347*
X405565Y644989*
X405422Y644667*
X405565Y644739*
X405637Y644882*
X405673Y644953*
X405888Y645025*
X406102Y645132*
X406353Y644810*
X406281Y644703*
X406210Y644524*
X406031Y644488*
X405816Y644452*
X405744Y644488*
X405637Y644524*
X405530Y644488*
X405387Y644417*
X405744Y644238*
X406102Y644202*
X406389Y643987*
X406747Y643880*
X406747*
X401575Y632874D02*
X405512D01*
X403543Y630906D02*
Y634843D01*
X406639Y633930D02*
X406281Y634037D01*
X406031Y634252*
X405637Y634288*
X405208Y634503*
X405422Y634717*
X405673Y634789*
X405816Y634753*
X405923*
X406102Y634789*
X406174Y634932*
X406031Y635111*
X405816Y635039*
X405709Y634860*
X405601Y634753*
X405422Y634717*
X405243Y634681*
X405422Y635218*
X405959Y635576*
X405744Y635827*
X405637Y636042*
Y636220*
X405673Y636328*
X405816Y636471*
X406210Y636042*
Y636113*
X406246Y636435*
X406353Y636578*
X406603Y636722*
X406711Y636042*
Y636113*
X406818Y636292*
X406926Y636399*
X407069Y636435*
X407212Y636471*
X407283*
X407176Y636185*
X407069Y635755*
X406926Y635290*
X407391Y634216*
X407248Y634037*
X407069Y633894*
X406747Y633751*
X406639Y633930*
X406818Y635469D02*
X406926Y635791D01*
X407033Y636185*
X407105Y636364*
X406961Y636256*
X406890Y636149*
X406854Y636006*
X406782Y635827*
X406818Y635469*
X406711Y635612D02*
X406460Y636543D01*
X406389Y636399*
X406353Y636256*
Y636077*
X406389Y635898*
X406711Y635612*
X406639Y635540D02*
X405780Y636256D01*
Y636220*
Y636042*
X405888Y635863*
X406138Y635612*
X406639Y635540*
X406747Y634037D02*
X406854Y633894D01*
X407033Y634037*
X407212Y634216*
X406747Y635326*
X406031Y635505*
X405565Y635147*
X405422Y634825*
X405565Y634896*
X405637Y635039*
X405673Y635111*
X405888Y635183*
X406102Y635290*
X406353Y634968*
X406281Y634860*
X406210Y634681*
X406031Y634646*
X405816Y634610*
X405744Y634646*
X405637Y634681*
X405530Y634646*
X405387Y634574*
X405744Y634395*
X406102Y634359*
X406389Y634145*
X406747Y634037*
X406747*
X401575Y623031D02*
X405512D01*
X403543Y621063D02*
Y625000D01*
X406639Y624087D02*
X406281Y624195D01*
X406031Y624409*
X405637Y624445*
X405208Y624660*
X405422Y624875*
X405673Y624946*
X405816Y624911*
X405923*
X406102Y624946*
X406174Y625089*
X406031Y625268*
X405816Y625197*
X405709Y625018*
X405601Y624911*
X405422Y624875*
X405243Y624839*
X405422Y625376*
X405959Y625734*
X405744Y625984*
X405637Y626199*
Y626378*
X405673Y626485*
X405816Y626628*
X406210Y626199*
Y626271*
X406246Y626593*
X406353Y626736*
X406603Y626879*
X406711Y626199*
Y626271*
X406818Y626450*
X406926Y626557*
X407069Y626593*
X407212Y626628*
X407283*
X407176Y626342*
X407069Y625913*
X406926Y625447*
X407391Y624374*
X407248Y624195*
X407069Y624052*
X406747Y623908*
X406639Y624087*
X406818Y625626D02*
X406926Y625948D01*
X407033Y626342*
X407105Y626521*
X406961Y626414*
X406890Y626306*
X406854Y626163*
X406782Y625984*
X406818Y625626*
X406711Y625770D02*
X406460Y626700D01*
X406389Y626557*
X406353Y626414*
Y626235*
X406389Y626056*
X406711Y625770*
X406639Y625698D02*
X405780Y626414D01*
Y626378*
Y626199*
X405888Y626020*
X406138Y625770*
X406639Y625698*
X406747Y624195D02*
X406854Y624052D01*
X407033Y624195*
X407212Y624374*
X406747Y625483*
X406031Y625662*
X405565Y625304*
X405422Y624982*
X405565Y625054*
X405637Y625197*
X405673Y625268*
X405888Y625340*
X406102Y625447*
X406353Y625125*
X406281Y625018*
X406210Y624839*
X406031Y624803*
X405816Y624767*
X405744Y624803*
X405637Y624839*
X405530Y624803*
X405387Y624732*
X405744Y624553*
X406102Y624517*
X406389Y624302*
X406747Y624195*
X406747*
X401575Y613189D02*
X405512D01*
X403543Y611220D02*
Y615157D01*
X406639Y614245D02*
X406281Y614352D01*
X406031Y614567*
X405637Y614603*
X405208Y614817*
X405422Y615032*
X405673Y615104*
X405816Y615068*
X405923*
X406102Y615104*
X406174Y615247*
X406031Y615426*
X405816Y615354*
X405709Y615175*
X405601Y615068*
X405422Y615032*
X405243Y614996*
X405422Y615533*
X405959Y615891*
X405744Y616142*
X405637Y616356*
Y616535*
X405673Y616643*
X405816Y616786*
X406210Y616356*
Y616428*
X406246Y616750*
X406353Y616893*
X406603Y617037*
X406711Y616356*
Y616428*
X406818Y616607*
X406926Y616714*
X407069Y616750*
X407212Y616786*
X407283*
X407176Y616500*
X407069Y616070*
X406926Y615605*
X407391Y614531*
X407248Y614352*
X407069Y614209*
X406747Y614066*
X406639Y614245*
X406818Y615784D02*
X406926Y616106D01*
X407033Y616500*
X407105Y616679*
X406961Y616571*
X406890Y616464*
X406854Y616321*
X406782Y616142*
X406818Y615784*
X406711Y615927D02*
X406460Y616858D01*
X406389Y616714*
X406353Y616571*
Y616392*
X406389Y616213*
X406711Y615927*
X406639Y615855D02*
X405780Y616571D01*
Y616535*
Y616356*
X405888Y616178*
X406138Y615927*
X406639Y615855*
X406747Y614352D02*
X406854Y614209D01*
X407033Y614352*
X407212Y614531*
X406747Y615641*
X406031Y615820*
X405565Y615462*
X405422Y615140*
X405565Y615211*
X405637Y615354*
X405673Y615426*
X405888Y615497*
X406102Y615605*
X406353Y615283*
X406281Y615175*
X406210Y614996*
X406031Y614961*
X405816Y614925*
X405744Y614961*
X405637Y614996*
X405530Y614961*
X405387Y614889*
X405744Y614710*
X406102Y614674*
X406389Y614460*
X406747Y614352*
X406747*
X484252Y613189D02*
X488189D01*
X486220Y611220D02*
Y615157D01*
X489316Y614245D02*
X488958Y614352D01*
X488708Y614567*
X488314Y614603*
X487885Y614817*
X488099Y615032*
X488099D02*
X488350Y615104D01*
X488493Y615068*
X488601*
X488780Y615104*
X488851Y615247*
X488708Y615426*
X488493Y615354*
X488386Y615175*
X488278Y615068*
X488099Y615032*
X488099D02*
X487921Y614996D01*
X488099Y615533*
X488099D02*
X488636Y615891D01*
X488422Y616142*
X488314Y616356*
Y616535*
X488350Y616643*
X488493Y616786*
X488887Y616356*
Y616428*
X488923Y616750*
X489030Y616893*
X489281Y617037*
X489388Y616356*
Y616428*
X489495Y616607*
X489603Y616714*
X489746Y616750*
X489889Y616786*
X489961*
X489853Y616500*
X489746Y616070*
X489603Y615605*
X490068Y614531*
X489925Y614352*
X489746Y614209*
X489424Y614066*
X489316Y614245*
X489495Y615784D02*
X489603Y616106D01*
X489710Y616500*
X489782Y616679*
X489639Y616571*
X489567Y616464*
X489531Y616321*
X489460Y616142*
X489495Y615784*
X489388Y615927D02*
X489137Y616858D01*
X489066Y616714*
X489030Y616571*
Y616392*
X489066Y616213*
X489388Y615927*
X489316Y615855D02*
X488457Y616571D01*
Y616535*
Y616356*
X488565Y616178*
X488815Y615927*
X489316Y615855*
X489424Y614352D02*
X489531Y614209D01*
X489710Y614352*
X489889Y614531*
X489424Y615641*
X488708Y615820*
X488243Y615462*
X488099Y615140*
X488099D02*
X488243Y615211D01*
X488314Y615354*
X488350Y615426*
X488565Y615497*
X488780Y615605*
X489030Y615283*
X488958Y615175*
X488887Y614996*
X488708Y614961*
X488493Y614925*
X488422Y614961*
X488314Y614996*
X488207Y614961*
X488064Y614889*
X488422Y614710*
X488780Y614674*
X489066Y614460*
X489424Y614352*
X489424*
X484252Y623031D02*
X488189D01*
X486220Y621063D02*
Y625000D01*
X489316Y624087D02*
X488958Y624195D01*
X488708Y624409*
X488314Y624445*
X487885Y624660*
X488099Y624875*
X488099D02*
X488350Y624946D01*
X488493Y624911*
X488601*
X488780Y624946*
X488851Y625089*
X488708Y625268*
X488493Y625197*
X488386Y625018*
X488278Y624911*
X488099Y624875*
X488099D02*
X487921Y624839D01*
X488099Y625376*
X488099D02*
X488636Y625734D01*
X488422Y625984*
X488314Y626199*
Y626378*
X488350Y626485*
X488493Y626628*
X488887Y626199*
Y626271*
X488923Y626593*
X489030Y626736*
X489281Y626879*
X489388Y626199*
Y626271*
X489495Y626450*
X489603Y626557*
X489746Y626593*
X489889Y626628*
X489961*
X489853Y626342*
X489746Y625913*
X489603Y625447*
X490068Y624374*
X489925Y624195*
X489746Y624052*
X489424Y623908*
X489316Y624087*
X489495Y625626D02*
X489603Y625948D01*
X489710Y626342*
X489782Y626521*
X489639Y626414*
X489567Y626306*
X489531Y626163*
X489460Y625984*
X489495Y625626*
X489388Y625770D02*
X489137Y626700D01*
X489066Y626557*
X489030Y626414*
Y626235*
X489066Y626056*
X489388Y625770*
X489316Y625698D02*
X488457Y626414D01*
Y626378*
Y626199*
X488565Y626020*
X488815Y625770*
X489316Y625698*
X489424Y624195D02*
X489531Y624052D01*
X489710Y624195*
X489889Y624374*
X489424Y625483*
X488708Y625662*
X488243Y625304*
X488099Y624982*
X488099D02*
X488243Y625054D01*
X488314Y625197*
X488350Y625268*
X488565Y625340*
X488780Y625447*
X489030Y625125*
X488958Y625018*
X488887Y624839*
X488708Y624803*
X488493Y624767*
X488422Y624803*
X488314Y624839*
X488207Y624803*
X488064Y624732*
X488422Y624553*
X488780Y624517*
X489066Y624302*
X489424Y624195*
X489424*
X484252Y632874D02*
X488189D01*
X486220Y630906D02*
Y634843D01*
X489316Y633930D02*
X488958Y634037D01*
X488708Y634252*
X488314Y634288*
X487885Y634503*
X488099Y634717*
X488099D02*
X488350Y634789D01*
X488493Y634753*
X488601*
X488780Y634789*
X488851Y634932*
X488708Y635111*
X488493Y635039*
X488386Y634860*
X488278Y634753*
X488099Y634717*
X488099D02*
X487921Y634681D01*
X488099Y635218*
X488099D02*
X488636Y635576D01*
X488422Y635827*
X488314Y636042*
Y636220*
X488350Y636328*
X488493Y636471*
X488887Y636042*
Y636113*
X488923Y636435*
X489030Y636578*
X489281Y636722*
X489388Y636042*
Y636113*
X489495Y636292*
X489603Y636399*
X489746Y636435*
X489889Y636471*
X489961*
X489853Y636185*
X489746Y635755*
X489603Y635290*
X490068Y634216*
X489925Y634037*
X489746Y633894*
X489424Y633751*
X489316Y633930*
X489495Y635469D02*
X489603Y635791D01*
X489710Y636185*
X489782Y636364*
X489639Y636256*
X489567Y636149*
X489531Y636006*
X489460Y635827*
X489495Y635469*
X489388Y635612D02*
X489137Y636543D01*
X489066Y636399*
X489030Y636256*
Y636077*
X489066Y635898*
X489388Y635612*
X489316Y635540D02*
X488457Y636256D01*
Y636220*
Y636042*
X488565Y635863*
X488815Y635612*
X489316Y635540*
X489424Y634037D02*
X489531Y633894D01*
X489710Y634037*
X489889Y634216*
X489424Y635326*
X488708Y635505*
X488243Y635147*
X488099Y634825*
X488099D02*
X488243Y634896D01*
X488314Y635039*
X488350Y635111*
X488565Y635183*
X488780Y635290*
X489030Y634968*
X488958Y634860*
X488887Y634681*
X488708Y634646*
X488493Y634610*
X488422Y634646*
X488314Y634681*
X488207Y634646*
X488064Y634574*
X488422Y634395*
X488780Y634359*
X489066Y634145*
X489424Y634037*
X489424*
X484252Y642717D02*
X488189D01*
X486220Y640748D02*
Y644685D01*
X489316Y643772D02*
X488958Y643880D01*
X488708Y644094*
X488314Y644130*
X487885Y644345*
X488099Y644560*
X488099D02*
X488350Y644631D01*
X488493Y644596*
X488601*
X488780Y644631*
X488851Y644775*
X488708Y644953*
X488493Y644882*
X488386Y644703*
X488278Y644596*
X488099Y644560*
X488099D02*
X487921Y644524D01*
X488099Y645061*
X488099D02*
X488636Y645419D01*
X488422Y645669*
X488314Y645884*
Y646063*
X488350Y646170*
X488493Y646314*
X488887Y645884*
Y645956*
X488923Y646278*
X489030Y646421*
X489281Y646564*
X489388Y645884*
Y645956*
X489495Y646135*
X489603Y646242*
X489746Y646278*
X489889Y646314*
X489961*
X489853Y646027*
X489746Y645598*
X489603Y645132*
X490068Y644059*
X489925Y643880*
X489746Y643737*
X489424Y643593*
X489316Y643772*
X489495Y645311D02*
X489603Y645633D01*
X489603D02*
X489710Y646027D01*
X489782Y646206*
X489639Y646099*
X489567Y645991*
X489531Y645848*
X489460Y645669*
X489495Y645311*
X489388Y645455D02*
X489137Y646385D01*
X489066Y646242*
X489030Y646099*
Y645920*
X489066Y645741*
X489388Y645455*
X489316Y645383D02*
X488457Y646099D01*
Y646063*
Y645884*
X488565Y645705*
X488815Y645455*
X489316Y645383*
X489424Y643880D02*
X489531Y643737D01*
X489710Y643880*
X489889Y644059*
X489424Y645168*
X488708Y645347*
X488243Y644989*
X488099Y644667*
X488099D02*
X488243Y644739D01*
X488314Y644882*
X488350Y644953*
X488565Y645025*
X488780Y645132*
X489030Y644810*
X488958Y644703*
X488887Y644524*
X488708Y644488*
X488493Y644452*
X488422Y644488*
X488314Y644524*
X488207Y644488*
X488064Y644417*
X488422Y644238*
X488780Y644202*
X489066Y643987*
X489424Y643880*
X489424*
X419291Y642717D02*
X423228D01*
X421260Y640748D02*
Y644685D01*
X424356Y643772D02*
X423998Y643880D01*
X423747Y644094*
X423354Y644130*
X422924Y644345*
X423139Y644560*
X423389Y644631*
X423533Y644596*
X423640*
X423819Y644631*
X423890Y644775*
X423747Y644953*
X423533Y644882*
X423425Y644703*
X423318Y644596*
X423139Y644560*
X422960Y644524*
X423139Y645061*
X423676Y645419*
X423461Y645669*
X423354Y645884*
Y646063*
X423389Y646170*
X423533Y646314*
X423926Y645884*
Y645956*
X423962Y646278*
X424069Y646421*
X424320Y646564*
X424427Y645884*
Y645956*
X424535Y646135*
X424642Y646242*
X424785Y646278*
X424928Y646314*
X425000*
X424893Y646027*
X424785Y645598*
X424642Y645132*
X425107Y644059*
X424964Y643880*
X424785Y643737*
X424463Y643593*
X424356Y643772*
X424535Y645311D02*
X424642Y645633D01*
X424642D02*
X424749Y646027D01*
X424821Y646206*
X424678Y646099*
X424606Y645991*
X424571Y645848*
X424499Y645669*
X424535Y645311*
X424427Y645455D02*
X424177Y646385D01*
X424105Y646242*
X424069Y646099*
Y645920*
X424105Y645741*
X424427Y645455*
X424356Y645383D02*
X423497Y646099D01*
Y646063*
Y645884*
X423604Y645705*
X423855Y645455*
X424356Y645383*
X424463Y643880D02*
X424571Y643737D01*
X424749Y643880*
X424928Y644059*
X424463Y645168*
X423747Y645347*
X423282Y644989*
X423139Y644667*
X423282Y644739*
X423354Y644882*
X423389Y644953*
X423604Y645025*
X423819Y645132*
X424069Y644810*
X423998Y644703*
X423926Y644524*
X423747Y644488*
X423533Y644452*
X423461Y644488*
X423354Y644524*
X423246Y644488*
X423103Y644417*
X423461Y644238*
X423819Y644202*
X424105Y643987*
X424463Y643880*
X424463*
X419291Y632874D02*
X423228D01*
X421260Y630906D02*
Y634843D01*
X424356Y633930D02*
X423998Y634037D01*
X423747Y634252*
X423354Y634288*
X422924Y634503*
X423139Y634717*
X423389Y634789*
X423533Y634753*
X423640*
X423819Y634789*
X423890Y634932*
X423747Y635111*
X423533Y635039*
X423425Y634860*
X423318Y634753*
X423139Y634717*
X422960Y634681*
X423139Y635218*
X423676Y635576*
X423461Y635827*
X423354Y636042*
Y636220*
X423389Y636328*
X423533Y636471*
X423926Y636042*
Y636113*
X423962Y636435*
X424069Y636578*
X424320Y636722*
X424427Y636042*
Y636113*
X424535Y636292*
X424642Y636399*
X424785Y636435*
X424928Y636471*
X425000*
X424893Y636185*
X424785Y635755*
X424642Y635290*
X425107Y634216*
X424964Y634037*
X424785Y633894*
X424463Y633751*
X424356Y633930*
X424535Y635469D02*
X424642Y635791D01*
X424749Y636185*
X424821Y636364*
X424678Y636256*
X424606Y636149*
X424571Y636006*
X424499Y635827*
X424535Y635469*
X424427Y635612D02*
X424177Y636543D01*
X424105Y636399*
X424069Y636256*
Y636077*
X424105Y635898*
X424427Y635612*
X424356Y635540D02*
X423497Y636256D01*
Y636220*
Y636042*
X423604Y635863*
X423855Y635612*
X424356Y635540*
X424463Y634037D02*
X424571Y633894D01*
X424749Y634037*
X424928Y634216*
X424463Y635326*
X423747Y635505*
X423282Y635147*
X423139Y634825*
X423282Y634896*
X423354Y635039*
X423389Y635111*
X423604Y635183*
X423819Y635290*
X424069Y634968*
X423998Y634860*
X423926Y634681*
X423747Y634646*
X423533Y634610*
X423461Y634646*
X423354Y634681*
X423246Y634646*
X423103Y634574*
X423461Y634395*
X423819Y634359*
X424105Y634145*
X424463Y634037*
X424463*
X419291Y623031D02*
X423228D01*
X421260Y621063D02*
Y625000D01*
X424356Y624087D02*
X423998Y624195D01*
X423747Y624409*
X423354Y624445*
X422924Y624660*
X423139Y624875*
X423389Y624946*
X423533Y624911*
X423640*
X423819Y624946*
X423890Y625089*
X423747Y625268*
X423533Y625197*
X423425Y625018*
X423318Y624911*
X423139Y624875*
X422960Y624839*
X423139Y625376*
X423676Y625734*
X423461Y625984*
X423354Y626199*
Y626378*
X423389Y626485*
X423533Y626628*
X423926Y626199*
Y626271*
X423962Y626593*
X424069Y626736*
X424320Y626879*
X424427Y626199*
Y626271*
X424535Y626450*
X424642Y626557*
X424785Y626593*
X424928Y626628*
X425000*
X424893Y626342*
X424785Y625913*
X424642Y625447*
X425107Y624374*
X424964Y624195*
X424785Y624052*
X424463Y623908*
X424356Y624087*
X424535Y625626D02*
X424642Y625948D01*
X424749Y626342*
X424821Y626521*
X424678Y626414*
X424606Y626306*
X424571Y626163*
X424499Y625984*
X424535Y625626*
X424427Y625770D02*
X424177Y626700D01*
X424105Y626557*
X424069Y626414*
Y626235*
X424105Y626056*
X424427Y625770*
X424356Y625698D02*
X423497Y626414D01*
Y626378*
Y626199*
X423604Y626020*
X423855Y625770*
X424356Y625698*
X424463Y624195D02*
X424571Y624052D01*
X424749Y624195*
X424928Y624374*
X424463Y625483*
X423747Y625662*
X423282Y625304*
X423139Y624982*
X423282Y625054*
X423354Y625197*
X423389Y625268*
X423604Y625340*
X423819Y625447*
X424069Y625125*
X423998Y625018*
X423926Y624839*
X423747Y624803*
X423533Y624767*
X423461Y624803*
X423354Y624839*
X423246Y624803*
X423103Y624732*
X423461Y624553*
X423819Y624517*
X424105Y624302*
X424463Y624195*
X424463*
X396654Y478346D02*
X400591D01*
X398622Y476378D02*
Y480315D01*
X401145Y479689D02*
X401074Y479402D01*
X400823Y479366*
X400823D02*
X400608Y479331D01*
X400358Y479366*
X400358D02*
X400179Y479402D01*
X400251Y479617*
X400143Y479760*
X400179Y480047*
X400251Y480297*
X400286Y480369*
Y480512*
X400358Y480619*
X400501Y480655*
X400537Y480691*
X400573Y480762*
X400680Y480870*
X400859Y480941*
X400931*
X400966Y480906*
X400966*
X401002Y480977*
X401038Y481693*
X401074Y481872*
Y481979*
X401181Y482122*
X401396Y482158*
X401467Y482122*
X401503Y482087*
X401539Y481979*
Y481872*
X401467Y481120*
X401790Y481657*
X401897Y481836*
X402004Y481943*
X402112Y481979*
X402183Y482015*
X402326Y481943*
Y481836*
X402291Y481729*
X402183Y481550*
X401790Y480906*
X401754Y480762*
X401682Y480548*
X401646Y480476*
Y480225*
X401432Y479939*
X401145Y479689*
X401145*
X401288Y480977D02*
X401360Y481836D01*
Y481979*
X401324Y482051*
X401253Y482015*
X401217Y481979*
Y481908*
Y481836*
Y481764*
X401181Y480941*
X401503Y480906*
X401575Y480762*
Y480691*
X401646Y480906*
X402040Y481586*
X402147Y481764*
X402183Y481872*
Y481908*
X402183*
X402112Y481872*
X402040Y481800*
X401969Y481657*
X401467Y480977*
X401288*
X401038Y479724D02*
X401217Y479903D01*
X401432Y480190*
X401467Y480225*
Y480297*
Y480548*
X401396Y480798*
X401110Y480834*
X401074Y480762*
X401110Y480691*
X401217Y480619*
X401324*
Y480512*
X401253Y480261*
X401110*
X401145Y480512*
X401145*
X401074Y480548*
X401038Y480583*
Y480476*
Y480333*
X400931Y480154*
X400752Y480118*
X400680Y480154*
X400608Y480011*
X400429Y479975*
X400358Y480011*
X400322Y480082*
X400358Y480154*
X400322Y479868*
Y479832*
X400394Y479653*
X400358Y479474*
X400644Y479438*
X400966Y479474*
X401038Y479724*
X400859Y480512D02*
Y480691D01*
X400823Y480798*
X400787Y480834*
X400752Y480798*
X400716Y480762*
X400680Y480583*
X400716Y480440*
X400752Y480261*
X400787Y480225*
X400823*
X400859Y480297*
X400895Y480404*
X400859Y480512*
X400859*
X400573Y480333D02*
Y480440D01*
X400537Y480512*
X400501Y480548*
X400465*
X400429Y480512*
Y480369*
X400465Y480190*
Y480118*
X400501Y480082*
X400537*
X400573Y480154*
Y480225*
Y480333*
X400573*
X396654Y470472D02*
X400591D01*
X398622Y468504D02*
Y472441D01*
X401145Y471815D02*
X401074Y471528D01*
X400823Y471492*
X400608Y471457*
X400358Y471492*
X400179Y471528*
X400251Y471743*
X400143Y471886*
X400179Y472173*
X400251Y472423*
X400286Y472495*
Y472638*
X400358Y472745*
X400501Y472781*
X400537Y472817*
X400573Y472888*
X400680Y472996*
X400859Y473067*
X400931*
X400966Y473031*
X400966*
X401002Y473103*
X401038Y473819*
X401074Y473998*
Y474105*
X401181Y474248*
X401396Y474284*
X401467Y474248*
X401503Y474213*
X401539Y474105*
Y473998*
X401467Y473246*
X401790Y473783*
X401897Y473962*
X402004Y474069*
X402112Y474105*
X402183Y474141*
X402326Y474069*
Y473962*
X402291Y473855*
X402183Y473676*
X401790Y473031*
X401754Y472888*
X401682Y472674*
X401646Y472602*
Y472351*
X401432Y472065*
X401145Y471815*
X401145*
X401288Y473103D02*
X401360Y473962D01*
Y474105*
X401324Y474177*
X401253Y474141*
X401217Y474105*
Y474034*
Y473962*
Y473890*
X401181Y473067*
X401503Y473031*
X401575Y472888*
Y472817*
X401646Y473031*
X402040Y473712*
X402147Y473890*
X402183Y473998*
Y474034*
X402183*
X402112Y473998*
X402040Y473926*
X401969Y473783*
X401467Y473103*
X401288*
X401038Y471850D02*
X401217Y472029D01*
X401432Y472316*
X401467Y472351*
Y472423*
Y472674*
X401396Y472924*
X401110Y472960*
X401074Y472888*
X401110Y472817*
X401217Y472745*
X401324*
Y472638*
X401253Y472387*
X401110*
X401145Y472638*
X401145*
X401074Y472674*
X401038Y472709*
Y472602*
Y472459*
X400931Y472280*
X400752Y472244*
X400680Y472280*
X400608Y472137*
X400429Y472101*
X400358Y472137*
X400322Y472208*
X400358Y472280*
X400322Y471994*
Y471958*
X400394Y471779*
X400358Y471600*
X400644Y471564*
X400966Y471600*
X401038Y471850*
X400859Y472638D02*
Y472817D01*
X400823Y472924*
X400787Y472960*
X400752Y472924*
X400716Y472888*
X400680Y472709*
X400716Y472566*
X400752Y472387*
X400787Y472351*
X400823*
X400859Y472423*
X400895Y472530*
X400859Y472638*
X400859*
X400573Y472459D02*
Y472566D01*
X400537Y472638*
X400501Y472674*
X400465*
X400429Y472638*
Y472495*
X400465Y472316*
Y472244*
X400501Y472208*
X400537*
X400573Y472280*
Y472351*
Y472459*
X400573*
X396654Y462598D02*
X400591D01*
X398622Y460630D02*
Y464567D01*
X401145Y463941D02*
X401074Y463654D01*
X400823Y463618*
X400608Y463583*
X400358Y463618*
X400179Y463654*
X400251Y463869*
X400143Y464012*
X400179Y464298*
X400251Y464549*
X400286Y464621*
Y464764*
X400358Y464871*
X400501Y464907*
X400537Y464943*
X400573Y465014*
X400680Y465122*
X400859Y465193*
X400931*
X400966Y465157*
X400966*
X401002Y465229*
X401038Y465945*
X401074Y466124*
Y466231*
X401181Y466374*
X401396Y466410*
X401467Y466374*
X401503Y466339*
X401539Y466231*
Y466124*
X401467Y465372*
X401790Y465909*
X401897Y466088*
X402004Y466195*
X402112Y466231*
X402183Y466267*
X402326Y466195*
Y466088*
X402291Y465981*
X402183Y465802*
X401790Y465157*
X401754Y465014*
X401682Y464800*
X401646Y464728*
Y464477*
X401432Y464191*
X401145Y463941*
X401145*
X401288Y465229D02*
X401360Y466088D01*
Y466231*
X401324Y466303*
X401253Y466267*
X401217Y466231*
Y466160*
Y466088*
Y466016*
X401181Y465193*
X401503Y465157*
X401575Y465014*
Y464943*
X401646Y465157*
X402040Y465838*
X402147Y466016*
X402183Y466124*
Y466160*
X402183*
X402112Y466124*
X402040Y466052*
X401969Y465909*
X401467Y465229*
X401288*
X401038Y463976D02*
X401217Y464155D01*
X401432Y464442*
X401467Y464477*
Y464549*
Y464800*
X401396Y465050*
X401110Y465086*
X401074Y465014*
X401110Y464943*
X401217Y464871*
X401324*
Y464764*
X401253Y464513*
X401110*
X401145Y464764*
X401145*
X401074Y464800*
X401038Y464835*
Y464728*
Y464585*
X400931Y464406*
X400752Y464370*
X400680Y464406*
X400608Y464263*
X400429Y464227*
X400358Y464263*
X400322Y464334*
X400358Y464406*
X400322Y464120*
Y464084*
X400394Y463905*
X400358Y463726*
X400644Y463690*
X400966Y463726*
X401038Y463976*
X400859Y464764D02*
Y464943D01*
X400823Y465050*
X400787Y465086*
X400752Y465050*
X400716Y465014*
X400680Y464835*
X400716Y464692*
X400752Y464513*
X400787Y464477*
X400823*
X400859Y464549*
X400895Y464656*
X400859Y464764*
X400859*
X400573Y464585D02*
Y464692D01*
X400537Y464764*
X400501Y464800*
X400465*
X400429Y464764*
Y464621*
X400465Y464442*
Y464370*
X400501Y464334*
X400537*
X400573Y464406*
Y464477*
Y464585*
X400573*
X396654Y454724D02*
X400591D01*
X398622Y452756D02*
Y456693D01*
X401145Y456067D02*
X401074Y455780D01*
X400823Y455744*
X400608Y455709*
X400358Y455744*
X400179Y455780*
X400251Y455995*
X400143Y456138*
X400179Y456424*
X400251Y456675*
X400286Y456747*
Y456890*
X400358Y456997*
X400501Y457033*
X400537Y457069*
X400573Y457140*
X400680Y457248*
X400859Y457319*
X400931*
X400966Y457283*
X400966*
X401002Y457355*
X401038Y458071*
X401074Y458250*
Y458357*
X401181Y458500*
X401396Y458536*
X401467Y458500*
X401503Y458465*
X401539Y458357*
Y458250*
X401467Y457498*
X401790Y458035*
X401897Y458214*
X402004Y458321*
X402112Y458357*
X402183Y458393*
X402326Y458321*
Y458214*
X402291Y458107*
X402183Y457928*
X401790Y457283*
X401754Y457140*
X401682Y456926*
X401646Y456854*
Y456603*
X401432Y456317*
X401145Y456067*
X401145*
X401288Y457355D02*
X401360Y458214D01*
Y458357*
X401324Y458429*
X401253Y458393*
X401217Y458357*
Y458286*
Y458214*
Y458142*
X401181Y457319*
X401503Y457283*
X401575Y457140*
Y457069*
X401646Y457283*
X402040Y457963*
X402147Y458142*
X402183Y458250*
Y458286*
X402183*
X402112Y458250*
X402040Y458178*
X401969Y458035*
X401467Y457355*
X401288*
X401038Y456102D02*
X401217Y456281D01*
X401432Y456568*
X401467Y456603*
Y456675*
Y456926*
X401396Y457176*
X401110Y457212*
X401074Y457140*
X401110Y457069*
X401217Y456997*
X401324*
Y456890*
X401253Y456639*
X401110*
X401145Y456890*
X401145*
X401074Y456926*
X401038Y456961*
Y456854*
Y456711*
X400931Y456532*
X400752Y456496*
X400680Y456532*
X400608Y456389*
X400429Y456353*
X400358Y456389*
X400322Y456460*
X400358Y456532*
X400322Y456246*
Y456210*
X400394Y456031*
X400358Y455852*
X400644Y455816*
X400966Y455852*
X401038Y456102*
X400859Y456890D02*
Y457069D01*
X400823Y457176*
X400787Y457212*
X400752Y457176*
X400716Y457140*
X400680Y456961*
X400716Y456818*
X400752Y456639*
X400787Y456603*
X400823*
X400859Y456675*
X400895Y456782*
X400859Y456890*
X400859*
X400573Y456711D02*
Y456818D01*
X400537Y456890*
X400501Y456926*
X400465*
X400429Y456890*
Y456747*
X400465Y456568*
Y456496*
X400501Y456460*
X400537*
X400573Y456532*
Y456603*
Y456711*
X400573*
X466535Y623031D02*
X470472D01*
X468504Y621063D02*
Y625000D01*
X471600Y624087D02*
X471242Y624195D01*
X470991Y624409*
X470598Y624445*
X470168Y624660*
X470383Y624875*
X470633Y624946*
X470633D02*
X470777Y624911D01*
X470884*
X471063Y624946*
X471135Y625089*
X470991Y625268*
X470777Y625197*
X470669Y625018*
X470562Y624911*
X470383Y624875*
X470204Y624839*
X470383Y625376*
X470920Y625734*
X470705Y625984*
X470598Y626199*
Y626378*
X470633Y626485*
X470633D02*
X470777Y626628D01*
X471170Y626199*
Y626271*
X471206Y626593*
X471314Y626736*
X471564Y626879*
X471671Y626199*
Y626271*
X471779Y626450*
X471886Y626557*
X472029Y626593*
X472173Y626628*
X472244*
X472137Y626342*
X472029Y625913*
X471886Y625447*
X472351Y624374*
X472208Y624195*
X472029Y624052*
X471707Y623908*
X471600Y624087*
X471779Y625626D02*
X471886Y625948D01*
X471994Y626342*
X472065Y626521*
X471922Y626414*
X471850Y626306*
X471815Y626163*
X471743Y625984*
X471779Y625626*
X471671Y625770D02*
X471421Y626700D01*
X471349Y626557*
X471314Y626414*
Y626235*
X471349Y626056*
X471671Y625770*
X471600Y625698D02*
X470741Y626414D01*
Y626378*
Y626199*
X470848Y626020*
X471099Y625770*
X471600Y625698*
X471707Y624195D02*
X471815Y624052D01*
X471994Y624195*
X472173Y624374*
X471707Y625483*
X470991Y625662*
X470526Y625304*
X470383Y624982*
X470526Y625054*
X470598Y625197*
X470633Y625268*
X470633D02*
X470848Y625340D01*
X471063Y625447*
X471314Y625125*
X471242Y625018*
X471170Y624839*
X470991Y624803*
X470777Y624767*
X470705Y624803*
X470598Y624839*
X470490Y624803*
X470347Y624732*
X470705Y624553*
X471063Y624517*
X471349Y624302*
X471707Y624195*
X471707*
X466535Y632874D02*
X470472D01*
X468504Y630906D02*
Y634843D01*
X471600Y633930D02*
X471242Y634037D01*
X470991Y634252*
X470598Y634288*
X470168Y634503*
X470383Y634717*
X470633Y634789*
X470633D02*
X470777Y634753D01*
X470884*
X471063Y634789*
X471135Y634932*
X470991Y635111*
X470777Y635039*
X470669Y634860*
X470562Y634753*
X470383Y634717*
X470204Y634681*
X470383Y635218*
X470920Y635576*
X470705Y635827*
X470598Y636042*
Y636220*
X470633Y636328*
X470633D02*
X470777Y636471D01*
X471170Y636042*
Y636113*
X471206Y636435*
X471314Y636578*
X471564Y636722*
X471671Y636042*
Y636113*
X471779Y636292*
X471886Y636399*
X472029Y636435*
X472173Y636471*
X472244*
X472137Y636185*
X472029Y635755*
X471886Y635290*
X472351Y634216*
X472208Y634037*
X472029Y633894*
X471707Y633751*
X471600Y633930*
X471779Y635469D02*
X471886Y635791D01*
X471994Y636185*
X472065Y636364*
X471922Y636256*
X471850Y636149*
X471815Y636006*
X471743Y635827*
X471779Y635469*
X471671Y635612D02*
X471421Y636543D01*
X471349Y636399*
X471314Y636256*
Y636077*
X471349Y635898*
X471671Y635612*
X471600Y635540D02*
X470741Y636256D01*
Y636220*
Y636042*
X470848Y635863*
X471099Y635612*
X471600Y635540*
X471707Y634037D02*
X471815Y633894D01*
X471994Y634037*
X472173Y634216*
X471707Y635326*
X470991Y635505*
X470526Y635147*
X470383Y634825*
X470526Y634896*
X470598Y635039*
X470633Y635111*
X470633D02*
X470848Y635183D01*
X471063Y635290*
X471314Y634968*
X471242Y634860*
X471170Y634681*
X470991Y634646*
X470777Y634610*
X470705Y634646*
X470598Y634681*
X470490Y634646*
X470347Y634574*
X470705Y634395*
X471063Y634359*
X471349Y634145*
X471707Y634037*
X471707*
X466535Y642717D02*
X470472D01*
X468504Y640748D02*
Y644685D01*
X471600Y643772D02*
X471242Y643880D01*
X470991Y644094*
X470598Y644130*
X470168Y644345*
X470383Y644560*
X470633Y644631*
X470633D02*
X470777Y644596D01*
X470884*
X471063Y644631*
X471135Y644775*
X470991Y644953*
X470777Y644882*
X470669Y644703*
X470562Y644596*
X470383Y644560*
X470204Y644524*
X470383Y645061*
X470920Y645419*
X470705Y645669*
X470598Y645884*
Y646063*
X470633Y646170*
X470633D02*
X470777Y646314D01*
X471170Y645884*
Y645956*
X471206Y646278*
X471314Y646421*
X471564Y646564*
X471671Y645884*
Y645956*
X471779Y646135*
X471886Y646242*
X472029Y646278*
X472173Y646314*
X472244*
X472137Y646027*
X472029Y645598*
X471886Y645132*
X472351Y644059*
X472208Y643880*
X472029Y643737*
X471707Y643593*
X471600Y643772*
X471779Y645311D02*
X471886Y645633D01*
X471886D02*
X471994Y646027D01*
X472065Y646206*
X471922Y646099*
X471850Y645991*
X471815Y645848*
X471743Y645669*
X471779Y645311*
X471671Y645455D02*
X471421Y646385D01*
X471349Y646242*
X471314Y646099*
Y645920*
X471349Y645741*
X471671Y645455*
X471600Y645383D02*
X470741Y646099D01*
Y646063*
Y645884*
X470848Y645705*
X471099Y645455*
X471600Y645383*
X471707Y643880D02*
X471815Y643737D01*
X471994Y643880*
X472173Y644059*
X471707Y645168*
X470991Y645347*
X470526Y644989*
X470383Y644667*
X470526Y644739*
X470598Y644882*
X470633Y644953*
X470633D02*
X470848Y645025D01*
X471063Y645132*
X471314Y644810*
X471242Y644703*
X471170Y644524*
X470991Y644488*
X470777Y644452*
X470705Y644488*
X470598Y644524*
X470490Y644488*
X470347Y644417*
X470705Y644238*
X471063Y644202*
X471349Y643987*
X471707Y643880*
X471707*
X396654Y503937D02*
X400591D01*
X398622Y501969D02*
Y505906D01*
X401145Y505279D02*
X401074Y504993D01*
X400823Y504957*
X400608Y504921*
X400358Y504957*
X400179Y504993*
X400251Y505208*
X400143Y505351*
X400179Y505637*
X400251Y505888*
X400286Y505959*
Y506102*
X400358Y506210*
X400501Y506246*
X400537Y506281*
X400573Y506353*
X400680Y506460*
X400859Y506532*
X400931*
X400966Y506496*
X400966*
X401002Y506568*
X401038Y507283*
X401074Y507462*
Y507570*
X401181Y507713*
X401396Y507749*
X401467Y507713*
X401503Y507677*
X401539Y507570*
Y507462*
X401467Y506711*
X401790Y507248*
X401897Y507427*
X402004Y507534*
X402112Y507570*
X402183Y507606*
X402326Y507534*
Y507427*
X402291Y507319*
X402183Y507140*
X401790Y506496*
X401754Y506353*
X401682Y506138*
X401646Y506067*
Y505816*
X401432Y505530*
X401145Y505279*
X401145*
X401288Y506568D02*
X401360Y507427D01*
Y507570*
X401324Y507641*
X401253Y507606*
X401217Y507570*
Y507498*
Y507427*
Y507355*
X401181Y506532*
X401503Y506496*
X401575Y506353*
Y506281*
X401646Y506496*
X402040Y507176*
X402147Y507355*
X402183Y507462*
Y507498*
X402183*
X402112Y507462*
X402040Y507391*
X401969Y507248*
X401467Y506568*
X401288*
X401038Y505315D02*
X401217Y505494D01*
X401432Y505780*
X401467Y505816*
Y505888*
Y506138*
X401396Y506389*
X401110Y506424*
X401074Y506353*
X401110Y506281*
X401217Y506210*
X401324*
Y506102*
X401253Y505852*
X401110*
X401145Y506102*
X401145*
X401074Y506138*
X401038Y506174*
Y506067*
Y505923*
X400931Y505744*
X400752Y505709*
X400680Y505744*
X400608Y505601*
X400429Y505565*
X400358Y505601*
X400322Y505673*
X400358Y505744*
X400322Y505458*
Y505422*
X400394Y505243*
X400358Y505064*
X400644Y505029*
X400966Y505064*
X401038Y505315*
X400859Y506102D02*
Y506281D01*
X400823Y506389*
X400787Y506424*
X400752Y506389*
X400716Y506353*
X400680Y506174*
X400716Y506031*
X400752Y505852*
X400787Y505816*
X400823*
X400859Y505888*
X400895Y505995*
X400859Y506102*
X400859*
X400573Y505923D02*
Y506031D01*
X400537Y506102*
X400501Y506138*
X400465*
X400429Y506102*
Y505959*
X400465Y505780*
Y505709*
X400501Y505673*
X400537*
X400573Y505744*
Y505816*
Y505923*
X400573*
X396654Y496063D02*
X400591D01*
X398622Y494094D02*
Y498031D01*
X401145Y497405D02*
X401074Y497119D01*
X400823Y497083*
X400608Y497047*
X400358Y497083*
X400179Y497119*
X400251Y497334*
X400143Y497477*
X400179Y497763*
X400251Y498014*
X400286Y498085*
Y498228*
X400358Y498336*
X400501Y498372*
X400537Y498407*
X400573Y498479*
X400680Y498586*
X400859Y498658*
X400931*
X400966Y498622*
X400966*
X401002Y498694*
X401038Y499409*
X401074Y499588*
Y499696*
X401181Y499839*
X401396Y499875*
X401467Y499839*
X401503Y499803*
X401539Y499696*
Y499588*
X401467Y498837*
X401790Y499374*
X401897Y499553*
X402004Y499660*
X402112Y499696*
X402183Y499732*
X402326Y499660*
Y499553*
X402291Y499445*
X402183Y499266*
X401790Y498622*
X401754Y498479*
X401682Y498264*
X401646Y498193*
Y497942*
X401432Y497656*
X401145Y497405*
X401145*
X401288Y498694D02*
X401360Y499553D01*
Y499696*
X401324Y499767*
X401253Y499732*
X401217Y499696*
Y499624*
Y499553*
Y499481*
X401181Y498658*
X401503Y498622*
X401575Y498479*
Y498407*
X401646Y498622*
X402040Y499302*
X402147Y499481*
X402183Y499588*
Y499624*
X402183*
X402112Y499588*
X402040Y499517*
X401969Y499374*
X401467Y498694*
X401288*
X401038Y497441D02*
X401217Y497620D01*
X401432Y497906*
X401467Y497942*
Y498014*
Y498264*
X401396Y498515*
X401110Y498550*
X401074Y498479*
X401110Y498407*
X401217Y498336*
X401324*
Y498228*
X401253Y497978*
X401110*
X401145Y498228*
X401145*
X401074Y498264*
X401038Y498300*
Y498193*
Y498049*
X400931Y497870*
X400752Y497835*
X400680Y497870*
X400608Y497727*
X400429Y497691*
X400358Y497727*
X400322Y497799*
X400358Y497870*
X400322Y497584*
Y497548*
X400394Y497369*
X400358Y497190*
X400644Y497155*
X400966Y497190*
X401038Y497441*
X400859Y498228D02*
Y498407D01*
X400823Y498515*
X400787Y498550*
X400752Y498515*
X400716Y498479*
X400680Y498300*
X400716Y498157*
X400752Y497978*
X400787Y497942*
X400823*
X400859Y498014*
X400895Y498121*
X400859Y498228*
X400859*
X400573Y498049D02*
Y498157D01*
X400537Y498228*
X400501Y498264*
X400465*
X400429Y498228*
Y498085*
X400465Y497906*
Y497835*
X400501Y497799*
X400537*
X400573Y497870*
Y497942*
Y498049*
X400573*
X467913Y401890D02*
X471850Y405827D01*
X467913D02*
X471850Y401890D01*
X417913D02*
X421850Y405827D01*
X417913D02*
X421850Y401890D01*
X396654Y420768D02*
X400591Y424705D01*
Y420768*
X396654Y424705*
Y420768*
Y425689D02*
X400591Y429626D01*
Y425689*
X396654Y429626*
Y425689*
Y430610D02*
X400591Y434547D01*
Y430610*
X396654Y434547*
Y430610*
Y435531D02*
X400591Y439469D01*
Y435531*
X396654Y439469*
Y435531*
X405512Y413386D02*
X409449D01*
X407480Y411417D02*
Y415354D01*
X399606Y408465D02*
X403543D01*
X401575Y406496D02*
Y410433D01*
X399606Y413386D02*
X403543D01*
X401575Y411417D02*
Y415354D01*
X395669Y416929D02*
X399606D01*
X397638Y414961D02*
Y418898D01*
X395669Y403543D02*
X399606D01*
X397638Y401575D02*
Y405512D01*
X444390Y402067D02*
X448327D01*
Y406004*
X444390*
Y402067*
X446358Y404035D02*
Y406004D01*
X433563Y402067D02*
X437500D01*
Y406004*
X433563*
Y402067*
X435531Y404035D02*
Y406004D01*
X424213Y410433D02*
X428150D01*
X426181Y408465D02*
Y412402D01*
X437746Y411811D02*
X441683D01*
Y415748*
X437746*
Y411811*
X439715Y413780D02*
Y415748D01*
X437746Y403543D02*
X441683D01*
Y407480*
X437746*
Y403543*
X439715Y405512D02*
Y407480D01*
X460630Y406988D02*
X464567D01*
Y410925*
X460630*
Y406988*
X462598Y408957D02*
Y410925D01*
X451772Y402067D02*
X455709D01*
Y406004*
X451772*
Y402067*
X453740Y404035D02*
Y406004D01*
X472441Y415354D02*
X476378D01*
X474409Y413386D02*
Y417323D01*
X482283Y415354D02*
X486220D01*
X484252Y413386D02*
Y417323D01*
X447982Y412205D02*
X451919D01*
Y416142*
X447982*
Y412205*
X449951Y414173D02*
Y416142D01*
X462598Y415354D02*
X466535D01*
X464567Y413386D02*
Y417323D01*
X490157Y415354D02*
X494094D01*
X492126Y413386D02*
Y417323D01*
X490157Y403543D02*
X494094D01*
X492126Y401575D02*
Y405512D01*
X402362Y449606D02*
X406299D01*
Y453543*
X402362*
Y449606*
X404331Y451575D02*
Y453543D01*
X402362D02*
X406299D01*
Y457480*
X402362*
Y453543*
X404331Y455512D02*
Y457480D01*
X405512Y431102D02*
X409449D01*
X407480Y429134D02*
Y433071D01*
X401969Y436614D02*
X405906D01*
Y440551*
X401969*
Y436614*
X403937Y438583D02*
Y440551D01*
X395669Y446457D02*
X399606D01*
X397638Y444488D02*
Y448425D01*
X405512Y419291D02*
X409449D01*
X407480Y417323D02*
Y421260D01*
X401969Y445276D02*
X405906D01*
Y449213*
X401969*
Y445276*
X403937Y447244D02*
Y449213D01*
X411811Y439370D02*
X415748D01*
X413780Y437402D02*
Y441339D01*
X421260Y454724D02*
X425197D01*
X423228Y452756D02*
Y456693D01*
X413386Y446850D02*
X417323D01*
X415354Y444882D02*
Y448819D01*
X421260Y446850D02*
X425197D01*
X423228Y444882D02*
Y448819D01*
X431102Y437402D02*
X435039D01*
Y441339*
X431102*
Y437402*
X433071Y439370D02*
Y441339D01*
X435630Y429528D02*
X439567D01*
Y433465*
X435630*
Y429528*
X437598Y431496D02*
Y433465D01*
X440551Y415354D02*
X444488D01*
Y419291*
X440551*
Y415354*
X442520Y417323D02*
Y419291D01*
X431594Y415354D02*
X435531D01*
Y419291*
X431594*
Y415354*
X433563Y417323D02*
Y419291D01*
X417323Y417323D02*
X421260D01*
X419291Y415354D02*
Y419291D01*
X413386Y454724D02*
X417323D01*
X415354Y452756D02*
Y456693D01*
X429134Y446850D02*
X433071D01*
X431102Y444882D02*
Y448819D01*
X425197Y437008D02*
X429134D01*
X427165Y435039D02*
Y438976D01*
X437008Y450787D02*
X440945D01*
X438976Y448819D02*
Y452756D01*
X412795Y434843D02*
X416732D01*
X414764Y432874D02*
Y436811D01*
X419882Y434646D02*
X423819D01*
X421850Y432677D02*
Y436614D01*
X416339Y434843D02*
X420276D01*
X418307Y432874D02*
Y436811D01*
X442913Y431102D02*
X446850D01*
Y435039*
X442913*
Y431102*
X444882Y433071D02*
Y435039D01*
X425197Y426181D02*
X429134D01*
Y430118*
X425197*
Y426181*
X427165Y428150D02*
Y430118D01*
X438976Y431102D02*
X442913D01*
Y435039*
X438976*
Y431102*
X440945Y433071D02*
Y435039D01*
X425591Y430709D02*
X429528D01*
Y434646*
X425591*
Y430709*
X427559Y432677D02*
Y434646D01*
X428346Y430709D02*
X432283D01*
Y434646*
X428346*
Y430709*
X430315Y432677D02*
Y434646D01*
X427165Y421260D02*
X431102D01*
Y425197*
X427165*
Y421260*
X429134Y423228D02*
Y425197D01*
X438976Y421260D02*
X442913D01*
Y425197*
X438976*
Y421260*
X440945Y423228D02*
Y425197D01*
X430118Y421260D02*
X434055D01*
Y425197*
X430118*
Y421260*
X432087Y423228D02*
Y425197D01*
X442913Y421260D02*
X446850D01*
Y425197*
X442913*
Y421260*
X444882Y423228D02*
Y425197D01*
X446850Y450787D02*
X450787D01*
X448819Y448819D02*
Y452756D01*
X454724Y450787D02*
X458661D01*
X456693Y448819D02*
Y452756D01*
X462598Y450787D02*
X466535D01*
X464567Y448819D02*
Y452756D01*
X482283Y438976D02*
X486220D01*
X484252Y437008D02*
Y440945D01*
X472441Y438976D02*
X476378D01*
X474409Y437008D02*
Y440945D01*
X462598Y438976D02*
X466535D01*
X464567Y437008D02*
Y440945D01*
X454724Y438976D02*
X458661D01*
X456693Y437008D02*
Y440945D01*
X446850Y422047D02*
X450787D01*
Y425984*
X446850*
Y422047*
X448819Y424016D02*
Y425984D01*
X472441Y450787D02*
X476378D01*
X474409Y448819D02*
Y452756D01*
X482283Y450787D02*
X486220D01*
X484252Y448819D02*
Y452756D01*
X454724Y427165D02*
X458661D01*
X456693Y425197D02*
Y429134D01*
X446850Y426181D02*
X450787D01*
Y430118*
X446850*
Y426181*
X448819Y428150D02*
Y430118D01*
X462598Y427165D02*
X466535D01*
X464567Y425197D02*
Y429134D01*
X472441Y427165D02*
X476378D01*
X474409Y425197D02*
Y429134D01*
X482283Y427165D02*
X486220D01*
X484252Y425197D02*
Y429134D01*
X446457Y433071D02*
X450394D01*
Y437008*
X446457*
Y433071*
X448425Y435039D02*
Y437008D01*
X490157Y438976D02*
X494094D01*
X492126Y437008D02*
Y440945D01*
X490157Y450787D02*
X494094D01*
X492126Y448819D02*
Y452756D01*
X490157Y427165D02*
X494094D01*
X492126Y425197D02*
Y429134D01*
X425197Y462598D02*
X429134D01*
X427165Y460630D02*
Y464567D01*
X419685Y494094D02*
X423622D01*
Y498031*
X419685*
Y494094*
X421654Y496063D02*
Y498031D01*
X410236Y493307D02*
X414173D01*
Y497244*
X410236*
Y493307*
X412205Y495276D02*
Y497244D01*
X410433Y463583D02*
X414370D01*
Y467520*
X410433*
Y463583*
X412402Y465551D02*
Y467520D01*
X414370Y459646D02*
X418307D01*
Y463583*
X414370*
Y459646*
X416339Y461614D02*
Y463583D01*
X418307Y456693D02*
X422244D01*
Y460630*
X418307*
Y456693*
X420276Y458661D02*
Y460630D01*
X437008Y462598D02*
X440945D01*
X438976Y460630D02*
Y464567D01*
X437008Y469488D02*
X440945D01*
X438976Y467520D02*
Y471457D01*
X425197Y469488D02*
X429134D01*
X427165Y467520D02*
Y471457D01*
X422244Y491732D02*
X426181D01*
Y495669*
X422244*
Y491732*
X424213Y493701D02*
Y495669D01*
X436890Y490945D02*
X440827D01*
Y494882*
X436890*
Y490945*
X438858Y492913D02*
Y494882D01*
X440906Y491043D02*
X444843D01*
Y494980*
X440906*
Y491043*
X442874Y493012D02*
Y494980D01*
X434252Y493307D02*
X438189D01*
Y497244*
X434252*
Y493307*
X436220Y495276D02*
Y497244D01*
X425000Y491732D02*
X428937D01*
Y495669*
X425000*
Y491732*
X426969Y493701D02*
Y495669D01*
X428858Y491732D02*
X432795D01*
Y495669*
X428858*
Y491732*
X430827Y493701D02*
Y495669D01*
X440945Y469291D02*
X444882D01*
Y473228*
X440945*
Y469291*
X442913Y471260D02*
Y473228D01*
X444882Y470079D02*
X448819D01*
Y474016*
X444882*
Y470079*
X446850Y472047D02*
Y474016D01*
X454724Y462598D02*
X458661D01*
X456693Y460630D02*
Y464567D01*
X446850Y462598D02*
X450787D01*
X448819Y460630D02*
Y464567D01*
X447441Y468307D02*
X451378D01*
X449409Y466339D02*
Y470276D01*
X474409Y472441D02*
X478346D01*
X476378Y470472D02*
Y474409D01*
X472441Y462598D02*
X476378D01*
X474409Y460630D02*
Y464567D01*
X482283Y462598D02*
X486220D01*
X484252Y460630D02*
Y464567D01*
X462598Y462598D02*
X466535D01*
X464567Y460630D02*
Y464567D01*
X482283Y484252D02*
X486220D01*
X484252Y482283D02*
Y486220D01*
X482283Y472441D02*
X486220D01*
X484252Y470472D02*
Y474409D01*
X485236Y489370D02*
X489173D01*
Y493307*
X485236*
Y489370*
X487205Y491339D02*
Y493307D01*
X475591Y490945D02*
X479528D01*
Y494882*
X475591*
Y490945*
X477559Y492913D02*
Y494882D01*
X452953Y490945D02*
X456890D01*
Y494882*
X452953*
Y490945*
X454921Y492913D02*
Y494882D01*
X456969Y490945D02*
X460906D01*
Y494882*
X456969*
Y490945*
X458937Y492913D02*
Y494882D01*
X461693Y490945D02*
X465630D01*
Y494882*
X461693*
Y490945*
X463661Y492913D02*
Y494882D01*
X468937Y490945D02*
X472874D01*
Y494882*
X468937*
Y490945*
X470906Y492913D02*
Y494882D01*
X453740Y469291D02*
X457677D01*
Y473228*
X453740*
Y469291*
X455709Y471260D02*
Y473228D01*
X449803Y470079D02*
X453740D01*
Y474016*
X449803*
Y470079*
X451772Y472047D02*
Y474016D01*
X472835Y484252D02*
X476772D01*
Y488189*
X472835*
Y484252*
X474803Y486220D02*
Y488189D01*
X490157Y484252D02*
X494094D01*
X492126Y482283D02*
Y486220D01*
X490157Y462598D02*
X494094D01*
X492126Y460630D02*
Y464567D01*
X490157Y472441D02*
X494094D01*
X492126Y470472D02*
Y474409D01*
X397441Y530512D02*
X401378D01*
Y534449*
X397441*
Y530512*
X399409Y532480D02*
Y534449D01*
X403543Y509055D02*
X407480D01*
Y512992*
X403543*
Y509055*
X405512Y511024D02*
Y512992D01*
X405217Y511811D02*
X409154D01*
Y515748*
X405217*
Y511811*
X407185Y513780D02*
Y515748D01*
X405512Y531496D02*
X409449D01*
Y535433*
X405512*
Y531496*
X407480Y533465D02*
Y535433D01*
X405512Y534449D02*
X409449D01*
Y538386*
X405512*
Y534449*
X407480Y536417D02*
Y538386D01*
X421654Y496063D02*
X425591D01*
Y500000*
X421654*
Y496063*
X423622Y498031D02*
Y500000D01*
X424016Y496063D02*
X427953D01*
Y500000*
X424016*
Y496063*
X425984Y498031D02*
Y500000D01*
X412205Y495276D02*
X416142D01*
Y499213*
X412205*
Y495276*
X414173Y497244D02*
Y499213D01*
X408661Y496063D02*
X412598D01*
Y500000*
X408661*
Y496063*
X410630Y498031D02*
Y500000D01*
X423228Y529528D02*
X427165D01*
X425197Y527559D02*
Y531496D01*
X427165Y496063D02*
X431102D01*
Y500000*
X427165*
Y496063*
X429134Y498031D02*
Y500000D01*
X431299Y517717D02*
X435236D01*
X433268Y515748D02*
Y519685D01*
X431102Y529528D02*
X435039D01*
X433071Y527559D02*
Y531496D01*
X412894Y529528D02*
X416831D01*
X414862Y527559D02*
Y531496D01*
X414173Y497244D02*
X418110D01*
Y501181*
X414173*
Y497244*
X416142Y499213D02*
Y501181D01*
X425787Y516732D02*
X429724D01*
Y520669*
X425787*
Y516732*
X427756Y518701D02*
Y520669D01*
X425787Y511811D02*
X429724D01*
Y515748*
X425787*
Y511811*
X427756Y513780D02*
Y515748D01*
X407480Y498819D02*
X411417D01*
Y502756*
X407480*
Y498819*
X409449Y500787D02*
Y502756D01*
X430118Y508071D02*
X434055D01*
Y512008*
X430118*
Y508071*
X432087Y510039D02*
Y512008D01*
X435039Y511811D02*
X438976D01*
Y515748*
X435039*
Y511811*
X437008Y513780D02*
Y515748D01*
X433071Y510236D02*
X437008D01*
Y514173*
X433071*
Y510236*
X435039Y512205D02*
Y514173D01*
X442913Y515354D02*
X446850D01*
Y519291*
X442913*
Y515354*
X444882Y517323D02*
Y519291D01*
X441929Y531890D02*
X445866D01*
Y535827*
X441929*
Y531890*
X443898Y533858D02*
Y535827D01*
X432283Y534843D02*
X436220D01*
Y538780*
X432283*
Y534843*
X434252Y536811D02*
Y538780D01*
X430118Y498819D02*
X434055D01*
Y502756*
X430118*
Y498819*
X432087Y500787D02*
Y502756D01*
X437008Y498819D02*
X440945D01*
Y502756*
X437008*
Y498819*
X438976Y500787D02*
Y502756D01*
X434055Y498819D02*
X437992D01*
Y502756*
X434055*
Y498819*
X436024Y500787D02*
Y502756D01*
X425197Y522441D02*
X429134D01*
Y526378*
X425197*
Y522441*
X427165Y524409D02*
Y526378D01*
X425197Y520079D02*
X429134D01*
Y524016*
X425197*
Y520079*
X427165Y522047D02*
Y524016D01*
X420276Y523622D02*
X424213D01*
Y527559*
X420276*
Y523622*
X422244Y525591D02*
Y527559D01*
X420276Y521457D02*
X424213D01*
Y525394*
X420276*
Y521457*
X422244Y523425D02*
Y525394D01*
X438189Y527165D02*
X442126D01*
Y531102*
X438189*
Y527165*
X440157Y529134D02*
Y531102D01*
X436614Y518701D02*
X440551D01*
Y522638*
X436614*
Y518701*
X438583Y520669D02*
Y522638D01*
X437008Y510236D02*
X440945D01*
Y514173*
X437008*
Y510236*
X438976Y512205D02*
Y514173D01*
X442913Y521654D02*
X446850D01*
Y525591*
X442913*
Y521654*
X444882Y523622D02*
Y525591D01*
X429528Y523228D02*
X433465D01*
Y527165*
X429528*
Y523228*
X431496Y525197D02*
Y527165D01*
X436614Y522638D02*
X440551D01*
Y526575*
X436614*
Y522638*
X438583Y524606D02*
Y526575D01*
X443898Y527953D02*
X447835D01*
Y531890*
X443898*
Y527953*
X445866Y529921D02*
Y531890D01*
X442913Y518504D02*
X446850D01*
Y522441*
X442913*
Y518504*
X444882Y520472D02*
Y522441D01*
X428150Y534449D02*
X432087D01*
X430118Y532480D02*
Y536417D01*
X424213Y534449D02*
X428150D01*
X426181Y532480D02*
Y536417D01*
X420276Y534449D02*
X424213D01*
X422244Y532480D02*
Y536417D01*
X412992Y509843D02*
X416929D01*
Y513780*
X412992*
Y509843*
X414961Y511811D02*
Y513780D01*
X412402Y521654D02*
X416339D01*
Y525591*
X412402*
Y521654*
X414370Y523622D02*
Y525591D01*
X408465Y507677D02*
X412402D01*
Y511614*
X408465*
Y507677*
X410433Y509646D02*
Y511614D01*
X441929Y496654D02*
X445866D01*
Y500591*
X441929*
Y496654*
X443898Y498622D02*
Y500591D01*
X444882Y496654D02*
X448819D01*
Y500591*
X444882*
Y496654*
X446850Y498622D02*
Y500591D01*
X464764Y516142D02*
X468701D01*
Y520079*
X464764*
Y516142*
X466732Y518110D02*
Y520079D01*
X461811Y498425D02*
X465748D01*
X463780Y496457D02*
Y500394D01*
X479331Y498031D02*
X483268D01*
X481299Y496063D02*
Y500000D01*
Y505906D02*
X485236D01*
X483268Y503937D02*
Y507874D01*
X468504Y499016D02*
X472441D01*
X470472Y497047D02*
Y500984D01*
X455217Y499508D02*
X459154D01*
X457185Y497539D02*
Y501476D01*
X472441Y535433D02*
X476378D01*
X474409Y533465D02*
Y537402D01*
X450787Y515354D02*
X454724D01*
Y519291*
X450787*
Y515354*
X452756Y517323D02*
Y519291D01*
X446850Y515354D02*
X450787D01*
Y519291*
X446850*
Y515354*
X448819Y517323D02*
Y519291D01*
X446850Y521654D02*
X450787D01*
Y525591*
X446850*
Y521654*
X448819Y523622D02*
Y525591D01*
X468504Y508465D02*
X472441D01*
Y512402*
X468504*
Y508465*
X470472Y510433D02*
Y512402D01*
X458661Y507480D02*
X462598D01*
Y511417*
X458661*
Y507480*
X460630Y509449D02*
Y511417D01*
X455709Y507480D02*
X459646D01*
Y511417*
X455709*
Y507480*
X457677Y509449D02*
Y511417D01*
X450787Y521654D02*
X454724D01*
Y525591*
X450787*
Y521654*
X452756Y523622D02*
Y525591D01*
X464567Y508268D02*
X468504D01*
Y512205*
X464567*
Y508268*
X466535Y510236D02*
Y512205D01*
X447835Y528150D02*
X451772D01*
Y532087*
X447835*
Y528150*
X449803Y530118D02*
Y532087D01*
X450787Y531496D02*
X454724D01*
Y535433*
X450787*
Y531496*
X452756Y533465D02*
Y535433D01*
X465551Y528937D02*
X469488D01*
Y532874*
X465551*
Y528937*
X467520Y530906D02*
Y532874D01*
X470965Y529921D02*
X474902D01*
Y533858*
X470965*
Y529921*
X472933Y531890D02*
Y533858D01*
X469882Y516142D02*
X473819D01*
Y520079*
X469882*
Y516142*
X471850Y518110D02*
Y520079D01*
X455512Y531496D02*
X459449D01*
Y535433*
X455512*
Y531496*
X457480Y533465D02*
Y535433D01*
X479331Y532480D02*
X483268D01*
Y536417*
X479331*
Y532480*
X481299Y534449D02*
Y536417D01*
X477362Y517520D02*
X481299D01*
Y521457*
X477362*
Y517520*
X479331Y519488D02*
Y521457D01*
X446850Y518504D02*
X450787D01*
Y522441*
X446850*
Y518504*
X448819Y520472D02*
Y522441D01*
X450787Y518504D02*
X454724D01*
Y522441*
X450787*
Y518504*
X452756Y520472D02*
Y522441D01*
X488583Y506693D02*
X492520D01*
Y510630*
X488583*
Y506693*
X490551Y508661D02*
Y510630D01*
X488583Y510827D02*
X492520D01*
Y514764*
X488583*
Y510827*
X490551Y512795D02*
Y514764D01*
X488583Y530512D02*
X492520D01*
Y534449*
X488583*
Y530512*
X490551Y532480D02*
Y534449D01*
X397441Y536417D02*
X401378D01*
Y540354*
X397441*
Y536417*
X399409Y538386D02*
Y540354D01*
X405315Y567913D02*
X409252D01*
Y571850*
X405315*
Y567913*
X407283Y569882D02*
Y571850D01*
X405512Y571654D02*
X409449D01*
Y575591*
X405512*
Y571654*
X407480Y573622D02*
Y575591D01*
X420472Y547441D02*
X424409D01*
Y551378*
X420472*
Y547441*
X422441Y549409D02*
Y551378D01*
X420276Y538386D02*
X424213D01*
X422244Y536417D02*
Y540354D01*
X414862Y552165D02*
X418799D01*
X416831Y550197D02*
Y554134D01*
X426969Y553543D02*
X430906D01*
X428937Y551575D02*
Y555512D01*
X431594Y548228D02*
X435531D01*
X433563Y546260D02*
Y550197D01*
X407480Y548228D02*
X411417D01*
X409449Y546260D02*
Y550197D01*
X415846Y554134D02*
X419783D01*
Y558071*
X415846*
Y554134*
X417815Y556102D02*
Y558071D01*
X415846Y560039D02*
X419783D01*
Y563976*
X415846*
Y560039*
X417815Y562008D02*
Y563976D01*
X423228Y559055D02*
X427165D01*
Y562992*
X423228*
Y559055*
X425197Y561024D02*
Y562992D01*
X434547Y562008D02*
X438484D01*
Y565945*
X434547*
Y562008*
X436516Y563976D02*
Y565945D01*
X434055Y567913D02*
X437992D01*
Y571850*
X434055*
Y567913*
X436024Y569882D02*
Y571850D01*
X445374Y576280D02*
X449311D01*
X447343Y574311D02*
Y578248D01*
X418307Y574803D02*
X422244D01*
Y578740*
X418307*
Y574803*
X420276Y576772D02*
Y578740D01*
X427165Y574803D02*
X431102D01*
Y578740*
X427165*
Y574803*
X429134Y576772D02*
Y578740D01*
X422835Y547441D02*
X426772D01*
Y551378*
X422835*
Y547441*
X424803Y549409D02*
Y551378D01*
X406496Y541339D02*
X410433D01*
Y545276*
X406496*
Y541339*
X408465Y543307D02*
Y545276D01*
X436811Y542717D02*
X440748D01*
Y546654*
X436811*
Y542717*
X438780Y544685D02*
Y546654D01*
X432283Y539567D02*
X436220D01*
Y543504*
X432283*
Y539567*
X434252Y541535D02*
Y543504D01*
X438976Y568898D02*
X442913D01*
Y572835*
X438976*
Y568898*
X440945Y570866D02*
Y572835D01*
X422441Y556102D02*
X426378D01*
Y560039*
X422441*
Y556102*
X424409Y558071D02*
Y560039D01*
X430709Y553543D02*
X434646D01*
Y557480*
X430709*
Y553543*
X432677Y555512D02*
Y557480D01*
X428150Y538386D02*
X432087D01*
X430118Y536417D02*
Y540354D01*
X424213Y538386D02*
X428150D01*
X426181Y536417D02*
Y540354D01*
X420472Y545276D02*
X424409D01*
Y549213*
X420472*
Y545276*
X422441Y547244D02*
Y549213D01*
X406496Y550197D02*
X410433D01*
Y554134*
X406496*
Y550197*
X408465Y552165D02*
Y554134D01*
X406299D02*
X410236D01*
Y558071*
X406299*
Y554134*
X408268Y556102D02*
Y558071D01*
X406496Y561024D02*
X410433D01*
Y564961*
X406496*
Y561024*
X408465Y562992D02*
Y564961D01*
X424823Y569882D02*
X428760D01*
Y573819*
X424823*
Y569882*
X426791Y571850D02*
Y573819D01*
X430709Y563386D02*
X434646D01*
Y567323*
X430709*
Y563386*
X432677Y565354D02*
Y567323D01*
X412205Y556102D02*
X416142D01*
Y560039*
X412205*
Y556102*
X414173Y558071D02*
Y560039D01*
X414823Y569882D02*
X418760D01*
Y573819*
X414823*
Y569882*
X416791Y571850D02*
Y573819D01*
X438386Y574803D02*
X442323D01*
Y578740*
X438386*
Y574803*
X440354Y576772D02*
Y578740D01*
X422638Y545276D02*
X426575D01*
Y549213*
X422638*
Y545276*
X424606Y547244D02*
Y549213D01*
X472441Y555315D02*
X476378D01*
Y559252*
X472441*
Y555315*
X474409Y557283D02*
Y559252D01*
X477794Y555333D02*
X481731D01*
Y559270*
X477794*
Y555333*
X479763Y557302D02*
Y559270D01*
X475787Y559055D02*
X479724D01*
Y562992*
X475787*
Y559055*
X477756Y561024D02*
Y562992D01*
X480118Y555315D02*
X484055D01*
Y559252*
X480118*
Y555315*
X482087Y557283D02*
Y559252D01*
X463091Y564961D02*
X467028D01*
Y568898*
X463091*
Y564961*
X465059Y566929D02*
Y568898D01*
X460138Y559547D02*
X464075D01*
Y563484*
X460138*
Y559547*
X462106Y561516D02*
Y563484D01*
X455709Y556594D02*
X459646D01*
Y560531*
X455709*
Y556594*
X457677Y558563D02*
Y560531D01*
X451280Y556594D02*
X455217D01*
Y560531*
X451280*
Y556594*
X453248Y558563D02*
Y560531D01*
X470472Y541339D02*
X474409D01*
X472441Y539370D02*
Y543307D01*
X463583Y538386D02*
X467520D01*
X465551Y536417D02*
Y540354D01*
X470472Y548228D02*
X474409D01*
X472441Y546260D02*
Y550197D01*
X477854Y544291D02*
X481791D01*
X479823Y542323D02*
Y546260D01*
X468012Y555118D02*
X471949D01*
X469980Y553150D02*
Y557087D01*
X460138Y546260D02*
X464075D01*
X462106Y544291D02*
Y548228D01*
X462598Y549213D02*
X466535D01*
Y553150*
X462598*
Y549213*
X464567Y551181D02*
Y553150D01*
X458268Y553543D02*
X462205D01*
Y557480*
X458268*
Y553543*
X460236Y555512D02*
Y557480D01*
X450787Y542126D02*
X454724D01*
Y546063*
X450787*
Y542126*
X452756Y544094D02*
Y546063D01*
X458268Y535433D02*
X462205D01*
Y539370*
X458268*
Y535433*
X460236Y537402D02*
Y539370D01*
X475394Y553150D02*
X479331D01*
Y557087*
X475394*
Y553150*
X477362Y555118D02*
Y557087D01*
X472441Y553150D02*
X476378D01*
Y557087*
X472441*
Y553150*
X474409Y555118D02*
Y557087D01*
X473622Y559055D02*
X477559D01*
Y562992*
X473622*
Y559055*
X475591Y561024D02*
Y562992D01*
X471457Y559055D02*
X475394D01*
Y562992*
X471457*
Y559055*
X473425Y561024D02*
Y562992D01*
X455709Y542126D02*
X459646D01*
Y546063*
X455709*
Y542126*
X457677Y544094D02*
Y546063D01*
X460630Y551575D02*
X464567D01*
Y555512*
X460630*
Y551575*
X462598Y553543D02*
Y555512D01*
X445866Y542126D02*
X449803D01*
Y546063*
X445866*
Y542126*
X447835Y544094D02*
Y546063D01*
X460138Y562008D02*
X464075D01*
Y565945*
X460138*
Y562008*
X462106Y563976D02*
Y565945D01*
X477953Y559055D02*
X481890D01*
Y562992*
X477953*
Y559055*
X479921Y561024D02*
Y562992D01*
X488583Y550197D02*
X492520D01*
Y554134*
X488583*
Y550197*
X490551Y552165D02*
Y554134D01*
X403543Y598425D02*
X407480D01*
X405512Y596457D02*
Y600394D01*
X403543Y604331D02*
X407480D01*
X405512Y602362D02*
Y606299D01*
X398031Y604331D02*
X401969D01*
X400000Y602362D02*
Y606299D01*
X398031Y583465D02*
X401969D01*
Y587402*
X398031*
Y583465*
X400000Y585433D02*
Y587402D01*
X400984Y592520D02*
X404921D01*
Y596457*
X400984*
Y592520*
X402953Y594488D02*
Y596457D01*
X437598Y604331D02*
X441535D01*
X439567Y602362D02*
Y606299D01*
X440945Y604331D02*
X444882D01*
X442913Y602362D02*
Y606299D01*
X428740Y600787D02*
X432677D01*
Y604724*
X428740*
Y600787*
X430709Y602756D02*
Y604724D01*
X431102Y600787D02*
X435039D01*
Y604724*
X431102*
Y600787*
X433071Y602756D02*
Y604724D01*
X431102Y602953D02*
X435039D01*
Y606890*
X431102*
Y602953*
X433071Y604921D02*
Y606890D01*
X434646Y598031D02*
X438583D01*
Y601969*
X434646*
Y598031*
X436614Y600000D02*
Y601969D01*
X444685Y598031D02*
X448622D01*
Y601969*
X444685*
Y598031*
X446654Y600000D02*
Y601969D01*
X409449Y604331D02*
X413386D01*
X411417Y602362D02*
Y606299D01*
X428740Y602953D02*
X432677D01*
Y606890*
X428740*
Y602953*
X430709Y604921D02*
Y606890D01*
X442913Y582677D02*
X446850D01*
Y586614*
X442913*
Y582677*
X444882Y584646D02*
Y586614D01*
X443110Y593504D02*
X447047D01*
Y597441*
X443110*
Y593504*
X445079Y595472D02*
Y597441D01*
X407283Y579724D02*
X411220D01*
Y583661*
X407283*
Y579724*
X409252Y581693D02*
Y583661D01*
X410433Y576772D02*
X414370D01*
Y580709*
X410433*
Y576772*
X412402Y578740D02*
Y580709D01*
X438386Y578740D02*
X442323D01*
Y582677*
X438386*
Y578740*
X440354Y580709D02*
Y582677D01*
X418307D02*
X422244D01*
Y586614*
X418307*
Y582677*
X420276Y584646D02*
Y586614D01*
X430118Y581890D02*
X434055D01*
Y585827*
X430118*
Y581890*
X432087Y583858D02*
Y585827D01*
X424823Y581890D02*
X428760D01*
Y585827*
X424823*
Y581890*
X426791Y583858D02*
Y585827D01*
X406102Y592520D02*
X410039D01*
Y596457*
X406102*
Y592520*
X408071Y594488D02*
Y596457D01*
X425787Y593504D02*
X429724D01*
Y597441*
X425787*
Y593504*
X427756Y595472D02*
Y597441D01*
X444291Y604331D02*
X448228D01*
X446260Y602362D02*
Y606299D01*
X477953Y614567D02*
X481890D01*
X479921Y612598D02*
Y616535D01*
X474409Y614567D02*
X478346D01*
X476378Y612598D02*
Y616535D01*
X474409Y610236D02*
X478346D01*
X476378Y608268D02*
Y612205D01*
X478346Y610236D02*
X482283D01*
X480315Y608268D02*
Y612205D01*
X456299Y597441D02*
X460236D01*
Y601378*
X456299*
Y597441*
X458268Y599409D02*
Y601378D01*
X480118Y577756D02*
X484055D01*
Y581693*
X480118*
Y577756*
X482087Y579724D02*
Y581693D01*
X462205Y600000D02*
X466142D01*
Y603937*
X462205*
Y600000*
X464173Y601969D02*
Y603937D01*
X480118Y599016D02*
X484055D01*
Y602953*
X480118*
Y599016*
X482087Y600984D02*
Y602953D01*
X475886Y595472D02*
X479823D01*
X477854Y593504D02*
Y597441D01*
X481791Y593504D02*
X485728D01*
X483760Y591535D02*
Y595472D01*
X481791Y604331D02*
X485728D01*
X483760Y602362D02*
Y606299D01*
X474409Y604331D02*
X478346D01*
X476378Y602362D02*
Y606299D01*
X459154Y595472D02*
X463091D01*
X461122Y593504D02*
Y597441D01*
X445866Y579724D02*
X449803D01*
Y583661*
X445866*
Y579724*
X447835Y581693D02*
Y583661D01*
X462598Y582283D02*
X466535D01*
Y586220*
X462598*
Y582283*
X464567Y584252D02*
Y586220D01*
X460236Y612402D02*
X464173D01*
X462205Y610433D02*
Y614370D01*
X456890Y612402D02*
X460827D01*
X458858Y610433D02*
Y614370D01*
X463583Y612402D02*
X467520D01*
X465551Y610433D02*
Y614370D01*
X459843Y600000D02*
X463780D01*
Y603937*
X459843*
Y600000*
X461811Y601969D02*
Y603937D01*
X457480Y600000D02*
X461417D01*
Y603937*
X457480*
Y600000*
X459449Y601969D02*
Y603937D01*
X470079Y603346D02*
X474016D01*
Y607283*
X470079*
Y603346*
X472047Y605315D02*
Y607283D01*
X451181Y594882D02*
X455118D01*
Y598819*
X451181*
Y594882*
X453150Y596850D02*
Y598819D01*
X451181Y592126D02*
X455118D01*
Y596063*
X451181*
Y592126*
X453150Y594094D02*
Y596063D01*
X464567Y591535D02*
X468504D01*
Y595472*
X464567*
Y591535*
X466535Y593504D02*
Y595472D01*
X482283Y585630D02*
X486220D01*
Y589567*
X482283*
Y585630*
X484252Y587598D02*
Y589567D01*
X469488Y591535D02*
X473425D01*
Y595472*
X469488*
Y591535*
X471457Y593504D02*
Y595472D01*
Y580709D02*
X475394D01*
Y584646*
X471457*
Y580709*
X473425Y582677D02*
Y584646D01*
X449803Y580709D02*
X453740D01*
Y584646*
X449803*
Y580709*
X451772Y582677D02*
Y584646D01*
X454724Y580709D02*
X458661D01*
Y584646*
X454724*
Y580709*
X456693Y582677D02*
Y584646D01*
X462205Y603150D02*
X466142D01*
Y607087*
X462205*
Y603150*
X464173Y605118D02*
Y607087D01*
X457480Y603150D02*
X461417D01*
Y607087*
X457480*
Y603150*
X459449Y605118D02*
Y607087D01*
X451772Y602362D02*
X455709D01*
Y606299*
X451772*
Y602362*
X453740Y604331D02*
Y606299D01*
X451772Y609843D02*
X455709D01*
Y613780*
X451772*
Y609843*
X453740Y611811D02*
Y613780D01*
X451772Y604724D02*
X455709D01*
Y608661*
X451772*
Y604724*
X453740Y606693D02*
Y608661D01*
X451772Y598425D02*
X455709D01*
Y602362*
X451772*
Y598425*
X453740Y600394D02*
Y602362D01*
X451772Y607087D02*
X455709D01*
Y611024*
X451772*
Y607087*
X453740Y609055D02*
Y611024D01*
X475000Y599016D02*
X478937D01*
Y602953*
X475000*
Y599016*
X476969Y600984D02*
Y602953D01*
X470079Y600394D02*
X474016D01*
Y604331*
X470079*
Y600394*
X472047Y602362D02*
Y604331D01*
X488189Y600394D02*
X492126D01*
Y604331*
X488189*
Y600394*
X490157Y602362D02*
Y604331D01*
Y593504D02*
X494094D01*
X492126Y591535D02*
Y595472D01*
X490157Y585630D02*
X494094D01*
X492126Y583661D02*
Y587598D01*
X488583Y578543D02*
X492520D01*
Y582480*
X488583*
Y578543*
X490551Y580512D02*
Y582480D01*
X488583Y575787D02*
X492520D01*
Y579724*
X488583*
Y575787*
X490551Y577756D02*
Y579724D01*
X401083Y650098D02*
X405020D01*
X403051Y648130D02*
Y652067D01*
X405512Y654035D02*
X409449D01*
X407480Y652067D02*
Y656004D01*
X413878Y653543D02*
X417815D01*
X415846Y651575D02*
Y655512D01*
X421260Y653543D02*
X425197D01*
X423228Y651575D02*
Y655512D01*
X416339Y650098D02*
X420276D01*
X418307Y648130D02*
Y652067D01*
X409941Y650098D02*
X413878D01*
X411909Y648130D02*
Y652067D01*
X407480Y645669D02*
X411417D01*
X409449Y643701D02*
Y647638D01*
X412894Y645669D02*
X416831D01*
X414862Y643701D02*
Y647638D01*
X426181Y646654D02*
X430118D01*
X428150Y644685D02*
Y648622D01*
X426181Y651575D02*
X430118D01*
X428150Y649606D02*
Y653543D01*
X437992Y654331D02*
X441929D01*
X439961Y652362D02*
Y656299D01*
X442913Y654724D02*
X446850D01*
Y658661*
X442913*
Y654724*
X444882Y656693D02*
Y658661D01*
X468012Y654035D02*
X471949D01*
X469980Y652067D02*
Y656004D01*
X476870Y654035D02*
X480807D01*
X478839Y652067D02*
Y656004D01*
X459646Y652559D02*
X463583D01*
X461614Y650591D02*
Y654528D01*
X463583Y656496D02*
X467520D01*
X465551Y654528D02*
Y658465D01*
X459646Y656496D02*
X463583D01*
X461614Y654528D02*
Y658465D01*
X460433Y618110D02*
X464370D01*
X462402Y616142D02*
Y620079D01*
X446063Y654724D02*
X450000D01*
Y658661*
X446063*
Y654724*
X448031Y656693D02*
Y658661D01*
X457087Y622047D02*
X461024D01*
X459055Y620079D02*
Y624016D01*
X457087Y618110D02*
X461024D01*
X459055Y616142D02*
Y620079D01*
X460433Y622047D02*
X464370D01*
X462402Y620079D02*
Y624016D01*
X486713Y649606D02*
X490650D01*
X488681Y647638D02*
Y651575D01*
X486713Y656496D02*
X490650D01*
X488681Y654528D02*
Y658465D01*
X398622Y659449D02*
X402559D01*
Y663386*
X398622*
Y659449*
X400591Y661417D02*
Y663386D01*
X426181Y659449D02*
X430118D01*
X428150Y657480D02*
Y661417D01*
X432579Y661909D02*
X436516D01*
X434547Y659941D02*
Y663878D01*
X437992Y661909D02*
X441929D01*
X439961Y659941D02*
Y663878D01*
X424213Y662402D02*
X428150D01*
Y666339*
X424213*
Y662402*
X426181Y664370D02*
Y666339D01*
X442913Y657480D02*
X446850D01*
Y661417*
X442913*
Y657480*
X444882Y659449D02*
Y661417D01*
X459646Y660433D02*
X463583D01*
X461614Y658465D02*
Y662402D01*
X463583Y660433D02*
X467520D01*
X465551Y658465D02*
Y662402D01*
X484252Y663386D02*
X488189D01*
Y667323*
X484252*
Y663386*
X486220Y665354D02*
Y667323D01*
X446063Y657480D02*
X450000D01*
Y661417*
X446063*
Y657480*
X448031Y659449D02*
Y661417D01*
X467520Y660433D02*
X471457D01*
Y664370*
X467520*
Y660433*
X469488Y662402D02*
Y664370D01*
X401575Y393701D02*
X488189D01*
X496063Y401575*
Y661417*
X488189Y669291*
X401575*
X393701Y661417*
Y401575*
X401575Y393701*
X503937Y500000D02*
X630906D01*
X503937Y488189D02*
X630906D01*
X503937Y476378D02*
X630906D01*
X503937Y464567D02*
X630906D01*
X503937Y452756D02*
X630906D01*
X503937Y440945D02*
X630906D01*
X503937Y429134D02*
X630906D01*
X503937Y417323D02*
X630906D01*
X503937Y405512D02*
X630906D01*
X503937Y393701D02*
X630906D01*
X503937Y500000D02*
Y393701D01*
X545276Y500000D02*
Y393701D01*
X562992Y500000D02*
Y393701D01*
X580709Y500000D02*
Y393701D01*
X607283Y500000D02*
Y393701D01*
X630906Y500000D02*
Y393701D01*
X521457Y494464D02*
X521188Y494833D01*
X520786Y495017*
X520249*
X519846Y494833*
X519578Y494464*
Y494094*
X519712Y493725*
X519846Y493541*
X520115Y493356*
X520920Y492987*
X521188Y492803*
X521322Y492618*
X521457Y492249*
Y491695*
X521188Y491326*
X520786Y491142*
X520249*
X519846Y491326*
X519578Y491695*
X522665Y495017D02*
Y491142D01*
X525752Y495017D02*
X523873Y491142D01*
Y495017D02*
X525752D01*
X523873Y491142D02*
X525752D01*
X526960Y495017D02*
Y491142D01*
Y495017D02*
X528704D01*
X526960Y493172D02*
X528033D01*
X526960Y491142D02*
X528704D01*
X550179Y495017D02*
X549911Y494833D01*
X549642Y494464*
X549508Y494094*
X549374Y493541*
Y492618*
X549508Y492064*
X549642Y491695*
X549911Y491326*
X550179Y491142*
X550716*
X550984Y491326*
X551253Y491695*
X551387Y492064*
X551521Y492618*
Y493541*
X551387Y494094*
X551253Y494464*
X550984Y494833*
X550716Y495017*
X550179*
X550582Y491880D02*
X551387Y490773D01*
X553669Y495017D02*
Y491142D01*
X552729Y495017D02*
X554608D01*
X555816D02*
X556890Y493172D01*
Y491142*
X557963Y495017D02*
X556890Y493172D01*
X568969Y494464D02*
X568701Y494833D01*
X568298Y495017*
X567761*
X567359Y494833*
X567090Y494464*
Y494094*
X567224Y493725*
X567359Y493541*
X567627Y493356*
X568432Y492987*
X568701Y492803*
X568835Y492618*
X568969Y492249*
Y491695*
X568701Y491326*
X568298Y491142*
X567761*
X567359Y491326*
X567090Y491695*
X570177Y495017D02*
X571251Y493172D01*
Y491142*
X572325Y495017D02*
X571251Y493172D01*
X573533Y495017D02*
Y491142D01*
Y495017D02*
X574606Y491142D01*
X575680Y495017D02*
X574606Y491142D01*
X575680Y495017D02*
Y491142D01*
X586417Y495017D02*
Y491142D01*
Y495017D02*
X587625D01*
X588028Y494833*
X588162Y494648*
X588296Y494279*
Y493725*
X588162Y493356*
X588028Y493172*
X587625Y492987*
X586417*
X589504Y495017D02*
Y491142D01*
X591115*
X593397Y495017D02*
X592323Y491142D01*
X593397Y495017D02*
X594470Y491142D01*
X592725Y492434D02*
X594068D01*
X596618Y495017D02*
Y491142D01*
X595678Y495017D02*
X597557D01*
X598765D02*
Y491142D01*
Y495017D02*
X600510D01*
X598765Y493172D02*
X599839D01*
X598765Y491142D02*
X600510D01*
X601718Y495017D02*
Y491142D01*
Y495017D02*
X602657D01*
X603060Y494833*
X603329Y494464*
X603463Y494094*
X603597Y493541*
Y492618*
X603463Y492064*
X603329Y491695*
X603060Y491326*
X602657Y491142*
X601718*
X615542Y495017D02*
Y491142D01*
X614603Y495017D02*
X616482D01*
X618495D02*
X618227Y494833D01*
X617958Y494464*
X617824Y494094*
X617690Y493541*
Y492618*
X617824Y492064*
X617958Y491695*
X618227Y491326*
X618495Y491142*
X619032*
X619300Y491326*
X619569Y491695*
X619703Y492064*
X619837Y492618*
Y493541*
X619703Y494094*
X619569Y494464*
X619300Y494833*
X619032Y495017*
X618495*
X621045D02*
Y491142D01*
X622656*
X507695Y483206D02*
X507292Y483022D01*
X507024Y482468*
X506890Y481545*
Y480992*
X507024Y480069*
X507292Y479515*
X507695Y479331*
X507963*
X508366Y479515*
X508635Y480069*
X508769Y480992*
Y481545*
X508635Y482468*
X508366Y483022*
X507963Y483206*
X507695*
X510111Y479700D02*
X509977Y479515D01*
X510111Y479331*
X510245Y479515*
X510111Y479700*
X512795Y483206D02*
X511453Y480623D01*
X513466*
X512795Y483206D02*
Y479331D01*
X550246Y482468D02*
X550514Y482653D01*
X550917Y483206*
Y479331*
X552394Y483206D02*
X553870D01*
X553065Y481730*
X553467*
X553736Y481545*
X553870Y481361*
X554004Y480807*
Y480438*
X553870Y479884*
X553601Y479515*
X553199Y479331*
X552796*
X552394Y479515*
X552259Y479700*
X552125Y480069*
X555480Y483206D02*
X556957D01*
X556152Y481730*
X556554*
X556823Y481545*
X556957Y481361*
X557091Y480807*
Y480438*
X556957Y479884*
X556688Y479515*
X556286Y479331*
X555883*
X555480Y479515*
X555346Y479700*
X555212Y480069*
X568898Y482283D02*
X574803D01*
X571850Y479331D02*
Y485236D01*
X585008Y483206D02*
X586082Y481361D01*
Y479331*
X587156Y483206D02*
X586082Y481361D01*
X588363Y483206D02*
Y479331D01*
Y483206D02*
X590108D01*
X588363Y481361D02*
X589437D01*
X588363Y479331D02*
X590108D01*
X593195Y482653D02*
X592927Y483022D01*
X592524Y483206*
X591987*
X591585Y483022*
X591316Y482653*
Y482283*
X591450Y481914*
X591585Y481730*
X591853Y481545*
X592658Y481176*
X592927Y480992*
X593061Y480807*
X593195Y480438*
Y479884*
X592927Y479515*
X592524Y479331*
X591987*
X591585Y479515*
X591316Y479884*
X611180Y482653D02*
Y479331D01*
X609972Y480992D02*
X612388D01*
X616012Y483944D02*
X613596Y478039D01*
X617220Y480992D02*
X619636D01*
X621649Y483206D02*
X621246Y483022D01*
X620978Y482468*
X620844Y481545*
Y480992*
X620978Y480069*
X621246Y479515*
X621649Y479331*
X621918*
X621918D02*
X622320Y479515D01*
X622589Y480069*
X622723Y480992*
Y481545*
X622589Y482468*
X622320Y483022*
X621918Y483206*
X621918D02*
X621649D01*
X624065Y479700D02*
X623931Y479515D01*
X624065Y479331*
X624199Y479515*
X624065Y479700*
X626212Y483206D02*
X625810Y483022D01*
X625541Y482468*
X625407Y481545*
Y480992*
X625541Y480069*
X625810Y479515*
X626212Y479331*
X626481*
X626883Y479515*
X626883D02*
X627152Y480069D01*
X627286Y480992*
Y481545*
X627152Y482468*
X626883Y483022*
X626883D02*
X626481Y483206D01*
X626212*
X507158Y471395D02*
X508635D01*
X507829Y469919*
X508232*
X508500Y469734*
X508635Y469550*
X508769Y468996*
Y468627*
X508635Y468073*
X508366Y467704*
X507963Y467520*
X507561*
X507158Y467704*
X507024Y467889*
X506890Y468258*
X510111Y467889D02*
X509977Y467704D01*
X510111Y467520*
X510245Y467704*
X510111Y467889*
X511587Y470472D02*
Y470657D01*
X511722Y471026*
X511856Y471211*
X512124Y471395*
X512661*
X512929Y471211*
X513064Y471026*
X513198Y470657*
Y470288*
X513064Y469919*
X512795Y469365*
X511453Y467520*
X513332*
X516285Y471395D02*
X514943D01*
X514809Y469734*
X514943Y469919*
X515345Y470103*
X515748*
X516151Y469919*
X516419Y469550*
X516553Y468996*
X516419Y468627*
X516285Y468073*
X516016Y467704*
X515614Y467520*
X515211*
X514809Y467704*
X514674Y467889*
X514540Y468258*
X552863Y470472D02*
Y470657D01*
X552997Y471026*
X553132Y471211*
X553400Y471395*
X553937*
X554205Y471211*
X554340Y471026*
X554474Y470657*
Y470288*
X554340Y469919*
X554071Y469365*
X552729Y467520*
X554608*
X568898D02*
X574803Y473425D01*
X568898D02*
X574803Y467520D01*
X586484Y471395D02*
Y467520D01*
Y471395D02*
X588363Y467520D01*
Y471395D02*
Y467520D01*
X590377Y471395D02*
X590108Y471211D01*
X589840Y470842*
X589706Y470472*
X589571Y469919*
Y468996*
X589706Y468442*
X589840Y468073*
X590108Y467704*
X590377Y467520*
X590914*
X591182Y467704*
X591450Y468073*
X591585Y468442*
X591719Y468996*
Y469919*
X591585Y470472*
X591450Y470842*
X591182Y471211*
X590914Y471395*
X590377*
X611180Y470842D02*
Y467520D01*
X609972Y469181D02*
X612388D01*
X616012Y472133D02*
X613596Y466228D01*
X617220Y469181D02*
X619636D01*
X621649Y471395D02*
X621246Y471211D01*
X620978Y470657*
X620844Y469734*
Y469181*
X620978Y468258*
X621246Y467704*
X621649Y467520*
X621918*
X621918D02*
X622320Y467704D01*
X622589Y468258*
X622723Y469181*
Y469734*
X622589Y470657*
X622320Y471211*
X621918Y471395*
X621918D02*
X621649D01*
X624065Y467889D02*
X623931Y467704D01*
X624065Y467520*
X624199Y467704*
X624065Y467889*
X626212Y471395D02*
X625810Y471211D01*
X625541Y470657*
X625407Y469734*
Y469181*
X625541Y468258*
X625810Y467704*
X626212Y467520*
X626481*
X626883Y467704*
X626883D02*
X627152Y468258D01*
X627286Y469181*
Y469734*
X627152Y470657*
X626883Y471211*
X626883D02*
X626481Y471395D01*
X626212*
X507695Y459584D02*
X507292Y459400D01*
X507024Y458846*
X506890Y457923*
Y457370*
X507024Y456447*
X507292Y455893*
X507695Y455709*
X507963*
X508366Y455893*
X508635Y456447*
X508769Y457370*
Y457923*
X508635Y458846*
X508366Y459400*
X507963Y459584*
X507695*
X510111Y456078D02*
X509977Y455893D01*
X510111Y455709*
X510245Y455893*
X510111Y456078*
X511587Y458661D02*
Y458846D01*
X511722Y459215*
X511856Y459400*
X512124Y459584*
X512661*
X512929Y459400*
X513064Y459215*
X513198Y458846*
Y458477*
X513064Y458108*
X512795Y457554*
X511453Y455709*
X513332*
X516285Y459584D02*
X514943D01*
X514809Y457923*
X514943Y458108*
X515345Y458292*
X515748*
X516151Y458108*
X516419Y457739*
X516553Y457185*
X516419Y456816*
X516285Y456262*
X516016Y455893*
X515614Y455709*
X515211*
X514809Y455893*
X514674Y456078*
X514540Y456447*
X550447Y458661D02*
Y458846D01*
X550582Y459215*
X550716Y459400*
X550984Y459584*
X551521*
X551790Y459400*
X551924Y459215*
X552058Y458846*
Y458477*
X551924Y458108*
X551655Y457554*
X550313Y455709*
X552192*
X553400Y458846D02*
X553669Y459031D01*
X554071Y459584*
Y455709*
X556890Y459031D02*
X556756Y459400D01*
X556353Y459584*
X556084*
X555682Y459400*
X555413Y458846*
X555279Y457923*
Y457000*
X555413Y456262*
X555682Y455893*
X556084Y455709*
X556219*
X556621Y455893*
X556890Y456262*
X557024Y456816*
Y457000*
X556890Y457554*
X556621Y457923*
X556219Y458108*
X556084*
X555682Y457923*
X555413Y457554*
X555279Y457000*
X568898Y455709D02*
X574803D01*
Y461614*
X568898*
Y455709*
X571850Y458661D02*
Y461614D01*
X585008Y459584D02*
X586082Y457739D01*
Y455709*
X587156Y459584D02*
X586082Y457739D01*
X588363Y459584D02*
Y455709D01*
Y459584D02*
X590108D01*
X588363Y457739D02*
X589437D01*
X588363Y455709D02*
X590108D01*
X593195Y459031D02*
X592927Y459400D01*
X592524Y459584*
X591987*
X591585Y459400*
X591316Y459031*
Y458661*
X591450Y458292*
X591585Y458108*
X591853Y457923*
X592658Y457554*
X592927Y457370*
X593061Y457185*
X593195Y456816*
Y456262*
X592927Y455893*
X592524Y455709*
X591987*
X591585Y455893*
X591316Y456262*
X611180Y459031D02*
Y455709D01*
X609972Y457370D02*
X612388D01*
X616012Y460322D02*
X613596Y454417D01*
X617220Y457370D02*
X619636D01*
X621649Y459584D02*
X621246Y459400D01*
X620978Y458846*
X620844Y457923*
Y457370*
X620978Y456447*
X621246Y455893*
X621649Y455709*
X621918*
X621918D02*
X622320Y455893D01*
X622589Y456447*
X622723Y457370*
Y457923*
X622589Y458846*
X622320Y459400*
X621918Y459584*
X621918D02*
X621649D01*
X624065Y456078D02*
X623931Y455893D01*
X624065Y455709*
X624199Y455893*
X624065Y456078*
X626212Y459584D02*
X625810Y459400D01*
X625541Y458846*
X625407Y457923*
Y457370*
X625541Y456447*
X625810Y455893*
X626212Y455709*
X626481*
X626883Y455893*
X626883D02*
X627152Y456447D01*
X627286Y457370*
Y457923*
X627152Y458846*
X626883Y459400*
X626883D02*
X626481Y459584D01*
X626212*
X507695Y447773D02*
X507292Y447589D01*
X507024Y447035*
X506890Y446112*
Y445559*
X507024Y444636*
X507292Y444082*
X507695Y443898*
X507963*
X508366Y444082*
X508635Y444636*
X508769Y445559*
Y446112*
X508635Y447035*
X508366Y447589*
X507963Y447773*
X507695*
X510111Y444267D02*
X509977Y444082D01*
X510111Y443898*
X510245Y444082*
X510111Y444267*
X512124Y447773D02*
X511722Y447589D01*
X511587Y447219*
Y446850*
X511722Y446481*
X511990Y446297*
X512527Y446112*
X512929Y445928*
X513198Y445559*
X513332Y445189*
Y444636*
X513198Y444267*
X513064Y444082*
X512661Y443898*
X512124*
X511722Y444082*
X511587Y444267*
X511453Y444636*
Y445189*
X511587Y445559*
X511856Y445928*
X512258Y446112*
X512795Y446297*
X513064Y446481*
X513198Y446850*
Y447219*
X513064Y447589*
X512661Y447773*
X512124*
X517627Y446481D02*
X519103Y443898D01*
Y446481D02*
X517627Y443898D01*
X523398Y447035D02*
X523667Y447219D01*
X524069Y447773*
Y443898*
X525412Y444267D02*
X525277Y444082D01*
X525412Y443898*
X525546Y444082*
X525412Y444267*
X528499Y447773D02*
X527156D01*
X527022Y446112*
X527156Y446297*
X527559Y446481*
X527962*
X528364Y446297*
X528633Y445928*
X528767Y445374*
X528633Y445005*
X528499Y444451*
X528230Y444082*
X527827Y443898*
X527425*
X527022Y444082*
X526888Y444267*
X526754Y444636*
X552863Y446850D02*
Y447035D01*
X552997Y447404*
X553132Y447589*
X553400Y447773*
X553937*
X554205Y447589*
X554340Y447404*
X554474Y447035*
Y446666*
X554340Y446297*
X554071Y445743*
X552729Y443898*
X554608*
X571850D02*
X574803Y446850D01*
X571850Y449803*
X568898Y446850*
X571850Y443898*
Y446850D02*
Y449803D01*
X585008Y447773D02*
X586082Y445928D01*
Y443898*
X587156Y447773D02*
X586082Y445928D01*
X588363Y447773D02*
Y443898D01*
Y447773D02*
X590108D01*
X588363Y445928D02*
X589437D01*
X588363Y443898D02*
X590108D01*
X593195Y447219D02*
X592927Y447589D01*
X592524Y447773*
X591987*
X591585Y447589*
X591316Y447219*
Y446850*
X591450Y446481*
X591585Y446297*
X591853Y446112*
X592658Y445743*
X592927Y445559*
X593061Y445374*
X593195Y445005*
Y444451*
X592927Y444082*
X592524Y443898*
X591987*
X591585Y444082*
X591316Y444451*
X611180Y447219D02*
Y443898D01*
X609972Y445559D02*
X612388D01*
X616012Y448511D02*
X613596Y442606D01*
X617220Y445559D02*
X619636D01*
X621649Y447773D02*
X621246Y447589D01*
X620978Y447035*
X620844Y446112*
Y445559*
X620978Y444636*
X621246Y444082*
X621649Y443898*
X621918*
X621918D02*
X622320Y444082D01*
X622589Y444636*
X622723Y445559*
Y446112*
X622589Y447035*
X622320Y447589*
X621918Y447773*
X621918D02*
X621649D01*
X624065Y444267D02*
X623931Y444082D01*
X624065Y443898*
X624199Y444082*
X624065Y444267*
X626212Y447773D02*
X625810Y447589D01*
X625541Y447035*
X625407Y446112*
Y445559*
X625541Y444636*
X625810Y444082*
X626212Y443898*
X626481*
X626883Y444082*
X626883D02*
X627152Y444636D01*
X627286Y445559*
Y446112*
X627152Y447035*
X626883Y447589*
X626883D02*
X626481Y447773D01*
X626212*
X507695Y435962D02*
X507292Y435778D01*
X507024Y435224*
X506890Y434301*
Y433748*
X507024Y432825*
X507292Y432271*
X507695Y432087*
X507963*
X508366Y432271*
X508635Y432825*
X508769Y433748*
Y434301*
X508635Y435224*
X508366Y435778*
X507963Y435962*
X507695*
X510111Y432456D02*
X509977Y432271D01*
X510111Y432087*
X510245Y432271*
X510111Y432456*
X512124Y435962D02*
X511722Y435778D01*
X511587Y435408*
Y435039*
X511722Y434670*
X511990Y434486*
X512527Y434301*
X512929Y434117*
X513198Y433748*
X513332Y433378*
Y432825*
X513198Y432456*
X513064Y432271*
X512661Y432087*
X512124*
X511722Y432271*
X511587Y432456*
X511453Y432825*
Y433378*
X511587Y433748*
X511856Y434117*
X512258Y434301*
X512795Y434486*
X513064Y434670*
X513198Y435039*
Y435408*
X513064Y435778*
X512661Y435962*
X512124*
X516285D02*
X514943D01*
X514809Y434301*
X514943Y434486*
X515345Y434670*
X515748*
X516151Y434486*
X516419Y434117*
X516553Y433563*
X516419Y433194*
X516285Y432640*
X516016Y432271*
X515614Y432087*
X515211*
X514809Y432271*
X514674Y432456*
X514540Y432825*
X552863Y435039D02*
Y435224D01*
X552997Y435593*
X553132Y435778*
X553400Y435962*
X553937*
X554205Y435778*
X554340Y435593*
X554474Y435224*
Y434855*
X554340Y434486*
X554071Y433932*
X552729Y432087*
X554608*
X568898D02*
X574803D01*
X568898Y437992*
X574803*
X568898Y432087*
X585008Y435962D02*
X586082Y434117D01*
Y432087*
X587156Y435962D02*
X586082Y434117D01*
X588363Y435962D02*
Y432087D01*
Y435962D02*
X590108D01*
X588363Y434117D02*
X589437D01*
X588363Y432087D02*
X590108D01*
X593195Y435408D02*
X592927Y435778D01*
X592524Y435962*
X591987*
X591585Y435778*
X591316Y435408*
Y435039*
X591450Y434670*
X591585Y434486*
X591853Y434301*
X592658Y433932*
X592927Y433748*
X593061Y433563*
X593195Y433194*
Y432640*
X592927Y432271*
X592524Y432087*
X591987*
X591585Y432271*
X591316Y432640*
X611180Y435408D02*
Y432087D01*
X609972Y433748D02*
X612388D01*
X616012Y436700D02*
X613596Y430795D01*
X617220Y433748D02*
X619636D01*
X621649Y435962D02*
X621246Y435778D01*
X620978Y435224*
X620844Y434301*
Y433748*
X620978Y432825*
X621246Y432271*
X621649Y432087*
X621918*
X621918D02*
X622320Y432271D01*
X622589Y432825*
X622723Y433748*
Y434301*
X622589Y435224*
X622320Y435778*
X621918Y435962*
X621918D02*
X621649D01*
X624065Y432456D02*
X623931Y432271D01*
X624065Y432087*
X624199Y432271*
X624065Y432456*
X626212Y435962D02*
X625810Y435778D01*
X625541Y435224*
X625407Y434301*
Y433748*
X625541Y432825*
X625810Y432271*
X626212Y432087*
X626481*
X626883Y432271*
X626883D02*
X627152Y432825D01*
X627286Y433748*
Y434301*
X627152Y435224*
X626883Y435778*
X626883D02*
X626481Y435962D01*
X626212*
X507695Y424151D02*
X507292Y423967D01*
X507024Y423413*
X506890Y422490*
Y421937*
X507024Y421014*
X507292Y420460*
X507695Y420276*
X507963*
X508366Y420460*
X508635Y421014*
X508769Y421937*
Y422490*
X508635Y423413*
X508366Y423967*
X507963Y424151*
X507695*
X510111Y420645D02*
X509977Y420460D01*
X510111Y420276*
X510245Y420460*
X510111Y420645*
X513198Y424151D02*
X511856D01*
X511722Y422490*
X511856Y422675*
X512258Y422859*
X512661*
X513064Y422675*
X513332Y422306*
X513466Y421752*
X513332Y421383*
X513198Y420829*
X512929Y420460*
X512527Y420276*
X512124*
X511722Y420460*
X511587Y420645*
X511453Y421014*
X516419Y424151D02*
X515077D01*
X514943Y422490*
X515077Y422675*
X515480Y422859*
X515882*
X516285Y422675*
X516553Y422306*
X516688Y421752*
X516553Y421383*
X516419Y420829*
X516151Y420460*
X515748Y420276*
X515345*
X514943Y420460*
X514809Y420645*
X514674Y421014*
X554004Y424151D02*
X552662Y421567D01*
X554675*
X554004Y424151D02*
Y420276D01*
X568898D02*
X574803Y426181D01*
Y420276*
X568898Y426181*
Y420276*
X585008Y424151D02*
X586082Y422306D01*
Y420276*
X587156Y424151D02*
X586082Y422306D01*
X588363Y424151D02*
Y420276D01*
Y424151D02*
X590108D01*
X588363Y422306D02*
X589437D01*
X588363Y420276D02*
X590108D01*
X593195Y423597D02*
X592927Y423967D01*
X592524Y424151*
X591987*
X591585Y423967*
X591316Y423597*
Y423228*
X591450Y422859*
X591585Y422675*
X591853Y422490*
X592658Y422121*
X592927Y421937*
X593061Y421752*
X593195Y421383*
Y420829*
X592927Y420460*
X592524Y420276*
X591987*
X591585Y420460*
X591316Y420829*
X611180Y423597D02*
Y420276D01*
X609972Y421937D02*
X612388D01*
X616012Y424889D02*
X613596Y418984D01*
X617220Y421937D02*
X619636D01*
X621649Y424151D02*
X621246Y423967D01*
X620978Y423413*
X620844Y422490*
Y421937*
X620978Y421014*
X621246Y420460*
X621649Y420276*
X621918*
X621918D02*
X622320Y420460D01*
X622589Y421014*
X622723Y421937*
Y422490*
X622589Y423413*
X622320Y423967*
X621918Y424151*
X621918D02*
X621649D01*
X624065Y420645D02*
X623931Y420460D01*
X624065Y420276*
X624199Y420460*
X624065Y420645*
X626212Y424151D02*
X625810Y423967D01*
X625541Y423413*
X625407Y422490*
Y421937*
X625541Y421014*
X625810Y420460*
X626212Y420276*
X626481*
X626883Y420460*
X626883D02*
X627152Y421014D01*
X627286Y421937*
Y422490*
X627152Y423413*
X626883Y423967*
X626883D02*
X626481Y424151D01*
X626212*
X507695Y412340D02*
X507292Y412156D01*
X507024Y411602*
X506890Y410679*
Y410125*
X507024Y409203*
X507292Y408649*
X507695Y408465*
X507963*
X508366Y408649*
X508635Y409203*
X508769Y410125*
Y410679*
X508635Y411602*
X508366Y412156*
X507963Y412340*
X507695*
X510111Y408834D02*
X509977Y408649D01*
X510111Y408465*
X510245Y408649*
X510111Y408834*
X513198Y411048D02*
X513064Y410495D01*
X512795Y410125*
X512393Y409941*
X512258*
X511856Y410125*
X511587Y410495*
X511453Y411048*
Y411233*
X511587Y411786*
X511856Y412156*
X512258Y412340*
X512393*
X512795Y412156*
X513064Y411786*
X513198Y411048*
Y410125*
X513064Y409203*
X512795Y408649*
X512393Y408465*
X512124*
X511722Y408649*
X511587Y409018*
X554407Y411786D02*
X554273Y412156D01*
X553870Y412340*
X553601*
X553199Y412156*
X552930Y411602*
X552796Y410679*
Y409756*
X552930Y409018*
X553199Y408649*
X553601Y408465*
X553736*
X554138Y408649*
X554407Y409018*
X554541Y409572*
Y409756*
X554407Y410310*
X554138Y410679*
X553736Y410864*
X553601*
X553199Y410679*
X552930Y410310*
X552796Y409756*
X568898Y411417D02*
X574803D01*
X571850Y408465D02*
Y414370D01*
X575174Y413323D02*
X575088Y412980D01*
X574787Y412937*
X574529Y412894*
X574229Y412937*
X574014Y412980*
X574100Y413237*
X573971Y413409*
X574014Y413753*
X574100Y414053*
X574143Y414139*
Y414311*
X574229Y414440*
X574400Y414483*
X574400D02*
X574443Y414526D01*
X574486Y414612*
X574615Y414741*
X574830Y414826*
X574916*
X574959Y414783*
X574959*
X575002Y414869*
X575045Y415728*
X575088Y415943*
Y416072*
X575217Y416244*
X575474Y416287*
X575560Y416244*
X575603Y416201*
X575646Y416072*
Y415943*
X575560Y415041*
X575947Y415685*
X576076Y415900*
X576204Y416029*
X576333Y416072*
X576419Y416115*
X576591Y416029*
Y415900*
X576548Y415771*
X576419Y415557*
X575947Y414783*
X575904Y414612*
X575818Y414354*
X575775Y414268*
Y413967*
X575517Y413624*
X575174Y413323*
X575174*
X575345Y414869D02*
X575431Y415900D01*
Y416072*
X575388Y416158*
X575302Y416115*
X575259Y416072*
Y415986*
Y415900*
Y415814*
X575217Y414826*
X575603Y414783*
X575689Y414612*
Y414526*
X575775Y414783*
X576247Y415599*
X576247D02*
X576376Y415814D01*
X576419Y415943*
Y415986*
X576419*
X576333Y415943*
X576247Y415857*
X576161Y415685*
X575560Y414869*
X575345*
X575045Y413366D02*
X575259Y413581D01*
X575517Y413924*
X575560Y413967*
Y414053*
Y414354*
X575474Y414655*
X575131Y414698*
X575088Y414612*
X575131Y414526*
X575259Y414440*
X575388*
Y414311*
X575302Y414010*
X575131*
X575174Y414311*
X575174*
X575088Y414354*
X575045Y414397*
Y414268*
Y414096*
X574916Y413882*
X574701Y413839*
X574615Y413882*
X574529Y413710*
X574315Y413667*
X574229Y413710*
X574186Y413796*
X574229Y413882*
X574186Y413538*
Y413495*
X574272Y413280*
X574229Y413065*
X574572Y413023*
X574959Y413065*
X575045Y413366*
X574830Y414311D02*
Y414526D01*
X574787Y414655*
X574744Y414698*
X574701Y414655*
X574658Y414612*
X574615Y414397*
X574658Y414225*
X574701Y414010*
X574744Y413967*
X574787*
X574830Y414053*
X574873Y414182*
X574830Y414311*
X574830*
X574486Y414096D02*
Y414225D01*
X574443Y414311*
X574400Y414354*
X574400D02*
X574358D01*
X574315Y414311*
Y414139*
X574358Y413924*
Y413839*
X574400Y413796*
X574400D02*
X574443D01*
X574486Y413882*
Y413967*
Y414096*
X574486*
X585008Y412340D02*
X586082Y410495D01*
Y408465*
X587156Y412340D02*
X586082Y410495D01*
X588363Y412340D02*
Y408465D01*
Y412340D02*
X590108D01*
X588363Y410495D02*
X589437D01*
X588363Y408465D02*
X590108D01*
X593195Y411786D02*
X592927Y412156D01*
X592524Y412340*
X591987*
X591585Y412156*
X591316Y411786*
Y411417*
X591450Y411048*
X591585Y410864*
X591853Y410679*
X592658Y410310*
X592927Y410125*
X593061Y409941*
X593195Y409572*
Y409018*
X592927Y408649*
X592524Y408465*
X591987*
X591585Y408649*
X591316Y409018*
X611180Y411786D02*
Y408465D01*
X609972Y410125D02*
X612388D01*
X616012Y413078D02*
X613596Y407173D01*
X617220Y410125D02*
X619636D01*
X621649Y412340D02*
X621246Y412156D01*
X620978Y411602*
X620844Y410679*
Y410125*
X620978Y409203*
X621246Y408649*
X621649Y408465*
X621918*
X621918D02*
X622320Y408649D01*
X622589Y409203*
X622723Y410125*
Y410679*
X622589Y411602*
X622320Y412156*
X621918Y412340*
X621918D02*
X621649D01*
X624065Y408834D02*
X623931Y408649D01*
X624065Y408465*
X624199Y408649*
X624065Y408834*
X626212Y412340D02*
X625810Y412156D01*
X625541Y411602*
X625407Y410679*
Y410125*
X625541Y409203*
X625810Y408649*
X626212Y408465*
X626481*
X626883Y408649*
X626883D02*
X627152Y409203D01*
X627286Y410125*
Y410679*
X627152Y411602*
X626883Y412156*
X626883D02*
X626481Y412340D01*
X626212*
X506890Y399791D02*
X507158Y399975D01*
X507561Y400529*
Y396654*
X551722Y399791D02*
X551991Y399975D01*
X552394Y400529*
Y396654*
X554944Y400529D02*
X553601Y397945D01*
X555615*
X554944Y400529D02*
Y396654D01*
X568898Y399606D02*
X574803D01*
X571850Y396654D02*
Y402559D01*
X575861Y401169D02*
X575431Y401297D01*
X575131Y401555*
X574658Y401598*
X574143Y401856*
X574400Y402113*
X574400D02*
X574701Y402199D01*
X574873Y402156*
X575002*
X575217Y402199*
X575302Y402371*
X575131Y402586*
X574873Y402500*
X574744Y402285*
X574615Y402156*
X574400Y402113*
X574400D02*
X574186Y402071D01*
X574400Y402715*
X574400D02*
X575045Y403144D01*
X574787Y403445*
X574658Y403703*
Y403917*
X574701Y404046*
X574873Y404218*
X575345Y403703*
Y403788*
X575388Y404175*
X575517Y404347*
X575818Y404519*
X575947Y403703*
Y403788*
X576076Y404003*
X576204Y404132*
X576376Y404175*
X576548Y404218*
X576634*
X576505Y403874*
X576376Y403359*
X576204Y402801*
X576763Y401512*
X576591Y401297*
X576376Y401126*
X575990Y400954*
X575861Y401169*
X576076Y403015D02*
X576204Y403402D01*
X576333Y403874*
X576419Y404089*
X576247Y403960*
X576161Y403831*
X576118Y403660*
X576033Y403445*
X576076Y403015*
X575947Y403187D02*
X575646Y404304D01*
X575560Y404132*
X575517Y403960*
Y403746*
X575560Y403531*
X575947Y403187*
X575861Y403101D02*
X574830Y403960D01*
Y403917*
Y403703*
X574959Y403488*
X575259Y403187*
X575861Y403101*
X575990Y401297D02*
X576118Y401126D01*
X576333Y401297*
X576548Y401512*
X575990Y402844*
X575131Y403058*
X574572Y402629*
X574400Y402242*
X574400D02*
X574572Y402328D01*
X574658Y402500*
X574701Y402586*
X574959Y402672*
X575217Y402801*
X575517Y402414*
X575431Y402285*
X575345Y402071*
X575131Y402028*
X574873Y401985*
X574787Y402028*
X574658Y402071*
X574529Y402028*
X574358Y401942*
X574787Y401727*
X575217Y401684*
X575560Y401426*
X575990Y401297*
X575990*
X585008Y400529D02*
X586082Y398684D01*
Y396654*
X587156Y400529D02*
X586082Y398684D01*
X588363Y400529D02*
Y396654D01*
Y400529D02*
X590108D01*
X588363Y398684D02*
X589437D01*
X588363Y396654D02*
X590108D01*
X593195Y399975D02*
X592927Y400344D01*
X592524Y400529*
X591987*
X591585Y400344*
X591316Y399975*
Y399606*
X591450Y399237*
X591585Y399053*
X591853Y398868*
X592658Y398499*
X592927Y398314*
X593061Y398130*
X593195Y397761*
Y397207*
X592927Y396838*
X592524Y396654*
X591987*
X591585Y396838*
X591316Y397207*
X611180Y399975D02*
Y396654D01*
X609972Y398314D02*
X612388D01*
X616012Y401267D02*
X613596Y395362D01*
X617220Y398314D02*
X619636D01*
X621649Y400529D02*
X621246Y400344D01*
X620978Y399791*
X620844Y398868*
Y398314*
X620978Y397392*
X621246Y396838*
X621649Y396654*
X621918*
X621918D02*
X622320Y396838D01*
X622589Y397392*
X622723Y398314*
Y398868*
X622589Y399791*
X622320Y400344*
X621918Y400529*
X621918D02*
X621649D01*
X624065Y397023D02*
X623931Y396838D01*
X624065Y396654*
X624199Y396838*
X624065Y397023*
X626212Y400529D02*
X625810Y400344D01*
X625541Y399791*
X625407Y398868*
Y398314*
X625541Y397392*
X625810Y396838*
X626212Y396654*
X626481*
X626883Y396838*
X626883D02*
X627152Y397392D01*
X627286Y398314*
Y398868*
X627152Y399791*
X626883Y400344*
X626883D02*
X626481Y400529D01*
X626212*
G54D12*
X385827Y393701D02*
Y516685D01*
Y393701D02*
X383327Y403701D01*
X388327*
X385827Y393701*
Y669291D02*
Y553821D01*
Y669291D02*
X388327Y659291D01*
X383327*
X385827Y669291*
X388701Y393701D02*
X380827D01*
X388701Y669291D02*
X380827D01*
X381233Y522867D02*
X387795Y520594D01*
X381233Y519685D02*
Y522867D01*
Y526276D02*
X381545Y525594D01*
X382483Y525140*
X384045Y524912*
X384983*
X386545Y525140*
X387483Y525594*
X387795Y526276*
Y526730*
X387483Y527412*
X386545Y527867*
X384983Y528094*
X384045*
X382483Y527867*
X381545Y527412*
X381233Y526730*
Y526276*
X387170Y530367D02*
X387483Y530140D01*
X387795Y530367*
X387483Y530594*
X387170Y530367*
X381233Y534003D02*
X381545Y533321D01*
X382483Y532867*
X384045Y532640*
X384983*
X386545Y532867*
X387483Y533321*
X387795Y534003*
Y534458*
X387483Y535140*
X386545Y535594*
X384983Y535821*
X384045*
X382483Y535594*
X381545Y535140*
X381233Y534458*
Y534003*
X383420Y537867D02*
X387795D01*
X384670D02*
X383733Y538549D01*
X383420Y539003*
Y539685*
X383733Y540140*
X384670Y540367*
X387795*
X384670D02*
X383733Y541049D01*
X383420Y541503*
Y542185*
X383733Y542640*
X384670Y542867*
X387795*
X383420Y544912D02*
X387795D01*
X384670D02*
X383733Y545594D01*
X383420Y546049*
Y546730*
X383733Y547185*
X384670Y547412*
X387795*
X384670D02*
X383733Y548094D01*
X383420Y548549*
Y549230*
X383733Y549685*
X384670Y549912*
X387795*
X496063Y677165D02*
X463336D01*
X496063D02*
X486063Y674665D01*
Y679665*
X496063Y677165*
X393701D02*
X426427D01*
X393701D02*
X403701Y679665D01*
Y674665*
X393701Y677165*
X496063Y674291D02*
Y682165D01*
X393701Y674291D02*
Y682165D01*
X429655Y678415D02*
Y678728D01*
X429882Y679353*
X430109Y679665*
X430564Y679978*
X431473*
X431927Y679665*
X432155Y679353*
X432382Y678728*
Y678103*
X432155Y677478*
X431700Y676540*
X429427Y673415*
X432609*
X437382Y679040D02*
X437155Y679665D01*
X436473Y679978*
X436018*
X435336Y679665*
X434882Y678728*
X434655Y677165*
Y675603*
X434882Y674353*
X435336Y673728*
X436018Y673415*
X436246*
X436927Y673728*
X437382Y674353*
X437609Y675290*
Y675603*
X437382Y676540*
X436927Y677165*
X436246Y677478*
X436018*
X435336Y677165*
X434882Y676540*
X434655Y675603*
X439882Y674040D02*
X439655Y673728D01*
X439882Y673415*
X440109Y673728*
X439882Y674040*
X443518Y679978D02*
X442836Y679665D01*
X442382Y678728*
X442155Y677165*
Y676228*
X442382Y674665*
X442836Y673728*
X443518Y673415*
X443973*
X444655Y673728*
X445109Y674665*
X445336Y676228*
Y677165*
X445109Y678728*
X444655Y679665*
X443973Y679978*
X443518*
X447382Y677790D02*
Y673415D01*
Y676540D02*
X448064Y677478D01*
X448518Y677790*
X449200*
X449655Y677478*
X449882Y676540*
Y673415*
Y676540D02*
X450564Y677478D01*
X451018Y677790*
X451700*
X452155Y677478*
X452382Y676540*
Y673415*
X454427Y677790D02*
Y673415D01*
Y676540D02*
X455109Y677478D01*
X455564Y677790*
X456246*
X456700Y677478*
X456927Y676540*
Y673415*
Y676540D02*
X457609Y677478D01*
X458064Y677790*
X458746*
X459200Y677478*
X459427Y676540*
Y673415*
G54D163*
X393701Y393701D02*
X393703D01*
X393701Y669291D02*
X393703D01*
X496063D02*
X496066D01*
X393701D02*
X393703D01*
G74*
X0Y0D02*
M02*
