*
*
G04 PADS Layout (Build Number 2005.266.2) generated Gerber (RS-274-X) file*
G04 PC Version=2.1*
*
%IN "COMMXEL_REVD_SMD(181102"*%
*
%MOIN*%
*
%FSLAX35Y35*%
*
*
*
*
G04 PC Standard Apertures*
*
*
G04 Thermal Relief Aperture macro.*
%AMTER*
1,1,$1,0,0*
1,0,$1-$2,0,0*
21,0,$3,$4,0,0,45*
21,0,$3,$4,0,0,135*
%
*
*
G04 Annular Aperture macro.*
%AMANN*
1,1,$1,0,0*
1,0,$2,0,0*
%
*
*
G04 Odd Aperture macro.*
%AMODD*
1,1,$1,0,0*
1,0,$1-0.005,0,0*
%
*
*
G04 PC Custom Aperture Macros*
*
*
*
*
*
*
G04 PC Aperture Table*
*
%ADD010C,0.00394*%
%ADD015C,0.00787*%
%ADD017C,0.02362*%
%ADD019R,0.02756X0.02756*%
%ADD023R,0.01969X0.01969*%
%ADD026C,0.01181*%
%ADD027C,0.0315*%
%ADD029C,0.00984*%
%ADD032R,0.10236X0.10236*%
%ADD033R,0.06299X0.06299*%
%ADD038R,0.03937X0.03937*%
%ADD039C,0.01378*%
%ADD041C,0.05906*%
%ADD053R,0.04724X0.04724*%
%ADD054C,0.06299*%
%ADD064C,0.02756*%
%ADD065C,0.01575*%
%ADD066C,0.00591*%
%ADD067C,0.01969*%
%ADD070C,0.03543*%
%ADD139C,0.05512*%
%ADD141R,0.05512X0.05512*%
%ADD146R,0.01181X0.01181*%
%ADD170R,0.0315X0.0315*%
%ADD171R,0.03543X0.03543*%
%ADD184C,0.04823*%
%ADD236R,0.08661X0.08661*%
%ADD239C,0.04921*%
%ADD250R,0.03189X0.03189*%
%ADD251R,0.02402X0.02402*%
%ADD253R,0.01378X0.01378*%
%ADD256R,0.09843X0.09843*%
%ADD257C,0.12795*%
*
*
*
*
G04 PC Custom Flashes*
G04 Layer Name COMMXEL_REVD_SMD(181102 - flashes*
%LPD*%
*
*
G04 PC Circuitry*
G04 Layer Name COMMXEL_REVD_SMD(181102 - circuitry*
%LPD*%
*
G54D10*
G01X399803Y631890D02*
G75*
G03X401575Y630118I1772J-0D01*
G01X469685*
G03X471457Y631890I0J1772*
G01Y633858*
G03X469685Y635630I-1772J0*
G01X451181*
X449016Y637795D02*
G03X451181Y635630I2165J0D01*
G01X449016Y637795D02*
Y659646D01*
G03X448031Y660630I-985J-0*
G01X444685*
G03X443701Y659646I0J-984*
G01Y653965*
X443067Y652434D02*
G03X443701Y653965I-1532J1531D01*
G01X443067Y652434D02*
X441275Y650642D01*
G03X440748Y648802I1958J-1556*
G01Y638780*
X438583Y636614D02*
G03X440748Y638780I-0J2166D01*
G01X438583Y636614D02*
X401575D01*
G03X399803Y634843I-0J-1771*
G01Y631890*
X413583Y543898D02*
G03X412598Y544882I-985J-0D01*
G01X408465*
G03X407480Y543898I-0J-984*
G01Y543206*
G03X407769Y542510I985J-0*
G01X409439Y540839*
X409843Y539865D02*
G03X409439Y540839I-1378J0D01*
G01X409843Y539865D02*
Y534055D01*
G03X410827Y533071I984J0*
G01X412598*
G03X413583Y534055I0J984*
G01Y543898*
X418110Y540157D02*
G03X417126Y539173I0J-984D01*
G01X418110Y540157D02*
X426378D01*
G03X427756Y541535I-0J1378*
G01Y545472*
X428740Y546457D02*
G03X427756Y545472I0J-985D01*
G01X428740Y546457D02*
X431890D01*
X432874Y545472D02*
G03X431890Y546457I-984J0D01*
G01X432874Y545472D02*
Y540239D01*
X431890Y539255*
Y533661*
X430906Y532677D02*
G03X431890Y533661I-0J984D01*
G01X430906Y532677D02*
X418110D01*
X417126Y533661D02*
G03X418110Y532677I984J0D01*
G01X417126Y533661D02*
Y539173D01*
X471654Y583661D02*
G03X470669Y582677I-0J-984D01*
G01X471654Y583661D02*
X478543D01*
X479528Y582677D02*
G03X478543Y583661I-985J0D01*
G01X479528Y582677D02*
Y577064D01*
G03X479931Y576090I1378J0*
G01X481798Y574222*
X482087Y573527D02*
G03X481798Y574222I-985J-0D01*
G01X482087Y573527D02*
Y570276D01*
X481102Y569291D02*
G03X482087Y570276I0J985D01*
G01X481102Y569291D02*
X473425D01*
X472441Y570276D02*
G03X473425Y569291I984J-0D01*
G01X472441Y570276D02*
Y579235D01*
G03X472037Y580210I-1378J0*
G01X470958Y581289*
X470669Y581985D02*
G03X470958Y581289I985J0D01*
G01X470669Y581985D02*
Y582677D01*
X473425Y566535D02*
G03X472441Y565551I0J-984D01*
G01X473425Y566535D02*
X481102D01*
X482087Y565551D02*
G03X481102Y566535I-985J0D01*
G01X482087Y565551D02*
Y561024D01*
X481102Y560039D02*
G03X482087Y561024I0J985D01*
G01X481102Y560039D02*
X473425D01*
X472441Y561024D02*
G03X473425Y560039I984J-0D01*
G01X472441Y561024D02*
Y565551D01*
X460827Y561220D02*
Y566732D01*
X461811Y567717D02*
G03X460827Y566732I0J-985D01*
G01X461811Y567717D02*
X467913D01*
X468898Y566732D02*
G03X467913Y567717I-985J0D01*
G01X468898Y566732D02*
Y561220D01*
X460827*
X449409Y599803D02*
G03X448425Y598819I0J-984D01*
G01X449409Y599803D02*
X453150D01*
X454134Y598819D02*
G03X453150Y599803I-984J-0D01*
G01X454134Y598819D02*
Y592126D01*
X453150Y591142D02*
G03X454134Y592126I-0J984D01*
G01X453150Y591142D02*
X449409D01*
X448425Y592126D02*
G03X449409Y591142I984J-0D01*
G01X448425Y592126D02*
Y598819D01*
X479921Y550984D02*
G03X479331Y550394I0J-590D01*
G01X479921Y550984D02*
X487795D01*
X488386Y550394D02*
G03X487795Y550984I-591J-0D01*
G01X488386Y550394D02*
Y549213D01*
X487795Y548622D02*
G03X488386Y549213I0J591D01*
G01X487795Y548622D02*
X479921D01*
X479331Y549213D02*
G03X479921Y548622I590J-0D01*
G01X479331Y549213D02*
Y550394D01*
X423228Y525787D02*
G03X422244Y526772I-984J0D01*
G01X420669*
G03X419685Y525787I0J-985*
G01Y507283*
G03X420669Y506299I984J0*
G01X421457*
G03X422441Y507283I-0J984*
G01Y521952*
X423228Y522739*
Y525787*
X425394Y520669D02*
G03X424409Y519685I-0J-984D01*
G01X425394Y520669D02*
X427165D01*
X428150Y519685D02*
G03X427165Y520669I-985J0D01*
G01X428150Y519685D02*
Y513386D01*
X427165Y512402D02*
G03X428150Y513386I0J984D01*
G01X427165Y512402D02*
X425394D01*
X424409Y513386D02*
G03X425394Y512402I985J-0D01*
G01X424409Y513386D02*
Y519685D01*
X425984Y507283D02*
G03X426969Y506299I985J0D01*
G01X437008*
G03X437992Y507283I-0J984*
G01Y508661*
G03X437008Y509646I-984J0*
G01X426969*
G03X425984Y508661I-0J-985*
G01Y507283*
X474213Y624918D02*
X471500Y627631D01*
G03X470248Y628150I-1252J-1253*
G01X467913*
Y625787*
X438976*
G03X437205Y624016I0J-1771*
G01Y610236*
G03X438976Y608465I1771J0*
G01X448819*
G03X450591Y610236I-0J1771*
G01Y614173*
X452756Y616339D02*
G03X450591Y614173I-0J-2166D01*
G01X452756Y616339D02*
X472441D01*
G03X474213Y618110I-0J1771*
G01Y624918*
X474606Y610236D02*
G03X476378Y608465I1772J0D01*
G01X492126*
G03X493898Y610236I-0J1771*
G01Y613976*
X474606*
Y610236*
X429921Y643504D02*
G03X428937Y644488I-984J-0D01*
G01X396850*
G03X395866Y643504I0J-984*
G01Y639173*
G03X396850Y638189I984J0*
G01X428937*
G03X429921Y639173I0J984*
G01Y643504*
X442241Y566535D02*
X437795D01*
Y572244*
X442601*
X445472Y575115*
Y576181*
X449213*
Y568701*
X444407*
X442241Y566535*
X473228Y558268D02*
G03X472638Y557677I0J-591D01*
G01X473228Y558268D02*
X480925D01*
G03X483661Y561004I0J2736*
G01Y561220*
X484252Y561811D02*
G03X483661Y561220I-0J-591D01*
G01X484252Y561811D02*
X488976D01*
X489567Y561220D02*
G03X488976Y561811I-591J0D01*
G01X489567Y561220D02*
Y554921D01*
X488976Y554331D02*
G03X489567Y554921I0J590D01*
G01X488976Y554331D02*
X473228D01*
X472638Y554921D02*
G03X473228Y554331I590J0D01*
G01X472638Y554921D02*
Y557677D01*
X475000Y536811D02*
Y526575D01*
X466732*
Y536811*
X475000*
X477756Y416142D02*
Y395866D01*
X487320*
X490059Y398605*
X489962Y416142*
X477756*
X411220Y416339D02*
Y395866D01*
X403374*
X402122Y396385D02*
G03X403374Y395866I1252J1253D01*
G01X402122Y396385D02*
X399901Y398606D01*
X399999Y416339*
X411220*
X465157Y581415D02*
X467404Y583661D01*
X468422*
X468898Y583186*
Y569291*
X465157*
Y581415*
X395866Y429331D02*
X402559D01*
Y426181*
X395866*
Y429331*
X399803Y633660D02*
X471457D01*
X399803Y633306D02*
X471457D01*
X399803Y632951D02*
X471457D01*
X399803Y632597D02*
X471457D01*
X399803Y632243D02*
X471457D01*
X399803Y631888D02*
X471457D01*
X399803Y634014D02*
X471450D01*
X399839Y631534D02*
X471421D01*
X399803Y634369D02*
X471382D01*
X399952Y631180D02*
X471308D01*
X399803Y634723D02*
X471231D01*
X400158Y630825D02*
X471101D01*
X399819Y635077D02*
X470970D01*
X400514Y630471D02*
X470746D01*
X399904Y635432D02*
X470499D01*
X400075Y635786D02*
X450374D01*
X400369Y636140D02*
X449785D01*
X400935Y636495D02*
X449450D01*
X439564Y636849D02*
X449233D01*
X440067Y637203D02*
X449098D01*
X440370Y637558D02*
X449029D01*
X443701Y659526D02*
X449016D01*
X443701Y659172D02*
X449016D01*
X443701Y658818D02*
X449016D01*
X443701Y658463D02*
X449016D01*
X443701Y658109D02*
X449016D01*
X443701Y657755D02*
X449016D01*
X443701Y657400D02*
X449016D01*
X443701Y657046D02*
X449016D01*
X443701Y656692D02*
X449016D01*
X443701Y656337D02*
X449016D01*
X443701Y655983D02*
X449016D01*
X443701Y655629D02*
X449016D01*
X443701Y655274D02*
X449016D01*
X443701Y654920D02*
X449016D01*
X443701Y654566D02*
X449016D01*
X443701Y654211D02*
X449016D01*
X443698Y653857D02*
X449016D01*
X443651Y653503D02*
X449016D01*
X443541Y653148D02*
X449016D01*
X443357Y652794D02*
X449016D01*
X443072Y652440D02*
X449016D01*
X442718Y652085D02*
X449016D01*
X442364Y651731D02*
X449016D01*
X442009Y651377D02*
X449016D01*
X441655Y651022D02*
X449016D01*
X441301Y650668D02*
X449016D01*
X441054Y650314D02*
X449016D01*
X440889Y649959D02*
X449016D01*
X440786Y649605D02*
X449016D01*
X440737Y649251D02*
X449016D01*
X440739Y648896D02*
X449016D01*
X440748Y648542D02*
X449016D01*
X440748Y648188D02*
X449016D01*
X440748Y647833D02*
X449016D01*
X440748Y647479D02*
X449016D01*
X440748Y647125D02*
X449016D01*
X440748Y646770D02*
X449016D01*
X440748Y646416D02*
X449016D01*
X440748Y646062D02*
X449016D01*
X440748Y645707D02*
X449016D01*
X440748Y645353D02*
X449016D01*
X440748Y644999D02*
X449016D01*
X440748Y644644D02*
X449016D01*
X440748Y644290D02*
X449016D01*
X440748Y643936D02*
X449016D01*
X440748Y643581D02*
X449016D01*
X440748Y643227D02*
X449016D01*
X440748Y642873D02*
X449016D01*
X440748Y642518D02*
X449016D01*
X440748Y642164D02*
X449016D01*
X440748Y641810D02*
X449016D01*
X440748Y641455D02*
X449016D01*
X440748Y641101D02*
X449016D01*
X440748Y640747D02*
X449016D01*
X440748Y640392D02*
X449016D01*
X440748Y640038D02*
X449016D01*
X440748Y639684D02*
X449016D01*
X440748Y639329D02*
X449016D01*
X440748Y638975D02*
X449016D01*
X440742Y638621D02*
X449016D01*
X440686Y638266D02*
X449016D01*
X440567Y637912D02*
X449016D01*
X443729Y659881D02*
X448987D01*
X443897Y660235D02*
X448820D01*
X444405Y660589D02*
X448312D01*
X407480Y543699D02*
X413583D01*
X407480Y543345D02*
X413583D01*
X407504Y542991D02*
X413583D01*
X407662Y542636D02*
X413583D01*
X407996Y542282D02*
X413583D01*
X408351Y541928D02*
X413583D01*
X408705Y541573D02*
X413583D01*
X409059Y541219D02*
X413583D01*
X409414Y540865D02*
X413583D01*
X409682Y540510D02*
X413583D01*
X409811Y540156D02*
X413583D01*
X409843Y539802D02*
X413583D01*
X409843Y539448D02*
X413583D01*
X409843Y539093D02*
X413583D01*
X409843Y538739D02*
X413583D01*
X409843Y538385D02*
X413583D01*
X409843Y538030D02*
X413583D01*
X409843Y537676D02*
X413583D01*
X409843Y537322D02*
X413583D01*
X409843Y536967D02*
X413583D01*
X409843Y536613D02*
X413583D01*
X409843Y536259D02*
X413583D01*
X409843Y535904D02*
X413583D01*
X409843Y535550D02*
X413583D01*
X409843Y535196D02*
X413583D01*
X409843Y534841D02*
X413583D01*
X409843Y534487D02*
X413583D01*
X409843Y534133D02*
X413583D01*
X407493Y544054D02*
X413570D01*
X409882Y533778D02*
X413543D01*
X407623Y544408D02*
X413440D01*
X410072Y533424D02*
X413354D01*
X407995Y544762D02*
X413068D01*
X427756Y545432D02*
X432874D01*
X427756Y545077D02*
X432874D01*
X427756Y544723D02*
X432874D01*
X427756Y544369D02*
X432874D01*
X427756Y544014D02*
X432874D01*
X427756Y543660D02*
X432874D01*
X427756Y543306D02*
X432874D01*
X427756Y542951D02*
X432874D01*
X427756Y542597D02*
X432874D01*
X427756Y542243D02*
X432874D01*
X427756Y541888D02*
X432874D01*
X427756Y541534D02*
X432874D01*
X427709Y541180D02*
X432874D01*
X427559Y540825D02*
X432874D01*
X427253Y540471D02*
X432874D01*
X427807Y545786D02*
X432823D01*
X417830Y540117D02*
X432752D01*
X428017Y546140D02*
X432613D01*
X417322Y539762D02*
X432397D01*
X417154Y539408D02*
X432043D01*
X417126Y539054D02*
X431890D01*
X417126Y538699D02*
X431890D01*
X417126Y538345D02*
X431890D01*
X417126Y537991D02*
X431890D01*
X417126Y537636D02*
X431890D01*
X417126Y537282D02*
X431890D01*
X417126Y536928D02*
X431890D01*
X417126Y536573D02*
X431890D01*
X417126Y536219D02*
X431890D01*
X417126Y535865D02*
X431890D01*
X417126Y535510D02*
X431890D01*
X417126Y535156D02*
X431890D01*
X417126Y534802D02*
X431890D01*
X417126Y534448D02*
X431890D01*
X417126Y534093D02*
X431890D01*
X417126Y533739D02*
X431890D01*
X417166Y533385D02*
X431850D01*
X417355Y533030D02*
X431661D01*
X472441Y573188D02*
X482087D01*
X472441Y572833D02*
X482087D01*
X472441Y572479D02*
X482087D01*
X472441Y572125D02*
X482087D01*
X472441Y571770D02*
X482087D01*
X472441Y571416D02*
X482087D01*
X472441Y571062D02*
X482087D01*
X472441Y570707D02*
X482087D01*
X472441Y570353D02*
X482087D01*
X472441Y573542D02*
X482086D01*
X472481Y569999D02*
X482047D01*
X472441Y573896D02*
X482015D01*
X472670Y569644D02*
X481858D01*
X472441Y574251D02*
X481770D01*
X472441Y574605D02*
X481416D01*
X472441Y574959D02*
X481062D01*
X472441Y575314D02*
X480707D01*
X472441Y575668D02*
X480353D01*
X472441Y576022D02*
X479999D01*
X472441Y576377D02*
X479711D01*
X472441Y576731D02*
X479568D01*
X470669Y582400D02*
X479528D01*
X470669Y582046D02*
X479528D01*
X470714Y581692D02*
X479528D01*
X470913Y581337D02*
X479528D01*
X471264Y580983D02*
X479528D01*
X471618Y580629D02*
X479528D01*
X471973Y580274D02*
X479528D01*
X472259Y579920D02*
X479528D01*
X472401Y579566D02*
X479528D01*
X472441Y579211D02*
X479528D01*
X472441Y578857D02*
X479528D01*
X472441Y578503D02*
X479528D01*
X472441Y578148D02*
X479528D01*
X472441Y577794D02*
X479528D01*
X472441Y577440D02*
X479528D01*
X472441Y577085D02*
X479528D01*
X470672Y582755D02*
X479525D01*
X470769Y583109D02*
X479428D01*
X471061Y583463D02*
X479136D01*
X472441Y565353D02*
X482087D01*
X472441Y564999D02*
X482087D01*
X472441Y564644D02*
X482087D01*
X472441Y564290D02*
X482087D01*
X472441Y563936D02*
X482087D01*
X472441Y563581D02*
X482087D01*
X472441Y563227D02*
X482087D01*
X472441Y562873D02*
X482087D01*
X472441Y562518D02*
X482087D01*
X472441Y562164D02*
X482087D01*
X472441Y561810D02*
X482087D01*
X472441Y561455D02*
X482087D01*
X472441Y561101D02*
X482087D01*
X472453Y565707D02*
X482074D01*
X472481Y560747D02*
X482047D01*
X472584Y566062D02*
X481944D01*
X472670Y560392D02*
X481858D01*
X472955Y566416D02*
X481572D01*
X460827Y566534D02*
X468898D01*
X460827Y566180D02*
X468898D01*
X460827Y565825D02*
X468898D01*
X460827Y565471D02*
X468898D01*
X460827Y565117D02*
X468898D01*
X460827Y564762D02*
X468898D01*
X460827Y564408D02*
X468898D01*
X460827Y564054D02*
X468898D01*
X460827Y563699D02*
X468898D01*
X460827Y563345D02*
X468898D01*
X460827Y562991D02*
X468898D01*
X460827Y562636D02*
X468898D01*
X460827Y562282D02*
X468898D01*
X460827Y561928D02*
X468898D01*
X460827Y561573D02*
X468898D01*
X460839Y566888D02*
X468885D01*
X460970Y567243D02*
X468755D01*
X461341Y567597D02*
X468383D01*
X448425Y598581D02*
X454134D01*
X448425Y598227D02*
X454134D01*
X448425Y597873D02*
X454134D01*
X448425Y597518D02*
X454134D01*
X448425Y597164D02*
X454134D01*
X448425Y596810D02*
X454134D01*
X448425Y596455D02*
X454134D01*
X448425Y596101D02*
X454134D01*
X448425Y595747D02*
X454134D01*
X448425Y595392D02*
X454134D01*
X448425Y595038D02*
X454134D01*
X448425Y594684D02*
X454134D01*
X448425Y594329D02*
X454134D01*
X448425Y593975D02*
X454134D01*
X448425Y593621D02*
X454134D01*
X448425Y593266D02*
X454134D01*
X448425Y592912D02*
X454134D01*
X448425Y592558D02*
X454134D01*
X448425Y592203D02*
X454134D01*
X448432Y598936D02*
X454127D01*
X448465Y591849D02*
X454094D01*
X448545Y599290D02*
X454014D01*
X448654Y591495D02*
X453905D01*
X448873Y599644D02*
X453686D01*
X479331Y550392D02*
X488386D01*
X479331Y550038D02*
X488386D01*
X479331Y549684D02*
X488386D01*
X479331Y549329D02*
X488386D01*
X479381Y548975D02*
X488336D01*
X479448Y550747D02*
X488269D01*
X419685Y525786D02*
X423228D01*
X419685Y525432D02*
X423228D01*
X419685Y525077D02*
X423228D01*
X419685Y524723D02*
X423228D01*
X419685Y524369D02*
X423228D01*
X419685Y524014D02*
X423228D01*
X419685Y523660D02*
X423228D01*
X419685Y523306D02*
X423228D01*
X419685Y522951D02*
X423228D01*
X419751Y526140D02*
X423163D01*
X419685Y522597D02*
X423086D01*
X419985Y526495D02*
X422928D01*
X419685Y522243D02*
X422732D01*
X419685Y521888D02*
X422441D01*
X419685Y521534D02*
X422441D01*
X419685Y521180D02*
X422441D01*
X419685Y520825D02*
X422441D01*
X419685Y520471D02*
X422441D01*
X419685Y520117D02*
X422441D01*
X419685Y519762D02*
X422441D01*
X419685Y519408D02*
X422441D01*
X419685Y519054D02*
X422441D01*
X419685Y518699D02*
X422441D01*
X419685Y518345D02*
X422441D01*
X419685Y517991D02*
X422441D01*
X419685Y517636D02*
X422441D01*
X419685Y517282D02*
X422441D01*
X419685Y516928D02*
X422441D01*
X419685Y516573D02*
X422441D01*
X419685Y516219D02*
X422441D01*
X419685Y515865D02*
X422441D01*
X419685Y515510D02*
X422441D01*
X419685Y515156D02*
X422441D01*
X419685Y514802D02*
X422441D01*
X419685Y514448D02*
X422441D01*
X419685Y514093D02*
X422441D01*
X419685Y513739D02*
X422441D01*
X419685Y513385D02*
X422441D01*
X419685Y513030D02*
X422441D01*
X419685Y512676D02*
X422441D01*
X419685Y512322D02*
X422441D01*
X419685Y511967D02*
X422441D01*
X419685Y511613D02*
X422441D01*
X419685Y511259D02*
X422441D01*
X419685Y510904D02*
X422441D01*
X419685Y510550D02*
X422441D01*
X419685Y510196D02*
X422441D01*
X419685Y509841D02*
X422441D01*
X419685Y509487D02*
X422441D01*
X419685Y509133D02*
X422441D01*
X419685Y508778D02*
X422441D01*
X419685Y508424D02*
X422441D01*
X419685Y508070D02*
X422441D01*
X419685Y507715D02*
X422441D01*
X419685Y507361D02*
X422441D01*
X419725Y507007D02*
X422401D01*
X419914Y506652D02*
X422212D01*
X424409Y519487D02*
X428150D01*
X424409Y519133D02*
X428150D01*
X424409Y518778D02*
X428150D01*
X424409Y518424D02*
X428150D01*
X424409Y518070D02*
X428150D01*
X424409Y517715D02*
X428150D01*
X424409Y517361D02*
X428150D01*
X424409Y517007D02*
X428150D01*
X424409Y516652D02*
X428150D01*
X424409Y516298D02*
X428150D01*
X424409Y515944D02*
X428150D01*
X424409Y515589D02*
X428150D01*
X424409Y515235D02*
X428150D01*
X424409Y514881D02*
X428150D01*
X424409Y514526D02*
X428150D01*
X424409Y514172D02*
X428150D01*
X424409Y513818D02*
X428150D01*
X424409Y513463D02*
X428150D01*
X424422Y519841D02*
X428137D01*
X424449Y513109D02*
X428110D01*
X424552Y520196D02*
X428007D01*
X424639Y512755D02*
X427921D01*
X424924Y520550D02*
X427635D01*
X425984Y508424D02*
X437992D01*
X425984Y508070D02*
X437992D01*
X425984Y507715D02*
X437992D01*
X425984Y507361D02*
X437992D01*
X425991Y508778D02*
X437985D01*
X426024Y507007D02*
X437952D01*
X426104Y509133D02*
X437872D01*
X426213Y506652D02*
X437763D01*
X426432Y509487D02*
X437544D01*
X437370Y624762D02*
X474213D01*
X437249Y624408D02*
X474213D01*
X437205Y624054D02*
X474213D01*
X437205Y623699D02*
X474213D01*
X437205Y623345D02*
X474213D01*
X437205Y622991D02*
X474213D01*
X437205Y622636D02*
X474213D01*
X437205Y622282D02*
X474213D01*
X437205Y621928D02*
X474213D01*
X437205Y621573D02*
X474213D01*
X437205Y621219D02*
X474213D01*
X437205Y620865D02*
X474213D01*
X437205Y620510D02*
X474213D01*
X437205Y620156D02*
X474213D01*
X437205Y619802D02*
X474213D01*
X437205Y619448D02*
X474213D01*
X437205Y619093D02*
X474213D01*
X437205Y618739D02*
X474213D01*
X437205Y618385D02*
X474213D01*
X437205Y618030D02*
X474211D01*
X437205Y617676D02*
X474159D01*
X437205Y617322D02*
X474027D01*
X437588Y625117D02*
X474014D01*
X437205Y616967D02*
X473795D01*
X437966Y625471D02*
X473660D01*
X437205Y616613D02*
X473388D01*
X467913Y625825D02*
X473306D01*
X467913Y626180D02*
X472951D01*
X467913Y626534D02*
X472597D01*
X467913Y626888D02*
X472243D01*
X467913Y627243D02*
X471888D01*
X467913Y627597D02*
X471534D01*
X467913Y627951D02*
X471062D01*
X437205Y616259D02*
X452173D01*
X437205Y615904D02*
X451455D01*
X437205Y615550D02*
X451084D01*
X437205Y615196D02*
X450847D01*
X437205Y614841D02*
X450696D01*
X437205Y614487D02*
X450613D01*
X437205Y614133D02*
X450591D01*
X437205Y613778D02*
X450591D01*
X437205Y613424D02*
X450591D01*
X437205Y613070D02*
X450591D01*
X437205Y612715D02*
X450591D01*
X437205Y612361D02*
X450591D01*
X437205Y612007D02*
X450591D01*
X437205Y611652D02*
X450591D01*
X437205Y611298D02*
X450591D01*
X437205Y610944D02*
X450591D01*
X437205Y610589D02*
X450591D01*
X437205Y610235D02*
X450591D01*
X437241Y609881D02*
X450554D01*
X437353Y609526D02*
X450442D01*
X437560Y609172D02*
X450235D01*
X437915Y608818D02*
X449880D01*
X474606Y613778D02*
X493898D01*
X474606Y613424D02*
X493898D01*
X474606Y613070D02*
X493898D01*
X474606Y612715D02*
X493898D01*
X474606Y612361D02*
X493898D01*
X474606Y612007D02*
X493898D01*
X474606Y611652D02*
X493898D01*
X474606Y611298D02*
X493898D01*
X474606Y610944D02*
X493898D01*
X474606Y610589D02*
X493898D01*
X474606Y610235D02*
X493898D01*
X474642Y609881D02*
X493862D01*
X474755Y609526D02*
X493749D01*
X474962Y609172D02*
X493542D01*
X475317Y608818D02*
X493187D01*
X395866Y643503D02*
X429921D01*
X395866Y643148D02*
X429921D01*
X395866Y642794D02*
X429921D01*
X395866Y642440D02*
X429921D01*
X395866Y642085D02*
X429921D01*
X395866Y641731D02*
X429921D01*
X395866Y641377D02*
X429921D01*
X395866Y641022D02*
X429921D01*
X395866Y640668D02*
X429921D01*
X395866Y640314D02*
X429921D01*
X395866Y639959D02*
X429921D01*
X395866Y639605D02*
X429921D01*
X395866Y639251D02*
X429921D01*
X395906Y638896D02*
X429882D01*
X395932Y643857D02*
X429856D01*
X396095Y638542D02*
X429692D01*
X396166Y644211D02*
X429621D01*
X445472Y576101D02*
X449213D01*
X445472Y575747D02*
X449213D01*
X445472Y575392D02*
X449213D01*
X445395Y575038D02*
X449213D01*
X445041Y574684D02*
X449213D01*
X444687Y574329D02*
X449213D01*
X444332Y573975D02*
X449213D01*
X443978Y573621D02*
X449213D01*
X443624Y573266D02*
X449213D01*
X443269Y572912D02*
X449213D01*
X442915Y572558D02*
X449213D01*
X437795Y572203D02*
X449213D01*
X437795Y571849D02*
X449213D01*
X437795Y571495D02*
X449213D01*
X437795Y571140D02*
X449213D01*
X437795Y570786D02*
X449213D01*
X437795Y570432D02*
X449213D01*
X437795Y570077D02*
X449213D01*
X437795Y569723D02*
X449213D01*
X437795Y569369D02*
X449213D01*
X437795Y569014D02*
X449213D01*
X437795Y568660D02*
X444366D01*
X437795Y568306D02*
X444012D01*
X437795Y567951D02*
X443657D01*
X437795Y567597D02*
X443303D01*
X437795Y567243D02*
X442949D01*
X437795Y566888D02*
X442594D01*
X483661Y561062D02*
X489567D01*
X483645Y560707D02*
X489567D01*
X483583Y560353D02*
X489567D01*
X483470Y559999D02*
X489567D01*
X483300Y559644D02*
X489567D01*
X483058Y559290D02*
X489567D01*
X482717Y558936D02*
X489567D01*
X482197Y558581D02*
X489567D01*
X473013Y558227D02*
X489567D01*
X472671Y557873D02*
X489567D01*
X472638Y557518D02*
X489567D01*
X472638Y557164D02*
X489567D01*
X472638Y556810D02*
X489567D01*
X472638Y556455D02*
X489567D01*
X472638Y556101D02*
X489567D01*
X472638Y555747D02*
X489567D01*
X472638Y555392D02*
X489567D01*
X472638Y555038D02*
X489567D01*
X483695Y561416D02*
X489534D01*
X472688Y554684D02*
X489517D01*
X484037Y561770D02*
X489192D01*
X466732Y536495D02*
X475000D01*
X466732Y536140D02*
X475000D01*
X466732Y535786D02*
X475000D01*
X466732Y535432D02*
X475000D01*
X466732Y535077D02*
X475000D01*
X466732Y534723D02*
X475000D01*
X466732Y534369D02*
X475000D01*
X466732Y534014D02*
X475000D01*
X466732Y533660D02*
X475000D01*
X466732Y533306D02*
X475000D01*
X466732Y532951D02*
X475000D01*
X466732Y532597D02*
X475000D01*
X466732Y532243D02*
X475000D01*
X466732Y531888D02*
X475000D01*
X466732Y531534D02*
X475000D01*
X466732Y531180D02*
X475000D01*
X466732Y530825D02*
X475000D01*
X466732Y530471D02*
X475000D01*
X466732Y530117D02*
X475000D01*
X466732Y529762D02*
X475000D01*
X466732Y529408D02*
X475000D01*
X466732Y529054D02*
X475000D01*
X466732Y528699D02*
X475000D01*
X466732Y528345D02*
X475000D01*
X466732Y527991D02*
X475000D01*
X466732Y527636D02*
X475000D01*
X466732Y527282D02*
X475000D01*
X466732Y526928D02*
X475000D01*
X477756Y398699D02*
X490058D01*
X477756Y399054D02*
X490056D01*
X477756Y399408D02*
X490054D01*
X477756Y399762D02*
X490052D01*
X477756Y400117D02*
X490050D01*
X477756Y400471D02*
X490048D01*
X477756Y400825D02*
X490046D01*
X477756Y401180D02*
X490044D01*
X477756Y401534D02*
X490042D01*
X477756Y401888D02*
X490040D01*
X477756Y402243D02*
X490039D01*
X477756Y402597D02*
X490037D01*
X477756Y402951D02*
X490035D01*
X477756Y403306D02*
X490033D01*
X477756Y403660D02*
X490031D01*
X477756Y404014D02*
X490029D01*
X477756Y404369D02*
X490027D01*
X477756Y404723D02*
X490025D01*
X477756Y405077D02*
X490023D01*
X477756Y405432D02*
X490021D01*
X477756Y405786D02*
X490019D01*
X477756Y406140D02*
X490017D01*
X477756Y406495D02*
X490015D01*
X477756Y406849D02*
X490013D01*
X477756Y407203D02*
X490011D01*
X477756Y407558D02*
X490009D01*
X477756Y407912D02*
X490007D01*
X477756Y408266D02*
X490005D01*
X477756Y408621D02*
X490003D01*
X477756Y408975D02*
X490001D01*
X477756Y409329D02*
X489999D01*
X477756Y409684D02*
X489997D01*
X477756Y410038D02*
X489995D01*
X477756Y410392D02*
X489993D01*
X477756Y410747D02*
X489992D01*
X477756Y411101D02*
X489990D01*
X477756Y411455D02*
X489988D01*
X477756Y411810D02*
X489986D01*
X477756Y412164D02*
X489984D01*
X477756Y412518D02*
X489982D01*
X477756Y412873D02*
X489980D01*
X477756Y413227D02*
X489978D01*
X477756Y413581D02*
X489976D01*
X477756Y413936D02*
X489974D01*
X477756Y414290D02*
X489972D01*
X477756Y414644D02*
X489970D01*
X477756Y414999D02*
X489968D01*
X477756Y415353D02*
X489966D01*
X477756Y415707D02*
X489964D01*
X477756Y416062D02*
X489962D01*
X477756Y398345D02*
X489799D01*
X477756Y397991D02*
X489445D01*
X477756Y397636D02*
X489090D01*
X477756Y397282D02*
X488736D01*
X477756Y396928D02*
X488382D01*
X477756Y396573D02*
X488027D01*
X477756Y396219D02*
X487673D01*
X399997Y416062D02*
X411220D01*
X399995Y415707D02*
X411220D01*
X399993Y415353D02*
X411220D01*
X399992Y414999D02*
X411220D01*
X399990Y414644D02*
X411220D01*
X399988Y414290D02*
X411220D01*
X399986Y413936D02*
X411220D01*
X399984Y413581D02*
X411220D01*
X399982Y413227D02*
X411220D01*
X399980Y412873D02*
X411220D01*
X399978Y412518D02*
X411220D01*
X399976Y412164D02*
X411220D01*
X399974Y411810D02*
X411220D01*
X399972Y411455D02*
X411220D01*
X399970Y411101D02*
X411220D01*
X399968Y410747D02*
X411220D01*
X399966Y410392D02*
X411220D01*
X399964Y410038D02*
X411220D01*
X399962Y409684D02*
X411220D01*
X399960Y409329D02*
X411220D01*
X399958Y408975D02*
X411220D01*
X399956Y408621D02*
X411220D01*
X399954Y408266D02*
X411220D01*
X399952Y407912D02*
X411220D01*
X399950Y407558D02*
X411220D01*
X399948Y407203D02*
X411220D01*
X399946Y406849D02*
X411220D01*
X399945Y406495D02*
X411220D01*
X399943Y406140D02*
X411220D01*
X399941Y405786D02*
X411220D01*
X399939Y405432D02*
X411220D01*
X399937Y405077D02*
X411220D01*
X399935Y404723D02*
X411220D01*
X399933Y404369D02*
X411220D01*
X399931Y404014D02*
X411220D01*
X399929Y403660D02*
X411220D01*
X399927Y403306D02*
X411220D01*
X399925Y402951D02*
X411220D01*
X399923Y402597D02*
X411220D01*
X399921Y402243D02*
X411220D01*
X399919Y401888D02*
X411220D01*
X399917Y401534D02*
X411220D01*
X399915Y401180D02*
X411220D01*
X399913Y400825D02*
X411220D01*
X399911Y400471D02*
X411220D01*
X399909Y400117D02*
X411220D01*
X399907Y399762D02*
X411220D01*
X399905Y399408D02*
X411220D01*
X399903Y399054D02*
X411220D01*
X399901Y398699D02*
X411220D01*
X400162Y398345D02*
X411220D01*
X400516Y397991D02*
X411220D01*
X400870Y397636D02*
X411220D01*
X401225Y397282D02*
X411220D01*
X401579Y396928D02*
X411220D01*
X401933Y396573D02*
X411220D01*
X402313Y396219D02*
X411220D01*
X466852Y583109D02*
X468898D01*
X466498Y582755D02*
X468898D01*
X466143Y582400D02*
X468898D01*
X465789Y582046D02*
X468898D01*
X465435Y581692D02*
X468898D01*
X465157Y581337D02*
X468898D01*
X465157Y580983D02*
X468898D01*
X465157Y580629D02*
X468898D01*
X465157Y580274D02*
X468898D01*
X465157Y579920D02*
X468898D01*
X465157Y579566D02*
X468898D01*
X465157Y579211D02*
X468898D01*
X465157Y578857D02*
X468898D01*
X465157Y578503D02*
X468898D01*
X465157Y578148D02*
X468898D01*
X465157Y577794D02*
X468898D01*
X465157Y577440D02*
X468898D01*
X465157Y577085D02*
X468898D01*
X465157Y576731D02*
X468898D01*
X465157Y576377D02*
X468898D01*
X465157Y576022D02*
X468898D01*
X465157Y575668D02*
X468898D01*
X465157Y575314D02*
X468898D01*
X465157Y574959D02*
X468898D01*
X465157Y574605D02*
X468898D01*
X465157Y574251D02*
X468898D01*
X465157Y573896D02*
X468898D01*
X465157Y573542D02*
X468898D01*
X465157Y573188D02*
X468898D01*
X465157Y572833D02*
X468898D01*
X465157Y572479D02*
X468898D01*
X465157Y572125D02*
X468898D01*
X465157Y571770D02*
X468898D01*
X465157Y571416D02*
X468898D01*
X465157Y571062D02*
X468898D01*
X465157Y570707D02*
X468898D01*
X465157Y570353D02*
X468898D01*
X465157Y569999D02*
X468898D01*
X465157Y569644D02*
X468898D01*
X467206Y583463D02*
X468621D01*
X395866Y429014D02*
X402559D01*
X395866Y428660D02*
X402559D01*
X395866Y428306D02*
X402559D01*
X395866Y427951D02*
X402559D01*
X395866Y427597D02*
X402559D01*
X395866Y427243D02*
X402559D01*
X395866Y426888D02*
X402559D01*
X395866Y426534D02*
X402559D01*
X492913Y512795D02*
G03X492913I-2362J0D01*
G01Y532480D02*
G03X492913I-2362J0D01*
G01X492520Y602362D02*
G03X492520I-2363J0D01*
G01X486614Y587598D02*
G03X486614I-2362J0D01*
G01X490748Y632874D02*
G03X490748I-4528J0D01*
G01Y642717D02*
G03X490748I-4528J0D01*
G01X473032D02*
G03X473032I-4528J0D01*
G01X493898Y403374D02*
Y604331D01*
G03X492126Y606102I-1772J-0*
G01X474409*
X472244Y608268D02*
G03X474409Y606102I2165J-0D01*
G01X472244Y608268D02*
Y612205D01*
G03X470472Y613976I-1772J-0*
G01X468383*
G03X468206Y613693I0J-196*
G01X463983Y609900D02*
G03X468206Y613693I1568J2502D01*
G01X463983Y609900D02*
G03X463773I-105J-167D01*
G01X460636D02*
G03X463773I1569J2502D01*
G01X460636D02*
G03X460427I-105J-167D01*
G01X456203Y613693D02*
G03X460427Y609900I2655J-1291D01*
G01X456203Y613693D02*
G03X456026Y613976I-177J87D01*
G01X454724*
G03X452953Y612205I0J-1771*
G01Y608268*
X450787Y606102D02*
G03X452953Y608268I0J2166D01*
G01X450787Y606102D02*
X448988D01*
G03X448817Y605807I-0J-196*
G01X444691Y601829D02*
G03X448817Y605807I1569J2502D01*
G01X444691Y601829D02*
G03X444482I-104J-167D01*
G01X441345D02*
G03X444482I1568J2502D01*
G01X441345D02*
G03X441136I-105J-167D01*
G01X437010Y605807D02*
G03X441136Y601829I2557J-1476D01*
G01X437010Y605807D02*
G03X436839Y606102I-171J99D01*
G01X429724*
G03X429528Y605906I0J-196*
G01Y601969*
G03X429724Y601772I196J-0*
G01X431594*
X436238Y598253D02*
G03X431594Y601772I-4644J-1304D01*
G01X436238Y598253D02*
G03X436623Y598284I189J53D01*
G01X437992Y599508D02*
G03X436623Y598284I0J-1378D01*
G01X437992Y599508D02*
X441535D01*
X442913Y598130D02*
G03X441535Y599508I-1378J-0D01*
G01X442913Y598130D02*
Y597108D01*
G03X443262Y596982I197J-0*
G01X446532Y597334D02*
G03X443262Y596982I-1453J-1862D01*
G01X446532Y597334D02*
G03X446850Y597490I122J156D01*
G01Y598130*
X448228Y599508D02*
G03X446850Y598130I0J-1378D01*
G01X448228Y599508D02*
X451772D01*
X453150Y598130D02*
G03X451772Y599508I-1378J-0D01*
G01X453150Y598130D02*
Y592815D01*
X451772Y591437D02*
G03X453150Y592815I-0J1378D01*
G01X451772Y591437D02*
X448228D01*
X446850Y592815D02*
G03X448228Y591437I1378J-0D01*
G01X446850Y592815D02*
Y593455D01*
G03X446532Y593610I-196J0*
G01X443262Y593963D02*
G03X446532Y593610I1817J1509D01*
G01X443262Y593963D02*
G03X442913Y593837I-152J-126D01*
G01Y592815*
X441535Y591437D02*
G03X442913Y592815I0J1378D01*
G01X441535Y591437D02*
X439501D01*
G03X439386Y591080I-0J-197*
G01X439961Y589961D02*
G03X439386Y591080I-1378J-0D01*
G01X439961Y589961D02*
Y586811D01*
X439702Y586008D02*
G03X439961Y586811I-1119J803D01*
G01X439702Y586008D02*
G03X439665Y585893I160J-115D01*
G01Y584164*
X438959Y582459D02*
G03X439665Y584164I-1705J1705D01*
G01X438959Y582459D02*
X437755Y581254D01*
G03X437697Y581115I139J-139*
G01Y580118*
G03X437894Y579921I197J0*
G01X438583*
X439791Y579206D02*
G03X438583Y579921I-1208J-663D01*
G01X439791Y579206D02*
G03X439993Y579106I172J95D01*
G01X440220Y579130D02*
G03X439993Y579106I134J-2358D01*
G01X440220Y579130D02*
G03X440399Y579376I-11J197D01*
G01X440354Y579724D02*
G03X440399Y579376I1378J0D01*
G01X440354Y579724D02*
Y581693D01*
X441732Y583071D02*
G03X440354Y581693I0J-1378D01*
G01X441732Y583071D02*
X442725D01*
G03X442891Y583374I0J197*
G01X445535Y582376D02*
G03X442891Y583374I-653J2270D01*
G01X445535Y582376D02*
G03X445403Y582125I55J-189D01*
G01X445472Y581693D02*
G03X445403Y582125I-1378J-0D01*
G01X445472Y581693D02*
Y579724D01*
X445170Y578863D02*
G03X445472Y579724I-1076J861D01*
G01X445170Y578863D02*
G03Y578617I154J-123D01*
G01X445472Y577756D02*
G03X445170Y578617I-1378J-0D01*
G01X445472Y577756D02*
Y575787D01*
X445170Y574926D02*
G03X445472Y575787I-1076J861D01*
G01X445170Y574926D02*
G03X445324Y574606I154J-123D01*
G01X449361*
G03X449515Y574926I0J197*
G01X449213Y575787D02*
G03X449515Y574926I1378J0D01*
G01X449213Y575787D02*
Y577756D01*
X449515Y578617D02*
G03X449213Y577756I1076J-861D01*
G01X449515Y578617D02*
G03Y578863I-154J123D01*
G01X449213Y579724D02*
G03X449515Y578863I1378J0D01*
G01X449213Y579724D02*
Y581693D01*
X449392Y582373D02*
G03X449213Y581693I1199J-680D01*
G01X449392Y582373D02*
G03X449417Y582486I-171J97D01*
G01X454043Y583326D02*
G03X449417Y582486I-2271J-649D01*
G01X454043Y583326D02*
G03X454422I189J54D01*
G01X459047Y582486D02*
G03X454422Y583326I-2354J191D01*
G01X459047Y582486D02*
G03X459072Y582373I197J-16D01*
G01X459252Y581693D02*
G03X459072Y582373I-1378J-0D01*
G01X459252Y581693D02*
Y579724D01*
X458950Y578863D02*
G03X459252Y579724I-1076J861D01*
G01X458950Y578863D02*
G03Y578617I153J-123D01*
G01X459252Y577756D02*
G03X458950Y578617I-1378J-0D01*
G01X459252Y577756D02*
Y575787D01*
X458950Y574926D02*
G03X459252Y575787I-1076J861D01*
G01X458950Y574926D02*
G03X459103Y574606I153J-123D01*
G01X459449*
X460821Y573355D02*
G03X459449Y574606I-1372J-127D01*
G01X460821Y573355D02*
G03X461067Y573183I196J18D01*
G01X461417Y573228D02*
G03X461067Y573183I0J-1378D01*
G01X461417Y573228D02*
X463386D01*
G03X463583Y573425I-0J197*
G01Y581415*
X463654Y581883D02*
G03X463583Y581415I1503J-468D01*
G01X463654Y581883D02*
G03X463551Y582119I-188J59D01*
G01X464930Y586586D02*
G03X463551Y582119I-363J-2334D01*
G01X464930Y586586D02*
G03X465157Y586781I31J195D01*
G01Y588386*
Y589567*
Y591460*
G03X465100Y591599I-196J-0*
G01X464865Y591834*
X464179Y593332D02*
G03X464865Y591834I2356J172D01*
G01X464179Y593332D02*
G03X464081Y593488I-196J-15D01*
G01X463386Y594685D02*
G03X464081Y593488I1378J0D01*
G01X463386Y594685D02*
Y598228D01*
X464764Y599606D02*
G03X463386Y598228I-0J-1378D01*
G01X464764Y599606D02*
X467913D01*
X471654*
X474213*
X475591Y598228D02*
G03X474213Y599606I-1378J0D01*
G01X475591Y598228D02*
Y594685D01*
X474455Y593329D02*
G03X475591Y594685I-242J1356D01*
G01X474455Y593329D02*
G03X474320Y593235I34J-194D01*
G01X473865Y592597D02*
G03X474320Y593235I-3688J3107D01*
G01X473865Y592597D02*
G03X473819Y592470I151J-127D01*
G01Y592126*
G03X474016Y591929I197J0*
G01X477362*
X479724*
X481102Y590551D02*
G03X479724Y591929I-1378J0D01*
G01X481102Y590551D02*
Y582677D01*
Y578937*
Y577227*
G03X481160Y577088I197J0*
G01X482912Y575336*
X483661Y573527D02*
G03X482912Y575336I-2559J-0D01*
G01X483661Y573527D02*
Y573425D01*
Y570669*
Y570276*
Y569488*
Y566339*
Y565551*
Y562402*
Y562008*
Y561024*
X483129Y559461D02*
G03X483661Y561024I-2027J1563D01*
G01X483129Y559461D02*
G03X483356Y559157I156J-120D01*
G01X483858Y559252D02*
G03X483356Y559157I0J-1378D01*
G01X483858Y559252D02*
X488583D01*
X489961Y557874D02*
G03X488583Y559252I-1378J0D01*
G01X489961Y557874D02*
Y554724D01*
X489960Y554698D02*
G03X489961Y554724I-1377J26D01*
G01X489960Y554698D02*
G03X490188Y554499I197J-4D01*
G01X491451Y549981D02*
G03X490188Y554499I-900J2184D01*
G01X491451Y549981D02*
G03X491386Y549938I75J-182D01*
G01X490494Y549045*
X490040Y548653D02*
G03X490494Y549045I-2470J3316D01*
G01X490040Y548653D02*
G03X489961Y548495I118J-158D01*
G01Y548425*
X488583Y547047D02*
G03X489961Y548425I-0J1378D01*
G01X488583Y547047D02*
X483858D01*
X479921*
X477756Y549213D02*
G03X479921Y547047I2165J-0D01*
G01X477756Y549213D02*
Y550197D01*
Y552165*
X478058Y553027D02*
G03X477756Y552165I1076J-862D01*
G01X478058Y553027D02*
G03Y553273I-153J123D01*
G01X477756Y554134D02*
G03X478058Y553273I1378J-0D01*
G01X477756Y554134D02*
Y556102D01*
X479134Y557480D02*
G03X477756Y556102I-0J-1378D01*
G01X479134Y557480D02*
X481496D01*
X482185Y557296D02*
G03X481496Y557480I-689J-1194D01*
G01X482185Y557296D02*
G03X482480Y557466I98J170D01*
G01Y557874*
X482653Y558542D02*
G03X482480Y557874I1205J-668D01*
G01X482653Y558542D02*
G03X482382Y558808I-172J95D01*
G01X481102Y558465D02*
G03X482382Y558808I0J2559D01*
G01X481102Y558465D02*
X473425D01*
X470866Y561024D02*
G03X473425Y558465I2559J-0D01*
G01X470866Y561024D02*
Y561614D01*
G03X470669Y561811I-197J0*
G01X469094*
X465945*
X464567Y563189D02*
G03X465945Y561811I1378J-0D01*
G01X464567Y563189D02*
Y564485D01*
G03X464296Y564667I-197J-0*
G01X463780Y564567D02*
G03X464296Y564667I-0J1378D01*
G01X463780Y564567D02*
X461417D01*
X461073Y564611D02*
G03X461417Y564567I344J1334D01*
G01X461073Y564611D02*
G03X460827Y564420I-49J-191D01*
G01Y561024*
X459449Y559646D02*
G03X460827Y561024I-0J1378D01*
G01X459449Y559646D02*
X453937D01*
X452559Y561024D02*
G03X453937Y559646I1378J-0D01*
G01X452559Y561024D02*
Y565442D01*
G03X452223Y565581I-197J-0*
G01X451436Y564793*
G03X451378Y564654I139J-139*
G01Y561024*
X450000Y559646D02*
G03X451378Y561024I0J1378D01*
G01X450000Y559646D02*
X444488D01*
X443110Y561024D02*
G03X444488Y559646I1378J-0D01*
G01X443110Y561024D02*
Y561038D01*
G03X442815Y561208I-197J-0*
G01X442126Y561024D02*
G03X442815Y561208I-0J1378D01*
G01X442126Y561024D02*
X439764D01*
X438386Y562402D02*
G03X439764Y561024I1378J-0D01*
G01X438386Y562402D02*
Y564370D01*
X438688Y565231D02*
G03X438386Y564370I1076J-861D01*
G01X438688Y565231D02*
G03Y565477I-154J123D01*
G01X438386Y566339D02*
G03X438688Y565477I1378J-0D01*
G01X438386Y566339D02*
Y568307D01*
X439764Y569685D02*
G03X438386Y568307I-0J-1378D01*
G01X439764Y569685D02*
X442126D01*
X442815Y569500D02*
G03X442126Y569685I-689J-1193D01*
G01X442815Y569500D02*
G03X443110Y569671I98J171D01*
G01Y573228*
X443412Y574090D02*
G03X443110Y573228I1076J-862D01*
G01X443412Y574090D02*
G03X443259Y574409I-153J123D01*
G01X441732*
X441204Y574515D02*
G03X441732Y574409I528J1272D01*
G01X441204Y574515D02*
G03X441069Y574520I-75J-182D01*
G01X439760Y574485D02*
G03X441069Y574520I594J2287D01*
G01X439760Y574485D02*
G03X439570Y574432I-49J-190D01*
G01X438583Y574016D02*
G03X439570Y574432I-0J1378D01*
G01X438583Y574016D02*
X437552D01*
G03X437381Y573916I0J-197*
G01X436991Y573404D02*
G03X437381Y573916I-1706J1705D01*
G01X436991Y573404D02*
X431853Y568266D01*
G03X431795Y568127I139J-139*
G01Y567820*
G03X432045Y567630I197J-0*
G01X434759Y564237D02*
G03X432045Y567630I-2082J1117D01*
G01X434759Y564237D02*
G03X434798Y564000I173J-93D01*
G01X435236Y562992D02*
G03X434798Y564000I-1378J0D01*
G01X435236Y562992D02*
Y561024D01*
X434934Y560162D02*
G03X435236Y561024I-1076J862D01*
G01X434934Y560162D02*
G03Y559916I154J-123D01*
G01X435236Y559055D02*
G03X434934Y559916I-1378J0D01*
G01X435236Y559055D02*
Y557087D01*
X434986Y556295D02*
G03X435236Y557087I-1128J792D01*
G01X434986Y556295D02*
G03X434957Y556130I161J-113D01*
G01X430315Y555523D02*
G03X434957Y556130I2362J-11D01*
G01X430315Y555523D02*
Y555524D01*
G03X430094Y555719I-197J0*
G01X429921Y555709D02*
G03X430094Y555719I0J1378D01*
G01X429921Y555709D02*
X427559D01*
X426181Y557087D02*
G03X427559Y555709I1378J-0D01*
G01X426181Y557087D02*
Y559055D01*
X426483Y559916D02*
G03X426181Y559055I1076J-861D01*
G01X426483Y559916D02*
G03Y560162I-153J123D01*
G01X426181Y561024D02*
G03X426483Y560162I1378J-0D01*
G01X426181Y561024D02*
Y562992D01*
X426184Y563078D02*
G03X426181Y562992I1375J-86D01*
G01X426184Y563078D02*
G03X425987Y563287I-197J13D01*
G01X424544*
G03X424348Y563078I0J-196*
G01X424350Y562992D02*
G03X424348Y563078I-1378J0D01*
G01X424350Y562992D02*
Y561024D01*
X424048Y560162D02*
G03X424350Y561024I-1076J862D01*
G01X424048Y560162D02*
G03Y559916I154J-123D01*
G01X424350Y559055D02*
G03X424048Y559916I-1378J0D01*
G01X424350Y559055D02*
Y557087D01*
X422972Y555709D02*
G03X424350Y557087I0J1378D01*
G01X422972Y555709D02*
X420610D01*
X419232Y557087D02*
G03X420610Y555709I1378J-0D01*
G01X419232Y557087D02*
Y559055D01*
X419535Y559916D02*
G03X419232Y559055I1075J-861D01*
G01X419535Y559916D02*
G03Y560162I-154J123D01*
G01X419232Y561024D02*
G03X419535Y560162I1378J-0D01*
G01X419232Y561024D02*
Y562992D01*
X419235Y563078D02*
G03X419232Y562992I1375J-86D01*
G01X419235Y563078D02*
G03X419038Y563287I-197J13D01*
G01X417530*
X415451Y564475D02*
G03X417530Y563287I2079J1224D01*
G01X415451Y564475D02*
G03X415298Y564572I-169J-99D01*
G01X414432Y564978D02*
G03X415298Y564572I981J967D01*
G01X414432Y564978D02*
G03X414151I-141J-138D01*
G01X413600Y564636D02*
G03X414151Y564978I-431J1309D01*
G01X413600Y564636D02*
G03X413465Y564449I61J-187D01*
G01Y564408*
G03X413575Y564231I196J0*
G01X414350Y562992D02*
G03X413575Y564231I-1378J0D01*
G01X414350Y562992D02*
Y561024D01*
X414302Y560662D02*
G03X414350Y561024I-1330J362D01*
G01X414302Y560662D02*
G03X414467Y560415I190J-52D01*
G01X413551Y555792D02*
G03X414467Y560415I622J2279D01*
G01X413551Y555792D02*
G03X413433Y555788I-52J-190D01*
G01X412972Y555709D02*
G03X413433Y555788I0J1378D01*
G01X412972Y555709D02*
X410758D01*
G03X410566Y555557I-0J-197*
G01X406404Y554651D02*
G03X410566Y555557I1864J1451D01*
G01X406404Y554651D02*
G03X406058Y554481I-155J-121D01*
G01X406102Y554134D02*
G03X406058Y554481I-1378J-0D01*
G01X406102Y554134D02*
Y552165D01*
X404724Y550787D02*
G03X406102Y552165I0J1378D01*
G01X404724Y550787D02*
X402362D01*
X400984Y552165D02*
G03X402362Y550787I1378J0D01*
G01X400984Y552165D02*
Y554134D01*
X401287Y554995D02*
G03X400984Y554134I1075J-861D01*
G01X401287Y554995D02*
G03Y555241I-154J123D01*
G01X400984Y556102D02*
G03X401287Y555241I1378J0D01*
G01X400984Y556102D02*
Y558071D01*
X402362Y559449D02*
G03X400984Y558071I0J-1378D01*
G01X402362Y559449D02*
X404724D01*
X405392Y559277D02*
G03X404724Y559449I-668J-1206D01*
G01X405392Y559277D02*
G03X405487Y559252I95J172D01*
G01X406468*
X408919Y558447D02*
G03X406468Y559252I-2451J-3329D01*
G01X408919Y558447D02*
G03X409232Y558606I116J159D01*
G01Y559055*
X409535Y559916D02*
G03X409232Y559055I1075J-861D01*
G01X409535Y559916D02*
G03Y560162I-154J123D01*
G01X409232Y561024D02*
G03X409535Y560162I1378J-0D01*
G01X409232Y561024D02*
Y562992D01*
X410007Y564231D02*
G03X409232Y562992I603J-1239D01*
G01X410007Y564231D02*
G03X410118Y564408I-86J177D01*
G01Y564449*
G03X409983Y564636I-197J-0*
G01X409035Y565945D02*
G03X409983Y564636I1378J-0D01*
G01X409035Y565945D02*
Y567370D01*
G03X408665Y567464I-196J0*
G01X408250Y566908D02*
G03X408665Y567464I-1705J1705D01*
G01X408250Y566908D02*
X407305Y565962D01*
X406018Y565293D02*
G03X407305Y565962I-418J2374D01*
G01X406018Y565292D02*
G03X405887Y565204I35J-193D01*
G01X405800Y565084D02*
G03X405887Y565204I-1076J861D01*
G01X405800Y565084D02*
G03Y564838I154J-123D01*
G01X406102Y563976D02*
G03X405800Y564838I-1378J0D01*
G01X406102Y563976D02*
Y562008D01*
X404724Y560630D02*
G03X406102Y562008I0J1378D01*
G01X404724Y560630D02*
X402362D01*
X400984Y562008D02*
G03X402362Y560630I1378J-0D01*
G01X400984Y562008D02*
Y563976D01*
X401287Y564838D02*
G03X400984Y563976I1075J-862D01*
G01X401287Y564838D02*
G03Y565084I-154J123D01*
G01X401223Y565170D02*
G03X401287Y565084I1139J775D01*
G01X401223Y565170D02*
G03X401060Y565256I-163J-111D01*
G01X399790*
G03X399651Y565198I0J-197*
G01X397794Y563341*
G03X397736Y563202I139J-139*
G01Y540476*
G03X398047Y540315I197J0*
G01X401770Y538466D02*
G03X398047Y540315I-2361J-80D01*
G01X401770Y538466D02*
G03X401828Y538334I197J7D01*
G01X401832Y538330*
G03X402167Y538459I139J139*
G01X403543Y539764D02*
G03X402167Y538459I0J-1378D01*
G01X403543Y539764D02*
X405906D01*
X406805Y539429D02*
G03X405906Y539764I-899J-1043D01*
G01X406805Y539429D02*
G03X406877Y539390I129J150D01*
G01X407962Y538880D02*
G03X406877Y539390I-2281J-3447D01*
G01X407962Y538880D02*
G03X408268Y539044I109J164D01*
G01Y539702*
G03X408210Y539841I-197J0*
G01X406655Y541396*
X405905Y543206D02*
G03X406655Y541396I2560J-0D01*
G01X405905Y543206D02*
Y543898D01*
X408465Y546457D02*
G03X405905Y543898I-0J-2559D01*
G01X408465Y546457D02*
X412598D01*
X413780*
X419685*
G03X419882Y546654I0J197*
G01Y549409*
X422441Y551969D02*
G03X419882Y549409I-0J-2560D01*
G01X422441Y551969D02*
X424803D01*
X427362Y549409D02*
G03X424803Y551969I-2559J0D01*
G01X427362Y549409D02*
Y546654D01*
G03X427559Y546457I197J-0*
G01X428150*
X431102*
X432480Y545079D02*
G03X431102Y546457I-1378J-0D01*
G01X432480Y545079D02*
Y541535D01*
X431102Y540157D02*
G03X432480Y541535I0J1378D01*
G01X431102Y540157D02*
X428543D01*
G03X428346Y539961I0J-196*
G01Y532874*
X428150Y532677D02*
G03X428346Y532874I-0J197D01*
G01X428150Y532677D02*
X420079D01*
X416929*
X414860*
G03X414699Y532593I0J-197*
G01X414336Y532177D02*
G03X414699Y532593I-1738J1878D01*
G01X414336Y532177D02*
G03X414308Y532144I134J-145D01*
G01X413745Y531467D02*
G03X414308Y532144I-3410J3410D01*
G01X413745Y531467D02*
X412853Y530575D01*
G03X412795Y530436I139J-139*
G01Y524016*
G03X412992Y523819I197J-0*
G01X415945*
X417323Y522441D02*
G03X415945Y523819I-1378J-0D01*
G01X417323Y522441D02*
Y519291D01*
Y516142*
Y515748*
Y514567*
Y512992*
Y511811*
X413144Y510302D02*
G03X417323Y511811I1817J1509D01*
G01X413144Y510302D02*
G03X412795Y510176I-152J-126D01*
G01Y509646*
X409434Y507505D02*
G03X412795Y509646I999J2141D01*
G01X409434Y507505D02*
G03X409154Y507327I-84J-178D01*
G01Y500248*
G03X409449Y500077I196J-0*
G01X411629Y495891D02*
G03X409449Y500077I-999J2140D01*
G01X411629Y495891D02*
G03X411516Y495713I84J-178D01*
G01Y440551*
X411026Y439368D02*
G03X411516Y440551I-1183J1183D01*
G01X411026Y439368D02*
X403053Y431396D01*
X401870Y430905D02*
G03X403053Y431396I0J1674D01*
G01X401870Y430905D02*
X401663D01*
G03X401554Y430872I0J-196*
G01X400994Y430497*
G03X400958Y430466I110J-163*
G01X400757Y430263D02*
G03X400958Y430466I-2135J2316D01*
G01X400757Y430263D02*
G03Y429973I133J-145D01*
G01X401207Y425857D02*
G03X400757Y429973I-2585J1800D01*
G01X401207Y425857D02*
G03X401246Y425590I161J-112D01*
G01X401772Y424508D02*
G03X401246Y425590I-1378J-0D01*
G01X401772Y424508D02*
Y420965D01*
X400394Y419587D02*
G03X401772Y420965I-0J1378D01*
G01X400394Y419587D02*
X396850D01*
X396161Y419771D02*
G03X396850Y419587I689J1194D01*
G01X396161Y419771D02*
G03X395866Y419601I-98J-170D01*
G01Y403374*
G03X396385Y402122I1772J0*
G01X402122Y396385*
G03X403374Y395866I1252J1253*
G01X404256*
G03X404453Y396078I0J197*
G01X404449Y396181D02*
G03X404453Y396078I1378J0D01*
G01X404449Y396181D02*
Y411535D01*
X405827Y412913D02*
G03X404449Y411535I-0J-1378D01*
G01X405827Y412913D02*
X415669D01*
X417047Y411535D02*
G03X415669Y412913I-1378J0D01*
G01X417047Y411535D02*
Y411382D01*
G03X417309Y411196I197J-0*
G01X425778Y408927D02*
G03X417309Y411196I-5896J-5069D01*
G01X425778Y408927D02*
G03X425928Y408858I150J128D01*
G01X429350*
G03X429497Y408923I0J197*
G01X429720Y409158D02*
G03X429497Y408923I4384J-4384D01*
G01X429720Y409158D02*
X431392Y410831D01*
G03X431449Y410963I-139J139*
G01X435421Y406991D02*
G03X431449Y410963I-136J3836D01*
G01X435421Y406991D02*
G03X435289Y406933I7J-197D01*
G01X433617Y405261*
G03X433415Y404774I487J-487*
G01Y403544*
G03X433437Y403455I197J0*
G01X433600Y403135*
G03X433621Y403102I175J90*
G01X434120Y402282D02*
G03X433621Y403102I-3461J-1544D01*
G01X434120Y402282D02*
G03X434300Y402165I180J80D01*
G01X455365*
G03X455545Y402282I0J197*
G01X456044Y403102D02*
G03X455545Y402282I2962J-2364D01*
G01X456044Y403102D02*
G03X456066Y403135I-154J123D01*
G01X456228Y403455*
G03X456250Y403544I-175J89*
G01Y404774*
G03X456048Y405261I-689J-0*
G01X454376Y406933*
G03X454244Y406991I-139J-139*
G01X450624Y411619D02*
G03X454244Y406991I3756J-792D01*
G01X450624Y411619D02*
G03X450394Y411853I-193J41D01*
G01X452304Y414380D02*
G03X450394Y411853I-2353J-207D01*
G01X452304Y414380D02*
G03X452592Y414223I196J18D01*
G01X458216Y410963D02*
G03X452592Y414223I-3836J-136D01*
G01X458216Y410963D02*
G03X458274Y410831I197J7D01*
G01X459946Y409158*
X460755Y408160D02*
G03X459946Y409158I-5194J-3386D01*
G01X460755Y408160D02*
G03X460920Y408071I165J108D01*
G01X463240*
G03X463404Y408159I-0J197*
G01X472455Y411196D02*
G03X463404Y408159I-2573J-7338D01*
G01X472455Y411196D02*
G03X472717Y411382I65J186D01*
G01Y411535*
X474094Y412913D02*
G03X472717Y411535I0J-1378D01*
G01X474094Y412913D02*
X483937D01*
X485315Y411535D02*
G03X483937Y412913I-1378J0D01*
G01X485315Y411535D02*
Y396181D01*
X485311Y396078D02*
G03X485315Y396181I-1374J103D01*
G01X485311Y396078D02*
G03X485507Y395866I196J-15D01*
G01X486389*
G03X487642Y396385I0J1772*
G01X493379Y402122*
G03X493898Y403374I-1253J1252*
G01X405807Y447133D02*
Y474816D01*
G03X405471Y474955I-197J-0*
G01X403122Y472606*
G03X403068Y472505I139J-140*
G01X402745Y470871*
G03X402742Y470817I193J-38*
G01X400344Y466714D02*
G03X402742Y470817I-1722J3758D01*
G01X400344Y466714D02*
G03Y466356I82J-179D01*
G01Y458840D02*
G03Y466356I-1722J3758D01*
G01Y458840D02*
G03Y458482I82J-179D01*
G01X396179Y451389D02*
G03X400344Y458482I2443J3335D01*
G01X396179Y451389D02*
G03X395866Y451231I-116J-158D01*
G01Y439656*
G03X396214Y439530I197J0*
G01X398780Y440646D02*
G03X396214Y439530I-158J-3146D01*
G01X398780Y440646D02*
G03X398828Y440649I10J196D01*
G01X399488Y440780*
G03X399589Y440834I-38J193*
G01X405749Y446994*
G03X405807Y447133I-139J139*
G01X408071Y531496D02*
Y533858D01*
G03X407874Y534055I-197J0*
G01X407480*
G03X407283Y533858I0J-197*
G01Y532480*
X405906Y531102D02*
G03X407283Y532480I-0J1378D01*
G01X405906Y531102D02*
X403543D01*
X403113Y531171D02*
G03X403543Y531102I430J1309D01*
G01X403113Y531171D02*
G03X402854Y530984I-62J-187D01*
G01Y511727*
G03X403240Y511673I197J-0*
G01X407692Y511932D02*
G03X403240Y511673I-2180J-908D01*
G01X407692Y511932D02*
G03X408071Y512008I182J76D01*
G01Y531496*
X430308Y574407D02*
G03X430335Y574652I-139J139D01*
G01X430118Y575394D02*
G03X430335Y574652I1378J-0D01*
G01X430118Y575394D02*
Y577657D01*
G03X429921Y577854I-197J0*
G01X417825*
X416120Y578561D02*
G03X417825Y577854I1705J1705D01*
G01X416120Y578561D02*
X412947Y581734D01*
G03X412808Y581791I-139J-140*
G01X411809*
G03X411612Y581602I0J-197*
G01X408434Y579477D02*
G03X411612Y581602I818J2216D01*
G01X408434Y579477D02*
G03X408169Y579297I-68J-185D01*
G01X407271Y578039D02*
G03X408169Y579297I-480J1292D01*
G01X407271Y578039D02*
G03X407339Y577658I68J-185D01*
G01X407339D02*
X408749D01*
X410454Y576951D02*
G03X408749Y577658I-1705J-1705D01*
G01X410454Y576951D02*
X412778Y574628D01*
X413484Y572923D02*
G03X412778Y574628I-2411J-0D01*
G01X413484Y572923D02*
Y571765D01*
G03X413617Y571579I197J-0*
G01X414134Y571259D02*
G03X413617Y571579I-965J-983D01*
G01X414134Y571259D02*
G03X414466Y571434I138J141D01*
G01X419117D02*
G03X414466I-2326J416D01*
G01X419117D02*
G03X419448Y571259I193J-34D01*
G01X420413Y571654D02*
G03X419448Y571259I0J-1378D01*
G01X420413Y571654D02*
X423169D01*
X424134Y571259D02*
G03X423169Y571654I-965J-983D01*
G01X424134Y571259D02*
G03X424466Y571434I138J141D01*
G01X428404Y573577D02*
G03X424466Y571434I-1613J-1727D01*
G01X428404Y573577D02*
G03X428538Y573524I134J143D01*
G01X429343*
G03X429483Y573581I0J196*
G01X430308Y574407*
X436319Y584633D02*
Y585236D01*
G03X436122Y585433I-197J0*
G01X435433*
X435089Y585477D02*
G03X435433Y585433I344J1334D01*
G01X435089Y585477D02*
G03X434990I-50J-191D01*
G01X434646Y585433D02*
G03X434990Y585477I-0J1378D01*
G01X434646Y585433D02*
X433465D01*
X433120Y585477D02*
G03X433465Y585433I345J1334D01*
G01X433120Y585477D02*
G03X433022I-49J-191D01*
G01X432677Y585433D02*
G03X433022Y585477I0J1378D01*
G01X432677Y585433D02*
X431496D01*
X430118Y586811D02*
G03X431496Y585433I1378J0D01*
G01X430118Y586811D02*
Y589961D01*
X431496Y591339D02*
G03X430118Y589961I0J-1378D01*
G01X431496Y591339D02*
X431890D01*
G03X432087Y591535I-0J196*
G01Y592927*
G03X431791Y593098I-197J0*
G01X431102Y592913D02*
G03X431791Y593098I0J1378D01*
G01X431102Y592913D02*
X429211D01*
G03X429081Y592569I-0J-196*
G01X429547Y591535D02*
G03X429081Y592569I-1378J0D01*
G01X429547Y591535D02*
Y587205D01*
X428169Y585827D02*
G03X429547Y587205I0J1378D01*
G01X428169Y585827D02*
X425413D01*
X424432Y586238D02*
G03X425413Y585827I981J967D01*
G01X424432Y586238D02*
G03X424151I-141J-138D01*
G01X423169Y585827D02*
G03X424151Y586238I0J1378D01*
G01X423169Y585827D02*
X422638D01*
G03X422456Y585554I-0J-197*
G01X418095D02*
G03X422456I2181J-908D01*
G01X418095D02*
G03X417913Y585827I-182J76D01*
G01X415413*
X414432Y586238D02*
G03X415413Y585827I981J967D01*
G01X414432Y586238D02*
G03X414151I-141J-138D01*
G01X413169Y585827D02*
G03X414151Y586238I0J1378D01*
G01X413169Y585827D02*
X410413D01*
X409035Y587205D02*
G03X410413Y585827I1378J-0D01*
G01X409035Y587205D02*
Y591535D01*
X409079Y591880D02*
G03X409035Y591535I1334J-345D01*
G01X409079Y591880D02*
G03X408889Y592126I-190J49D01*
G01X408071*
X405709Y594479D02*
G03X408071Y592126I2362J9D01*
G01X405709Y594479D02*
G03X405708Y594488I-197J-1D01*
X405709Y594498I-196J11*
G01X407759Y596830D02*
G03X405709Y594498I312J-2342D01*
G01X407759Y596830D02*
G03X407923Y597077I-26J195D01*
G01X407874Y597441D02*
G03X407923Y597077I1378J-0D01*
G01X407874Y597441D02*
Y599409D01*
X409252Y600787D02*
G03X407874Y599409I-0J-1378D01*
G01X409252Y600787D02*
X411614D01*
X412985Y599547D02*
G03X411614Y600787I-1371J-138D01*
G01X412985Y599547D02*
G03X413354Y599473I196J20D01*
G01X414560Y600197D02*
G03X413354Y599473I7J-1378D01*
G01X414560Y600197D02*
G03Y600591I-1J197D01*
G01X413189Y601969D02*
G03X414560Y600591I1378J-0D01*
G01X413189Y601969D02*
Y605118D01*
X413346Y605756D02*
G03X413189Y605118I1221J-638D01*
G01X413346Y605756D02*
G03X413310Y605987I-175J92D01*
G01X413252Y606045*
G03X413113Y606102I-139J-139*
G01X397638*
G03X395866Y604331I-0J-1771*
G01Y566621*
G03X396202Y566482I197J0*
G01X397616Y567896*
X399322Y568602D02*
G03X397616Y567896I-0J-2411D01*
G01X399322Y568602D02*
X401060D01*
G03X401223Y568689I0J197*
G01X401695Y569119D02*
G03X401223Y568689I667J-1206D01*
G01X401695Y569119D02*
G03X401600Y569488I-95J172D01*
G01X400394*
X399016Y570866D02*
G03X400394Y569488I1378J0D01*
G01X399016Y570866D02*
Y572835D01*
X399318Y573696D02*
G03X399016Y572835I1076J-861D01*
G01X399318Y573696D02*
G03Y573942I-154J123D01*
G01X399016Y574803D02*
G03X399318Y573942I1378J0D01*
G01X399016Y574803D02*
Y576772D01*
X399274Y577575D02*
G03X399016Y576772I1120J-803D01*
G01X399274Y577575D02*
G03X399311Y577690I-160J115D01*
G01Y578289*
G03X399262Y578419I-197J0*
G01X398917Y579331D02*
G03X399262Y578419I1378J-0D01*
G01X398917Y579331D02*
Y582087D01*
X399209Y582934D02*
G03X398917Y582087I1086J-847D01*
G01X399209Y582934D02*
G03X399126Y583238I-155J121D01*
G01X398819Y587479D02*
G03X399126Y583238I1181J-2046D01*
G01X398819Y587479D02*
G03X398917Y587649I-99J170D01*
G01Y588583*
Y592088*
G03X398807Y592265I-197J-0*
G01X398031Y593504D02*
G03X398807Y592265I1378J-0D01*
G01X398031Y593504D02*
Y595472D01*
X398334Y596334D02*
G03X398031Y595472I1075J-862D01*
G01X398334Y596334D02*
G03Y596580I-154J123D01*
G01X398031Y597441D02*
G03X398334Y596580I1378J-0D01*
G01X398031Y597441D02*
Y599409D01*
X399409Y600787D02*
G03X398031Y599409I0J-1378D01*
G01X399409Y600787D02*
X401772D01*
X403150Y599409D02*
G03X401772Y600787I-1378J0D01*
G01X403150Y599409D02*
Y597441D01*
X403101Y597077D02*
G03X403150Y597441I-1329J364D01*
G01X403101Y597077D02*
G03X403265Y596830I190J-52D01*
G01X405315Y594498D02*
G03X403265Y596830I-2362J-10D01*
G01X405315Y594498D02*
G03Y594488I197J1D01*
Y594479I197J-10*
G01X403225Y592142D02*
G03X405315Y594479I-272J2346D01*
G01X403225Y592142D02*
G03X403051Y591946I23J-196D01*
G01Y589961*
Y588583*
Y587303*
G03X403248Y587106I197J0*
G01X403839*
G03X404035Y587303I-0J197*
G01Y589961*
X405413Y591339D02*
G03X404035Y589961I0J-1378D01*
G01X405413Y591339D02*
X406791D01*
X408169Y589961D02*
G03X406791Y591339I-1378J-0D01*
G01X408169Y589961D02*
Y587205D01*
X407560Y586061D02*
G03X408169Y587205I-769J1144D01*
G01X407560Y586061D02*
G03X407496Y585990I110J-163D01*
G01X407125Y585469D02*
G03X407496Y585990I-1761J1648D01*
G01X407125Y585469D02*
G03X407269Y585138I144J-134D01*
G01X413277*
X414982Y584432D02*
G03X413277Y585138I-1705J-1706D01*
G01X414982Y584432D02*
X418155Y581258D01*
G03X418294Y581201I139J140*
G01X433317*
X434090Y581073D02*
G03X433317Y581201I-773J-2284D01*
G01X434090Y581073D02*
G03X434350Y581260I64J187D01*
G01Y581584*
X435057Y583289D02*
G03X434350Y581584I1705J-1705D01*
G01X435057Y583289D02*
X436261Y584494D01*
G03X436319Y584633I-139J139*
G01X493898Y610236D02*
Y659618D01*
G03X493379Y660870I-1772J-0*
G01X488914Y665335*
G03X488578Y665208I-139J-139*
G01X488401Y664446D02*
G03X488578Y665208I-2181J908D01*
G01X488401Y664446D02*
G03X488386Y664370I182J-76D01*
G01Y664345*
G03X488410Y664250I197J0*
G01X488583Y663583D02*
G03X488410Y664250I-1378J-0D01*
G01X488583Y663583D02*
Y661220D01*
X487205Y659842D02*
G03X488583Y661220I-0J1378D01*
G01X487205Y659842D02*
X485236D01*
X484375Y660145D02*
G03X485236Y659842I861J1075D01*
G01X484375Y660145D02*
G03X484129I-123J-154D01*
G01X483268Y659842D02*
G03X484129Y660145I-0J1378D01*
G01X483268Y659842D02*
X481299D01*
X480533Y660075D02*
G03X481299Y659842I766J1145D01*
G01X480533Y660075D02*
G03X480237Y659977I-110J-163D01*
G01X478937Y659055D02*
G03X480237Y659977I0J1378D01*
G01X478937Y659055D02*
X476969D01*
X475591Y660426D02*
G03X476969Y659055I1378J7D01*
G01X475591Y660426D02*
G03X475197I-197J-1D01*
G01X473819Y659055D02*
G03X475197Y660426I-0J1378D01*
G01X473819Y659055D02*
X471850D01*
X470529Y660044D02*
G03X471850Y659055I1321J389D01*
G01X470529Y660044D02*
G03X470274Y660174I-189J-56D01*
G01X468943Y664700D02*
G03X470274Y660174I545J-2298D01*
G01X468943Y664700D02*
G03X469094Y664892I-45J192D01*
G01Y666929*
G03X468898Y667126I-196J0*
G01X426191*
G03Y666732I0J-197*
G01X426181Y662008D02*
G03X426191Y666732I0J2362D01*
G01X426181Y662008D02*
X425886D01*
G03X425689Y661811I-0J-197*
G01Y657480*
X424311Y656102D02*
G03X425689Y657480I0J1378D01*
G01X424311Y656102D02*
X418799D01*
X405512*
X402461*
X401083Y657480D02*
G03X402461Y656102I1378J0D01*
G01X401083Y657480D02*
Y658875D01*
G03X400863Y659071I-197J0*
G01X398434Y662381D02*
G03X400863Y659071I2157J-964D01*
G01X398434Y662381D02*
G03X398115Y662600I-180J80D01*
G01X396385Y660870*
G03X395866Y659618I1253J-1252*
G01Y627756*
G03X396063Y627559I197J-0*
G01X421260*
X424281Y619659D02*
G03X421260Y627559I-3021J3372D01*
G01X424281Y619659D02*
G03X424249Y619622I131J-146D01*
G01X423655Y618736*
G03X423622Y618627I164J-109*
G01Y615233*
G03X423680Y615094I197J0*
G01X428115Y610659*
X429333Y608606D02*
G03X428115Y610659I-4628J-1358D01*
G01X429333Y608606D02*
G03X429521Y608465I188J55D01*
G01X440543*
G03X440544Y608858I0J196*
G01X439173Y610236D02*
G03X440544Y608858I1378J0D01*
G01X439173Y610236D02*
Y625984D01*
X440551Y627362D02*
G03X439173Y625984I0J-1378D01*
G01X440551Y627362D02*
X449213D01*
X450591Y625984D02*
G03X449213Y627362I-1378J0D01*
G01X450591Y625984D02*
Y615479D01*
G03X450951Y615370I196J0*
G01X452756Y616339D02*
G03X450951Y615370I-0J-2166D01*
G01X452756Y616339D02*
X472441D01*
X474606Y614173D02*
G03X472441Y616339I-2165J0D01*
G01X474606Y614173D02*
Y610236D01*
G03X476378Y608465I1772J0*
G01X482308*
G03X482404Y608834I0J196*
G01X481693Y610039D02*
G03X482404Y608834I1378J0D01*
G01X481693Y610039D02*
Y616339D01*
X483071Y617717D02*
G03X481693Y616339I-0J-1378D01*
G01X483071Y617717D02*
X489370D01*
X490748Y616339D02*
G03X489370Y617717I-1378J-0D01*
G01X490748Y616339D02*
Y610039D01*
X490037Y608834D02*
G03X490748Y610039I-667J1205D01*
G01X490037Y608834D02*
G03X490133Y608465I96J-173D01*
G01X492126*
G03X493898Y610236I-0J1771*
G01X492913Y512795D02*
G03X492913I-2362J0D01*
G01X488780Y528543D02*
Y526575D01*
X488477Y525714D02*
G03X488780Y526575I-1075J861D01*
G01X488477Y525714D02*
G03Y525468I154J-123D01*
G01X488780Y524606D02*
G03X488477Y525468I-1378J0D01*
G01X488780Y524606D02*
Y522638D01*
X487402Y521260D02*
G03X488780Y522638I-0J1378D01*
G01X487402Y521260D02*
X485039D01*
X484372Y521432D02*
G03X485039Y521260I667J1206D01*
G01X484372Y521432D02*
G03X484277Y521457I-95J-172D01*
G01X483661*
G03X483465Y521260I0J-197*
G01Y520866*
X482087Y519488D02*
G03X483465Y520866I-0J1378D01*
G01X482087Y519488D02*
X481882D01*
G03X481686Y519306I0J-197*
G01X481547Y518670D02*
G03X481686Y519306I-2216J818D01*
G01X481547Y518670D02*
G03X481554Y518516I184J-68D01*
G01X481693Y517913D02*
G03X481554Y518516I-1378J0D01*
G01X481693Y517913D02*
Y515551D01*
X480315Y514173D02*
G03X481693Y515551I-0J1378D01*
G01X480315Y514173D02*
X478346D01*
X477485Y514475D02*
G03X478346Y514173I861J1076D01*
G01X477485Y514475D02*
G03X477239I-123J-153D01*
G01X476378Y514173D02*
G03X477239Y514475I-0J1378D01*
G01X476378Y514173D02*
X474889D01*
G03X474750Y513837I-0J-197*
G01X478526Y510061*
X479232Y508356D02*
G03X478526Y510061I-2411J-0D01*
G01X479232Y508356D02*
Y494660D01*
G03X479285Y494526I197J0*
G01X475461Y491829D02*
G03X479285Y494526I2098J1084D01*
G01X475461Y491829D02*
G03X475152Y491883I-175J-91D01*
G01X474032Y491297D02*
G03X475152Y491883I-519J2355D01*
G01X474032Y491297D02*
G03X473878Y491104I43J-193D01*
G01Y473228*
X472500Y471850D02*
G03X473878Y473228I0J1378D01*
G01X472500Y471850D02*
X469311D01*
X467933Y473228D02*
G03X469311Y471850I1378J0D01*
G01X467933Y473228D02*
Y491339D01*
X468484Y492441D02*
G03X467933Y491339I827J-1102D01*
G01X468484Y492441D02*
G03X468561Y492623I-118J157D01*
G01X472518Y494640D02*
G03X468561Y492623I-1612J-1727D01*
G01X472518Y494640D02*
G03X472652Y494587I134J143D01*
G01X473044*
G03X473183Y494644I0J196*
G01X474450Y495911*
G03X474508Y496050I-139J139*
G01Y507296*
G03X474450Y507435I-197J0*
G01X473171Y508715*
G03X472835Y508576I-139J-139*
G01Y506693*
X472650Y506004D02*
G03X472835Y506693I-1193J689D01*
G01X472650Y506004D02*
G03Y505807I171J-98D01*
G01X472835Y505118D02*
G03X472650Y505807I-1378J0D01*
G01X472835Y505118D02*
Y502756D01*
X471457Y501378D02*
G03X472835Y502756I-0J1378D01*
G01X471457Y501378D02*
X469488D01*
X468627Y501680D02*
G03X469488Y501378I861J1076D01*
G01X468627Y501680D02*
G03X468381I-123J-153D01*
G01X467520Y501378D02*
G03X468381Y501680I-0J1378D01*
G01X467520Y501378D02*
X465551D01*
X464265Y502261D02*
G03X465551Y501378I1286J495D01*
G01X464265Y502261D02*
G03X464141Y502377I-183J-71D01*
G01X463168Y502970D02*
G03X464141Y502377I1705J1705D01*
G01X463168Y502970D02*
X463090Y503047D01*
G03X462784Y503012I-139J-139*
G01X461614Y502362D02*
G03X462784Y503012I0J1378D01*
G01X461614Y502362D02*
X459646D01*
X458784Y502664D02*
G03X459646Y502362I862J1076D01*
G01X458784Y502664D02*
G03X458538I-123J-153D01*
G01X457677Y502362D02*
G03X458538Y502664I0J1378D01*
G01X457677Y502362D02*
X455709D01*
X453740*
G03X453543Y502165I0J-197*
G01Y496471*
X453100Y494971D02*
G03X453543Y496471I-2313J1500D01*
G01X453100Y494971D02*
G03X453392Y494714I165J-107D01*
G01X456775Y494378D02*
G03X453392Y494714I-1854J-1465D01*
G01X456775Y494378D02*
G03X457084I154J122D01*
G01X461118Y493822D02*
G03X457084Y494378I-2181J-909D01*
G01X461118Y493822D02*
G03X461481I181J76D01*
G01X466006Y492623D02*
G03X461481Y493822I-2345J290D01*
G01X466006Y492623D02*
G03X466083Y492441I195J-25D01*
G01X466634Y491339D02*
G03X466083Y492441I-1378J-0D01*
G01X466634Y491339D02*
Y473228D01*
X465256Y471850D02*
G03X466634Y473228I-0J1378D01*
G01X465256Y471850D02*
X462067D01*
X461223Y472139D02*
G03X462067Y471850I844J1089D01*
G01X461223Y472139D02*
G03X460982I-121J-156D01*
G01X460138Y471850D02*
G03X460982Y472139I-0J1378D01*
G01X460138Y471850D02*
X457736D01*
X457030Y472045D02*
G03X457736Y471850I706J1183D01*
G01X457030Y472045D02*
G03X456828I-101J-169D01*
G01X456122Y471850D02*
G03X456828Y472045I0J1378D01*
G01X456122Y471850D02*
X454300D01*
G03X454106Y471684I0J-196*
G01X450101Y470377D02*
G03X454106Y471684I1671J1670D01*
G01X450101Y470377D02*
X449956Y470522D01*
X449388Y471206D02*
G03X449956Y470522I3978J2727D01*
G01X449388Y471206D02*
G03X449043Y471168I-162J-111D01*
G01X444514Y471701D02*
G03X449043Y471168I2336J346D01*
G01X444514Y471701D02*
G03X444288Y471867I-195J-28D01*
G01X444075Y471850D02*
G03X444288Y471867I-0J1378D01*
G01X444075Y471850D02*
X441673D01*
X440967Y472045D02*
G03X441673Y471850I706J1183D01*
G01X440967Y472045D02*
G03X440765I-101J-169D01*
G01X440059Y471850D02*
G03X440765Y472045I0J1378D01*
G01X440059Y471850D02*
X437657D01*
X436951Y472045D02*
G03X437657Y471850I706J1183D01*
G01X436951Y472045D02*
G03X436750I-101J-169D01*
G01X436043Y471850D02*
G03X436750Y472045I0J1378D01*
G01X436043Y471850D02*
X433642D01*
X432936Y472045D02*
G03X433642Y471850I706J1183D01*
G01X432936Y472045D02*
G03X432734I-101J-169D01*
G01X432028Y471850D02*
G03X432734Y472045I-0J1378D01*
G01X432028Y471850D02*
X429626D01*
X428782Y472139D02*
G03X429626Y471850I844J1089D01*
G01X428782Y472139D02*
G03X428541I-121J-156D01*
G01X427697Y471850D02*
G03X428541Y472139I-0J1378D01*
G01X427697Y471850D02*
X424508D01*
X419094*
X417264*
X415886Y473228D02*
G03X417264Y471850I1378J0D01*
G01X415886Y473228D02*
Y491339D01*
X417156Y492712D02*
G03X415886Y491339I108J-1373D01*
G01X417156Y492712D02*
G03X417246Y492742I-15J197D01*
G01X417398Y492838*
G03X417467Y492912I-105J167*
G01X417891Y493486D02*
G03X417467Y492912I1705J-1705D01*
G01X417891Y493486D02*
X419073Y494668D01*
X420778Y495374D02*
G03X419073Y494668I0J-2411D01*
G01X420778Y495374D02*
X422466D01*
G03X422600Y495427I-0J197*
G01X425485Y495691D02*
G03X422600Y495427I-1272J-1990D01*
G01X425485Y495691D02*
G03X425697I106J166D01*
G01X429211Y492959D02*
G03X425697Y495691I-2242J742D01*
G01X429211Y492959D02*
G03X429427Y492702I187J-62D01*
G01X429626Y492717D02*
G03X429427Y492702I-0J-1378D01*
G01X429626Y492717D02*
X432028D01*
X432734Y492522D02*
G03X432028Y492717I-706J-1183D01*
G01X432734Y492522D02*
G03X432936I101J169D01*
G01X433642Y492717D02*
G03X432936Y492522I-0J-1378D01*
G01X433642Y492717D02*
X435236D01*
G03X435312Y493095I0J196*
G01X438564Y495573D02*
G03X435312Y493095I-2344J-297D01*
G01X438564Y495573D02*
G03X438898Y495459I195J25D01*
G01X440073Y496634*
X441583Y497406D02*
G03X440073Y496634I439J-2721D01*
G01X441583Y497406D02*
G03X441732Y497679I-32J194D01*
G01X443680Y500974D02*
G03X441732Y497679I218J-2352D01*
G01X443680Y500974D02*
G03X443801Y501031I-18J196D01*
G01X444037Y501267*
G03X444094Y501406I-139J139*
G01Y507399*
G03X443818Y507579I-196J0*
G01X442421Y507283D02*
G03X443818Y507579I0J3445D01*
G01X442421Y507283D02*
X439764D01*
G03X439567Y507087I-0J-196*
G01Y506890*
X439265Y506029D02*
G03X439567Y506890I-1076J861D01*
G01X439265Y506029D02*
G03Y505782I153J-123D01*
G01X439567Y504921D02*
G03X439265Y505782I-1378J0D01*
G01X439567Y504921D02*
Y502953D01*
X438466Y501603D02*
G03X439567Y502953I-277J1350D01*
G01X438466Y501603D02*
G03X438315Y501362I40J-193D01*
G01X433730Y501354D02*
G03X438315Y501362I2294J-567D01*
G01X433730Y501354D02*
G03X433505Y501595I-191J48D01*
G01X433268Y501575D02*
G03X433505Y501595I-0J1378D01*
G01X433268Y501575D02*
X430906D01*
X429528Y502953D02*
G03X430906Y501575I1378J-0D01*
G01X429528Y502953D02*
Y504528D01*
G03X429331Y504724I-197J-0*
G01X426969*
X425787*
X421457*
X420669*
X420079*
X419488*
X418110Y506102D02*
G03X419488Y504724I1378J0D01*
G01X418110Y506102D02*
Y507283D01*
Y525787*
X420669Y528346D02*
G03X418110Y525787I0J-2559D01*
G01X420669Y528346D02*
X422244D01*
X424803Y525787D02*
G03X422244Y528346I-2559J0D01*
G01X424803Y525787D02*
Y522739D01*
X424342Y521625D02*
G03X424803Y522739I-1114J1114D01*
G01X424342Y521625D02*
X424312Y521596D01*
G03X424452Y521260I140J-139*
G01X426181*
X427559Y519882D02*
G03X426181Y521260I-1378J-0D01*
G01X427559Y519882D02*
Y517520D01*
X426984Y516400D02*
G03X427559Y517520I-803J1120D01*
G01X426984Y516400D02*
G03Y516080I115J-160D01*
G01X427559Y514961D02*
G03X426984Y516080I-1378J-0D01*
G01X427559Y514961D02*
Y512598D01*
X427093Y511565D02*
G03X427559Y512598I-912J1033D01*
G01X427093Y511565D02*
G03X427223Y511220I130J-148D01*
G01X427312*
G03X427439Y511267I0J197*
G01X430547Y512402D02*
G03X427439Y511267I-0J-4823D01*
G01X430547Y512402D02*
X432087D01*
X432473Y512370D02*
G03X432087Y512402I-386J-2331D01*
G01X432473Y512370D02*
G03X432701Y512536I33J194D01*
G01X433313Y513817D02*
G03X432701Y512536I1726J-1612D01*
G01X433313Y513817D02*
G03X433366Y513952I-144J135D01*
G01Y514261*
X434072Y515966D02*
G03X433366Y514261I1706J-1705D01*
G01X434072Y515966D02*
X436870Y518764D01*
G03X436873Y519039I-139J139*
G01X436335Y519942D02*
G03X436873Y519039I2248J727D01*
G01X436335Y519942D02*
G03X436148Y520079I-187J-60D01*
G01X434449*
X433588Y520381D02*
G03X434449Y520079I861J1076D01*
G01X433588Y520381D02*
G03X433342I-123J-154D01*
G01X432480Y520079D02*
G03X433342Y520381I0J1378D01*
G01X432480Y520079D02*
X430512D01*
X429134Y521457D02*
G03X430512Y520079I1378J-0D01*
G01X429134Y521457D02*
Y523819D01*
X429239Y524347D02*
G03X429134Y523819I1273J-528D01*
G01X429239Y524347D02*
G03X429245Y524482I-182J75D01*
G01X433831Y525556D02*
G03X429245Y524482I-2335J-359D01*
G01X433831Y525556D02*
G03X434187Y525474I194J30D01*
G01X434466Y525809D02*
G03X434187Y525474I1705J-1705D01*
G01X434466Y525809D02*
X437739Y529082D01*
G03X437797Y529214I-139J139*
G01X441884Y530746D02*
G03X437797Y529214I-1727J-1612D01*
G01X441884Y530746D02*
G03X442224Y530881I144J135D01*
G01Y532111*
G03X442171Y532246I-196J0*
G01X441537Y533781D02*
G03X442171Y532246I2361J77D01*
G01X441537Y533781D02*
G03X441485Y533908I-197J-7D01*
G01X441233Y534233D02*
G03X441485Y533908I2025J1309D01*
G01X441233Y534233D02*
G03X441126Y534314I-166J-107D01*
G01X440674Y534554D02*
G03X441126Y534314I861J1076D01*
G01X440674Y534554D02*
G03X440428I-123J-153D01*
G01X439567Y534252D02*
G03X440428Y534554I-0J1378D01*
G01X439567Y534252D02*
X437598D01*
X436687Y534596D02*
G03X437598Y534252I911J1034D01*
G01X436687Y534596D02*
G03X436557Y534646I-130J-147D01*
G01X435236*
G03X435161Y534631I0J-197*
G01Y538992D02*
G03Y534631I-909J-2181D01*
G01Y538992D02*
G03X435236Y538976I75J181D01*
G01X436557*
G03X436687Y539321I-0J197*
G01X436220Y540354D02*
G03X436687Y539321I1378J0D01*
G01X436220Y540354D02*
Y542717D01*
X436551Y543612D02*
G03X436220Y542717I1047J-895D01*
G01X436551Y543612D02*
G03X436584Y543813I-150J128D01*
G01X440392Y546411D02*
G03X436584Y543813I-1612J-1726D01*
G01X440392Y546411D02*
G03X440526Y546358I134J144D01*
G01X441033*
X442738Y545652D02*
G03X441033Y546358I-1705J-1705D01*
G01X442738Y545652D02*
X443487Y544903D01*
X444038Y544049D02*
G03X443487Y544903I-2257J-851D01*
G01X444038Y544049D02*
G03X444132Y543943I184J69D01*
G01X444866Y542923D02*
G03X444132Y543943I-1362J-206D01*
G01X444866Y542923D02*
G03X444950Y542790I195J29D01*
G01X445057Y542713D02*
G03X444950Y542790I-1465J-1916D01*
G01X445057Y542713D02*
G03X445361Y542801I119J156D01*
G01X445563Y543165D02*
G03X445361Y542801I1091J-842D01*
G01X445563Y543165D02*
G03X445594Y543347I-156J120D01*
G01X445692Y545090D02*
G03X445594Y543347I2143J-996D01*
G01X445692Y545090D02*
G03X445656Y545309I-178J83D01*
G01X445276Y546260D02*
G03X445656Y545309I1378J-0D01*
G01X445276Y546260D02*
Y548228D01*
X445578Y549090D02*
G03X445276Y548228I1076J-862D01*
G01X445578Y549090D02*
G03Y549336I-154J123D01*
G01X445276Y550197D02*
G03X445578Y549336I1378J-0D01*
G01X445276Y550197D02*
Y552165D01*
X446447Y553528D02*
G03X445276Y552165I207J-1363D01*
G01X446447Y553528D02*
G03X446580Y553612I-29J194D01*
G01X446868Y553958D02*
G03X446580Y553612I1705J-1705D01*
G01X446868Y553958D02*
X449388Y556479D01*
X451093Y557185D02*
G03X449388Y556479I0J-2411D01*
G01X451093Y557185D02*
X458489D01*
G03X458624Y557238I0J197*
G01X462535Y556054D02*
G03X458624Y557238I-2299J-542D01*
G01X462535Y556054D02*
G03X462717Y555903I192J45D01*
G01X464958Y553662D02*
G03X462717Y555903I-2360J-119D01*
G01X464958Y553662D02*
G03X465109Y553480I196J10D01*
G01X462954Y549455D02*
G03X465109Y553480I1613J1726D01*
G01X462954Y549455D02*
G03X462820Y549508I-134J-144D01*
G01X460160*
G03X459998Y549422I0J-197*
G01X459934Y549336D02*
G03X459998Y549422I-1076J861D01*
G01X459934Y549336D02*
G03Y549090I154J-123D01*
G01X460236Y548228D02*
G03X459934Y549090I-1378J0D01*
G01X460236Y548228D02*
Y546260D01*
X459855Y545309D02*
G03X460236Y546260I-997J951D01*
G01X459855Y545309D02*
G03X459819Y545090I143J-136D01*
G01X459918Y543347D02*
G03X459819Y545090I-2241J747D01*
G01X459918Y543347D02*
G03X459949Y543165I187J-62D01*
G01X460236Y542323D02*
G03X459949Y543165I-1378J-0D01*
G01X460236Y542323D02*
Y540354D01*
X460192Y540006D02*
G03X460236Y540354I-1334J348D01*
G01X460192Y540006D02*
G03X460371Y539760I190J-50D01*
G01X462330Y536309D02*
G03X460371Y539760I-2094J1093D01*
G01X462330Y536309D02*
G03X462517Y536021I175J-91D01*
G01X462598Y536024D02*
G03X462517Y536021I0J-1378D01*
G01X462598Y536024D02*
X464567D01*
X465428Y535721D02*
G03X464567Y536024I-861J-1075D01*
G01X465428Y535721D02*
G03X465674I123J154D01*
G01X466535Y536024D02*
G03X465674Y535721I0J-1378D01*
G01X466535Y536024D02*
X468504D01*
X469882Y534646D02*
G03X468504Y536024I-1378J-0D01*
G01X469882Y534646D02*
Y532283D01*
X469794Y531799D02*
G03X469882Y532283I-1290J484D01*
G01X469794Y531799D02*
G03X470065Y531553I184J-69D01*
G01X470669Y531693D02*
G03X470065Y531553I0J-1378D01*
G01X470669Y531693D02*
X475197D01*
X476230Y531226D02*
G03X475197Y531693I-1033J-911D01*
G01X476230Y531226D02*
G03X476526I148J131D01*
G01X477559Y531693D02*
G03X476526Y531226I0J-1378D01*
G01X477559Y531693D02*
X482087D01*
X483465Y530315D02*
G03X482087Y531693I-1378J-0D01*
G01X483465Y530315D02*
Y529724D01*
G03X483661Y529528I196J0*
G01X483998*
G03X484128Y529577I-0J196*
G01X485039Y529921D02*
G03X484128Y529577I0J-1378D01*
G01X485039Y529921D02*
X487402D01*
X488780Y528543D02*
G03X487402Y529921I-1378J0D01*
G01X492913Y532480D02*
G03X492913I-2362J0D01*
G01X444962Y420867D02*
G03X443065Y424738I-80J2361D01*
G01X444962Y420867D02*
G03X444830Y420810I7J-196D01*
G01X444313Y420293*
X442608Y419587D02*
G03X444313Y420293I-0J2411D01*
G01X442608Y419587D02*
X431408D01*
X429703Y420293D02*
G03X431408Y419587I1705J1705D01*
G01X429703Y420293D02*
X429186Y420810D01*
G03X429053Y420867I-139J-139*
G01X430497Y425158D02*
G03X429053Y420867I-1363J-1930D01*
G01X430497Y425158D02*
G03X430724I113J161D01*
G01X433699Y424955D02*
G03X430724Y425158I-1612J-1727D01*
G01X433699Y424955D02*
G03X433833Y424902I134J143D01*
G01X439198*
G03X439332Y424955I0J196*
G01X442762Y424738D02*
G03X439332Y424955I-1817J-1510D01*
G01X442762Y424738D02*
G03X443065I151J126D01*
G01Y431561D02*
G03X444962Y435432I1817J1510D01*
G01X443065Y431561D02*
G03X442762I-152J-125D01*
G01X438804Y432071D02*
G03X442762Y431561I2141J1000D01*
G01X438804Y432071D02*
G03X438626Y432185I-178J-83D01*
G01X432780*
G03X432590Y432041I-0J-197*
G01X429043Y430687D02*
G03X432590Y432041I1272J1990D01*
G01X429043Y430687D02*
G03X428831I-106J-166D01*
G01X427479Y435038D02*
G03X428831Y430687I80J-2361D01*
G01X427479Y435038D02*
G03X427611Y435096I-7J197D01*
G01X428522Y436006*
X430227Y436713D02*
G03X428522Y436006I0J-2412D01*
G01X430227Y436713D02*
X432368D01*
G03X432422Y437099I-0J196*
G01X433720D02*
G03X432422I-649J2271D01*
G01X433720D02*
G03X433774Y436713I54J-190D01*
G01X442608*
X444313Y436006D02*
G03X442608Y436713I-1705J-1705D01*
G01X444313Y436006D02*
X444830Y435489D01*
G03X444962Y435432I139J139*
G01X491396Y575550D02*
G03X490006Y580054I-845J2206D01*
G01X491396Y575550D02*
G03X491343Y575520I71J-184D01*
G01X489167Y574627D02*
G03X491343Y575520I-415J4113D01*
G01X489167Y574627D02*
G03X489086Y574601I20J-196D01*
G01X488386Y574409D02*
G03X489086Y574601I-0J1378D01*
G01X488386Y574409D02*
X486024D01*
X484646Y575787D02*
G03X486024Y574409I1378J0D01*
G01X484646Y575787D02*
Y577756D01*
X484948Y578617D02*
G03X484646Y577756I1076J-861D01*
G01X484948Y578617D02*
G03Y578863I-154J123D01*
G01X484646Y579724D02*
G03X484948Y578863I1378J0D01*
G01X484646Y579724D02*
Y581693D01*
X486024Y583071D02*
G03X484646Y581693I-0J-1378D01*
G01X486024Y583071D02*
X488386D01*
X489764Y581693D02*
G03X488386Y583071I-1378J-0D01*
G01X489764Y581693D02*
Y580246D01*
G03X490006Y580054I197J-0*
G01X492520Y602362D02*
G03X492520I-2363J0D01*
G01X486614Y587598D02*
G03X486614I-2362J0D01*
G01X484893Y618703D02*
G03X485012Y627395I1327J4328D01*
G01X484893Y618703D02*
G03X484844Y618711I-58J-188D01*
G01X477059Y622131D02*
G03X484844Y618711I8282J8282D01*
G01X477059Y622131D02*
X473368Y625823D01*
G03X473032Y625684I-140J-139*
G01Y619882*
X471654Y618504D02*
G03X473032Y619882I-0J1378D01*
G01X471654Y618504D02*
X465354D01*
X463976Y619882D02*
G03X465354Y618504I1378J-0D01*
G01X463976Y619882D02*
Y626181D01*
X465354Y627559D02*
G03X463976Y626181I0J-1378D01*
G01X465354Y627559D02*
X471122D01*
G03X471242Y627912I-0J197*
X469791Y628516I-1859J-2420*
X469712Y628511I-26J-195*
G01X467211Y628535D02*
G03X469712Y628511I1293J4339D01*
G01X467211Y628535D02*
G03X467154Y628543I-57J-189D01*
G01X422609*
G03X422553Y628535I0J-197*
G01X419967D02*
G03X422553I1293J4339D01*
G01X419967D02*
G03X419910Y628543I-57J-189D01*
G01X404893*
G03X404837Y628535I-0J-197*
G01X402250D02*
G03X404837I1293J4339D01*
G01X402250D02*
G03X402194Y628543I-56J-189D01*
G01X401575*
X398228Y631890D02*
G03X401575Y628543I3347J-0D01*
G01X398228Y631890D02*
Y634843D01*
X400120Y637856D02*
G03X398228Y634843I1455J-3013D01*
G01X400120Y637856D02*
G03X400079Y638225I-85J178D01*
G01X399016Y639567D02*
G03X400079Y638225I1378J-0D01*
G01X399016Y639567D02*
Y645866D01*
X400394Y647244D02*
G03X399016Y645866I-0J-1378D01*
G01X400394Y647244D02*
X406693D01*
X408071Y645866D02*
G03X406693Y647244I-1378J0D01*
G01X408071Y645866D02*
Y639567D01*
X407604Y638533D02*
G03X408071Y639567I-911J1034D01*
G01X407604Y638533D02*
G03X407735Y638189I131J-147D01*
G01X417069*
G03X417199Y638533I-0J197*
G01X416732Y639567D02*
G03X417199Y638533I1378J-0D01*
G01X416732Y639567D02*
Y645866D01*
X418110Y647244D02*
G03X416732Y645866I0J-1378D01*
G01X418110Y647244D02*
X424409D01*
X425787Y645866D02*
G03X424409Y647244I-1378J0D01*
G01X425787Y645866D02*
Y639567D01*
X425321Y638533D02*
G03X425787Y639567I-912J1034D01*
G01X425321Y638533D02*
G03X425451Y638189I130J-147D01*
G01X438583*
G03X439173Y638780I-0J591*
G01Y648714*
G03X439172Y648732I-197J0*
G01Y649441D02*
G03Y648732I4061J-355D01*
G01Y649441D02*
G03X439173Y649458I-196J17D01*
G01Y649606*
X439311Y650208D02*
G03X439173Y649606I1240J-602D01*
G01X439311Y650208D02*
G03X439323Y650238I-177J86D01*
G01X440042Y651622D02*
G03X439323Y650238I3191J-2536D01*
G01X440161Y651756D02*
G03X440042Y651622I1114J-1114D01*
G01X440161Y651756D02*
X441953Y653547D01*
G03X442126Y653965I-418J418*
G01Y659646*
X444685Y662205D02*
G03X442126Y659646I0J-2559D01*
G01X444685Y662205D02*
X448031D01*
X450591Y659646D02*
G03X448031Y662205I-2560J-0D01*
G01X450591Y659646D02*
Y649606D01*
Y637795*
G03X451181Y637205I590J0*
G01X467154*
G03X467211Y637213I0J197*
G01X469813Y637208D02*
G03X467211Y637213I-1309J-4334D01*
G01X469813Y637208D02*
G03X469859Y637200I56J189D01*
G01X470026Y637187D02*
G03X469859Y637200I-341J-3329D01*
G01X470026Y637187D02*
G03X470035I20J196D01*
G01X477665Y633774D02*
G03X470035Y637187I-8282J-8282D01*
G01X477665Y633774D02*
X483184Y628256D01*
G03X484934Y627390I2157J2157*
X485012Y627395I26J195*
G01X490748Y632874D02*
G03X490748I-4528J0D01*
G01Y642717D02*
G03X490748I-4528J0D01*
G01X473032D02*
G03X473032I-4528J0D01*
G01X422598Y585077D02*
X436319D01*
X422637Y584723D02*
X436319D01*
X422503Y585432D02*
X436145D01*
X422622Y584369D02*
X436136D01*
X422552Y584014D02*
X435782D01*
X422422Y583660D02*
X435428D01*
X422221Y583306D02*
X435073D01*
X421922Y582951D02*
X434776D01*
X421452Y582597D02*
X434574D01*
X417171Y582243D02*
X434442D01*
X417525Y581888D02*
X434370D01*
X417879Y581534D02*
X434350D01*
X433635Y581180D02*
X434333D01*
X429091Y592873D02*
X432087D01*
X429135Y592518D02*
X432087D01*
X429396Y592164D02*
X432087D01*
X429520Y591810D02*
X432087D01*
X429547Y591455D02*
X432070D01*
X429547Y591101D02*
X430723D01*
X422518Y585786D02*
X430575D01*
X429547Y590747D02*
X430364D01*
X429045Y586140D02*
X430292D01*
X429547Y590392D02*
X430187D01*
X429350Y586495D02*
X430155D01*
X429547Y590038D02*
X430120D01*
X429547Y589684D02*
X430118D01*
X429547Y589329D02*
X430118D01*
X429547Y588975D02*
X430118D01*
X429547Y588621D02*
X430118D01*
X429547Y588266D02*
X430118D01*
X429547Y587912D02*
X430118D01*
X429547Y587558D02*
X430118D01*
X429547Y587203D02*
X430118D01*
X429501Y586849D02*
X430118D01*
X424045Y586140D02*
X424538D01*
X416816Y582597D02*
X419099D01*
X416462Y582951D02*
X418629D01*
X416108Y583306D02*
X418330D01*
X415753Y583660D02*
X418129D01*
X407097Y585432D02*
X418048D01*
X407375Y585786D02*
X418033D01*
X415399Y584014D02*
X417999D01*
X413813Y585077D02*
X417953D01*
X415045Y584369D02*
X417930D01*
X414629Y584723D02*
X417915D01*
X412654Y600314D02*
X414739D01*
X414045Y586140D02*
X414538D01*
X412175Y600668D02*
X414111D01*
X412878Y599959D02*
X413793D01*
X395866Y601022D02*
X413565D01*
X412978Y599605D02*
X413435D01*
X395866Y601377D02*
X413323D01*
X396998Y605983D02*
X413314D01*
X396432Y605629D02*
X413287D01*
X395866Y601731D02*
X413210D01*
X396138Y605274D02*
X413198D01*
X395967Y604920D02*
X413189D01*
X395882Y604566D02*
X413189D01*
X395866Y604211D02*
X413189D01*
X395866Y603857D02*
X413189D01*
X395866Y603503D02*
X413189D01*
X395866Y603148D02*
X413189D01*
X395866Y602794D02*
X413189D01*
X395866Y602440D02*
X413189D01*
X395866Y602085D02*
X413189D01*
X407667Y586140D02*
X409538D01*
X407972Y586495D02*
X409232D01*
X408123Y586849D02*
X409082D01*
X403051Y591810D02*
X409063D01*
X403051Y591455D02*
X409035D01*
X407565Y591101D02*
X409035D01*
X407923Y590747D02*
X409035D01*
X408100Y590392D02*
X409035D01*
X408167Y590038D02*
X409035D01*
X408169Y589684D02*
X409035D01*
X408169Y589329D02*
X409035D01*
X408169Y588975D02*
X409035D01*
X408169Y588621D02*
X409035D01*
X408169Y588266D02*
X409035D01*
X408169Y587912D02*
X409035D01*
X408169Y587558D02*
X409035D01*
X408169Y587203D02*
X409035D01*
X402333Y600668D02*
X408691D01*
X402811Y600314D02*
X408212D01*
X403035Y599959D02*
X407988D01*
X403113Y597125D02*
X407911D01*
X403136Y599605D02*
X407888D01*
X403150Y599251D02*
X407874D01*
X403150Y598896D02*
X407874D01*
X403150Y598542D02*
X407874D01*
X403150Y598188D02*
X407874D01*
X403150Y597833D02*
X407874D01*
X403150Y597479D02*
X407874D01*
X403375Y592164D02*
X407648D01*
X403563Y596770D02*
X407461D01*
X404257Y592518D02*
X406767D01*
X404318Y596416D02*
X406706D01*
X404676Y592873D02*
X406347D01*
X404715Y596062D02*
X406309D01*
X404950Y593227D02*
X406073D01*
X404976Y595707D02*
X406048D01*
X405134Y593581D02*
X405890D01*
X405151Y595353D02*
X405873D01*
X405249Y593936D02*
X405774D01*
X405259Y594999D02*
X405764D01*
X405307Y594290D02*
X405717D01*
X405310Y594644D02*
X405714D01*
X403051Y591101D02*
X404640D01*
X403051Y590747D02*
X404282D01*
X403051Y590392D02*
X404105D01*
X403051Y590038D02*
X404038D01*
X403051Y589684D02*
X404035D01*
X403051Y589329D02*
X404035D01*
X403051Y588975D02*
X404035D01*
X403051Y588621D02*
X404035D01*
X403051Y588266D02*
X404035D01*
X403051Y587912D02*
X404035D01*
X403051Y587558D02*
X404035D01*
X403078Y587203D02*
X404008D01*
X395866Y569133D02*
X401716D01*
X395866Y569487D02*
X401622D01*
X395866Y568778D02*
X401289D01*
X395866Y569841D02*
X399473D01*
X395866Y573739D02*
X399344D01*
X395866Y577991D02*
X399311D01*
X395866Y577636D02*
X399304D01*
X395866Y578345D02*
X399303D01*
X395866Y582951D02*
X399221D01*
X395866Y574093D02*
X399213D01*
X395866Y570196D02*
X399190D01*
X395866Y573385D02*
X399130D01*
X395866Y577282D02*
X399114D01*
X395866Y578699D02*
X399070D01*
X395866Y574448D02*
X399062D01*
X395866Y570550D02*
X399053D01*
X395866Y573030D02*
X399030D01*
X395866Y576928D02*
X399025D01*
X395866Y576573D02*
X399016D01*
X395866Y576219D02*
X399016D01*
X395866Y575865D02*
X399016D01*
X395866Y575510D02*
X399016D01*
X395866Y575156D02*
X399016D01*
X395866Y574802D02*
X399016D01*
X395866Y572676D02*
X399016D01*
X395866Y572322D02*
X399016D01*
X395866Y571967D02*
X399016D01*
X395866Y571613D02*
X399016D01*
X395866Y571259D02*
X399016D01*
X395866Y570904D02*
X399016D01*
X395866Y582597D02*
X399015D01*
X395866Y583306D02*
X398973D01*
X395866Y579054D02*
X398945D01*
X395866Y582243D02*
X398926D01*
X395866Y591810D02*
X398917D01*
X395866Y591455D02*
X398917D01*
X395866Y591101D02*
X398917D01*
X395866Y590747D02*
X398917D01*
X395866Y590392D02*
X398917D01*
X395866Y590038D02*
X398917D01*
X395866Y589684D02*
X398917D01*
X395866Y589329D02*
X398917D01*
X395866Y588975D02*
X398917D01*
X395866Y588621D02*
X398917D01*
X395866Y588266D02*
X398917D01*
X395866Y587912D02*
X398917D01*
X395866Y581888D02*
X398917D01*
X395866Y581534D02*
X398917D01*
X395866Y581180D02*
X398917D01*
X395866Y580825D02*
X398917D01*
X395866Y580471D02*
X398917D01*
X395866Y580117D02*
X398917D01*
X395866Y579762D02*
X398917D01*
X395866Y579408D02*
X398917D01*
X395866Y592164D02*
X398902D01*
X395866Y587558D02*
X398895D01*
X395866Y600668D02*
X398848D01*
X395866Y592518D02*
X398446D01*
X395866Y583660D02*
X398439D01*
X395866Y587203D02*
X398436D01*
X395866Y568424D02*
X398411D01*
X395866Y596416D02*
X398373D01*
X395866Y600314D02*
X398370D01*
X395866Y596770D02*
X398206D01*
X395866Y592873D02*
X398185D01*
X395866Y596062D02*
X398164D01*
X395866Y599959D02*
X398146D01*
X395866Y584014D02*
X398111D01*
X395866Y586849D02*
X398109D01*
X395866Y597125D02*
X398068D01*
X395866Y593227D02*
X398060D01*
X395866Y595707D02*
X398052D01*
X395866Y599605D02*
X398045D01*
X395866Y599251D02*
X398031D01*
X395866Y598896D02*
X398031D01*
X395866Y598542D02*
X398031D01*
X395866Y598188D02*
X398031D01*
X395866Y597833D02*
X398031D01*
X395866Y597479D02*
X398031D01*
X395866Y595353D02*
X398031D01*
X395866Y594999D02*
X398031D01*
X395866Y594644D02*
X398031D01*
X395866Y594290D02*
X398031D01*
X395866Y593936D02*
X398031D01*
X395866Y593581D02*
X398031D01*
X395866Y584369D02*
X397891D01*
X395866Y586495D02*
X397890D01*
X395866Y568070D02*
X397810D01*
X395866Y584723D02*
X397747D01*
X395866Y586140D02*
X397746D01*
X395866Y585077D02*
X397665D01*
X395866Y585786D02*
X397664D01*
X395866Y585432D02*
X397638D01*
X395866Y567715D02*
X397436D01*
X395866Y567361D02*
X397081D01*
X395866Y567007D02*
X396727D01*
X395866Y566652D02*
X396373D01*
X412941Y574448D02*
X430339D01*
X412604Y574802D02*
X430252D01*
X412250Y575156D02*
X430139D01*
X409067Y577636D02*
X430118D01*
X410041Y577282D02*
X430118D01*
X410478Y576928D02*
X430118D01*
X410832Y576573D02*
X430118D01*
X411187Y576219D02*
X430118D01*
X411541Y575865D02*
X430118D01*
X411895Y575510D02*
X430118D01*
X427533Y574093D02*
X429995D01*
X428210Y573739D02*
X429640D01*
X417533Y574093D02*
X426050D01*
X418210Y573739D02*
X425372D01*
X418588Y573385D02*
X424995D01*
X418838Y573030D02*
X424745D01*
X419005Y572676D02*
X424578D01*
X419106Y572322D02*
X424477D01*
X423502Y571613D02*
X424441D01*
X419151Y571967D02*
X424432D01*
X424135Y571259D02*
X424410D01*
X419142Y571613D02*
X420081D01*
X419173Y571259D02*
X419448D01*
X407198Y577991D02*
X417026D01*
X407754Y578345D02*
X416367D01*
X413181Y574093D02*
X416050D01*
X408016Y578699D02*
X415981D01*
X408141Y579054D02*
X415627D01*
X413342Y573739D02*
X415372D01*
X409852Y579408D02*
X415273D01*
X413440Y573385D02*
X414995D01*
X410613Y579762D02*
X414918D01*
X413482Y573030D02*
X414745D01*
X413484Y572676D02*
X414578D01*
X411012Y580117D02*
X414564D01*
X413484Y572322D02*
X414477D01*
X413556Y571613D02*
X414441D01*
X413484Y571967D02*
X414432D01*
X414135Y571259D02*
X414410D01*
X411274Y580471D02*
X414210D01*
X411449Y580825D02*
X413855D01*
X411558Y581180D02*
X413501D01*
X411609Y581534D02*
X413147D01*
X408207Y579408D02*
X408652D01*
X407283Y533699D02*
X408071D01*
X407283Y533345D02*
X408071D01*
X407283Y532991D02*
X408071D01*
X407283Y532636D02*
X408071D01*
X407269Y532282D02*
X408071D01*
X407168Y531928D02*
X408071D01*
X406943Y531573D02*
X408071D01*
X406461Y531219D02*
X408071D01*
X402854Y530865D02*
X408071D01*
X402854Y530510D02*
X408071D01*
X402854Y530156D02*
X408071D01*
X402854Y529802D02*
X408071D01*
X402854Y529448D02*
X408071D01*
X402854Y529093D02*
X408071D01*
X402854Y528739D02*
X408071D01*
X402854Y528385D02*
X408071D01*
X402854Y528030D02*
X408071D01*
X402854Y527676D02*
X408071D01*
X402854Y527322D02*
X408071D01*
X402854Y526967D02*
X408071D01*
X402854Y526613D02*
X408071D01*
X402854Y526259D02*
X408071D01*
X402854Y525904D02*
X408071D01*
X402854Y525550D02*
X408071D01*
X402854Y525196D02*
X408071D01*
X402854Y524841D02*
X408071D01*
X402854Y524487D02*
X408071D01*
X402854Y524133D02*
X408071D01*
X402854Y523778D02*
X408071D01*
X402854Y523424D02*
X408071D01*
X402854Y523070D02*
X408071D01*
X402854Y522715D02*
X408071D01*
X402854Y522361D02*
X408071D01*
X402854Y522007D02*
X408071D01*
X402854Y521652D02*
X408071D01*
X402854Y521298D02*
X408071D01*
X402854Y520944D02*
X408071D01*
X402854Y520589D02*
X408071D01*
X402854Y520235D02*
X408071D01*
X402854Y519881D02*
X408071D01*
X402854Y519526D02*
X408071D01*
X402854Y519172D02*
X408071D01*
X402854Y518818D02*
X408071D01*
X402854Y518463D02*
X408071D01*
X402854Y518109D02*
X408071D01*
X402854Y517755D02*
X408071D01*
X402854Y517400D02*
X408071D01*
X402854Y517046D02*
X408071D01*
X402854Y516692D02*
X408071D01*
X402854Y516337D02*
X408071D01*
X402854Y515983D02*
X408071D01*
X402854Y515629D02*
X408071D01*
X402854Y515274D02*
X408071D01*
X402854Y514920D02*
X408071D01*
X402854Y514566D02*
X408071D01*
X402854Y514211D02*
X408071D01*
X402854Y513857D02*
X408071D01*
X402854Y513503D02*
X408071D01*
X406544Y513148D02*
X408071D01*
X407076Y512794D02*
X408071D01*
X407403Y512440D02*
X408071D01*
X407622Y512085D02*
X408071D01*
X407458Y534054D02*
X407897D01*
X402854Y513148D02*
X404479D01*
X402854Y512794D02*
X403948D01*
X402854Y512440D02*
X403621D01*
X402854Y512085D02*
X403402D01*
X402854Y511731D02*
X403258D01*
X405042Y474526D02*
X405807D01*
X404688Y474172D02*
X405807D01*
X404334Y473818D02*
X405807D01*
X403979Y473463D02*
X405807D01*
X403625Y473109D02*
X405807D01*
X403271Y472755D02*
X405807D01*
X403047Y472400D02*
X405807D01*
X402977Y472046D02*
X405807D01*
X402907Y471692D02*
X405807D01*
X402837Y471337D02*
X405807D01*
X402767Y470983D02*
X405807D01*
X402753Y470629D02*
X405807D01*
X402751Y470274D02*
X405807D01*
X402719Y469920D02*
X405807D01*
X402655Y469566D02*
X405807D01*
X402559Y469211D02*
X405807D01*
X402427Y468857D02*
X405807D01*
X402256Y468503D02*
X405807D01*
X402041Y468148D02*
X405807D01*
X401771Y467794D02*
X405807D01*
X401431Y467440D02*
X405807D01*
X400992Y467085D02*
X405807D01*
X400380Y466731D02*
X405807D01*
X400310Y466377D02*
X405807D01*
X400939Y466022D02*
X405807D01*
X401391Y465668D02*
X405807D01*
X401739Y465314D02*
X405807D01*
X402015Y464959D02*
X405807D01*
X402236Y464605D02*
X405807D01*
X402411Y464251D02*
X405807D01*
X402547Y463896D02*
X405807D01*
X402647Y463542D02*
X405807D01*
X402714Y463188D02*
X405807D01*
X402749Y462833D02*
X405807D01*
X402754Y462479D02*
X405807D01*
X402729Y462125D02*
X405807D01*
X402672Y461770D02*
X405807D01*
X402583Y461416D02*
X405807D01*
X402460Y461062D02*
X405807D01*
X402298Y460707D02*
X405807D01*
X402093Y460353D02*
X405807D01*
X401836Y459999D02*
X405807D01*
X401514Y459644D02*
X405807D01*
X401101Y459290D02*
X405807D01*
X400539Y458936D02*
X405807D01*
X400246Y458581D02*
X405807D01*
X400818Y458227D02*
X405807D01*
X401301Y457873D02*
X405807D01*
X401669Y457518D02*
X405807D01*
X401959Y457164D02*
X405807D01*
X402191Y456810D02*
X405807D01*
X402376Y456455D02*
X405807D01*
X402520Y456101D02*
X405807D01*
X402628Y455747D02*
X405807D01*
X402702Y455392D02*
X405807D01*
X402744Y455038D02*
X405807D01*
X402756Y454684D02*
X405807D01*
X402737Y454329D02*
X405807D01*
X402687Y453975D02*
X405807D01*
X402606Y453621D02*
X405807D01*
X402490Y453266D02*
X405807D01*
X402337Y452912D02*
X405807D01*
X402143Y452558D02*
X405807D01*
X401898Y452203D02*
X405807D01*
X401592Y451849D02*
X405807D01*
X401202Y451495D02*
X405807D01*
X400682Y451140D02*
X405807D01*
X399878Y450786D02*
X405807D01*
X395866Y450432D02*
X405807D01*
X395866Y450077D02*
X405807D01*
X395866Y449723D02*
X405807D01*
X395866Y449369D02*
X405807D01*
X395866Y449014D02*
X405807D01*
X395866Y448660D02*
X405807D01*
X395866Y448306D02*
X405807D01*
X395866Y447951D02*
X405807D01*
X395866Y447597D02*
X405807D01*
X395866Y447243D02*
X405807D01*
X405397Y474881D02*
X405796D01*
X395866Y446888D02*
X405644D01*
X395866Y446534D02*
X405290D01*
X395866Y446180D02*
X404936D01*
X395866Y445825D02*
X404581D01*
X395866Y445471D02*
X404227D01*
X395866Y445117D02*
X403873D01*
X395866Y444762D02*
X403518D01*
X395866Y444408D02*
X403164D01*
X395866Y444054D02*
X402810D01*
X395866Y443699D02*
X402455D01*
X395866Y443345D02*
X402101D01*
X395866Y442991D02*
X401747D01*
X395866Y442636D02*
X401392D01*
X395866Y442282D02*
X401038D01*
X395866Y441928D02*
X400684D01*
X395866Y441573D02*
X400329D01*
X395866Y441219D02*
X399975D01*
X395866Y440865D02*
X399621D01*
X395866Y440510D02*
X397696D01*
X395866Y450786D02*
X397366D01*
X395866Y440156D02*
X396929D01*
X395866Y451140D02*
X396562D01*
X395866Y439802D02*
X396472D01*
X491628Y604211D02*
X493898D01*
X491987Y603857D02*
X493898D01*
X492226Y603503D02*
X493898D01*
X492385Y603148D02*
X493898D01*
X492480Y602794D02*
X493898D01*
X492518Y602440D02*
X493898D01*
X492503Y602085D02*
X493898D01*
X492434Y601731D02*
X493898D01*
X492304Y601377D02*
X493898D01*
X492103Y601022D02*
X493898D01*
X491804Y600668D02*
X493898D01*
X491334Y600314D02*
X493898D01*
X435362Y599959D02*
X493898D01*
X474273Y599605D02*
X493898D01*
X475137Y599251D02*
X493898D01*
X475418Y598896D02*
X493898D01*
X475554Y598542D02*
X493898D01*
X475591Y598188D02*
X493898D01*
X475591Y597833D02*
X493898D01*
X475591Y597479D02*
X493898D01*
X475591Y597125D02*
X493898D01*
X475591Y596770D02*
X493898D01*
X475591Y596416D02*
X493898D01*
X475591Y596062D02*
X493898D01*
X475591Y595707D02*
X493898D01*
X475591Y595353D02*
X493898D01*
X475591Y594999D02*
X493898D01*
X475590Y594644D02*
X493898D01*
X475533Y594290D02*
X493898D01*
X475369Y593936D02*
X493898D01*
X475038Y593581D02*
X493898D01*
X474315Y593227D02*
X493898D01*
X474081Y592873D02*
X493898D01*
X473825Y592518D02*
X493898D01*
X473819Y592164D02*
X493898D01*
X480286Y591810D02*
X493898D01*
X480764Y591455D02*
X493898D01*
X480988Y591101D02*
X493898D01*
X481088Y590747D02*
X493898D01*
X481102Y590392D02*
X493898D01*
X481102Y590038D02*
X493898D01*
X485362Y589684D02*
X493898D01*
X485859Y589329D02*
X493898D01*
X486172Y588975D02*
X493898D01*
X486382Y588621D02*
X493898D01*
X486518Y588266D02*
X493898D01*
X486593Y587912D02*
X493898D01*
X486614Y587558D02*
X493898D01*
X486581Y587203D02*
X493898D01*
X486492Y586849D02*
X493898D01*
X486341Y586495D02*
X493898D01*
X486111Y586140D02*
X493898D01*
X485767Y585786D02*
X493898D01*
X485193Y585432D02*
X493898D01*
X481102Y585077D02*
X493898D01*
X481102Y584723D02*
X493898D01*
X481102Y584369D02*
X493898D01*
X481102Y584014D02*
X493898D01*
X481102Y583660D02*
X493898D01*
X481102Y583306D02*
X493898D01*
X488947Y582951D02*
X493898D01*
X489426Y582597D02*
X493898D01*
X489649Y582243D02*
X493898D01*
X489750Y581888D02*
X493898D01*
X489764Y581534D02*
X493898D01*
X489764Y581180D02*
X493898D01*
X489764Y580825D02*
X493898D01*
X489764Y580471D02*
X493898D01*
X490631Y580117D02*
X493898D01*
X491798Y579762D02*
X493898D01*
X492239Y579408D02*
X493898D01*
X492525Y579054D02*
X493898D01*
X492717Y578699D02*
X493898D01*
X492839Y578345D02*
X493898D01*
X492902Y577991D02*
X493898D01*
X492910Y577636D02*
X493898D01*
X492865Y577282D02*
X493898D01*
X492764Y576928D02*
X493898D01*
X492596Y576573D02*
X493898D01*
X492345Y576219D02*
X493898D01*
X491967Y575865D02*
X493898D01*
X491332Y575510D02*
X493898D01*
X490812Y575156D02*
X493898D01*
X490008Y574802D02*
X493898D01*
X488708Y574448D02*
X493898D01*
X483598Y574093D02*
X493898D01*
X483653Y573739D02*
X493898D01*
X483661Y573385D02*
X493898D01*
X483661Y573030D02*
X493898D01*
X483661Y572676D02*
X493898D01*
X483661Y572322D02*
X493898D01*
X483661Y571967D02*
X493898D01*
X483661Y571613D02*
X493898D01*
X483661Y571259D02*
X493898D01*
X483661Y570904D02*
X493898D01*
X483661Y570550D02*
X493898D01*
X483661Y570196D02*
X493898D01*
X483661Y569841D02*
X493898D01*
X483661Y569487D02*
X493898D01*
X483661Y569133D02*
X493898D01*
X483661Y568778D02*
X493898D01*
X483661Y568424D02*
X493898D01*
X483661Y568070D02*
X493898D01*
X483661Y567715D02*
X493898D01*
X483661Y567361D02*
X493898D01*
X483661Y567007D02*
X493898D01*
X483661Y566652D02*
X493898D01*
X483661Y566298D02*
X493898D01*
X483661Y565944D02*
X493898D01*
X483661Y565589D02*
X493898D01*
X483661Y565235D02*
X493898D01*
X483661Y564881D02*
X493898D01*
X483661Y564526D02*
X493898D01*
X483661Y564172D02*
X493898D01*
X483661Y563818D02*
X493898D01*
X483661Y563463D02*
X493898D01*
X483661Y563109D02*
X493898D01*
X483661Y562755D02*
X493898D01*
X483661Y562400D02*
X493898D01*
X483661Y562046D02*
X493898D01*
X483661Y561692D02*
X493898D01*
X483661Y561337D02*
X493898D01*
X483661Y560983D02*
X493898D01*
X483631Y560629D02*
X493898D01*
X483549Y560274D02*
X493898D01*
X483411Y559920D02*
X493898D01*
X483205Y559566D02*
X493898D01*
X488915Y559211D02*
X493898D01*
X489548Y558857D02*
X493898D01*
X489809Y558503D02*
X493898D01*
X489933Y558148D02*
X493898D01*
X489961Y557794D02*
X493898D01*
X489961Y557440D02*
X493898D01*
X489961Y557085D02*
X493898D01*
X489961Y556731D02*
X493898D01*
X489961Y556377D02*
X493898D01*
X489961Y556022D02*
X493898D01*
X489961Y555668D02*
X493898D01*
X489961Y555314D02*
X493898D01*
X489961Y554959D02*
X493898D01*
X489982Y554605D02*
X493898D01*
X491661Y554251D02*
X493898D01*
X492159Y553896D02*
X493898D01*
X492471Y553542D02*
X493898D01*
X492681Y553188D02*
X493898D01*
X492817Y552833D02*
X493898D01*
X492892Y552479D02*
X493898D01*
X492913Y552125D02*
X493898D01*
X492880Y551770D02*
X493898D01*
X492791Y551416D02*
X493898D01*
X492640Y551062D02*
X493898D01*
X492410Y550707D02*
X493898D01*
X492066Y550353D02*
X493898D01*
X491492Y549999D02*
X493898D01*
X491092Y549644D02*
X493898D01*
X490738Y549290D02*
X493898D01*
X490380Y548936D02*
X493898D01*
X489980Y548581D02*
X493898D01*
X489946Y548227D02*
X493898D01*
X489845Y547873D02*
X493898D01*
X489620Y547518D02*
X493898D01*
X489138Y547164D02*
X493898D01*
X460236Y546810D02*
X493898D01*
X460236Y546455D02*
X493898D01*
X460227Y546101D02*
X493898D01*
X460137Y545747D02*
X493898D01*
X459929Y545392D02*
X493898D01*
X459843Y545038D02*
X493898D01*
X459965Y544684D02*
X493898D01*
X460028Y544329D02*
X493898D01*
X460036Y543975D02*
X493898D01*
X459991Y543621D02*
X493898D01*
X459909Y543266D02*
X493898D01*
X460104Y542912D02*
X493898D01*
X460216Y542558D02*
X493898D01*
X460236Y542203D02*
X493898D01*
X460236Y541849D02*
X493898D01*
X460236Y541495D02*
X493898D01*
X460236Y541140D02*
X493898D01*
X460236Y540786D02*
X493898D01*
X460236Y540432D02*
X493898D01*
X460208Y540077D02*
X493898D01*
X460673Y539723D02*
X493898D01*
X461544Y539369D02*
X493898D01*
X461962Y539014D02*
X493898D01*
X462235Y538660D02*
X493898D01*
X462419Y538306D02*
X493898D01*
X462534Y537951D02*
X493898D01*
X462590Y537597D02*
X493898D01*
X462593Y537243D02*
X493898D01*
X462542Y536888D02*
X493898D01*
X462433Y536534D02*
X493898D01*
X462312Y536180D02*
X493898D01*
X469216Y535825D02*
X493898D01*
X469607Y535471D02*
X493898D01*
X469799Y535117D02*
X493898D01*
X491161Y534762D02*
X493898D01*
X491916Y534408D02*
X493898D01*
X492313Y534054D02*
X493898D01*
X492574Y533699D02*
X493898D01*
X492749Y533345D02*
X493898D01*
X492858Y532991D02*
X493898D01*
X492908Y532636D02*
X493898D01*
X492905Y532282D02*
X493898D01*
X492848Y531928D02*
X493898D01*
X492732Y531573D02*
X493898D01*
X492549Y531219D02*
X493898D01*
X492275Y530865D02*
X493898D01*
X491855Y530510D02*
X493898D01*
X490974Y530156D02*
X493898D01*
X487963Y529802D02*
X493898D01*
X488441Y529448D02*
X493898D01*
X488665Y529093D02*
X493898D01*
X488766Y528739D02*
X493898D01*
X488780Y528385D02*
X493898D01*
X488780Y528030D02*
X493898D01*
X488780Y527676D02*
X493898D01*
X488780Y527322D02*
X493898D01*
X488780Y526967D02*
X493898D01*
X488780Y526613D02*
X493898D01*
X488743Y526259D02*
X493898D01*
X488605Y525904D02*
X493898D01*
X488438Y525550D02*
X493898D01*
X488647Y525196D02*
X493898D01*
X488759Y524841D02*
X493898D01*
X488780Y524487D02*
X493898D01*
X488780Y524133D02*
X493898D01*
X488780Y523778D02*
X493898D01*
X488780Y523424D02*
X493898D01*
X488780Y523070D02*
X493898D01*
X488780Y522715D02*
X493898D01*
X488751Y522361D02*
X493898D01*
X488626Y522007D02*
X493898D01*
X488365Y521652D02*
X493898D01*
X487723Y521298D02*
X493898D01*
X483465Y520944D02*
X493898D01*
X483436Y520589D02*
X493898D01*
X483312Y520235D02*
X493898D01*
X483050Y519881D02*
X493898D01*
X482408Y519526D02*
X493898D01*
X481672Y519172D02*
X493898D01*
X481596Y518818D02*
X493898D01*
X481578Y518463D02*
X493898D01*
X481679Y518109D02*
X493898D01*
X481693Y517755D02*
X493898D01*
X481693Y517400D02*
X493898D01*
X481693Y517046D02*
X493898D01*
X481693Y516692D02*
X493898D01*
X481693Y516337D02*
X493898D01*
X481693Y515983D02*
X493898D01*
X481693Y515629D02*
X493898D01*
X481665Y515274D02*
X493898D01*
X491584Y514920D02*
X493898D01*
X492115Y514566D02*
X493898D01*
X492442Y514211D02*
X493898D01*
X492661Y513857D02*
X493898D01*
X492805Y513503D02*
X493898D01*
X492887Y513148D02*
X493898D01*
X492913Y512794D02*
X493898D01*
X492886Y512440D02*
X493898D01*
X492804Y512085D02*
X493898D01*
X492660Y511731D02*
X493898D01*
X492440Y511377D02*
X493898D01*
X492112Y511022D02*
X493898D01*
X491578Y510668D02*
X493898D01*
X478273Y510314D02*
X493898D01*
X478622Y509959D02*
X493898D01*
X478883Y509605D02*
X493898D01*
X479060Y509251D02*
X493898D01*
X479171Y508896D02*
X493898D01*
X479225Y508542D02*
X493898D01*
X479232Y508188D02*
X493898D01*
X479232Y507833D02*
X493898D01*
X479232Y507479D02*
X493898D01*
X479232Y507125D02*
X493898D01*
X479232Y506770D02*
X493898D01*
X479232Y506416D02*
X493898D01*
X479232Y506062D02*
X493898D01*
X479232Y505707D02*
X493898D01*
X479232Y505353D02*
X493898D01*
X479232Y504999D02*
X493898D01*
X479232Y504644D02*
X493898D01*
X479232Y504290D02*
X493898D01*
X479232Y503936D02*
X493898D01*
X479232Y503581D02*
X493898D01*
X479232Y503227D02*
X493898D01*
X479232Y502873D02*
X493898D01*
X479232Y502518D02*
X493898D01*
X479232Y502164D02*
X493898D01*
X479232Y501810D02*
X493898D01*
X479232Y501455D02*
X493898D01*
X479232Y501101D02*
X493898D01*
X479232Y500747D02*
X493898D01*
X479232Y500392D02*
X493898D01*
X479232Y500038D02*
X493898D01*
X479232Y499684D02*
X493898D01*
X479232Y499329D02*
X493898D01*
X479232Y498975D02*
X493898D01*
X479232Y498621D02*
X493898D01*
X479232Y498266D02*
X493898D01*
X479232Y497912D02*
X493898D01*
X479232Y497558D02*
X493898D01*
X479232Y497203D02*
X493898D01*
X479232Y496849D02*
X493898D01*
X479232Y496495D02*
X493898D01*
X479232Y496140D02*
X493898D01*
X479232Y495786D02*
X493898D01*
X479232Y495432D02*
X493898D01*
X479232Y495077D02*
X493898D01*
X479232Y494723D02*
X493898D01*
X479420Y494369D02*
X493898D01*
X479649Y494014D02*
X493898D01*
X479800Y493660D02*
X493898D01*
X479888Y493306D02*
X493898D01*
X479921Y492951D02*
X493898D01*
X479900Y492597D02*
X493898D01*
X479824Y492243D02*
X493898D01*
X479687Y491888D02*
X493898D01*
X479477Y491534D02*
X493898D01*
X479164Y491180D02*
X493898D01*
X478664Y490825D02*
X493898D01*
X473878Y490471D02*
X493898D01*
X473878Y490117D02*
X493898D01*
X473878Y489762D02*
X493898D01*
X473878Y489408D02*
X493898D01*
X473878Y489054D02*
X493898D01*
X473878Y488699D02*
X493898D01*
X473878Y488345D02*
X493898D01*
X473878Y487991D02*
X493898D01*
X473878Y487636D02*
X493898D01*
X473878Y487282D02*
X493898D01*
X473878Y486928D02*
X493898D01*
X473878Y486573D02*
X493898D01*
X473878Y486219D02*
X493898D01*
X473878Y485865D02*
X493898D01*
X473878Y485510D02*
X493898D01*
X473878Y485156D02*
X493898D01*
X473878Y484802D02*
X493898D01*
X473878Y484448D02*
X493898D01*
X473878Y484093D02*
X493898D01*
X473878Y483739D02*
X493898D01*
X473878Y483385D02*
X493898D01*
X473878Y483030D02*
X493898D01*
X473878Y482676D02*
X493898D01*
X473878Y482322D02*
X493898D01*
X473878Y481967D02*
X493898D01*
X473878Y481613D02*
X493898D01*
X473878Y481259D02*
X493898D01*
X473878Y480904D02*
X493898D01*
X473878Y480550D02*
X493898D01*
X473878Y480196D02*
X493898D01*
X473878Y479841D02*
X493898D01*
X473878Y479487D02*
X493898D01*
X473878Y479133D02*
X493898D01*
X473878Y478778D02*
X493898D01*
X473878Y478424D02*
X493898D01*
X473878Y478070D02*
X493898D01*
X473878Y477715D02*
X493898D01*
X473878Y477361D02*
X493898D01*
X473878Y477007D02*
X493898D01*
X473878Y476652D02*
X493898D01*
X473878Y476298D02*
X493898D01*
X473878Y475944D02*
X493898D01*
X473878Y475589D02*
X493898D01*
X473878Y475235D02*
X493898D01*
X473878Y474881D02*
X493898D01*
X473878Y474526D02*
X493898D01*
X473878Y474172D02*
X493898D01*
X473878Y473818D02*
X493898D01*
X473878Y473463D02*
X493898D01*
X473873Y473109D02*
X493898D01*
X473794Y472755D02*
X493898D01*
X473601Y472400D02*
X493898D01*
X473208Y472046D02*
X493898D01*
X454107Y471692D02*
X493898D01*
X454025Y471337D02*
X493898D01*
X453881Y470983D02*
X493898D01*
X453660Y470629D02*
X493898D01*
X453333Y470274D02*
X493898D01*
X452799Y469920D02*
X493898D01*
X411516Y469566D02*
X493898D01*
X411516Y469211D02*
X493898D01*
X411516Y468857D02*
X493898D01*
X411516Y468503D02*
X493898D01*
X411516Y468148D02*
X493898D01*
X411516Y467794D02*
X493898D01*
X411516Y467440D02*
X493898D01*
X411516Y467085D02*
X493898D01*
X411516Y466731D02*
X493898D01*
X411516Y466377D02*
X493898D01*
X411516Y466022D02*
X493898D01*
X411516Y465668D02*
X493898D01*
X411516Y465314D02*
X493898D01*
X411516Y464959D02*
X493898D01*
X411516Y464605D02*
X493898D01*
X411516Y464251D02*
X493898D01*
X411516Y463896D02*
X493898D01*
X411516Y463542D02*
X493898D01*
X411516Y463188D02*
X493898D01*
X411516Y462833D02*
X493898D01*
X411516Y462479D02*
X493898D01*
X411516Y462125D02*
X493898D01*
X411516Y461770D02*
X493898D01*
X411516Y461416D02*
X493898D01*
X411516Y461062D02*
X493898D01*
X411516Y460707D02*
X493898D01*
X411516Y460353D02*
X493898D01*
X411516Y459999D02*
X493898D01*
X411516Y459644D02*
X493898D01*
X411516Y459290D02*
X493898D01*
X411516Y458936D02*
X493898D01*
X411516Y458581D02*
X493898D01*
X411516Y458227D02*
X493898D01*
X411516Y457873D02*
X493898D01*
X411516Y457518D02*
X493898D01*
X411516Y457164D02*
X493898D01*
X411516Y456810D02*
X493898D01*
X411516Y456455D02*
X493898D01*
X411516Y456101D02*
X493898D01*
X411516Y455747D02*
X493898D01*
X411516Y455392D02*
X493898D01*
X411516Y455038D02*
X493898D01*
X411516Y454684D02*
X493898D01*
X411516Y454329D02*
X493898D01*
X411516Y453975D02*
X493898D01*
X411516Y453621D02*
X493898D01*
X411516Y453266D02*
X493898D01*
X411516Y452912D02*
X493898D01*
X411516Y452558D02*
X493898D01*
X411516Y452203D02*
X493898D01*
X411516Y451849D02*
X493898D01*
X411516Y451495D02*
X493898D01*
X411516Y451140D02*
X493898D01*
X411516Y450786D02*
X493898D01*
X411516Y450432D02*
X493898D01*
X411516Y450077D02*
X493898D01*
X411516Y449723D02*
X493898D01*
X411516Y449369D02*
X493898D01*
X411516Y449014D02*
X493898D01*
X411516Y448660D02*
X493898D01*
X411516Y448306D02*
X493898D01*
X411516Y447951D02*
X493898D01*
X411516Y447597D02*
X493898D01*
X411516Y447243D02*
X493898D01*
X411516Y446888D02*
X493898D01*
X411516Y446534D02*
X493898D01*
X411516Y446180D02*
X493898D01*
X411516Y445825D02*
X493898D01*
X411516Y445471D02*
X493898D01*
X411516Y445117D02*
X493898D01*
X411516Y444762D02*
X493898D01*
X411516Y444408D02*
X493898D01*
X411516Y444054D02*
X493898D01*
X411516Y443699D02*
X493898D01*
X411516Y443345D02*
X493898D01*
X411516Y442991D02*
X493898D01*
X411516Y442636D02*
X493898D01*
X411516Y442282D02*
X493898D01*
X411516Y441928D02*
X493898D01*
X433922Y441573D02*
X493898D01*
X434541Y441219D02*
X493898D01*
X434900Y440865D02*
X493898D01*
X435140Y440510D02*
X493898D01*
X435298Y440156D02*
X493898D01*
X435393Y439802D02*
X493898D01*
X435432Y439448D02*
X493898D01*
X435417Y439093D02*
X493898D01*
X435347Y438739D02*
X493898D01*
X435218Y438385D02*
X493898D01*
X435016Y438030D02*
X493898D01*
X434717Y437676D02*
X493898D01*
X434247Y437322D02*
X493898D01*
X433586Y436967D02*
X493898D01*
X443294Y436613D02*
X493898D01*
X444016Y436259D02*
X493898D01*
X444415Y435904D02*
X493898D01*
X444769Y435550D02*
X493898D01*
X445914Y435196D02*
X493898D01*
X446446Y434841D02*
X493898D01*
X446773Y434487D02*
X493898D01*
X446992Y434133D02*
X493898D01*
X447136Y433778D02*
X493898D01*
X447218Y433424D02*
X493898D01*
X447244Y433070D02*
X493898D01*
X447217Y432715D02*
X493898D01*
X447135Y432361D02*
X493898D01*
X446991Y432007D02*
X493898D01*
X446771Y431652D02*
X493898D01*
X446443Y431298D02*
X493898D01*
X445909Y430944D02*
X493898D01*
X431420Y430589D02*
X493898D01*
X400732Y430235D02*
X493898D01*
X400853Y429881D02*
X493898D01*
X401157Y429526D02*
X493898D01*
X401384Y429172D02*
X493898D01*
X401550Y428818D02*
X493898D01*
X401667Y428463D02*
X493898D01*
X401739Y428109D02*
X493898D01*
X401770Y427755D02*
X493898D01*
X401761Y427400D02*
X493898D01*
X401712Y427046D02*
X493898D01*
X401620Y426692D02*
X493898D01*
X401482Y426337D02*
X493898D01*
X401290Y425983D02*
X493898D01*
X401209Y425629D02*
X493898D01*
X446063Y425274D02*
X493898D01*
X446531Y424920D02*
X493898D01*
X446829Y424566D02*
X493898D01*
X447030Y424211D02*
X493898D01*
X447159Y423857D02*
X493898D01*
X447228Y423503D02*
X493898D01*
X447243Y423148D02*
X493898D01*
X447204Y422794D02*
X493898D01*
X447109Y422440D02*
X493898D01*
X446949Y422085D02*
X493898D01*
X446709Y421731D02*
X493898D01*
X446349Y421377D02*
X493898D01*
X445727Y421022D02*
X493898D01*
X444688Y420668D02*
X493898D01*
X444334Y420314D02*
X493898D01*
X443896Y419959D02*
X493898D01*
X442905Y419605D02*
X493898D01*
X395866Y419251D02*
X493898D01*
X395866Y418896D02*
X493898D01*
X395866Y418542D02*
X493898D01*
X395866Y418188D02*
X493898D01*
X395866Y417833D02*
X493898D01*
X395866Y417479D02*
X493898D01*
X395866Y417125D02*
X493898D01*
X395866Y416770D02*
X493898D01*
X450692Y416416D02*
X493898D01*
X451370Y416062D02*
X493898D01*
X451747Y415707D02*
X493898D01*
X451997Y415353D02*
X493898D01*
X452164Y414999D02*
X493898D01*
X454781Y414644D02*
X493898D01*
X456035Y414290D02*
X493898D01*
X456631Y413936D02*
X493898D01*
X457053Y413581D02*
X493898D01*
X457376Y413227D02*
X493898D01*
X484269Y412873D02*
X493898D01*
X484903Y412518D02*
X493898D01*
X485163Y412164D02*
X493898D01*
X485287Y411810D02*
X493898D01*
X485315Y411455D02*
X493898D01*
X485315Y411101D02*
X493898D01*
X485315Y410747D02*
X493898D01*
X485315Y410392D02*
X493898D01*
X485315Y410038D02*
X493898D01*
X485315Y409684D02*
X493898D01*
X485315Y409329D02*
X493898D01*
X485315Y408975D02*
X493898D01*
X485315Y408621D02*
X493898D01*
X485315Y408266D02*
X493898D01*
X485315Y407912D02*
X493898D01*
X485315Y407558D02*
X493898D01*
X485315Y407203D02*
X493898D01*
X485315Y406849D02*
X493898D01*
X485315Y406495D02*
X493898D01*
X485315Y406140D02*
X493898D01*
X485315Y405786D02*
X493898D01*
X485315Y405432D02*
X493898D01*
X485315Y405077D02*
X493898D01*
X485315Y404723D02*
X493898D01*
X485315Y404369D02*
X493898D01*
X485315Y404014D02*
X493898D01*
X485315Y403660D02*
X493898D01*
X485315Y403306D02*
X493896D01*
X491009Y604566D02*
X493882D01*
X485315Y402951D02*
X493846D01*
X449153Y604920D02*
X493797D01*
X485315Y402597D02*
X493718D01*
X449058Y605274D02*
X493625D01*
X485315Y402243D02*
X493489D01*
X448912Y605629D02*
X493332D01*
X485315Y401888D02*
X493145D01*
X485315Y401534D02*
X492791D01*
X448807Y605983D02*
X492765D01*
X485315Y401180D02*
X492437D01*
X485315Y400825D02*
X492083D01*
X485315Y400471D02*
X491728D01*
X485315Y400117D02*
X491374D01*
X485315Y399762D02*
X491020D01*
X485315Y399408D02*
X490665D01*
X489812Y580117D02*
X490472D01*
X485315Y399054D02*
X490311D01*
X483465Y530156D02*
X490129D01*
X485315Y398699D02*
X489957D01*
X469877Y534762D02*
X489941D01*
X485315Y398345D02*
X489602D01*
X477919Y510668D02*
X489524D01*
X481540Y514920D02*
X489519D01*
X449203Y604566D02*
X489306D01*
X485315Y397991D02*
X489248D01*
X483451Y530510D02*
X489247D01*
X469882Y534408D02*
X489186D01*
X477564Y511022D02*
X488990D01*
X481278Y514566D02*
X488987D01*
X435050Y600314D02*
X488981D01*
X485315Y397636D02*
X488894D01*
X483350Y530865D02*
X488828D01*
X469882Y534054D02*
X488789D01*
X449210Y604211D02*
X488687D01*
X477210Y511377D02*
X488662D01*
X480637Y514211D02*
X488660D01*
X483126Y531219D02*
X488554D01*
X485315Y397282D02*
X488539D01*
X469882Y533699D02*
X488528D01*
X434665Y600668D02*
X488511D01*
X476856Y511731D02*
X488442D01*
X474732Y513857D02*
X488441D01*
X482648Y531573D02*
X488370D01*
X469882Y533345D02*
X488353D01*
X449174Y603857D02*
X488328D01*
X476502Y512085D02*
X488298D01*
X475084Y513503D02*
X488297D01*
X469835Y531928D02*
X488254D01*
X469882Y532991D02*
X488245D01*
X476147Y512440D02*
X488216D01*
X475439Y513148D02*
X488215D01*
X434176Y601022D02*
X488212D01*
X469882Y532282D02*
X488197D01*
X469882Y532636D02*
X488194D01*
X475793Y512794D02*
X488189D01*
X485315Y396928D02*
X488185D01*
X449094Y603503D02*
X488089D01*
X433506Y601377D02*
X488011D01*
X448966Y603148D02*
X487930D01*
X447660Y601731D02*
X487881D01*
X448781Y602794D02*
X487835D01*
X485315Y396573D02*
X487831D01*
X448177Y602085D02*
X487812D01*
X448528Y602440D02*
X487797D01*
X485315Y396219D02*
X487451D01*
X483490Y574448D02*
X485702D01*
X481102Y582951D02*
X485462D01*
X483321Y574802D02*
X485061D01*
X481102Y578699D02*
X484987D01*
X481102Y582597D02*
X484984D01*
X481102Y579054D02*
X484820D01*
X483075Y575156D02*
X484799D01*
X481102Y578345D02*
X484778D01*
X481102Y582243D02*
X484760D01*
X483468Y521298D02*
X484718D01*
X481102Y579408D02*
X484682D01*
X482737Y575510D02*
X484674D01*
X481102Y577991D02*
X484666D01*
X481102Y581888D02*
X484660D01*
X481102Y581534D02*
X484646D01*
X481102Y581180D02*
X484646D01*
X481102Y580825D02*
X484646D01*
X481102Y580471D02*
X484646D01*
X481102Y580117D02*
X484646D01*
X481102Y579762D02*
X484646D01*
X481102Y577636D02*
X484646D01*
X481102Y577282D02*
X484646D01*
X481320Y576928D02*
X484646D01*
X481674Y576573D02*
X484646D01*
X482029Y576219D02*
X484646D01*
X482383Y575865D02*
X484646D01*
X483465Y529802D02*
X484478D01*
X483136Y559211D02*
X483526D01*
X481102Y585432D02*
X483311D01*
X481102Y589684D02*
X483142D01*
X481102Y585786D02*
X482737D01*
X481102Y589329D02*
X482645D01*
X481542Y558503D02*
X482632D01*
X435236Y558148D02*
X482508D01*
X460846Y557794D02*
X482480D01*
X481829Y557440D02*
X482478D01*
X481102Y586140D02*
X482393D01*
X481102Y588975D02*
X482332D01*
X481102Y586495D02*
X482163D01*
X481102Y588621D02*
X482122D01*
X481102Y586849D02*
X482012D01*
X481102Y588266D02*
X481986D01*
X481102Y587203D02*
X481923D01*
X481102Y587912D02*
X481911D01*
X481102Y587558D02*
X481890D01*
X460236Y547164D02*
X479220D01*
X461601Y557440D02*
X478801D01*
X460236Y547518D02*
X478573D01*
X460236Y547873D02*
X478220D01*
X461998Y557085D02*
X478168D01*
X465813Y553188D02*
X478098D01*
X476700Y514211D02*
X478025D01*
X460236Y548227D02*
X477993D01*
X466255Y552833D02*
X477929D01*
X462260Y556731D02*
X477908D01*
X465006Y553542D02*
X477889D01*
X460190Y548581D02*
X477850D01*
X466541Y552479D02*
X477792D01*
X462434Y556377D02*
X477783D01*
X464934Y553896D02*
X477777D01*
X465301Y548936D02*
X477774D01*
X462546Y556022D02*
X477756D01*
X463631Y555668D02*
X477756D01*
X464162Y555314D02*
X477756D01*
X464489Y554959D02*
X477756D01*
X464709Y554605D02*
X477756D01*
X464852Y554251D02*
X477756D01*
X466733Y552125D02*
X477756D01*
X466854Y551770D02*
X477756D01*
X466917Y551416D02*
X477756D01*
X466926Y551062D02*
X477756D01*
X466881Y550707D02*
X477756D01*
X466779Y550353D02*
X477756D01*
X466612Y549999D02*
X477756D01*
X466361Y549644D02*
X477756D01*
X465983Y549290D02*
X477756D01*
X475758Y531573D02*
X476998D01*
X476237Y531219D02*
X476519D01*
X473878Y490825D02*
X476454D01*
X473893Y491180D02*
X475954D01*
X474667Y491534D02*
X475641D01*
X475159Y491888D02*
X475413D01*
X472835Y507125D02*
X474508D01*
X472835Y506770D02*
X474508D01*
X472807Y506416D02*
X474508D01*
X472682Y506062D02*
X474508D01*
X472702Y505707D02*
X474508D01*
X472814Y505353D02*
X474508D01*
X472835Y504999D02*
X474508D01*
X472835Y504644D02*
X474508D01*
X472835Y504290D02*
X474508D01*
X472835Y503936D02*
X474508D01*
X472835Y503581D02*
X474508D01*
X472835Y503227D02*
X474508D01*
X472835Y502873D02*
X474508D01*
X472814Y502518D02*
X474508D01*
X472701Y502164D02*
X474508D01*
X472458Y501810D02*
X474508D01*
X471912Y501455D02*
X474508D01*
X453543Y501101D02*
X474508D01*
X453543Y500747D02*
X474508D01*
X453543Y500392D02*
X474508D01*
X453543Y500038D02*
X474508D01*
X453543Y499684D02*
X474508D01*
X453543Y499329D02*
X474508D01*
X453543Y498975D02*
X474508D01*
X453543Y498621D02*
X474508D01*
X453543Y498266D02*
X474508D01*
X453543Y497912D02*
X474508D01*
X453543Y497558D02*
X474508D01*
X453543Y497203D02*
X474508D01*
X453543Y496849D02*
X474508D01*
X453543Y496495D02*
X474508D01*
X453523Y496140D02*
X474508D01*
X472835Y507479D02*
X474407D01*
X453457Y495786D02*
X474325D01*
X472835Y507833D02*
X474052D01*
X453340Y495432D02*
X473971D01*
X457628Y412873D02*
X473762D01*
X472835Y508188D02*
X473698D01*
X471853Y495077D02*
X473617D01*
X451768Y606337D02*
X473429D01*
X472835Y508542D02*
X473344D01*
X472424Y494723D02*
X473262D01*
X457826Y412518D02*
X473129D01*
X435236Y558503D02*
X472985D01*
X452272Y606692D02*
X472925D01*
X457978Y412164D02*
X472868D01*
X458091Y411810D02*
X472744D01*
X471538Y411455D02*
X472717D01*
X452575Y607046D02*
X472622D01*
X452771Y607400D02*
X472425D01*
X452891Y607755D02*
X472306D01*
X452947Y608109D02*
X472250D01*
X468477Y612007D02*
X472244D01*
X468407Y611652D02*
X472244D01*
X468290Y611298D02*
X472244D01*
X468119Y610944D02*
X472244D01*
X467882Y610589D02*
X472244D01*
X467557Y610235D02*
X472244D01*
X467089Y609881D02*
X472244D01*
X466223Y609526D02*
X472244D01*
X452953Y609172D02*
X472244D01*
X452953Y608818D02*
X472244D01*
X452953Y608463D02*
X472244D01*
X468504Y612361D02*
X472237D01*
X468487Y612715D02*
X472169D01*
X435236Y558857D02*
X472063D01*
X468427Y613070D02*
X472019D01*
X468321Y613424D02*
X471758D01*
X435227Y559211D02*
X471618D01*
X435138Y559566D02*
X471322D01*
X468187Y613778D02*
X471287D01*
X460274Y559920D02*
X471116D01*
X460605Y560274D02*
X470978D01*
X460769Y560629D02*
X470897D01*
X460826Y560983D02*
X470866D01*
X460827Y561337D02*
X470866D01*
X460827Y561692D02*
X470850D01*
X469859Y531573D02*
X470108D01*
X464609Y495077D02*
X469958D01*
X465180Y494723D02*
X469387D01*
X465522Y494369D02*
X469045D01*
X467975Y501455D02*
X469033D01*
X465751Y494014D02*
X468816D01*
X465903Y493660D02*
X468664D01*
X465964Y472046D02*
X468603D01*
X465991Y493306D02*
X468576D01*
X466004Y492597D02*
X468563D01*
X466023Y492951D02*
X468544D01*
X466296Y492243D02*
X468271D01*
X458167Y411455D02*
X468225D01*
X466357Y472400D02*
X468210D01*
X466519Y491888D02*
X468048D01*
X466550Y472755D02*
X468017D01*
X466620Y491534D02*
X467947D01*
X466629Y473109D02*
X467938D01*
X466634Y491180D02*
X467933D01*
X466634Y490825D02*
X467933D01*
X466634Y490471D02*
X467933D01*
X466634Y490117D02*
X467933D01*
X466634Y489762D02*
X467933D01*
X466634Y489408D02*
X467933D01*
X466634Y489054D02*
X467933D01*
X466634Y488699D02*
X467933D01*
X466634Y488345D02*
X467933D01*
X466634Y487991D02*
X467933D01*
X466634Y487636D02*
X467933D01*
X466634Y487282D02*
X467933D01*
X466634Y486928D02*
X467933D01*
X466634Y486573D02*
X467933D01*
X466634Y486219D02*
X467933D01*
X466634Y485865D02*
X467933D01*
X466634Y485510D02*
X467933D01*
X466634Y485156D02*
X467933D01*
X466634Y484802D02*
X467933D01*
X466634Y484448D02*
X467933D01*
X466634Y484093D02*
X467933D01*
X466634Y483739D02*
X467933D01*
X466634Y483385D02*
X467933D01*
X466634Y483030D02*
X467933D01*
X466634Y482676D02*
X467933D01*
X466634Y482322D02*
X467933D01*
X466634Y481967D02*
X467933D01*
X466634Y481613D02*
X467933D01*
X466634Y481259D02*
X467933D01*
X466634Y480904D02*
X467933D01*
X466634Y480550D02*
X467933D01*
X466634Y480196D02*
X467933D01*
X466634Y479841D02*
X467933D01*
X466634Y479487D02*
X467933D01*
X466634Y479133D02*
X467933D01*
X466634Y478778D02*
X467933D01*
X466634Y478424D02*
X467933D01*
X466634Y478070D02*
X467933D01*
X466634Y477715D02*
X467933D01*
X466634Y477361D02*
X467933D01*
X466634Y477007D02*
X467933D01*
X466634Y476652D02*
X467933D01*
X466634Y476298D02*
X467933D01*
X466634Y475944D02*
X467933D01*
X466634Y475589D02*
X467933D01*
X466634Y475235D02*
X467933D01*
X466634Y474881D02*
X467933D01*
X466634Y474526D02*
X467933D01*
X466634Y474172D02*
X467933D01*
X466634Y473818D02*
X467933D01*
X466634Y473463D02*
X467933D01*
X458209Y411101D02*
X467053D01*
X458357Y410747D02*
X466275D01*
X465279Y535825D02*
X465823D01*
X458712Y410392D02*
X465667D01*
X460827Y562046D02*
X465175D01*
X459066Y410038D02*
X465163D01*
X451996Y591455D02*
X465157D01*
X439361Y591101D02*
X465157D01*
X439714Y590747D02*
X465157D01*
X439891Y590392D02*
X465157D01*
X439958Y590038D02*
X465157D01*
X439961Y589684D02*
X465157D01*
X439961Y589329D02*
X465157D01*
X439961Y588975D02*
X465157D01*
X439961Y588621D02*
X465157D01*
X439961Y588266D02*
X465157D01*
X439961Y587912D02*
X465157D01*
X439961Y587558D02*
X465157D01*
X439961Y587203D02*
X465157D01*
X445733Y586849D02*
X465157D01*
X453543Y501455D02*
X465096D01*
X452714Y591810D02*
X464889D01*
X462877Y609526D02*
X464879D01*
X460827Y562400D02*
X464815D01*
X459420Y409684D02*
X464732D01*
X435620Y599605D02*
X464703D01*
X460827Y562755D02*
X464637D01*
X452986Y592164D02*
X464590D01*
X460827Y563109D02*
X464569D01*
X460827Y564172D02*
X464567D01*
X460827Y563818D02*
X464567D01*
X460827Y563463D02*
X464567D01*
X460858Y564526D02*
X464563D01*
X453543Y501810D02*
X464549D01*
X453117Y592518D02*
X464389D01*
X459775Y409329D02*
X464357D01*
X453543Y502164D02*
X464307D01*
X453150Y592873D02*
X464259D01*
X453150Y593227D02*
X464189D01*
X460122Y408975D02*
X464027D01*
X463742Y609881D02*
X464014D01*
X453150Y593581D02*
X463939D01*
X452573Y599251D02*
X463840D01*
X460041Y548936D02*
X463833D01*
X446352Y586495D02*
X463825D01*
X462251Y502518D02*
X463794D01*
X460424Y408621D02*
X463735D01*
X459238Y581888D02*
X463656D01*
X453150Y593936D02*
X463607D01*
X459252Y581534D02*
X463587D01*
X459252Y581180D02*
X463583D01*
X459252Y580825D02*
X463583D01*
X459252Y580471D02*
X463583D01*
X459252Y580117D02*
X463583D01*
X459252Y579762D02*
X463583D01*
X459215Y579408D02*
X463583D01*
X459078Y579054D02*
X463583D01*
X458911Y578699D02*
X463583D01*
X459120Y578345D02*
X463583D01*
X459232Y577991D02*
X463583D01*
X459252Y577636D02*
X463583D01*
X459252Y577282D02*
X463583D01*
X459252Y576928D02*
X463583D01*
X459252Y576573D02*
X463583D01*
X459252Y576219D02*
X463583D01*
X459252Y575865D02*
X463583D01*
X459224Y575510D02*
X463583D01*
X459099Y575156D02*
X463583D01*
X458907Y574802D02*
X463583D01*
X460091Y574448D02*
X463583D01*
X460522Y574093D02*
X463583D01*
X460729Y573739D02*
X463583D01*
X460818Y573385D02*
X463578D01*
X452917Y598896D02*
X463559D01*
X460685Y408266D02*
X463477D01*
X453150Y594290D02*
X463444D01*
X453087Y598542D02*
X463422D01*
X453150Y594644D02*
X463386D01*
X453148Y598188D02*
X463386D01*
X453150Y597833D02*
X463386D01*
X453150Y597479D02*
X463386D01*
X453150Y597125D02*
X463386D01*
X453150Y596770D02*
X463386D01*
X453150Y596416D02*
X463386D01*
X453150Y596062D02*
X463386D01*
X453150Y595707D02*
X463386D01*
X453150Y595353D02*
X463386D01*
X453150Y594999D02*
X463386D01*
X459138Y582243D02*
X463325D01*
X462685Y502873D02*
X463271D01*
X459907Y549290D02*
X463151D01*
X446711Y586140D02*
X463148D01*
X459054Y582597D02*
X462881D01*
X446951Y585786D02*
X462771D01*
X459884Y495077D02*
X462714D01*
X459039Y582951D02*
X462595D01*
X447109Y585432D02*
X462520D01*
X458970Y583306D02*
X462402D01*
X447204Y585077D02*
X462354D01*
X458841Y583660D02*
X462280D01*
X457874Y584723D02*
X462252D01*
X458640Y584014D02*
X462217D01*
X458342Y584369D02*
X462208D01*
X460455Y494723D02*
X462143D01*
X460798Y494369D02*
X461801D01*
X461027Y494014D02*
X461571D01*
X459530Y609526D02*
X461533D01*
X460845Y472046D02*
X461359D01*
X460396Y609881D02*
X460667D01*
X435236Y557794D02*
X459626D01*
X458314Y502518D02*
X459008D01*
X435236Y557440D02*
X458871D01*
X452953Y609526D02*
X458186D01*
X455868Y495077D02*
X457990D01*
X456440Y494723D02*
X457419D01*
X452953Y609881D02*
X457321D01*
X456782Y494369D02*
X457076D01*
X456830Y472046D02*
X457029D01*
X452953Y610235D02*
X456852D01*
X452953Y610589D02*
X456527D01*
X452953Y610944D02*
X456291D01*
X433415Y404723D02*
X456250D01*
X433415Y404369D02*
X456250D01*
X433415Y404014D02*
X456250D01*
X433415Y403660D02*
X456250D01*
X453910Y613778D02*
X456223D01*
X433486Y405077D02*
X456179D01*
X433513Y403306D02*
X456153D01*
X452953Y611298D02*
X456120D01*
X453439Y613424D02*
X456088D01*
X452953Y611652D02*
X456002D01*
X453178Y613070D02*
X455982D01*
X452953Y612007D02*
X455932D01*
X433735Y402951D02*
X455930D01*
X453028Y612715D02*
X455922D01*
X452960Y612361D02*
X455906D01*
X433788Y405432D02*
X455877D01*
X433962Y402597D02*
X455704D01*
X434142Y405786D02*
X455523D01*
X434143Y402243D02*
X455522D01*
X452952Y584723D02*
X455512D01*
X434497Y406140D02*
X455169D01*
X453420Y584369D02*
X455044D01*
X434851Y406495D02*
X454814D01*
X453719Y584014D02*
X454746D01*
X453920Y583660D02*
X454545D01*
X435205Y406849D02*
X454460D01*
X454050Y583306D02*
X454415D01*
X452266Y414644D02*
X453979D01*
X453165Y495077D02*
X453974D01*
X453127Y494723D02*
X453403D01*
X436553Y407203D02*
X453113D01*
X450825Y559920D02*
X453112D01*
X451156Y560274D02*
X452781D01*
X452335Y414290D02*
X452724D01*
X451320Y560629D02*
X452617D01*
X451377Y560983D02*
X452560D01*
X451877Y565235D02*
X452559D01*
X451523Y564881D02*
X452559D01*
X451378Y564526D02*
X452559D01*
X451378Y564172D02*
X452559D01*
X451378Y563818D02*
X452559D01*
X451378Y563463D02*
X452559D01*
X451378Y563109D02*
X452559D01*
X451378Y562755D02*
X452559D01*
X451378Y562400D02*
X452559D01*
X451378Y562046D02*
X452559D01*
X451378Y561692D02*
X452559D01*
X451378Y561337D02*
X452559D01*
X452232Y565589D02*
X452492D01*
X437297Y407558D02*
X452368D01*
X437783Y407912D02*
X451882D01*
X438145Y408266D02*
X451520D01*
X438427Y408621D02*
X451239D01*
X438648Y408975D02*
X451017D01*
X438820Y409329D02*
X450845D01*
X447877Y469920D02*
X450745D01*
X438950Y409684D02*
X450715D01*
X439042Y410038D02*
X450623D01*
X439072Y411455D02*
X450593D01*
X447243Y584723D02*
X450591D01*
X439099Y410392D02*
X450566D01*
X438996Y411810D02*
X450559D01*
X439114Y411101D02*
X450551D01*
X439123Y410747D02*
X450542D01*
X435236Y557085D02*
X450407D01*
X448411Y470274D02*
X450211D01*
X447228Y584369D02*
X450123D01*
X448739Y470629D02*
X449853D01*
X447158Y584014D02*
X449824D01*
X435190Y556731D02*
X449685D01*
X447029Y583660D02*
X449624D01*
X445127Y574802D02*
X449558D01*
X445131Y578699D02*
X449554D01*
X448959Y470983D02*
X449550D01*
X446827Y583306D02*
X449495D01*
X446528Y582951D02*
X449425D01*
X446058Y582597D02*
X449411D01*
X445298Y579054D02*
X449387D01*
X445319Y575156D02*
X449366D01*
X445340Y578345D02*
X449345D01*
X445401Y582243D02*
X449327D01*
X435039Y556377D02*
X449286D01*
X445436Y579408D02*
X449249D01*
X445444Y575510D02*
X449241D01*
X445452Y577991D02*
X449233D01*
X445459Y581888D02*
X449227D01*
X445472Y581534D02*
X449213D01*
X445472Y581180D02*
X449213D01*
X445472Y580825D02*
X449213D01*
X445472Y580471D02*
X449213D01*
X445472Y580117D02*
X449213D01*
X445472Y579762D02*
X449213D01*
X445472Y577636D02*
X449213D01*
X445472Y577282D02*
X449213D01*
X445472Y576928D02*
X449213D01*
X445472Y576573D02*
X449213D01*
X445472Y576219D02*
X449213D01*
X445472Y575865D02*
X449213D01*
X395866Y416416D02*
X449209D01*
X434984Y556022D02*
X448932D01*
X438884Y412164D02*
X448708D01*
X435034Y555668D02*
X448577D01*
X395866Y416062D02*
X448532D01*
X438731Y412518D02*
X448265D01*
X435031Y555314D02*
X448223D01*
X395866Y415707D02*
X448155D01*
X441760Y591455D02*
X448004D01*
X438533Y412873D02*
X447979D01*
X395866Y415353D02*
X447904D01*
X434974Y554959D02*
X447869D01*
X438281Y413227D02*
X447786D01*
X395866Y414999D02*
X447737D01*
X437959Y413581D02*
X447664D01*
X435687Y414644D02*
X447636D01*
X437537Y413936D02*
X447601D01*
X436941Y414290D02*
X447591D01*
X434858Y554605D02*
X447514D01*
X442337Y599251D02*
X447427D01*
X442478Y591810D02*
X447286D01*
X434675Y554251D02*
X447160D01*
X442681Y598896D02*
X447083D01*
X442750Y592164D02*
X447014D01*
X442850Y598542D02*
X446913D01*
X442881Y592518D02*
X446883D01*
X442912Y598188D02*
X446852D01*
X445158Y597833D02*
X446850D01*
X445812Y593227D02*
X446850D01*
X442913Y592873D02*
X446850D01*
X446325Y597479D02*
X446850D01*
X434401Y553896D02*
X446808D01*
X446494Y593581D02*
X446805D01*
X433981Y553542D02*
X446496D01*
X411516Y469920D02*
X445823D01*
X433100Y553188D02*
X445730D01*
X443352Y545038D02*
X445669D01*
X427362Y549290D02*
X445605D01*
X444767Y543266D02*
X445603D01*
X442998Y545392D02*
X445583D01*
X443681Y544684D02*
X445547D01*
X444544Y543621D02*
X445520D01*
X443911Y544329D02*
X445484D01*
X444087Y543975D02*
X445475D01*
X427362Y548936D02*
X445471D01*
X406102Y552833D02*
X445448D01*
X444868Y542912D02*
X445408D01*
X427351Y549644D02*
X445391D01*
X442638Y545747D02*
X445375D01*
X427362Y548581D02*
X445322D01*
X406102Y552479D02*
X445312D01*
X427293Y549999D02*
X445290D01*
X411516Y470274D02*
X445289D01*
X442117Y546101D02*
X445285D01*
X406102Y552125D02*
X445276D01*
X425791Y551770D02*
X445276D01*
X426391Y551416D02*
X445276D01*
X426757Y551062D02*
X445276D01*
X427009Y550707D02*
X445276D01*
X427182Y550353D02*
X445276D01*
X427362Y548227D02*
X445276D01*
X427362Y547873D02*
X445276D01*
X427362Y547518D02*
X445276D01*
X427362Y547164D02*
X445276D01*
X439812Y546810D02*
X445276D01*
X440343Y546455D02*
X445276D01*
X442913Y597833D02*
X444999D01*
X411516Y470629D02*
X444962D01*
X444313Y601731D02*
X444860D01*
X411516Y470983D02*
X444742D01*
X411516Y471337D02*
X444597D01*
X411516Y471692D02*
X444515D01*
X442913Y593227D02*
X444345D01*
X439571Y507125D02*
X444094D01*
X439562Y506770D02*
X444094D01*
X439483Y506416D02*
X444094D01*
X439290Y506062D02*
X444094D01*
X439321Y505707D02*
X444094D01*
X439498Y505353D02*
X444094D01*
X439565Y504999D02*
X444094D01*
X439567Y504644D02*
X444094D01*
X439567Y504290D02*
X444094D01*
X439567Y503936D02*
X444094D01*
X439567Y503581D02*
X444094D01*
X439567Y503227D02*
X444094D01*
X439565Y502873D02*
X444094D01*
X439497Y502518D02*
X444094D01*
X439319Y502164D02*
X444094D01*
X438959Y501810D02*
X444094D01*
X438314Y501455D02*
X444094D01*
X443565Y507479D02*
X444078D01*
X439961Y586849D02*
X444030D01*
X438365Y501101D02*
X443871D01*
X441972Y430944D02*
X443855D01*
X442913Y597479D02*
X443832D01*
X442126Y425274D02*
X443701D01*
X434931Y559920D02*
X443663D01*
X442913Y593581D02*
X443663D01*
X439038Y574093D02*
X443415D01*
X439924Y586495D02*
X443412D01*
X442913Y597125D02*
X443390D01*
X435015Y560274D02*
X443332D01*
X442506Y431298D02*
X443321D01*
X442940Y593936D02*
X443285D01*
X442594Y424920D02*
X443233D01*
X437270Y573739D02*
X443208D01*
X435178Y560629D02*
X443168D01*
X436971Y573385D02*
X443119D01*
X435236Y560983D02*
X443111D01*
X436617Y573030D02*
X443110D01*
X436263Y572676D02*
X443110D01*
X435908Y572322D02*
X443110D01*
X435554Y571967D02*
X443110D01*
X435200Y571613D02*
X443110D01*
X434845Y571259D02*
X443110D01*
X434491Y570904D02*
X443110D01*
X434137Y570550D02*
X443110D01*
X433782Y570196D02*
X443110D01*
X433428Y569841D02*
X443110D01*
X439786Y586140D02*
X443053D01*
X442844Y569487D02*
X442983D01*
X439507Y583306D02*
X442919D01*
X438385Y500747D02*
X442865D01*
X439665Y585786D02*
X442813D01*
X439612Y583660D02*
X442735D01*
X439665Y585432D02*
X442654D01*
X439661Y584014D02*
X442606D01*
X439665Y585077D02*
X442559D01*
X439665Y584369D02*
X442536D01*
X439665Y584723D02*
X442521D01*
X438353Y500392D02*
X442334D01*
X414150Y531928D02*
X442224D01*
X413848Y531573D02*
X442224D01*
X441267Y531219D02*
X442224D01*
X441765Y530865D02*
X442224D01*
X414444Y532282D02*
X442138D01*
X438264Y500038D02*
X442007D01*
X414740Y532636D02*
X441876D01*
X438112Y499684D02*
X441787D01*
X436830Y497558D02*
X441744D01*
X428346Y532991D02*
X441700D01*
X412989Y497912D02*
X441645D01*
X437882Y499329D02*
X441644D01*
X428346Y533345D02*
X441592D01*
X412980Y498266D02*
X441562D01*
X437539Y498975D02*
X441562D01*
X428346Y533699D02*
X441541D01*
X436965Y498621D02*
X441535D01*
X440967Y601731D02*
X441513D01*
X440777Y574448D02*
X441411D01*
X428346Y534054D02*
X441360D01*
X439338Y582951D02*
X441171D01*
X440767Y472046D02*
X440966D01*
X437586Y497203D02*
X440903D01*
X440204Y534408D02*
X440898D01*
X439087Y582597D02*
X440692D01*
X438743Y582243D02*
X440469D01*
X439655Y579408D02*
X440391D01*
X438389Y581888D02*
X440368D01*
X438034Y581534D02*
X440354D01*
X437708Y581180D02*
X440354D01*
X437697Y580825D02*
X440354D01*
X437697Y580471D02*
X440354D01*
X437697Y580117D02*
X440354D01*
X439225Y579762D02*
X440354D01*
X437982Y496849D02*
X440315D01*
X438244Y496495D02*
X439934D01*
X439586Y574448D02*
X439932D01*
X431920Y430944D02*
X439918D01*
X433267Y425274D02*
X439764D01*
X438419Y496140D02*
X439580D01*
X432233Y431298D02*
X439384D01*
X433751Y424920D02*
X439281D01*
X438527Y495786D02*
X439225D01*
X432443Y431652D02*
X439056D01*
X433074Y569487D02*
X439052D01*
X413497Y531219D02*
X439048D01*
X435236Y561337D02*
X438889D01*
X438654Y495432D02*
X438864D01*
X432580Y432007D02*
X438836D01*
X435036Y565235D02*
X438691D01*
X432719Y569133D02*
X438660D01*
X435028Y565589D02*
X438607D01*
X435236Y561692D02*
X438583D01*
X413143Y530865D02*
X438550D01*
X434991Y564881D02*
X438484D01*
X432365Y568778D02*
X438469D01*
X434965Y565944D02*
X438444D01*
X435236Y562046D02*
X438432D01*
X434889Y564526D02*
X438395D01*
X432011Y568424D02*
X438391D01*
X434843Y566298D02*
X438386D01*
X431795Y568070D02*
X438386D01*
X432757Y567715D02*
X438386D01*
X433924Y567361D02*
X438386D01*
X434365Y567007D02*
X438386D01*
X434651Y566652D02*
X438386D01*
X434737Y564172D02*
X438386D01*
X434962Y563818D02*
X438386D01*
X435153Y563463D02*
X438386D01*
X435231Y563109D02*
X438386D01*
X435236Y562755D02*
X438386D01*
X435236Y562400D02*
X438386D01*
X412810Y530510D02*
X438238D01*
X432220Y601731D02*
X438167D01*
X412795Y530156D02*
X438028D01*
X412795Y529802D02*
X437892D01*
X412795Y529448D02*
X437816D01*
X412795Y529093D02*
X437750D01*
X427362Y546810D02*
X437747D01*
X429528Y602085D02*
X437649D01*
X412795Y528739D02*
X437396D01*
X429528Y602440D02*
X437299D01*
X431163Y546455D02*
X437216D01*
X435833Y599251D02*
X437190D01*
X429528Y602794D02*
X437046D01*
X412795Y528385D02*
X437042D01*
X429543Y605983D02*
X437020D01*
X428346Y534408D02*
X436961D01*
X436751Y472046D02*
X436950D01*
X429528Y605629D02*
X436915D01*
X427559Y518818D02*
X436908D01*
X432026Y546101D02*
X436889D01*
X429528Y603148D02*
X436861D01*
X436007Y598896D02*
X436847D01*
X429528Y605274D02*
X436769D01*
X427559Y519172D02*
X436756D01*
X429528Y603503D02*
X436733D01*
X423476Y528030D02*
X436687D01*
X436147Y598542D02*
X436677D01*
X429528Y604920D02*
X436674D01*
X435103Y539014D02*
X436673D01*
X432308Y545747D02*
X436669D01*
X429528Y603857D02*
X436652D01*
X428346Y539369D02*
X436635D01*
X429528Y604566D02*
X436624D01*
X429528Y604211D02*
X436617D01*
X436270Y598188D02*
X436584D01*
X427559Y518463D02*
X436569D01*
X432480Y543621D02*
X436558D01*
X432480Y543975D02*
X436527D01*
X432444Y545392D02*
X436526D01*
X427559Y519526D02*
X436515D01*
X432480Y544329D02*
X436444D01*
X432480Y545038D02*
X436444D01*
X432480Y544684D02*
X436417D01*
X428346Y539723D02*
X436374D01*
X427559Y519881D02*
X436356D01*
X432480Y543266D02*
X436335D01*
X423971Y527676D02*
X436333D01*
X428385Y540077D02*
X436249D01*
X432480Y542912D02*
X436234D01*
X432480Y542558D02*
X436220D01*
X432480Y542203D02*
X436220D01*
X432480Y541849D02*
X436220D01*
X432480Y541495D02*
X436220D01*
X432423Y541140D02*
X436220D01*
X432259Y540786D02*
X436220D01*
X431927Y540432D02*
X436220D01*
X427559Y518109D02*
X436215D01*
X432528Y527322D02*
X435979D01*
X427559Y517755D02*
X435861D01*
X433060Y526967D02*
X435624D01*
X412944Y497558D02*
X435611D01*
X427554Y517400D02*
X435506D01*
X429209Y492951D02*
X435429D01*
X433387Y526613D02*
X435270D01*
X427475Y517046D02*
X435152D01*
X412917Y498621D02*
X435083D01*
X429297Y493306D02*
X434917D01*
X433606Y526259D02*
X434916D01*
X395866Y414644D02*
X434884D01*
X412842Y497203D02*
X434855D01*
X427283Y516692D02*
X434798D01*
X433750Y525904D02*
X434561D01*
X412796Y498975D02*
X434509D01*
X429330Y493660D02*
X434497D01*
X412675Y496849D02*
X434459D01*
X426928Y516337D02*
X434443D01*
X433832Y525550D02*
X434242D01*
X429310Y494014D02*
X434223D01*
X412424Y496495D02*
X434197D01*
X412604Y499329D02*
X434165D01*
X427105Y515983D02*
X434089D01*
X429234Y494369D02*
X434039D01*
X412046Y496140D02*
X434022D01*
X412318Y499684D02*
X433935D01*
X429098Y494723D02*
X433924D01*
X428078Y495786D02*
X433914D01*
X428888Y495077D02*
X433867D01*
X428576Y495432D02*
X433863D01*
X433118Y520235D02*
X433812D01*
X427386Y515629D02*
X433791D01*
X411876Y500038D02*
X433783D01*
X409154Y501455D02*
X433729D01*
X410709Y500392D02*
X433695D01*
X409154Y501101D02*
X433682D01*
X409154Y500747D02*
X433662D01*
X395866Y414290D02*
X433630D01*
X427523Y515274D02*
X433589D01*
X427559Y514920D02*
X433458D01*
X428346Y539014D02*
X433400D01*
X427559Y514566D02*
X433385D01*
X427559Y514211D02*
X433366D01*
X427559Y513857D02*
X433342D01*
X432589Y492597D02*
X433081D01*
X428346Y534762D02*
X433076D01*
X427559Y513503D02*
X433066D01*
X395866Y413936D02*
X433034D01*
X432735Y472046D02*
X432934D01*
X427559Y513148D02*
X432874D01*
X428346Y538660D02*
X432782D01*
X427559Y512794D02*
X432752D01*
X427550Y512440D02*
X432658D01*
X395866Y413581D02*
X432612D01*
X428346Y535117D02*
X432606D01*
X431825Y567715D02*
X432598D01*
X408625Y436967D02*
X432556D01*
X428346Y538306D02*
X432423D01*
X428346Y535471D02*
X432307D01*
X395866Y413227D02*
X432290D01*
X406102Y553188D02*
X432255D01*
X411516Y441573D02*
X432219D01*
X428346Y537951D02*
X432183D01*
X428346Y535825D02*
X432105D01*
X416002Y412873D02*
X432038D01*
X428346Y537597D02*
X432024D01*
X428346Y536180D02*
X431976D01*
X428346Y537243D02*
X431930D01*
X428346Y536534D02*
X431906D01*
X408979Y437322D02*
X431895D01*
X428346Y536888D02*
X431891D01*
X416635Y412518D02*
X431840D01*
X416896Y412164D02*
X431687D01*
X411516Y441219D02*
X431601D01*
X417020Y411810D02*
X431575D01*
X421538Y411455D02*
X431499D01*
X422711Y411101D02*
X431457D01*
X409334Y437676D02*
X431425D01*
X406102Y553542D02*
X431373D01*
X423489Y410747D02*
X431308D01*
X411516Y440865D02*
X431242D01*
X409688Y438030D02*
X431125D01*
X400618Y419605D02*
X431111D01*
X411515Y440510D02*
X431002D01*
X409112Y553896D02*
X430954D01*
X424097Y410392D02*
X430954D01*
X410042Y438385D02*
X430924D01*
X430315Y425274D02*
X430906D01*
X411468Y440156D02*
X430843D01*
X410397Y438739D02*
X430795D01*
X411339Y439802D02*
X430748D01*
X410751Y439093D02*
X430725D01*
X411100Y439448D02*
X430710D01*
X409734Y554251D02*
X430680D01*
X424601Y410038D02*
X430599D01*
X410095Y554605D02*
X430496D01*
X424292Y527322D02*
X430464D01*
X410335Y554959D02*
X430380D01*
X410494Y555314D02*
X430323D01*
X410638Y555668D02*
X430253D01*
X425032Y409684D02*
X430245D01*
X409154Y501810D02*
X430136D01*
X401336Y419959D02*
X430120D01*
X424515Y526967D02*
X429932D01*
X425407Y409329D02*
X429891D01*
X427513Y520235D02*
X429875D01*
X409154Y502164D02*
X429776D01*
X401608Y420314D02*
X429682D01*
X424666Y526613D02*
X429605D01*
X409154Y502518D02*
X429598D01*
X425737Y408975D02*
X429544D01*
X408271Y436613D02*
X429541D01*
X409154Y502873D02*
X429530D01*
X409154Y504290D02*
X429528D01*
X409154Y503936D02*
X429528D01*
X409154Y503581D02*
X429528D01*
X409154Y503227D02*
X429528D01*
X409154Y504644D02*
X429489D01*
X427364Y520589D02*
X429441D01*
X424759Y526259D02*
X429386D01*
X401739Y420668D02*
X429328D01*
X424803Y524487D02*
X429243D01*
X424801Y525904D02*
X429242D01*
X427060Y520944D02*
X429233D01*
X428664Y430589D02*
X429210D01*
X424803Y524133D02*
X429170D01*
X424803Y524841D02*
X429161D01*
X424803Y525550D02*
X429160D01*
X424335Y521298D02*
X429143D01*
X424803Y525196D02*
X429134D01*
X424803Y523778D02*
X429134D01*
X424803Y523424D02*
X429134D01*
X424803Y523070D02*
X429134D01*
X424803Y522715D02*
X429134D01*
X424757Y522361D02*
X429134D01*
X424622Y522007D02*
X429134D01*
X424368Y521652D02*
X429134D01*
X428404Y472046D02*
X428918D01*
X427460Y512085D02*
X428829D01*
X407916Y436259D02*
X428819D01*
X407562Y435904D02*
X428420D01*
X401772Y421022D02*
X428289D01*
X427252Y511731D02*
X428093D01*
X407208Y435550D02*
X428065D01*
X401539Y425274D02*
X427953D01*
X406853Y435196D02*
X427711D01*
X401772Y421377D02*
X427667D01*
X427030Y511377D02*
X427574D01*
X401709Y424920D02*
X427485D01*
X401772Y421731D02*
X427307D01*
X401770Y424566D02*
X427187D01*
X401772Y422085D02*
X427067D01*
X401772Y424211D02*
X426986D01*
X401772Y422440D02*
X426907D01*
X401772Y423857D02*
X426857D01*
X401772Y422794D02*
X426812D01*
X401772Y423503D02*
X426788D01*
X401772Y423148D02*
X426773D01*
X423848Y556022D02*
X426684D01*
X406499Y434841D02*
X426612D01*
X424045Y559920D02*
X426486D01*
X401131Y430589D02*
X426454D01*
X424129Y560274D02*
X426403D01*
X424153Y556377D02*
X426378D01*
X424252Y559566D02*
X426279D01*
X424293Y560629D02*
X426239D01*
X424304Y556731D02*
X426228D01*
X424342Y559211D02*
X426190D01*
X424348Y563109D02*
X426183D01*
X424350Y560983D02*
X426182D01*
X424350Y562755D02*
X426181D01*
X424350Y562400D02*
X426181D01*
X424350Y562046D02*
X426181D01*
X424350Y561692D02*
X426181D01*
X424350Y561337D02*
X426181D01*
X424350Y558857D02*
X426181D01*
X424350Y558503D02*
X426181D01*
X424350Y558148D02*
X426181D01*
X424350Y557794D02*
X426181D01*
X424350Y557440D02*
X426181D01*
X424350Y557085D02*
X426181D01*
X406145Y434487D02*
X426041D01*
X402225Y430944D02*
X425954D01*
X425322Y495786D02*
X425859D01*
X405790Y434133D02*
X425698D01*
X402947Y431298D02*
X425641D01*
X405436Y433778D02*
X425469D01*
X403310Y431652D02*
X425431D01*
X405082Y433424D02*
X425318D01*
X403664Y432007D02*
X425294D01*
X404727Y433070D02*
X425230D01*
X404019Y432361D02*
X425218D01*
X404373Y432715D02*
X425197D01*
X411530Y495786D02*
X423103D01*
X411516Y495432D02*
X422605D01*
X406045Y551770D02*
X421453D01*
X405881Y551416D02*
X420853D01*
X405549Y551062D02*
X420487D01*
X397736Y550707D02*
X420235D01*
X397736Y550353D02*
X420062D01*
X397736Y549999D02*
X419951D01*
X397736Y549644D02*
X419893D01*
X397736Y549290D02*
X419882D01*
X397736Y548936D02*
X419882D01*
X397736Y548581D02*
X419882D01*
X397736Y548227D02*
X419882D01*
X397736Y547873D02*
X419882D01*
X397736Y547518D02*
X419882D01*
X397736Y547164D02*
X419882D01*
X397736Y546810D02*
X419882D01*
X415349Y556022D02*
X419735D01*
X411516Y495077D02*
X419620D01*
X415643Y559920D02*
X419537D01*
X415025Y560274D02*
X419454D01*
X412795Y528030D02*
X419437D01*
X415819Y556377D02*
X419429D01*
X416002Y559566D02*
X419330D01*
X414296Y560629D02*
X419290D01*
X416119Y556731D02*
X419279D01*
X416242Y559211D02*
X419241D01*
X414345Y563109D02*
X419234D01*
X414350Y560983D02*
X419233D01*
X414350Y562755D02*
X419232D01*
X414350Y562400D02*
X419232D01*
X414350Y562046D02*
X419232D01*
X414350Y561692D02*
X419232D01*
X414350Y561337D02*
X419232D01*
X416401Y558857D02*
X419232D01*
X416496Y558503D02*
X419232D01*
X416534Y558148D02*
X419232D01*
X416519Y557794D02*
X419232D01*
X416450Y557440D02*
X419232D01*
X416320Y557085D02*
X419232D01*
X411516Y494723D02*
X419130D01*
X412795Y527676D02*
X418942D01*
X411516Y494369D02*
X418774D01*
X409154Y504999D02*
X418663D01*
X412795Y527322D02*
X418621D01*
X411516Y494014D02*
X418420D01*
X412795Y526967D02*
X418398D01*
X409154Y505353D02*
X418332D01*
X412795Y526613D02*
X418247D01*
X417047Y411455D02*
X418225D01*
X409154Y505707D02*
X418168D01*
X412795Y526259D02*
X418154D01*
X412795Y525904D02*
X418113D01*
X409154Y506062D02*
X418111D01*
X412795Y525550D02*
X418110D01*
X412795Y525196D02*
X418110D01*
X412795Y524841D02*
X418110D01*
X412795Y524487D02*
X418110D01*
X412795Y524133D02*
X418110D01*
X416277Y523778D02*
X418110D01*
X416911Y523424D02*
X418110D01*
X417171Y523070D02*
X418110D01*
X417295Y522715D02*
X418110D01*
X417323Y522361D02*
X418110D01*
X417323Y522007D02*
X418110D01*
X417323Y521652D02*
X418110D01*
X417323Y521298D02*
X418110D01*
X417323Y520944D02*
X418110D01*
X417323Y520589D02*
X418110D01*
X417323Y520235D02*
X418110D01*
X417323Y519881D02*
X418110D01*
X417323Y519526D02*
X418110D01*
X417323Y519172D02*
X418110D01*
X417323Y518818D02*
X418110D01*
X417323Y518463D02*
X418110D01*
X417323Y518109D02*
X418110D01*
X417323Y517755D02*
X418110D01*
X417323Y517400D02*
X418110D01*
X417323Y517046D02*
X418110D01*
X417323Y516692D02*
X418110D01*
X417323Y516337D02*
X418110D01*
X417323Y515983D02*
X418110D01*
X417323Y515629D02*
X418110D01*
X417323Y515274D02*
X418110D01*
X417323Y514920D02*
X418110D01*
X417323Y514566D02*
X418110D01*
X417323Y514211D02*
X418110D01*
X417323Y513857D02*
X418110D01*
X417323Y513503D02*
X418110D01*
X417323Y513148D02*
X418110D01*
X417323Y512794D02*
X418110D01*
X417323Y512440D02*
X418110D01*
X417323Y512085D02*
X418110D01*
X417321Y511731D02*
X418110D01*
X417283Y511377D02*
X418110D01*
X417187Y511022D02*
X418110D01*
X417028Y510668D02*
X418110D01*
X416788Y510314D02*
X418110D01*
X416427Y509959D02*
X418110D01*
X415805Y509605D02*
X418110D01*
X412762Y509251D02*
X418110D01*
X412673Y508896D02*
X418110D01*
X412522Y508542D02*
X418110D01*
X412292Y508188D02*
X418110D01*
X411948Y507833D02*
X418110D01*
X411374Y507479D02*
X418110D01*
X409154Y507125D02*
X418110D01*
X409154Y506770D02*
X418110D01*
X409154Y506416D02*
X418110D01*
X411516Y493660D02*
X418065D01*
X411516Y493306D02*
X417728D01*
X411516Y492951D02*
X417488D01*
X411516Y492597D02*
X416703D01*
X414267Y563463D02*
X416625D01*
X411516Y472046D02*
X416556D01*
X411516Y492243D02*
X416224D01*
X411516Y472400D02*
X416162D01*
X414076Y563818D02*
X416021D01*
X411516Y491888D02*
X416000D01*
X411516Y472755D02*
X415970D01*
X411516Y491534D02*
X415900D01*
X411516Y473109D02*
X415891D01*
X411516Y491180D02*
X415886D01*
X411516Y490825D02*
X415886D01*
X411516Y490471D02*
X415886D01*
X411516Y490117D02*
X415886D01*
X411516Y489762D02*
X415886D01*
X411516Y489408D02*
X415886D01*
X411516Y489054D02*
X415886D01*
X411516Y488699D02*
X415886D01*
X411516Y488345D02*
X415886D01*
X411516Y487991D02*
X415886D01*
X411516Y487636D02*
X415886D01*
X411516Y487282D02*
X415886D01*
X411516Y486928D02*
X415886D01*
X411516Y486573D02*
X415886D01*
X411516Y486219D02*
X415886D01*
X411516Y485865D02*
X415886D01*
X411516Y485510D02*
X415886D01*
X411516Y485156D02*
X415886D01*
X411516Y484802D02*
X415886D01*
X411516Y484448D02*
X415886D01*
X411516Y484093D02*
X415886D01*
X411516Y483739D02*
X415886D01*
X411516Y483385D02*
X415886D01*
X411516Y483030D02*
X415886D01*
X411516Y482676D02*
X415886D01*
X411516Y482322D02*
X415886D01*
X411516Y481967D02*
X415886D01*
X411516Y481613D02*
X415886D01*
X411516Y481259D02*
X415886D01*
X411516Y480904D02*
X415886D01*
X411516Y480550D02*
X415886D01*
X411516Y480196D02*
X415886D01*
X411516Y479841D02*
X415886D01*
X411516Y479487D02*
X415886D01*
X411516Y479133D02*
X415886D01*
X411516Y478778D02*
X415886D01*
X411516Y478424D02*
X415886D01*
X411516Y478070D02*
X415886D01*
X411516Y477715D02*
X415886D01*
X411516Y477361D02*
X415886D01*
X411516Y477007D02*
X415886D01*
X411516Y476652D02*
X415886D01*
X411516Y476298D02*
X415886D01*
X411516Y475944D02*
X415886D01*
X411516Y475589D02*
X415886D01*
X411516Y475235D02*
X415886D01*
X411516Y474881D02*
X415886D01*
X411516Y474526D02*
X415886D01*
X411516Y474172D02*
X415886D01*
X411516Y473818D02*
X415886D01*
X411516Y473463D02*
X415886D01*
X413684Y564172D02*
X415663D01*
X413480Y564526D02*
X415408D01*
X414045Y564881D02*
X414538D01*
X412795Y509605D02*
X414116D01*
X412795Y509959D02*
X413494D01*
X412852Y510314D02*
X413133D01*
X409154Y500392D02*
X410551D01*
X405988Y564526D02*
X410102D01*
X406088Y564172D02*
X409898D01*
X405774Y564881D02*
X409538D01*
X397736Y559920D02*
X409537D01*
X406102Y563818D02*
X409507D01*
X409225Y507479D02*
X409492D01*
X397736Y560274D02*
X409454D01*
X397736Y559566D02*
X409330D01*
X406102Y563463D02*
X409315D01*
X397736Y560629D02*
X409290D01*
X407047Y559211D02*
X409241D01*
X406102Y563109D02*
X409237D01*
X405645Y560983D02*
X409233D01*
X405910Y565235D02*
X409232D01*
X406102Y562755D02*
X409232D01*
X406102Y562400D02*
X409232D01*
X406102Y562046D02*
X409232D01*
X406066Y561692D02*
X409232D01*
X405928Y561337D02*
X409232D01*
X408232Y558857D02*
X409232D01*
X408842Y558503D02*
X409203D01*
X406823Y565589D02*
X409082D01*
X408606Y567361D02*
X409035D01*
X408344Y567007D02*
X409035D01*
X407995Y566652D02*
X409035D01*
X407641Y566298D02*
X409035D01*
X407286Y565944D02*
X409035D01*
X397736Y546455D02*
X408382D01*
X406945Y539369D02*
X408268D01*
X406238Y539723D02*
X408267D01*
X407745Y539014D02*
X408265D01*
X401058Y540077D02*
X407974D01*
X400590Y540432D02*
X407619D01*
X406102Y553896D02*
X407423D01*
X397736Y540786D02*
X407265D01*
X397736Y546101D02*
X407163D01*
X397736Y541140D02*
X406911D01*
X406097Y554251D02*
X406801D01*
X397736Y545747D02*
X406695D01*
X397736Y541495D02*
X406562D01*
X406066Y554605D02*
X406441D01*
X397736Y545392D02*
X406387D01*
X397736Y541849D02*
X406295D01*
X397736Y545038D02*
X406174D01*
X397736Y542203D02*
X406110D01*
X397736Y544684D02*
X406029D01*
X397736Y542558D02*
X405989D01*
X397736Y544329D02*
X405942D01*
X397736Y542912D02*
X405922D01*
X397736Y543975D02*
X405907D01*
X397736Y543621D02*
X405905D01*
X397736Y543266D02*
X405905D01*
X395866Y412873D02*
X405494D01*
X395866Y412518D02*
X404861D01*
X395866Y412164D02*
X404601D01*
X395866Y411810D02*
X404476D01*
X395866Y411455D02*
X404449D01*
X395866Y411101D02*
X404449D01*
X395866Y410747D02*
X404449D01*
X395866Y410392D02*
X404449D01*
X395866Y410038D02*
X404449D01*
X395866Y409684D02*
X404449D01*
X395866Y409329D02*
X404449D01*
X395866Y408975D02*
X404449D01*
X395866Y408621D02*
X404449D01*
X395866Y408266D02*
X404449D01*
X395866Y407912D02*
X404449D01*
X395866Y407558D02*
X404449D01*
X395866Y407203D02*
X404449D01*
X395866Y406849D02*
X404449D01*
X395866Y406495D02*
X404449D01*
X395866Y406140D02*
X404449D01*
X395866Y405786D02*
X404449D01*
X395866Y405432D02*
X404449D01*
X395866Y405077D02*
X404449D01*
X395866Y404723D02*
X404449D01*
X395866Y404369D02*
X404449D01*
X395866Y404014D02*
X404449D01*
X395866Y403660D02*
X404449D01*
X395867Y403306D02*
X404449D01*
X395917Y402951D02*
X404449D01*
X396046Y402597D02*
X404449D01*
X396275Y402243D02*
X404449D01*
X396618Y401888D02*
X404449D01*
X396973Y401534D02*
X404449D01*
X397327Y401180D02*
X404449D01*
X397681Y400825D02*
X404449D01*
X398036Y400471D02*
X404449D01*
X398390Y400117D02*
X404449D01*
X398744Y399762D02*
X404449D01*
X399099Y399408D02*
X404449D01*
X399453Y399054D02*
X404449D01*
X399807Y398699D02*
X404449D01*
X400162Y398345D02*
X404449D01*
X400516Y397991D02*
X404449D01*
X400870Y397636D02*
X404449D01*
X401225Y397282D02*
X404449D01*
X401579Y396928D02*
X404449D01*
X401933Y396573D02*
X404449D01*
X402313Y396219D02*
X404449D01*
X401357Y539723D02*
X403211D01*
X401557Y539369D02*
X402578D01*
X401686Y539014D02*
X402317D01*
X401756Y538660D02*
X402193D01*
X401861Y538306D02*
X402080D01*
X397736Y559211D02*
X401589D01*
X397736Y551062D02*
X401537D01*
X397736Y560983D02*
X401441D01*
X399334Y564881D02*
X401313D01*
X397736Y554959D02*
X401259D01*
X397736Y555314D02*
X401232D01*
X397736Y558857D02*
X401230D01*
X397736Y551416D02*
X401206D01*
X397736Y561337D02*
X401158D01*
X399702Y565235D02*
X401149D01*
X398979Y564526D02*
X401099D01*
X397736Y554605D02*
X401067D01*
X397736Y555668D02*
X401054D01*
X397736Y558503D02*
X401054D01*
X397736Y551770D02*
X401042D01*
X397736Y561692D02*
X401021D01*
X398625Y564172D02*
X400998D01*
X397736Y554251D02*
X400989D01*
X397736Y556022D02*
X400987D01*
X397736Y558148D02*
X400986D01*
X397736Y552125D02*
X400985D01*
X398271Y563818D02*
X400984D01*
X397916Y563463D02*
X400984D01*
X397736Y563109D02*
X400984D01*
X397736Y562755D02*
X400984D01*
X397736Y562400D02*
X400984D01*
X397736Y562046D02*
X400984D01*
X397736Y557794D02*
X400984D01*
X397736Y557440D02*
X400984D01*
X397736Y557085D02*
X400984D01*
X397736Y556731D02*
X400984D01*
X397736Y556377D02*
X400984D01*
X397736Y553896D02*
X400984D01*
X397736Y553542D02*
X400984D01*
X397736Y553188D02*
X400984D01*
X397736Y552833D02*
X400984D01*
X397736Y552479D02*
X400984D01*
X397741Y540432D02*
X398229D01*
X395866Y419605D02*
X396626D01*
X479939Y659487D02*
X493898D01*
X479392Y659133D02*
X493898D01*
X450591Y658778D02*
X493898D01*
X450591Y658424D02*
X493898D01*
X450591Y658070D02*
X493898D01*
X450591Y657715D02*
X493898D01*
X450591Y657361D02*
X493898D01*
X450591Y657007D02*
X493898D01*
X450591Y656652D02*
X493898D01*
X450591Y656298D02*
X493898D01*
X450591Y655944D02*
X493898D01*
X450591Y655589D02*
X493898D01*
X450591Y655235D02*
X493898D01*
X450591Y654881D02*
X493898D01*
X450591Y654526D02*
X493898D01*
X450591Y654172D02*
X493898D01*
X450591Y653818D02*
X493898D01*
X450591Y653463D02*
X493898D01*
X450591Y653109D02*
X493898D01*
X450591Y652755D02*
X493898D01*
X450591Y652400D02*
X493898D01*
X450591Y652046D02*
X493898D01*
X450591Y651692D02*
X493898D01*
X450591Y651337D02*
X493898D01*
X450591Y650983D02*
X493898D01*
X450591Y650629D02*
X493898D01*
X450591Y650274D02*
X493898D01*
X450591Y649920D02*
X493898D01*
X450591Y649566D02*
X493898D01*
X450591Y649211D02*
X493898D01*
X450591Y648857D02*
X493898D01*
X450591Y648503D02*
X493898D01*
X450591Y648148D02*
X493898D01*
X450591Y647794D02*
X493898D01*
X450591Y647440D02*
X493898D01*
X487409Y647085D02*
X493898D01*
X488314Y646731D02*
X493898D01*
X488886Y646377D02*
X493898D01*
X489314Y646022D02*
X493898D01*
X489654Y645668D02*
X493898D01*
X489929Y645314D02*
X493898D01*
X490154Y644959D02*
X493898D01*
X490335Y644605D02*
X493898D01*
X490480Y644251D02*
X493898D01*
X490592Y643896D02*
X493898D01*
X490672Y643542D02*
X493898D01*
X490723Y643188D02*
X493898D01*
X490747Y642833D02*
X493898D01*
X490742Y642479D02*
X493898D01*
X490709Y642125D02*
X493898D01*
X490648Y641770D02*
X493898D01*
X490557Y641416D02*
X493898D01*
X490435Y641062D02*
X493898D01*
X490278Y640707D02*
X493898D01*
X490082Y640353D02*
X493898D01*
X489842Y639999D02*
X493898D01*
X489546Y639644D02*
X493898D01*
X489180Y639290D02*
X493898D01*
X488711Y638936D02*
X493898D01*
X488064Y638581D02*
X493898D01*
X486806Y638227D02*
X493898D01*
X450591Y637873D02*
X493898D01*
X450660Y637518D02*
X493898D01*
X487668Y637164D02*
X493898D01*
X488459Y636810D02*
X493898D01*
X488990Y636455D02*
X493898D01*
X489396Y636101D02*
X493898D01*
X489720Y635747D02*
X493898D01*
X489983Y635392D02*
X493898D01*
X490197Y635038D02*
X493898D01*
X490371Y634684D02*
X493898D01*
X490508Y634329D02*
X493898D01*
X490612Y633975D02*
X493898D01*
X490686Y633621D02*
X493898D01*
X490731Y633266D02*
X493898D01*
X490748Y632912D02*
X493898D01*
X490737Y632558D02*
X493898D01*
X490698Y632203D02*
X493898D01*
X490631Y631849D02*
X493898D01*
X490533Y631495D02*
X493898D01*
X490403Y631140D02*
X493898D01*
X490238Y630786D02*
X493898D01*
X490033Y630432D02*
X493898D01*
X489781Y630077D02*
X493898D01*
X489472Y629723D02*
X493898D01*
X489086Y629369D02*
X493898D01*
X488587Y629014D02*
X493898D01*
X487876Y628660D02*
X493898D01*
X483134Y628306D02*
X493898D01*
X483539Y627951D02*
X493898D01*
X484167Y627597D02*
X493898D01*
X487883Y627243D02*
X493898D01*
X488592Y626888D02*
X493898D01*
X489089Y626534D02*
X493898D01*
X489474Y626180D02*
X493898D01*
X489783Y625825D02*
X493898D01*
X490035Y625471D02*
X493898D01*
X490239Y625117D02*
X493898D01*
X490404Y624762D02*
X493898D01*
X490534Y624408D02*
X493898D01*
X490631Y624054D02*
X493898D01*
X490699Y623699D02*
X493898D01*
X490737Y623345D02*
X493898D01*
X490748Y622991D02*
X493898D01*
X490731Y622636D02*
X493898D01*
X490686Y622282D02*
X493898D01*
X490611Y621928D02*
X493898D01*
X490507Y621573D02*
X493898D01*
X490369Y621219D02*
X493898D01*
X490196Y620865D02*
X493898D01*
X489981Y620510D02*
X493898D01*
X489718Y620156D02*
X493898D01*
X489394Y619802D02*
X493898D01*
X488987Y619448D02*
X493898D01*
X488454Y619093D02*
X493898D01*
X487660Y618739D02*
X493898D01*
X450591Y618385D02*
X493898D01*
X450591Y618030D02*
X493898D01*
X489703Y617676D02*
X493898D01*
X490336Y617322D02*
X493898D01*
X490596Y616967D02*
X493898D01*
X490720Y616613D02*
X493898D01*
X490748Y616259D02*
X493898D01*
X490748Y615904D02*
X493898D01*
X490748Y615550D02*
X493898D01*
X490748Y615196D02*
X493898D01*
X490748Y614841D02*
X493898D01*
X490748Y614487D02*
X493898D01*
X490748Y614133D02*
X493898D01*
X490748Y613778D02*
X493898D01*
X490748Y613424D02*
X493898D01*
X490748Y613070D02*
X493898D01*
X490748Y612715D02*
X493898D01*
X490748Y612361D02*
X493898D01*
X490748Y612007D02*
X493898D01*
X490748Y611652D02*
X493898D01*
X490748Y611298D02*
X493898D01*
X490748Y610944D02*
X493898D01*
X490748Y610589D02*
X493898D01*
X490748Y610235D02*
X493898D01*
X480181Y659841D02*
X493883D01*
X490739Y609881D02*
X493862D01*
X488126Y660196D02*
X493801D01*
X490649Y609526D02*
X493749D01*
X488409Y660550D02*
X493633D01*
X490441Y609172D02*
X493542D01*
X488546Y660904D02*
X493345D01*
X490013Y608818D02*
X493187D01*
X488583Y661259D02*
X492991D01*
X488583Y661613D02*
X492636D01*
X488583Y661967D02*
X492282D01*
X488583Y662322D02*
X491928D01*
X488583Y662676D02*
X491573D01*
X488583Y663030D02*
X491219D01*
X488583Y663385D02*
X490865D01*
X488574Y663739D02*
X490510D01*
X488485Y664093D02*
X490156D01*
X488402Y664448D02*
X489802D01*
X488517Y664802D02*
X489447D01*
X488574Y665156D02*
X489093D01*
X469090Y638227D02*
X485635D01*
X469693Y647085D02*
X485032D01*
X470359Y637164D02*
X484773D01*
X482779Y628660D02*
X484565D01*
X472423Y618739D02*
X484397D01*
X470348Y638581D02*
X484377D01*
X470598Y646731D02*
X484127D01*
X472400Y636810D02*
X483982D01*
X482425Y629014D02*
X483853D01*
X470995Y638936D02*
X483730D01*
X471169Y646377D02*
X483555D01*
X473505Y636455D02*
X483450D01*
X482071Y629369D02*
X483355D01*
X471463Y639290D02*
X483261D01*
X471598Y646022D02*
X483127D01*
X474347Y636101D02*
X483045D01*
X481716Y629723D02*
X482969D01*
X471830Y639644D02*
X482895D01*
X471937Y645668D02*
X482787D01*
X450591Y617676D02*
X482738D01*
X475043Y635747D02*
X482721D01*
X481362Y630077D02*
X482660D01*
X472125Y639999D02*
X482599D01*
X472213Y645314D02*
X482512D01*
X475642Y635392D02*
X482458D01*
X475317Y608818D02*
X482428D01*
X481008Y630432D02*
X482408D01*
X472366Y640353D02*
X482359D01*
X472783Y619093D02*
X482335D01*
X472437Y644959D02*
X482287D01*
X476170Y635038D02*
X482244D01*
X480653Y630786D02*
X482203D01*
X472561Y640707D02*
X482163D01*
X472619Y644605D02*
X482106D01*
X450591Y617322D02*
X482105D01*
X476643Y634684D02*
X482070D01*
X480299Y631140D02*
X482038D01*
X472718Y641062D02*
X482006D01*
X474962Y609172D02*
X482000D01*
X472764Y644251D02*
X481961D01*
X477070Y634329D02*
X481933D01*
X479945Y631495D02*
X481908D01*
X472841Y641416D02*
X481884D01*
X472875Y643896D02*
X481849D01*
X450591Y616967D02*
X481845D01*
X477459Y633975D02*
X481829D01*
X479590Y631849D02*
X481810D01*
X472932Y641770D02*
X481793D01*
X474755Y609526D02*
X481792D01*
X472956Y643542D02*
X481769D01*
X477819Y633621D02*
X481755D01*
X479236Y632203D02*
X481743D01*
X472993Y642125D02*
X481732D01*
X450591Y616613D02*
X481720D01*
X473007Y643188D02*
X481717D01*
X478173Y633266D02*
X481710D01*
X478882Y632558D02*
X481704D01*
X474642Y609881D02*
X481702D01*
X473025Y642479D02*
X481699D01*
X473030Y642833D02*
X481694D01*
X478527Y632912D02*
X481693D01*
X473024Y616259D02*
X481693D01*
X473742Y615904D02*
X481693D01*
X474112Y615550D02*
X481693D01*
X474350Y615196D02*
X481693D01*
X474501Y614841D02*
X481693D01*
X474583Y614487D02*
X481693D01*
X474606Y614133D02*
X481693D01*
X474606Y613778D02*
X481693D01*
X474606Y613424D02*
X481693D01*
X474606Y613070D02*
X481693D01*
X474606Y612715D02*
X481693D01*
X474606Y612361D02*
X481693D01*
X474606Y612007D02*
X481693D01*
X474606Y611652D02*
X481693D01*
X474606Y611298D02*
X481693D01*
X474606Y610944D02*
X481693D01*
X474606Y610589D02*
X481693D01*
X474606Y610235D02*
X481693D01*
X472961Y619448D02*
X481226D01*
X473029Y619802D02*
X480383D01*
X473032Y620156D02*
X479687D01*
X473032Y620510D02*
X479087D01*
X473032Y620865D02*
X478558D01*
X473032Y621219D02*
X478085D01*
X473032Y621573D02*
X477657D01*
X473032Y621928D02*
X477268D01*
X473032Y622282D02*
X476908D01*
X473032Y622636D02*
X476554D01*
X474274Y659133D02*
X476513D01*
X473032Y622991D02*
X476200D01*
X474821Y659487D02*
X475967D01*
X473032Y623345D02*
X475845D01*
X475063Y659841D02*
X475724D01*
X475176Y660196D02*
X475611D01*
X475242Y660550D02*
X475546D01*
X473032Y623699D02*
X475491D01*
X473032Y624054D02*
X475137D01*
X473032Y624408D02*
X474782D01*
X473032Y624762D02*
X474428D01*
X473032Y625117D02*
X474074D01*
X473032Y625471D02*
X473719D01*
X473092Y625825D02*
X473365D01*
X450591Y659133D02*
X471395D01*
X395947Y627597D02*
X471238D01*
X395866Y627951D02*
X471189D01*
X450591Y659487D02*
X470849D01*
X450583Y659841D02*
X470606D01*
X395866Y628306D02*
X470564D01*
X425995Y666928D02*
X469094D01*
X427033Y666573D02*
X469094D01*
X427651Y666219D02*
X469094D01*
X428010Y665865D02*
X469094D01*
X428250Y665510D02*
X469094D01*
X428409Y665156D02*
X469094D01*
X428504Y664802D02*
X469073D01*
X450531Y660196D02*
X468643D01*
X428542Y664448D02*
X468307D01*
X450426Y660550D02*
X468021D01*
X450591Y638227D02*
X467918D01*
X428527Y664093D02*
X467839D01*
X450260Y660904D02*
X467661D01*
X428457Y663739D02*
X467541D01*
X450018Y661259D02*
X467421D01*
X428328Y663385D02*
X467340D01*
X450591Y647085D02*
X467315D01*
X449668Y661613D02*
X467262D01*
X428127Y663030D02*
X467211D01*
X449108Y661967D02*
X467166D01*
X427827Y662676D02*
X467142D01*
X427357Y662322D02*
X467127D01*
X450591Y638581D02*
X466660D01*
X450591Y646731D02*
X466410D01*
X450591Y638936D02*
X466013D01*
X450591Y646377D02*
X465839D01*
X450591Y639290D02*
X465545D01*
X450591Y646022D02*
X465410D01*
X450591Y639644D02*
X465178D01*
X450591Y645668D02*
X465071D01*
X450591Y639999D02*
X464883D01*
X450591Y645314D02*
X464795D01*
X450591Y640353D02*
X464642D01*
X450591Y618739D02*
X464585D01*
X450591Y644959D02*
X464571D01*
X449774Y627243D02*
X464476D01*
X450591Y640707D02*
X464447D01*
X450591Y644605D02*
X464389D01*
X450591Y641062D02*
X464290D01*
X450591Y644251D02*
X464244D01*
X450591Y619093D02*
X464224D01*
X450252Y626888D02*
X464172D01*
X450591Y641416D02*
X464167D01*
X450591Y643896D02*
X464133D01*
X450591Y641770D02*
X464076D01*
X450591Y643542D02*
X464052D01*
X450591Y619448D02*
X464047D01*
X450476Y626534D02*
X464022D01*
X450591Y642125D02*
X464015D01*
X450591Y643188D02*
X464001D01*
X450591Y642479D02*
X463983D01*
X450591Y619802D02*
X463979D01*
X450591Y642833D02*
X463978D01*
X450577Y626180D02*
X463976D01*
X450591Y625825D02*
X463976D01*
X450591Y625471D02*
X463976D01*
X450591Y625117D02*
X463976D01*
X450591Y624762D02*
X463976D01*
X450591Y624408D02*
X463976D01*
X450591Y624054D02*
X463976D01*
X450591Y623699D02*
X463976D01*
X450591Y623345D02*
X463976D01*
X450591Y622991D02*
X463976D01*
X450591Y622636D02*
X463976D01*
X450591Y622282D02*
X463976D01*
X450591Y621928D02*
X463976D01*
X450591Y621573D02*
X463976D01*
X450591Y621219D02*
X463976D01*
X450591Y620865D02*
X463976D01*
X450591Y620510D02*
X463976D01*
X450591Y620156D02*
X463976D01*
X450591Y616259D02*
X452173D01*
X450591Y615904D02*
X451455D01*
X450591Y615550D02*
X451084D01*
X425766Y661967D02*
X443608D01*
X425689Y661613D02*
X443048D01*
X425689Y661259D02*
X442698D01*
X425689Y660904D02*
X442457D01*
X425689Y660550D02*
X442291D01*
X425689Y660196D02*
X442186D01*
X425689Y659841D02*
X442133D01*
X425689Y659487D02*
X442126D01*
X425689Y659133D02*
X442126D01*
X425689Y658778D02*
X442126D01*
X425689Y658424D02*
X442126D01*
X425689Y658070D02*
X442126D01*
X425689Y657715D02*
X442126D01*
X425684Y657361D02*
X442126D01*
X425605Y657007D02*
X442126D01*
X425412Y656652D02*
X442126D01*
X425019Y656298D02*
X442126D01*
X395866Y655944D02*
X442126D01*
X395866Y655589D02*
X442126D01*
X395866Y655235D02*
X442126D01*
X395866Y654881D02*
X442126D01*
X395866Y654526D02*
X442126D01*
X395866Y654172D02*
X442126D01*
X395866Y653818D02*
X442107D01*
X395866Y653463D02*
X441869D01*
X395866Y653109D02*
X441515D01*
X395866Y652755D02*
X441160D01*
X395866Y652400D02*
X440806D01*
X429265Y608818D02*
X440663D01*
X395866Y652046D02*
X440452D01*
X395866Y651692D02*
X440101D01*
X422922Y627243D02*
X439990D01*
X395866Y651337D02*
X439835D01*
X429127Y609172D02*
X439676D01*
X395866Y650983D02*
X439625D01*
X423631Y626888D02*
X439511D01*
X395866Y650629D02*
X439460D01*
X428956Y609526D02*
X439370D01*
X395866Y650274D02*
X439334D01*
X424129Y626534D02*
X439288D01*
X428746Y609881D02*
X439220D01*
X395866Y649920D02*
X439209D01*
X424514Y626180D02*
X439187D01*
X395866Y649566D02*
X439173D01*
X395866Y648503D02*
X439173D01*
X395866Y648148D02*
X439173D01*
X395866Y647794D02*
X439173D01*
X395866Y647440D02*
X439173D01*
X425052Y647085D02*
X439173D01*
X425482Y646731D02*
X439173D01*
X425689Y646377D02*
X439173D01*
X425779Y646022D02*
X439173D01*
X425787Y645668D02*
X439173D01*
X425787Y645314D02*
X439173D01*
X425787Y644959D02*
X439173D01*
X425787Y644605D02*
X439173D01*
X425787Y644251D02*
X439173D01*
X425787Y643896D02*
X439173D01*
X425787Y643542D02*
X439173D01*
X425787Y643188D02*
X439173D01*
X425787Y642833D02*
X439173D01*
X425787Y642479D02*
X439173D01*
X425787Y642125D02*
X439173D01*
X425787Y641770D02*
X439173D01*
X425787Y641416D02*
X439173D01*
X425787Y641062D02*
X439173D01*
X425787Y640707D02*
X439173D01*
X425787Y640353D02*
X439173D01*
X425787Y639999D02*
X439173D01*
X425787Y639644D02*
X439173D01*
X425759Y639290D02*
X439173D01*
X425634Y638936D02*
X439173D01*
X424823Y625825D02*
X439173D01*
X425074Y625471D02*
X439173D01*
X425279Y625117D02*
X439173D01*
X425443Y624762D02*
X439173D01*
X425573Y624408D02*
X439173D01*
X425670Y624054D02*
X439173D01*
X425738Y623699D02*
X439173D01*
X425777Y623345D02*
X439173D01*
X425787Y622991D02*
X439173D01*
X425770Y622636D02*
X439173D01*
X425725Y622282D02*
X439173D01*
X425651Y621928D02*
X439173D01*
X425546Y621573D02*
X439173D01*
X425409Y621219D02*
X439173D01*
X425235Y620865D02*
X439173D01*
X425021Y620510D02*
X439173D01*
X424757Y620156D02*
X439173D01*
X424433Y619802D02*
X439173D01*
X424132Y619448D02*
X439173D01*
X423894Y619093D02*
X439173D01*
X423657Y618739D02*
X439173D01*
X423622Y618385D02*
X439173D01*
X423622Y618030D02*
X439173D01*
X423622Y617676D02*
X439173D01*
X423622Y617322D02*
X439173D01*
X423622Y616967D02*
X439173D01*
X423622Y616613D02*
X439173D01*
X423622Y616259D02*
X439173D01*
X423622Y615904D02*
X439173D01*
X423622Y615550D02*
X439173D01*
X423626Y615196D02*
X439173D01*
X423933Y614841D02*
X439173D01*
X424287Y614487D02*
X439173D01*
X424641Y614133D02*
X439173D01*
X424996Y613778D02*
X439173D01*
X425350Y613424D02*
X439173D01*
X425704Y613070D02*
X439173D01*
X426059Y612715D02*
X439173D01*
X426413Y612361D02*
X439173D01*
X426767Y612007D02*
X439173D01*
X427122Y611652D02*
X439173D01*
X427476Y611298D02*
X439173D01*
X427830Y610944D02*
X439173D01*
X428183Y610589D02*
X439173D01*
X428492Y610235D02*
X439173D01*
X395866Y648857D02*
X439163D01*
X395866Y649211D02*
X439159D01*
X425373Y638581D02*
X439139D01*
X425335Y638227D02*
X438791D01*
X407335Y647085D02*
X417468D01*
X407618Y638227D02*
X417185D01*
X407656Y638581D02*
X417147D01*
X407766Y646731D02*
X417037D01*
X407918Y638936D02*
X416885D01*
X407973Y646377D02*
X416830D01*
X408043Y639290D02*
X416760D01*
X408062Y646022D02*
X416741D01*
X408071Y645668D02*
X416732D01*
X408071Y645314D02*
X416732D01*
X408071Y644959D02*
X416732D01*
X408071Y644605D02*
X416732D01*
X408071Y644251D02*
X416732D01*
X408071Y643896D02*
X416732D01*
X408071Y643542D02*
X416732D01*
X408071Y643188D02*
X416732D01*
X408071Y642833D02*
X416732D01*
X408071Y642479D02*
X416732D01*
X408071Y642125D02*
X416732D01*
X408071Y641770D02*
X416732D01*
X408071Y641416D02*
X416732D01*
X408071Y641062D02*
X416732D01*
X408071Y640707D02*
X416732D01*
X408071Y640353D02*
X416732D01*
X408071Y639999D02*
X416732D01*
X408071Y639644D02*
X416732D01*
X395866Y656298D02*
X401753D01*
X395866Y656652D02*
X401359D01*
X395866Y657007D02*
X401167D01*
X395866Y657361D02*
X401088D01*
X395866Y658778D02*
X401083D01*
X395866Y658424D02*
X401083D01*
X395866Y658070D02*
X401083D01*
X395866Y657715D02*
X401083D01*
X395866Y628660D02*
X400698D01*
X395866Y637873D02*
X400148D01*
X395866Y638227D02*
X400072D01*
X395866Y659133D02*
X399991D01*
X395866Y629014D02*
X399863D01*
X395866Y647085D02*
X399751D01*
X395866Y637518D02*
X399565D01*
X395866Y638581D02*
X399431D01*
X395866Y629369D02*
X399374D01*
X395866Y646731D02*
X399321D01*
X395866Y659487D02*
X399229D01*
X395866Y638936D02*
X399169D01*
X395866Y637164D02*
X399165D01*
X395866Y646377D02*
X399114D01*
X395866Y639290D02*
X399044D01*
X395866Y646022D02*
X399025D01*
X395866Y629723D02*
X399024D01*
X395866Y645668D02*
X399016D01*
X395866Y645314D02*
X399016D01*
X395866Y644959D02*
X399016D01*
X395866Y644605D02*
X399016D01*
X395866Y644251D02*
X399016D01*
X395866Y643896D02*
X399016D01*
X395866Y643542D02*
X399016D01*
X395866Y643188D02*
X399016D01*
X395866Y642833D02*
X399016D01*
X395866Y642479D02*
X399016D01*
X395866Y642125D02*
X399016D01*
X395866Y641770D02*
X399016D01*
X395866Y641416D02*
X399016D01*
X395866Y641062D02*
X399016D01*
X395866Y640707D02*
X399016D01*
X395866Y640353D02*
X399016D01*
X395866Y639999D02*
X399016D01*
X395866Y639644D02*
X399016D01*
X395866Y636810D02*
X398868D01*
X395880Y659841D02*
X398831D01*
X395866Y630077D02*
X398762D01*
X395866Y636455D02*
X398643D01*
X395963Y660196D02*
X398569D01*
X395866Y630432D02*
X398563D01*
X395866Y636101D02*
X398474D01*
X395866Y630786D02*
X398416D01*
X397836Y662322D02*
X398408D01*
X396131Y660550D02*
X398393D01*
X395866Y635747D02*
X398353D01*
X395866Y631140D02*
X398313D01*
X397482Y661967D02*
X398293D01*
X396419Y660904D02*
X398285D01*
X395866Y635392D02*
X398274D01*
X395866Y631495D02*
X398252D01*
X397127Y661613D02*
X398236D01*
X395866Y635038D02*
X398234D01*
X396773Y661259D02*
X398234D01*
X395866Y631849D02*
X398229D01*
X395866Y634684D02*
X398228D01*
X395866Y634329D02*
X398228D01*
X395866Y633975D02*
X398228D01*
X395866Y633621D02*
X398228D01*
X395866Y633266D02*
X398228D01*
X395866Y632912D02*
X398228D01*
X395866Y632558D02*
X398228D01*
X395866Y632203D02*
X398228D01*
X401575Y393701D02*
X488189D01*
X496063Y401575*
Y661417*
X488189Y669291*
X401575*
X393701Y661417*
Y401575*
X401575Y393701*
G54D15*
X442022Y495669D02*
G03X441326Y495381I-0J-984D01*
G01X442022Y495669D02*
X448018D01*
X443971Y493701D02*
G03X443275Y493413I-0J-984D01*
G01X443971Y493701D02*
X449002D01*
X439585Y490945D02*
X438858Y492913D01*
X438132Y490945*
X438858D02*
Y492913D01*
Y482283*
X443600Y490945D02*
X442874Y493012D01*
X442148Y490945*
X442874D02*
Y493012D01*
Y482283*
X438858Y492913D02*
X441326Y495381D01*
X442874Y493012D02*
X443275Y493413D01*
X448018Y495669D02*
G03X448713Y495958I-0J985D01*
G01X449515Y496759*
G03X449803Y497455I-696J696*
G01X449002Y493701D02*
G03X449698Y493989I-0J984D01*
G01X451483Y495775*
G03X451772Y496471I-696J696*
G01Y512106*
X455648Y490945D02*
X454921Y492913D01*
X454195Y490945*
X454921D02*
Y492913D01*
Y482283*
X459663Y490945D02*
X458937Y492913D01*
X458211Y490945*
X458937D02*
Y492913D01*
Y482283*
X447546Y499318D02*
G03X447835Y500014I-696J696D01*
G01X445578Y500302D02*
G03X445866Y500998I-696J696D01*
G01Y512106*
X443898Y498622D02*
X445578Y500302D01*
X446850Y498622D02*
X447546Y499318D01*
X449803Y497455D02*
Y512106D01*
X447835Y500014D02*
Y512106D01*
G54D17*
X427874Y469488D02*
G03X430827Y472441I0J2953D01*
G01Y482283*
X427165Y469488D02*
X427874D01*
G54D19*
X411791Y567323D02*
Y568898D01*
X416791Y567323D02*
Y568898D01*
X421791Y567323D02*
Y568898D01*
X426791Y567323D02*
Y568898D01*
Y588583D02*
Y590157D01*
X421791Y588583D02*
Y590157D01*
X416791Y588583D02*
Y590157D01*
X411791Y588583D02*
Y590157D01*
G54D23*
X404528Y537402D02*
X404921D01*
X404528Y533465D02*
X404921D01*
X480512Y551181D02*
X480118D01*
X480512Y555118D02*
X480118D01*
X471457Y582874D02*
Y582480D01*
X467520Y582874D02*
Y582480D01*
X410630Y594488D02*
X410236D01*
X410630Y598425D02*
X410236D01*
X443110Y576772D02*
X442717D01*
X443110Y580709D02*
X442717D01*
X463583Y528346D02*
Y528740D01*
X467520Y528346D02*
Y528740D01*
X436811Y507874D02*
X437205D01*
X436811Y503937D02*
X437205D01*
X466535Y507677D02*
Y508071D01*
X470472Y507677D02*
Y508071D01*
X463583Y533268D02*
Y533661D01*
X467520Y533268D02*
Y533661D01*
X421260Y513583D02*
Y513976D01*
X425197Y513583D02*
Y513976D01*
X462402Y570866D02*
X462795D01*
X462402Y566929D02*
X462795D01*
X456693Y504724D02*
Y505118D01*
X460630Y504724D02*
Y505118D01*
X403346Y557087D02*
X403740D01*
X403346Y553150D02*
X403740D01*
X487402Y576772D02*
X487008D01*
X487402Y580709D02*
X487008D01*
X400787Y594488D02*
X400394D01*
X400787Y598425D02*
X400394D01*
X477953Y661417D02*
Y663386D01*
X472835Y661417D02*
Y663386D01*
X486220Y662598D02*
Y662205D01*
X482283Y662598D02*
Y662205D01*
X401378Y575787D02*
X401772D01*
X401378Y571850D02*
X401772D01*
X411594Y562008D02*
X411988D01*
X411594Y558071D02*
X411988D01*
X434055Y595669D02*
Y595276D01*
X430118Y595669D02*
Y595276D01*
X438583Y536614D02*
Y537008D01*
X442520Y536614D02*
Y537008D01*
X452953Y537402D02*
X452559D01*
X452953Y541339D02*
X452559D01*
X448031Y537402D02*
X447638D01*
X448031Y541339D02*
X447638D01*
X431496Y522441D02*
Y522835D01*
X435433Y522441D02*
Y522835D01*
X457874Y537402D02*
X457480D01*
X457874Y541339D02*
X457480D01*
X452559Y551181D02*
X452953D01*
X452559Y547244D02*
X452953D01*
X457480Y551181D02*
X457874D01*
X457480Y547244D02*
X457874D01*
X447638Y551181D02*
X448031D01*
X447638Y547244D02*
X448031D01*
X466535Y503740D02*
Y504134D01*
X470472Y503740D02*
Y504134D01*
X421988Y558071D02*
X421594D01*
X421988Y562008D02*
X421594D01*
X442520Y541732D02*
Y541339D01*
X438583Y541732D02*
Y541339D01*
X451575Y580709D02*
X451969D01*
X451575Y576772D02*
X451969D01*
X456496Y580709D02*
X456890D01*
X456496Y576772D02*
X456890D01*
X432480Y562008D02*
X432874D01*
X432480Y558071D02*
X432874D01*
X428543Y562008D02*
X428937D01*
X428543Y558071D02*
X428937D01*
X403740Y562992D02*
X403346D01*
X403740Y566929D02*
X403346D01*
X467520Y522835D02*
Y522441D01*
X463583Y522835D02*
Y522441D01*
X441142Y563386D02*
X440748D01*
X441142Y567323D02*
X440748D01*
X431890Y507874D02*
X432283D01*
X431890Y503937D02*
X432283D01*
X421260Y518504D02*
Y518898D01*
X425197Y518504D02*
Y518898D01*
X479331Y516929D02*
Y516535D01*
X475394Y516929D02*
Y516535D01*
X471457Y589764D02*
Y589370D01*
X467520Y589764D02*
Y589370D01*
X486417Y523622D02*
X486024D01*
X486417Y527559D02*
X486024D01*
G54D26*
X427165Y437008D02*
X446457D01*
X448425Y435039*
X443898Y510728D02*
Y512106D01*
X436417Y507874D02*
X437008D01*
X442421Y509252D02*
G03X443898Y510728I0J1476D01*
G01X437008Y507874D02*
Y509252D01*
X442421*
X461259Y514331D02*
G03X460215Y514764I-1044J-1044D01*
G01X461259Y514331D02*
X464922Y510669D01*
G03X465966Y510236I1044J1044*
G01X466535*
X459034Y524606D02*
G03X460078Y525039I0J1477D01*
G01X463583Y528543*
X449803Y530118D02*
Y527264D01*
X479823Y528346D02*
Y527559D01*
X486220*
X456398Y524606D02*
X459034D01*
X456398Y522638D02*
X463583D01*
X456398Y514764D02*
X460215D01*
X467520Y522638D02*
X472933D01*
Y522835*
X463583Y528543D02*
Y533465D01*
X437992Y576969D02*
Y576772D01*
X440354*
X440945Y563386D02*
X447244D01*
X451339Y567481*
G03X451772Y568525I-1044J1044*
G01Y576772*
X456693D02*
Y570866D01*
X456693*
X462598*
X432087Y583858D02*
Y588386D01*
X436024Y595472D02*
Y588386D01*
X434055Y595472D02*
Y588386D01*
X451772Y582677D02*
Y580709D01*
X456693D02*
Y582677D01*
X486220Y559252D02*
Y557874D01*
X489961Y556299D02*
X487008D01*
X432480Y543307D02*
X431102D01*
X429528Y546457D02*
Y543504D01*
Y540157D02*
Y543110D01*
X485315Y403858D02*
X483937D01*
X479016Y412913D02*
Y406614D01*
X467520Y561811D02*
Y564764D01*
X410748Y412913D02*
Y406614D01*
X404449Y403858D02*
X405827D01*
X472933Y531693D02*
Y530315D01*
X427559Y518701D02*
X426181D01*
X425197Y521260D02*
Y518898D01*
X440945Y569685D02*
Y568307D01*
X438386Y567323D02*
X440748D01*
X419232Y558071D02*
X421594D01*
X421791Y555709D02*
Y557087D01*
X424350Y558071D02*
X421988D01*
X472835Y503937D02*
X471457D01*
X470472Y501378D02*
Y503740D01*
X400591Y600787D02*
Y599409D01*
X398031Y598425D02*
X400394D01*
X403150D02*
X400787D01*
X487205Y583071D02*
Y581693D01*
X484646Y580709D02*
X487008D01*
X489764D02*
X487402D01*
X403543Y550787D02*
Y552165D01*
X406102Y553150D02*
X403740D01*
X400984D02*
X403346D01*
X469882Y533465D02*
X468504D01*
X467520Y536024D02*
Y533661D01*
X442913Y583071D02*
Y581693D01*
X440354Y580709D02*
X442717D01*
X445472D02*
X443110D01*
X452559Y563386D02*
X456299D01*
X456693Y559646D02*
Y561024D01*
X460827Y563386D02*
X457087D01*
X430827Y492717D02*
Y490138D01*
Y471850D02*
Y474429D01*
X480315Y557480D02*
Y556102D01*
X477756Y555118D02*
X480118D01*
X404724Y531102D02*
Y532480D01*
X407283Y533465D02*
X404921D01*
X475394Y514173D02*
Y516535D01*
X414173Y523819D02*
Y522441D01*
X417323Y520866D02*
X414370D01*
X462598Y564567D02*
Y565945D01*
X432087Y501575D02*
Y502953D01*
X429528Y503937D02*
X431890D01*
X400984Y562992D02*
X403346D01*
X403543Y560630D02*
Y562008D01*
X406102Y562992D02*
X403740D01*
X472835Y507874D02*
X471457D01*
X436220Y541535D02*
X437598D01*
X453150Y595472D02*
X451772D01*
X450000Y599508D02*
Y596358D01*
Y591437D02*
Y594587D01*
X447244Y574606D02*
Y573228D01*
X443110Y570866D02*
X446850D01*
X430118Y588386D02*
X431496D01*
X432087Y585433D02*
Y587402D01*
Y591339D02*
Y589370D01*
X427559Y513780D02*
X426181D01*
X410433Y600787D02*
Y599409D01*
X407874Y598425D02*
X410236D01*
X429547Y589370D02*
X428169D01*
X426791Y585827D02*
Y588583D01*
X460630Y502362D02*
Y504724D01*
X439567Y503937D02*
X437205D01*
X428740Y555709D02*
Y557087D01*
X426181Y558071D02*
X428543D01*
X450591Y618110D02*
X449213D01*
X444882Y627362D02*
Y621654D01*
X439173Y618110D02*
X440551D01*
G54D27*
X407480Y413386D03*
X401575Y408465D03*
Y413386D03*
X397638Y416929D03*
Y403543D03*
X426181Y410433D03*
X474409Y415354D03*
X484252D03*
X464567D03*
X492126D03*
Y403543D03*
X407480Y431102D03*
X397638Y446457D03*
X407480Y419291D03*
X413780Y439370D03*
X423228Y454724D03*
X415354Y446850D03*
X423228D03*
X419291Y417323D03*
X415354Y454724D03*
X431102Y446850D03*
X427165Y437008D03*
X438976Y450787D03*
X414764Y434843D03*
X421850Y434646D03*
X418307Y434843D03*
X448819Y450787D03*
X456693D03*
X464567D03*
X484252Y438976D03*
X474409D03*
X464567D03*
X456693D03*
X474409Y450787D03*
X484252D03*
X456693Y427165D03*
X464567D03*
X474409D03*
X484252D03*
X492126Y438976D03*
Y450787D03*
Y427165D03*
X427165Y462598D03*
X438976D03*
Y469488D03*
X427165D03*
X456693Y462598D03*
X448819D03*
X449409Y468307D03*
X476378Y472441D03*
X474409Y462598D03*
X484252D03*
X464567D03*
X484252Y484252D03*
Y472441D03*
X492126Y484252D03*
Y462598D03*
Y472441D03*
X425197Y529528D03*
X433268Y517717D03*
X433071Y529528D03*
X414862D03*
X430118Y534449D03*
X426181D03*
X422244D03*
X463780Y498425D03*
X481299Y498031D03*
X483268Y505906D03*
X470472Y499016D03*
X457185Y499508D03*
X474409Y535433D03*
X422244Y538386D03*
X416831Y552165D03*
X428937Y553543D03*
X433563Y548228D03*
X409449D03*
X447343Y576280D03*
X430118Y538386D03*
X426181D03*
X472441Y541339D03*
X465551Y538386D03*
X472441Y548228D03*
X479823Y544291D03*
X469980Y555118D03*
X462106Y546260D03*
X405512Y598425D03*
Y604331D03*
X400000D03*
X439567D03*
X442913D03*
X411417D03*
X446260D03*
X479921Y614567D03*
X476378D03*
Y610236D03*
X480315D03*
X477854Y595472D03*
X483760Y593504D03*
Y604331D03*
X476378D03*
X461122Y595472D03*
X462205Y612402D03*
X458858D03*
X465551D03*
X492126Y593504D03*
Y585630D03*
X403051Y650098D03*
X407480Y654035D03*
X415846Y653543D03*
X423228D03*
X418307Y650098D03*
X411909D03*
X409449Y645669D03*
X414862D03*
X428150Y646654D03*
Y651575D03*
X439961Y654331D03*
X469980Y654035D03*
X478839D03*
X461614Y652559D03*
X465551Y656496D03*
X461614D03*
X462402Y618110D03*
X459055Y622047D03*
Y618110D03*
X462402Y622047D03*
X488681Y649606D03*
Y656496D03*
X428150Y659449D03*
X434547Y661909D03*
X439961D03*
X461614Y660433D03*
X465551D03*
X476378Y604331D02*
Y610236D01*
X467520Y564961D02*
Y570866D01*
G54D29*
X400591Y661417D02*
X405217D01*
G54D32*
X448819Y519685D03*
G54D33*
X403543Y642717D03*
X486220Y613189D03*
X421260Y642717D03*
X468504Y623031D03*
G54D38*
X479528Y571457D02*
X480315D01*
X479528Y564370D02*
X480315D01*
X480118Y528346D02*
X479528D01*
X473228D02*
X472638D01*
X473228Y522835D02*
X472638D01*
X480118D02*
X479528D01*
G54D39*
X406890Y578740D02*
X412402D01*
X406102Y579528D02*
G03X406890Y578740I788J-0D01*
G01X400984Y594488D02*
Y588583D01*
X406102Y580709D02*
Y579528D01*
G54D41*
X474603Y630712D02*
G03X469383Y632874I-5220J-5220D01*
G01X474603Y630712D02*
X480121Y625194D01*
G03X485341Y623031I5220J5219*
G01X486220*
X468504Y632874D02*
X469383D01*
G54D53*
X447638Y563386D02*
X446850D01*
X457087D02*
X456299D01*
X457087Y570866D02*
X456299D01*
X447638D02*
X446850D01*
G54D54*
X403543Y632874D03*
Y623031D03*
Y613189D03*
X486220Y623031D03*
Y632874D03*
Y642717D03*
X421260Y632874D03*
Y623031D03*
X468504Y632874D03*
Y642717D03*
G54D64*
X431668Y407210D02*
G03X430659Y404774I2436J-2436D01*
G01X434219Y410638D02*
X434003Y409544D01*
X435097Y409761*
X431668Y407210D02*
X435285Y410827D01*
X431526Y401112D02*
X432756Y399409D01*
X431526Y397707*
X432756Y399409D02*
X431526D01*
X458139Y401112D02*
X456909Y399409D01*
X458139Y397707*
X456909Y399409D02*
X458139D01*
X430659D02*
X459006D01*
X431469Y401248D02*
X430659Y402835D01*
X429850Y401248*
X430659Y399409D02*
Y404774D01*
X459006D02*
G03X457997Y407210I-3445J-0D01*
G01X459815Y401248D02*
X459006Y402835D01*
X458197Y401248*
X459006Y404774D02*
Y399409D01*
X455446Y410638D02*
X455662Y409544D01*
X454569Y409761*
X454380Y410827D02*
X457997Y407210D01*
G54D65*
X407073Y536825D02*
X407480Y536417D01*
X407234Y513730D02*
X407480D01*
Y533465*
X404724D02*
X407480D01*
X434252Y536811D02*
X438583D01*
X432087Y500787D02*
Y503937D01*
X431496Y525197D02*
Y522638D01*
X432087Y503937D02*
X437008D01*
X457269Y509041D02*
G03X456693Y507649I1392J-1392D01*
G01X457269Y509041D02*
X457677Y509449D01*
X467520Y530906D02*
Y533465D01*
X471850Y518110D02*
X473228Y516732D01*
X475394*
X479331Y519488D02*
Y522835D01*
X479823*
Y523622*
X486220*
X479331Y516732D02*
Y519488D01*
X460630Y504921D02*
Y509449D01*
X456693Y504921D02*
Y507649D01*
X470472Y503937D02*
Y507874D01*
Y510433*
X466535Y507874D02*
Y510236D01*
X467520Y528543D02*
Y530906D01*
X407860Y556510D02*
G03X406468Y557087I-1392J-1392D01*
G01X404893Y571850D02*
G03X406285Y572427I0J1969D01*
G01X407480Y573622*
X407073Y536825D02*
G03X405681Y537402I-1392J-1392D01*
G01X403543Y562992D02*
X408465D01*
X401575Y571850D02*
X404893D01*
X403543Y553150D02*
X407480D01*
X408465Y552165*
X403543Y557087D02*
X406468D01*
X404724Y537402D02*
X405681D01*
X407860Y556510D02*
X408268Y556102D01*
X434252Y541535D02*
X438583D01*
X424409Y558071D02*
X428740D01*
X432677Y555512D02*
Y558071D01*
X440354Y576772D02*
X442913D01*
X421791Y558071D02*
X424409D01*
X411791D02*
X414173D01*
X487570Y550000D02*
G03X488962Y550577I0J1969D01*
G01X450000Y537402D02*
X452756D01*
X474409Y555118D02*
X475591Y556299D01*
X486220*
Y550000D02*
X487570D01*
X457677Y537402D02*
X460236D01*
X447835D02*
X450000D01*
X452756D02*
X457677D01*
X487205Y576772D02*
X488752D01*
X480315Y555118D02*
X480512Y556299D01*
X486220*
X488962Y550577D02*
X490551Y552165D01*
X488752Y576772D02*
G03X490143Y577348I-0J1968D01*
G01X440354Y580709D02*
X442913D01*
X487205D02*
Y580512D01*
X490551*
X490143Y577348D02*
X490551Y577756D01*
X486220Y662402D02*
Y665354D01*
X398622Y450591D02*
Y451969D01*
X402756Y454724D02*
X401378D01*
X401772Y427657D02*
X400394D01*
X416732Y642717D02*
X418110D01*
X425787D02*
X424409D01*
X421260Y647244D02*
Y642717D01*
X473031Y623031D02*
X471654D01*
X468504Y627559D02*
Y623031D01*
X463976D02*
X465354D01*
X468504Y618504D02*
Y623031D01*
X490748Y613189D02*
X489370D01*
X486220Y617717D02*
Y613189D01*
X481693D02*
X483071D01*
X399016Y642717D02*
X400394D01*
X408071D02*
X406693D01*
X403543Y647244D02*
Y642717D01*
G54D66*
X403937Y438583D02*
X408661Y443307D01*
Y499409*
X398880Y438954D02*
X400371Y439249D01*
X400076Y437758*
X399391Y438760D02*
X400371Y439249D01*
X399666Y438544*
X400371Y439249D02*
X399882Y438269D01*
X398622Y437500D02*
X407480Y446358D01*
Y507371*
X399832Y433425D02*
X401095Y432579D01*
X399832Y431733*
X400057Y432926D02*
X401095Y432579D01*
X400098*
X401095D02*
X400057Y432231D01*
X398622Y432579D02*
X401870D01*
X409843Y440551*
Y496938*
X403937Y447244D02*
X406299Y449606D01*
Y507087*
X430227Y435039D02*
G03X429705Y434823I0J-738D01*
G01X430227Y435039D02*
X442608D01*
X443130Y434823D02*
G03X442608Y435039I-522J-522D01*
G01X443130Y434823D02*
X444882Y433071D01*
X431802Y433858D02*
G03X431280Y433642I-0J-738D01*
G01X431802Y433858D02*
X439852D01*
X440374Y433642D02*
G03X439852Y433858I-522J-522D01*
G01X440374Y433642D02*
X440945Y433071D01*
X443130Y421476D02*
X444882Y423228D01*
X442608Y421260D02*
G03X443130Y421476I-0J738D01*
G01X431408Y421260D02*
X442608D01*
X430886Y421476D02*
G03X431408Y421260I522J522D01*
G01X427559Y432677D02*
X429705Y434823D01*
X430315Y432677D02*
X431280Y433642D01*
X429134Y423228D02*
X430886Y421476D01*
X432087Y423228D02*
X440945D01*
X399051Y472895D02*
X401536Y473387D01*
X401045Y470902*
X399700Y472684D02*
X401536Y473387D01*
X400075Y472459*
X400362Y472212D02*
X401536Y473387D01*
X400608Y471925*
X401536Y473387D02*
X400834Y471551D01*
X398622Y470472D02*
X405118Y476969D01*
X399051Y480769D02*
X401536Y481261D01*
X401045Y478776*
X399700Y480558D02*
X401536Y481261D01*
X400075Y480333*
X400362Y480086D02*
X401536Y481261D01*
X400608Y479799*
X401536Y481261D02*
X400834Y479425D01*
X398622Y478346D02*
X403937Y483661D01*
X426319Y493051D02*
G03X426102Y492529I522J-522D01*
G01X426319Y493051D02*
X426969Y493701D01*
X419074Y492303D02*
G03X418858Y491781I522J-522D01*
G01X419074Y492303D02*
X420256Y493485D01*
X420778Y493701D02*
G03X420256Y493485I0J-738D01*
G01X420778Y493701D02*
X424213D01*
X420028Y491043D02*
X418858Y491781D01*
X417689Y491043*
X419443D02*
X418858Y491781D01*
Y491043*
X418274D02*
X418858Y491781D01*
Y482283*
X427272Y491043D02*
X426102Y492529D01*
X424933Y491043*
X426687D02*
X426102Y492529D01*
Y491043*
X425518D02*
X426102Y492529D01*
Y482283*
X410059Y497460D02*
G03X409843Y496938I522J-522D01*
G01X447665Y473524D02*
X446850Y472047D01*
X446035Y473524*
X447122D02*
X446850Y472047D01*
X446579Y473524*
X446850Y482244D02*
X446890Y482283D01*
X475965Y495059D02*
G03X476181Y495581I-522J522D01*
G01X473513Y492913D02*
G03X474035Y493130I0J739D01*
G01X475965Y495059*
X464831Y491043D02*
X463661Y492913D01*
X462492Y491043*
X464246D02*
X463661Y492913D01*
Y491043*
X463077D02*
X463661Y492913D01*
Y482283*
X472075Y491043D02*
X470906Y492913D01*
X469736Y491043*
X471490D02*
X470906Y492913D01*
Y491043*
X470321D02*
X470906Y492913D01*
Y482283*
Y492913D02*
X473513D01*
X396279Y511792D02*
X398406Y509665D01*
X407480Y507371D02*
G03X407264Y507893I-738J0D01*
G01X405728Y509429D02*
X407264Y507893D01*
X405512Y509951D02*
G03X405728Y509429I738J0D01*
G01X399804Y531916D02*
X399409Y531326D01*
X399015Y531916*
X399409Y531326D02*
Y531791D01*
Y532480D02*
Y510827D01*
X403937Y506299*
Y483661*
X398622Y509143D02*
G03X398406Y509665I-738J0D01*
G01X400032Y505954D02*
X398622Y508059D01*
X397212Y505954*
X399424Y506263D02*
X398622Y508059D01*
X398999Y506369*
X398622Y506398D02*
Y508059D01*
X398245Y506369*
X398622Y508059D02*
X397820Y506263D01*
X398622Y509143D02*
Y503937D01*
X407234Y513730D02*
X407480Y513484D01*
Y509449*
X407874Y509055*
X407234Y513730D02*
X407874D01*
Y509055*
X403543Y511614D02*
Y509843D01*
X406299Y507087*
X403543Y511614D02*
X405709Y513780D01*
X407185*
X405512Y511024D02*
Y509951D01*
X396063Y512314D02*
Y563671D01*
Y512314D02*
G03X396279Y511792I738J-0D01*
G01X407185Y513780D02*
X407234Y513730D01*
X439676Y514764D02*
G03X439154Y514548I-0J-738D01*
G01X439676Y514764D02*
X441240D01*
X435256Y514783D02*
G03X435039Y514261I522J-522D01*
G01X435256Y514783D02*
X438957Y518485D01*
X439479Y518701D02*
G03X438957Y518485I-0J-738D01*
G01X439479Y518701D02*
X441240D01*
X411811Y536417D02*
X412205D01*
X435649Y524626D02*
G03X435433Y524104I522J-522D01*
G01X435649Y524626D02*
X440157Y529134D01*
X442520Y535542D02*
G03X442736Y535020I738J-0D01*
G01X443898Y533858*
X444882Y536133D02*
G03X445098Y535611I738J-0D01*
G01X447618Y533090*
X447835Y532568D02*
G03X447618Y533090I-739J0D01*
G01X437224Y514783D02*
G03X437008Y514261I522J-522D01*
G01X437224Y514783D02*
X438957Y516516D01*
X439479Y516732D02*
G03X438957Y516516I-0J-738D01*
G01X439479Y516732D02*
X441240D01*
X409449Y501575D02*
Y500787D01*
X408661D02*
X409055D01*
Y507874*
X407874Y509055D02*
X408661Y508268D01*
Y500787D02*
Y499409D01*
X409449Y500197*
Y501575*
X409055Y507874D02*
X409449Y507480D01*
Y501575*
X421998Y525591D02*
G03X421260Y524852I0J-739D01*
G01X421998Y525591D02*
X422244D01*
X410059Y497460D02*
X410630Y498031D01*
X408661Y500787D02*
Y508268D01*
X409055Y507874*
X425197Y513976D02*
Y513780D01*
X432087Y510039D02*
Y507874D01*
X437008Y513780D02*
Y514261D01*
X435039Y512205D02*
Y514261D01*
X438583Y520669D02*
X441240D01*
X438976Y512205D02*
Y514370D01*
X439154Y514548*
X438583Y524606D02*
X441240D01*
X445866Y529921D02*
Y527264D01*
X425197Y518701D02*
Y513976D01*
X421260Y518701D02*
Y524852D01*
X443898Y527264D02*
Y533858D01*
X441240Y522638D02*
X435433D01*
Y524104*
X442520Y536811D02*
Y535542D01*
X421063Y507874D02*
Y513583D01*
X421260Y513780*
X418504Y536417D02*
X419488Y537402D01*
X422441*
X412205Y536417D02*
Y539567D01*
X421260Y513780D02*
Y518701D01*
X462224Y516516D02*
G03X461702Y516732I-522J-522D01*
G01X462224Y516516D02*
X465532Y513208D01*
G03X466054Y512992I522J522*
G01X470954*
X471476Y512776D02*
G03X470954Y512992I-522J-522D01*
G01X471476Y512776D02*
X475965Y508287D01*
X476181Y507765D02*
G03X475965Y508287I-738J0D01*
G01X476181Y507765D02*
Y495581D01*
X447835Y532568D02*
Y527264D01*
X453956Y529941D02*
G03X453740Y529419I522J-522D01*
G01X453956Y529941D02*
X457480Y533465D01*
X462126Y518485D02*
G03X461604Y518701I-522J-522D01*
G01X462126Y518485D02*
X466122Y514488D01*
G03X466644Y514272I522J522*
G01X471643*
X472165Y514055D02*
G03X471643Y514272I-522J-522D01*
G01X472165Y514055D02*
X477343Y508878D01*
X477559Y508356D02*
G03X477343Y508878I-738J-0D01*
G01X477559Y508356D02*
Y492913D01*
X451988Y532697D02*
G03X451772Y532175I522J-522D01*
G01X451988Y532697D02*
X452756Y533465D01*
X460945Y511890D02*
G03X460423Y512106I-522J-522D01*
G01X460945Y511890D02*
X463563Y509271D01*
X463780Y508749D02*
G03X463563Y509271I-739J0D01*
G01X463780Y508749D02*
Y505030D01*
G03X463996Y504508I738J0*
G01X464351Y504153*
G03X464873Y503937I522J522*
G01X466535*
X453740Y512106D02*
X460423D01*
X451772Y527264D02*
Y532175D01*
X453740Y527264D02*
Y529419D01*
X456398Y518701D02*
X461604D01*
X456398Y516732D02*
X461702D01*
X400088Y538266D02*
X400225Y537570D01*
X399530Y537707*
X400225Y537570D02*
X399897Y537899D01*
X399409Y538386D02*
X401181Y536614D01*
Y510630*
X405118Y506693*
Y476969*
X396279Y564193D02*
G03X396063Y563671I522J-522D01*
G01X396279Y564193D02*
X398800Y566713D01*
X399322Y566929D02*
G03X398800Y566713I-0J-738D01*
G01X399322Y566929D02*
X403543D01*
X406083Y576200D02*
G03X406605Y575984I522J522D01*
G01X408749*
X405600Y566929D02*
G03X406122Y567145I-0J738D01*
G01X407067Y568091*
G03X407283Y568613I-522J522*
G01Y569882*
X400984Y580709D02*
Y575787D01*
X401575*
X403543Y566929D02*
X405600D01*
X412205Y539567D02*
Y543307D01*
X441555Y544469D02*
G03X441033Y544685I-522J-522D01*
G01X441555Y544469D02*
X442303Y543720D01*
X442520Y543198D02*
G03X442303Y543720I-739J0D01*
G01X442520Y543198D02*
Y541535D01*
X444114Y541319D02*
G03X443592Y541535I-522J-522D01*
G01X444114Y541319D02*
X444666Y540767D01*
X444882Y540245D02*
G03X444666Y540767I-738J0D01*
G01X444882Y540245D02*
Y536133D01*
X409271Y575768D02*
G03X408749Y575984I-522J-522D01*
G01X409271Y575768D02*
X411595Y573445D01*
X411811Y572923D02*
G03X411595Y573445I-738J-0D01*
G01X411811Y572923D02*
Y568130D01*
X429812Y571850D02*
G03X430334Y572067I0J739D01*
G01X431870Y573603*
G03X432087Y574125I-522J522*
G01Y576969*
X428434Y564961D02*
G03X428956Y565177I0J738D01*
G01X429906Y566126*
G03X430122Y566648I-522J522*
G01Y568596*
X430338Y569118D02*
G03X430122Y568596I522J-522D01*
G01X430338Y569118D02*
X435807Y574587D01*
G03X436024Y575109I-522J522*
G01Y576969*
X422441Y544045D02*
Y547244D01*
X421703Y543307D02*
G03X422441Y544045I-0J738D01*
G01X438780Y544685D02*
X441033D01*
X440945Y570866D02*
X440945D01*
X426791Y571850D02*
X429812D01*
X416791Y565699D02*
G03X417530Y564961I739J-0D01*
G01X421791*
Y562008*
Y564961D02*
X428434D01*
X436024Y576969D02*
Y581584D01*
X426791Y568110D02*
Y571850D01*
X421791Y568110D02*
Y564961D01*
X416791Y565699D02*
Y568110D01*
Y571850*
X411791Y568110D02*
X411811Y568130D01*
X428740Y562008D02*
X432677D01*
Y565354*
X442520Y541535D02*
X443592D01*
X411791Y562008D02*
Y568110D01*
X418504Y543307D02*
X421703D01*
X476329Y564370D02*
G03X475591Y563632I-0J-738D01*
G01X476329Y564370D02*
X479921D01*
X452972Y552775D02*
G03X452756Y552253I522J-522D01*
G01X452972Y552775D02*
X453524Y553327D01*
X454046Y553543D02*
G03X453524Y553327I-0J-738D01*
G01X454046Y553543D02*
X462598D01*
X448051Y552775D02*
G03X447835Y552253I522J-522D01*
G01X448051Y552775D02*
X450571Y555296D01*
X451093Y555512D02*
G03X450571Y555296I0J-738D01*
G01X451093Y555512D02*
X460236D01*
X452756Y544094D02*
Y547244D01*
X450000Y537402D02*
X450197D01*
X477362Y555118D02*
X480315D01*
X475591Y561024D02*
Y563632D01*
X457677Y544094D02*
Y547244D01*
X447835Y544094D02*
Y547244D01*
Y551181D02*
Y552253D01*
X457677Y551181D02*
X464567D01*
X452756D02*
Y552253D01*
X457677Y541339D02*
Y544094D01*
X447835Y541339D02*
Y544094D01*
X452756Y541339D02*
Y544094D01*
X467520Y576772D02*
Y570866D01*
X403543Y579046D02*
G03X403760Y578524I738J-0D01*
G01X406083Y576200*
X404419Y585433D02*
G03X404941Y585649I-0J738D01*
G01X405886Y586595*
G03X406102Y587117I-522J522*
G01Y588583*
X401722Y583465D02*
X413277D01*
X401722D02*
G03X400984Y582726I0J-739D01*
G01X400000Y585433D02*
X404419D01*
X403543Y580709D02*
Y579046D01*
X400984Y580709D02*
Y582726D01*
X400591Y594488D02*
X400984D01*
X436240Y582106D02*
G03X436024Y581584I522J-522D01*
G01X436240Y582106D02*
X437776Y583642D01*
G03X437992Y584164I-522J522*
G01Y588386*
X413799Y583248D02*
G03X413277Y583465I-522J-522D01*
G01X413799Y583248D02*
X417303Y579744D01*
G03X417825Y579528I522J522*
G01X433317*
X434055Y578789D02*
G03X433317Y579528I-738J0D01*
G01X434055Y578789D02*
Y576969D01*
X473425Y582677D02*
X477362D01*
Y582480*
X450000Y595472D02*
Y596850D01*
X453150*
X471457Y582677D02*
X473425D01*
X469488Y662402D02*
X472835D01*
X477953D02*
X482283D01*
X418110Y544783D02*
G03X417224Y543898I0J-885D01*
G01X418110Y544783D02*
X420079D01*
G03X421555Y546260I-0J1477*
G01Y549409*
X422441Y550295D02*
G03X421555Y549409I-0J-886D01*
G01X422441Y550295D02*
X424803D01*
X425689Y549409D02*
G03X424803Y550295I-886J0D01*
G01X425689Y549409D02*
Y542717D01*
X424803Y541831D02*
G03X425689Y542717I0J886D01*
G01X424803Y541831D02*
X418110D01*
X417224Y542717D02*
G03X418110Y541831I886J-0D01*
G01X417224Y542717D02*
Y543898D01*
X412933Y525689D02*
Y519587D01*
X418012*
Y525689*
X412933*
X421555Y549270D02*
X425689D01*
X421555Y548739D02*
X425689D01*
X421555Y548207D02*
X425689D01*
X421555Y547676D02*
X425689D01*
X421555Y547144D02*
X425689D01*
X421555Y546613D02*
X425689D01*
X421544Y546081D02*
X425689D01*
X421373Y545550D02*
X425689D01*
X420878Y545018D02*
X425689D01*
X417449Y544487D02*
X425689D01*
X417226Y543955D02*
X425689D01*
X417224Y543424D02*
X425689D01*
X417224Y542892D02*
X425689D01*
X417299Y542361D02*
X425614D01*
X421647Y549802D02*
X425597D01*
X412933Y525432D02*
X418012D01*
X412933Y524900D02*
X418012D01*
X412933Y524369D02*
X418012D01*
X412933Y523837D02*
X418012D01*
X412933Y523306D02*
X418012D01*
X412933Y522774D02*
X418012D01*
X412933Y522243D02*
X418012D01*
X412933Y521711D02*
X418012D01*
X412933Y521180D02*
X418012D01*
X412933Y520648D02*
X418012D01*
X412933Y520117D02*
X418012D01*
G54D67*
X430827Y482283D02*
Y493701D01*
X446850Y472047D02*
Y482244D01*
X450906Y473933D02*
G03X451626Y472193I2460J-0D01*
G01X451772Y472047*
X450906Y482283D02*
Y473933D01*
X407480Y536417D02*
X409646D01*
X412075Y533138D02*
G03X412795Y534877I-1740J1739D01*
G01X433531Y508595D02*
G03X435271Y507874I1740J1740D01*
G01X436417*
X410433Y531496D02*
Y536417D01*
X411811*
X410433Y531496D02*
X412075Y533138D01*
X411811Y536417D02*
X412008D01*
X430547Y510039D02*
G03X428807Y509319I-0J-2460D01*
G01X430547Y510039D02*
X432087D01*
X409646Y536417D02*
X410433D01*
Y531496*
X409646Y536417D02*
X412008D01*
X412008*
X412795Y534877D02*
Y539567D01*
X427165Y523031D02*
Y524409D01*
X425197Y513976D02*
Y520079D01*
X427165Y522047*
X425197Y520079D02*
Y521063D01*
X427165Y523031*
X432087Y510039D02*
X433531Y508595D01*
X427165Y522047D02*
Y523031D01*
X410433Y509646D02*
Y531496D01*
X414173Y520866D02*
X414370Y523622D01*
X414173Y514567D02*
X414961D01*
Y511811*
X425197Y518701D02*
X427165D01*
Y522047*
X427362Y507874D02*
X428807Y509319D01*
X472933Y531890D02*
Y528346D01*
X412205Y539567D02*
X412795D01*
X408465Y543307D02*
X412205D01*
X440945Y570866D02*
X447244D01*
X440945D02*
Y567323D01*
X462106Y563976D02*
Y566929D01*
X462598*
X405318Y614430D02*
X407170Y613189D01*
X405318Y611948*
X407170Y613189D02*
X405709D01*
X403543D02*
X408430D01*
X400591Y598425D02*
X410433D01*
X400591Y594488D02*
X402953D01*
X411791Y592111D02*
G03X411071Y593851I-2460J-0D01*
G01X411791Y592111D02*
Y589370D01*
X421260Y615192D02*
G03X421981Y613453I2460J0D01*
G01X426445Y608988*
X427165Y607248D02*
G03X426445Y608988I-2460J0D01*
G01X427165Y607248D02*
Y601870D01*
X410170Y612468D02*
G03X408430Y613189I-1740J-1740D01*
G01X410170Y612468D02*
X415618Y607020D01*
X416339Y605280D02*
G03X415618Y607020I-2461J-0D01*
G01X422244Y606264D02*
G03X421523Y608004I-2461J0D01*
G01X416339Y605280D02*
Y603543D01*
X422244Y606264D02*
Y603543D01*
X434055Y596949D02*
G03X431594Y599409I-2461J-0D01*
G01X429626D02*
X431594D01*
X434055Y596949D02*
Y595472D01*
X427165Y601870D02*
G03X429626Y599409I2461J0D01*
G01X426791Y583858D02*
Y589370D01*
X436024Y595472D02*
X439764D01*
X408071Y594488D02*
X410433D01*
X427756Y595472D02*
X430118D01*
X421791Y589370D02*
Y597441D01*
X422047*
X422244Y597244*
X434055Y595472D02*
X436024D01*
X416339Y597244D02*
X416791D01*
Y589370*
X410433Y594488D02*
X411071Y593851D01*
X471917Y593964D02*
G03X472638Y595704I-1740J1740D01*
G01Y596457*
X467520Y579528D02*
Y576772D01*
X466535Y593504D02*
X467520Y592520D01*
Y589567*
X471457Y593504D02*
X471917Y593964D01*
X467520Y589567D02*
Y579528D01*
X471457Y589567D02*
X477362D01*
Y588780*
X471457Y589567D02*
Y593504D01*
X466339Y596457D02*
X466535Y596260D01*
Y593504*
X467520Y582677D02*
Y579528D01*
X407217Y622311D02*
X421523Y608004D01*
X407217Y622311D02*
G03X405477Y623031I-1740J-1740D01*
G01X405162Y624469D02*
X406760Y622670D01*
X405389Y621900*
X406760Y622670D02*
X405704Y622886D01*
X403543Y623031D02*
X405477D01*
X422500Y621257D02*
X421260Y619405D01*
X420019Y621257*
X421260Y619405D02*
Y620866D01*
Y623031D02*
Y615192D01*
X424016Y664370D02*
G03X421555Y661909I-0J-2461D01*
G01X424016Y664370D02*
X426181D01*
X421555Y661417D02*
Y661909D01*
X446358Y404035D03*
X435531D03*
X439715Y413780D03*
Y405512D03*
X462598Y408957D03*
X453740Y404035D03*
X449951Y414173D03*
X404331Y451575D03*
Y455512D03*
X403937Y438583D03*
Y447244D03*
X433071Y439370D03*
X437598Y431496D03*
X442520Y417323D03*
X433563D03*
X444882Y433071D03*
X427165Y428150D03*
X440945Y433071D03*
X427559Y432677D03*
X430315D03*
X429134Y423228D03*
X440945D03*
X432087D03*
X444882D03*
X448819Y424016D03*
Y428150D03*
X448425Y435039D03*
X421654Y496063D03*
X412205Y495276D03*
X412402Y465551D03*
X416339Y461614D03*
X420276Y458661D03*
X424213Y493701D03*
X438858Y492913D03*
X442874Y493012D03*
X436220Y495276D03*
X426969Y493701D03*
X430827D03*
X442913Y471260D03*
X446850Y472047D03*
X487205Y491339D03*
X477559Y492913D03*
X454921D03*
X458937D03*
X463661D03*
X470906D03*
X455709Y471260D03*
X451772Y472047D03*
X474803Y486220D03*
X399409Y532480D03*
X405512Y511024D03*
X407185Y513780D03*
X407480Y533465D03*
Y536417D03*
X423622Y498031D03*
X425984D03*
X414173Y497244D03*
X410630Y498031D03*
X429134D03*
X416142Y499213D03*
X427756Y518701D03*
Y513780D03*
X409449Y500787D03*
X432087Y510039D03*
X437008Y513780D03*
X435039Y512205D03*
X444882Y517323D03*
X443898Y533858D03*
X434252Y536811D03*
X432087Y500787D03*
X438976D03*
X436024D03*
X427165Y524409D03*
Y522047D03*
X422244Y525591D03*
Y523425D03*
X440157Y529134D03*
X438583Y520669D03*
X438976Y512205D03*
X444882Y523622D03*
X431496Y525197D03*
X438583Y524606D03*
X445866Y529921D03*
X444882Y520472D03*
X414961Y511811D03*
X414370Y523622D03*
X410433Y509646D03*
X443898Y498622D03*
X446850D03*
X466732Y518110D03*
X452756Y517323D03*
X448819D03*
Y523622D03*
X470472Y510433D03*
X460630Y509449D03*
X457677D03*
X452756Y523622D03*
X466535Y510236D03*
X449803Y530118D03*
X452756Y533465D03*
X467520Y530906D03*
X472933Y531890D03*
X471850Y518110D03*
X457480Y533465D03*
X481299Y534449D03*
X479331Y519488D03*
X448819Y520472D03*
X452756D03*
X490551Y508661D03*
Y512795D03*
Y532480D03*
X399409Y538386D03*
X407283Y569882D03*
X407480Y573622D03*
X422441Y549409D03*
X417815Y556102D03*
Y562008D03*
X425197Y561024D03*
X436516Y563976D03*
X436024Y569882D03*
X420276Y576772D03*
X429134D03*
X424803Y549409D03*
X408465Y543307D03*
X438780Y544685D03*
X434252Y541535D03*
X440945Y570866D03*
X424409Y558071D03*
X432677Y555512D03*
X422441Y547244D03*
X408465Y552165D03*
X408268Y556102D03*
X408465Y562992D03*
X426791Y571850D03*
X432677Y565354D03*
X414173Y558071D03*
X416791Y571850D03*
X440354Y576772D03*
X424606Y547244D03*
X474409Y557283D03*
X479763Y557302D03*
X477756Y561024D03*
X482087Y557283D03*
X465059Y566929D03*
X462106Y561516D03*
X457677Y558563D03*
X453248D03*
X464567Y551181D03*
X460236Y555512D03*
X452756Y544094D03*
X460236Y537402D03*
X477362Y555118D03*
X474409D03*
X475591Y561024D03*
X473425D03*
X457677Y544094D03*
X462598Y553543D03*
X447835Y544094D03*
X462106Y563976D03*
X479921Y561024D03*
X490551Y552165D03*
X400000Y585433D03*
X402953Y594488D03*
X430709Y602756D03*
X433071D03*
Y604921D03*
X436614Y600000D03*
X446654D03*
X430709Y604921D03*
X444882Y584646D03*
X445079Y595472D03*
X409252Y581693D03*
X412402Y578740D03*
X440354Y580709D03*
X420276Y584646D03*
X432087Y583858D03*
X426791D03*
X408071Y594488D03*
X427756Y595472D03*
X458268Y599409D03*
X482087Y579724D03*
X464173Y601969D03*
X482087Y600984D03*
X447835Y581693D03*
X464567Y584252D03*
X461811Y601969D03*
X459449D03*
X472047Y605315D03*
X453150Y596850D03*
Y594094D03*
X466535Y593504D03*
X484252Y587598D03*
X471457Y593504D03*
X473425Y582677D03*
X451772D03*
X456693D03*
X464173Y605118D03*
X459449D03*
X453740Y604331D03*
Y611811D03*
Y606693D03*
Y600394D03*
Y609055D03*
X476969Y600984D03*
X472047Y602362D03*
X490157D03*
X490551Y580512D03*
Y577756D03*
X444882Y656693D03*
X448031D03*
X400591Y661417D03*
X426181Y664370D03*
X444882Y659449D03*
X486220Y665354D03*
X448031Y659449D03*
X469488Y662402D03*
G54D70*
X398622Y427657D03*
Y432579D03*
Y437500D03*
G54D139*
Y470472D03*
Y462598D03*
Y454724D03*
Y496063D03*
G54D141*
Y478346D03*
X405217Y660236D02*
Y662598D01*
X421555Y660236D02*
Y662598D01*
X398622Y503937D03*
G54D146*
X457283Y514764D02*
X455512D01*
X457283Y516732D02*
X455512D01*
X457283Y518701D02*
X455512D01*
X457283Y520669D02*
X455512D01*
X457283Y522638D02*
X455512D01*
X457283Y524606D02*
X455512D01*
X453740Y526378D02*
Y528150D01*
X451772Y526378D02*
Y528150D01*
X449803Y526378D02*
Y528150D01*
X447835Y526378D02*
Y528150D01*
X445866Y526378D02*
Y528150D01*
X443898Y526378D02*
Y528150D01*
X442126Y524606D02*
X440354D01*
X442126Y522638D02*
X440354D01*
X442126Y520669D02*
X440354D01*
X442126Y518701D02*
X440354D01*
X442126Y516732D02*
X440354D01*
X442126Y514764D02*
X440354D01*
X443898Y511220D02*
Y512992D01*
X445866Y511220D02*
Y512992D01*
X447835Y511220D02*
Y512992D01*
X449803Y511220D02*
Y512992D01*
X451772Y511220D02*
Y512992D01*
X453740Y511220D02*
Y512992D01*
X437992Y589370D02*
Y587402D01*
X436024Y589370D02*
Y587402D01*
X434055Y589370D02*
Y587402D01*
X432087Y589370D02*
Y587402D01*
Y577953D02*
Y575984D01*
X434055Y577953D02*
Y575984D01*
X436024Y577953D02*
Y575984D01*
X437992Y577953D02*
Y575984D01*
G54D170*
X473819Y576969D02*
Y576575D01*
X467520Y576969D02*
Y576575D01*
X472638Y596654D02*
Y596260D01*
X466339Y596654D02*
Y596260D01*
X412205Y535630D02*
Y537205D01*
X418504Y535630D02*
Y537205D01*
X427362Y508071D02*
Y507677D01*
X421063Y508071D02*
Y507677D01*
X412205Y543110D02*
Y543504D01*
X418504Y543110D02*
Y543504D01*
X422047Y603543D02*
X422441D01*
X422047Y597244D02*
X422441D01*
X416142Y603543D02*
X416535D01*
X416142Y597244D02*
X416535D01*
X477559Y582480D02*
X477165D01*
X477559Y588780D02*
X477165D01*
X414370Y514567D02*
X413976D01*
X414370Y520866D02*
X413976D01*
X487008Y550000D02*
X485433D01*
X487008Y556299D02*
X485433D01*
X423228Y543110D02*
Y543504D01*
X429528Y543110D02*
Y543504D01*
X473819Y565157D02*
Y564764D01*
X467520Y565157D02*
Y564764D01*
X473819Y571063D02*
Y570669D01*
X467520Y571063D02*
Y570669D01*
G54D171*
X439764Y594587D02*
Y596358D01*
X450000Y594587D02*
Y596358D01*
X398622Y422736D03*
G54D184*
X430659Y398081D02*
Y400738D01*
X459006Y398081D02*
Y400738D01*
G54D236*
X444882Y638189D02*
Y645276D01*
Y614567D02*
Y621654D01*
G54D239*
X435285Y410827D03*
X454380D03*
G54D250*
X470906Y474823D02*
Y489744D01*
X463661Y474823D02*
Y489744D01*
X426102Y474823D02*
Y489744D01*
X418858Y474823D02*
Y489744D01*
G54D251*
X458937Y474429D02*
Y490138D01*
X454921Y474429D02*
Y490138D01*
X450906Y474429D02*
Y490138D01*
X446890Y474429D02*
Y490138D01*
X442874Y474429D02*
Y490138D01*
X438858Y474429D02*
Y490138D01*
X434843Y474429D02*
Y490138D01*
X430827Y474429D02*
Y490138D01*
G54D253*
X400984Y580020D02*
Y581398D01*
X403543Y580020D02*
Y581398D01*
X406102Y580020D02*
Y581398D01*
Y587894D02*
Y589272D01*
X400984Y587894D02*
Y589272D01*
G54D256*
X479016Y401102D02*
Y406614D01*
X410748Y401102D02*
Y406614D01*
G54D257*
X469882Y403858D03*
X419882D03*
G74*
X0Y0D02*
M02*
