*
*
G04 PADS Layout (Build Number 2005.266.2) generated Gerber (RS-274-X) file*
G04 PC Version=2.1*
*
%IN "COMMXEL_REVD_SMD(181102"*%
*
%MOIN*%
*
%FSLAX35Y35*%
*
*
*
*
G04 PC Standard Apertures*
*
*
G04 Thermal Relief Aperture macro.*
%AMTER*
1,1,$1,0,0*
1,0,$1-$2,0,0*
21,0,$3,$4,0,0,45*
21,0,$3,$4,0,0,135*
%
*
*
G04 Annular Aperture macro.*
%AMANN*
1,1,$1,0,0*
1,0,$2,0,0*
%
*
*
G04 Odd Aperture macro.*
%AMODD*
1,1,$1,0,0*
1,0,$1-0.005,0,0*
%
*
*
G04 PC Custom Aperture Macros*
*
*
*
*
*
*
G04 PC Aperture Table*
*
%ADD010C,0.00394*%
%ADD026C,0.01181*%
%ADD027C,0.0315*%
%ADD054C,0.06299*%
%ADD065C,0.01575*%
%ADD067C,0.01969*%
%ADD139C,0.05512*%
%ADD171R,0.03543X0.03543*%
*
*
*
*
G04 PC Custom Flashes*
G04 Layer Name COMMXEL_REVD_SMD(181102 - flashes*
%LPD*%
*
*
G04 PC Circuitry*
G04 Layer Name COMMXEL_REVD_SMD(181102 - circuitry*
%LPD*%
*
G54D10*
G01X397835Y500591D02*
X402559D01*
Y487992*
X397835*
Y500591*
Y419488D02*
X402953D01*
Y425000*
X397835*
Y419488*
Y466929D02*
X402559D01*
Y458071*
X397835*
Y466929*
Y500392D02*
X402559D01*
X397835Y500038D02*
X402559D01*
X397835Y499684D02*
X402559D01*
X397835Y499329D02*
X402559D01*
X397835Y498975D02*
X402559D01*
X397835Y498621D02*
X402559D01*
X397835Y498266D02*
X402559D01*
X397835Y497912D02*
X402559D01*
X397835Y497558D02*
X402559D01*
X397835Y497203D02*
X402559D01*
X397835Y496849D02*
X402559D01*
X397835Y496495D02*
X402559D01*
X397835Y496140D02*
X402559D01*
X397835Y495786D02*
X402559D01*
X397835Y495432D02*
X402559D01*
X397835Y495077D02*
X402559D01*
X397835Y494723D02*
X402559D01*
X397835Y494369D02*
X402559D01*
X397835Y494014D02*
X402559D01*
X397835Y493660D02*
X402559D01*
X397835Y493306D02*
X402559D01*
X397835Y492951D02*
X402559D01*
X397835Y492597D02*
X402559D01*
X397835Y492243D02*
X402559D01*
X397835Y491888D02*
X402559D01*
X397835Y491534D02*
X402559D01*
X397835Y491180D02*
X402559D01*
X397835Y490825D02*
X402559D01*
X397835Y490471D02*
X402559D01*
X397835Y490117D02*
X402559D01*
X397835Y489762D02*
X402559D01*
X397835Y489408D02*
X402559D01*
X397835Y489054D02*
X402559D01*
X397835Y488699D02*
X402559D01*
X397835Y488345D02*
X402559D01*
X397835Y424802D02*
X402953D01*
X397835Y424448D02*
X402953D01*
X397835Y424093D02*
X402953D01*
X397835Y423739D02*
X402953D01*
X397835Y423385D02*
X402953D01*
X397835Y423030D02*
X402953D01*
X397835Y422676D02*
X402953D01*
X397835Y422322D02*
X402953D01*
X397835Y421967D02*
X402953D01*
X397835Y421613D02*
X402953D01*
X397835Y421259D02*
X402953D01*
X397835Y420904D02*
X402953D01*
X397835Y420550D02*
X402953D01*
X397835Y420196D02*
X402953D01*
X397835Y419841D02*
X402953D01*
X397835Y466928D02*
X402559D01*
X397835Y466573D02*
X402559D01*
X397835Y466219D02*
X402559D01*
X397835Y465865D02*
X402559D01*
X397835Y465510D02*
X402559D01*
X397835Y465156D02*
X402559D01*
X397835Y464802D02*
X402559D01*
X397835Y464448D02*
X402559D01*
X397835Y464093D02*
X402559D01*
X397835Y463739D02*
X402559D01*
X397835Y463385D02*
X402559D01*
X397835Y463030D02*
X402559D01*
X397835Y462676D02*
X402559D01*
X397835Y462322D02*
X402559D01*
X397835Y461967D02*
X402559D01*
X397835Y461613D02*
X402559D01*
X397835Y461259D02*
X402559D01*
X397835Y460904D02*
X402559D01*
X397835Y460550D02*
X402559D01*
X397835Y460196D02*
X402559D01*
X397835Y459841D02*
X402559D01*
X397835Y459487D02*
X402559D01*
X397835Y459133D02*
X402559D01*
X397835Y458778D02*
X402559D01*
X397835Y458424D02*
X402559D01*
X486220Y415354D02*
G75*
G03X486220I-1968J0D01*
G01Y427165D02*
G03X486220I-1968J0D01*
G01Y438976D02*
G03X486220I-1968J0D01*
G01Y450787D02*
G03X486220I-1968J0D01*
G01Y462598D02*
G03X486220I-1968J0D01*
G01Y472441D02*
G03X486220I-1968J0D01*
G01Y484252D02*
G03X486220I-1968J0D01*
G01X488878Y491339D02*
G03X488878I-1673J0D01*
G01X483268Y498031D02*
G03X483268I-1969J0D01*
G01X485236Y505906D02*
G03X485236I-1968J0D01*
G01X476378Y415354D02*
G03X476378I-1969J0D01*
G01Y427165D02*
G03X476378I-1969J0D01*
G01Y438976D02*
G03X476378I-1969J0D01*
G01Y450787D02*
G03X476378I-1969J0D01*
G01Y462598D02*
G03X476378I-1969J0D01*
G01X478346Y472441D02*
G03X478346I-1968J0D01*
G01X476476Y486220D02*
G03X476476I-1673J0D01*
G01X479232Y492913D02*
G03X479232I-1673J0D01*
G01X472579D02*
G03X472579I-1673J0D01*
G01X472441Y499016D02*
G03X472441I-1969J0D01*
G01X485728Y593504D02*
G03X485728I-1968J0D01*
G01X483760Y600984D02*
G03X483760I-1673J0D01*
G01X479823Y595472D02*
G03X479823I-1969J0D01*
G01X468406Y518110D02*
G03X468406I-1674J0D01*
G01X469193Y530906D02*
G03X469193I-1673J0D01*
G01X471949Y555118D02*
G03X471949I-1969J0D01*
G01X475098Y582677D02*
G03X475098I-1673J0D01*
G01X473130Y593504D02*
G03X473130I-1673J0D01*
G01X467520Y538386D02*
G03X467520I-1969J0D01*
G01X464075Y546260D02*
G03X464075I-1969J0D01*
G01X466732Y566929D02*
G03X466732I-1673J0D01*
G01X466240Y584252D02*
G03X466240I-1673J0D01*
G01X468209Y593504D02*
G03X468209I-1674J0D01*
G01X459350Y558563D02*
G03X459350I-1673J0D01*
G01X463091Y595472D02*
G03X463091I-1969J0D01*
G01X458366Y582677D02*
G03X458366I-1673J0D01*
G01X450787Y450787D02*
G03X450787I-1968J0D01*
G01Y462598D02*
G03X450787I-1968J0D01*
G01X451378Y468307D02*
G03X451378I-1969J0D01*
G01X454429Y533465D02*
G03X454429I-1673J0D01*
G01Y544094D02*
G03X454429I-1673J0D01*
G01X454921Y558563D02*
G03X454921I-1673J0D01*
G01X444587Y471260D02*
G03X444587I-1674J0D01*
G01X444547Y493012D02*
G03X444547I-1673J0D01*
G01X453445Y582677D02*
G03X453445I-1673J0D01*
G01X447539Y529921D02*
G03X447539I-1673J0D01*
G01X449508Y544094D02*
G03X449508I-1673J0D01*
G01X445571Y533858D02*
G03X445571I-1673J0D01*
G01X449311Y576280D02*
G03X449311I-1968J0D01*
G01X449508Y581693D02*
G03X449508I-1673J0D01*
G01X440945Y450787D02*
G03X440945I-1969J0D01*
G01Y462598D02*
G03X440945I-1969J0D01*
G01Y469488D02*
G03X440945I-1969J0D01*
G01X440532Y492913D02*
G03X440532I-1674J0D01*
G01X429134Y437008D02*
G03X429134I-1969J0D01*
G01X433071Y446850D02*
G03X433071I-1969J0D01*
G01X432500Y493701D02*
G03X432500I-1673J0D01*
G01X421260Y417323D02*
G03X421260I-1969J0D01*
G01X425197Y446850D02*
G03X425197I-1969J0D01*
G01Y454724D02*
G03X425197I-1969J0D01*
G01X429134Y462598D02*
G03X429134I-1969J0D01*
G01Y469488D02*
G03X429134I-1969J0D01*
G01X421949Y458661D02*
G03X421949I-1673J0D01*
G01X433760Y500787D02*
G03X433760I-1673J0D01*
G01Y510039D02*
G03X433760I-1673J0D01*
G01X440256Y520669D02*
G03X440256I-1673J0D01*
G01Y524606D02*
G03X440256I-1673J0D01*
G01X441831Y529134D02*
G03X441831I-1674J0D01*
G01X440453Y544685D02*
G03X440453I-1673J0D01*
G01X435236Y517717D02*
G03X435236I-1968J0D01*
G01X435039Y529528D02*
G03X435039I-1968J0D01*
G01X435925Y541535D02*
G03X435925I-1673J0D01*
G01X429429Y513780D02*
G03X429429I-1673J0D01*
G01Y518701D02*
G03X429429I-1673J0D01*
G01X427165Y529528D02*
G03X427165I-1968J0D01*
G01X435532Y548228D02*
G03X435532I-1969J0D01*
G01X438189Y563976D02*
G03X438189I-1673J0D01*
G01X434350Y565354D02*
G03X434350I-1673J0D01*
G01X430906Y553543D02*
G03X430906I-1969J0D01*
G01X415748Y439370D02*
G03X415748I-1968J0D01*
G01X417323Y446850D02*
G03X417323I-1969J0D01*
G01Y454724D02*
G03X417323I-1969J0D01*
G01X418012Y461614D02*
G03X418012I-1673J0D01*
G01X414075Y465551D02*
G03X414075I-1673J0D01*
G01X416634Y511811D02*
G03X416634I-1673J0D01*
G01X416043Y523622D02*
G03X416043I-1673J0D01*
G01X416831Y529528D02*
G03X416831I-1969J0D01*
G01X412106Y509646D02*
G03X412106I-1673J0D01*
G01X403543Y408465D02*
G03X403543I-1968J0D01*
G01Y413386D02*
G03X403543I-1968J0D01*
G01X405610Y438583D02*
G03X405610I-1673J0D01*
G01Y447244D02*
G03X405610I-1673J0D01*
G01X406004Y451575D02*
G03X406004I-1673J0D01*
G01Y455512D02*
G03X406004I-1673J0D01*
G01X410138Y543307D02*
G03X410138I-1673J0D01*
G01X411417Y548228D02*
G03X411417I-1968J0D01*
G01X410138Y552165D02*
G03X410138I-1673J0D01*
G01X409449Y413386D02*
G03X409449I-1969J0D01*
G01Y419291D02*
G03X409449I-1969J0D01*
G01Y431102D02*
G03X409449I-1969J0D01*
G01X441388Y405512D02*
G03X441388I-1673J0D01*
G01X437205Y404035D02*
G03X437205I-1674J0D01*
G01X438140Y410827D02*
G03X438140I-2855J0D01*
G01X441388Y413780D02*
G03X441388I-1673J0D01*
G01X444193Y417323D02*
G03X444193I-1673J0D01*
G01X446555Y423228D02*
G03X446555I-1673J0D01*
G01Y433071D02*
G03X446555I-1673J0D01*
G01X442618Y423228D02*
G03X442618I-1673J0D01*
G01X439272Y431496D02*
G03X439272I-1674J0D01*
G01X442618Y433071D02*
G03X442618I-1673J0D01*
G01X435236Y417323D02*
G03X435236I-1673J0D01*
G01X428839Y428150D02*
G03X428839I-1674J0D01*
G01X459154Y533465D02*
G03X459154I-1674J0D01*
G01X459350Y544094D02*
G03X459350I-1673J0D01*
G01X455413Y404035D02*
G03X455413I-1673J0D01*
G01X457234Y410827D02*
G03X457234I-2854J0D01*
G01X458661Y427165D02*
G03X458661I-1968J0D01*
G01Y438976D02*
G03X458661I-1968J0D01*
G01Y450787D02*
G03X458661I-1968J0D01*
G01Y462598D02*
G03X458661I-1968J0D01*
G01X448032Y404035D02*
G03X448032I-1674J0D01*
G01X457382Y471260D02*
G03X457382I-1673J0D01*
G01X460610Y492913D02*
G03X460610I-1673J0D01*
G01X456595D02*
G03X456595I-1674J0D01*
G01X459154Y499508D02*
G03X459154I-1969J0D01*
G01X466535Y415354D02*
G03X466535I-1968J0D01*
G01Y427165D02*
G03X466535I-1968J0D01*
G01Y438976D02*
G03X466535I-1968J0D01*
G01Y450787D02*
G03X466535I-1968J0D01*
G01Y462598D02*
G03X466535I-1968J0D01*
G01X465335Y492913D02*
G03X465335I-1674J0D01*
G01X465748Y498425D02*
G03X465748I-1968J0D01*
G01X482972Y534449D02*
G03X482972I-1673J0D01*
G01X481791Y544291D02*
G03X481791I-1968J0D01*
G01X473524Y518110D02*
G03X473524I-1674J0D01*
G01X474606Y531890D02*
G03X474606I-1673J0D01*
G01X476378Y535433D02*
G03X476378I-1969J0D01*
G01X474409Y541339D02*
G03X474409I-1968J0D01*
G01Y548228D02*
G03X474409I-1968J0D01*
G01X446752Y595472D02*
G03X446752I-1673J0D01*
G01X448327Y600000D02*
G03X448327I-1673J0D01*
G01X438287D02*
G03X438287I-1673J0D01*
G01X430807Y576772D02*
G03X430807I-1673J0D01*
G01X433760Y583858D02*
G03X433760I-1673J0D01*
G01X428465D02*
G03X428465I-1674J0D01*
G01X421949Y576772D02*
G03X421949I-1673J0D01*
G01Y584646D02*
G03X421949I-1673J0D01*
G01X418465Y571850D02*
G03X418465I-1674J0D01*
G01X414075Y578740D02*
G03X414075I-1673J0D01*
G01X410138Y562992D02*
G03X410138I-1673J0D01*
G01X408957Y569882D02*
G03X408957I-1674J0D01*
G01X410925Y581693D02*
G03X410925I-1673J0D01*
G01X407480Y598425D02*
G03X407480I-1968J0D01*
G01X401673Y585433D02*
G03X401673I-1673J0D01*
G01X489370Y613189D02*
G03X489370I-3150J0D01*
G01X490748Y623031D02*
G03X490748I-4528J0D01*
G01X489370Y632874D02*
G03X489370I-3150J0D01*
G01Y642717D02*
G03X489370I-3150J0D01*
G01X490650Y649606D02*
G03X490650I-1969J0D01*
G01Y656496D02*
G03X490650I-1969J0D01*
G01X480807Y654035D02*
G03X480807I-1968J0D01*
G01X471654Y623031D02*
G03X471654I-3150J0D01*
G01X473032Y632874D02*
G03X473032I-4528J0D01*
G01X471654Y642717D02*
G03X471654I-3150J0D01*
G01X471949Y654035D02*
G03X471949I-1969J0D01*
G01X441929Y654331D02*
G03X441929I-1968J0D01*
G01X430118Y646654D02*
G03X430118I-1968J0D01*
G01Y651575D02*
G03X430118I-1968J0D01*
G01Y659449D02*
G03X430118I-1968J0D01*
G01X424409Y623031D02*
G03X424409I-3149J0D01*
G01X425787Y632874D02*
G03X425787I-4527J0D01*
G01X424409Y642717D02*
G03X424409I-3149J0D01*
G01X425197Y653543D02*
G03X425197I-1969J0D01*
G01X416831Y645669D02*
G03X416831I-1969J0D01*
G01X420276Y650098D02*
G03X420276I-1969J0D01*
G01X406693Y623031D02*
G03X406693I-3150J0D01*
G01X408071Y632874D02*
G03X408071I-4528J0D01*
G01X411417Y645669D02*
G03X411417I-1968J0D01*
G01X413878Y650098D02*
G03X413878I-1969J0D01*
G01X417815Y653543D02*
G03X417815I-1969J0D01*
G01X406693Y642717D02*
G03X406693I-3150J0D01*
G01X409449Y654035D02*
G03X409449I-1969J0D01*
G01X405020Y650098D02*
G03X405020I-1969J0D01*
G01X491929Y595463D02*
Y602362D01*
G03X490157Y604134I-1772J0*
G01X485719*
X481801D02*
G03X485718I1959J197D01*
G01X481801D02*
X478337D01*
X477343Y602615D02*
G03X478337Y604134I-965J1716D01*
G01X476058Y602388D02*
G03X477343Y602615I911J-1404D01*
G01X474419Y604134D02*
G03X476058Y602388I1959J197D01*
G01X474419Y604134D02*
X473232D01*
X472835Y603839D02*
G03X473232Y604134I-788J1476D01*
G01X471260Y603839D02*
G03X472835I787J-1477D01*
G01X470396Y605587D02*
G03X471260Y603839I1651J-272D01*
G01X470276Y606299D02*
G03X470396Y605587I2165J0D01*
G01X470276Y606299D02*
Y612205D01*
G03X468504Y613976I-1772J-0*
G01X454724*
G03X453478Y613464I0J-1771*
G01X454689Y610433D02*
G03X453478Y613464I-949J1378D01*
G01X454925Y607874D02*
G03X454689Y610433I-1185J1181D01*
G01X454925Y605512D02*
G03Y607874I-1185J1181D01*
G01X452953Y602854D02*
G03X454925Y605512I787J1477D01*
G01X452953Y602854D02*
Y601870D01*
Y598917D02*
G03Y601870I787J1477D01*
G01Y598917D02*
Y598512D01*
X454099Y595472D02*
G03X452953Y598512I-949J1378D01*
G01Y592433D02*
G03X454099Y595472I197J1661D01*
G01X452953Y592433D02*
Y588583D01*
X450787Y586417D02*
G03X452953Y588583I0J2166D01*
G01X450787Y586417D02*
X445866D01*
G03X444094Y584646I0J-1771*
G01Y572835*
X442616Y570781D02*
G03X444094Y572835I-687J2054D01*
G01X439283Y570669D02*
G03X442616Y570781I1662J197D01*
G01X439283Y570669D02*
X437500D01*
X434547D02*
G03X437500I1477J-787D01*
G01X434547D02*
X427977D01*
X425606D02*
G03X427977I1185J1181D01*
G01X425606D02*
X423228D01*
G03X421457Y568898I0J-1771*
G01Y556102*
X419291Y553937D02*
G03X421457Y556102I0J2165D01*
G01X419291Y553937D02*
X417689D01*
X415973D02*
G03X417689I858J-1772D01*
G01X415973D02*
X399606D01*
G03X397835Y552165I0J-1772*
G01Y538951*
Y537820D02*
G03Y538951I1574J566D01*
G01Y537820D02*
Y533046D01*
Y531915D02*
G03Y533046I1574J565D01*
G01Y531915D02*
Y506783D01*
Y501091D02*
G03Y506783I787J2846D01*
G01Y501091D02*
Y500121D01*
Y492005D02*
G03Y500121I787J4058D01*
G01Y492005D02*
Y481192D01*
Y475501D02*
G03Y481192I787J2845D01*
G01Y475501D02*
Y473318D01*
Y467627D02*
G03Y473318I787J2845D01*
G01Y467627D02*
Y466657D01*
Y458540D02*
G03Y466657I787J4058D01*
G01Y458540D02*
Y457570D01*
Y451879D02*
G03Y457570I787J2845D01*
G01Y451879D02*
Y448415D01*
Y444498D02*
G03Y448415I-197J1959D01*
G01Y444498D02*
Y439622D01*
Y435378D02*
G03Y439622I787J2122D01*
G01Y435378D02*
Y434701D01*
Y430456D02*
G03Y434701I787J2123D01*
G01Y430456D02*
Y429780D01*
X400031Y425886D02*
G03X397835Y429780I-1409J1771D01*
G01X400031Y425886D02*
X400394D01*
X401772Y424508D02*
G03X400394Y425886I-1378J-0D01*
G01X401772Y424508D02*
Y420965D01*
X400394Y419587D02*
G03X401772Y420965I-0J1378D01*
G01X400394Y419587D02*
X397835D01*
Y418888*
Y414970D02*
G03Y418888I-197J1959D01*
G01Y414970D02*
Y405502D01*
X398752Y401920D02*
G03X397835Y405502I-1114J1623D01*
G01X398752Y401920D02*
X402319Y398354D01*
G03X403571Y397835I1252J1252*
G01X414965*
X424216Y410314D02*
G03X414965Y397835I-4334J-6456D01*
G01X426146Y408465D02*
G03X424216Y410314I35J1968D01*
G01X424799Y397835D02*
G03X426146Y408465I-4917J6023D01*
G01X424799Y397835D02*
X427911D01*
X427904Y398031D02*
G03X427911Y397835I2755J0D01*
G01X427904Y398031D02*
Y400787D01*
X433415D02*
G03X427904I-2756J0D01*
G01X433415D02*
Y398031D01*
X433408Y397835D02*
G03X433415Y398031I-2749J196D01*
G01X433408Y397835D02*
X456257D01*
X456250Y398031D02*
G03X456257Y397835I2756J0D01*
G01X456250Y398031D02*
Y400787D01*
X461762D02*
G03X456250I-2756J0D01*
G01X461762D02*
Y398031D01*
X461755Y397835D02*
G03X461762Y398031I-2749J196D01*
G01X461755Y397835D02*
X464965D01*
X462916Y407314D02*
G03X464965Y397835I6966J-3456D01*
G01X464251Y409220D02*
G03X462916Y407314I-1653J-263D01*
G01X474799Y397835D02*
G03X464251Y409220I-4917J6023D01*
G01X474799Y397835D02*
X486192D01*
G03X487445Y398354I0J1771*
G01X491012Y401920*
X491929Y405502D02*
G03X491012Y401920I197J-1959D01*
G01X491929Y405502D02*
Y413396D01*
Y417313D02*
G03Y413396I197J-1959D01*
G01Y417313D02*
Y425207D01*
Y429124D02*
G03Y425207I197J-1959D01*
G01Y429124D02*
Y437018D01*
Y440935D02*
G03Y437018I197J-1959D01*
G01Y440935D02*
Y448829D01*
Y452746D02*
G03Y448829I197J-1959D01*
G01Y452746D02*
Y460640D01*
Y464557D02*
G03Y460640I197J-1959D01*
G01Y464557D02*
Y470482D01*
Y474400D02*
G03Y470482I197J-1959D01*
G01Y474400D02*
Y482293D01*
Y486211D02*
G03Y482293I197J-1959D01*
G01Y486211D02*
Y507712D01*
Y509611D02*
G03Y507712I-1378J-950D01*
G01Y509611D02*
Y510877D01*
X488633Y511417D02*
G03X491929Y510877I1918J1378D01*
G01X488633Y511417D02*
X488583D01*
X471826*
X469119D02*
G03X471826I1353J-984D01*
G01X469119D02*
X467721D01*
X465350D02*
G03X467721I1185J-1181D01*
G01X465350D02*
X462008D01*
G03X460929Y511095I-0J-1968*
G01X459624Y508111D02*
G03X460929Y511095I1006J1338D01*
G01X455315Y509449D02*
G03X459624Y508111I2362J-0D01*
G01X462008Y516142D02*
G03X455315Y509449I-0J-6693D01*
G01X462008Y516142D02*
X487604D01*
X488189Y516726*
X488189D02*
Y532480D01*
Y552165*
Y574809*
X486912Y576086*
X483704Y579294*
X482204Y581394D02*
G03X483704Y579294I-117J-1670D01*
G01X481890Y583106D02*
G03X482204Y581394I4823J-0D01*
G01X481890Y583106D02*
Y587598D01*
X486614D02*
G03X481890I-2362J0D01*
G01X486614D02*
Y583106D01*
G03X486643Y583036I99J-0*
G01X486643*
X488900Y580780*
X491929Y581461D02*
G03X488900Y580780I-1378J-949D01*
G01X491929Y581461D02*
Y583671D01*
Y587589D02*
G03Y583671I197J-1959D01*
G01Y587589D02*
Y591545D01*
Y595463D02*
G03Y591545I197J-1959D01*
G01X449606Y590551D02*
Y604331D01*
G03X447835Y606102I-1771J-0*
G01X434256*
X434347Y603839D02*
G03X434256Y606102I-1276J1082D01*
G01X431890Y601571D02*
G03X434347Y603839I1181J1185D01*
G01X429433D02*
G03X431890Y601571I1276J-1083D01*
G01X429523Y606102D02*
G03X429433Y603839I1186J-1181D01*
G01X429523Y606102D02*
X412275D01*
X410559D02*
G03X412275I858J-1771D01*
G01X410559D02*
X406370D01*
X404654D02*
G03X406370I858J-1771D01*
G01X404654D02*
X400858D01*
X398868Y605941D02*
G03X400858Y606102I1132J-1610D01*
G01X398868Y605941D02*
G03X397835Y604331I738J-1610D01*
G01Y558071*
G03X399606Y556299I1771J-0*
G01X406606*
X409929D02*
G03X406606I-1661J-197D01*
G01X409929D02*
X416153D01*
X418938Y557343D02*
G03X416153Y556299I-1123J-1241D01*
G01X418938Y557343D02*
G03X419094Y558071I-1615J728D01*
G01Y560930*
Y563086D02*
G03Y560930I-1279J-1078D01*
G01Y563086D02*
Y570866D01*
X421260Y573031D02*
G03X419094Y570866I-0J-2165D01*
G01X421260Y573031D02*
X425606D01*
X427977D02*
G03X425606I-1186J-1181D01*
G01X427977D02*
X439961D01*
G03X441732Y574803I-0J1772*
G01Y579759*
Y581658D02*
G03Y579759I-1378J-949D01*
G01Y581658D02*
Y586614D01*
X443898Y588780D02*
G03X441732Y586614I-0J-2166D01*
G01X443898Y588780D02*
X447835D01*
G03X449606Y590551I-0J1771*
G01X491142Y608763D02*
Y658633D01*
X486728Y663047*
X484915Y663386D02*
G03X486728Y663047I1305J1968D01*
G01X484915Y663386D02*
X470841D01*
X468135D02*
G03X470841I1353J-984D01*
G01X468135D02*
X441263D01*
X438659D02*
G03X441263I1302J-1477D01*
G01X438659D02*
X435849D01*
X433245D02*
G03X435849I1302J-1477D01*
G01X433245D02*
X428329D01*
X423954Y665157D02*
G03X428328Y663386I2227J-787D01*
G01X423954Y665157D02*
X404359D01*
G03X403106Y664639I-0J-1771*
G01X401367Y662900*
X399108Y660641D02*
G03X401367Y662900I1483J776D01*
G01X399108Y660641D02*
X398354Y659886D01*
G03X397835Y658633I1252J-1253*
G01Y612205*
G03X399606Y610433I1771J-0*
G01X402018*
X405068D02*
G03X402018I-1525J2756D01*
G01X405068D02*
X446850D01*
G03X448622Y612205I0J1772*
G01Y616142*
X450787Y618307D02*
G03X448622Y616142I0J-2165D01*
G01X450787Y618307D02*
X457096D01*
X459046Y620079D02*
G03X457096Y618307I9J-1969D01*
G01X460728Y623084D02*
G03X459046Y620079I-1673J-1037D01*
G01X462411D02*
G03X460728Y623084I-9J1968D01*
G01X464360Y618307D02*
G03X462411Y620079I-1958J-197D01*
G01X464360Y618307D02*
X472441D01*
X474606Y616142D02*
G03X472441Y618307I-2165J-0D01*
G01X474606Y616142D02*
Y615425D01*
X478150D02*
G03X474606I-1772J-858D01*
G01X478150Y613709D02*
G03Y615425I1771J858D01*
G01X474606Y613709D02*
G03X478150I1772J858D01*
G01X474606D02*
Y611094D01*
X478346Y610245D02*
G03X474606Y611094I-1968J-9D01*
G01X481173Y608465D02*
G03X478346Y610245I-858J1771D01*
G01X481173Y608465D02*
X490157D01*
G03X491142Y608763I0J1771*
G01X486220Y415354D02*
G03X486220I-1968J0D01*
G01Y427165D02*
G03X486220I-1968J0D01*
G01Y438976D02*
G03X486220I-1968J0D01*
G01Y450787D02*
G03X486220I-1968J0D01*
G01Y462598D02*
G03X486220I-1968J0D01*
G01Y472441D02*
G03X486220I-1968J0D01*
G01Y484252D02*
G03X486220I-1968J0D01*
G01X488878Y491339D02*
G03X488878I-1673J0D01*
G01X483268Y498031D02*
G03X483268I-1969J0D01*
G01X485236Y505906D02*
G03X485236I-1968J0D01*
G01X476378Y415354D02*
G03X476378I-1969J0D01*
G01Y427165D02*
G03X476378I-1969J0D01*
G01Y438976D02*
G03X476378I-1969J0D01*
G01Y450787D02*
G03X476378I-1969J0D01*
G01Y462598D02*
G03X476378I-1969J0D01*
G01X478346Y472441D02*
G03X478346I-1968J0D01*
G01X476476Y486220D02*
G03X476476I-1673J0D01*
G01X479232Y492913D02*
G03X479232I-1673J0D01*
G01X472579D02*
G03X472579I-1673J0D01*
G01X472441Y499016D02*
G03X472441I-1969J0D01*
G01X485728Y593504D02*
G03X485728I-1968J0D01*
G01X483760Y600984D02*
G03X483760I-1673J0D01*
G01X479823Y595472D02*
G03X479823I-1969J0D01*
G01X468406Y518110D02*
G03X468406I-1674J0D01*
G01X469193Y530906D02*
G03X469193I-1673J0D01*
G01X471949Y555118D02*
G03X471949I-1969J0D01*
G01X475098Y582677D02*
G03X475098I-1673J0D01*
G01X473130Y593504D02*
G03X473130I-1673J0D01*
G01X467520Y538386D02*
G03X467520I-1969J0D01*
G01X464075Y546260D02*
G03X464075I-1969J0D01*
G01X463075Y551939D02*
G03X464090Y552785I1492J-758D01*
G01X460995Y554020D02*
G03X463075Y551939I1603J-477D01*
G01X461840Y555035D02*
G03X460995Y554020I-1604J477D01*
G01X464090Y552785D02*
G03X461840Y555035I-1492J758D01*
G01X463240Y562746D02*
G03X460972I-1134J1230D01*
X463240I1134J-1230*
G01X466732Y566929D02*
G03X466732I-1673J0D01*
G01X466240Y584252D02*
G03X466240I-1673J0D01*
G01X468209Y593504D02*
G03X468209I-1674J0D01*
G01X459350Y558563D02*
G03X459350I-1673J0D01*
G01X463091Y595472D02*
G03X463091I-1969J0D01*
G01X458366Y582677D02*
G03X458366I-1673J0D01*
G01X464739Y603543D02*
G03X463608I-566J1575D01*
G01X462992Y600783D02*
G03X464739Y603543I1181J1186D01*
G01X460630Y600783D02*
G03X462992I1181J1186D01*
G01X459677Y600311D02*
G03X460630Y600783I-228J1658D01*
G01X458039Y601067D02*
G03X459677Y600311I229J-1658D01*
G01X458883Y603543D02*
G03X458039Y601067I566J-1574D01*
G01X460014Y603543D02*
G03X458883I-565J1575D01*
G01X460630Y603154D02*
G03X460014Y603543I-1181J-1185D01*
G01X462992Y603154D02*
G03X460630I-1181J-1185D01*
G01X463608Y603543D02*
G03X462992Y603154I565J-1574D01*
G01X450787Y450787D02*
G03X450787I-1968J0D01*
G01Y462598D02*
G03X450787I-1968J0D01*
G01X451378Y468307D02*
G03X451378I-1969J0D01*
G01X453321Y522047D02*
G03X452190I-565J1575D01*
G01X453321Y518898D02*
G03Y522047I-565J1574D01*
G01X452190Y518898D02*
G03X453321I566J-1575D01*
G01X452190Y522047D02*
G03Y518898I566J-1575D01*
G01X454429Y533465D02*
G03X454429I-1673J0D01*
G01Y544094D02*
G03X454429I-1673J0D01*
G01X454921Y558563D02*
G03X454921I-1673J0D01*
G01X444587Y471260D02*
G03X444587I-1674J0D01*
G01X444547Y493012D02*
G03X444547I-1673J0D01*
G01X445374Y497835D02*
G03Y499409I1476J787D01*
Y497835I-1476J-787*
G01X449384Y522047D02*
G03X448253I-565J1575D01*
G01X449384Y518898D02*
G03Y522047I-565J1574D01*
G01X448253Y518898D02*
G03X449384I566J-1575D01*
G01X448253Y522047D02*
G03Y518898I566J-1575D01*
G01X453445Y582677D02*
G03X453445I-1673J0D01*
G01X445447Y522047D02*
G03X444316I-565J1575D01*
G01X445447Y518898D02*
G03Y522047I-565J1574D01*
G01X444316Y518898D02*
G03X445447I566J-1575D01*
G01X444316Y522047D02*
G03Y518898I566J-1575D01*
G01X447539Y529921D02*
G03X447539I-1673J0D01*
G01X449508Y544094D02*
G03X449508I-1673J0D01*
G01X445571Y533858D02*
G03X445571I-1673J0D01*
G01X449311Y576280D02*
G03X449311I-1968J0D01*
G01X449508Y581693D02*
G03X449508I-1673J0D01*
G01X440945Y450787D02*
G03X440945I-1969J0D01*
G01Y462598D02*
G03X440945I-1969J0D01*
G01Y469488D02*
G03X440945I-1969J0D01*
G01X440532Y492913D02*
G03X440532I-1674J0D01*
G01X437500Y500000D02*
G03Y501575I1476J787D01*
Y500000I-1476J-788*
G01X429134Y437008D02*
G03X429134I-1969J0D01*
G01X433071Y446850D02*
G03X433071I-1969J0D01*
G01X432500Y493701D02*
G03X432500I-1673J0D01*
G01X421260Y417323D02*
G03X421260I-1969J0D01*
G01X420031Y433893D02*
G03X420126Y435595I1819J753D01*
G01X416535Y433984D02*
G03X420031Y433893I1772J859D01*
G01X416535Y435701D02*
G03Y433984I-1771J-858D01*
G01X420126Y435595D02*
G03X416535Y435701I-1819J-752D01*
G01X425197Y446850D02*
G03X425197I-1969J0D01*
G01Y454724D02*
G03X425197I-1969J0D01*
G01X429134Y462598D02*
G03X429134I-1969J0D01*
G01Y469488D02*
G03X429134I-1969J0D01*
G01X425591Y492752D02*
G03Y494650I1378J949D01*
Y492752I-1378J-949*
G01X421949Y458661D02*
G03X421949I-1673J0D01*
G01X427559Y497466D02*
G03Y498597I1575J565D01*
G01X424803Y496846D02*
G03X427559Y497466I1181J1185D01*
G01X423294Y496391D02*
G03X424803Y496846I328J1640D01*
G01X421981Y497704D02*
G03X423294Y496391I-327J-1641D01*
G01X424803Y499217D02*
G03X421981Y497704I-1181J-1186D01*
G01X427559Y498597D02*
G03X424803Y499217I-1575J-566D01*
G01X433760Y500787D02*
G03X433760I-1673J0D01*
G01Y510039D02*
G03X433760I-1673J0D01*
G01X437305Y512133D02*
G03X438680Y513851I1671J72D01*
G01X436711Y512133D02*
G03X437305I297J1647D01*
G01X435336Y513851D02*
G03X436711Y512133I-297J-1646D01*
G01X438680Y513851D02*
G03X435336I-1672J-71D01*
G01X440256Y520669D02*
G03X440256I-1673J0D01*
G01Y524606D02*
G03X440256I-1673J0D01*
G01X441831Y529134D02*
G03X441831I-1674J0D01*
G01X440453Y544685D02*
G03X440453I-1673J0D01*
G01X435236Y517717D02*
G03X435236I-1968J0D01*
G01X435039Y529528D02*
G03X435039I-1968J0D01*
G01X435925Y541535D02*
G03X435925I-1673J0D01*
G01X429429Y513780D02*
G03X429429I-1673J0D01*
G01Y518701D02*
G03X429429I-1673J0D01*
G01X428351Y523228D02*
G03X425980I-1186J1181D01*
X428351I1185J-1181*
G01X427165Y529528D02*
G03X427165I-1968J0D01*
G01X430127Y536417D02*
G03X428150Y538395I-9J1969D01*
G01Y534440D02*
G03X430127Y536417I1968J9D01*
G01X424213Y534440D02*
G03X428150I1968J9D01*
G01X422235Y536417D02*
G03X424213Y534440I9J-1968D01*
G01Y538395D02*
G03X422235Y536417I-1969J-9D01*
G01X428150Y538395D02*
G03X424213I-1969J-9D01*
G01X435532Y548228D02*
G03X435532I-1969J0D01*
G01X438189Y563976D02*
G03X438189I-1673J0D01*
G01X434350Y565354D02*
G03X434350I-1673J0D01*
G01X430906Y553543D02*
G03X430906I-1969J0D01*
G01X425462Y559372D02*
G03X424144Y559723I-265J1652D01*
X425462Y559372I265J-1652*
G01X415748Y439370D02*
G03X415748I-1968J0D01*
G01X417323Y446850D02*
G03X417323I-1969J0D01*
G01Y454724D02*
G03X417323I-1969J0D01*
G01X418012Y461614D02*
G03X418012I-1673J0D01*
G01X414075Y465551D02*
G03X414075I-1673J0D01*
G01X415814Y497572D02*
G03X414501Y498885I328J1641D01*
G01X413846Y495603D02*
G03X415814Y497572I327J1641D01*
G01X410957Y496391D02*
G03X413846Y495603I1248J-1115D01*
G01X409356Y499117D02*
G03X410957Y496391I1274J-1086D01*
G01X410722Y499702D02*
G03X409356Y499117I-1273J1085D01*
G01X411878Y496917D02*
G03X410722Y499702I-1248J1114D01*
G01X412532Y496916D02*
G03X411878Y496917I-327J-1640D01*
G01X414501Y498885D02*
G03X412532Y496916I-328J-1641D01*
G01X416634Y511811D02*
G03X416634I-1673J0D01*
G01X416043Y523622D02*
G03X416043I-1673J0D01*
G01X416831Y529528D02*
G03X416831I-1969J0D01*
G01X412106Y509646D02*
G03X412106I-1673J0D01*
G01X403543Y408465D02*
G03X403543I-1968J0D01*
G01Y413386D02*
G03X403543I-1968J0D01*
G01X405610Y438583D02*
G03X405610I-1673J0D01*
G01Y447244D02*
G03X405610I-1673J0D01*
G01X406004Y451575D02*
G03X406004I-1673J0D01*
G01Y455512D02*
G03X406004I-1673J0D01*
G01X406732Y512169D02*
G03X405965Y512634I453J1611D01*
X406732Y512169I-453J-1610*
G01X408268Y534941D02*
G03X406693I-788J1476D01*
X408268I787J-1476*
G01X410138Y543307D02*
G03X410138I-1673J0D01*
G01X411417Y548228D02*
G03X411417I-1968J0D01*
G01X410138Y552165D02*
G03X410138I-1673J0D01*
G01X409449Y413386D02*
G03X409449I-1969J0D01*
G01Y419291D02*
G03X409449I-1969J0D01*
G01Y431102D02*
G03X409449I-1969J0D01*
G01X441388Y405512D02*
G03X441388I-1673J0D01*
G01X437205Y404035D02*
G03X437205I-1674J0D01*
G01X438140Y410827D02*
G03X438140I-2855J0D01*
G01X441388Y413780D02*
G03X441388I-1673J0D01*
G01X444193Y417323D02*
G03X444193I-1673J0D01*
G01X446555Y423228D02*
G03X446555I-1673J0D01*
G01Y433071D02*
G03X446555I-1673J0D01*
G01X442618Y423228D02*
G03X442618I-1673J0D01*
G01X439272Y431496D02*
G03X439272I-1674J0D01*
G01X442618Y433071D02*
G03X442618I-1673J0D01*
G01X435236Y417323D02*
G03X435236I-1673J0D01*
G01X430610Y422441D02*
G03Y424016I1477J787D01*
Y422441I-1476J-788*
G01X428839Y428150D02*
G03X428839I-1674J0D01*
G01X428937Y431728D02*
G03Y433626I1378J949D01*
Y431728I-1378J-949*
G01X459154Y533465D02*
G03X459154I-1674J0D01*
G01X459350Y544094D02*
G03X459350I-1673J0D01*
G01X455413Y404035D02*
G03X455413I-1673J0D01*
G01X457234Y410827D02*
G03X457234I-2854J0D01*
G01X458661Y427165D02*
G03X458661I-1968J0D01*
G01Y438976D02*
G03X458661I-1968J0D01*
G01Y450787D02*
G03X458661I-1968J0D01*
G01Y462598D02*
G03X458661I-1968J0D01*
G01X448032Y404035D02*
G03X448032I-1674J0D01*
G01X454134Y435011D02*
Y417006D01*
X452923Y414083D02*
G03X454134Y417006I-2923J2923D01*
G01X452923Y414083D02*
X452149Y413310D01*
X449087Y416372D02*
G03X452149Y413310I864J-2199D01*
G01X449087Y416372D02*
X449803Y417088D01*
Y422663*
Y425369D02*
G03Y422663I-984J-1353D01*
G01Y425369D02*
Y426796D01*
Y429503D02*
G03Y426796I-984J-1353D01*
G01Y429503D02*
Y434090D01*
X448061Y436672D02*
G03X449803Y434090I364J-1633D01*
G01X448061Y436672D02*
X447528Y437205D01*
X434015*
Y441535D02*
G03Y437205I-944J-2165D01*
G01Y441535D02*
X447610D01*
X450533Y440325D02*
G03X447610Y441535I-2923J-2923D01*
G01X450533Y440325D02*
X452923Y437934D01*
X454134Y435011D02*
G03X452923Y437934I-4134J0D01*
G01X457382Y471260D02*
G03X457382I-1673J0D01*
G01X460610Y492913D02*
G03X460610I-1673J0D01*
G01X456595D02*
G03X456595I-1674J0D01*
G01X459154Y499508D02*
G03X459154I-1969J0D01*
G01X466535Y415354D02*
G03X466535I-1968J0D01*
G01Y427165D02*
G03X466535I-1968J0D01*
G01Y438976D02*
G03X466535I-1968J0D01*
G01Y450787D02*
G03X466535I-1968J0D01*
G01Y462598D02*
G03X466535I-1968J0D01*
G01X465335Y492913D02*
G03X465335I-1674J0D01*
G01X465748Y498425D02*
G03X465748I-1968J0D01*
G01X482972Y534449D02*
G03X482972I-1673J0D01*
G01X481791Y544291D02*
G03X481791I-1968J0D01*
G01X473524Y518110D02*
G03X473524I-1674J0D01*
G01X474606Y531890D02*
G03X474606I-1673J0D01*
G01X476378Y535433D02*
G03X476378I-1969J0D01*
G01X474409Y541339D02*
G03X474409I-1968J0D01*
G01Y548228D02*
G03X474409I-1968J0D01*
G01X480915Y556089D02*
G03X480934Y558497I1172J1194D01*
G01X478837Y555908D02*
G03X480915Y556089I926J1394D01*
G01X475886Y554331D02*
G03X478837Y555908I1476J787D01*
G01X473134Y556201D02*
G03X475886Y554331I1275J-1083D01*
G01X475685Y556201D02*
G03X473134I-1276J1082D01*
G01X475886Y555906D02*
G03X475685Y556201I-1477J-788D01*
G01X478288Y556512D02*
G03X475886Y555906I-926J-1394D01*
G01X480934Y558497D02*
G03X478288Y556512I-1171J-1195D01*
G01X446752Y595472D02*
G03X446752I-1673J0D01*
G01X448327Y600000D02*
G03X448327I-1673J0D01*
G01X438287D02*
G03X438287I-1673J0D01*
G01X430807Y576772D02*
G03X430807I-1673J0D01*
G01X433760Y583858D02*
G03X433760I-1673J0D01*
G01X428465D02*
G03X428465I-1674J0D01*
G01X421949Y576772D02*
G03X421949I-1673J0D01*
G01Y584646D02*
G03X421949I-1673J0D01*
G01X418465Y571850D02*
G03X418465I-1674J0D01*
G01X414075Y578740D02*
G03X414075I-1673J0D01*
G01X410138Y562992D02*
G03X410138I-1673J0D01*
G01X408957Y569882D02*
G03X408957I-1674J0D01*
G01X410925Y581693D02*
G03X410925I-1673J0D01*
G01X407480Y598425D02*
G03X407480I-1968J0D01*
G01X401673Y585433D02*
G03X401673I-1673J0D01*
G01X489370Y613189D02*
G03X489370I-3150J0D01*
G01X490748Y623031D02*
G03X490748I-4528J0D01*
G01X489370Y632874D02*
G03X489370I-3150J0D01*
G01Y642717D02*
G03X489370I-3150J0D01*
G01X490650Y649606D02*
G03X490650I-1969J0D01*
G01Y656496D02*
G03X490650I-1969J0D01*
G01X480807Y654035D02*
G03X480807I-1968J0D01*
G01X471654Y623031D02*
G03X471654I-3150J0D01*
G01X473032Y632874D02*
G03X473032I-4528J0D01*
G01X471654Y642717D02*
G03X471654I-3150J0D01*
G01X471949Y654035D02*
G03X471949I-1969J0D01*
G01X465560Y658465D02*
G03X463583Y660442I-9J1968D01*
G01Y656487D02*
G03X465560Y658465I1968J9D01*
G01X461623Y654528D02*
G03X463583Y656487I-9J1968D01*
G01X461605Y654528D02*
G03X461623I9J-1969D01*
G01X461605Y658465D02*
G03Y654528I9J-1969D01*
G01X463583Y660442D02*
G03X461605Y658465I-1969J-9D01*
G01X441929Y654331D02*
G03X441929I-1968J0D01*
G01X430118Y646654D02*
G03X430118I-1968J0D01*
G01Y651575D02*
G03X430118I-1968J0D01*
G01Y659449D02*
G03X430118I-1968J0D01*
G01X424409Y623031D02*
G03X424409I-3149J0D01*
G01X425787Y632874D02*
G03X425787I-4527J0D01*
G01X424409Y642717D02*
G03X424409I-3149J0D01*
G01X425197Y653543D02*
G03X425197I-1969J0D01*
G01X416831Y645669D02*
G03X416831I-1969J0D01*
G01X420276Y650098D02*
G03X420276I-1969J0D01*
G01X406693Y623031D02*
G03X406693I-3150J0D01*
G01X408071Y632874D02*
G03X408071I-4528J0D01*
G01X411417Y645669D02*
G03X411417I-1968J0D01*
G01X413878Y650098D02*
G03X413878I-1969J0D01*
G01X417815Y653543D02*
G03X417815I-1969J0D01*
G01X406693Y642717D02*
G03X406693I-3150J0D01*
G01X409449Y654035D02*
G03X409449I-1969J0D01*
G01X405020Y650098D02*
G03X405020I-1969J0D01*
G01X483143Y602282D02*
X491929D01*
X483468Y601928D02*
X491929D01*
X483653Y601573D02*
X491929D01*
X483743Y601219D02*
X491929D01*
X483756Y600865D02*
X491929D01*
X483691Y600510D02*
X491929D01*
X483541Y600156D02*
X491929D01*
X483271Y599802D02*
X491929D01*
X482749Y599448D02*
X491929D01*
X459911Y599093D02*
X491929D01*
X459801Y598739D02*
X491929D01*
X459590Y598385D02*
X491929D01*
X459215Y598030D02*
X491929D01*
X454605Y597676D02*
X491929D01*
X478530Y597322D02*
X491929D01*
X479135Y596967D02*
X491929D01*
X479459Y596613D02*
X491929D01*
X479659Y596259D02*
X491929D01*
X479775Y595904D02*
X491929D01*
X479821Y595550D02*
X491929D01*
X452953Y591298D02*
X491929D01*
X452953Y590944D02*
X491929D01*
X452953Y590589D02*
X491929D01*
X452953Y590235D02*
X491929D01*
X484862Y589881D02*
X491929D01*
X485617Y589526D02*
X491929D01*
X486014Y589172D02*
X491929D01*
X486275Y588818D02*
X491929D01*
X486450Y588463D02*
X491929D01*
X486558Y588109D02*
X491929D01*
X486609Y587755D02*
X491929D01*
X486614Y583503D02*
X491929D01*
X486614Y583148D02*
X491929D01*
X486885Y582794D02*
X491929D01*
X487240Y582440D02*
X491929D01*
X491120Y582085D02*
X491929D01*
X491697Y581731D02*
X491929D01*
X491913Y510865D02*
X491929D01*
X491151Y510510D02*
X491929D01*
X491303Y510156D02*
X491929D01*
X491776Y509802D02*
X491929D01*
X491903Y507676D02*
X491929D01*
X491553Y507322D02*
X491929D01*
X484925Y506967D02*
X491929D01*
X485105Y506613D02*
X491929D01*
X485204Y506259D02*
X491929D01*
X485236Y505904D02*
X491929D01*
X485204Y505550D02*
X491929D01*
X485104Y505196D02*
X491929D01*
X484924Y504841D02*
X491929D01*
X484632Y504487D02*
X491929D01*
X484123Y504133D02*
X491929D01*
X401571Y503778D02*
X491929D01*
X401530Y503424D02*
X491929D01*
X401445Y503070D02*
X491929D01*
X401310Y502715D02*
X491929D01*
X439545Y502361D02*
X491929D01*
X440122Y502007D02*
X491929D01*
X440409Y501652D02*
X491929D01*
X458004Y501298D02*
X491929D01*
X470871Y500944D02*
X491929D01*
X471655Y500589D02*
X491929D01*
X472018Y500235D02*
X491929D01*
X481974Y499881D02*
X491929D01*
X482580Y499526D02*
X491929D01*
X482904Y499172D02*
X491929D01*
X483104Y498818D02*
X491929D01*
X483220Y498463D02*
X491929D01*
X483266Y498109D02*
X491929D01*
X483248Y497755D02*
X491929D01*
X483164Y497400D02*
X491929D01*
X483003Y497046D02*
X491929D01*
X482741Y496692D02*
X491929D01*
X482302Y496337D02*
X491929D01*
X423325Y495983D02*
X491929D01*
X423269Y495629D02*
X491929D01*
X431396Y495274D02*
X491929D01*
X431973Y494920D02*
X491929D01*
X477823Y494566D02*
X491929D01*
X478615Y494211D02*
X491929D01*
X478941Y493857D02*
X491929D01*
X479125Y493503D02*
X491929D01*
X479216Y493148D02*
X491929D01*
X488030Y492794D02*
X491929D01*
X488465Y492440D02*
X491929D01*
X488702Y492085D02*
X491929D01*
X488831Y491731D02*
X491929D01*
X488878Y491377D02*
X491929D01*
X488848Y491022D02*
X491929D01*
X488738Y490668D02*
X491929D01*
X488527Y490314D02*
X491929D01*
X488152Y489959D02*
X491929D01*
X397835Y489605D02*
X491929D01*
X397835Y489251D02*
X491929D01*
X397835Y488896D02*
X491929D01*
X397835Y488542D02*
X491929D01*
X397835Y488188D02*
X491929D01*
X475249Y487833D02*
X491929D01*
X475906Y487479D02*
X491929D01*
X476211Y487125D02*
X491929D01*
X476383Y486770D02*
X491929D01*
X476465Y486416D02*
X491929D01*
X397835Y482164D02*
X491929D01*
X397835Y481810D02*
X491929D01*
X397835Y481455D02*
X491929D01*
X399686Y481101D02*
X491929D01*
X400342Y480747D02*
X491929D01*
X400751Y480392D02*
X491929D01*
X401042Y480038D02*
X491929D01*
X401255Y479684D02*
X491929D01*
X401406Y479329D02*
X491929D01*
X401507Y478975D02*
X491929D01*
X401562Y478621D02*
X491929D01*
X401574Y478266D02*
X491929D01*
X401543Y477912D02*
X491929D01*
X401468Y477558D02*
X491929D01*
X401345Y477203D02*
X491929D01*
X401167Y476849D02*
X491929D01*
X400922Y476495D02*
X491929D01*
X400585Y476140D02*
X491929D01*
X400093Y475786D02*
X491929D01*
X399095Y475432D02*
X491929D01*
X397835Y475077D02*
X491929D01*
X397835Y474723D02*
X491929D01*
X457184Y470471D02*
X491929D01*
X456931Y470117D02*
X491929D01*
X456455Y469762D02*
X491929D01*
X451041Y469408D02*
X491929D01*
X451231Y469054D02*
X491929D01*
X451338Y468699D02*
X491929D01*
X451378Y468345D02*
X491929D01*
X451352Y467991D02*
X491929D01*
X451260Y467636D02*
X491929D01*
X451090Y467282D02*
X491929D01*
X450814Y466928D02*
X491929D01*
X450342Y466573D02*
X491929D01*
X413936Y466219D02*
X491929D01*
X414045Y465865D02*
X491929D01*
X414074Y465510D02*
X491929D01*
X414028Y465156D02*
X491929D01*
X413898Y464802D02*
X491929D01*
X417630Y460550D02*
X491929D01*
X420944Y460196D02*
X491929D01*
X421462Y459841D02*
X491929D01*
X421731Y459487D02*
X491929D01*
X421881Y459133D02*
X491929D01*
X421945Y458778D02*
X491929D01*
X421932Y458424D02*
X491929D01*
X421841Y458070D02*
X491929D01*
X421656Y457715D02*
X491929D01*
X421328Y457361D02*
X491929D01*
X420523Y457007D02*
X491929D01*
X423627Y456652D02*
X491929D01*
X424411Y456298D02*
X491929D01*
X424774Y455944D02*
X491929D01*
X424997Y455589D02*
X491929D01*
X425130Y455235D02*
X491929D01*
X425191Y454881D02*
X491929D01*
X425187Y454526D02*
X491929D01*
X425118Y454172D02*
X491929D01*
X424976Y453818D02*
X491929D01*
X424740Y453463D02*
X491929D01*
X424353Y453109D02*
X491929D01*
X484324Y452755D02*
X491929D01*
X432173Y448503D02*
X491929D01*
X432582Y448148D02*
X491929D01*
X432830Y447794D02*
X491929D01*
X432981Y447440D02*
X491929D01*
X433057Y447085D02*
X491929D01*
X433067Y446731D02*
X491929D01*
X433013Y446377D02*
X491929D01*
X432888Y446022D02*
X491929D01*
X432676Y445668D02*
X491929D01*
X432333Y445314D02*
X491929D01*
X431649Y444959D02*
X491929D01*
X398306Y444605D02*
X491929D01*
X397835Y444251D02*
X491929D01*
X397835Y443896D02*
X491929D01*
X397835Y443542D02*
X491929D01*
X397835Y443188D02*
X491929D01*
X397835Y442833D02*
X491929D01*
X397835Y442479D02*
X491929D01*
X397835Y442125D02*
X491929D01*
X397835Y441770D02*
X491929D01*
X448596Y441416D02*
X491929D01*
X449531Y441062D02*
X491929D01*
X453722Y436810D02*
X491929D01*
X453873Y436455D02*
X491929D01*
X453988Y436101D02*
X491929D01*
X454068Y435747D02*
X491929D01*
X454116Y435392D02*
X491929D01*
X454134Y435038D02*
X491929D01*
X454134Y434684D02*
X491929D01*
X454134Y434329D02*
X491929D01*
X454134Y433975D02*
X491929D01*
X454134Y433621D02*
X491929D01*
X454134Y433266D02*
X491929D01*
X454134Y432912D02*
X491929D01*
X454134Y432558D02*
X491929D01*
X454134Y432203D02*
X491929D01*
X454134Y431849D02*
X491929D01*
X454134Y431495D02*
X491929D01*
X454134Y431140D02*
X491929D01*
X454134Y430786D02*
X491929D01*
X454134Y430432D02*
X491929D01*
X454134Y430077D02*
X491929D01*
X454134Y429723D02*
X491929D01*
X454134Y429369D02*
X491929D01*
X454134Y425117D02*
X491929D01*
X454134Y424762D02*
X491929D01*
X454134Y424408D02*
X491929D01*
X454134Y424054D02*
X491929D01*
X454134Y423699D02*
X491929D01*
X454134Y423345D02*
X491929D01*
X454134Y422991D02*
X491929D01*
X454134Y422636D02*
X491929D01*
X454134Y422282D02*
X491929D01*
X454134Y421928D02*
X491929D01*
X454134Y421573D02*
X491929D01*
X454134Y421219D02*
X491929D01*
X454134Y420865D02*
X491929D01*
X454134Y420510D02*
X491929D01*
X454134Y420156D02*
X491929D01*
X454134Y419802D02*
X491929D01*
X454134Y419448D02*
X491929D01*
X454134Y419093D02*
X491929D01*
X454134Y418739D02*
X491929D01*
X454134Y418385D02*
X491929D01*
X454134Y418030D02*
X491929D01*
X454134Y417676D02*
X491929D01*
X484324Y417322D02*
X491929D01*
X456145Y413070D02*
X491929D01*
X456520Y412715D02*
X491929D01*
X456787Y412361D02*
X491929D01*
X456979Y412007D02*
X491929D01*
X457112Y411652D02*
X491929D01*
X472143Y411298D02*
X491929D01*
X473085Y410944D02*
X491929D01*
X473775Y410589D02*
X491929D01*
X474331Y410235D02*
X491929D01*
X474800Y409881D02*
X491929D01*
X475205Y409526D02*
X491929D01*
X475559Y409172D02*
X491929D01*
X475871Y408818D02*
X491929D01*
X476147Y408463D02*
X491929D01*
X476393Y408109D02*
X491929D01*
X476611Y407755D02*
X491929D01*
X476804Y407400D02*
X491929D01*
X476974Y407046D02*
X491929D01*
X477123Y406692D02*
X491929D01*
X477252Y406337D02*
X491929D01*
X477362Y405983D02*
X491929D01*
X477453Y405629D02*
X491929D01*
X484762Y602636D02*
X491908D01*
X485202Y602991D02*
X491814D01*
X484637Y448857D02*
X491741D01*
X484637Y413424D02*
X491741D01*
X484650Y474369D02*
X491728D01*
X485464Y603345D02*
X491631D01*
X484428Y591652D02*
X491458D01*
X484927Y464448D02*
X491451D01*
X484927Y429014D02*
X491451D01*
X485020Y437164D02*
X491358D01*
X485027Y486062D02*
X491351D01*
X485624Y603699D02*
X491320D01*
X486614Y583857D02*
X491271D01*
X486614Y587400D02*
X491265D01*
X485185Y482518D02*
X491193D01*
X485189Y440707D02*
X491189D01*
X477527Y405274D02*
X491189D01*
X485254Y460904D02*
X491124D01*
X485254Y425471D02*
X491124D01*
X484767Y595196D02*
X491119D01*
X485377Y470825D02*
X491001D01*
X485381Y452400D02*
X490997D01*
X485381Y416967D02*
X490997D01*
X485431Y449211D02*
X490947D01*
X485431Y413778D02*
X490947D01*
X485435Y474014D02*
X490943D01*
X485038Y592007D02*
X490848D01*
X485533Y464093D02*
X490845D01*
X485533Y428660D02*
X490845D01*
X477361Y401731D02*
X490823D01*
X485575Y437518D02*
X490803D01*
X477453Y402085D02*
X490803D01*
X485577Y485707D02*
X490800D01*
X486614Y584211D02*
X490761D01*
X486614Y587046D02*
X490759D01*
X485657Y482873D02*
X490721D01*
X485659Y440353D02*
X490719D01*
X477585Y404920D02*
X490719D01*
X485709Y604054D02*
X490684D01*
X485694Y461259D02*
X490684D01*
X485694Y425825D02*
X490684D01*
X485204Y594841D02*
X490681D01*
X485763Y471180D02*
X490615D01*
X485766Y452046D02*
X490612D01*
X485766Y416613D02*
X490612D01*
X485795Y449566D02*
X490583D01*
X485795Y414133D02*
X490583D01*
X485798Y473660D02*
X490580D01*
X485363Y592361D02*
X490523D01*
X485857Y463739D02*
X490521D01*
X485857Y428306D02*
X490521D01*
X485882Y437873D02*
X490496D01*
X477527Y402440D02*
X490496D01*
X485884Y485353D02*
X490494D01*
X486614Y584566D02*
X490470D01*
X477251Y401377D02*
X490468D01*
X486614Y586692D02*
X490468D01*
X485933Y483227D02*
X490445D01*
X485934Y439999D02*
X490444D01*
X477625Y404566D02*
X490444D01*
X485956Y461613D02*
X490422D01*
X485956Y426180D02*
X490422D01*
X485465Y594487D02*
X490420D01*
X485999Y471534D02*
X490379D01*
X486001Y451692D02*
X490377D01*
X486001Y416259D02*
X490377D01*
X486019Y449920D02*
X490359D01*
X486019Y414487D02*
X490359D01*
X486020Y473306D02*
X490358D01*
X485563Y592715D02*
X490322D01*
X486057Y463385D02*
X490321D01*
X486057Y427951D02*
X490321D01*
X486072Y438227D02*
X490306D01*
X477584Y402794D02*
X490306D01*
X486073Y484999D02*
X490305D01*
X486614Y584920D02*
X490290D01*
X486614Y586337D02*
X490289D01*
X486103Y483581D02*
X490275D01*
X486104Y439644D02*
X490274D01*
X477649Y404211D02*
X490274D01*
X486117Y461967D02*
X490261D01*
X486117Y426534D02*
X490261D01*
X485625Y594133D02*
X490261D01*
X486141Y471888D02*
X490237D01*
X486142Y451337D02*
X490236D01*
X486142Y415904D02*
X490236D01*
X486152Y450274D02*
X490226D01*
X486152Y414841D02*
X490226D01*
X486153Y472951D02*
X490225D01*
X485680Y593070D02*
X490206D01*
X486173Y463030D02*
X490205D01*
X486173Y427597D02*
X490205D01*
X486180Y438581D02*
X490197D01*
X477625Y403148D02*
X490197D01*
X486181Y484644D02*
X490197D01*
X486614Y585274D02*
X490190D01*
X486614Y585983D02*
X490189D01*
X486195Y483936D02*
X490183D01*
X486195Y439290D02*
X490183D01*
X477658Y403857D02*
X490183D01*
X486201Y462322D02*
X490177D01*
X486201Y426888D02*
X490177D01*
X485709Y593778D02*
X490177D01*
X486210Y472243D02*
X490167D01*
X486211Y450983D02*
X490167D01*
X486211Y415550D02*
X490167D01*
X486214Y450629D02*
X490164D01*
X486214Y415196D02*
X490164D01*
X486214Y472597D02*
X490164D01*
X485727Y593424D02*
X490159D01*
X486219Y462676D02*
X490159D01*
X486219Y427243D02*
X490159D01*
X486220Y438936D02*
X490158D01*
X477649Y403503D02*
X490158D01*
X486220Y484290D02*
X490158D01*
X486614Y585629D02*
X490157D01*
X477122Y401022D02*
X490114D01*
X487594Y582085D02*
X489982D01*
X472144Y510510D02*
X489951D01*
X472123Y510156D02*
X489799D01*
X476973Y400668D02*
X489760D01*
X484635Y507322D02*
X489549D01*
X476803Y400314D02*
X489405D01*
X487948Y581731D02*
X489405D01*
X472022Y509802D02*
X489327D01*
X484129Y507676D02*
X489199D01*
X472089Y510865D02*
X489190D01*
X488303Y581377D02*
X489119D01*
X471825Y509448D02*
X489074D01*
X476609Y399959D02*
X489051D01*
X461517Y508030D02*
X489002D01*
X488657Y581022D02*
X488958D01*
X471475Y509093D02*
X488935D01*
X461921Y508385D02*
X488901D01*
X467282Y508739D02*
X488880D01*
X471950Y511219D02*
X488792D01*
X476391Y399605D02*
X488697D01*
X476145Y399251D02*
X488342D01*
X448439Y574644D02*
X488189D01*
X444094Y574290D02*
X488189D01*
X444094Y573936D02*
X488189D01*
X444094Y573581D02*
X488189D01*
X444094Y573227D02*
X488189D01*
X444094Y572873D02*
X488189D01*
X444071Y572518D02*
X488189D01*
X443988Y572164D02*
X488189D01*
X443837Y571810D02*
X488189D01*
X443598Y571455D02*
X488189D01*
X443227Y571101D02*
X488189D01*
X442614Y570747D02*
X488189D01*
X442550Y570392D02*
X488189D01*
X442399Y570038D02*
X488189D01*
X442129Y569684D02*
X488189D01*
X441607Y569329D02*
X488189D01*
X437430Y568975D02*
X488189D01*
X437123Y568621D02*
X488189D01*
X466065Y568266D02*
X488189D01*
X466413Y567912D02*
X488189D01*
X466610Y567558D02*
X488189D01*
X466710Y567203D02*
X488189D01*
X466730Y566849D02*
X488189D01*
X466675Y566495D02*
X488189D01*
X466535Y566140D02*
X488189D01*
X466281Y565786D02*
X488189D01*
X465806Y565432D02*
X488189D01*
X463366Y565077D02*
X488189D01*
X463604Y564723D02*
X488189D01*
X463733Y564369D02*
X488189D01*
X463779Y564014D02*
X488189D01*
X463749Y563660D02*
X488189D01*
X463639Y563306D02*
X488189D01*
X463429Y562951D02*
X488189D01*
X463383Y562597D02*
X488189D01*
X463613Y562243D02*
X488189D01*
X463738Y561888D02*
X488189D01*
X463779Y561534D02*
X488189D01*
X463745Y561180D02*
X488189D01*
X463631Y560825D02*
X488189D01*
X463413Y560471D02*
X488189D01*
X463024Y560117D02*
X488189D01*
X458844Y559762D02*
X488189D01*
X459121Y559408D02*
X488189D01*
X459277Y559054D02*
X488189D01*
X482978Y558699D02*
X488189D01*
X483380Y558345D02*
X488189D01*
X483603Y557991D02*
X488189D01*
X483722Y557636D02*
X488189D01*
X483760Y557282D02*
X488189D01*
X483722Y556928D02*
X488189D01*
X483602Y556573D02*
X488189D01*
X483378Y556219D02*
X488189D01*
X482974Y555865D02*
X488189D01*
X478989Y555510D02*
X488189D01*
X479035Y555156D02*
X488189D01*
X479005Y554802D02*
X488189D01*
X478895Y554448D02*
X488189D01*
X478685Y554093D02*
X488189D01*
X478310Y553739D02*
X488189D01*
X470913Y553385D02*
X488189D01*
X464191Y553030D02*
X488189D01*
X465319Y552676D02*
X488189D01*
X465791Y552322D02*
X488189D01*
X466044Y551967D02*
X488189D01*
X466184Y551613D02*
X488189D01*
X466238Y551259D02*
X488189D01*
X466217Y550904D02*
X488189D01*
X466117Y550550D02*
X488189D01*
X472513Y550196D02*
X488189D01*
X473570Y549841D02*
X488189D01*
X473955Y549487D02*
X488189D01*
X474190Y549133D02*
X488189D01*
X474331Y548778D02*
X488189D01*
X474400Y548424D02*
X488189D01*
X474403Y548070D02*
X488189D01*
X474341Y547715D02*
X488189D01*
X474208Y547361D02*
X488189D01*
X473984Y547007D02*
X488189D01*
X473620Y546652D02*
X488189D01*
X472826Y546298D02*
X488189D01*
X480893Y545944D02*
X488189D01*
X481303Y545589D02*
X488189D01*
X481550Y545235D02*
X488189D01*
X481701Y544881D02*
X488189D01*
X481777Y544526D02*
X488189D01*
X481788Y544172D02*
X488189D01*
X481734Y543818D02*
X488189D01*
X481609Y543463D02*
X488189D01*
X481397Y543109D02*
X488189D01*
X481053Y542755D02*
X488189D01*
X480370Y542400D02*
X488189D01*
X474278Y542046D02*
X488189D01*
X474378Y541692D02*
X488189D01*
X474409Y541337D02*
X488189D01*
X474377Y540983D02*
X488189D01*
X474277Y540629D02*
X488189D01*
X474097Y540274D02*
X488189D01*
X473806Y539920D02*
X488189D01*
X473296Y539566D02*
X488189D01*
X467338Y539211D02*
X488189D01*
X467462Y538857D02*
X488189D01*
X467516Y538503D02*
X488189D01*
X467505Y538148D02*
X488189D01*
X467429Y537794D02*
X488189D01*
X467277Y537440D02*
X488189D01*
X475480Y537085D02*
X488189D01*
X475889Y536731D02*
X488189D01*
X476137Y536377D02*
X488189D01*
X481868Y536022D02*
X488189D01*
X482445Y535668D02*
X488189D01*
X482732Y535314D02*
X488189D01*
X482893Y534959D02*
X488189D01*
X482965Y534605D02*
X488189D01*
X482961Y534251D02*
X488189D01*
X482879Y533896D02*
X488189D01*
X482705Y533542D02*
X488189D01*
X482399Y533188D02*
X488189D01*
X481735Y532833D02*
X488189D01*
X474499Y532479D02*
X488189D01*
X474590Y532125D02*
X488189D01*
X474602Y531770D02*
X488189D01*
X474538Y531416D02*
X488189D01*
X474387Y531062D02*
X488189D01*
X474117Y530707D02*
X488189D01*
X473595Y530353D02*
X488189D01*
X468926Y529999D02*
X488189D01*
X468619Y529644D02*
X488189D01*
X467956Y529290D02*
X488189D01*
X447218Y528936D02*
X488189D01*
X446868Y528581D02*
X488189D01*
X441564Y528227D02*
X488189D01*
X441257Y527873D02*
X488189D01*
X440593Y527518D02*
X488189D01*
X397835Y527164D02*
X488189D01*
X397835Y526810D02*
X488189D01*
X397835Y526455D02*
X488189D01*
X439335Y526101D02*
X488189D01*
X439807Y525747D02*
X488189D01*
X440060Y525392D02*
X488189D01*
X453647Y525038D02*
X488189D01*
X454049Y524684D02*
X488189D01*
X454272Y524329D02*
X488189D01*
X454391Y523975D02*
X488189D01*
X454429Y523621D02*
X488189D01*
X454391Y523266D02*
X488189D01*
X454271Y522912D02*
X488189D01*
X454047Y522558D02*
X488189D01*
X453643Y522203D02*
X488189D01*
X453707Y521849D02*
X488189D01*
X454081Y521495D02*
X488189D01*
X454290Y521140D02*
X488189D01*
X454399Y520786D02*
X488189D01*
X454429Y520432D02*
X488189D01*
X454382Y520077D02*
X488189D01*
X472296Y519723D02*
X488189D01*
X472953Y519369D02*
X488189D01*
X473258Y519014D02*
X488189D01*
X473431Y518660D02*
X488189D01*
X473512Y518306D02*
X488189D01*
X473516Y517951D02*
X488189D01*
X473443Y517597D02*
X488189D01*
X473281Y517243D02*
X488189D01*
X472994Y516888D02*
X488189D01*
X448837Y574999D02*
X487999D01*
X472412Y516534D02*
X487997D01*
X475868Y398896D02*
X487988D01*
X449079Y575353D02*
X487645D01*
X453978Y516180D02*
X487642D01*
X475556Y398542D02*
X487634D01*
X449226Y575707D02*
X487291D01*
X475202Y398188D02*
X487254D01*
X449299Y576062D02*
X486936D01*
X449306Y576416D02*
X486582D01*
X479228Y492794D02*
X486379D01*
X397835Y489959D02*
X486257D01*
X449249Y576770D02*
X486228D01*
X479164Y492440D02*
X485945D01*
X397835Y490314D02*
X485882D01*
X449120Y577125D02*
X485873D01*
X479013Y492085D02*
X485707D01*
X397835Y490668D02*
X485672D01*
X478743Y491731D02*
X485578D01*
X397835Y491022D02*
X485562D01*
X478221Y491377D02*
X485532D01*
X448903Y577479D02*
X485519D01*
X448551Y577833D02*
X485165D01*
X482749Y578188D02*
X484810D01*
X483271Y578542D02*
X484456D01*
X474482Y452755D02*
X484180D01*
X474482Y417322D02*
X484180D01*
X483541Y578896D02*
X484102D01*
X474795Y448857D02*
X483867D01*
X474795Y413424D02*
X483867D01*
X476776Y474369D02*
X483854D01*
X483691Y579251D02*
X483747D01*
X452953Y589881D02*
X483642D01*
X475085Y464448D02*
X483577D01*
X475085Y429014D02*
X483577D01*
X475178Y437164D02*
X483484D01*
X476469Y486062D02*
X483477D01*
X397835Y482518D02*
X483319D01*
X475347Y440707D02*
X483315D01*
X475412Y460904D02*
X483250D01*
X475412Y425471D02*
X483250D01*
X477503Y470825D02*
X483127D01*
X475538Y452400D02*
X483123D01*
X475538Y416967D02*
X483123D01*
X452953Y591652D02*
X483092D01*
X475589Y449211D02*
X483073D01*
X475589Y413778D02*
X483073D01*
X477561Y474014D02*
X483069D01*
X475690Y464093D02*
X482971D01*
X475690Y428660D02*
X482971D01*
X475732Y437518D02*
X482929D01*
X476396Y485707D02*
X482926D01*
X452953Y589526D02*
X482887D01*
X397835Y482873D02*
X482847D01*
X475817Y440353D02*
X482845D01*
X475852Y461259D02*
X482810D01*
X475852Y425825D02*
X482810D01*
X482351Y602636D02*
X482758D01*
X479803Y595196D02*
X482753D01*
X477889Y471180D02*
X482740D01*
X475923Y452046D02*
X482738D01*
X475923Y416613D02*
X482738D01*
X475953Y449566D02*
X482708D01*
X475953Y414133D02*
X482708D01*
X477924Y473660D02*
X482706D01*
X476014Y463739D02*
X482647D01*
X476014Y428306D02*
X482647D01*
X476039Y437873D02*
X482622D01*
X476234Y485353D02*
X482620D01*
X397835Y483227D02*
X482571D01*
X476092Y439999D02*
X482570D01*
X476113Y461613D02*
X482548D01*
X476113Y426180D02*
X482548D01*
X478125Y471534D02*
X482505D01*
X476158Y451692D02*
X482503D01*
X476158Y416259D02*
X482503D01*
X452953Y589172D02*
X482490D01*
X476177Y449920D02*
X482485D01*
X476177Y414487D02*
X482485D01*
X478146Y473306D02*
X482484D01*
X472203Y592007D02*
X482482D01*
X476214Y463385D02*
X482447D01*
X476214Y427951D02*
X482447D01*
X476230Y438227D02*
X482432D01*
X475946Y484999D02*
X482431D01*
X401568Y504133D02*
X482412D01*
X459238Y507676D02*
X482407D01*
X397835Y483581D02*
X482401D01*
X476261Y439644D02*
X482400D01*
X476274Y461967D02*
X482387D01*
X476274Y426534D02*
X482387D01*
X478267Y471888D02*
X482363D01*
X476300Y451337D02*
X482362D01*
X476300Y415904D02*
X482362D01*
X476310Y450274D02*
X482351D01*
X476310Y414841D02*
X482351D01*
X478279Y472951D02*
X482351D01*
X476330Y463030D02*
X482331D01*
X476330Y427597D02*
X482331D01*
X476338Y438581D02*
X482323D01*
X475365Y484644D02*
X482323D01*
X477820Y602991D02*
X482318D01*
X479719Y594841D02*
X482315D01*
X397835Y483936D02*
X482309D01*
X476353Y439290D02*
X482309D01*
X476358Y462322D02*
X482303D01*
X476358Y426888D02*
X482303D01*
X478336Y472243D02*
X482293D01*
X476368Y450983D02*
X482293D01*
X476368Y415550D02*
X482293D01*
X476372Y450629D02*
X482290D01*
X476372Y415196D02*
X482290D01*
X478340Y472597D02*
X482290D01*
X476376Y462676D02*
X482285D01*
X476376Y427243D02*
X482285D01*
X476378Y438936D02*
X482284D01*
X397835Y484290D02*
X482284D01*
X452953Y588818D02*
X482229D01*
X472679Y592361D02*
X482157D01*
X474805Y581731D02*
X482090D01*
X478082Y603345D02*
X482056D01*
X479558Y594487D02*
X482054D01*
X452949Y588463D02*
X482054D01*
X474990Y582085D02*
X481999D01*
X472932Y592715D02*
X481956D01*
X452900Y588109D02*
X481946D01*
X475081Y582440D02*
X481936D01*
X401523Y504487D02*
X481903D01*
X458704Y507322D02*
X481900D01*
X475094Y582794D02*
X481900D01*
X478243Y603699D02*
X481895D01*
X452788Y587755D02*
X481895D01*
X479296Y594133D02*
X481894D01*
X452601Y587400D02*
X481890D01*
X452313Y587046D02*
X481890D01*
X451842Y586692D02*
X481890D01*
X445340Y586337D02*
X481890D01*
X444704Y585983D02*
X481890D01*
X465518Y585629D02*
X481890D01*
X465892Y585274D02*
X481890D01*
X466101Y584920D02*
X481890D01*
X466211Y584566D02*
X481890D01*
X474093Y584211D02*
X481890D01*
X474612Y583857D02*
X481890D01*
X474881Y583503D02*
X481890D01*
X475031Y583148D02*
X481890D01*
X473073Y593070D02*
X481840D01*
X477380Y602636D02*
X481822D01*
X474478Y581377D02*
X481822D01*
X478327Y604054D02*
X481811D01*
X478857Y593778D02*
X481811D01*
X473128Y593424D02*
X481793D01*
X401433Y504841D02*
X481612D01*
X397835Y506967D02*
X481610D01*
X401293Y505196D02*
X481432D01*
X399871Y506613D02*
X481431D01*
X477630Y599448D02*
X481425D01*
X447826Y578188D02*
X481425D01*
X401095Y505550D02*
X481332D01*
X400447Y506259D02*
X481331D01*
X400824Y505904D02*
X481299D01*
X480620Y555865D02*
X481199D01*
X480683Y558699D02*
X481195D01*
X478025Y602282D02*
X481031D01*
X473673Y581022D02*
X481031D01*
X478152Y599802D02*
X480903D01*
X444094Y578542D02*
X480903D01*
X474315Y532833D02*
X480863D01*
X476288Y536022D02*
X480730D01*
X478350Y601928D02*
X480705D01*
X449157Y580668D02*
X480705D01*
X478422Y600156D02*
X480633D01*
X444094Y578896D02*
X480633D01*
X472241Y499881D02*
X480624D01*
X478535Y601573D02*
X480521D01*
X448782Y580314D02*
X480521D01*
X478573Y600510D02*
X480482D01*
X444094Y579251D02*
X480482D01*
X478625Y601219D02*
X480430D01*
X444094Y579959D02*
X480430D01*
X478637Y600865D02*
X480418D01*
X444094Y579605D02*
X480418D01*
X423304Y496337D02*
X480297D01*
X473989Y533188D02*
X480200D01*
X476364Y535668D02*
X480153D01*
X472374Y499526D02*
X480018D01*
X474956Y533542D02*
X479893D01*
X476374Y535314D02*
X479867D01*
X464712Y496692D02*
X479857D01*
X475640Y533896D02*
X479720D01*
X476320Y534959D02*
X479706D01*
X472435Y499172D02*
X479695D01*
X475983Y534251D02*
X479638D01*
X476195Y534605D02*
X479633D01*
X465184Y497046D02*
X479595D01*
X472431Y498818D02*
X479494D01*
X471597Y497400D02*
X479435D01*
X472362Y498463D02*
X479379D01*
X471984Y497755D02*
X479350D01*
X472220Y498109D02*
X479332D01*
X474099Y542400D02*
X479276D01*
X478860Y555865D02*
X478906D01*
X475301Y558699D02*
X478843D01*
X464049Y545944D02*
X478753D01*
X473808Y542755D02*
X478593D01*
X475703Y558345D02*
X478455D01*
X463957Y545589D02*
X478343D01*
X478188Y556573D02*
X478257D01*
X473302Y543109D02*
X478249D01*
X475926Y557991D02*
X478238D01*
X476044Y556928D02*
X478132D01*
X476045Y557636D02*
X478123D01*
X463787Y545235D02*
X478095D01*
X476083Y557282D02*
X478090D01*
X459227Y543463D02*
X478037D01*
X463511Y544881D02*
X477945D01*
X459327Y543818D02*
X477912D01*
X463039Y544526D02*
X477868D01*
X459349Y544172D02*
X477858D01*
X471170Y494566D02*
X477295D01*
X461797Y597322D02*
X477179D01*
X471567Y491377D02*
X476897D01*
X473107Y593778D02*
X476852D01*
X462403Y596967D02*
X476573D01*
X475925Y556573D02*
X476537D01*
X471962Y494211D02*
X476503D01*
X475357Y553739D02*
X476415D01*
X473007Y594133D02*
X476412D01*
X472089Y491731D02*
X476375D01*
X459941Y599448D02*
X476307D01*
X462727Y596613D02*
X476250D01*
X472287Y493857D02*
X476177D01*
X472811Y594487D02*
X476150D01*
X472359Y492085D02*
X476105D01*
X475701Y556219D02*
X476102D01*
X462927Y596259D02*
X476050D01*
X475732Y554093D02*
X476040D01*
X472472Y493503D02*
X475993D01*
X472462Y594841D02*
X475990D01*
X397835Y474369D02*
X475980D01*
X472510Y492440D02*
X475954D01*
X463043Y595904D02*
X475934D01*
X473719Y602282D02*
X475912D01*
X463071Y595196D02*
X475905D01*
X472562Y493148D02*
X475902D01*
X472574Y492794D02*
X475890D01*
X463089Y595550D02*
X475887D01*
X459894Y599802D02*
X475785D01*
X473663Y601928D02*
X475587D01*
X459765Y600156D02*
X475515D01*
X473523Y601573D02*
X475402D01*
X473698Y602636D02*
X475376D01*
X464994Y600510D02*
X475364D01*
X473269Y601219D02*
X475312D01*
X472794Y600865D02*
X475300D01*
X457325Y470825D02*
X475253D01*
X397835Y474014D02*
X475195D01*
X473598Y602991D02*
X474936D01*
X457380Y471180D02*
X474866D01*
X397835Y473660D02*
X474832D01*
X473401Y603345D02*
X474674D01*
X457359Y471534D02*
X474631D01*
X399453Y473306D02*
X474610D01*
X473053Y603699D02*
X474513D01*
X457259Y471888D02*
X474489D01*
X400226Y472951D02*
X474477D01*
X473147Y604054D02*
X474429D01*
X457063Y472243D02*
X474419D01*
X456714Y472597D02*
X474416D01*
X397835Y487833D02*
X474358D01*
X464639Y452755D02*
X474337D01*
X464639Y417322D02*
X474337D01*
X397835Y484644D02*
X474241D01*
X464952Y448857D02*
X474024D01*
X464952Y413424D02*
X474024D01*
X473197Y533542D02*
X473863D01*
X465242Y464448D02*
X473734D01*
X465242Y429014D02*
X473734D01*
X397835Y487479D02*
X473700D01*
X397835Y484999D02*
X473660D01*
X465335Y437164D02*
X473641D01*
X459345Y558699D02*
X473518D01*
X465504Y440707D02*
X473472D01*
X471385Y553739D02*
X473462D01*
X465569Y460904D02*
X473407D01*
X465569Y425471D02*
X473407D01*
X397835Y487125D02*
X473395D01*
X397835Y485353D02*
X473372D01*
X467029Y537085D02*
X473339D01*
X465696Y452400D02*
X473281D01*
X465696Y416967D02*
X473281D01*
X465746Y449211D02*
X473230D01*
X465746Y413778D02*
X473230D01*
X397835Y486770D02*
X473223D01*
X397835Y485707D02*
X473211D01*
X459097Y533896D02*
X473179D01*
X456940Y581022D02*
X473178D01*
X397835Y486416D02*
X473141D01*
X397835Y486062D02*
X473137D01*
X465848Y464093D02*
X473129D01*
X465848Y428660D02*
X473129D01*
X471612Y556219D02*
X473118D01*
X459336Y558345D02*
X473116D01*
X471661Y554093D02*
X473087D01*
X465890Y437518D02*
X473087D01*
X465974Y440353D02*
X473002D01*
X466009Y461259D02*
X472967D01*
X466009Y425825D02*
X472967D01*
X466617Y536731D02*
X472929D01*
X471802Y555865D02*
X472912D01*
X466081Y452046D02*
X472896D01*
X466081Y416613D02*
X472896D01*
X471306Y556573D02*
X472894D01*
X459250Y557991D02*
X472893D01*
X471831Y554448D02*
X472876D01*
X466110Y449566D02*
X472866D01*
X466110Y414133D02*
X472866D01*
X458957Y534251D02*
X472836D01*
X466171Y463739D02*
X472805D01*
X466171Y428306D02*
X472805D01*
X471909Y555510D02*
X472783D01*
X466197Y437873D02*
X472779D01*
X470755Y556928D02*
X472774D01*
X459070Y557636D02*
X472774D01*
X471923Y554802D02*
X472766D01*
X466240Y584211D02*
X472757D01*
X471948Y555156D02*
X472737D01*
X458754Y557282D02*
X472736D01*
X466249Y439999D02*
X472727D01*
X466271Y461613D02*
X472705D01*
X466271Y426180D02*
X472705D01*
X430516Y536377D02*
X472682D01*
X459152Y533542D02*
X472669D01*
X466316Y451692D02*
X472661D01*
X466316Y416259D02*
X472661D01*
X466334Y449920D02*
X472642D01*
X466334Y414487D02*
X472642D01*
X458705Y534605D02*
X472624D01*
X466372Y463385D02*
X472605D01*
X466372Y427951D02*
X472605D01*
X466387Y438227D02*
X472589D01*
X466419Y439644D02*
X472558D01*
X466432Y461967D02*
X472545D01*
X466432Y426534D02*
X472545D01*
X431301Y536022D02*
X472531D01*
X466457Y451337D02*
X472519D01*
X466457Y415904D02*
X472519D01*
X466467Y450274D02*
X472509D01*
X466467Y414841D02*
X472509D01*
X458232Y534959D02*
X472499D01*
X466488Y463030D02*
X472489D01*
X466488Y427597D02*
X472489D01*
X466495Y438581D02*
X472481D01*
X466510Y439290D02*
X472466D01*
X466516Y462322D02*
X472460D01*
X466516Y426888D02*
X472460D01*
X431664Y535668D02*
X472455D01*
X466526Y450983D02*
X472451D01*
X466526Y415550D02*
X472451D01*
X466529Y450629D02*
X472447D01*
X466529Y415196D02*
X472447D01*
X444723Y535314D02*
X472445D01*
X466534Y462676D02*
X472442D01*
X466534Y427243D02*
X472442D01*
X466535Y438936D02*
X472441D01*
X457746Y581377D02*
X472372D01*
X465919Y550196D02*
X472369D01*
X469099Y530353D02*
X472271D01*
X466193Y583857D02*
X472239D01*
X464074Y546298D02*
X472056D01*
X458073Y581731D02*
X472045D01*
X466063Y583503D02*
X471970D01*
X459130Y533188D02*
X471877D01*
X458258Y582085D02*
X471860D01*
X465825Y583148D02*
X471820D01*
X458349Y582440D02*
X471769D01*
X465388Y582794D02*
X471756D01*
X469181Y530707D02*
X471749D01*
X467127Y539566D02*
X471586D01*
X459029Y543109D02*
X471580D01*
X459030Y532833D02*
X471551D01*
X469186Y531062D02*
X471479D01*
X467178Y519723D02*
X471405D01*
X468089Y532479D02*
X471367D01*
X469113Y531416D02*
X471328D01*
X465569Y549841D02*
X471312D01*
X465431Y600865D02*
X471300D01*
X467294Y516534D02*
X471289D01*
X468666Y532125D02*
X471276D01*
X468952Y531770D02*
X471264D01*
X464035Y546652D02*
X471262D01*
X466785Y539920D02*
X471076D01*
X458679Y542755D02*
X471073D01*
X465060Y603699D02*
X471042D01*
X465464Y604054D02*
X470948D01*
X435077Y549487D02*
X470927D01*
X463928Y547007D02*
X470897D01*
X465669Y601219D02*
X470825D01*
X466107Y540274D02*
X470785D01*
X435684Y542400D02*
X470783D01*
X467835Y519369D02*
X470748D01*
X467282Y592007D02*
X470710D01*
X467876Y516888D02*
X470707D01*
X465124Y603345D02*
X470693D01*
X435312Y549133D02*
X470692D01*
X463738Y547361D02*
X470674D01*
X463926Y494566D02*
X470641D01*
X465688Y604408D02*
X470641D01*
X435658Y540629D02*
X470605D01*
X435845Y542046D02*
X470604D01*
X465799Y601573D02*
X470572D01*
X435453Y548778D02*
X470551D01*
X463432Y547715D02*
X470540D01*
X435831Y540983D02*
X470505D01*
X435918Y541692D02*
X470504D01*
X465498Y602991D02*
X470497D01*
X435522Y548424D02*
X470482D01*
X462881Y548070D02*
X470479D01*
X435913Y541337D02*
X470472D01*
X465808Y604762D02*
X470468D01*
X467541Y594841D02*
X470451D01*
X468140Y519014D02*
X470442D01*
X465846Y601928D02*
X470431D01*
X468163Y517243D02*
X470420D01*
X465707Y602636D02*
X470397D01*
X465846Y605117D02*
X470386D01*
X465809Y605471D02*
X470381D01*
X465817Y602282D02*
X470376D01*
X465690Y605825D02*
X470328D01*
X465467Y606180D02*
X470279D01*
X455367Y612203D02*
X470276D01*
X455413Y611849D02*
X470276D01*
X455383Y611495D02*
X470276D01*
X455273Y611140D02*
X470276D01*
X455063Y610786D02*
X470276D01*
X454691Y610432D02*
X470276D01*
X455065Y610077D02*
X470276D01*
X455274Y609723D02*
X470276D01*
X455384Y609369D02*
X470276D01*
X455413Y609014D02*
X470276D01*
X455366Y608660D02*
X470276D01*
X455236Y608306D02*
X470276D01*
X454998Y607951D02*
X470276D01*
X455148Y607597D02*
X470276D01*
X455320Y607243D02*
X470276D01*
X455402Y606888D02*
X470276D01*
X465065Y606534D02*
X470276D01*
X468313Y518660D02*
X470270D01*
X468325Y517597D02*
X470258D01*
X464323Y491377D02*
X470244D01*
X455238Y612558D02*
X470240D01*
X467757Y592361D02*
X470235D01*
X468394Y518306D02*
X470189D01*
X468398Y517951D02*
X470185D01*
X455000Y612912D02*
X470128D01*
X467890Y594487D02*
X470103D01*
X458532Y500944D02*
X470074D01*
X468011Y592715D02*
X469981D01*
X454566Y613266D02*
X469922D01*
X468086Y594133D02*
X469906D01*
X464717Y494211D02*
X469849D01*
X468151Y593070D02*
X469841D01*
X468186Y593778D02*
X469806D01*
X468207Y593424D02*
X469785D01*
X464845Y491731D02*
X469722D01*
X453660Y613621D02*
X469569D01*
X465043Y493857D02*
X469524D01*
X467757Y509093D02*
X469470D01*
X465115Y492085D02*
X469452D01*
X465460Y497400D02*
X469348D01*
X465227Y493503D02*
X469339D01*
X465266Y492440D02*
X469301D01*
X458830Y500589D02*
X469290D01*
X465318Y493148D02*
X469249D01*
X465330Y492794D02*
X469237D01*
X461128Y556928D02*
X469206D01*
X468011Y509448D02*
X469120D01*
X464264Y553385D02*
X469048D01*
X467890Y511219D02*
X468995D01*
X465630Y497755D02*
X468961D01*
X464554Y500235D02*
X468927D01*
X468151Y509802D02*
X468923D01*
X468086Y510865D02*
X468856D01*
X468207Y510156D02*
X468822D01*
X468186Y510510D02*
X468801D01*
X465722Y498109D02*
X468725D01*
X465105Y499881D02*
X468704D01*
X461530Y556573D02*
X468655D01*
X465748Y498463D02*
X468583D01*
X464260Y553739D02*
X468576D01*
X454656Y613975D02*
X468572D01*
X465411Y499526D02*
X468571D01*
X465709Y498818D02*
X468514D01*
X465601Y499172D02*
X468510D01*
X461753Y556219D02*
X468349D01*
X464179Y554093D02*
X468300D01*
X461872Y555865D02*
X468159D01*
X464006Y554448D02*
X468130D01*
X461909Y555510D02*
X468051D01*
X463701Y554802D02*
X468037D01*
X463044Y555156D02*
X468012D01*
X457195Y411298D02*
X467621D01*
X447416Y529290D02*
X467084D01*
X458833Y532479D02*
X466951D01*
X457232Y410944D02*
X466679D01*
X447516Y529644D02*
X466420D01*
X458483Y532125D02*
X466374D01*
X454252Y519723D02*
X466287D01*
X454232Y516534D02*
X466170D01*
X447538Y529999D02*
X466113D01*
X400925Y531770D02*
X466087D01*
X462965Y410589D02*
X465989D01*
X447483Y530353D02*
X465940D01*
X446618Y531416D02*
X465926D01*
X447343Y530707D02*
X465858D01*
X447091Y531062D02*
X465854D01*
X452953Y592007D02*
X465789D01*
X462145Y508739D02*
X465789D01*
X454014Y519369D02*
X465630D01*
X454372Y516888D02*
X465589D01*
X462987Y594841D02*
X465530D01*
X463678Y410235D02*
X465432D01*
X453577Y519014D02*
X465324D01*
X452953Y592361D02*
X465313D01*
X462265Y509093D02*
X465313D01*
X454427Y517243D02*
X465301D01*
X462826Y594487D02*
X465181D01*
X461147Y511219D02*
X465181D01*
X453762Y518660D02*
X465152D01*
X454407Y517597D02*
X465140D01*
X454110Y518306D02*
X465070D01*
X454307Y517951D02*
X465067D01*
X454097Y592715D02*
X465060D01*
X462303Y509448D02*
X465060D01*
X435352Y540274D02*
X464995D01*
X462564Y594133D02*
X464985D01*
X461521Y510865D02*
X464985D01*
X463993Y409881D02*
X464963D01*
X454472Y593070D02*
X464920D01*
X462266Y509802D02*
X464920D01*
X462124Y593778D02*
X464885D01*
X461923Y510510D02*
X464885D01*
X454683Y593424D02*
X464864D01*
X462146Y510156D02*
X464864D01*
X461762Y398188D02*
X464562D01*
X464172Y409526D02*
X464559D01*
X456765Y452755D02*
X464494D01*
X454134Y417322D02*
X464494D01*
X431184Y536731D02*
X464485D01*
X434688Y539920D02*
X464318D01*
X462932Y565432D02*
X464312D01*
X461762Y398542D02*
X464208D01*
X457078Y448857D02*
X464182D01*
X455564Y413424D02*
X464182D01*
X431596Y537085D02*
X464073D01*
X436459Y568266D02*
X464053D01*
X431694Y539566D02*
X463975D01*
X461762Y398896D02*
X463895D01*
X457368Y464448D02*
X463892D01*
X457368Y429014D02*
X463892D01*
X434294Y565786D02*
X463837D01*
X431844Y537440D02*
X463825D01*
X457461Y437164D02*
X463798D01*
X431905Y539211D02*
X463764D01*
X458362Y582794D02*
X463746D01*
X421457Y567912D02*
X463705D01*
X431996Y537794D02*
X463674D01*
X432029Y538857D02*
X463640D01*
X457630Y440707D02*
X463629D01*
X461762Y399251D02*
X463619D01*
X444392Y585629D02*
X463616D01*
X432072Y538148D02*
X463597D01*
X432083Y538503D02*
X463586D01*
X434154Y566140D02*
X463583D01*
X434692Y549841D02*
X463565D01*
X457695Y460904D02*
X463565D01*
X457695Y425471D02*
X463565D01*
X421457Y567558D02*
X463508D01*
X433902Y566495D02*
X463443D01*
X457822Y452400D02*
X463438D01*
X454134Y416967D02*
X463438D01*
X421457Y567203D02*
X463408D01*
X459201Y494566D02*
X463397D01*
X433429Y566849D02*
X463388D01*
X457872Y449211D02*
X463388D01*
X452618Y413778D02*
X463388D01*
X461762Y399605D02*
X463373D01*
X462632Y600510D02*
X463352D01*
X458298Y583148D02*
X463309D01*
X457974Y464093D02*
X463286D01*
X457974Y428660D02*
X463286D01*
X460336Y603699D02*
X463286D01*
X460340Y606534D02*
X463282D01*
X458016Y437518D02*
X463244D01*
X444210Y585274D02*
X463242D01*
X462762Y603345D02*
X463222D01*
X433635Y550196D02*
X463215D01*
X458100Y440353D02*
X463160D01*
X461762Y399959D02*
X463154D01*
X458135Y461259D02*
X463125D01*
X458135Y425825D02*
X463125D01*
X458148Y583503D02*
X463071D01*
X458207Y452046D02*
X463053D01*
X454115Y416613D02*
X463053D01*
X444116Y584920D02*
X463033D01*
X458236Y449566D02*
X463023D01*
X452972Y414133D02*
X463023D01*
X417956Y550550D02*
X463017D01*
X459014Y500235D02*
X463005D01*
X459599Y491377D02*
X462999D01*
X458297Y463739D02*
X462962D01*
X458297Y428306D02*
X462962D01*
X461762Y400314D02*
X462961D01*
X429322Y551613D02*
X462950D01*
X457879Y583857D02*
X462941D01*
X458323Y437873D02*
X462937D01*
X444094Y584566D02*
X462923D01*
X418342Y550904D02*
X462917D01*
X418578Y551259D02*
X462895D01*
X457361Y584211D02*
X462894D01*
X458375Y439999D02*
X462885D01*
X460740Y604054D02*
X462882D01*
X460742Y606180D02*
X462880D01*
X458397Y461613D02*
X462863D01*
X458397Y426180D02*
X462863D01*
X430136Y496692D02*
X462847D01*
X458441Y451692D02*
X462818D01*
X454066Y416259D02*
X462818D01*
X458460Y449920D02*
X462800D01*
X453277Y414487D02*
X462800D01*
X461762Y400668D02*
X462791D01*
X440383Y407046D02*
X462790D01*
X458498Y463385D02*
X462762D01*
X458498Y427951D02*
X462762D01*
X458513Y438227D02*
X462747D01*
X458545Y439644D02*
X462715D01*
X458557Y461967D02*
X462702D01*
X458557Y426534D02*
X462702D01*
X458583Y451337D02*
X462677D01*
X453984Y415904D02*
X462677D01*
X458593Y450274D02*
X462666D01*
X453522Y414841D02*
X462666D01*
X460964Y604408D02*
X462658D01*
X460965Y605825D02*
X462657D01*
X458614Y463030D02*
X462646D01*
X458614Y427597D02*
X462646D01*
X461752Y401022D02*
X462642D01*
X440901Y406692D02*
X462641D01*
X458621Y438581D02*
X462638D01*
X458636Y439290D02*
X462624D01*
X458642Y462322D02*
X462618D01*
X458642Y426888D02*
X462618D01*
X458652Y450983D02*
X462608D01*
X453869Y415550D02*
X462608D01*
X459993Y494211D02*
X462605D01*
X458655Y450629D02*
X462605D01*
X453716Y415196D02*
X462605D01*
X458660Y462676D02*
X462600D01*
X458660Y427243D02*
X462600D01*
X458661Y438936D02*
X462599D01*
X461084Y604762D02*
X462538D01*
X461084Y605471D02*
X462538D01*
X461698Y401377D02*
X462513D01*
X441170Y406337D02*
X462512D01*
X461122Y605117D02*
X462500D01*
X460121Y491731D02*
X462478D01*
X459118Y499881D02*
X462454D01*
X461595Y401731D02*
X462403D01*
X441320Y405983D02*
X462402D01*
X447412Y497046D02*
X462375D01*
X461437Y402085D02*
X462311D01*
X454252Y405629D02*
X462310D01*
X460319Y493857D02*
X462280D01*
X461212Y402440D02*
X462237D01*
X454865Y405274D02*
X462236D01*
X457224Y410589D02*
X462232D01*
X460391Y492085D02*
X462207D01*
X460895Y402794D02*
X462179D01*
X455161Y404920D02*
X462179D01*
X461871Y555156D02*
X462153D01*
X459153Y499526D02*
X462148D01*
X460428Y403148D02*
X462139D01*
X455327Y404566D02*
X462139D01*
X459478Y403503D02*
X462114D01*
X455404Y404211D02*
X462114D01*
X455404Y403857D02*
X462106D01*
X447994Y497400D02*
X462099D01*
X460503Y493503D02*
X462095D01*
X460542Y492440D02*
X462057D01*
X430116Y551967D02*
X462037D01*
X460594Y493148D02*
X462005D01*
X460606Y492794D02*
X461992D01*
X426804Y407400D02*
X461984D01*
X459125Y499172D02*
X461958D01*
X458080Y497755D02*
X461929D01*
X459029Y498818D02*
X461851D01*
X458570Y498109D02*
X461837D01*
X458854Y498463D02*
X461811D01*
X457172Y410235D02*
X461519D01*
X430480Y552322D02*
X461455D01*
X426611Y407755D02*
X461435D01*
X435525Y548070D02*
X461332D01*
X437341Y565432D02*
X461281D01*
X457073Y409881D02*
X461203D01*
X458298Y560117D02*
X461188D01*
X459294Y544526D02*
X461174D01*
X430704Y552676D02*
X461168D01*
X455252Y408109D02*
X461156D01*
X456921Y409526D02*
X461025D01*
X430837Y553030D02*
X461006D01*
X455980Y408463D02*
X461000D01*
X460270Y600510D02*
X460990D01*
X456706Y409172D02*
X460939D01*
X430896Y553739D02*
X460937D01*
X430899Y553385D02*
X460933D01*
X456407Y408818D02*
X460931D01*
X460400Y603345D02*
X460860D01*
X437776Y565077D02*
X460846D01*
X437463Y562597D02*
X460829D01*
X426776Y560471D02*
X460799D01*
X437838Y562951D02*
X460784D01*
X435463Y547715D02*
X460781D01*
X459154Y544881D02*
X460702D01*
X438013Y564723D02*
X460609D01*
X426343Y562243D02*
X460599D01*
X426858Y560825D02*
X460582D01*
X438049Y563306D02*
X460573D01*
X438142Y564369D02*
X460480D01*
X426629Y561888D02*
X460475D01*
X435330Y547361D02*
X460474D01*
X426863Y561180D02*
X460467D01*
X438159Y563660D02*
X460463D01*
X454755Y597322D02*
X460447D01*
X438189Y564014D02*
X460433D01*
X426790Y561534D02*
X460433D01*
X458902Y545235D02*
X460426D01*
X435106Y547007D02*
X460285D01*
X458429Y545589D02*
X460256D01*
X434742Y546652D02*
X460177D01*
X439882Y545944D02*
X460163D01*
X439225Y546298D02*
X460138D01*
X454793Y593778D02*
X460120D01*
X453503Y515825D02*
X459975D01*
X454819Y596967D02*
X459841D01*
X459566Y508030D02*
X459743D01*
X454822Y594133D02*
X459680D01*
X454806Y596613D02*
X459518D01*
X454776Y594487D02*
X459418D01*
X430827Y554093D02*
X459349D01*
X458032Y556928D02*
X459345D01*
X454715Y596259D02*
X459317D01*
X454647Y594841D02*
X459257D01*
X454530Y595904D02*
X459201D01*
X454410Y595196D02*
X459173D01*
X454202Y595550D02*
X459155D01*
X397835Y515471D02*
X459088D01*
X430686Y554448D02*
X458945D01*
X425156Y556573D02*
X458943D01*
X430451Y554802D02*
X458721D01*
X421457Y556219D02*
X458720D01*
X455186Y494566D02*
X458673D01*
X430066Y555156D02*
X458601D01*
X421444Y555865D02*
X458601D01*
X429009Y555510D02*
X458563D01*
X455290Y603699D02*
X458562D01*
X455406Y606534D02*
X458557D01*
X455326Y403503D02*
X458534D01*
X455092Y603345D02*
X458498D01*
X438014Y515117D02*
X458448D01*
X455583Y491377D02*
X458275D01*
X455390Y604054D02*
X458158D01*
X455333Y606180D02*
X458156D01*
X454742Y602991D02*
X458124D01*
X455196Y601219D02*
X457953D01*
X438362Y514762D02*
X457938D01*
X455412Y604408D02*
X457934D01*
X455171Y605825D02*
X457932D01*
X452953Y602636D02*
X457915D01*
X455977Y494211D02*
X457881D01*
X454927Y601573D02*
X457823D01*
X455357Y604762D02*
X457814D01*
X454965Y605471D02*
X457813D01*
X452953Y602282D02*
X457805D01*
X454408Y601928D02*
X457776D01*
X455217Y605117D02*
X457776D01*
X456105Y491731D02*
X457753D01*
X455159Y403148D02*
X457584D01*
X456303Y493857D02*
X457555D01*
X438559Y514408D02*
X457513D01*
X456375Y492085D02*
X457483D01*
X455346Y600865D02*
X457442D01*
X456487Y493503D02*
X457371D01*
X456526Y492440D02*
X457332D01*
X453603Y556928D02*
X457322D01*
X454336Y598030D02*
X457320D01*
X456578Y493148D02*
X457280D01*
X456590Y492794D02*
X457268D01*
X438658Y514054D02*
X457151D01*
X454862Y402794D02*
X457117D01*
X453869Y560117D02*
X457056D01*
X455409Y600510D02*
X457008D01*
X453818Y598385D02*
X456945D01*
X453508Y545589D02*
X456925D01*
X439728Y513699D02*
X456838D01*
X454243Y402440D02*
X456800D01*
X455396Y600156D02*
X456770D01*
X453988Y598739D02*
X456735D01*
X453508Y534959D02*
X456728D01*
X453758Y542755D02*
X456675D01*
X397835Y507322D02*
X456650D01*
X455305Y599802D02*
X456641D01*
X454793Y599093D02*
X456625D01*
X448891Y452755D02*
X456620D01*
X454325Y557282D02*
X456600D01*
X455120Y599448D02*
X456595D01*
X433091Y402085D02*
X456575D01*
X440201Y513345D02*
X456566D01*
X454415Y559762D02*
X456511D01*
X453758Y532125D02*
X456478D01*
X453980Y545235D02*
X456453D01*
X452019Y581022D02*
X456445D01*
X433249Y401731D02*
X456417D01*
X440570Y501298D02*
X456366D01*
X440453Y512991D02*
X456329D01*
X454108Y543109D02*
X456325D01*
X433352Y401377D02*
X456314D01*
X449204Y448857D02*
X456308D01*
X448281Y497755D02*
X456290D01*
X454641Y557636D02*
X456284D01*
X433405Y401022D02*
X456260D01*
X453980Y534605D02*
X456256D01*
X433415Y400668D02*
X456250D01*
X433415Y400314D02*
X456250D01*
X433415Y399959D02*
X456250D01*
X433415Y399605D02*
X456250D01*
X433415Y399251D02*
X456250D01*
X433415Y398896D02*
X456250D01*
X433415Y398542D02*
X456250D01*
X433415Y398188D02*
X456250D01*
X454692Y559408D02*
X456233D01*
X454233Y544881D02*
X456200D01*
X454108Y532479D02*
X456128D01*
X454306Y543463D02*
X456128D01*
X440593Y512636D02*
X456123D01*
X397835Y507676D02*
X456116D01*
X454820Y557991D02*
X456105D01*
X454848Y559054D02*
X456078D01*
X454372Y544526D02*
X456061D01*
X454406Y543818D02*
X456027D01*
X452440Y584211D02*
X456025D01*
X454907Y558345D02*
X456018D01*
X449494Y464448D02*
X456018D01*
X454134Y429014D02*
X456018D01*
X454916Y558699D02*
X456009D01*
X454427Y544172D02*
X456006D01*
X454233Y534251D02*
X456003D01*
X440648Y512282D02*
X455944D01*
X454306Y532833D02*
X455931D01*
X453529Y437164D02*
X455924D01*
X454372Y533896D02*
X455864D01*
X440642Y500944D02*
X455838D01*
X454406Y533188D02*
X455830D01*
X454427Y533542D02*
X455809D01*
X448443Y498109D02*
X455800D01*
X440627Y511928D02*
X455791D01*
X410869Y508030D02*
X455788D01*
X450092Y440707D02*
X455755D01*
X449821Y460904D02*
X455691D01*
X454134Y425471D02*
X455691D01*
X440526Y511573D02*
X455661D01*
X452824Y581377D02*
X455640D01*
X432334Y508385D02*
X455568D01*
X449948Y452400D02*
X455564D01*
X440329Y511219D02*
X455553D01*
X440638Y500589D02*
X455540D01*
X448516Y498463D02*
X455517D01*
X449998Y449211D02*
X455514D01*
X452958Y583857D02*
X455506D01*
X439979Y510865D02*
X455466D01*
X433139Y508739D02*
X455424D01*
X450100Y464093D02*
X455412D01*
X454134Y428660D02*
X455412D01*
X433692Y510510D02*
X455400D01*
X453287Y437518D02*
X455370D01*
X447296Y500235D02*
X455356D01*
X433756Y510156D02*
X455352D01*
X433467Y509093D02*
X455342D01*
X448512Y498818D02*
X455342D01*
X433743Y509802D02*
X455324D01*
X433652Y509448D02*
X455315D01*
X453152Y581731D02*
X455313D01*
X450504Y440353D02*
X455286D01*
X447953Y499881D02*
X455252D01*
X450261Y461259D02*
X455251D01*
X454134Y425825D02*
X455251D01*
X448431Y499172D02*
X455245D01*
X453227Y583503D02*
X455237D01*
X448258Y499526D02*
X455217D01*
X450333Y452046D02*
X455179D01*
X450362Y449566D02*
X455149D01*
X453337Y582085D02*
X455128D01*
X450423Y463739D02*
X455088D01*
X454134Y428306D02*
X455088D01*
X453377Y583148D02*
X455087D01*
X452984Y437873D02*
X455063D01*
X453428Y582440D02*
X455037D01*
X453441Y582794D02*
X455024D01*
X450859Y439999D02*
X455011D01*
X450523Y461613D02*
X454989D01*
X454134Y426180D02*
X454989D01*
X450735Y469762D02*
X454962D01*
X450567Y451692D02*
X454944D01*
X450586Y449920D02*
X454926D01*
X450624Y463385D02*
X454888D01*
X454134Y427951D02*
X454888D01*
X452631Y438227D02*
X454873D01*
X451213Y439644D02*
X454841D01*
X450683Y461967D02*
X454828D01*
X454134Y426534D02*
X454828D01*
X450709Y451337D02*
X454803D01*
X450719Y450274D02*
X454792D01*
X450739Y463030D02*
X454772D01*
X454134Y427597D02*
X454772D01*
X452276Y438581D02*
X454764D01*
X451568Y439290D02*
X454750D01*
X450768Y462322D02*
X454744D01*
X454134Y426888D02*
X454744D01*
X450778Y450983D02*
X454734D01*
X450781Y450629D02*
X454731D01*
X450786Y462676D02*
X454726D01*
X454134Y427243D02*
X454726D01*
X451922Y438936D02*
X454725D01*
X443919Y472597D02*
X454703D01*
X443495Y494566D02*
X454657D01*
X450184Y470117D02*
X454487D01*
X444267Y472243D02*
X454355D01*
X443229Y491377D02*
X454259D01*
X444389Y470471D02*
X454233D01*
X444464Y471888D02*
X454158D01*
X444529Y470825D02*
X454093D01*
X444564Y471534D02*
X454058D01*
X444585Y471180D02*
X454037D01*
X444041Y494211D02*
X453865D01*
X443951Y491731D02*
X453737D01*
X444318Y493857D02*
X453539D01*
X436158Y408109D02*
X453508D01*
X452953Y598739D02*
X453493D01*
X444267Y492085D02*
X453467D01*
X444474Y493503D02*
X453355D01*
X444446Y492440D02*
X453316D01*
X444542Y493148D02*
X453265D01*
X444533Y492794D02*
X453252D01*
X446861Y402440D02*
X453237D01*
X446870Y405629D02*
X453229D01*
X452264Y413424D02*
X453196D01*
X452953Y601928D02*
X453072D01*
X425631Y556928D02*
X452893D01*
X436886Y408463D02*
X452780D01*
X426603Y560117D02*
X452627D01*
X447480Y402794D02*
X452618D01*
X447483Y405274D02*
X452615D01*
X452039Y413070D02*
X452614D01*
X437313Y408818D02*
X452352D01*
X447777Y403148D02*
X452321D01*
X447779Y404920D02*
X452320D01*
X451809Y412715D02*
X452240D01*
X425885Y557282D02*
X452171D01*
X447944Y403503D02*
X452154D01*
X447945Y404566D02*
X452153D01*
X426297Y559762D02*
X452081D01*
X448022Y403857D02*
X452076D01*
X448022Y404211D02*
X452076D01*
X437611Y409172D02*
X452054D01*
X449566Y515825D02*
X452009D01*
X448587Y545589D02*
X452004D01*
X445158Y534959D02*
X452004D01*
X451466Y412361D02*
X451973D01*
X449640Y519014D02*
X451935D01*
X449706Y522203D02*
X451869D01*
X449710Y525038D02*
X451864D01*
X426025Y557636D02*
X451855D01*
X437826Y409526D02*
X451839D01*
X449770Y521849D02*
X451805D01*
X425633Y559408D02*
X451804D01*
X450892Y412007D02*
X451781D01*
X448837Y542755D02*
X451754D01*
X408483Y532125D02*
X451754D01*
X449825Y518660D02*
X451750D01*
X437978Y409881D02*
X451687D01*
X426081Y557991D02*
X451676D01*
X425764Y559054D02*
X451648D01*
X438018Y411652D02*
X451648D01*
X426060Y558345D02*
X451589D01*
X438078Y410235D02*
X451588D01*
X425960Y558699D02*
X451580D01*
X438101Y411298D02*
X451565D01*
X438130Y410589D02*
X451535D01*
X450041Y516180D02*
X451534D01*
X449059Y545235D02*
X451531D01*
X445395Y534605D02*
X451531D01*
X438137Y410944D02*
X451528D01*
X449368Y581022D02*
X451524D01*
X450077Y519369D02*
X451498D01*
X450110Y522558D02*
X451465D01*
X450112Y524684D02*
X451463D01*
X450144Y521495D02*
X451431D01*
X449187Y543109D02*
X451404D01*
X444845Y532479D02*
X451404D01*
X450173Y518306D02*
X451402D01*
X450295Y516534D02*
X451280D01*
X449312Y544881D02*
X451279D01*
X445524Y534251D02*
X451279D01*
X450315Y519723D02*
X451260D01*
X450334Y522912D02*
X451241D01*
X450335Y524329D02*
X451240D01*
X450353Y521140D02*
X451222D01*
X449384Y543463D02*
X451206D01*
X445220Y532833D02*
X451206D01*
X450370Y517951D02*
X451205D01*
X450435Y516888D02*
X451140D01*
X449451Y544526D02*
X451139D01*
X445570Y533896D02*
X451139D01*
X450445Y520077D02*
X451130D01*
X450454Y523266D02*
X451121D01*
X450454Y523975D02*
X451120D01*
X450462Y520786D02*
X451112D01*
X449485Y543818D02*
X451106D01*
X445431Y533188D02*
X451106D01*
X450470Y517597D02*
X451105D01*
X444094Y584211D02*
X451104D01*
X450490Y517243D02*
X451085D01*
X449506Y544172D02*
X451084D01*
X445541Y533542D02*
X451084D01*
X450492Y520432D02*
X451083D01*
X450492Y523621D02*
X451083D01*
X449478Y581377D02*
X450719D01*
X444094Y583857D02*
X450585D01*
X449507Y581731D02*
X450392D01*
X444094Y583503D02*
X450316D01*
X449461Y582085D02*
X450207D01*
X448660Y583148D02*
X450166D01*
X449332Y582440D02*
X450115D01*
X449095Y582794D02*
X450102D01*
X449716Y433975D02*
X449803D01*
X449312Y433621D02*
X449803D01*
X446544Y433266D02*
X449803D01*
X446548Y432912D02*
X449803D01*
X446475Y432558D02*
X449803D01*
X446313Y432203D02*
X449803D01*
X446025Y431849D02*
X449803D01*
X445444Y431495D02*
X449803D01*
X439233Y431140D02*
X449803D01*
X439114Y430786D02*
X449803D01*
X438890Y430432D02*
X449803D01*
X438486Y430077D02*
X449803D01*
X449388Y429723D02*
X449803D01*
X449255Y426534D02*
X449803D01*
X400337Y426180D02*
X449803D01*
X400797Y425825D02*
X449803D01*
X449645Y425471D02*
X449803D01*
X449766Y422636D02*
X449803D01*
X446262Y422282D02*
X449803D01*
X445935Y421928D02*
X449803D01*
X445129Y421573D02*
X449803D01*
X407879Y421219D02*
X449803D01*
X408663Y420865D02*
X449803D01*
X409026Y420510D02*
X449803D01*
X409249Y420156D02*
X449803D01*
X409381Y419802D02*
X449803D01*
X409443Y419448D02*
X449803D01*
X420152Y419093D02*
X449803D01*
X443411Y418739D02*
X449803D01*
X443813Y418385D02*
X449803D01*
X444036Y418030D02*
X449803D01*
X444155Y417676D02*
X449803D01*
X444193Y417322D02*
X449803D01*
X444155Y416967D02*
X449682D01*
X444035Y416613D02*
X449328D01*
X437885Y412007D02*
X449010D01*
X443811Y416259D02*
X448841D01*
X439049Y452755D02*
X448746D01*
X444135Y470117D02*
X448635D01*
X413726Y466573D02*
X448477D01*
X440602Y412361D02*
X448436D01*
X439362Y448857D02*
X448434D01*
X427601Y426534D02*
X448383D01*
X443407Y415904D02*
X448343D01*
X427734Y429723D02*
X448250D01*
X439652Y464448D02*
X448144D01*
X441006Y412715D02*
X448092D01*
X443660Y469762D02*
X448084D01*
X445629Y515825D02*
X448072D01*
X420147Y415550D02*
X448031D01*
X413353Y466928D02*
X448005D01*
X445703Y519014D02*
X447998D01*
X401379Y425471D02*
X447993D01*
X445769Y522203D02*
X447932D01*
X445773Y525038D02*
X447927D01*
X429124Y436810D02*
X447923D01*
X446447Y422636D02*
X447872D01*
X445833Y521849D02*
X447868D01*
X441230Y413070D02*
X447862D01*
X440606Y415196D02*
X447821D01*
X439979Y460904D02*
X447817D01*
X445888Y518660D02*
X447813D01*
X440943Y469408D02*
X447778D01*
X397835Y467282D02*
X447729D01*
X428265Y426888D02*
X447719D01*
X441350Y413424D02*
X447711D01*
X440105Y452400D02*
X447690D01*
X441008Y414841D02*
X447685D01*
X428311Y429369D02*
X447673D01*
X440156Y449211D02*
X447640D01*
X441388Y413778D02*
X447622D01*
X441231Y414487D02*
X447609D01*
X446104Y516180D02*
X447597D01*
X441350Y414133D02*
X447589D01*
X440896Y469054D02*
X447588D01*
X433916Y437164D02*
X447569D01*
X446140Y519369D02*
X447561D01*
X401630Y425117D02*
X447559D01*
X439644Y467636D02*
X447559D01*
X440257Y464093D02*
X447538D01*
X446462Y433621D02*
X447538D01*
X429055Y436455D02*
X447534D01*
X446173Y522558D02*
X447528D01*
X446175Y524684D02*
X447526D01*
X446538Y422991D02*
X447496D01*
X446207Y521495D02*
X447494D01*
X440780Y468699D02*
X447480D01*
X440254Y467991D02*
X447466D01*
X446236Y518306D02*
X447465D01*
X440579Y468345D02*
X447441D01*
X428572Y427243D02*
X447413D01*
X428598Y429014D02*
X447386D01*
X440419Y461259D02*
X447377D01*
X446358Y516534D02*
X447343D01*
X446378Y519723D02*
X447323D01*
X445550Y424762D02*
X447322D01*
X440490Y452046D02*
X447305D01*
X446397Y522912D02*
X447304D01*
X446398Y524329D02*
X447303D01*
X446551Y423345D02*
X447286D01*
X446416Y521140D02*
X447285D01*
X440520Y449566D02*
X447275D01*
X446433Y517951D02*
X447268D01*
X428745Y427597D02*
X447239D01*
X428759Y428660D02*
X447225D01*
X440581Y463739D02*
X447214D01*
X446498Y516888D02*
X447203D01*
X446508Y520077D02*
X447193D01*
X446068Y424408D02*
X447192D01*
X446517Y523266D02*
X447184D01*
X446517Y523975D02*
X447183D01*
X446487Y423699D02*
X447176D01*
X446525Y520786D02*
X447175D01*
X446533Y517597D02*
X447168D01*
X428827Y427951D02*
X447157D01*
X428831Y428306D02*
X447153D01*
X446553Y517243D02*
X447148D01*
X446555Y520432D02*
X447146D01*
X446337Y424054D02*
X447146D01*
X446555Y523621D02*
X447146D01*
X446290Y433975D02*
X447134D01*
X428913Y436101D02*
X447132D01*
X440680Y461613D02*
X447115D01*
X440187Y545589D02*
X447083D01*
X440725Y451692D02*
X447070D01*
X440743Y449920D02*
X447052D01*
X440781Y463385D02*
X447014D01*
X444094Y583148D02*
X447009D01*
X440841Y461967D02*
X446954D01*
X440867Y451337D02*
X446929D01*
X440877Y450274D02*
X446918D01*
X445985Y434329D02*
X446910D01*
X428677Y435747D02*
X446909D01*
X440897Y463030D02*
X446898D01*
X444094Y580314D02*
X446887D01*
X440925Y462322D02*
X446870D01*
X440935Y450983D02*
X446860D01*
X444094Y578188D02*
X446859D01*
X440938Y450629D02*
X446857D01*
X440943Y462676D02*
X446852D01*
X435398Y542755D02*
X446832D01*
X445327Y434684D02*
X446790D01*
X428290Y435392D02*
X446790D01*
X423779Y435038D02*
X446752D01*
X440360Y545235D02*
X446610D01*
X444094Y582794D02*
X446575D01*
X444094Y580668D02*
X446512D01*
X439341Y543109D02*
X446482D01*
X444343Y500235D02*
X446405D01*
X440441Y544881D02*
X446358D01*
X444094Y582440D02*
X446337D01*
X444094Y581022D02*
X446302D01*
X444459Y497046D02*
X446289D01*
X439923Y543463D02*
X446285D01*
X444094Y574644D02*
X446246D01*
X440445Y544526D02*
X446218D01*
X444094Y582085D02*
X446208D01*
X444094Y581377D02*
X446192D01*
X440210Y543818D02*
X446184D01*
X440372Y544172D02*
X446163D01*
X444094Y581731D02*
X446162D01*
X444094Y577833D02*
X446134D01*
X436035Y402440D02*
X445855D01*
X444094Y574999D02*
X445848D01*
X441384Y405629D02*
X445847D01*
X444094Y577479D02*
X445782D01*
X445000Y499881D02*
X445748D01*
X445041Y497400D02*
X445707D01*
X444094Y575353D02*
X445606D01*
X444094Y577125D02*
X445565D01*
X444094Y575707D02*
X445459D01*
X445306Y499526D02*
X445442D01*
X444094Y576770D02*
X445436D01*
X445328Y497755D02*
X445420D01*
X444094Y576062D02*
X445386D01*
X444094Y576416D02*
X445379D01*
X436653Y402794D02*
X445236D01*
X441371Y405274D02*
X445234D01*
X433627Y531416D02*
X445114D01*
X436950Y403148D02*
X444940D01*
X441280Y404920D02*
X444938D01*
X441737Y528581D02*
X444864D01*
X437118Y403503D02*
X444772D01*
X441095Y404566D02*
X444771D01*
X439962Y403857D02*
X444695D01*
X440767Y404211D02*
X444694D01*
X434304Y531062D02*
X444642D01*
X441192Y421573D02*
X444634D01*
X441819Y528936D02*
X444514D01*
X441390Y434684D02*
X444436D01*
X440727Y530707D02*
X444389D01*
X441507Y431495D02*
X444320D01*
X441823Y529290D02*
X444317D01*
X441304Y530353D02*
X444250D01*
X441751Y529644D02*
X444216D01*
X441613Y424762D02*
X444214D01*
X441590Y529999D02*
X444195D01*
X433814Y515825D02*
X444135D01*
X438830Y519014D02*
X444061D01*
X439251Y522203D02*
X443995D01*
X440199Y525038D02*
X443990D01*
X439769Y521849D02*
X443931D01*
X434995Y518660D02*
X443876D01*
X441998Y421928D02*
X443829D01*
X442048Y434329D02*
X443779D01*
X442088Y431849D02*
X443739D01*
X442131Y424408D02*
X443695D01*
X434498Y516180D02*
X443660D01*
X439635Y519369D02*
X443624D01*
X428759Y522558D02*
X443591D01*
X440254Y524684D02*
X443589D01*
X440038Y521495D02*
X443557D01*
X435146Y518306D02*
X443528D01*
X442325Y422282D02*
X443502D01*
X442353Y433975D02*
X443474D01*
X440556Y500235D02*
X443452D01*
X442376Y432203D02*
X443451D01*
X442400Y424054D02*
X443426D01*
X434842Y516534D02*
X443406D01*
X439963Y519723D02*
X443386D01*
X428598Y522912D02*
X443367D01*
X440233Y524329D02*
X443366D01*
X440188Y521140D02*
X443348D01*
X430486Y497046D02*
X443336D01*
X435222Y517951D02*
X443331D01*
X442510Y422636D02*
X443317D01*
X442525Y433621D02*
X443302D01*
X442538Y432558D02*
X443289D01*
X442550Y423699D02*
X443276D01*
X435054Y516888D02*
X443266D01*
X440148Y520077D02*
X443256D01*
X439585Y523266D02*
X443247D01*
X440132Y523975D02*
X443246D01*
X440252Y520786D02*
X443238D01*
X435233Y517597D02*
X443231D01*
X442601Y422991D02*
X443226D01*
X442607Y433266D02*
X443220D01*
X442611Y432912D02*
X443216D01*
X442614Y423345D02*
X443213D01*
X435178Y517243D02*
X443211D01*
X440239Y520432D02*
X443209D01*
X439935Y523621D02*
X443209D01*
X431886Y535314D02*
X443072D01*
X408833Y532479D02*
X442950D01*
X440383Y499881D02*
X442795D01*
X430683Y497400D02*
X442754D01*
X432019Y534959D02*
X442638D01*
X431243Y532833D02*
X442575D01*
X439520Y491377D02*
X442519D01*
X440076Y499526D02*
X442490D01*
X430784Y497755D02*
X442467D01*
X432080Y534605D02*
X442400D01*
X431630Y533188D02*
X442365D01*
X439412Y499172D02*
X442317D01*
X430805Y498109D02*
X442305D01*
X432077Y534251D02*
X442271D01*
X431865Y533542D02*
X442255D01*
X439123Y494566D02*
X442253D01*
X430611Y498818D02*
X442236D01*
X430750Y498463D02*
X442232D01*
X432008Y533896D02*
X442225D01*
X440926Y469762D02*
X442167D01*
X400673Y472597D02*
X441908D01*
X440042Y491731D02*
X441797D01*
X439914Y494211D02*
X441707D01*
X440842Y470117D02*
X441691D01*
X434450Y415904D02*
X441632D01*
X434454Y418739D02*
X441628D01*
X400985Y472243D02*
X441559D01*
X440312Y492085D02*
X441481D01*
X440682Y470471D02*
X441438D01*
X440240Y493857D02*
X441430D01*
X401213Y471888D02*
X441363D01*
X440463Y492440D02*
X441302D01*
X440421Y470825D02*
X441298D01*
X440424Y493503D02*
X441274D01*
X401377Y471534D02*
X441263D01*
X439983Y471180D02*
X441242D01*
X434854Y416259D02*
X441229D01*
X434856Y418385D02*
X441226D01*
X440527Y492794D02*
X441215D01*
X440515Y493148D02*
X441206D01*
X435078Y416613D02*
X441005D01*
X435079Y418030D02*
X441003D01*
X435198Y416967D02*
X440885D01*
X435199Y417676D02*
X440884D01*
X435236Y417322D02*
X440846D01*
X432334Y421573D02*
X440697D01*
X423819Y434684D02*
X440499D01*
X439272Y431495D02*
X440383D01*
X437603Y569329D02*
X440283D01*
X432755Y424762D02*
X440277D01*
X433139Y421928D02*
X439892D01*
X430579Y434329D02*
X439842D01*
X439234Y431849D02*
X439802D01*
X437685Y569684D02*
X439761D01*
X433273Y424408D02*
X439758D01*
X397835Y527518D02*
X439722D01*
X434647Y530707D02*
X439588D01*
X433467Y422282D02*
X439565D01*
X431371Y433975D02*
X439537D01*
X439115Y432203D02*
X439514D01*
X437690Y570038D02*
X439491D01*
X433542Y424054D02*
X439489D01*
X437195Y403857D02*
X439467D01*
X433652Y422636D02*
X439380D01*
X431697Y433621D02*
X439365D01*
X438892Y432558D02*
X439352D01*
X437617Y570392D02*
X439340D01*
X433692Y423699D02*
X439339D01*
X433743Y422991D02*
X439289D01*
X431881Y433266D02*
X439283D01*
X438490Y432912D02*
X439279D01*
X433756Y423345D02*
X439276D01*
X434137Y527873D02*
X439058D01*
X426974Y407046D02*
X439047D01*
X434858Y530353D02*
X439011D01*
X405517Y452755D02*
X438904D01*
X437692Y412361D02*
X438827D01*
X408255Y415196D02*
X438823D01*
X434549Y528227D02*
X438751D01*
X434982Y529999D02*
X438725D01*
X437195Y404211D02*
X438662D01*
X432259Y494566D02*
X438594D01*
X404382Y448857D02*
X438591D01*
X434797Y528581D02*
X438578D01*
X435036Y529644D02*
X438564D01*
X436459Y499172D02*
X438541D01*
X427123Y406692D02*
X438528D01*
X434948Y528936D02*
X438496D01*
X435025Y529290D02*
X438492D01*
X437426Y412715D02*
X438423D01*
X408806Y414841D02*
X438421D01*
X436593Y502361D02*
X438407D01*
X434748Y519014D02*
X438335D01*
X437119Y404566D02*
X438335D01*
X433948Y546298D02*
X438334D01*
X427833Y467636D02*
X438308D01*
X427841Y464448D02*
X438301D01*
X427252Y406337D02*
X438259D01*
X434821Y543109D02*
X438218D01*
X437051Y413070D02*
X438199D01*
X409112Y414487D02*
X438198D01*
X397835Y491377D02*
X438196D01*
X436952Y404920D02*
X438149D01*
X427362Y405983D02*
X438109D01*
X436470Y413424D02*
X438080D01*
X409302Y414133D02*
X438079D01*
X436656Y405274D02*
X438058D01*
X436043Y405629D02*
X438045D01*
X409409Y413778D02*
X438041D01*
X436042Y510865D02*
X437974D01*
X428168Y460904D02*
X437974D01*
X428172Y471180D02*
X437970D01*
X428831Y522203D02*
X437915D01*
X437123Y499526D02*
X437877D01*
X405786Y452400D02*
X437848D01*
X397835Y526101D02*
X437831D01*
X437170Y502007D02*
X437830D01*
X432420Y494211D02*
X437802D01*
X397835Y449211D02*
X437797D01*
X428443Y467991D02*
X437699D01*
X428446Y464093D02*
X437695D01*
X397835Y545944D02*
X437677D01*
X397835Y491731D02*
X437674D01*
X410131Y543463D02*
X437636D01*
X436392Y511219D02*
X437624D01*
X428387Y523266D02*
X437580D01*
X437430Y499881D02*
X437570D01*
X437456Y501652D02*
X437544D01*
X428607Y461259D02*
X437534D01*
X428610Y470825D02*
X437532D01*
X434338Y519369D02*
X437530D01*
X432493Y493857D02*
X437476D01*
X405936Y452046D02*
X437463D01*
X397835Y449566D02*
X437433D01*
X436589Y511573D02*
X437427D01*
X431263Y492085D02*
X437404D01*
X428827Y521849D02*
X437396D01*
X428768Y468345D02*
X437374D01*
X428770Y463739D02*
X437372D01*
X397835Y545589D02*
X437372D01*
X428171Y525747D02*
X437358D01*
X410058Y543818D02*
X437349D01*
X436690Y511928D02*
X437326D01*
X432488Y493503D02*
X437292D01*
X428869Y461613D02*
X437272D01*
X428871Y470471D02*
X437271D01*
X431926Y492440D02*
X437253D01*
X428641Y523621D02*
X437230D01*
X406000Y451692D02*
X437228D01*
X404578Y449920D02*
X437209D01*
X429081Y519723D02*
X437203D01*
X432406Y493148D02*
X437202D01*
X397835Y545235D02*
X437199D01*
X432233Y492794D02*
X437189D01*
X409897Y544172D02*
X437187D01*
X428969Y468699D02*
X437173D01*
X428970Y463385D02*
X437172D01*
X428745Y521495D02*
X437127D01*
X409034Y544881D02*
X437118D01*
X409611Y544526D02*
X437114D01*
X429030Y461967D02*
X437112D01*
X429031Y470117D02*
X437111D01*
X428519Y525392D02*
X437106D01*
X405987Y451337D02*
X437086D01*
X405384Y450274D02*
X437076D01*
X429085Y469054D02*
X437056D01*
X429086Y463030D02*
X437056D01*
X428781Y523975D02*
X437033D01*
X429114Y462322D02*
X437027D01*
X429115Y469762D02*
X437027D01*
X428707Y520077D02*
X437018D01*
X405896Y450983D02*
X437018D01*
X405711Y450629D02*
X437014D01*
X429132Y469408D02*
X437009D01*
X429132Y462676D02*
X437009D01*
X428572Y521140D02*
X436977D01*
X428716Y525038D02*
X436966D01*
X428837Y524329D02*
X436932D01*
X427601Y520432D02*
X436926D01*
X428265Y520786D02*
X436914D01*
X428816Y524684D02*
X436911D01*
X409161Y430077D02*
X436711D01*
X431972Y432912D02*
X436707D01*
X409331Y430432D02*
X436307D01*
X431984Y432558D02*
X436305D01*
X409423Y430786D02*
X436083D01*
X431920Y432203D02*
X436082D01*
X428762Y515117D02*
X436002D01*
X430977Y431140D02*
X435963D01*
X431769Y431849D02*
X435963D01*
X431499Y431495D02*
X435925D01*
X434349Y565432D02*
X435690D01*
X429110Y514762D02*
X435654D01*
X421457Y568266D02*
X435588D01*
X432522Y499172D02*
X435588D01*
X425766Y562597D02*
X435568D01*
X429307Y514408D02*
X435457D01*
X432656Y502361D02*
X435454D01*
X429407Y514054D02*
X435357D01*
X434327Y565077D02*
X435256D01*
X421457Y562951D02*
X435193D01*
X432865Y402440D02*
X435028D01*
X427453Y405629D02*
X435020D01*
X434227Y564723D02*
X435018D01*
X421457Y563306D02*
X434983D01*
X421457Y568621D02*
X434924D01*
X433186Y499526D02*
X434924D01*
X434029Y564369D02*
X434889D01*
X433233Y502007D02*
X434878D01*
X421457Y563660D02*
X434873D01*
X433679Y564014D02*
X434843D01*
X421458Y568975D02*
X434617D01*
X433493Y499881D02*
X434617D01*
X433519Y501652D02*
X434591D01*
X421510Y569329D02*
X434444D01*
X433666Y500235D02*
X434444D01*
X427612Y570392D02*
X434430D01*
X433680Y501298D02*
X434430D01*
X426393Y408109D02*
X434413D01*
X432549Y402794D02*
X434410D01*
X427527Y405274D02*
X434407D01*
X421641Y569684D02*
X434362D01*
X433748Y500589D02*
X434362D01*
X421873Y570038D02*
X434358D01*
X433753Y500944D02*
X434358D01*
X429427Y513699D02*
X434287D01*
X432081Y403148D02*
X434113D01*
X427585Y404920D02*
X434111D01*
X409448Y413424D02*
X434101D01*
X433542Y510865D02*
X434037D01*
X431131Y403503D02*
X433945D01*
X427625Y404566D02*
X433944D01*
X427658Y403857D02*
X433868D01*
X427649Y404211D02*
X433868D01*
X431352Y539920D02*
X433816D01*
X429372Y513345D02*
X433815D01*
X433273Y511219D02*
X433687D01*
X426147Y408463D02*
X433685D01*
X410126Y543109D02*
X433683D01*
X429232Y512991D02*
X433562D01*
X409423Y413070D02*
X433520D01*
X409521Y550196D02*
X433491D01*
X432755Y511573D02*
X433490D01*
X428978Y512636D02*
X433423D01*
X416630Y511928D02*
X433389D01*
X428503Y512282D02*
X433368D01*
X427306Y408818D02*
X433258D01*
X409834Y546298D02*
X433178D01*
X430674Y540274D02*
X433152D01*
X409331Y412715D02*
X433145D01*
X410044Y542755D02*
X433106D01*
X427693Y409172D02*
X432960D01*
X426579Y412361D02*
X432878D01*
X397835Y540629D02*
X432846D01*
X409871Y542400D02*
X432820D01*
X427928Y409526D02*
X432745D01*
X397835Y515825D02*
X432721D01*
X427364Y412007D02*
X432686D01*
X420656Y415904D02*
X432676D01*
X397835Y540983D02*
X432673D01*
X420659Y418739D02*
X432672D01*
X409564Y542046D02*
X432658D01*
X428071Y409881D02*
X432592D01*
X397835Y541337D02*
X432590D01*
X408900Y541692D02*
X432586D01*
X427727Y411652D02*
X432553D01*
X425753Y531416D02*
X432515D01*
X428140Y410235D02*
X432493D01*
X427949Y411298D02*
X432470D01*
X428143Y410589D02*
X432441D01*
X410577Y549841D02*
X432434D01*
X428082Y410944D02*
X432433D01*
X410628Y546652D02*
X432384D01*
X420947Y416259D02*
X432272D01*
X420949Y418385D02*
X432270D01*
X429128Y437164D02*
X432226D01*
X429290Y519369D02*
X432198D01*
X410962Y549487D02*
X432049D01*
X421127Y416613D02*
X432048D01*
X421128Y418030D02*
X432047D01*
X397835Y516180D02*
X432037D01*
X410992Y547007D02*
X432020D01*
X426263Y527873D02*
X432005D01*
X421227Y416967D02*
X431928D01*
X421228Y417676D02*
X431927D01*
X421457Y566849D02*
X431925D01*
X397835Y441416D02*
X431890D01*
X421260Y417322D02*
X431890D01*
X411533Y508385D02*
X431839D01*
X429381Y421573D02*
X431839D01*
X426430Y531062D02*
X431837D01*
X411197Y549133D02*
X431814D01*
X411216Y547361D02*
X431796D01*
X429399Y519014D02*
X431788D01*
X397835Y516534D02*
X431694D01*
X421457Y564014D02*
X431675D01*
X411339Y548778D02*
X431673D01*
X411349Y547715D02*
X431663D01*
X430358Y499172D02*
X431651D01*
X411408Y548424D02*
X431604D01*
X429067Y437518D02*
X431604D01*
X411411Y548070D02*
X431601D01*
X426675Y528227D02*
X431593D01*
X429429Y518660D02*
X431540D01*
X410018Y502361D02*
X431518D01*
X426773Y530707D02*
X431495D01*
X397835Y516888D02*
X431482D01*
X421457Y566495D02*
X431453D01*
X414786Y441062D02*
X431422D01*
X416617Y511573D02*
X431419D01*
X429802Y424762D02*
X431419D01*
X429382Y518306D02*
X431389D01*
X428577Y517243D02*
X431357D01*
X426923Y528581D02*
X431345D01*
X421457Y564369D02*
X431325D01*
X429252Y517951D02*
X431313D01*
X429014Y517597D02*
X431303D01*
X426984Y530353D02*
X431284D01*
X428934Y437873D02*
X431244D01*
X421457Y566140D02*
X431200D01*
X427074Y528936D02*
X431193D01*
X427108Y529999D02*
X431160D01*
X421457Y564723D02*
X431128D01*
X415224Y440707D02*
X431124D01*
X427151Y529290D02*
X431117D01*
X427162Y529644D02*
X431106D01*
X421457Y565786D02*
X431061D01*
X411839Y508739D02*
X431034D01*
X430187Y421928D02*
X431034D01*
X421457Y565077D02*
X431027D01*
X421457Y565432D02*
X431006D01*
X428711Y438227D02*
X431004D01*
X429886Y499526D02*
X430987D01*
X410595Y502007D02*
X430941D01*
X415485Y440353D02*
X430923D01*
X416526Y511219D02*
X430900D01*
X430320Y424408D02*
X430900D01*
X428348Y438581D02*
X430844D01*
X415645Y439999D02*
X430794D01*
X427564Y438936D02*
X430749D01*
X415729Y439644D02*
X430725D01*
X415746Y439290D02*
X430710D01*
X412012Y509093D02*
X430707D01*
X430514Y422282D02*
X430707D01*
X417676Y499881D02*
X430680D01*
X410881Y501652D02*
X430654D01*
X416341Y510865D02*
X430631D01*
X430589Y424054D02*
X430631D01*
X423775Y444959D02*
X430556D01*
X412095Y509448D02*
X430522D01*
X417466Y500235D02*
X430507D01*
X411042Y501298D02*
X430493D01*
X416013Y510510D02*
X430481D01*
X412099Y509802D02*
X430430D01*
X417093Y500589D02*
X430425D01*
X411115Y500944D02*
X430421D01*
X415208Y510156D02*
X430417D01*
X427404Y492085D02*
X430391D01*
X427538Y495274D02*
X430258D01*
X427649Y403503D02*
X430188D01*
X427823Y434329D02*
X430051D01*
X424298Y448503D02*
X430032D01*
X424459Y445314D02*
X429872D01*
X428068Y492440D02*
X429727D01*
X428115Y494920D02*
X429681D01*
X428221Y431140D02*
X429653D01*
X424708Y448148D02*
X429622D01*
X426737Y540274D02*
X429562D01*
X424802Y445668D02*
X429529D01*
X428375Y492794D02*
X429421D01*
X428401Y494566D02*
X429394D01*
X424956Y447794D02*
X429375D01*
X425014Y446022D02*
X429316D01*
X428615Y433975D02*
X429259D01*
X428548Y493148D02*
X429247D01*
X427625Y403148D02*
X429238D01*
X428562Y494211D02*
X429233D01*
X425107Y447440D02*
X429224D01*
X425139Y446377D02*
X429192D01*
X428630Y493503D02*
X429165D01*
X428634Y493857D02*
X429161D01*
X425183Y447085D02*
X429148D01*
X425193Y446731D02*
X429137D01*
X428743Y431495D02*
X429131D01*
X427306Y532833D02*
X428993D01*
X401772Y421573D02*
X428886D01*
X427415Y539920D02*
X428885D01*
X421374Y555510D02*
X428865D01*
X427584Y402794D02*
X428770D01*
X427693Y533188D02*
X428607D01*
X418720Y551613D02*
X428552D01*
X427757Y539566D02*
X428542D01*
X401748Y424762D02*
X428466D01*
X427527Y402440D02*
X428454D01*
X426736Y499526D02*
X428382D01*
X427928Y533542D02*
X428371D01*
X427968Y539211D02*
X428331D01*
X428071Y533896D02*
X428229D01*
X427453Y402085D02*
X428228D01*
X428092Y538857D02*
X428207D01*
X428140Y534251D02*
X428160D01*
X428146Y538503D02*
X428153D01*
X426986Y496692D02*
X428132D01*
X401772Y421928D02*
X428081D01*
X427361Y401731D02*
X428070D01*
X427251Y401377D02*
X427967D01*
X401772Y424408D02*
X427947D01*
X427122Y401022D02*
X427914D01*
X427209Y499172D02*
X427909D01*
X426973Y400668D02*
X427904D01*
X426803Y400314D02*
X427904D01*
X426609Y399959D02*
X427904D01*
X426391Y399605D02*
X427904D01*
X426145Y399251D02*
X427904D01*
X425868Y398896D02*
X427904D01*
X425556Y398542D02*
X427904D01*
X425202Y398188D02*
X427904D01*
X421239Y555156D02*
X427808D01*
X427336Y497046D02*
X427782D01*
X418789Y551967D02*
X427758D01*
X401772Y422282D02*
X427754D01*
X401772Y424054D02*
X427678D01*
X427461Y498818D02*
X427657D01*
X427534Y497400D02*
X427584D01*
X401772Y422636D02*
X427569D01*
X401772Y423699D02*
X427528D01*
X401772Y422991D02*
X427478D01*
X401772Y423345D02*
X427465D01*
X421023Y554802D02*
X427423D01*
X418793Y552322D02*
X427394D01*
X423793Y434329D02*
X427295D01*
X420688Y554448D02*
X427188D01*
X418732Y552676D02*
X427170D01*
X420099Y554093D02*
X427047D01*
X418599Y553030D02*
X427037D01*
X416566Y512282D02*
X427009D01*
X418014Y553739D02*
X426978D01*
X418376Y553385D02*
X426975D01*
X397835Y517243D02*
X426935D01*
X409448Y431140D02*
X426897D01*
X397835Y520077D02*
X426805D01*
X415700Y438936D02*
X426767D01*
X408191Y515117D02*
X426750D01*
X397835Y520432D02*
X426729D01*
X400587Y426534D02*
X426729D01*
X408885Y429723D02*
X426596D01*
X416416Y512636D02*
X426534D01*
X424648Y492085D02*
X426533D01*
X423701Y433975D02*
X426503D01*
X397835Y517597D02*
X426498D01*
X399444Y467636D02*
X426497D01*
X413659Y464448D02*
X426490D01*
X397835Y519723D02*
X426431D01*
X408539Y514762D02*
X426402D01*
X424782Y495274D02*
X426399D01*
X409409Y431495D02*
X426375D01*
X416147Y512991D02*
X426280D01*
X397835Y517951D02*
X426260D01*
X397835Y519369D02*
X426222D01*
X408736Y514408D02*
X426205D01*
X423531Y433621D02*
X426177D01*
X417854Y460904D02*
X426163D01*
X397835Y525747D02*
X426160D01*
X401489Y471180D02*
X426159D01*
X415629Y513345D02*
X426140D01*
X397835Y518306D02*
X426130D01*
X397835Y519014D02*
X426112D01*
X408836Y514054D02*
X426105D01*
X409302Y431849D02*
X426105D01*
X408856Y513699D02*
X426085D01*
X397835Y518660D02*
X426083D01*
X397835Y520786D02*
X426066D01*
X400751Y426888D02*
X426066D01*
X423672Y435392D02*
X426041D01*
X408413Y429369D02*
X426019D01*
X423255Y433266D02*
X425993D01*
X415583Y438581D02*
X425982D01*
X422277Y570392D02*
X425970D01*
X409112Y432203D02*
X425954D01*
X416005Y523266D02*
X425943D01*
X422783Y432912D02*
X425902D01*
X408806Y432558D02*
X425890D01*
X400222Y467991D02*
X425887D01*
X413223Y464093D02*
X425884D01*
X425312Y492440D02*
X425869D01*
X425359Y494920D02*
X425822D01*
X397835Y525392D02*
X425811D01*
X409161Y412361D02*
X425783D01*
X397835Y521140D02*
X425759D01*
X400848Y427243D02*
X425759D01*
X415885Y522912D02*
X425733D01*
X400434Y429014D02*
X425733D01*
X417974Y461259D02*
X425723D01*
X401554Y470825D02*
X425721D01*
X416043Y523621D02*
X425690D01*
X423482Y435747D02*
X425654D01*
X422800Y540274D02*
X425625D01*
X415382Y438227D02*
X425620D01*
X415262Y525038D02*
X425615D01*
X397835Y521495D02*
X425586D01*
X400885Y427597D02*
X425586D01*
X415661Y522558D02*
X425572D01*
X400652Y428660D02*
X425572D01*
X400670Y468345D02*
X425563D01*
X402596Y463739D02*
X425561D01*
X416006Y523975D02*
X425549D01*
X415663Y524684D02*
X425515D01*
X397835Y521849D02*
X425504D01*
X400867Y427951D02*
X425504D01*
X415257Y522203D02*
X425499D01*
X400791Y428306D02*
X425499D01*
X415886Y524329D02*
X425494D01*
X418012Y461613D02*
X425461D01*
X401575Y470471D02*
X425460D01*
X423176Y436101D02*
X425418D01*
X415057Y437873D02*
X425397D01*
X400983Y468699D02*
X425362D01*
X402680Y463385D02*
X425361D01*
X417974Y461967D02*
X425301D01*
X401553Y470117D02*
X425300D01*
X422625Y436455D02*
X425276D01*
X414448Y437518D02*
X425264D01*
X401212Y469054D02*
X425245D01*
X417230Y463030D02*
X425245D01*
X424374Y499526D02*
X425232D01*
X417855Y462322D02*
X425216D01*
X401488Y469762D02*
X425216D01*
X418380Y436810D02*
X425207D01*
X404824Y437164D02*
X425203D01*
X401376Y469408D02*
X425198D01*
X417632Y462676D02*
X425198D01*
X423369Y532833D02*
X425056D01*
X408885Y412007D02*
X424998D01*
X424624Y496692D02*
X424982D01*
X423478Y539920D02*
X424948D01*
X423756Y533188D02*
X424670D01*
X415418Y531416D02*
X424641D01*
X408413Y411652D02*
X424636D01*
X421457Y562597D02*
X424628D01*
X423820Y539566D02*
X424605D01*
X423991Y533542D02*
X424434D01*
X422143Y411298D02*
X424413D01*
X424031Y539211D02*
X424394D01*
X424133Y533896D02*
X424292D01*
X423085Y410944D02*
X424280D01*
X424155Y538857D02*
X424270D01*
X424203Y534251D02*
X424223D01*
X423775Y410589D02*
X424219D01*
X424209Y538503D02*
X424216D01*
X415928Y527873D02*
X424131D01*
X421457Y559762D02*
X424097D01*
X421457Y562243D02*
X424051D01*
X416096Y531062D02*
X423963D01*
X421457Y560117D02*
X423791D01*
X399748Y492085D02*
X423777D01*
X421457Y561888D02*
X423764D01*
X416340Y528227D02*
X423719D01*
X421457Y556573D02*
X423663D01*
X423129Y495274D02*
X423643D01*
X416438Y530707D02*
X423621D01*
X421457Y560471D02*
X423617D01*
X421457Y561534D02*
X423603D01*
X421457Y560825D02*
X423535D01*
X421457Y561180D02*
X423531D01*
X416588Y528581D02*
X423471D01*
X416649Y530353D02*
X423410D01*
X421457Y559408D02*
X423404D01*
X416740Y528936D02*
X423319D01*
X416774Y529999D02*
X423286D01*
X416816Y529290D02*
X423243D01*
X416827Y529644D02*
X423232D01*
X421457Y556928D02*
X423187D01*
X400612Y492440D02*
X423113D01*
X422876Y494920D02*
X423067D01*
X421457Y559054D02*
X423055D01*
X421457Y557282D02*
X422934D01*
X417785Y499526D02*
X422870D01*
X421457Y558699D02*
X422859D01*
X415753Y456652D02*
X422830D01*
X401152Y492794D02*
X422806D01*
X421457Y557636D02*
X422794D01*
X422400Y494566D02*
X422780D01*
X421457Y558345D02*
X422759D01*
X421457Y557991D02*
X422738D01*
X415901Y444959D02*
X422682D01*
X401554Y493148D02*
X422633D01*
X413496Y494211D02*
X422619D01*
X401868Y493503D02*
X422551D01*
X413092Y493857D02*
X422547D01*
X417814Y499172D02*
X422398D01*
X416424Y448503D02*
X422158D01*
X417768Y498818D02*
X422145D01*
X416479Y453109D02*
X422103D01*
X416537Y456298D02*
X422045D01*
X417638Y498463D02*
X422005D01*
X416585Y445314D02*
X421998D01*
X416963Y497755D02*
X421972D01*
X417399Y498109D02*
X421951D01*
X409153Y536377D02*
X421846D01*
X416834Y448148D02*
X421748D01*
X416866Y453463D02*
X421717D01*
X397835Y540274D02*
X421688D01*
X416900Y455944D02*
X421683D01*
X416928Y445668D02*
X421655D01*
X417082Y447794D02*
X421501D01*
X417102Y453818D02*
X421481D01*
X417123Y455589D02*
X421460D01*
X417140Y446022D02*
X421442D01*
X417233Y447440D02*
X421350D01*
X417244Y454172D02*
X421339D01*
X417256Y455235D02*
X421327D01*
X417265Y446377D02*
X421318D01*
X417309Y447085D02*
X421274D01*
X417313Y454526D02*
X421270D01*
X417317Y454881D02*
X421266D01*
X417319Y446731D02*
X421263D01*
X409124Y536731D02*
X421178D01*
X409030Y532833D02*
X421119D01*
X419436Y436455D02*
X421076D01*
X409106Y536022D02*
X421061D01*
X400077Y539920D02*
X421011D01*
X418692Y432912D02*
X420918D01*
X413720Y494566D02*
X420907D01*
X409014Y537085D02*
X420766D01*
X409130Y533188D02*
X420733D01*
X408976Y535668D02*
X420699D01*
X400596Y539566D02*
X420668D01*
X415839Y497400D02*
X420648D01*
X419821Y436101D02*
X420525D01*
X408805Y537440D02*
X420518D01*
X409152Y533542D02*
X420497D01*
X408738Y535314D02*
X420476D01*
X400865Y539211D02*
X420457D01*
X419486Y433266D02*
X420446D01*
X413840Y494920D02*
X420432D01*
X408431Y537794D02*
X420367D01*
X409097Y533896D02*
X420355D01*
X408301Y534959D02*
X420343D01*
X401015Y538857D02*
X420333D01*
X415835Y497046D02*
X420299D01*
X401066Y538148D02*
X420290D01*
X408957Y534251D02*
X420286D01*
X408705Y534605D02*
X420282D01*
X401079Y538503D02*
X420279D01*
X420056Y435747D02*
X420219D01*
X413878Y495274D02*
X420178D01*
X419851Y433621D02*
X420170D01*
X415753Y496692D02*
X420103D01*
X414609Y495629D02*
X420038D01*
X405083Y457007D02*
X420028D01*
X415579Y496337D02*
X420003D01*
X415273Y495983D02*
X419982D01*
X417226Y460196D02*
X419608D01*
X399952Y457361D02*
X419223D01*
X401702Y459841D02*
X419089D01*
X397835Y457715D02*
X418896D01*
X401344Y459487D02*
X418820D01*
X397835Y458070D02*
X418711D01*
X400875Y459133D02*
X418670D01*
X397835Y458424D02*
X418619D01*
X400202Y458778D02*
X418606D01*
X399042Y415550D02*
X418436D01*
X409439Y419093D02*
X418431D01*
X414836Y436810D02*
X418235D01*
X399318Y415904D02*
X417927D01*
X409370Y418739D02*
X417924D01*
X415149Y432912D02*
X417922D01*
X399489Y416259D02*
X417635D01*
X409228Y418385D02*
X417634D01*
X397835Y411298D02*
X417621D01*
X399581Y416613D02*
X417455D01*
X408992Y418030D02*
X417454D01*
X399606Y416967D02*
X417355D01*
X408605Y417676D02*
X417355D01*
X399567Y417322D02*
X417323D01*
X415892Y436455D02*
X417178D01*
X415943Y433266D02*
X417128D01*
X416277Y436101D02*
X416793D01*
X416307Y433621D02*
X416764D01*
X397835Y410944D02*
X416679D01*
X416512Y435747D02*
X416559D01*
X416531Y433975D02*
X416540D01*
X397835Y410589D02*
X415989D01*
X408900Y550550D02*
X415706D01*
X409034Y553739D02*
X415648D01*
X401986Y460196D02*
X415451D01*
X402733Y463030D02*
X415447D01*
X402436Y410235D02*
X415432D01*
X409564Y550904D02*
X415319D01*
X409611Y553385D02*
X415285D01*
X411110Y500589D02*
X415191D01*
X409871Y551259D02*
X415083D01*
X409897Y553030D02*
X415062D01*
X402213Y460550D02*
X415047D01*
X402755Y462676D02*
X415045D01*
X402942Y409881D02*
X414963D01*
X405555Y456652D02*
X414956D01*
X410044Y551613D02*
X414941D01*
X410058Y552676D02*
X414930D01*
X410126Y551967D02*
X414872D01*
X410131Y552322D02*
X414868D01*
X402393Y460904D02*
X414823D01*
X402747Y462322D02*
X414822D01*
X411028Y500235D02*
X414817D01*
X398916Y444959D02*
X414808D01*
X412027Y510156D02*
X414713D01*
X402533Y461259D02*
X414704D01*
X402707Y461967D02*
X414703D01*
X400778Y436810D02*
X414691D01*
X402637Y461613D02*
X414665D01*
X410855Y499881D02*
X414608D01*
X402510Y398188D02*
X414562D01*
X403232Y409526D02*
X414559D01*
X411382Y499526D02*
X414498D01*
X411854Y499172D02*
X414469D01*
X408255Y432912D02*
X414378D01*
X400701Y531416D02*
X414306D01*
X408801Y513345D02*
X414293D01*
X405040Y448503D02*
X414284D01*
X404999Y453109D02*
X414229D01*
X402130Y398542D02*
X414208D01*
X403412Y409172D02*
X414205D01*
X405808Y456298D02*
X414171D01*
X399240Y445314D02*
X414124D01*
X411865Y510510D02*
X413908D01*
X401776Y398896D02*
X413895D01*
X403511Y408818D02*
X413893D01*
X405345Y448148D02*
X413874D01*
X401292Y453463D02*
X413843D01*
X405947Y455944D02*
X413809D01*
X397835Y527873D02*
X413796D01*
X404499Y445668D02*
X413780D01*
X408661Y512991D02*
X413774D01*
X400630Y436455D02*
X413635D01*
X400297Y531062D02*
X413629D01*
X405517Y447794D02*
X413627D01*
X401421Y399251D02*
X413619D01*
X403543Y408463D02*
X413617D01*
X401432Y453818D02*
X413607D01*
X412107Y498818D02*
X413604D01*
X406002Y455589D02*
X413586D01*
X400779Y433266D02*
X413584D01*
X411579Y510865D02*
X413581D01*
X405080Y446022D02*
X413568D01*
X408407Y512636D02*
X413505D01*
X397835Y522203D02*
X413483D01*
X397835Y525038D02*
X413479D01*
X405599Y447440D02*
X413476D01*
X405333Y454172D02*
X413465D01*
X405981Y455235D02*
X413453D01*
X405368Y446377D02*
X413444D01*
X405603Y447085D02*
X413400D01*
X405683Y454526D02*
X413396D01*
X411002Y511219D02*
X413396D01*
X405880Y454881D02*
X413392D01*
X405530Y446731D02*
X413389D01*
X397835Y528227D02*
X413384D01*
X401067Y399605D02*
X413373D01*
X403511Y408109D02*
X413371D01*
X407932Y512282D02*
X413355D01*
X407092Y511573D02*
X413304D01*
X406920Y511928D02*
X413291D01*
X397835Y530707D02*
X413286D01*
X400402Y436101D02*
X413250D01*
X400632Y433621D02*
X413220D01*
X400713Y399959D02*
X413154D01*
X403411Y407755D02*
X413153D01*
X397835Y528581D02*
X413136D01*
X405228Y437518D02*
X413111D01*
X397835Y522558D02*
X413079D01*
X397835Y524684D02*
X413077D01*
X397835Y530353D02*
X413075D01*
X412247Y498463D02*
X413027D01*
X400054Y435747D02*
X413015D01*
X400404Y433975D02*
X412997D01*
X397835Y528936D02*
X412985D01*
X400358Y400314D02*
X412961D01*
X403231Y407400D02*
X412960D01*
X397835Y529999D02*
X412951D01*
X397835Y529290D02*
X412908D01*
X397835Y529644D02*
X412897D01*
X399448Y435392D02*
X412874D01*
X400057Y434329D02*
X412863D01*
X397835Y522912D02*
X412855D01*
X397835Y524329D02*
X412854D01*
X397835Y435038D02*
X412805D01*
X399455Y434684D02*
X412802D01*
X400004Y400668D02*
X412791D01*
X402940Y407046D02*
X412790D01*
X397835Y441062D02*
X412773D01*
X412301Y498109D02*
X412741D01*
X397835Y523266D02*
X412735D01*
X397835Y523975D02*
X412734D01*
X397835Y523621D02*
X412697D01*
X399650Y401022D02*
X412642D01*
X402430Y406692D02*
X412641D01*
X412280Y497755D02*
X412580D01*
X399295Y401377D02*
X412513D01*
X397835Y406337D02*
X412512D01*
X411982Y497046D02*
X412512D01*
X412180Y497400D02*
X412507D01*
X405452Y437873D02*
X412502D01*
X398941Y401731D02*
X412403D01*
X397835Y405983D02*
X412402D01*
X397835Y440707D02*
X412335D01*
X398960Y402085D02*
X412311D01*
X397835Y405629D02*
X412310D01*
X399268Y402440D02*
X412237D01*
X398575Y405274D02*
X412236D01*
X399458Y402794D02*
X412179D01*
X399045Y404920D02*
X412179D01*
X405572Y438227D02*
X412177D01*
X399566Y403148D02*
X412139D01*
X399320Y404566D02*
X412139D01*
X399606Y403503D02*
X412114D01*
X399490Y404211D02*
X412114D01*
X399581Y403857D02*
X412106D01*
X397835Y440353D02*
X412074D01*
X405610Y438581D02*
X411976D01*
X404828Y439999D02*
X411914D01*
X405573Y438936D02*
X411860D01*
X405230Y439644D02*
X411830D01*
X405453Y439290D02*
X411813D01*
X402476Y464093D02*
X411581D01*
X397835Y466928D02*
X411450D01*
X402118Y493857D02*
X411317D01*
X402319Y464448D02*
X411144D01*
X399757Y466573D02*
X411077D01*
X402318Y494211D02*
X410914D01*
X402747Y496337D02*
X410911D01*
X402120Y464802D02*
X410905D01*
X400617Y466219D02*
X410867D01*
X401870Y465156D02*
X410776D01*
X401156Y465865D02*
X410758D01*
X401556Y465510D02*
X410729D01*
X402475Y494566D02*
X410690D01*
X402755Y495983D02*
X410688D01*
X402595Y494920D02*
X410570D01*
X402733Y495629D02*
X410569D01*
X402680Y495274D02*
X410531D01*
X397835Y508030D02*
X409997D01*
X407174Y511219D02*
X409864D01*
X402708Y496692D02*
X409628D01*
X397835Y550196D02*
X409376D01*
X397835Y508385D02*
X409333D01*
X407178Y510865D02*
X409287D01*
X402637Y497046D02*
X409278D01*
X401704Y498818D02*
X409153D01*
X402534Y497400D02*
X409080D01*
X397835Y546298D02*
X409064D01*
X397835Y508739D02*
X409027D01*
X401988Y498463D02*
X409013D01*
X401347Y499172D02*
X409013D01*
X407104Y510510D02*
X409001D01*
X402394Y497755D02*
X408980D01*
X402214Y498109D02*
X408958D01*
X401119Y502361D02*
X408880D01*
X397835Y509093D02*
X408854D01*
X406943Y510156D02*
X408840D01*
X406074Y509448D02*
X408772D01*
X406655Y509802D02*
X408767D01*
X400879Y499526D02*
X408349D01*
X397835Y549841D02*
X408320D01*
X400856Y502007D02*
X408303D01*
X397835Y546652D02*
X408269D01*
X400208Y499881D02*
X408043D01*
X397835Y550550D02*
X408029D01*
X397835Y541692D02*
X408029D01*
X400493Y501652D02*
X408016D01*
X397835Y549487D02*
X407935D01*
X397835Y547007D02*
X407905D01*
X398792Y553739D02*
X407895D01*
X397835Y544881D02*
X407895D01*
X397835Y500235D02*
X407869D01*
X399946Y501298D02*
X407855D01*
X397835Y500589D02*
X407787D01*
X397835Y500944D02*
X407783D01*
X397835Y549133D02*
X407700D01*
X397835Y547361D02*
X407682D01*
X397835Y548778D02*
X407559D01*
X397835Y547715D02*
X407548D01*
X397835Y548424D02*
X407490D01*
X397835Y548070D02*
X407487D01*
X397835Y550904D02*
X407365D01*
X397835Y542046D02*
X407365D01*
X398321Y553385D02*
X407319D01*
X397835Y544526D02*
X407319D01*
X401772Y421219D02*
X407082D01*
X397835Y551259D02*
X407058D01*
X397835Y542400D02*
X407058D01*
X398060Y553030D02*
X407032D01*
X397835Y544172D02*
X407032D01*
X397835Y551613D02*
X406885D01*
X397835Y542755D02*
X406885D01*
X397910Y552676D02*
X406871D01*
X397835Y543818D02*
X406871D01*
X397835Y551967D02*
X406803D01*
X397835Y543109D02*
X406803D01*
X397842Y552322D02*
X406799D01*
X397835Y543463D02*
X406799D01*
X400861Y432912D02*
X406706D01*
X402349Y415196D02*
X406706D01*
X397835Y534959D02*
X406659D01*
X400104Y429369D02*
X406548D01*
X402507Y411652D02*
X406548D01*
X400975Y537794D02*
X406529D01*
X401044Y532125D02*
X406478D01*
X399459Y417676D02*
X406355D01*
X401768Y420865D02*
X406297D01*
X397835Y534605D02*
X406256D01*
X397835Y535314D02*
X406223D01*
X397835Y515117D02*
X406179D01*
X400789Y537440D02*
X406156D01*
X400886Y432558D02*
X406155D01*
X402900Y414841D02*
X406155D01*
X401083Y532479D02*
X406128D01*
X399548Y429723D02*
X406076D01*
X402979Y412007D02*
X406076D01*
X397835Y534251D02*
X406003D01*
X397835Y535668D02*
X405984D01*
X399270Y418030D02*
X405969D01*
X405957Y512636D02*
X405963D01*
X400462Y537085D02*
X405946D01*
X401695Y420510D02*
X405935D01*
X401045Y532833D02*
X405931D01*
X400301Y533896D02*
X405864D01*
X397835Y536022D02*
X405854D01*
X400855Y432203D02*
X405849D01*
X403207Y414487D02*
X405849D01*
X399657Y536731D02*
X405837D01*
X397835Y514762D02*
X405831D01*
X400926Y533188D02*
X405830D01*
X400703Y533542D02*
X405809D01*
X397835Y536377D02*
X405808D01*
X397835Y430077D02*
X405800D01*
X403255Y412361D02*
X405800D01*
X398963Y418385D02*
X405733D01*
X401510Y420156D02*
X405712D01*
X397835Y512991D02*
X405709D01*
X400765Y431849D02*
X405659D01*
X403396Y414133D02*
X405659D01*
X397835Y514408D02*
X405634D01*
X399340Y430432D02*
X405630D01*
X403426Y412715D02*
X405630D01*
X398412Y418739D02*
X405591D01*
X401133Y419802D02*
X405579D01*
X397835Y513345D02*
X405569D01*
X400609Y431495D02*
X405551D01*
X403504Y413778D02*
X405551D01*
X400005Y430786D02*
X405537D01*
X403518Y413070D02*
X405537D01*
X397835Y514054D02*
X405534D01*
X397835Y419093D02*
X405522D01*
X397835Y419448D02*
X405518D01*
X397835Y513699D02*
X405514D01*
X400370Y431140D02*
X405512D01*
X403543Y413424D02*
X405512D01*
X397835Y512636D02*
X405066D01*
X397835Y509448D02*
X404950D01*
X397835Y512282D02*
X404409D01*
X397835Y509802D02*
X404369D01*
X397835Y511928D02*
X404104D01*
X397835Y449920D02*
X404083D01*
X397835Y510156D02*
X404081D01*
X397835Y511573D02*
X403931D01*
X397835Y510510D02*
X403919D01*
X397835Y511219D02*
X403850D01*
X397835Y510865D02*
X403846D01*
X401094Y453109D02*
X403663D01*
X400496Y457007D02*
X403579D01*
X397835Y448857D02*
X403492D01*
X399441Y445668D02*
X403375D01*
X401523Y454172D02*
X403328D01*
X397835Y450274D02*
X403278D01*
X400822Y452755D02*
X403144D01*
X400859Y456652D02*
X403106D01*
X400861Y437164D02*
X403050D01*
X397835Y439999D02*
X403046D01*
X401568Y454526D02*
X402979D01*
X397835Y450629D02*
X402951D01*
X400443Y452400D02*
X402875D01*
X401121Y456298D02*
X402854D01*
X397835Y448503D02*
X402834D01*
X399558Y446022D02*
X402794D01*
X401571Y454881D02*
X402781D01*
X397835Y450983D02*
X402766D01*
X399865Y452046D02*
X402725D01*
X401311Y455944D02*
X402714D01*
X401530Y455235D02*
X402681D01*
X397835Y451337D02*
X402674D01*
X397835Y451692D02*
X402662D01*
X401445Y455589D02*
X402659D01*
X400886Y437518D02*
X402646D01*
X399348Y439644D02*
X402644D01*
X398645Y448148D02*
X402529D01*
X399605Y446377D02*
X402506D01*
X400855Y437873D02*
X402422D01*
X400008Y439290D02*
X402421D01*
X399082Y447794D02*
X402357D01*
X399587Y446731D02*
X402344D01*
X400766Y438227D02*
X402302D01*
X400372Y438936D02*
X402301D01*
X399343Y447440D02*
X402275D01*
X399503Y447085D02*
X402271D01*
X400611Y438581D02*
X402264D01*
X398570Y415196D02*
X400800D01*
X397835Y406692D02*
X400719D01*
X397835Y410235D02*
X400714D01*
X397835Y411652D02*
X400642D01*
X397835Y414841D02*
X400249D01*
X397835Y407046D02*
X400210D01*
X397835Y409881D02*
X400207D01*
X397835Y412007D02*
X400170D01*
X397835Y414487D02*
X399943D01*
X397835Y407400D02*
X399919D01*
X397835Y409526D02*
X399917D01*
X397835Y412361D02*
X399894D01*
X397835Y414133D02*
X399753D01*
X397835Y407755D02*
X399739D01*
X397835Y409172D02*
X399738D01*
X397835Y412715D02*
X399724D01*
X397835Y413778D02*
X399646D01*
X397835Y408109D02*
X399639D01*
X397835Y408818D02*
X399638D01*
X397835Y413070D02*
X399632D01*
X397835Y413424D02*
X399607D01*
X397835Y408463D02*
X399606D01*
X397835Y536731D02*
X399162D01*
X397835Y539920D02*
X398741D01*
X397835Y531062D02*
X398522D01*
X397835Y533896D02*
X398518D01*
X397835Y537085D02*
X398357D01*
X397835Y539566D02*
X398223D01*
X397835Y475432D02*
X398149D01*
X397835Y531416D02*
X398118D01*
X397835Y533542D02*
X398116D01*
X397835Y537440D02*
X398029D01*
X397835Y539211D02*
X397954D01*
X397835Y430432D02*
X397904D01*
X397835Y439644D02*
X397896D01*
X397835Y531770D02*
X397894D01*
X397835Y533188D02*
X397893D01*
X397835Y537794D02*
X397844D01*
X434547Y604133D02*
X449606D01*
X434395Y603778D02*
X449606D01*
X434605Y603424D02*
X449606D01*
X434714Y603070D02*
X449606D01*
X434744Y602715D02*
X449606D01*
X434697Y602361D02*
X449606D01*
X434567Y602007D02*
X449606D01*
X446918Y601652D02*
X449606D01*
X447710Y601298D02*
X449606D01*
X448035Y600944D02*
X449606D01*
X448220Y600589D02*
X449606D01*
X448310Y600235D02*
X449606D01*
X448323Y599881D02*
X449606D01*
X448258Y599526D02*
X449606D01*
X448108Y599172D02*
X449606D01*
X447837Y598818D02*
X449606D01*
X447315Y598463D02*
X449606D01*
X407455Y598109D02*
X449606D01*
X407363Y597755D02*
X449606D01*
X407192Y597400D02*
X449606D01*
X445648Y597046D02*
X449606D01*
X446225Y596692D02*
X449606D01*
X446511Y596337D02*
X449606D01*
X446672Y595983D02*
X449606D01*
X446745Y595629D02*
X449606D01*
X446740Y595274D02*
X449606D01*
X446658Y594920D02*
X449606D01*
X446485Y594566D02*
X449606D01*
X446178Y594211D02*
X449606D01*
X445515Y593857D02*
X449606D01*
X397835Y593503D02*
X449606D01*
X397835Y593148D02*
X449606D01*
X397835Y592794D02*
X449606D01*
X397835Y592440D02*
X449606D01*
X397835Y592085D02*
X449606D01*
X397835Y591731D02*
X449606D01*
X397835Y591377D02*
X449606D01*
X397835Y591022D02*
X449606D01*
X397835Y590668D02*
X449606D01*
X434687Y604487D02*
X449599D01*
X397835Y590314D02*
X449590D01*
X434742Y604841D02*
X449531D01*
X397835Y589959D02*
X449505D01*
X434721Y605196D02*
X449381D01*
X397835Y589605D02*
X449332D01*
X434622Y605550D02*
X449120D01*
X397835Y589251D02*
X449038D01*
X434425Y605904D02*
X448649D01*
X397835Y588896D02*
X448467D01*
X436879Y601652D02*
X446389D01*
X437276Y598463D02*
X445992D01*
X437670Y601298D02*
X445598D01*
X437798Y598818D02*
X445470D01*
X437996Y600944D02*
X445272D01*
X438068Y599172D02*
X445200D01*
X438180Y600589D02*
X445087D01*
X438219Y599526D02*
X445049D01*
X438271Y600235D02*
X444997D01*
X438283Y599881D02*
X444985D01*
X397835Y593857D02*
X444643D01*
X406916Y597046D02*
X444510D01*
X397835Y594211D02*
X443979D01*
X406444Y596692D02*
X443933D01*
X397835Y594566D02*
X443673D01*
X397835Y596337D02*
X443646D01*
X397835Y594920D02*
X443499D01*
X397835Y595983D02*
X443485D01*
X397835Y595274D02*
X443417D01*
X397835Y595629D02*
X443413D01*
X397835Y588542D02*
X442912D01*
X397835Y588188D02*
X442410D01*
X397835Y587833D02*
X442108D01*
X397835Y587479D02*
X441912D01*
X397835Y587125D02*
X441793D01*
X401006Y586770D02*
X441738D01*
X401354Y586416D02*
X441732D01*
X421167Y586062D02*
X441732D01*
X421569Y585707D02*
X441732D01*
X432839Y585353D02*
X441732D01*
X433311Y584999D02*
X441732D01*
X433564Y584644D02*
X441732D01*
X433703Y584290D02*
X441732D01*
X433758Y583936D02*
X441732D01*
X433737Y583581D02*
X441732D01*
X433636Y583227D02*
X441732D01*
X433439Y582873D02*
X441732D01*
X433089Y582518D02*
X441732D01*
X441180Y582164D02*
X441732D01*
X441614Y581810D02*
X441732D01*
X441677Y579684D02*
X441732D01*
X441302Y579329D02*
X441732D01*
X414058Y578975D02*
X441732D01*
X414071Y578621D02*
X441732D01*
X429886Y578266D02*
X441732D01*
X430358Y577912D02*
X441732D01*
X430611Y577558D02*
X441732D01*
X430750Y577203D02*
X441732D01*
X430805Y576849D02*
X441732D01*
X430784Y576495D02*
X441732D01*
X430683Y576140D02*
X441732D01*
X430486Y575786D02*
X441732D01*
X430136Y575432D02*
X441732D01*
X397835Y575077D02*
X441732D01*
X397835Y574723D02*
X441730D01*
X397835Y574369D02*
X441678D01*
X397835Y574014D02*
X441547D01*
X397835Y573660D02*
X441314D01*
X427617Y573306D02*
X440908D01*
X410858Y582164D02*
X439529D01*
X413968Y579329D02*
X439407D01*
X410921Y581810D02*
X439094D01*
X413783Y579684D02*
X439032D01*
X410908Y581455D02*
X438857D01*
X413458Y580038D02*
X438821D01*
X410817Y581101D02*
X438728D01*
X412666Y580392D02*
X438711D01*
X410632Y580747D02*
X438682D01*
X434329Y601652D02*
X436350D01*
X407480Y598463D02*
X435952D01*
X433892Y601298D02*
X435558D01*
X407441Y598818D02*
X435430D01*
X397835Y600944D02*
X435232D01*
X407333Y599172D02*
X435160D01*
X397835Y600589D02*
X435048D01*
X407144Y599526D02*
X435009D01*
X406286Y600235D02*
X434957D01*
X406837Y599881D02*
X434945D01*
X431530Y601298D02*
X432250D01*
X427543Y585353D02*
X431335D01*
X427794Y582518D02*
X431084D01*
X428016Y584999D02*
X430862D01*
X428144Y582873D02*
X430734D01*
X428268Y584644D02*
X430610D01*
X428341Y583227D02*
X430537D01*
X428408Y584290D02*
X430470D01*
X428442Y583581D02*
X430436D01*
X428463Y583936D02*
X430415D01*
X397835Y601298D02*
X429888D01*
X397835Y601652D02*
X429451D01*
X413307Y603778D02*
X429384D01*
X412600Y605904D02*
X429355D01*
X413376Y604133D02*
X429233D01*
X397835Y602007D02*
X429213D01*
X413165Y603424D02*
X429175D01*
X412963Y605550D02*
X429158D01*
X413380Y604487D02*
X429093D01*
X397835Y602361D02*
X429083D01*
X412929Y603070D02*
X429065D01*
X413186Y605196D02*
X429058D01*
X413319Y604841D02*
X429037D01*
X412542Y602715D02*
X429036D01*
X421028Y578266D02*
X428382D01*
X421278Y575432D02*
X428132D01*
X421500Y577912D02*
X427909D01*
X421628Y575786D02*
X427782D01*
X421753Y577558D02*
X427657D01*
X421825Y576140D02*
X427584D01*
X421892Y577203D02*
X427517D01*
X421926Y576495D02*
X427484D01*
X421947Y576849D02*
X427462D01*
X421792Y585353D02*
X426039D01*
X417617Y573306D02*
X425966D01*
X410707Y582518D02*
X425789D01*
X421911Y584999D02*
X425567D01*
X410439Y582873D02*
X425439D01*
X421949Y584644D02*
X425314D01*
X421163Y583227D02*
X425242D01*
X421911Y584290D02*
X425175D01*
X421567Y583581D02*
X425141D01*
X421791Y583936D02*
X425120D01*
X418051Y572951D02*
X420677D01*
X418289Y572597D02*
X419959D01*
X418418Y572243D02*
X419588D01*
X414006Y578266D02*
X419524D01*
X409920Y583227D02*
X419388D01*
X401551Y586062D02*
X419384D01*
X418464Y571888D02*
X419351D01*
X397835Y575432D02*
X419273D01*
X418434Y571534D02*
X419200D01*
X418324Y571180D02*
X419117D01*
X418114Y570825D02*
X419094D01*
X417739Y570471D02*
X419094D01*
X408940Y570117D02*
X419094D01*
X408952Y569762D02*
X419094D01*
X408888Y569408D02*
X419094D01*
X408737Y569054D02*
X419094D01*
X408467Y568699D02*
X419094D01*
X407945Y568345D02*
X419094D01*
X397835Y567991D02*
X419094D01*
X397835Y567636D02*
X419094D01*
X397835Y567282D02*
X419094D01*
X397835Y566928D02*
X419094D01*
X397835Y566573D02*
X419094D01*
X397835Y566219D02*
X419094D01*
X397835Y565865D02*
X419094D01*
X397835Y565510D02*
X419094D01*
X397835Y565156D02*
X419094D01*
X397835Y564802D02*
X419094D01*
X409290Y564448D02*
X419094D01*
X409725Y564093D02*
X419094D01*
X409962Y563739D02*
X419094D01*
X418766Y563385D02*
X419094D01*
X419073Y560904D02*
X419094D01*
X418636Y560550D02*
X419094D01*
X397835Y560196D02*
X419094D01*
X397835Y559841D02*
X419094D01*
X397835Y559487D02*
X419094D01*
X397835Y559133D02*
X419094D01*
X397835Y558778D02*
X419094D01*
X397835Y558424D02*
X419094D01*
X397835Y558070D02*
X419094D01*
X418260Y557715D02*
X419058D01*
X413856Y577912D02*
X419051D01*
X397835Y583581D02*
X418984D01*
X401651Y585707D02*
X418982D01*
X418918Y557361D02*
X418946D01*
X397835Y575786D02*
X418923D01*
X413585Y577558D02*
X418798D01*
X400747Y583936D02*
X418760D01*
X401671Y585353D02*
X418759D01*
X397835Y576140D02*
X418726D01*
X413064Y577203D02*
X418659D01*
X401222Y584290D02*
X418641D01*
X401616Y584999D02*
X418640D01*
X397835Y576495D02*
X418625D01*
X397835Y576849D02*
X418604D01*
X401476Y584644D02*
X418602D01*
X408713Y557715D02*
X417369D01*
X397835Y560550D02*
X416994D01*
X410091Y563385D02*
X416864D01*
X409370Y557361D02*
X416712D01*
X397835Y560904D02*
X416557D01*
X410137Y563030D02*
X416490D01*
X409676Y557007D02*
X416407D01*
X397835Y561259D02*
X416319D01*
X410108Y562676D02*
X416281D01*
X409848Y556652D02*
X416235D01*
X409412Y561613D02*
X416189D01*
X409998Y562322D02*
X416171D01*
X409787Y561967D02*
X416142D01*
X397835Y573306D02*
X415966D01*
X408850Y570471D02*
X415844D01*
X397835Y572951D02*
X415531D01*
X408665Y570825D02*
X415469D01*
X397835Y572597D02*
X415294D01*
X408340Y571180D02*
X415258D01*
X397835Y572243D02*
X415165D01*
X407548Y571534D02*
X415148D01*
X397835Y571888D02*
X415119D01*
X410305Y580392D02*
X412137D01*
X397835Y577203D02*
X411740D01*
X409499Y580038D02*
X411346D01*
X397835Y577558D02*
X411218D01*
X397835Y579684D02*
X411020D01*
X397835Y577912D02*
X410948D01*
X397835Y579329D02*
X410836D01*
X397835Y578266D02*
X410797D01*
X397835Y578975D02*
X410745D01*
X397835Y578621D02*
X410733D01*
X406637Y602715D02*
X410292D01*
X406695Y605904D02*
X410234D01*
X407023Y603070D02*
X409906D01*
X407057Y605550D02*
X409872D01*
X407259Y603424D02*
X409670D01*
X407280Y605196D02*
X409649D01*
X407401Y603778D02*
X409528D01*
X407413Y604841D02*
X409516D01*
X407470Y604133D02*
X409459D01*
X407474Y604487D02*
X409455D01*
X397835Y580038D02*
X409005D01*
X397835Y583227D02*
X408584D01*
X397835Y580392D02*
X408199D01*
X397835Y582873D02*
X408065D01*
X397835Y580747D02*
X407872D01*
X397871Y557715D02*
X407822D01*
X397835Y582518D02*
X407797D01*
X397835Y581101D02*
X407687D01*
X397835Y582164D02*
X407646D01*
X397835Y564448D02*
X407639D01*
X397835Y581455D02*
X407596D01*
X397835Y581810D02*
X407583D01*
X397835Y561613D02*
X407517D01*
X397835Y564093D02*
X407205D01*
X397983Y557361D02*
X407165D01*
X397835Y561967D02*
X407142D01*
X397835Y571534D02*
X407019D01*
X397835Y563739D02*
X406967D01*
X397835Y562322D02*
X406932D01*
X398190Y557007D02*
X406860D01*
X397835Y563385D02*
X406838D01*
X397835Y562676D02*
X406821D01*
X397835Y563030D02*
X406792D01*
X398545Y556652D02*
X406687D01*
X397835Y568345D02*
X406622D01*
X397835Y571180D02*
X406227D01*
X397835Y568699D02*
X406100D01*
X397835Y570825D02*
X405902D01*
X397835Y569054D02*
X405829D01*
X397835Y570471D02*
X405717D01*
X397835Y569408D02*
X405679D01*
X397835Y570117D02*
X405627D01*
X397835Y569762D02*
X405614D01*
X397835Y600235D02*
X404737D01*
X397835Y596692D02*
X404579D01*
X401125Y602715D02*
X404387D01*
X401183Y605904D02*
X404329D01*
X397835Y599881D02*
X404186D01*
X397835Y597046D02*
X404107D01*
X401511Y603070D02*
X404000D01*
X401546Y605550D02*
X403966D01*
X397835Y599526D02*
X403880D01*
X397835Y597400D02*
X403831D01*
X401747Y603424D02*
X403765D01*
X401768Y605196D02*
X403743D01*
X397835Y599172D02*
X403690D01*
X397835Y597755D02*
X403661D01*
X401889Y603778D02*
X403622D01*
X401901Y604841D02*
X403611D01*
X397835Y598818D02*
X403583D01*
X397835Y598109D02*
X403569D01*
X401959Y604133D02*
X403553D01*
X401962Y604487D02*
X403549D01*
X397835Y598463D02*
X403544D01*
X397835Y583936D02*
X399253D01*
X397835Y586770D02*
X398994D01*
X397835Y602715D02*
X398875D01*
X398792Y605904D02*
X398817D01*
X397835Y584290D02*
X398778D01*
X397835Y586416D02*
X398646D01*
X397835Y584644D02*
X398524D01*
X397835Y603070D02*
X398489D01*
X398321Y605550D02*
X398454D01*
X397835Y586062D02*
X398449D01*
X397835Y584999D02*
X398384D01*
X397835Y585707D02*
X398349D01*
X397835Y585353D02*
X398329D01*
X397835Y603424D02*
X398253D01*
X398060Y605196D02*
X398232D01*
X397835Y603778D02*
X398111D01*
X397910Y604841D02*
X398099D01*
X397835Y604133D02*
X398041D01*
X397842Y604487D02*
X398038D01*
X489079Y658424D02*
X491142D01*
X489864Y658070D02*
X491142D01*
X490227Y657715D02*
X491142D01*
X490449Y657361D02*
X491142D01*
X490582Y657007D02*
X491142D01*
X490643Y656652D02*
X491142D01*
X490640Y656298D02*
X491142D01*
X490571Y655944D02*
X491142D01*
X490428Y655589D02*
X491142D01*
X490193Y655235D02*
X491142D01*
X489806Y654881D02*
X491142D01*
X480745Y654526D02*
X491142D01*
X480802Y654172D02*
X491142D01*
X480795Y653818D02*
X491142D01*
X480722Y653463D02*
X491142D01*
X480575Y653109D02*
X491142D01*
X480333Y652755D02*
X491142D01*
X479935Y652400D02*
X491142D01*
X463515Y652046D02*
X491142D01*
X463381Y651692D02*
X491142D01*
X489619Y651337D02*
X491142D01*
X490088Y650983D02*
X491142D01*
X490363Y650629D02*
X491142D01*
X490533Y650274D02*
X491142D01*
X490624Y649920D02*
X491142D01*
X490649Y649566D02*
X491142D01*
X490610Y649211D02*
X491142D01*
X490501Y648857D02*
X491142D01*
X490311Y648503D02*
X491142D01*
X490004Y648148D02*
X491142D01*
X489450Y647794D02*
X491142D01*
X429954Y647440D02*
X491142D01*
X430070Y647085D02*
X491142D01*
X430117Y646731D02*
X491142D01*
X430099Y646377D02*
X491142D01*
X430014Y646022D02*
X491142D01*
X487320Y645668D02*
X491142D01*
X488002Y645314D02*
X491142D01*
X488432Y644959D02*
X491142D01*
X488741Y644605D02*
X491142D01*
X488971Y644251D02*
X491142D01*
X489141Y643896D02*
X491142D01*
X489260Y643542D02*
X491142D01*
X489335Y643188D02*
X491142D01*
X489368Y642833D02*
X491142D01*
X489361Y642479D02*
X491142D01*
X489314Y642125D02*
X491142D01*
X489225Y641770D02*
X491142D01*
X489089Y641416D02*
X491142D01*
X488900Y641062D02*
X491142D01*
X488646Y640707D02*
X491142D01*
X488302Y640353D02*
X491142D01*
X487812Y639999D02*
X491142D01*
X486915Y639644D02*
X491142D01*
X397835Y639290D02*
X491142D01*
X397835Y638936D02*
X491142D01*
X397835Y638581D02*
X491142D01*
X397835Y638227D02*
X491142D01*
X397835Y637873D02*
X491142D01*
X397835Y637518D02*
X491142D01*
X469951Y637164D02*
X491142D01*
X470742Y636810D02*
X491142D01*
X471274Y636455D02*
X491142D01*
X471680Y636101D02*
X491142D01*
X487512Y635747D02*
X491142D01*
X488112Y635392D02*
X491142D01*
X488509Y635038D02*
X491142D01*
X488798Y634684D02*
X491142D01*
X489014Y634329D02*
X491142D01*
X489171Y633975D02*
X491142D01*
X489280Y633621D02*
X491142D01*
X489346Y633266D02*
X491142D01*
X489370Y632912D02*
X491142D01*
X489354Y632558D02*
X491142D01*
X489298Y632203D02*
X491142D01*
X489199Y631849D02*
X491142D01*
X489052Y631495D02*
X491142D01*
X488850Y631140D02*
X491142D01*
X488579Y630786D02*
X491142D01*
X488209Y630432D02*
X491142D01*
X487669Y630077D02*
X491142D01*
X471755Y629723D02*
X491142D01*
X471370Y629369D02*
X491142D01*
X470871Y629014D02*
X491142D01*
X470160Y628660D02*
X491142D01*
X397835Y628306D02*
X491142D01*
X397835Y627951D02*
X491142D01*
X397835Y627597D02*
X491142D01*
X487883Y627243D02*
X491142D01*
X488592Y626888D02*
X491142D01*
X489089Y626534D02*
X491142D01*
X489474Y626180D02*
X491142D01*
X489783Y625825D02*
X491142D01*
X490035Y625471D02*
X491142D01*
X490239Y625117D02*
X491142D01*
X490404Y624762D02*
X491142D01*
X490534Y624408D02*
X491142D01*
X490631Y624054D02*
X491142D01*
X490699Y623699D02*
X491142D01*
X490737Y623345D02*
X491142D01*
X490748Y622991D02*
X491142D01*
X490731Y622636D02*
X491142D01*
X490686Y622282D02*
X491142D01*
X490611Y621928D02*
X491142D01*
X490507Y621573D02*
X491142D01*
X490369Y621219D02*
X491142D01*
X490196Y620865D02*
X491142D01*
X489981Y620510D02*
X491142D01*
X489718Y620156D02*
X491142D01*
X489394Y619802D02*
X491142D01*
X488987Y619448D02*
X491142D01*
X488454Y619093D02*
X491142D01*
X487660Y618739D02*
X491142D01*
X464351Y618385D02*
X491142D01*
X473500Y618030D02*
X491142D01*
X473969Y617676D02*
X491142D01*
X474257Y617322D02*
X491142D01*
X474443Y616967D02*
X491142D01*
X474554Y616613D02*
X491142D01*
X486926Y616259D02*
X491142D01*
X487817Y615904D02*
X491142D01*
X488305Y615550D02*
X491142D01*
X488648Y615196D02*
X491142D01*
X488902Y614841D02*
X491142D01*
X489090Y614487D02*
X491142D01*
X489225Y614133D02*
X491142D01*
X489314Y613778D02*
X491142D01*
X489361Y613424D02*
X491142D01*
X489368Y613070D02*
X491142D01*
X489334Y612715D02*
X491142D01*
X489259Y612361D02*
X491142D01*
X489140Y612007D02*
X491142D01*
X488970Y611652D02*
X491142D01*
X488739Y611298D02*
X491142D01*
X488429Y610944D02*
X491142D01*
X487999Y610589D02*
X491142D01*
X487313Y610235D02*
X491142D01*
X482251Y609881D02*
X491142D01*
X482151Y609526D02*
X491142D01*
X481971Y609172D02*
X491142D01*
X481680Y608818D02*
X491142D01*
X466617Y658778D02*
X490997D01*
X467029Y659133D02*
X490643D01*
X467277Y659487D02*
X490288D01*
X467429Y659841D02*
X489934D01*
X467505Y660196D02*
X489580D01*
X467516Y660550D02*
X489225D01*
X470235Y660904D02*
X488871D01*
X470710Y661259D02*
X488517D01*
X465949Y658424D02*
X488283D01*
X470964Y661613D02*
X488162D01*
X429754Y647794D02*
X487913D01*
X471104Y661967D02*
X487808D01*
X463158Y651337D02*
X487744D01*
X480616Y654881D02*
X487556D01*
X466734Y658070D02*
X487498D01*
X471160Y662322D02*
X487454D01*
X429431Y648148D02*
X487358D01*
X462794Y650983D02*
X487274D01*
X480399Y655235D02*
X487170D01*
X467097Y657715D02*
X487136D01*
X471139Y662676D02*
X487099D01*
X428825Y648503D02*
X487051D01*
X461999Y650629D02*
X486999D01*
X480047Y655589D02*
X486934D01*
X467320Y657361D02*
X486913D01*
X419835Y648857D02*
X486861D01*
X429627Y650274D02*
X486829D01*
X479322Y655944D02*
X486792D01*
X467452Y657007D02*
X486780D01*
X420064Y649211D02*
X486753D01*
X486643Y663030D02*
X486745D01*
X429216Y649920D02*
X486738D01*
X467510Y656298D02*
X486723D01*
X467514Y656652D02*
X486719D01*
X420202Y649566D02*
X486713D01*
X471039Y663030D02*
X485798D01*
X469198Y639644D02*
X485526D01*
X480928Y616259D02*
X485515D01*
X482283Y610235D02*
X485128D01*
X469604Y645668D02*
X485121D01*
X472003Y635747D02*
X484929D01*
X470842Y663385D02*
X484917D01*
X464267Y618739D02*
X484781D01*
X472065Y630077D02*
X484772D01*
X470096Y639999D02*
X484629D01*
X481366Y615904D02*
X484624D01*
X397835Y627243D02*
X484558D01*
X482252Y610589D02*
X484442D01*
X470286Y645314D02*
X484439D01*
X472266Y635392D02*
X484329D01*
X472316Y630432D02*
X484232D01*
X470586Y640353D02*
X484139D01*
X481627Y615550D02*
X484136D01*
X482152Y610944D02*
X484012D01*
X470715Y644959D02*
X484009D01*
X464107Y619093D02*
X483987D01*
X472481Y635038D02*
X483932D01*
X472521Y630786D02*
X483862D01*
X397835Y626888D02*
X483849D01*
X470929Y640707D02*
X483795D01*
X481787Y615196D02*
X483793D01*
X481973Y611298D02*
X483702D01*
X471025Y644605D02*
X483700D01*
X472654Y634684D02*
X483643D01*
X472686Y631140D02*
X483591D01*
X471184Y641062D02*
X483541D01*
X481871Y614841D02*
X483539D01*
X481682Y611652D02*
X483471D01*
X471255Y644251D02*
X483470D01*
X463846Y619448D02*
X483454D01*
X472791Y634329D02*
X483427D01*
X472816Y631495D02*
X483389D01*
X471373Y641416D02*
X483352D01*
X397835Y626534D02*
X483352D01*
X481888Y614487D02*
X483351D01*
X481176Y612007D02*
X483301D01*
X471424Y643896D02*
X483300D01*
X472896Y633975D02*
X483270D01*
X472914Y631849D02*
X483242D01*
X471508Y641770D02*
X483216D01*
X481841Y614133D02*
X483216D01*
X474606Y612361D02*
X483182D01*
X471543Y643542D02*
X483181D01*
X472970Y633621D02*
X483161D01*
X472982Y632203D02*
X483143D01*
X471597Y642125D02*
X483127D01*
X481725Y613778D02*
X483126D01*
X480589Y612715D02*
X483107D01*
X471618Y643188D02*
X483106D01*
X473014Y633266D02*
X483095D01*
X473020Y632558D02*
X483087D01*
X471645Y642479D02*
X483080D01*
X481524Y613424D02*
X483080D01*
X481199Y613070D02*
X483073D01*
X471651Y642833D02*
X483073D01*
X473031Y632912D02*
X483071D01*
X463408Y619802D02*
X483047D01*
X468596Y626180D02*
X482967D01*
X469789Y620156D02*
X482723D01*
X469958Y625825D02*
X482658D01*
X470392Y620510D02*
X482460D01*
X470496Y625471D02*
X482406D01*
X470790Y620865D02*
X482245D01*
X470864Y625117D02*
X482202D01*
X471080Y621219D02*
X482071D01*
X471135Y624762D02*
X482037D01*
X471296Y621573D02*
X481934D01*
X471337Y624408D02*
X481907D01*
X471454Y621928D02*
X481829D01*
X471483Y624054D02*
X481810D01*
X471563Y622282D02*
X481755D01*
X471582Y623699D02*
X481742D01*
X471629Y622636D02*
X481710D01*
X471638Y623345D02*
X481704D01*
X471653Y622991D02*
X481693D01*
X477239Y612007D02*
X479454D01*
X477046Y612715D02*
X479253D01*
X477745Y611652D02*
X478947D01*
X477385Y616259D02*
X478914D01*
X478036Y611298D02*
X478657D01*
X477656Y613070D02*
X478643D01*
X478215Y610944D02*
X478478D01*
X477823Y615904D02*
X478477D01*
X478315Y610589D02*
X478378D01*
X470464Y655944D02*
X478355D01*
X477981Y613424D02*
X478319D01*
X478084Y615550D02*
X478216D01*
X471076Y652400D02*
X477743D01*
X471189Y655589D02*
X477630D01*
X471475Y652755D02*
X477344D01*
X471541Y655235D02*
X477278D01*
X471717Y653109D02*
X477102D01*
X471758Y654881D02*
X477061D01*
X471864Y653463D02*
X476955D01*
X471887Y654526D02*
X476932D01*
X471937Y653818D02*
X476882D01*
X471944Y654172D02*
X476875D01*
X474606Y612715D02*
X475710D01*
X474606Y612007D02*
X475517D01*
X474603Y616259D02*
X475371D01*
X474606Y613070D02*
X475100D01*
X474606Y611652D02*
X475010D01*
X474606Y615904D02*
X474933D01*
X474606Y613424D02*
X474775D01*
X474606Y611298D02*
X474720D01*
X474606Y615550D02*
X474672D01*
X467441Y655944D02*
X469496D01*
X463576Y652400D02*
X468884D01*
X467298Y655589D02*
X468772D01*
X467462Y660904D02*
X468741D01*
X463573Y652755D02*
X468485D01*
X467063Y655235D02*
X468419D01*
X421351Y626180D02*
X468412D01*
X467338Y661259D02*
X468266D01*
X463504Y653109D02*
X468243D01*
X466676Y654881D02*
X468202D01*
X441264Y663385D02*
X468134D01*
X463363Y653463D02*
X468097D01*
X461687Y654526D02*
X468074D01*
X463128Y653818D02*
X468024D01*
X462743Y654172D02*
X468017D01*
X467127Y661613D02*
X468012D01*
X441579Y663030D02*
X467938D01*
X466785Y661967D02*
X467872D01*
X441774Y662676D02*
X467838D01*
X466107Y662322D02*
X467817D01*
X421954Y639644D02*
X467810D01*
X429854Y645668D02*
X467404D01*
X462948Y620156D02*
X467218D01*
X422707Y637164D02*
X467057D01*
X422714Y625825D02*
X467050D01*
X422852Y639999D02*
X466912D01*
X422916Y628660D02*
X466848D01*
X429592Y645314D02*
X466722D01*
X463632Y620510D02*
X466616D01*
X423252Y625471D02*
X466512D01*
X423342Y640353D02*
X466422D01*
X429152Y644959D02*
X466293D01*
X423498Y636810D02*
X466266D01*
X463975Y620865D02*
X466218D01*
X423620Y625117D02*
X466143D01*
X423627Y629014D02*
X466137D01*
X423685Y640707D02*
X466078D01*
X423781Y644605D02*
X465983D01*
X464187Y621219D02*
X465928D01*
X423891Y624762D02*
X465873D01*
X423940Y641062D02*
X465824D01*
X424011Y644251D02*
X465753D01*
X424030Y636455D02*
X465734D01*
X464312Y621573D02*
X465712D01*
X424093Y624408D02*
X465671D01*
X424126Y629369D02*
X465638D01*
X424128Y641416D02*
X465635D01*
X424180Y643896D02*
X465584D01*
X464366Y621928D02*
X465554D01*
X424239Y624054D02*
X465525D01*
X424264Y641770D02*
X465500D01*
X424299Y643542D02*
X465464D01*
X464356Y622282D02*
X465445D01*
X463472Y623699D02*
X465426D01*
X424353Y642125D02*
X465410D01*
X424374Y643188D02*
X465390D01*
X464280Y622636D02*
X465379D01*
X463882Y623345D02*
X465370D01*
X424401Y642479D02*
X465363D01*
X424407Y642833D02*
X465356D01*
X464129Y622991D02*
X465355D01*
X424436Y636101D02*
X465328D01*
X424511Y629723D02*
X465253D01*
X424759Y635747D02*
X465004D01*
X462170Y662322D02*
X464995D01*
X424820Y630077D02*
X464943D01*
X425022Y635392D02*
X464741D01*
X425072Y630432D02*
X464692D01*
X425237Y635038D02*
X464527D01*
X425277Y630786D02*
X464487D01*
X462739Y654881D02*
X464426D01*
X425410Y634684D02*
X464354D01*
X425442Y631140D02*
X464321D01*
X462848Y661967D02*
X464318D01*
X425547Y634329D02*
X464217D01*
X425572Y631495D02*
X464192D01*
X425652Y633975D02*
X464112D01*
X425670Y631849D02*
X464094D01*
X463126Y655235D02*
X464040D01*
X425725Y633621D02*
X464038D01*
X425737Y632203D02*
X464026D01*
X425770Y633266D02*
X463993D01*
X425776Y632558D02*
X463987D01*
X425787Y632912D02*
X463977D01*
X463190Y661613D02*
X463975D01*
X463361Y655589D02*
X463804D01*
X463401Y661259D02*
X463764D01*
X463504Y655944D02*
X463662D01*
X463525Y660904D02*
X463640D01*
X463573Y656298D02*
X463593D01*
X463579Y660550D02*
X463586D01*
X441919Y654526D02*
X461542D01*
X460125Y623699D02*
X461331D01*
X429876Y650629D02*
X461229D01*
X429830Y658424D02*
X461216D01*
X441886Y662322D02*
X461058D01*
X460535Y623345D02*
X460922D01*
X430000Y658778D02*
X460548D01*
X441851Y654881D02*
X460489D01*
X441923Y654172D02*
X460486D01*
X430027Y650983D02*
X460435D01*
X429554Y658070D02*
X460431D01*
X441928Y661967D02*
X460381D01*
X430093Y659133D02*
X460136D01*
X441709Y655235D02*
X460103D01*
X441861Y653818D02*
X460101D01*
X430104Y651337D02*
X460071D01*
X429082Y657715D02*
X460069D01*
X441907Y661613D02*
X460038D01*
X430118Y659487D02*
X459888D01*
X441474Y655589D02*
X459867D01*
X441728Y653463D02*
X459866D01*
X430115Y651692D02*
X459847D01*
X397835Y657361D02*
X459846D01*
X441818Y661259D02*
X459827D01*
X430079Y659841D02*
X459737D01*
X441089Y655944D02*
X459725D01*
X441504Y653109D02*
X459724D01*
X430061Y652046D02*
X459714D01*
X397835Y657007D02*
X459713D01*
X441653Y660904D02*
X459703D01*
X440929Y660196D02*
X459660D01*
X440033Y656298D02*
X459656D01*
X441140Y652755D02*
X459655D01*
X440346Y652400D02*
X459652D01*
X397835Y656652D02*
X459652D01*
X441384Y660550D02*
X459649D01*
X422545Y620156D02*
X458508D01*
X397835Y619802D02*
X458048D01*
X424338Y623699D02*
X457985D01*
X423148Y620510D02*
X457825D01*
X397835Y619448D02*
X457611D01*
X424394Y623345D02*
X457575D01*
X423546Y620865D02*
X457481D01*
X397835Y619093D02*
X457350D01*
X424409Y622991D02*
X457327D01*
X423836Y621219D02*
X457269D01*
X397835Y618739D02*
X457190D01*
X424385Y622636D02*
X457177D01*
X424052Y621573D02*
X457144D01*
X397835Y618385D02*
X457106D01*
X424319Y622282D02*
X457101D01*
X424210Y621928D02*
X457090D01*
X397835Y618030D02*
X449728D01*
X397835Y617676D02*
X449259D01*
X397835Y617322D02*
X448972D01*
X397835Y616967D02*
X448786D01*
X397835Y616613D02*
X448674D01*
X404249Y616259D02*
X448625D01*
X405139Y615904D02*
X448622D01*
X405628Y615550D02*
X448622D01*
X405971Y615196D02*
X448622D01*
X406225Y614841D02*
X448622D01*
X406413Y614487D02*
X448622D01*
X406548Y614133D02*
X448622D01*
X406637Y613778D02*
X448622D01*
X406684Y613424D02*
X448622D01*
X406691Y613070D02*
X448622D01*
X406657Y612715D02*
X448622D01*
X406582Y612361D02*
X448622D01*
X406463Y612007D02*
X448611D01*
X406293Y611652D02*
X448534D01*
X406062Y611298D02*
X448372D01*
X405752Y610944D02*
X448095D01*
X405321Y610589D02*
X447578D01*
X397835Y656298D02*
X439888D01*
X429937Y652400D02*
X439575D01*
X435516Y660196D02*
X438992D01*
X407964Y655944D02*
X438832D01*
X429725Y652755D02*
X438781D01*
X435851Y663385D02*
X438657D01*
X435971Y660550D02*
X438537D01*
X408689Y655589D02*
X438447D01*
X429383Y653109D02*
X438417D01*
X436166Y663030D02*
X438342D01*
X436240Y660904D02*
X438268D01*
X424235Y655235D02*
X438212D01*
X428705Y653463D02*
X438194D01*
X436360Y662676D02*
X438147D01*
X436405Y661259D02*
X438103D01*
X424673Y654881D02*
X438070D01*
X425178Y653818D02*
X438060D01*
X436472Y662322D02*
X438036D01*
X436493Y661613D02*
X438015D01*
X424934Y654526D02*
X438002D01*
X425094Y654172D02*
X437999D01*
X436515Y661967D02*
X437993D01*
X429971Y660196D02*
X433579D01*
X428328Y663385D02*
X433244D01*
X429781Y660550D02*
X433124D01*
X428127Y663030D02*
X432929D01*
X429475Y660904D02*
X432855D01*
X427827Y662676D02*
X432734D01*
X428924Y661259D02*
X432689D01*
X427357Y662322D02*
X432622D01*
X402252Y661613D02*
X432601D01*
X402171Y661967D02*
X432580D01*
X425195Y653463D02*
X427594D01*
X419460Y648503D02*
X427474D01*
X402256Y661259D02*
X427375D01*
X397835Y657715D02*
X427217D01*
X423471Y644959D02*
X427147D01*
X420268Y649920D02*
X427084D01*
X425148Y653109D02*
X426916D01*
X418576Y648148D02*
X426869D01*
X402183Y660904D02*
X426824D01*
X397835Y658070D02*
X426745D01*
X423042Y645314D02*
X426707D01*
X420268Y650274D02*
X426672D01*
X425032Y652755D02*
X426574D01*
X397835Y647794D02*
X426545D01*
X402021Y660550D02*
X426518D01*
X397835Y658424D02*
X426469D01*
X422359Y645668D02*
X426446D01*
X420203Y650629D02*
X426423D01*
X424831Y652400D02*
X426363D01*
X415723Y647440D02*
X426345D01*
X401734Y660196D02*
X426328D01*
X397841Y658778D02*
X426299D01*
X416799Y646022D02*
X426285D01*
X420066Y650983D02*
X426272D01*
X424506Y652046D02*
X426238D01*
X416230Y647085D02*
X426229D01*
X401152Y659841D02*
X426221D01*
X397906Y659133D02*
X426207D01*
X416699Y646377D02*
X426201D01*
X419837Y651337D02*
X426195D01*
X423896Y651692D02*
X426185D01*
X416520Y646731D02*
X426183D01*
X398054Y659487D02*
X426181D01*
X401998Y662322D02*
X425005D01*
X401693Y662676D02*
X424535D01*
X401498Y663030D02*
X424236D01*
X401852Y663385D02*
X424034D01*
X404291Y665156D02*
X423954D01*
X402206Y663739D02*
X423905D01*
X403294Y664802D02*
X423859D01*
X402561Y664093D02*
X423835D01*
X402915Y664448D02*
X423820D01*
X419463Y651692D02*
X422560D01*
X416853Y655235D02*
X422222D01*
X418594Y652046D02*
X421950D01*
X417291Y654881D02*
X421784D01*
X417449Y652400D02*
X421626D01*
X417552Y654526D02*
X421523D01*
X417650Y652755D02*
X421425D01*
X417712Y654172D02*
X421363D01*
X417766Y653109D02*
X421308D01*
X417796Y653818D02*
X421279D01*
X417813Y653463D02*
X421261D01*
X403635Y626180D02*
X421168D01*
X404237Y639644D02*
X420566D01*
X416831Y645668D02*
X420160D01*
X404829Y620156D02*
X419974D01*
X404991Y637164D02*
X419813D01*
X404997Y625825D02*
X419806D01*
X405135Y639999D02*
X419668D01*
X405199Y628660D02*
X419604D01*
X416798Y645314D02*
X419478D01*
X405431Y620510D02*
X419372D01*
X405535Y625471D02*
X419268D01*
X405625Y640353D02*
X419178D01*
X416698Y644959D02*
X419048D01*
X405781Y636810D02*
X419022D01*
X405829Y620865D02*
X418974D01*
X405904Y625117D02*
X418899D01*
X405910Y629014D02*
X418893D01*
X405969Y640707D02*
X418834D01*
X416518Y644605D02*
X418739D01*
X406119Y621219D02*
X418684D01*
X406175Y624762D02*
X418629D01*
X406223Y641062D02*
X418580D01*
X416227Y644251D02*
X418509D01*
X406313Y636455D02*
X418490D01*
X406335Y621573D02*
X418468D01*
X406376Y624408D02*
X418427D01*
X406409Y629369D02*
X418394D01*
X406412Y641416D02*
X418391D01*
X415718Y643896D02*
X418340D01*
X406493Y621928D02*
X418310D01*
X406522Y624054D02*
X418281D01*
X406547Y641770D02*
X418256D01*
X406583Y643542D02*
X418220D01*
X406602Y622282D02*
X418201D01*
X406621Y623699D02*
X418182D01*
X406637Y642125D02*
X418166D01*
X406657Y643188D02*
X418146D01*
X406668Y622636D02*
X418135D01*
X406677Y623345D02*
X418126D01*
X406684Y642479D02*
X418119D01*
X406691Y642833D02*
X418112D01*
X406693Y622991D02*
X418110D01*
X406719Y636101D02*
X418084D01*
X412178Y648148D02*
X418039D01*
X417124Y652046D02*
X418020D01*
X406795Y629723D02*
X418009D01*
X407043Y635747D02*
X417760D01*
X407104Y630077D02*
X417699D01*
X407306Y635392D02*
X417497D01*
X407356Y630432D02*
X417447D01*
X407520Y635038D02*
X417283D01*
X407561Y630786D02*
X417242D01*
X413062Y648503D02*
X417154D01*
X416514Y651692D02*
X417151D01*
X407693Y634684D02*
X417110D01*
X407726Y631140D02*
X417077D01*
X407831Y634329D02*
X416973D01*
X407856Y631495D02*
X416947D01*
X407935Y633975D02*
X416868D01*
X407953Y631849D02*
X416850D01*
X408009Y633621D02*
X416794D01*
X408021Y632203D02*
X416782D01*
X413437Y648857D02*
X416779D01*
X413439Y651337D02*
X416777D01*
X408054Y633266D02*
X416749D01*
X408060Y632558D02*
X416743D01*
X408071Y632912D02*
X416732D01*
X413667Y649211D02*
X416550D01*
X413668Y650983D02*
X416548D01*
X413804Y649566D02*
X416412D01*
X413805Y650629D02*
X416411D01*
X413870Y649920D02*
X416347D01*
X413870Y650274D02*
X416346D01*
X413066Y651692D02*
X415178D01*
X409041Y655235D02*
X414840D01*
X412196Y652046D02*
X414569D01*
X409258Y654881D02*
X414402D01*
X408576Y652400D02*
X414244D01*
X409387Y654526D02*
X414141D01*
X408975Y652755D02*
X414043D01*
X410304Y643896D02*
X414007D01*
X410310Y647440D02*
X414001D01*
X409444Y654172D02*
X413981D01*
X409217Y653109D02*
X413926D01*
X409437Y653818D02*
X413897D01*
X409364Y653463D02*
X413880D01*
X410814Y644251D02*
X413497D01*
X410816Y647085D02*
X413495D01*
X411105Y644605D02*
X413206D01*
X411107Y646731D02*
X413205D01*
X411285Y644959D02*
X413026D01*
X411286Y646377D02*
X413025D01*
X411385Y645314D02*
X412926D01*
X411385Y646022D02*
X412926D01*
X411417Y645668D02*
X412894D01*
X403320Y648148D02*
X411641D01*
X403338Y652046D02*
X411623D01*
X404204Y648503D02*
X410757D01*
X404207Y651692D02*
X410753D01*
X404579Y648857D02*
X410382D01*
X404581Y651337D02*
X410380D01*
X404808Y649211D02*
X410152D01*
X404810Y650983D02*
X410151D01*
X404946Y649566D02*
X410014D01*
X404947Y650629D02*
X410014D01*
X405012Y649920D02*
X409949D01*
X405012Y650274D02*
X409949D01*
X406464Y643896D02*
X408593D01*
X397835Y647440D02*
X408588D01*
X406294Y644251D02*
X408084D01*
X397835Y647085D02*
X408081D01*
X406064Y644605D02*
X407793D01*
X397835Y646731D02*
X407791D01*
X405755Y644959D02*
X407613D01*
X397835Y646377D02*
X407612D01*
X405325Y645314D02*
X407513D01*
X397835Y646022D02*
X407512D01*
X404643Y645668D02*
X407480D01*
X397835Y655944D02*
X406996D01*
X397835Y652400D02*
X406384D01*
X397835Y655589D02*
X406272D01*
X397835Y652755D02*
X405985D01*
X397835Y655235D02*
X405919D01*
X397835Y653109D02*
X405743D01*
X397835Y654881D02*
X405702D01*
X397835Y653463D02*
X405597D01*
X397835Y654526D02*
X405574D01*
X397835Y653818D02*
X405524D01*
X397835Y654172D02*
X405517D01*
X397835Y626180D02*
X403452D01*
X397835Y639644D02*
X402849D01*
X397835Y616259D02*
X402838D01*
X397835Y648148D02*
X402783D01*
X397835Y652046D02*
X402764D01*
X397835Y645668D02*
X402444D01*
X397835Y620156D02*
X402258D01*
X397835Y637164D02*
X402096D01*
X397835Y625825D02*
X402089D01*
X397835Y639999D02*
X401952D01*
X397835Y615904D02*
X401947D01*
X397835Y648503D02*
X401899D01*
X397835Y651692D02*
X401895D01*
X397835Y628660D02*
X401887D01*
X398879Y610589D02*
X401765D01*
X397835Y645314D02*
X401761D01*
X397835Y620510D02*
X401655D01*
X397835Y625471D02*
X401551D01*
X397835Y648857D02*
X401523D01*
X397835Y651337D02*
X401521D01*
X397835Y640353D02*
X401461D01*
X397835Y615550D02*
X401459D01*
X398362Y610944D02*
X401335D01*
X397835Y644959D02*
X401332D01*
X397835Y636810D02*
X401305D01*
X397835Y649211D02*
X401294D01*
X397835Y650983D02*
X401293D01*
X397835Y620865D02*
X401257D01*
X397835Y625117D02*
X401183D01*
X397835Y629014D02*
X401176D01*
X397835Y649566D02*
X401156D01*
X397835Y650629D02*
X401155D01*
X397835Y640707D02*
X401118D01*
X397835Y615196D02*
X401116D01*
X397835Y649920D02*
X401091D01*
X397835Y650274D02*
X401091D01*
X398084Y611298D02*
X401025D01*
X397835Y644605D02*
X401023D01*
X397835Y621219D02*
X400967D01*
X397835Y624762D02*
X400912D01*
X397835Y641062D02*
X400863D01*
X397835Y614841D02*
X400862D01*
X397923Y611652D02*
X400794D01*
X397835Y644251D02*
X400793D01*
X397835Y636455D02*
X400773D01*
X397835Y621573D02*
X400751D01*
X397835Y624408D02*
X400710D01*
X397835Y629369D02*
X400678D01*
X397835Y641416D02*
X400675D01*
X397835Y614487D02*
X400674D01*
X397846Y612007D02*
X400624D01*
X397835Y643896D02*
X400623D01*
X397835Y621928D02*
X400593D01*
X397835Y624054D02*
X400564D01*
X397835Y641770D02*
X400539D01*
X397835Y614133D02*
X400538D01*
X397835Y612361D02*
X400504D01*
X397835Y643542D02*
X400504D01*
X397835Y622282D02*
X400484D01*
X397835Y623699D02*
X400465D01*
X397835Y642125D02*
X400450D01*
X397835Y613778D02*
X400449D01*
X397835Y612715D02*
X400430D01*
X397835Y643188D02*
X400429D01*
X397835Y622636D02*
X400419D01*
X397835Y623345D02*
X400409D01*
X397835Y642479D02*
X400403D01*
X397835Y613424D02*
X400402D01*
X397835Y613070D02*
X400396D01*
X397835Y642833D02*
X400396D01*
X397835Y622991D02*
X400394D01*
X397835Y636101D02*
X400368D01*
X397835Y629723D02*
X400292D01*
X397835Y635747D02*
X400044D01*
X398310Y659841D02*
X400029D01*
X397835Y630077D02*
X399983D01*
X397835Y635392D02*
X399781D01*
X397835Y630432D02*
X399731D01*
X397835Y635038D02*
X399566D01*
X397835Y630786D02*
X399526D01*
X398663Y660196D02*
X399447D01*
X397835Y634684D02*
X399393D01*
X397835Y631140D02*
X399361D01*
X397835Y634329D02*
X399256D01*
X397835Y631495D02*
X399231D01*
X399017Y660550D02*
X399160D01*
X397835Y633975D02*
X399152D01*
X397835Y631849D02*
X399133D01*
X397835Y633621D02*
X399078D01*
X397835Y632203D02*
X399066D01*
X397835Y633266D02*
X399033D01*
X397835Y632558D02*
X399027D01*
X397835Y632912D02*
X399016D01*
X401575Y393701D02*
X488189D01*
X496063Y401575*
Y661417*
X488189Y669291*
X401575*
X393701Y661417*
Y401575*
X401575Y393701*
G54D26*
X492678Y604883D02*
G03X493110Y605926I-1044J1043D01*
G01Y658837*
X490157Y602362D02*
X492678Y604883D01*
X427777Y665354D02*
G03X426733Y664922I-0J-1476D01*
G01X427777Y665354D02*
X486220D01*
X426181Y664370D02*
X426733Y664922D01*
X487637D02*
G03X486593Y665354I-1044J-1044D01*
G01X487637Y664922D02*
X492678Y659881D01*
X486220Y665354D02*
X486593D01*
X493110Y658837D02*
G03X492678Y659881I-1476J0D01*
G54D27*
G01X439567Y604331D03*
X442913D03*
X446260D03*
X462205Y612402D03*
X458858D03*
X465551D03*
G54D54*
X403543Y632874D03*
X486220Y623031D03*
X421260Y632874D03*
X468504D03*
G54D65*
X451392Y415614D02*
G03X451969Y417006I-1392J1392D01*
G01X449951Y414173D02*
X451392Y415614D01*
X449002Y438794D02*
G03X447610Y439370I-1392J-1392D01*
G01X433071D02*
X447610D01*
X449002Y438794D02*
X451392Y436403D01*
X451969Y435011D02*
G03X451392Y436403I-1969J0D01*
G01X451969Y435011D02*
Y417006D01*
X398622Y419587D02*
Y422736D01*
X401772D02*
X400394D01*
X398622Y458465D02*
Y459843D01*
X402756Y462598D02*
X401378D01*
X398622Y466732D02*
Y465354D01*
Y491929D02*
Y493307D01*
X402756Y496063D02*
X401378D01*
X398622Y500197D02*
Y498819D01*
X468504Y637402D02*
Y636024D01*
X463976Y632874D02*
X465354D01*
X468504Y628346D02*
Y629724D01*
X473031Y632874D02*
X471654D01*
X486220Y627559D02*
Y626181D01*
X481693Y623031D02*
X483071D01*
X486220Y618504D02*
Y619882D01*
X490748Y623031D02*
X489370D01*
X421260Y628346D02*
Y629724D01*
X425787Y632874D02*
X424409D01*
X421260Y637402D02*
Y636024D01*
X416732Y632874D02*
X418110D01*
X403543Y628346D02*
Y629724D01*
X408071Y632874D02*
X406693D01*
X403543Y637402D02*
Y636024D01*
X399016Y632874D02*
X400394D01*
G54D67*
X462008Y513780D02*
X488583D01*
X462008D02*
G03X457677Y509449I-0J-4331D01*
G01X490551Y513780D02*
X488583D01*
X490551Y515748*
Y532480D02*
Y515748D01*
Y513780*
Y512795D02*
Y513780D01*
Y532480D02*
Y552165D01*
Y577756D02*
Y575787D01*
Y552165*
X484252Y583106D02*
G03X484973Y581366I2461J-0D01*
G01X488583Y577756*
X484252Y587598D02*
Y583106D01*
X490551Y577756D02*
X488583D01*
X490551Y575787*
X449951Y414173D03*
X433071Y439370D03*
X436220Y495276D03*
X446850Y472047D03*
X451772D03*
X434252Y536811D03*
X422244Y525591D03*
Y523425D03*
X431496Y525197D03*
X457677Y509449D03*
X449803Y530118D03*
X479331Y519488D03*
X490551Y512795D03*
Y532480D03*
X407480Y573622D03*
X422441Y549409D03*
X424803D03*
X432677Y555512D03*
X422441Y547244D03*
X414173Y558071D03*
X440354Y576772D03*
X424606Y547244D03*
X477756Y561024D03*
X460236Y537402D03*
X475591Y561024D03*
X473425D03*
X479921D03*
X490551Y552165D03*
X402953Y594488D03*
X444882Y584646D03*
X408071Y594488D03*
X427756Y595472D03*
X484252Y587598D03*
X490157Y602362D03*
X490551Y577756D03*
X444882Y656693D03*
X448031D03*
X426181Y664370D03*
X444882Y659449D03*
X486220Y665354D03*
X448031Y659449D03*
G54D139*
X398622Y462598D03*
Y496063D03*
G54D171*
Y422736D03*
G74*
X0Y0D02*
M02*
