*
*
G04 PADS Layout (Build Number 2005.266.2) generated Gerber (RS-274-X) file*
G04 PC Version=2.1*
*
%IN "COMMXEL_REVD_SMD(181102"*%
*
%MOIN*%
*
%FSLAX35Y35*%
*
*
*
*
G04 PC Standard Apertures*
*
*
G04 Thermal Relief Aperture macro.*
%AMTER*
1,1,$1,0,0*
1,0,$1-$2,0,0*
21,0,$3,$4,0,0,45*
21,0,$3,$4,0,0,135*
%
*
*
G04 Annular Aperture macro.*
%AMANN*
1,1,$1,0,0*
1,0,$2,0,0*
%
*
*
G04 Odd Aperture macro.*
%AMODD*
1,1,$1,0,0*
1,0,$1-0.005,0,0*
%
*
*
G04 PC Custom Aperture Macros*
*
*
*
*
*
*
G04 PC Aperture Table*
*
%ADD010C,0.00394*%
%ADD011C,0.005*%
%ADD015C,0.00787*%
%ADD017C,0.02362*%
%ADD019R,0.02756X0.02756*%
%ADD023R,0.01969X0.01969*%
%ADD026C,0.01181*%
%ADD027C,0.0315*%
%ADD029C,0.00984*%
%ADD033R,0.06299X0.06299*%
%ADD036C,0.03937*%
%ADD038R,0.03937X0.03937*%
%ADD041C,0.05906*%
%ADD054C,0.06299*%
%ADD064C,0.02756*%
%ADD065C,0.01575*%
%ADD066C,0.00591*%
%ADD067C,0.01969*%
%ADD070C,0.03543*%
%ADD131R,0.02362X0.02362*%
%ADD139C,0.05512*%
%ADD141R,0.05512X0.05512*%
%ADD146R,0.01181X0.01181*%
%ADD161R,0.04331X0.04331*%
%ADD170R,0.0315X0.0315*%
%ADD171R,0.03543X0.03543*%
%ADD182R,0.01575X0.01575*%
%ADD196C,0.01181*%
%ADD239C,0.04921*%
%ADD240C,0.04823*%
%ADD257C,0.12795*%
%ADD258C,0.02461*%
*
*
*
*
G04 PC Custom Flashes*
G04 Layer Name COMMXEL_REVD_SMD(181102 - flashes*
%LPD*%
*
*
G04 PC Circuitry*
G04 Layer Name COMMXEL_REVD_SMD(181102 - circuitry*
%LPD*%
*
G54D10*
G01X438583Y630118D02*
G75*
G03X437992Y629528I-0J-590D01*
G01X438583Y630118D02*
X448031D01*
X448622Y629528D02*
G03X448031Y630118I-591J-0D01*
G01X448622Y629528D02*
Y612008D01*
G03X449606Y611024I984J-0*
G01X449803*
X450394Y610433D02*
G03X449803Y611024I-591J0D01*
G01X450394Y610433D02*
Y609055D01*
X449803Y608465D02*
G03X450394Y609055I0J590D01*
G01X449803Y608465D02*
X448622D01*
G03X447638Y607480I0J-985*
G01Y603150*
X447047Y602559D02*
G03X447638Y603150I0J591D01*
G01X447047Y602559D02*
X438583D01*
X437992Y603150D02*
G03X438583Y602559I591J-0D01*
G01X437992Y603150D02*
Y629528D01*
X487205Y619291D02*
G03X488976Y621063I-0J1772D01*
G01X487205Y619291D02*
X483099D01*
X481846Y619810D02*
G03X483099Y619291I1253J1253D01*
G01X481846Y619810D02*
X473157Y628500D01*
G03X471626Y629134I-1531J-1531*
G01X466535*
X464764Y630906D02*
G03X466535Y629134I1771J-0D01*
G01X464764Y630906D02*
Y634843D01*
X466535Y636614D02*
G03X464764Y634843I0J-1771D01*
G01X466535Y636614D02*
X469503D01*
X477740Y633202D02*
G03X469503Y636614I-8237J-8236D01*
G01X477740Y633202D02*
X483536Y627406D01*
G03X485067Y626772I1531J1531*
G01X487205*
X488976Y625000D02*
G03X487205Y626772I-1771J0D01*
G01X488976Y625000D02*
Y621063D01*
X457480Y618110D02*
G03X459252Y616339I1772J0D01*
G01X457480Y618110D02*
Y628543D01*
X462402*
X463386Y627559D02*
G03X462402Y628543I-984J0D01*
G01X463386Y627559D02*
Y627165D01*
G03X464764Y625787I1378J0*
G01X470641*
X471894Y625268D02*
G03X470641Y625787I-1253J-1252D01*
G01X471894Y625268D02*
X480583Y616579D01*
G03X482115Y615945I1532J1531*
G01X492126*
X493898Y614173D02*
G03X492126Y615945I-1772J0D01*
G01X493898Y614173D02*
Y610236D01*
X492126Y608465D02*
G03X493898Y610236I-0J1771D01*
G01X492126Y608465D02*
X476378D01*
X474606Y610236D02*
G03X476378Y608465I1772J0D01*
G01X474606Y610236D02*
Y614173D01*
G03X472441Y616339I-2165J0*
G01X459252*
X428346Y626772D02*
G03X427362Y625787I0J-985D01*
G01Y602559*
G03X428346Y601575I984J0*
G01X433465*
G03X434449Y602559I-0J984*
G01Y621361*
G03X434161Y622057I-984J0*
G01X432293Y623924*
X431890Y624899D02*
G03X432293Y623924I1378J-0D01*
G01X431890Y624899D02*
Y625787D01*
G03X430906Y626772I-984J0*
G01X428346*
X395866Y429331D02*
X402559D01*
Y426181*
X395866*
Y429331*
Y456299D02*
X404921D01*
Y451181*
X395866*
Y456299*
X437992Y610353D02*
X450394D01*
X437992Y609999D02*
X450394D01*
X437992Y609644D02*
X450394D01*
X437992Y609290D02*
X450394D01*
X437992Y608936D02*
X450381D01*
X437992Y610707D02*
X450326D01*
X437992Y608581D02*
X450156D01*
X437992Y611062D02*
X449335D01*
X437992Y611416D02*
X448820D01*
X437992Y611770D02*
X448651D01*
X437992Y629487D02*
X448622D01*
X437992Y629133D02*
X448622D01*
X437992Y628778D02*
X448622D01*
X437992Y628424D02*
X448622D01*
X437992Y628070D02*
X448622D01*
X437992Y627715D02*
X448622D01*
X437992Y627361D02*
X448622D01*
X437992Y627007D02*
X448622D01*
X437992Y626652D02*
X448622D01*
X437992Y626298D02*
X448622D01*
X437992Y625944D02*
X448622D01*
X437992Y625589D02*
X448622D01*
X437992Y625235D02*
X448622D01*
X437992Y624881D02*
X448622D01*
X437992Y624526D02*
X448622D01*
X437992Y624172D02*
X448622D01*
X437992Y623818D02*
X448622D01*
X437992Y623463D02*
X448622D01*
X437992Y623109D02*
X448622D01*
X437992Y622755D02*
X448622D01*
X437992Y622400D02*
X448622D01*
X437992Y622046D02*
X448622D01*
X437992Y621692D02*
X448622D01*
X437992Y621337D02*
X448622D01*
X437992Y620983D02*
X448622D01*
X437992Y620629D02*
X448622D01*
X437992Y620274D02*
X448622D01*
X437992Y619920D02*
X448622D01*
X437992Y619566D02*
X448622D01*
X437992Y619211D02*
X448622D01*
X437992Y618857D02*
X448622D01*
X437992Y618503D02*
X448622D01*
X437992Y618148D02*
X448622D01*
X437992Y617794D02*
X448622D01*
X437992Y617440D02*
X448622D01*
X437992Y617085D02*
X448622D01*
X437992Y616731D02*
X448622D01*
X437992Y616377D02*
X448622D01*
X437992Y616022D02*
X448622D01*
X437992Y615668D02*
X448622D01*
X437992Y615314D02*
X448622D01*
X437992Y614959D02*
X448622D01*
X437992Y614605D02*
X448622D01*
X437992Y614251D02*
X448622D01*
X437992Y613896D02*
X448622D01*
X437992Y613542D02*
X448622D01*
X437992Y613188D02*
X448622D01*
X437992Y612833D02*
X448622D01*
X437992Y612479D02*
X448622D01*
X437992Y612125D02*
X448622D01*
X438082Y629841D02*
X448532D01*
X437992Y608227D02*
X447981D01*
X437992Y607873D02*
X447719D01*
X437992Y607518D02*
X447639D01*
X437992Y607164D02*
X447638D01*
X437992Y606810D02*
X447638D01*
X437992Y606455D02*
X447638D01*
X437992Y606101D02*
X447638D01*
X437992Y605747D02*
X447638D01*
X437992Y605392D02*
X447638D01*
X437992Y605038D02*
X447638D01*
X437992Y604684D02*
X447638D01*
X437992Y604329D02*
X447638D01*
X437992Y603975D02*
X447638D01*
X437992Y603621D02*
X447638D01*
X437992Y603266D02*
X447638D01*
X438042Y602912D02*
X447588D01*
X476697Y624959D02*
X488976D01*
X477051Y624605D02*
X488976D01*
X477406Y624251D02*
X488976D01*
X477760Y623896D02*
X488976D01*
X478114Y623542D02*
X488976D01*
X478469Y623188D02*
X488976D01*
X478823Y622833D02*
X488976D01*
X479177Y622479D02*
X488976D01*
X479532Y622125D02*
X488976D01*
X479886Y621770D02*
X488976D01*
X480240Y621416D02*
X488976D01*
X480595Y621062D02*
X488976D01*
X476343Y625314D02*
X488948D01*
X480949Y620707D02*
X488940D01*
X475988Y625668D02*
X488846D01*
X481303Y620353D02*
X488828D01*
X475634Y626022D02*
X488652D01*
X481658Y619999D02*
X488621D01*
X475280Y626377D02*
X488320D01*
X482038Y619644D02*
X488266D01*
X474925Y626731D02*
X487582D01*
X474571Y627085D02*
X483945D01*
X474217Y627440D02*
X483502D01*
X473862Y627794D02*
X483148D01*
X473508Y628148D02*
X482794D01*
X473154Y628503D02*
X482439D01*
X472685Y628857D02*
X482085D01*
X466017Y629211D02*
X481731D01*
X465376Y629566D02*
X481376D01*
X465063Y629920D02*
X481022D01*
X464880Y630274D02*
X480668D01*
X464786Y630629D02*
X480313D01*
X464764Y630983D02*
X479959D01*
X464764Y631337D02*
X479605D01*
X464764Y631692D02*
X479250D01*
X464764Y632046D02*
X478896D01*
X464764Y632400D02*
X478542D01*
X464764Y632755D02*
X478187D01*
X464764Y633109D02*
X477833D01*
X464764Y633463D02*
X477470D01*
X464764Y633818D02*
X477075D01*
X464764Y634172D02*
X476640D01*
X464764Y634526D02*
X476158D01*
X464764Y634881D02*
X475617D01*
X464808Y635235D02*
X475001D01*
X464929Y635589D02*
X474281D01*
X465147Y635944D02*
X473398D01*
X465525Y636298D02*
X472199D01*
X474606Y614133D02*
X493898D01*
X474606Y613778D02*
X493898D01*
X474606Y613424D02*
X493898D01*
X474606Y613070D02*
X493898D01*
X474606Y612715D02*
X493898D01*
X474606Y612361D02*
X493898D01*
X474606Y612007D02*
X493898D01*
X474606Y611652D02*
X493898D01*
X474606Y611298D02*
X493898D01*
X474606Y610944D02*
X493898D01*
X474606Y610589D02*
X493898D01*
X474606Y610235D02*
X493898D01*
X474583Y614487D02*
X493870D01*
X474642Y609881D02*
X493862D01*
X474501Y614841D02*
X493767D01*
X474755Y609526D02*
X493749D01*
X474350Y615196D02*
X493573D01*
X474962Y609172D02*
X493542D01*
X474112Y615550D02*
X493241D01*
X475317Y608818D02*
X493187D01*
X473742Y615904D02*
X492503D01*
X473024Y616259D02*
X480992D01*
X458305Y616613D02*
X480550D01*
X457898Y616967D02*
X480195D01*
X457666Y617322D02*
X479841D01*
X457534Y617676D02*
X479487D01*
X457482Y618030D02*
X479132D01*
X457480Y618385D02*
X478778D01*
X457480Y618739D02*
X478424D01*
X457480Y619093D02*
X478069D01*
X457480Y619448D02*
X477715D01*
X457480Y619802D02*
X477361D01*
X457480Y620156D02*
X477006D01*
X457480Y620510D02*
X476652D01*
X457480Y620865D02*
X476298D01*
X457480Y621219D02*
X475943D01*
X457480Y621573D02*
X475589D01*
X457480Y621928D02*
X475235D01*
X457480Y622282D02*
X474880D01*
X457480Y622636D02*
X474526D01*
X457480Y622991D02*
X474172D01*
X457480Y623345D02*
X473817D01*
X457480Y623699D02*
X473463D01*
X457480Y624054D02*
X473109D01*
X457480Y624408D02*
X472754D01*
X457480Y624762D02*
X472400D01*
X457480Y625117D02*
X472046D01*
X457480Y625471D02*
X471652D01*
X457480Y625825D02*
X464442D01*
X457480Y626180D02*
X463801D01*
X457480Y626534D02*
X463539D01*
X457480Y626888D02*
X463414D01*
X457480Y627243D02*
X463386D01*
X457480Y627597D02*
X463385D01*
X457480Y627951D02*
X463304D01*
X457480Y628306D02*
X463043D01*
X427362Y621062D02*
X434449D01*
X427362Y620707D02*
X434449D01*
X427362Y620353D02*
X434449D01*
X427362Y619999D02*
X434449D01*
X427362Y619644D02*
X434449D01*
X427362Y619290D02*
X434449D01*
X427362Y618936D02*
X434449D01*
X427362Y618581D02*
X434449D01*
X427362Y618227D02*
X434449D01*
X427362Y617873D02*
X434449D01*
X427362Y617518D02*
X434449D01*
X427362Y617164D02*
X434449D01*
X427362Y616810D02*
X434449D01*
X427362Y616455D02*
X434449D01*
X427362Y616101D02*
X434449D01*
X427362Y615747D02*
X434449D01*
X427362Y615392D02*
X434449D01*
X427362Y615038D02*
X434449D01*
X427362Y614684D02*
X434449D01*
X427362Y614329D02*
X434449D01*
X427362Y613975D02*
X434449D01*
X427362Y613621D02*
X434449D01*
X427362Y613266D02*
X434449D01*
X427362Y612912D02*
X434449D01*
X427362Y612558D02*
X434449D01*
X427362Y612203D02*
X434449D01*
X427362Y611849D02*
X434449D01*
X427362Y611495D02*
X434449D01*
X427362Y611140D02*
X434449D01*
X427362Y610786D02*
X434449D01*
X427362Y610432D02*
X434449D01*
X427362Y610077D02*
X434449D01*
X427362Y609723D02*
X434449D01*
X427362Y609369D02*
X434449D01*
X427362Y609014D02*
X434449D01*
X427362Y608660D02*
X434449D01*
X427362Y608306D02*
X434449D01*
X427362Y607951D02*
X434449D01*
X427362Y607597D02*
X434449D01*
X427362Y607243D02*
X434449D01*
X427362Y606888D02*
X434449D01*
X427362Y606534D02*
X434449D01*
X427362Y606180D02*
X434449D01*
X427362Y605825D02*
X434449D01*
X427362Y605471D02*
X434449D01*
X427362Y605117D02*
X434449D01*
X427362Y604762D02*
X434449D01*
X427362Y604408D02*
X434449D01*
X427362Y604054D02*
X434449D01*
X427362Y603699D02*
X434449D01*
X427362Y603345D02*
X434449D01*
X427362Y602991D02*
X434449D01*
X427362Y602636D02*
X434449D01*
X427362Y621416D02*
X434447D01*
X427402Y602282D02*
X434409D01*
X427362Y621770D02*
X434360D01*
X427591Y601928D02*
X434220D01*
X427362Y622125D02*
X434093D01*
X427362Y622479D02*
X433739D01*
X427362Y622833D02*
X433384D01*
X427362Y623188D02*
X433030D01*
X427362Y623542D02*
X432676D01*
X427362Y623896D02*
X432321D01*
X427362Y624251D02*
X432052D01*
X427362Y624605D02*
X431921D01*
X427362Y625668D02*
X431890D01*
X427362Y625314D02*
X431890D01*
X427362Y624959D02*
X431890D01*
X427391Y626022D02*
X431861D01*
X427558Y626377D02*
X431694D01*
X428066Y626731D02*
X431186D01*
X395866Y429014D02*
X402559D01*
X395866Y428660D02*
X402559D01*
X395866Y428306D02*
X402559D01*
X395866Y427951D02*
X402559D01*
X395866Y427597D02*
X402559D01*
X395866Y427243D02*
X402559D01*
X395866Y426888D02*
X402559D01*
X395866Y426534D02*
X402559D01*
X395866Y456140D02*
X404921D01*
X395866Y455786D02*
X404921D01*
X395866Y455432D02*
X404921D01*
X395866Y455077D02*
X404921D01*
X395866Y454723D02*
X404921D01*
X395866Y454369D02*
X404921D01*
X395866Y454014D02*
X404921D01*
X395866Y453660D02*
X404921D01*
X395866Y453306D02*
X404921D01*
X395866Y452951D02*
X404921D01*
X395866Y452597D02*
X404921D01*
X395866Y452243D02*
X404921D01*
X395866Y451888D02*
X404921D01*
X395866Y451534D02*
X404921D01*
X490748Y642717D02*
G03X490748I-4528J0D01*
G01X492520Y602362D02*
G03X492520I-2363J0D01*
G01X486614Y587598D02*
G03X486614I-2362J0D01*
G01X435039Y555512D02*
G03X435039I-2362J0D01*
G01X416535Y558071D02*
G03X416535I-2362J0D01*
G01X433858Y525197D02*
G03X433858I-2362J0D01*
G01X442717Y576772D02*
G03X442717I-2363J0D01*
G01X493898Y610236D02*
Y659618D01*
G03X493379Y660870I-1772J-0*
G01X488914Y665335*
G03X488578Y665208I-139J-139*
G01X484358Y666808D02*
G03X488578Y665208I1862J-1454D01*
G01X484358Y666808D02*
G03X484203Y667126I-155J121D01*
G01X467605*
G03X467466Y666790I0J-197*
G01X469436Y664820*
G03X469569Y664762I139J139*
G01X467127Y662321D02*
G03X469569Y664762I2361J81D01*
G01X467127Y662321D02*
G03X467070Y662454I-196J-7D01*
G01X464325Y665198*
G03X464186Y665256I-139J-139*
G01X428646*
G03X428456Y665006I-0J-197*
G01X423906D02*
G03X428456I2275J-636D01*
G01X423906D02*
G03X423717Y665256I-189J53D01*
G01X403924*
G03X403785Y665198I0J-197*
G01X402100Y663514*
G03X402113Y663224I140J-140*
G01X402786Y660545D02*
G03X402113Y663224I-2195J872D01*
G01X402786Y660545D02*
G03X402819Y660344I183J-73D01*
G01X403150Y659449D02*
G03X402819Y660344I-1378J-0D01*
G01X403150Y659449D02*
Y657480D01*
X402847Y656619D02*
G03X403150Y657480I-1075J861D01*
G01X402847Y656619D02*
G03Y656373I154J-123D01*
G01X403150Y655512D02*
G03X402847Y656373I-1378J-0D01*
G01X403150Y655512D02*
Y653543D01*
X401772Y652165D02*
G03X403150Y653543I-0J1378D01*
G01X401772Y652165D02*
X400955D01*
G03X400815Y652108I-0J-197*
G01X400550Y651842*
G03X400492Y651703I139J-139*
G01Y647441*
G03X400689Y647244I197J-0*
G01X406693*
X408071Y645866D02*
G03X406693Y647244I-1378J0D01*
G01X408071Y645866D02*
Y640945D01*
G03X408268Y640748I197J-0*
G01X409055*
G03X409252Y640945I0J197*
G01Y643110*
X410630Y644488D02*
G03X409252Y643110I-0J-1378D01*
G01X410630Y644488D02*
X414173D01*
X415551Y643110D02*
G03X414173Y644488I-1378J0D01*
G01X415551Y643110D02*
Y640945D01*
G03X415748Y640748I197J-0*
G01X416535*
G03X416732Y640945I0J197*
G01Y645866*
X418110Y647244D02*
G03X416732Y645866I0J-1378D01*
G01X418110Y647244D02*
X424409D01*
X425787Y645866D02*
G03X424409Y647244I-1378J0D01*
G01X425787Y645866D02*
Y643980D01*
G03X426058Y643797I197J-0*
G01X426575Y643898D02*
G03X426058Y643797I-0J-1378D01*
G01X426575Y643898D02*
X429528D01*
G03X429724Y644095I-0J197*
G01Y652854*
X432184Y656155D02*
G03X429724Y652854I985J-3301D01*
G01X432184Y656155D02*
G03X432295Y656240I-56J189D01*
G01X433465Y656890D02*
G03X432295Y656240I-0J-1378D01*
G01X433465Y656890D02*
X437402D01*
X438780Y655512D02*
G03X437402Y656890I-1378J-0D01*
G01X438780Y655512D02*
Y653150D01*
X438641Y652547D02*
G03X438780Y653150I-1239J603D01*
G01X438641Y652547D02*
G03Y652375I177J-86D01*
G01X438780Y651772D02*
G03X438641Y652375I-1378J-0D01*
G01X438780Y651772D02*
Y649409D01*
X438641Y648807D02*
G03X438780Y649409I-1239J602D01*
G01X438641Y648807D02*
G03Y648634I177J-87D01*
G01X438780Y648031D02*
G03X438641Y648634I-1378J0D01*
G01X438780Y648031D02*
Y645669D01*
X437574Y644302D02*
G03X438780Y645669I-172J1367D01*
G01X437574Y644302D02*
G03X437402Y644107I24J-195D01*
G01Y643884*
G03X437500Y643713I196J-0*
G01X437811Y643468D02*
G03X437500Y643713I-1000J-948D01*
G01X437811Y643468D02*
G03X438120Y643498I143J136D01*
G01X438579Y644071D02*
G03X438120Y643498I2366J-2367D01*
G01X438579Y644071D02*
X442944Y648436D01*
G03X442939Y648719I-139J139*
G01X442126Y650591D02*
G03X442939Y648719I2559J-0D01*
G01X442126Y650591D02*
Y659646D01*
X444685Y662205D02*
G03X442126Y659646I0J-2559D01*
G01X444685Y662205D02*
X451969D01*
X456299*
X459449*
X460827Y660827D02*
G03X459449Y662205I-1378J-0D01*
G01X460827Y660827D02*
Y656102D01*
X460449Y655155D02*
G03X460827Y656102I-1000J947D01*
G01X460449Y655155D02*
G03Y654884I143J-135D01*
G01X460827Y653937D02*
G03X460449Y654884I-1378J0D01*
G01X460827Y653937D02*
Y650394D01*
X459449Y649016D02*
G03X460827Y650394I-0J1378D01*
G01X459449Y649016D02*
X456693D01*
G03X456496Y648819I-0J-197*
G01Y648228*
G03X457480Y647244I984J0*
G01X471654*
X473032Y645866D02*
G03X471654Y647244I-1378J0D01*
G01X473032Y645866D02*
Y641142D01*
G03X476772Y637402I3740J-0*
G01X489370*
X490748Y636024D02*
G03X489370Y637402I-1378J-0D01*
G01X490748Y636024D02*
Y616339D01*
Y614961*
Y610039*
X490037Y608834D02*
G03X490748Y610039I-667J1205D01*
G01X490037Y608834D02*
G03X490133Y608465I96J-173D01*
G01X492126*
G03X493898Y610236I-0J1771*
G01Y403374D02*
Y604331D01*
G03X492126Y606102I-1772J-0*
G01X474807*
X474805*
X474803*
X471639*
G03X471469Y605807I0J-197*
G01X471654Y605118D02*
G03X471469Y605807I-1378J0D01*
G01X471654Y605118D02*
Y601969D01*
X470276Y600591D02*
G03X471654Y601969I-0J1378D01*
G01X470276Y600591D02*
X466732D01*
X465354Y601969D02*
G03X466732Y600591I1378J-0D01*
G01X465354Y601969D02*
Y605118D01*
X466722Y606496D02*
G03X465354Y605118I10J-1378D01*
G01X466722Y606496D02*
G03X466721Y606890I-1J197D01*
G01X464517*
G03X464326Y606644I-0J-197*
G01X464370Y606299D02*
G03X464326Y606644I-1378J0D01*
G01X464370Y606299D02*
Y604331D01*
X462992Y602953D02*
G03X464370Y604331I0J1378D01*
G01X462992Y602953D02*
X460630D01*
X460093Y603062D02*
G03X460630Y602953I537J1269D01*
G01X460093Y603062D02*
G03X459822Y602914I-77J-182D01*
G01X458465Y601772D02*
G03X459822Y602914I-0J1378D01*
G01X458465Y601772D02*
X456496D01*
X456152Y601815D02*
G03X456496Y601772I344J1335D01*
G01X456152Y601815D02*
G03X456053I-50J-190D01*
G01X455709Y601772D02*
G03X456053Y601815I-0J1378D01*
G01X455709Y601772D02*
X451772D01*
X451427Y601815D02*
G03X451772Y601772I345J1335D01*
G01X451427Y601815D02*
G03X451329I-49J-190D01*
G01X450984Y601772D02*
G03X451329Y601815I0J1378D01*
G01X450984Y601772D02*
X449016D01*
X448808*
G03X448661Y601706I-0J-197*
G01X447047Y600984D02*
G03X448661Y601706I0J2166D01*
G01X447047Y600984D02*
X438583D01*
X436417Y603150D02*
G03X438583Y600984I2166J-0D01*
G01X436417Y603150D02*
Y605906D01*
G03X436220Y606102I-197J-0*
G01X398917*
G03X398720Y605906I0J-196*
G01Y587752*
G03X399001Y587573I197J-0*
G01X401862Y583979D02*
G03X399001Y587573I-1862J1454D01*
G01X401862Y583979D02*
G03X402017Y583661I155J-121D01*
G01X405315*
X407888*
G03X407993Y583692I0J197*
G01X409809Y579397D02*
G03X407993Y583692I-557J2296D01*
G01X409809Y579397D02*
G03X409717Y579067I47J-191D01*
G01X413037Y575747*
G03X413176Y575689I139J139*
G01X428041*
X429746Y574983D02*
G03X428041Y575689I-1705J-1705D01*
G01X429746Y574983D02*
X433644Y571084D01*
X434350Y569379D02*
G03X433644Y571084I-2411J0D01*
G01X434350Y569379D02*
Y567101D01*
G03X434403Y566967I197J0*
G01X430951D02*
G03X434403I1726J-1613D01*
G01X430951D02*
G03X431004Y567101I-144J134D01*
G01Y568910*
G03X430946Y569050I-197J0*
G01X429196Y570800*
G03X428883Y570752I-139J-139*
G01X426872Y569490D02*
G03X428883Y570752I-81J2360D01*
G01X426872Y569490D02*
G03X426739Y569432I6J-197D01*
G01X426025Y568718*
X424320Y568012D02*
G03X426025Y568718I0J2411D01*
G01X424320Y568012D02*
X411011D01*
G03X410872Y567954I-0J-197*
G01X407895Y564978*
X407345Y564566D02*
G03X407895Y564978I-1155J2117D01*
G01X407345Y564566D02*
G03X407247Y564356I95J-172D01*
G01X407068Y563082D02*
G03X407247Y564356I-1753J894D01*
G01X407068Y563082D02*
G03Y562903I176J-90D01*
G01Y561113D02*
G03Y562903I-1753J895D01*
G01Y561113D02*
G03Y560934I176J-89D01*
G01Y559145D02*
G03Y560934I-1753J894D01*
G01Y559145D02*
G03Y558966I176J-90D01*
G01X407240Y558480D02*
G03X407068Y558966I-1925J-409D01*
G01X407240Y558480D02*
G03X407497Y558335I193J41D01*
G01Y553869D02*
G03Y558335I771J2233D01*
G01Y553869D02*
G03X407240Y553724I-64J-186D01*
G01X407068Y553239D02*
G03X407240Y553724I-1753J895D01*
G01X407068Y553239D02*
G03Y553060I176J-89D01*
G01Y551271D02*
G03Y553060I-1753J894D01*
G01Y551271D02*
G03Y551092I176J-90D01*
G01Y549302D02*
G03Y551092I-1753J895D01*
G01Y549302D02*
G03Y549123I176J-89D01*
G01Y547334D02*
G03Y549123I-1753J894D01*
G01Y547334D02*
G03Y547155I176J-90D01*
G01X407198Y545685D02*
G03X407068Y547155I-1883J575D01*
G01X407198Y545685D02*
G03X407469Y545449I188J-57D01*
G01Y541165D02*
G03Y545449I996J2142D01*
G01Y541165D02*
G03X407198Y540929I-83J-179D01*
G01X407068Y539460D02*
G03X407198Y540929I-1753J894D01*
G01X407068Y539460D02*
G03Y539281I176J-90D01*
G01X407209Y538922D02*
G03X407068Y539281I-1894J-536D01*
G01X407209Y538922D02*
G03X407405Y538778I190J53D01*
G01Y534056D02*
G03Y538778I75J2361D01*
G01Y534056D02*
G03X407209Y533913I-6J-196D01*
G01X407068Y533554D02*
G03X407209Y533913I-1753J895D01*
G01X407068Y533554D02*
G03Y533375I176J-89D01*
G01Y531586D02*
G03Y533375I-1753J894D01*
G01Y531586D02*
G03Y531407I176J-90D01*
G01Y529617D02*
G03Y531407I-1753J895D01*
G01Y529617D02*
G03Y529438I176J-89D01*
G01Y527649D02*
G03Y529438I-1753J894D01*
G01Y527649D02*
G03Y527470I176J-90D01*
G01Y525680D02*
G03Y527470I-1753J895D01*
G01Y525680D02*
G03Y525501I176J-89D01*
G01Y523712D02*
G03Y525501I-1753J894D01*
G01Y523712D02*
G03Y523533I176J-90D01*
G01Y521743D02*
G03Y523533I-1753J895D01*
G01Y521743D02*
G03Y521564I176J-89D01*
G01Y519775D02*
G03Y521564I-1753J894D01*
G01Y519775D02*
G03Y519596I176J-90D01*
G01Y517806D02*
G03Y519596I-1753J895D01*
G01Y517806D02*
G03Y517627I176J-89D01*
G01Y515838D02*
G03Y517627I-1753J894D01*
G01Y515838D02*
G03Y515659I176J-90D01*
G01Y513869D02*
G03Y515659I-1753J895D01*
G01Y513869D02*
G03Y513690I176J-89D01*
G01X407280Y512676D02*
G03X407068Y513690I-1965J119D01*
G01X407280Y512676D02*
G03X407325Y512537I196J-12D01*
G01X407818Y510512D02*
G03X407325Y512537I-2306J512D01*
G01X407818Y510512D02*
G03X407839Y510372I192J-43D01*
X407748Y510264I96J-172*
G01X403178Y510660D02*
G03X407748Y510264I2334J364D01*
G01X403178Y510660D02*
G03X402983Y510827I-195J-30D01*
G01X400984*
X399231Y513690D02*
G03X400984Y510827I1753J-895D01*
G01X399231Y513690D02*
G03Y513869I-176J90D01*
G01Y515659D02*
G03Y513869I1753J-895D01*
G01Y515659D02*
G03Y515838I-176J89D01*
G01X399029Y516961D02*
G03X399231Y515838I1955J-229D01*
G01X399029Y516961D02*
G03X398900Y517169I-195J23D01*
G01X398010Y517734D02*
G03X398900Y517169I1705J1705D01*
G01X398010Y517734D02*
X396202Y519542D01*
G03X395866Y519403I-139J-139*
G01Y508268*
G03X396063Y508071I197J-0*
G01X401378*
X402756Y506693D02*
G03X401378Y508071I-1378J-0D01*
G01X402756Y506693D02*
Y501181D01*
X401378Y499803D02*
G03X402756Y501181I-0J1378D01*
G01X401378Y499803D02*
X401112D01*
G03X400999Y499445I0J-197*
G01X396179Y492728D02*
G03X400999Y499445I2443J3335D01*
G01X396179Y492728D02*
G03X395866Y492569I-116J-159D01*
G01Y482677*
G03X396063Y482480I197J0*
G01X401378*
X402756Y481102D02*
G03X401378Y482480I-1378J0D01*
G01X402756Y481102D02*
Y475591D01*
X401378Y474213D02*
G03X402756Y475591I-0J1378D01*
G01X401378Y474213D02*
X401112D01*
G03X400999Y473855I0J-197*
G01X400344Y466714D02*
G03X400999Y473855I-1722J3758D01*
G01X400344Y466714D02*
G03Y466356I82J-179D01*
G01Y458840D02*
G03Y466356I-1722J3758D01*
G01Y458840D02*
G03Y458482I82J-179D01*
G01X396179Y451389D02*
G03X400344Y458482I2443J3335D01*
G01X396179Y451389D02*
G03X395866Y451231I-116J-158D01*
G01Y439656*
G03X396214Y439530I197J0*
G01X400757Y435184D02*
G03X396214Y439530I-2135J2316D01*
G01X400757Y435184D02*
G03Y434895I133J-145D01*
G01Y430263D02*
G03Y434895I-2135J2316D01*
G01Y430263D02*
G03Y429973I133J-145D01*
G01X401207Y425857D02*
G03X400757Y429973I-2585J1800D01*
G01X401207Y425857D02*
G03X401246Y425590I161J-112D01*
G01X401772Y424508D02*
G03X401246Y425590I-1378J-0D01*
G01X401772Y424508D02*
Y420965D01*
X400394Y419587D02*
G03X401772Y420965I-0J1378D01*
G01X400394Y419587D02*
X396850D01*
X396161Y419771D02*
G03X396850Y419587I689J1194D01*
G01X396161Y419771D02*
G03X395866Y419601I-98J-170D01*
G01Y403374*
G03X396385Y402122I1772J0*
G01X402122Y396385*
G03X403374Y395866I1252J1253*
G01X414961*
G03X415157Y396063I-0J197*
G01Y397586*
G03X415082Y397741I-196J0*
G01X427611Y404703D02*
G03X415082Y397741I-7729J-845D01*
G01X427611Y404703D02*
G03X427807Y404528I196J21D01*
G01X430512*
X430529Y404527D02*
G03X430512Y404528I-17J-196D01*
G01X430529Y404527D02*
G03X430553Y404526I18J196D01*
G01X434449Y400738D02*
G03X430553Y404526I-3790J0D01*
G01X434449Y400738D02*
Y398081D01*
X433928Y396163D02*
G03X434449Y398081I-3269J1918D01*
G01X433928Y396163D02*
G03X434097Y395866I169J-100D01*
G01X455568*
G03X455738Y396163I0J197*
G01X455217Y398081D02*
G03X455738Y396163I3789J-0D01*
G01X455217Y398081D02*
Y400738D01*
X459042Y404527D02*
G03X455217Y400738I-36J-3789D01*
G01X459042Y404527D02*
G03X459049I1J197D01*
G01X459055Y404528D02*
G03X459049Y404527I0J-197D01*
G01X459055Y404528D02*
X461957D01*
G03X462152Y404703I-0J196*
G01X474682Y397741D02*
G03X462152Y404703I-4800J6117D01*
G01X474682Y397741D02*
G03X474606Y397586I121J-155D01*
G01Y396063*
G03X474803Y395866I197J-0*
G01X486389*
G03X487642Y396385I0J1772*
G01X493379Y402122*
G03X493898Y403374I-1253J1252*
G01X439629Y413976D02*
G03X439768Y414312I-0J197D01*
G01X436041Y418040*
X435335Y419745D02*
G03X436041Y418040I2411J-0D01*
G01X435335Y419745D02*
Y425536D01*
G03X434950Y425594I-197J-0*
G01X434230Y424590D02*
G03X434950Y425594I-1159J1591D01*
G01X434230Y424590D02*
G03X434172Y424338I116J-159D01*
G01X430724Y421299D02*
G03X434172Y424338I1363J1929D01*
G01X430724Y421299D02*
G03X430497I-114J-161D01*
G01X427408Y424841D02*
G03X430497Y421299I1726J-1613D01*
G01X427408Y424841D02*
G03X427461Y424975I-144J134D01*
G01Y425090*
G03X427434Y425189I-197J-0*
G01X427380Y427076D02*
G03X427434Y425189I1754J-895D01*
G01X427380Y427076D02*
G03Y427255I-175J89D01*
G01Y429044D02*
G03Y427255I1754J-894D01*
G01Y429044D02*
G03Y429223I-175J90D01*
G01X427166Y430181D02*
G03X427380Y429223I1968J-63D01*
G01X427166Y430181D02*
G03X427015Y430378I-196J6D01*
G01X425742Y431168D02*
G03X427015Y430378I1817J1509D01*
G01X425742Y431168D02*
G03X425394Y431042I-151J-126D01*
G01Y429724*
X424023Y428346D02*
G03X425394Y429724I-7J1378D01*
G01X424023Y428346D02*
G03Y427953I1J-196D01*
G01X425372Y426819D02*
G03X424023Y427953I-1356J-244D01*
G01X425372Y426819D02*
G03X425399Y426750I194J35D01*
G01X425787Y425394D02*
G03X425399Y426750I-2559J-0D01*
G01X425787Y425394D02*
Y425000D01*
Y422884*
G03X425989Y422396I689J-0*
G01X433870Y414516*
G03X434071Y414468I139J139*
G01X437834Y413697D02*
G03X434071Y414468I-2549J-2870D01*
G01X437834Y413697D02*
G03X438085Y413689I130J148D01*
G01X438927Y413976D02*
G03X438085Y413689I0J-1378D01*
G01X438927Y413976D02*
X439629D01*
X490748Y642717D02*
G03X490748I-4528J0D01*
G01X490844Y575412D02*
G03Y580100I-293J2344D01*
G01Y575412D02*
G03X490678Y575268I24J-195D01*
G01X490533Y574893D02*
G03X490678Y575268I-1753J894D01*
G01X490533Y574893D02*
G03Y574714I175J-90D01*
G01Y572924D02*
G03Y574714I-1753J895D01*
G01Y572924D02*
G03Y572745I175J-89D01*
G01Y570956D02*
G03Y572745I-1753J894D01*
G01Y570956D02*
G03Y570777I175J-90D01*
G01Y568987D02*
G03Y570777I-1753J895D01*
G01Y568987D02*
G03Y568808I175J-89D01*
G01Y567019D02*
G03Y568808I-1753J894D01*
G01Y567019D02*
G03Y566840I175J-90D01*
G01Y565050D02*
G03Y566840I-1753J895D01*
G01Y565050D02*
G03Y564871I175J-89D01*
G01Y563082D02*
G03Y564871I-1753J894D01*
G01Y563082D02*
G03Y562903I175J-90D01*
G01Y561113D02*
G03Y562903I-1753J895D01*
G01Y561113D02*
G03Y560934I175J-89D01*
G01Y559145D02*
G03Y560934I-1753J894D01*
G01Y559145D02*
G03Y558966I175J-90D01*
G01Y557176D02*
G03Y558966I-1753J895D01*
G01Y557176D02*
G03Y556997I175J-89D01*
G01Y555208D02*
G03Y556997I-1753J894D01*
G01Y555208D02*
G03Y555029I175J-90D01*
G01X490678Y554653D02*
G03X490533Y555029I-1898J-519D01*
G01X490678Y554653D02*
G03X490844Y554509I190J52D01*
G01Y549821D02*
G03Y554509I-293J2344D01*
G01Y549821D02*
G03X490678Y549678I24J-195D01*
G01X490533Y549302D02*
G03X490678Y549678I-1753J895D01*
G01X490533Y549302D02*
G03Y549123I175J-89D01*
G01Y547334D02*
G03Y549123I-1753J894D01*
G01Y547334D02*
G03Y547155I175J-90D01*
G01Y545365D02*
G03Y547155I-1753J895D01*
G01Y545365D02*
G03Y545186I175J-89D01*
G01Y543397D02*
G03Y545186I-1753J894D01*
G01Y543397D02*
G03Y543218I175J-90D01*
G01Y541428D02*
G03Y543218I-1753J895D01*
G01Y541428D02*
G03Y541249I175J-89D01*
G01Y539460D02*
G03Y541249I-1753J894D01*
G01Y539460D02*
G03Y539281I175J-90D01*
G01Y537491D02*
G03Y539281I-1753J895D01*
G01Y537491D02*
G03Y537312I175J-89D01*
G01Y535523D02*
G03Y537312I-1753J894D01*
G01Y535523D02*
G03Y535344I175J-90D01*
G01X490678Y534968D02*
G03X490533Y535344I-1898J-519D01*
G01X490678Y534968D02*
G03X490844Y534824I190J52D01*
G01Y530136D02*
G03Y534824I-293J2344D01*
G01Y530136D02*
G03X490678Y529993I24J-195D01*
G01X490533Y529617D02*
G03X490678Y529993I-1753J895D01*
G01X490533Y529617D02*
G03Y529438I175J-89D01*
G01Y527649D02*
G03Y529438I-1753J894D01*
G01Y527649D02*
G03Y527470I175J-90D01*
G01Y525680D02*
G03Y527470I-1753J895D01*
G01Y525680D02*
G03Y525501I175J-89D01*
G01Y523712D02*
G03Y525501I-1753J894D01*
G01Y523712D02*
G03Y523533I175J-90D01*
G01Y521743D02*
G03Y523533I-1753J895D01*
G01Y521743D02*
G03Y521564I175J-89D01*
G01Y519775D02*
G03Y521564I-1753J894D01*
G01Y519775D02*
G03Y519596I175J-90D01*
G01Y517806D02*
G03Y519596I-1753J895D01*
G01Y517806D02*
G03Y517627I175J-89D01*
G01Y515838D02*
G03Y517627I-1753J894D01*
G01Y515838D02*
G03Y515659I175J-90D01*
G01X490678Y515283D02*
G03X490533Y515659I-1898J-519D01*
G01X490678Y515283D02*
G03X490844Y515139I190J52D01*
G01X489292Y510796D02*
G03X490844Y515139I1259J1999D01*
G01X489292Y510796D02*
G03X489187Y510827I-105J-166D01*
G01X486614*
X486191*
G03X486052Y510491I-0J-197*
G01X488167Y508376*
X489075Y506183D02*
G03X488167Y508376I-3101J0D01*
G01X489075Y506183D02*
Y504303D01*
G03X489235Y504109I197J-0*
G01X490354Y502756D02*
G03X489235Y504109I-1378J-0D01*
G01X490354Y502756D02*
Y499606D01*
X488983Y498228D02*
G03X490354Y499606I-7J1378D01*
G01X488983Y498228D02*
G03Y497835I2J-197D01*
G01X490354Y496457D02*
G03X488983Y497835I-1378J-0D01*
G01X490354Y496457D02*
Y493307D01*
X488976Y491929D02*
G03X490354Y493307I0J1378D01*
G01X488976Y491929D02*
X485433D01*
X484055Y493307D02*
G03X485433Y491929I1378J0D01*
G01X484055Y493307D02*
Y496457D01*
X485426Y497835D02*
G03X484055Y496457I7J-1378D01*
G01X485426Y497835D02*
G03Y498228I-1J196D01*
G01X484055Y499606D02*
G03X485426Y498228I1378J0D01*
G01X484055Y499606D02*
Y502756D01*
X485175Y504109D02*
G03X484055Y502756I258J-1353D01*
G01X485175Y504109D02*
G03X485335Y504303I-37J194D01*
G01Y505837*
G03X485277Y505976I-197J-0*
G01X481321Y509931*
X480413Y512124D02*
G03X481321Y509931I3101J-0D01*
G01X480413Y512124D02*
Y512822D01*
G03X480156Y513009I-196J-0*
G01X479419Y512894D02*
G03X480156Y513009I-0J2411D01*
G01X479419Y512894D02*
X478137D01*
G03X477998Y512558I-0J-197*
G01X480298Y510258*
X480994Y508769D02*
G03X480298Y510258I-2401J-216D01*
G01X480994Y508769D02*
G03X481021Y508686I196J18D01*
G01X481299Y507677D02*
G03X481021Y508686I-1968J0D01*
G01X481299Y507677D02*
Y503346D01*
X478436Y501593D02*
G03X481299Y503346I895J1753D01*
G01X478436Y501593D02*
G03X478257I-90J-175D01*
G01X476467D02*
G03X478257I895J1753D01*
G01X476467D02*
G03X476288I-89J-175D01*
G01X474499D02*
G03X476288I895J1753D01*
G01X474499D02*
G03X474320I-90J-175D01*
G01X472530D02*
G03X474320I895J1753D01*
G01X472530D02*
G03X472351I-89J-175D01*
G01X470562D02*
G03X472351I895J1753D01*
G01X470562D02*
G03X470383I-90J-175D01*
G01X468593D02*
G03X470383I895J1753D01*
G01X468593D02*
G03X468414I-89J-175D01*
G01X466625D02*
G03X468414I895J1753D01*
G01X466625D02*
G03X466446I-90J-175D01*
G01X464656D02*
G03X466446I895J1753D01*
G01X464656D02*
G03X464477I-89J-175D01*
G01X462688D02*
G03X464477I895J1753D01*
G01X462688D02*
G03X462509I-90J-175D01*
G01X460719D02*
G03X462509I895J1753D01*
G01X460719D02*
G03X460540I-89J-175D01*
G01X458751D02*
G03X460540I895J1753D01*
G01X458751D02*
G03X458572I-90J-175D01*
G01X456782D02*
G03X458572I895J1753D01*
G01X456782D02*
G03X456603I-89J-175D01*
G01X454814D02*
G03X456603I895J1753D01*
G01X454814D02*
G03X454635I-90J-175D01*
G01X452845D02*
G03X454635I895J1753D01*
G01X452845D02*
G03X452666I-89J-175D01*
G01X450877D02*
G03X452666I895J1753D01*
G01X450877D02*
G03X450698I-90J-175D01*
G01X448908D02*
G03X450698I895J1753D01*
G01X448908D02*
G03X448729I-89J-175D01*
G01X446940D02*
G03X448729I895J1753D01*
G01X446940D02*
G03X446761I-90J-175D01*
G01X444971D02*
G03X446761I895J1753D01*
G01X444971D02*
G03X444792I-89J-175D01*
G01X443907Y501378D02*
G03X444792Y501593I-9J1968D01*
G01X443907Y501378D02*
G03X443898I1J-197D01*
X443888I-11J-197*
G01X443003Y501593D02*
G03X443888Y501378I895J1753D01*
G01X443003Y501593D02*
G03X442824I-90J-175D01*
G01X441034D02*
G03X442824I895J1753D01*
G01X441034D02*
G03X440855I-89J-175D01*
G01X439066D02*
G03X440855I895J1753D01*
G01X439066D02*
G03X438887I-90J-175D01*
G01X438490Y501442D02*
G03X438887Y501593I-498J1904D01*
G01X438490Y501442D02*
G03X438347Y501216I50J-190D01*
G01X433701D02*
G03X438347I2323J-429D01*
G01X433701D02*
G03X433557Y501442I-194J36D01*
G01X433160Y501593D02*
G03X433557Y501442I895J1753D01*
G01X433160Y501593D02*
G03X432981I-89J-175D01*
G01X431192D02*
G03X432981I895J1753D01*
G01X431192D02*
G03X431013I-90J-175D01*
G01X429223D02*
G03X431013I895J1753D01*
G01X429223D02*
G03X429044I-89J-175D01*
G01X427255D02*
G03X429044I895J1753D01*
G01X427255D02*
G03X427076I-90J-175D01*
G01X425286D02*
G03X427076I895J1753D01*
G01X425286D02*
G03X425107I-89J-175D01*
G01X423318D02*
G03X425107I895J1753D01*
G01X423318D02*
G03X423139I-90J-175D01*
G01X422244Y501378D02*
G03X423139Y501593I0J1968D01*
G01X422244Y501378D02*
G03X422047Y501181I0J-197D01*
G01Y498242*
X421240Y496294D02*
G03X422047Y498242I-1949J1948D01*
G01X421240Y496294D02*
X415806Y490859D01*
G03X415748Y490720I139J-139*
G01Y471878*
G03X415806Y471739I197J0*
G01X443681Y443864*
X444488Y441915D02*
G03X443681Y443864I-2756J0D01*
G01X444488Y441915D02*
Y436052D01*
G03X444546Y435912I197J-0*
G01X444978Y435480*
G03X445099Y435423I140J139*
G01X447077Y432198D02*
G03X445099Y435423I-2195J873D01*
G01X447077Y432198D02*
G03X447110Y431998I183J-72D01*
G01X447441Y431102D02*
G03X447110Y431998I-1378J0D01*
G01X447441Y431102D02*
Y429134D01*
X447139Y428273D02*
G03X447441Y429134I-1076J861D01*
G01X447139Y428273D02*
G03Y428027I153J-123D01*
G01X447441Y427165D02*
G03X447139Y428027I-1378J0D01*
G01X447441Y427165D02*
Y425197D01*
X447110Y424301D02*
G03X447441Y425197I-1047J896D01*
G01X447110Y424301D02*
G03X447077Y424101I150J-127D01*
G01X447014Y422212D02*
G03X447077Y424101I-2132J1016D01*
G01X447014Y422212D02*
G03X447053Y421988I178J-85D01*
G01X447421Y421620*
X448228Y419671D02*
G03X447421Y421620I-2756J0D01*
G01X448228Y419671D02*
Y416228D01*
G03X448543Y416070I197J-0*
G01X452304Y414380D02*
G03X448543Y416070I-2353J-207D01*
G01X452304Y414380D02*
G03X452592Y414223I196J18D01*
G01X452414Y407530D02*
G03X452592Y414223I1966J3297D01*
G01X452414Y407530D02*
G03X452116Y407361I-101J-169D01*
G01Y407283*
X450738Y405905D02*
G03X452116Y407283I0J1378D01*
G01X450738Y405905D02*
X449163D01*
X448733Y405975D02*
G03X449163Y405905I430J1308D01*
G01X448733Y405975D02*
G03X448610I-62J-187D01*
G01X448179Y405905D02*
G03X448610Y405975I0J1378D01*
G01X448179Y405905D02*
X446604D01*
X446174Y405975D02*
G03X446604Y405905I430J1308D01*
G01X446174Y405975D02*
G03X446051I-62J-187D01*
G01X445620Y405905D02*
G03X446051Y405975I0J1378D01*
G01X445620Y405905D02*
X444045D01*
X443615Y405975D02*
G03X444045Y405905I430J1308D01*
G01X443615Y405975D02*
G03X443492I-62J-187D01*
G01X443061Y405905D02*
G03X443492Y405975I0J1378D01*
G01X443061Y405905D02*
X441486D01*
X441056Y405975D02*
G03X441486Y405905I430J1308D01*
G01X441056Y405975D02*
G03X440933I-62J-187D01*
G01X440502Y405905D02*
G03X440933Y405975I-0J1378D01*
G01X440502Y405905D02*
X438927D01*
X437549Y407283D02*
G03X438927Y405905I1378J0D01*
G01X437549Y407283D02*
Y407361D01*
G03X437252Y407530I-197J-0*
G01X432306Y408407D02*
G03X437252Y407530I2979J2420D01*
G01X432306Y408407D02*
X431845Y408974D01*
G03X431797Y409016I-152J-124*
G01X430704Y409887D02*
G03X431797Y409016I4384J4385D01*
G01X430704Y409887D02*
X422092Y418499D01*
X421106Y419783D02*
G03X422092Y418499I5370J3101D01*
G01X421106Y419783D02*
G03X420936Y419882I-170J-98D01*
G01X412992*
X410433Y422441D02*
G03X412992Y419882I2559J-0D01*
G01X410433Y422441D02*
Y425394D01*
X412984Y427953D02*
G03X410433Y425394I8J-2559D01*
G01X412984Y427953D02*
G03Y428346I-1J197D01*
G01X411614Y429724D02*
G03X412984Y428346I1378J0D01*
G01X411614Y429724D02*
Y432874D01*
X412992Y434252D02*
G03X411614Y432874I0J-1378D01*
G01X412992Y434252D02*
X417717D01*
X418922Y433541D02*
G03X417717Y434252I-1205J-667D01*
G01X418922Y433541D02*
G03X419267I172J95D01*
G01X420472Y434252D02*
G03X419267Y433541I0J-1378D01*
G01X420472Y434252D02*
X424016D01*
X425115Y433706D02*
G03X424016Y434252I-1099J-832D01*
G01X425115Y433706D02*
G03X425447Y433736I157J118D01*
G01X428831Y434668D02*
G03X425447Y433736I-1272J-1991D01*
G01X428831Y434668D02*
G03X429043I106J166D01*
G01X430860Y434976D02*
G03X429043Y434668I-545J-2299D01*
G01X430860Y434976D02*
G03X431102Y435167I45J191D01*
G01Y438006*
G03X431072Y438111I-197J0*
G01X435070D02*
G03X431072I-1999J1259D01*
G01X435070D02*
G03X435039Y438006I166J-105D01*
G01Y432275*
G03X435218Y432078I197J-0*
G01X436398Y431543D02*
G03X435218Y432078I-1359J-1425D01*
G01X436398Y431543D02*
G03X436457Y431504I135J143D01*
G01X438027Y430231D02*
G03X436457Y431504I-2988J-2081D01*
G01X438027Y430231D02*
G03X438386Y430344I162J113D01*
G01Y431102*
X438716Y431998D02*
G03X438386Y431102I1048J-896D01*
G01X438716Y431998D02*
G03X438750Y432198I-149J128D01*
G01X439128Y434580D02*
G03X438750Y432198I1817J-1509D01*
G01X439128Y434580D02*
G03X439173Y434706I-152J126D01*
G01Y440917*
G03X439116Y441056I-197J-0*
G01X411437Y468735*
X410630Y470683D02*
G03X411437Y468735I2756J0D01*
G01X410630Y470683D02*
Y491915D01*
X411437Y493864D02*
G03X410630Y491915I1949J-1949D01*
G01X411437Y493864D02*
X416478Y498905D01*
G03X416535Y499044I-139J139*
G01Y499914*
G03X416199Y500053I-196J0*
G01X413210Y497065*
X412522Y496583D02*
G03X413210Y497065I-1017J2187D01*
G01X412522Y496583D02*
G03X412453Y496530I83J-178D01*
G01X411482Y500235D02*
G03X412453Y496530I-852J-2204D01*
G01X411482Y500235D02*
G03X411692Y500279I71J183D01*
G01X412457Y501044*
G03X412325Y501379I-139J139*
G01X411507Y501593D02*
G03X412325Y501379I895J1753D01*
G01X411507Y501593D02*
G03X411328I-90J-175D01*
G01X408465Y503346D02*
G03X411328Y501593I1968J0D01*
G01X408465Y503346D02*
Y507677D01*
X408465*
Y507684*
X408465*
Y508282*
G03X408434Y508387I-197J-0*
G01X408127Y510158D02*
G03X408434Y508387I2306J-512D01*
G01X408127Y510158D02*
G03X408106Y510297I-192J42D01*
X408196Y510406I-96J172*
G01X412149Y511269D02*
G03X408196Y510406I-1716J-1623D01*
G01X412149Y511269D02*
G03X412485Y511361I144J135D01*
G01X412588Y511726D02*
G03X412485Y511361I3258J-1117D01*
G01X412588Y511726D02*
G03X412598Y511790I-186J64D01*
G01Y511792*
X416455Y509982D02*
G03X412598Y511792I-1494J1829D01*
G01X416455Y509982D02*
G03X416558Y509633I125J-153D01*
G01X417233Y509431D02*
G03X416558Y509633I-894J-1754D01*
G01X417233Y509431D02*
G03X417412I90J175D01*
G01X419202D02*
G03X417412I-895J-1754D01*
G01X419202D02*
G03X419381I89J175D01*
G01X421170D02*
G03X419381I-894J-1754D01*
G01X421170D02*
G03X421349I90J175D01*
G01X423139D02*
G03X421349I-895J-1754D01*
G01X423139D02*
G03X423318I89J175D01*
G01X425107D02*
G03X423318I-894J-1754D01*
G01X425107D02*
G03X425286I90J175D01*
G01X427076D02*
G03X425286I-895J-1754D01*
G01X427076D02*
G03X427255I89J175D01*
G01X429044D02*
G03X427255I-894J-1754D01*
G01X429044D02*
G03X429223I90J175D01*
G01X429595Y509575D02*
G03X429223Y509431I523J-1898D01*
G01X429595Y509575D02*
G03X429738Y509786I-53J190D01*
G01X432473Y512370D02*
G03X429738Y509786I-386J-2331D01*
G01X432473Y512370D02*
G03X432701Y512536I33J194D01*
G01X433313Y513817D02*
G03X432701Y512536I1726J-1612D01*
G01X433313Y513817D02*
G03X433366Y513952I-144J135D01*
G01Y514261*
X434072Y515966D02*
G03X433366Y514261I1706J-1705D01*
G01X434072Y515966D02*
X434821Y516715D01*
X436526Y517421D02*
G03X434821Y516715I0J-2411D01*
G01X436526Y517421D02*
X439852D01*
X441557Y516715D02*
G03X439852Y517421I-1705J-1705D01*
G01X441557Y516715D02*
X441974Y516298D01*
G03X442113Y516240I139J139*
G01X478950*
G03X479089Y516298I-0J197*
G01X479584Y516792*
G03X479436Y517128I-140J140*
G01X481531Y518629D02*
G03X479436Y517128I-2200J859D01*
G01X481531Y518629D02*
G03X481751Y518364I184J-71D01*
G01X482196Y518406D02*
G03X481751Y518364I-0J-2412D01*
G01X482196Y518406D02*
X482286D01*
G03X482482Y518611I-0J196*
G01X482695Y519596D02*
G03X482482Y518611I1754J-895D01*
G01X482695Y519596D02*
G03Y519775I-175J89D01*
G01Y521564D02*
G03Y519775I1754J-895D01*
G01Y521564D02*
G03Y521743I-175J90D01*
G01Y523533D02*
G03Y521743I1754J-895D01*
G01Y523533D02*
G03Y523712I-175J89D01*
G01Y525501D02*
G03Y523712I1754J-895D01*
G01Y525501D02*
G03Y525680I-175J90D01*
G01Y527470D02*
G03Y525680I1754J-895D01*
G01Y527470D02*
G03Y527649I-175J89D01*
G01Y529438D02*
G03Y527649I1754J-895D01*
G01Y529438D02*
G03Y529617I-175J90D01*
G01Y531407D02*
G03Y529617I1754J-895D01*
G01Y531407D02*
G03Y531586I-175J89D01*
G01Y533375D02*
G03Y531586I1754J-895D01*
G01Y533375D02*
G03Y533554I-175J90D01*
G01Y535344D02*
G03Y533554I1754J-895D01*
G01Y535344D02*
G03Y535523I-175J89D01*
G01Y537312D02*
G03Y535523I1754J-895D01*
G01Y537312D02*
G03Y537491I-175J90D01*
G01Y539281D02*
G03Y537491I1754J-895D01*
G01Y539281D02*
G03Y539460I-175J89D01*
G01Y541249D02*
G03Y539460I1754J-895D01*
G01Y541249D02*
G03Y541428I-175J90D01*
G01Y543218D02*
G03Y541428I1754J-895D01*
G01Y543218D02*
G03Y543397I-175J89D01*
G01Y545186D02*
G03Y543397I1754J-895D01*
G01Y545186D02*
G03Y545365I-175J90D01*
G01Y547155D02*
G03Y545365I1754J-895D01*
G01Y547155D02*
G03Y547334I-175J89D01*
G01Y549123D02*
G03Y547334I1754J-895D01*
G01Y549123D02*
G03Y549302I-175J90D01*
G01Y551092D02*
G03Y549302I1754J-895D01*
G01Y551092D02*
G03Y551271I-175J89D01*
G01Y553060D02*
G03Y551271I1754J-895D01*
G01Y553060D02*
G03Y553239I-175J90D01*
G01Y555029D02*
G03Y553239I1754J-895D01*
G01Y555029D02*
G03Y555208I-175J89D01*
G01Y556997D02*
G03Y555208I1754J-895D01*
G01Y556997D02*
G03Y557176I-175J90D01*
G01Y558966D02*
G03Y557176I1754J-895D01*
G01Y558966D02*
G03Y559145I-175J89D01*
G01X482480Y560039D02*
G03X482695Y559145I1969J0D01*
G01X482480Y560039D02*
G03X482102Y560115I-197J0D01*
G01X478922Y558883D02*
G03X482102Y560115I999J2141D01*
G01X478922Y558883D02*
G03X478755I-83J-178D01*
G01X476757D02*
G03X478755I999J2141D01*
G01X476757D02*
G03X476590I-84J-178D01*
G01X474591D02*
G03X476590I1000J2141D01*
G01X474591D02*
G03X474425I-83J-178D01*
G01X471328Y559937D02*
G03X474425Y558883I2097J1087D01*
G01X471328Y559937D02*
G03X471014Y559986I-175J-90D01*
G01X466298Y555270*
G03X466240Y555131I139J-139*
G01Y552928*
G03X466293Y552794I197J-0*
G01X462208Y551062D02*
G03X466293Y552794I2359J119D01*
G01X462208Y551062D02*
G03X462056Y551244I-197J-9D01*
G01X460299Y553001D02*
G03X462056Y551244I2299J542D01*
G01X460299Y553001D02*
G03X460118Y553153I-191J-45D01*
G01X460156Y557873D02*
G03X460118Y553153I80J-2361D01*
G01X460156Y557873D02*
G03X460288Y557930I-7J196D01*
G01X473207Y570849*
X474912Y571555D02*
G03X473207Y570849I0J-2411D01*
G01X474912Y571555D02*
X482286D01*
G03X482482Y571761I-0J197*
G01X482695Y572745D02*
G03X482482Y571761I1754J-895D01*
G01X482695Y572745D02*
G03Y572924I-175J90D01*
G01Y574714D02*
G03Y572924I1754J-895D01*
G01Y574714D02*
G03Y574893I-175J89D01*
G01Y576682D02*
G03Y574893I1754J-895D01*
G01Y576682D02*
G03Y576861I-175J90D01*
G01Y578651D02*
G03Y576861I1754J-895D01*
G01Y578651D02*
G03Y578830I-175J89D01*
G01Y580619D02*
G03Y578830I1754J-895D01*
G01Y580619D02*
G03Y580798I-175J90D01*
G01X484449Y583661D02*
G03X482695Y580798I-0J-1968D01*
G01X484449Y583661D02*
X488780D01*
X490533Y580798D02*
G03X488780Y583661I-1753J895D01*
G01X490533Y580798D02*
G03Y580619I175J-89D01*
G01X490678Y580243D02*
G03X490533Y580619I-1898J-519D01*
G01X490678Y580243D02*
G03X490844Y580100I190J52D01*
G01X492520Y602362D02*
G03X492520I-2363J0D01*
G01X486614Y587598D02*
G03X486614I-2362J0D01*
G01X481299Y591142D02*
Y586811D01*
X481031Y585819D02*
G03X481299Y586811I-1700J992D01*
G01X481031Y585819D02*
G03X481004Y585719I170J-100D01*
G01Y581999*
X480298Y580294D02*
G03X481004Y581999I-1705J1705D01*
G01X480298Y580294D02*
X476990Y576986D01*
X475285Y576280D02*
G03X476990Y576986I-0J2411D01*
G01X475285Y576280D02*
X469279D01*
G03X469139Y576222I-0J-197*
G01X447400Y554483*
G03X447343Y554343I139J-140*
G01Y546636*
G03X447562Y546441I196J0*
G01X450106Y544743D02*
G03X447562Y546441I-2271J-649D01*
G01X450106Y544743D02*
G03X450485I189J54D01*
G01X455027D02*
G03X450485I-2271J-649D01*
G01X455027D02*
G03X455406I190J54D01*
G01X459403Y542482D02*
G03X455406Y544743I-1726J1612D01*
G01X459403Y542482D02*
G03X459350Y542348I144J-134D01*
G01Y539866*
G03X459600Y539677I197J0*
G01X459630Y535118D02*
G03X459600Y539677I606J2284D01*
G01X459630Y535118D02*
G03X459418Y534816I-50J-190D01*
G01X455300Y532556D02*
G03X459418Y534816I2180J909D01*
G01X455300Y532556D02*
G03X454936I-182J-76D01*
G01X452260Y531155D02*
G03X454936Y532556I496J2310D01*
G01X452260Y531155D02*
G03X452033Y530898I-41J-193D01*
G01X448061Y528522D02*
G03X452033Y530898I1742J1596D01*
G01X448061Y528522D02*
G03X447758Y528507I-145J-133D01*
G01X443880Y531199D02*
G03X447758Y528507I1986J-1278D01*
G01X443879Y531199D02*
G03X443728Y531502I-165J107D01*
G01X442171Y532246D02*
G03X443728Y531502I1727J1612D01*
G01X442171Y532246D02*
G03X441831Y532111I-143J-135D01*
G01Y530881*
G03X441884Y530746I197J-0*
G01X440212Y526772D02*
G03X441884Y530746I-55J2362D01*
G01X440212Y526772D02*
G03X440091Y526424I5J-197D01*
G01X440092Y522789D02*
G03X440091Y526424I-1509J1817D01*
G01X440092Y522789D02*
G03Y522486I126J-151D01*
G01X436222Y520589D02*
G03X440092Y522486I2361J80D01*
G01X436222Y520589D02*
G03X436164Y520721I-197J-7D01*
G01X435647Y521238*
X434941Y522944D02*
G03X435647Y521238I2411J-0D01*
G01X434941Y522944D02*
Y534300D01*
G03X434706Y534493I-197J-0*
G01Y539129D02*
G03Y534493I-454J-2318D01*
G01Y539129D02*
G03X434941Y539322I38J193D01*
G01Y545364*
X435647Y547069D02*
G03X434941Y545364I1705J-1705D01*
G01X435647Y547069D02*
X436064Y547486D01*
G03X436122Y547625I-139J139*
G01Y559537*
X436828Y561242D02*
G03X436122Y559537I1705J-1705D01*
G01X436828Y561242D02*
X455788Y580202D01*
G03X455729Y580520I-139J139*
G01X454422Y582028D02*
G03X455729Y580520I2271J649D01*
G01X454422Y582028D02*
G03X454043I-190J-54D01*
G01X450299Y584524D02*
G03X454043Y582028I1473J-1847D01*
G01X450299Y584524D02*
G03X450142Y584872I-123J154D01*
G01X448908Y585058D02*
G03X450142Y584872I895J1753D01*
G01X448908Y585058D02*
G03X448729I-89J-176D01*
G01X447477Y584875D02*
G03X448729Y585058I358J1936D01*
G01X447477Y584875D02*
G03X447244Y584679I-36J-193D01*
G01X442520D02*
G03X447244I2362J-33D01*
G01X442520D02*
G03X442287Y584875I-197J3D01*
G01X441034Y585058D02*
G03X442287Y584875I895J1753D01*
G01X441034Y585058D02*
G03X440855I-89J-176D01*
G01X439066D02*
G03X440855I895J1753D01*
G01X439066D02*
G03X438887I-90J-176D01*
G01X437097D02*
G03X438887I895J1753D01*
G01X437097D02*
G03X436918I-89J-176D01*
G01X435129D02*
G03X436918I895J1753D01*
G01X435129D02*
G03X434950I-90J-176D01*
G01X433160D02*
G03X434950I895J1753D01*
G01X433160D02*
G03X432981I-89J-176D01*
G01X431192D02*
G03X432981I895J1753D01*
G01X431192D02*
G03X431013I-90J-176D01*
G01X429223D02*
G03X431013I895J1753D01*
G01X429223D02*
G03X429044I-89J-176D01*
G01X427255D02*
G03X429044I895J1753D01*
G01X427255D02*
G03X427076I-90J-176D01*
G01X425286D02*
G03X427076I895J1753D01*
G01X425286D02*
G03X425107I-89J-176D01*
G01X423318D02*
G03X425107I895J1753D01*
G01X423318D02*
G03X423139I-90J-176D01*
G01X422780Y584917D02*
G03X423139Y585058I-536J1894D01*
G01X422780Y584917D02*
G03X422637Y584721I53J-190D01*
G01X417915D02*
G03X422637I2361J-75D01*
G01X417915D02*
G03X417771Y584917I-197J6D01*
G01X417412Y585058D02*
G03X417771Y584917I895J1753D01*
G01X417412Y585058D02*
G03X417233I-89J-176D01*
G01X415444D02*
G03X417233I895J1753D01*
G01X415444D02*
G03X415265I-90J-176D01*
G01X413475D02*
G03X415265I895J1753D01*
G01X413475D02*
G03X413296I-89J-176D01*
G01X411507D02*
G03X413296I895J1753D01*
G01X411507D02*
G03X411328I-90J-176D01*
G01X408465Y586811D02*
G03X411328Y585058I1968J0D01*
G01X408465Y586811D02*
Y591142D01*
X408608Y591880D02*
G03X408465Y591142I1825J-738D01*
G01X408608Y591880D02*
G03X408398Y592149I-182J74D01*
G01X405709Y594479D02*
G03X408398Y592149I2362J9D01*
G01X405709Y594479D02*
G03X405708Y594488I-197J-1D01*
X405709Y594498I-196J11*
G01X410165Y593396D02*
G03X405709Y594498I-2094J1092D01*
G01X410165Y593396D02*
G03X410349Y593108I175J-91D01*
G01X411328Y592895D02*
G03X410349Y593108I-895J-1753D01*
G01X411328Y592895D02*
G03X411507I89J175D01*
G01X413296D02*
G03X411507I-894J-1753D01*
G01X413296D02*
G03X413475I90J175D01*
G01X415265D02*
G03X413475I-895J-1753D01*
G01X415265D02*
G03X415444I89J175D01*
G01X417233D02*
G03X415444I-894J-1753D01*
G01X417233D02*
G03X417412I90J175D01*
G01X419202D02*
G03X417412I-895J-1753D01*
G01X419202D02*
G03X419381I89J175D01*
G01X421170D02*
G03X419381I-894J-1753D01*
G01X421170D02*
G03X421349I90J175D01*
G01X423139D02*
G03X421349I-895J-1753D01*
G01X423139D02*
G03X423318I89J175D01*
G01X425107D02*
G03X423318I-894J-1753D01*
G01X425107D02*
G03X425286I90J175D01*
G01X426391Y593099D02*
G03X425286Y592895I-210J-1957D01*
G01X426391Y593099D02*
G03X426515Y593462I21J196D01*
G01X428801Y593354D02*
G03X426515Y593462I-1045J2118D01*
G01X428801Y593354D02*
G03X428821Y592992I87J-177D01*
G01X429044Y592895D02*
G03X428821Y592992I-894J-1753D01*
G01X429044Y592895D02*
G03X429223I90J175D01*
G01X431013D02*
G03X429223I-895J-1753D01*
G01X431013D02*
G03X431192I89J175D01*
G01X432981D02*
G03X431192I-894J-1753D01*
G01X432981D02*
G03X433160I90J175D01*
G01X434950D02*
G03X433160I-895J-1753D01*
G01X434950D02*
G03X435129I89J175D01*
G01X436894Y592907D02*
G03X435129Y592895I-870J-1765D01*
G01X436894Y592907D02*
G03X437107Y593235I87J177D01*
G01X436614Y594291D02*
G03X437107Y593235I1378J0D01*
G01X436614Y594291D02*
Y596654D01*
X437992Y598032D02*
G03X436614Y596654I0J-1378D01*
G01X437992Y598032D02*
X439961D01*
X440822Y597729D02*
G03X439961Y598032I-861J-1075D01*
G01X440822Y597729D02*
G03X441068I123J154D01*
G01X441929Y598032D02*
G03X441068Y597729I0J-1378D01*
G01X441929Y598032D02*
X443898D01*
X444565Y597859D02*
G03X443898Y598032I-667J-1205D01*
G01X444565Y597859D02*
G03X444660Y597835I95J173D01*
G01X445079*
X446253Y593423D02*
G03X445079Y597835I-1174J2049D01*
G01X446253Y593423D02*
G03X446307Y593060I98J-171D01*
G01X446761Y592895D02*
G03X446307Y593060I-895J-1753D01*
G01X446761Y592895D02*
G03X446940I89J175D01*
G01X448729D02*
G03X446940I-894J-1753D01*
G01X448729D02*
G03X448908I90J175D01*
G01X450698D02*
G03X448908I-895J-1753D01*
G01X450698D02*
G03X450877I89J175D01*
G01X452666D02*
G03X450877I-894J-1753D01*
G01X452666D02*
G03X452845I90J175D01*
G01X454635D02*
G03X452845I-895J-1753D01*
G01X454635D02*
G03X454814I89J175D01*
G01X456603D02*
G03X454814I-894J-1753D01*
G01X456603D02*
G03X456782I90J175D01*
G01X458572D02*
G03X456782I-895J-1753D01*
G01X458572D02*
G03X458751I89J175D01*
G01X460540D02*
G03X458751I-894J-1753D01*
G01X460540D02*
G03X460719I90J175D01*
G01X462509D02*
G03X460719I-895J-1753D01*
G01X462509D02*
G03X462688I89J175D01*
G01X463950Y593076D02*
G03X462688Y592895I-367J-1934D01*
G01X463950Y593076D02*
G03X464183Y593287I37J193D01*
G01X467794Y595503D02*
G03X464183Y593287I-1259J-1999D01*
G01X467794Y595503D02*
G03X467899Y595472I105J166D01*
G01X468012*
X469539Y595116D02*
G03X468012Y595472I-1527J-3088D01*
G01X469539Y595116D02*
G03X469767Y595154I87J176D01*
G01X473805Y593250D02*
G03X469767Y595154I-2348J254D01*
G01X473805Y593250D02*
G03X473949Y593039I196J-21D01*
G01X474320Y592895D02*
G03X473949Y593039I-895J-1753D01*
G01X474320Y592895D02*
G03X474499I89J175D01*
G01X476288D02*
G03X474499I-894J-1753D01*
G01X476288D02*
G03X476467I90J175D01*
G01X478257D02*
G03X476467I-895J-1753D01*
G01X478257D02*
G03X478436I89J175D01*
G01X481299Y591142D02*
G03X478436Y592895I-1968J-0D01*
G01X405315Y594488D02*
G03Y594479I197J-10D01*
G01Y594498D02*
G03Y594479I-2362J-10D01*
G01Y594498D02*
G03Y594488I197J1D01*
G01X435039Y555512D02*
G03X435039I-2362J0D01*
G01X424384Y524591D02*
G03X420104I-2140J1000D01*
G01X424384D02*
G03Y524425I179J-83D01*
G01X420104D02*
G03X424384I2140J-1000D01*
G01X420104D02*
G03Y524591I-179J83D01*
G01X426842Y548216D02*
G03X423713Y551505I-2039J1193D01*
G01X426842Y548216D02*
G03X426827Y548050I170J-99D01*
G01X423607Y545104D02*
G03X426827Y548050I999J2140D01*
G01X423607Y545104D02*
G03X423440I-83J-179D01*
G01X420301Y548243D02*
G03X423440Y545104I2140J-999D01*
G01X420301Y548243D02*
G03Y548410I-179J84D01*
G01X423531Y551505D02*
G03X420301Y548410I-1090J-2096D01*
G01X423531Y551505D02*
G03X423713I91J175D01*
G01X416535Y558071D02*
G03X416535I-2362J0D01*
G01X433858Y525197D02*
G03X433858I-2362J0D01*
G01X442717Y576772D02*
G03X442717I-2363J0D01*
G01X458071Y476575D02*
Y474213D01*
X456693Y472835D02*
G03X458071Y474213I-0J1378D01*
G01X456693Y472835D02*
X454724D01*
X454380Y472878D02*
G03X454724Y472835I344J1335D01*
G01X454380Y472878D02*
G03X454134Y472688I-49J-190D01*
G01Y472047*
X449500Y471398D02*
G03X454134Y472047I2272J649D01*
G01X449500Y471398D02*
G03X449122I-189J-54D01*
G01X444488Y472047D02*
G03X449122Y471398I2362J0D01*
G01X444488Y472047D02*
Y472688D01*
G03X444242Y472878I-197J-0*
G01X443898Y472835D02*
G03X444242Y472878I-0J1378D01*
G01X443898Y472835D02*
X441929D01*
X440551Y474213D02*
G03X441929Y472835I1378J-0D01*
G01X440551Y474213D02*
Y476575D01*
X441929Y477953D02*
G03X440551Y476575I0J-1378D01*
G01X441929Y477953D02*
X443898D01*
X444759Y477650D02*
G03X443898Y477953I-861J-1075D01*
G01X444759Y477650D02*
G03X445005I123J154D01*
G01X445866Y477953D02*
G03X445005Y477650I0J-1378D01*
G01X445866Y477953D02*
X447835D01*
X449126Y477054D02*
G03X447835Y477953I-1291J-479D01*
G01X449126Y477054D02*
G03X449496I185J69D01*
G01X450787Y477953D02*
G03X449496Y477054I0J-1378D01*
G01X450787Y477953D02*
X452756D01*
X453617Y477650D02*
G03X452756Y477953I-861J-1075D01*
G01X453617Y477650D02*
G03X453863I123J154D01*
G01X454724Y477953D02*
G03X453863Y477650I0J-1378D01*
G01X454724Y477953D02*
X456693D01*
X458071Y476575D02*
G03X456693Y477953I-1378J-0D01*
G01X479285Y491301D02*
G03X475833I-1726J1612D01*
G01X479285D02*
G03X479232Y491167I144J-134D01*
G01Y484361*
X478526Y482656D02*
G03X479232Y484361I-1705J1705D01*
G01X478526Y482656D02*
X476006Y480135D01*
X474301Y479429D02*
G03X476006Y480135I-0J2412D01*
G01X474301Y479429D02*
X429440D01*
X427734Y480135D02*
G03X429440Y479429I1706J1706D01*
G01X427734Y480135D02*
X426002Y481868D01*
X425379Y482944D02*
G03X426002Y481868I2328J629D01*
G01X425379Y482944D02*
G03X425288Y483063I-190J-51D01*
G01X424622Y484046D02*
G03X425288Y483063I1362J206D01*
G01X424622Y484046D02*
G03X424538Y484179I-195J-30D01*
G01X424191Y484466D02*
G03X424538Y484179I1705J1705D01*
G01X424191Y484466D02*
X423246Y485412D01*
X422539Y487117D02*
G03X423246Y485412I2412J-0D01*
G01X422539Y487117D02*
Y491954D01*
G03X422486Y492088I-197J-0*
G01X425485Y495691D02*
G03X422486Y492088I-1272J-1990D01*
G01X425485Y495691D02*
G03X425697I106J166D01*
G01X429089Y492660D02*
G03X425697Y495691I-2120J1041D01*
G01X429089Y492660D02*
G03X429348Y492395I177J-86D01*
G01X429921Y492520D02*
G03X429348Y492395I0J-1378D01*
G01X429921Y492520D02*
X431890D01*
X433268Y491142D02*
G03X431890Y492520I-1378J-0D01*
G01X433268Y491142D02*
Y488780D01*
X432890Y487832D02*
G03X433268Y488780I-1000J948D01*
G01X432890Y487832D02*
G03Y487562I143J-135D01*
G01X433268Y486614D02*
G03X432890Y487562I-1378J0D01*
G01X433268Y486614D02*
Y484252D01*
X432693Y483132D02*
G03X433268Y484252I-803J1120D01*
G01X432693Y483132D02*
G03X432808Y482776I115J-160D01*
G01X473832*
G03X473971Y482833I-0J196*
G01X475828Y484691*
G03X475886Y484830I-139J139*
G01Y491167*
G03X475833Y491301I-197J-0*
G01X474016Y491142D02*
Y489173D01*
X473713Y488312D02*
G03X474016Y489173I-1075J861D01*
G01X473713Y488312D02*
G03Y488066I154J-123D01*
G01X474016Y487205D02*
G03X473713Y488066I-1378J-0D01*
G01X474016Y487205D02*
Y485236D01*
X472638Y483858D02*
G03X474016Y485236I-0J1378D01*
G01X472638Y483858D02*
X470276D01*
X469156Y484433D02*
G03X470276Y483858I1120J803D01*
G01X469156Y484433D02*
G03X468836I-160J-115D01*
G01X467717Y483858D02*
G03X468836Y484433I-0J1378D01*
G01X467717Y483858D02*
X465354D01*
X463976Y485236D02*
G03X465354Y483858I1378J0D01*
G01X463976Y485236D02*
Y487205D01*
X464279Y488066D02*
G03X463976Y487205I1075J-861D01*
G01X464279Y488066D02*
G03Y488312I-154J123D01*
G01X463976Y489173D02*
G03X464279Y488312I1378J0D01*
G01X463976Y489173D02*
Y490357D01*
G03X463770Y490554I-196J0*
G01X462499Y490857D02*
G03X463770Y490554I1162J2056D01*
G01X462499Y490857D02*
G03X462205Y490686I-97J-171D01*
G01Y489173*
X461902Y488312D02*
G03X462205Y489173I-1075J861D01*
G01X461902Y488312D02*
G03Y488066I154J-123D01*
G01X462205Y487205D02*
G03X461902Y488066I-1378J-0D01*
G01X462205Y487205D02*
Y485236D01*
X460827Y483858D02*
G03X462205Y485236I-0J1378D01*
G01X460827Y483858D02*
X458465D01*
X457797Y484030D02*
G03X458465Y483858I668J1206D01*
G01X457797Y484030D02*
G03X457702Y484055I-95J-172D01*
G01X456668*
G03X456573Y484030I-0J-197*
G01X455906Y483858D02*
G03X456573Y484030I-0J1378D01*
G01X455906Y483858D02*
X453543D01*
X452876Y484030D02*
G03X453543Y483858I667J1206D01*
G01X452876Y484030D02*
G03X452781Y484055I-95J-172D01*
G01X445841*
G03X445746Y484030I0J-197*
G01X445079Y483858D02*
G03X445746Y484030I-0J1378D01*
G01X445079Y483858D02*
X442717D01*
X442049Y484030D02*
G03X442717Y483858I668J1206D01*
G01X442049Y484030D02*
G03X441954Y484055I-95J-172D01*
G01X440920*
G03X440825Y484030I-0J-197*
G01X440157Y483858D02*
G03X440825Y484030I0J1378D01*
G01X440157Y483858D02*
X437795D01*
X436909Y484181D02*
G03X437795Y483858I886J1055D01*
G01X436909Y484181D02*
G03X436837Y484220I-127J-150D01*
G01X433858Y488189D02*
G03X436837Y484220I4134J-0D01*
G01X433858Y488189D02*
Y495079D01*
X433860Y495167D02*
G03X433858Y495079I2164J-88D01*
G01X433860Y495167D02*
G03Y495183I-197J8D01*
G01X438576Y495456D02*
G03X433860Y495183I-2356J-180D01*
G01X438576Y495456D02*
G03X438779Y495274I196J15D01*
G01X440676Y494422D02*
G03X438779Y495274I-1818J-1509D01*
G01X440676Y494422D02*
G03X440985Y494430I151J126D01*
G01X445216Y492706D02*
G03X440985Y494430I-2342J306D01*
G01X445216Y492706D02*
G03X445370Y492489I196J-25D01*
G01X446457Y491142D02*
G03X445370Y492489I-1378J-0D01*
G01X446457Y491142D02*
Y489173D01*
X446356Y488657D02*
G03X446457Y489173I-1277J516D01*
G01X446356Y488657D02*
G03X446539Y488386I183J-74D01*
G01X452083*
G03X452266Y488657I0J197*
G01X452165Y489173D02*
G03X452266Y488657I1378J0D01*
G01X452165Y489173D02*
Y491142D01*
X452582Y492129D02*
G03X452165Y491142I961J-987D01*
G01X452582Y492129D02*
G03X452635Y492319I-138J141D01*
G01X452569Y492696D02*
G03X452635Y492319I2352J217D01*
G01X452569Y492696D02*
G03X452512Y492817I-196J-18D01*
G01X452080Y493249*
G03X451941Y493307I-139J-139*
G01X447849*
X445900Y494114D02*
G03X447849Y493307I1949J1949D01*
G01X445900Y494114D02*
X443801Y496213D01*
G03X443680Y496270I-139J-139*
G01X443888Y500984D02*
G03X443680Y496270I10J-2362D01*
G01X443888Y500984D02*
G03X443898Y500985I-1J197D01*
X443907Y500984I10J196*
G01X445260Y500552D02*
G03X443907Y500984I-1362J-1930D01*
G01X445260Y500552D02*
G03X445488I114J160D01*
G01X449184Y498985D02*
G03X445488Y500552I-2334J-363D01*
G01X449184Y498985D02*
G03X449379Y498819I195J31D01*
G01X454395*
X456344Y498012D02*
G03X454395Y498819I-1949J-1949D01*
G01X456344Y498012D02*
X459034Y495322D01*
G03X459155Y495266I139J140*
G01X461118Y493822D02*
G03X459155Y495266I-2181J-909D01*
G01X461118Y493822D02*
G03X461481I181J76D01*
G01X465303Y494612D02*
G03X461481Y493822I-1642J-1699D01*
G01X465303Y494612D02*
G03X465410Y494559I136J142D01*
G01X466754Y493880D02*
G03X465410Y494559I-1705J-1705D01*
G01X466754Y493880D02*
X467502Y493132D01*
X467916Y492578D02*
G03X467502Y493132I-2119J-1151D01*
G01X467916Y492578D02*
G03X468042Y492481I173J94D01*
G01X468287Y492396D02*
G03X468042Y492481I-570J-1254D01*
G01X468287Y492396D02*
G03X468564Y492601I82J179D01*
G01X473237Y492534D02*
G03X468564Y492601I-2331J379D01*
G01X473237Y492534D02*
G03X473332Y492332I194J-32D01*
G01X474016Y491142D02*
G03X473332Y492332I-1378J-0D01*
G01X460827Y659487D02*
X493898D01*
X460827Y659133D02*
X493898D01*
X460827Y658778D02*
X493898D01*
X460827Y658424D02*
X493898D01*
X460827Y658070D02*
X493898D01*
X460827Y657715D02*
X493898D01*
X460827Y657361D02*
X493898D01*
X460827Y657007D02*
X493898D01*
X460827Y656652D02*
X493898D01*
X460827Y656298D02*
X493898D01*
X460818Y655944D02*
X493898D01*
X460728Y655589D02*
X493898D01*
X460519Y655235D02*
X493898D01*
X460453Y654881D02*
X493898D01*
X460694Y654526D02*
X493898D01*
X460807Y654172D02*
X493898D01*
X460827Y653818D02*
X493898D01*
X460827Y653463D02*
X493898D01*
X460827Y653109D02*
X493898D01*
X460827Y652755D02*
X493898D01*
X460827Y652400D02*
X493898D01*
X460827Y652046D02*
X493898D01*
X460827Y651692D02*
X493898D01*
X460827Y651337D02*
X493898D01*
X460827Y650983D02*
X493898D01*
X460827Y650629D02*
X493898D01*
X460822Y650274D02*
X493898D01*
X460743Y649920D02*
X493898D01*
X460550Y649566D02*
X493898D01*
X460156Y649211D02*
X493898D01*
X456500Y648857D02*
X493898D01*
X456496Y648503D02*
X493898D01*
X456499Y648148D02*
X493898D01*
X456597Y647794D02*
X493898D01*
X456892Y647440D02*
X493898D01*
X487409Y647085D02*
X493898D01*
X488314Y646731D02*
X493898D01*
X488886Y646377D02*
X493898D01*
X489314Y646022D02*
X493898D01*
X489654Y645668D02*
X493898D01*
X489929Y645314D02*
X493898D01*
X490154Y644959D02*
X493898D01*
X490335Y644605D02*
X493898D01*
X490480Y644251D02*
X493898D01*
X490592Y643896D02*
X493898D01*
X490672Y643542D02*
X493898D01*
X490723Y643188D02*
X493898D01*
X490747Y642833D02*
X493898D01*
X490742Y642479D02*
X493898D01*
X490709Y642125D02*
X493898D01*
X490648Y641770D02*
X493898D01*
X490557Y641416D02*
X493898D01*
X490435Y641062D02*
X493898D01*
X490278Y640707D02*
X493898D01*
X490082Y640353D02*
X493898D01*
X489842Y639999D02*
X493898D01*
X489546Y639644D02*
X493898D01*
X489180Y639290D02*
X493898D01*
X488711Y638936D02*
X493898D01*
X488064Y638581D02*
X493898D01*
X486806Y638227D02*
X493898D01*
X474954Y637873D02*
X493898D01*
X475844Y637518D02*
X493898D01*
X490144Y637164D02*
X493898D01*
X490502Y636810D02*
X493898D01*
X490679Y636455D02*
X493898D01*
X490746Y636101D02*
X493898D01*
X490748Y635747D02*
X493898D01*
X490748Y635392D02*
X493898D01*
X490748Y635038D02*
X493898D01*
X490748Y634684D02*
X493898D01*
X490748Y634329D02*
X493898D01*
X490748Y633975D02*
X493898D01*
X490748Y633621D02*
X493898D01*
X490748Y633266D02*
X493898D01*
X490748Y632912D02*
X493898D01*
X490748Y632558D02*
X493898D01*
X490748Y632203D02*
X493898D01*
X490748Y631849D02*
X493898D01*
X490748Y631495D02*
X493898D01*
X490748Y631140D02*
X493898D01*
X490748Y630786D02*
X493898D01*
X490748Y630432D02*
X493898D01*
X490748Y630077D02*
X493898D01*
X490748Y629723D02*
X493898D01*
X490748Y629369D02*
X493898D01*
X490748Y629014D02*
X493898D01*
X490748Y628660D02*
X493898D01*
X490748Y628306D02*
X493898D01*
X490748Y627951D02*
X493898D01*
X490748Y627597D02*
X493898D01*
X490748Y627243D02*
X493898D01*
X490748Y626888D02*
X493898D01*
X490748Y626534D02*
X493898D01*
X490748Y626180D02*
X493898D01*
X490748Y625825D02*
X493898D01*
X490748Y625471D02*
X493898D01*
X490748Y625117D02*
X493898D01*
X490748Y624762D02*
X493898D01*
X490748Y624408D02*
X493898D01*
X490748Y624054D02*
X493898D01*
X490748Y623699D02*
X493898D01*
X490748Y623345D02*
X493898D01*
X490748Y622991D02*
X493898D01*
X490748Y622636D02*
X493898D01*
X490748Y622282D02*
X493898D01*
X490748Y621928D02*
X493898D01*
X490748Y621573D02*
X493898D01*
X490748Y621219D02*
X493898D01*
X490748Y620865D02*
X493898D01*
X490748Y620510D02*
X493898D01*
X490748Y620156D02*
X493898D01*
X490748Y619802D02*
X493898D01*
X490748Y619448D02*
X493898D01*
X490748Y619093D02*
X493898D01*
X490748Y618739D02*
X493898D01*
X490748Y618385D02*
X493898D01*
X490748Y618030D02*
X493898D01*
X490748Y617676D02*
X493898D01*
X490748Y617322D02*
X493898D01*
X490748Y616967D02*
X493898D01*
X490748Y616613D02*
X493898D01*
X490748Y616259D02*
X493898D01*
X490748Y615904D02*
X493898D01*
X490748Y615550D02*
X493898D01*
X490748Y615196D02*
X493898D01*
X490748Y614841D02*
X493898D01*
X490748Y614487D02*
X493898D01*
X490748Y614133D02*
X493898D01*
X490748Y613778D02*
X493898D01*
X490748Y613424D02*
X493898D01*
X490748Y613070D02*
X493898D01*
X490748Y612715D02*
X493898D01*
X490748Y612361D02*
X493898D01*
X490748Y612007D02*
X493898D01*
X490748Y611652D02*
X493898D01*
X490748Y611298D02*
X493898D01*
X490748Y610944D02*
X493898D01*
X490748Y610589D02*
X493898D01*
X490748Y610235D02*
X493898D01*
X460827Y659841D02*
X493883D01*
X490739Y609881D02*
X493862D01*
X470333Y660196D02*
X493801D01*
X490649Y609526D02*
X493749D01*
X470955Y660550D02*
X493633D01*
X490441Y609172D02*
X493542D01*
X471315Y660904D02*
X493345D01*
X490013Y608818D02*
X493187D01*
X471555Y661259D02*
X492991D01*
X471715Y661613D02*
X492636D01*
X471810Y661967D02*
X492282D01*
X471849Y662322D02*
X491928D01*
X471834Y662676D02*
X491573D01*
X486643Y663030D02*
X491219D01*
X487524Y663385D02*
X490865D01*
X487944Y663739D02*
X490510D01*
X488218Y664093D02*
X490156D01*
X488402Y664448D02*
X489802D01*
X488517Y664802D02*
X489447D01*
X488574Y665156D02*
X489093D01*
X471765Y663030D02*
X485798D01*
X474428Y638227D02*
X485635D01*
X472296Y647085D02*
X485032D01*
X471636Y663385D02*
X484917D01*
X471435Y663739D02*
X484497D01*
X467409Y666928D02*
X484400D01*
X474045Y638581D02*
X484377D01*
X471137Y664093D02*
X484223D01*
X467683Y666573D02*
X484197D01*
X472726Y646731D02*
X484127D01*
X470669Y664448D02*
X484039D01*
X468037Y666219D02*
X484022D01*
X469457Y664802D02*
X483924D01*
X468391Y665865D02*
X483914D01*
X469100Y665156D02*
X483867D01*
X468746Y665510D02*
X483863D01*
X473751Y638936D02*
X483730D01*
X472933Y646377D02*
X483555D01*
X473522Y639290D02*
X483261D01*
X473023Y646022D02*
X483127D01*
X473344Y639644D02*
X482895D01*
X473032Y645668D02*
X482787D01*
X473210Y639999D02*
X482599D01*
X473032Y645314D02*
X482512D01*
X473116Y640353D02*
X482359D01*
X473032Y644959D02*
X482287D01*
X473057Y640707D02*
X482163D01*
X473032Y644605D02*
X482106D01*
X473032Y641062D02*
X482006D01*
X473032Y644251D02*
X481961D01*
X473032Y641416D02*
X481884D01*
X473032Y643896D02*
X481849D01*
X473032Y641770D02*
X481793D01*
X473032Y643542D02*
X481769D01*
X473032Y642125D02*
X481732D01*
X473032Y643188D02*
X481717D01*
X473032Y642479D02*
X481699D01*
X473032Y642833D02*
X481694D01*
X460827Y660196D02*
X468643D01*
X460827Y660550D02*
X468021D01*
X460825Y660904D02*
X467661D01*
X460757Y661259D02*
X467421D01*
X460581Y661613D02*
X467262D01*
X460222Y661967D02*
X467166D01*
X427357Y662322D02*
X467127D01*
X427827Y662676D02*
X466848D01*
X428127Y663030D02*
X466493D01*
X428328Y663385D02*
X466139D01*
X428457Y663739D02*
X465785D01*
X428527Y664093D02*
X465430D01*
X428542Y664448D02*
X465076D01*
X428504Y664802D02*
X464722D01*
X428474Y665156D02*
X464367D01*
X402888Y661967D02*
X443608D01*
X402945Y661613D02*
X443048D01*
X438697Y648503D02*
X442988D01*
X438664Y648857D02*
X442803D01*
X402947Y661259D02*
X442698D01*
X438775Y648148D02*
X442656D01*
X438765Y649211D02*
X442529D01*
X402896Y660904D02*
X442457D01*
X438780Y649566D02*
X442340D01*
X438780Y647794D02*
X442302D01*
X402788Y660550D02*
X442291D01*
X438780Y649920D02*
X442215D01*
X402930Y660196D02*
X442186D01*
X438780Y650274D02*
X442146D01*
X403093Y659841D02*
X442133D01*
X403149Y659487D02*
X442126D01*
X403150Y659133D02*
X442126D01*
X403150Y658778D02*
X442126D01*
X403150Y658424D02*
X442126D01*
X403150Y658070D02*
X442126D01*
X403150Y657715D02*
X442126D01*
X403144Y657361D02*
X442126D01*
X403066Y657007D02*
X442126D01*
X438175Y656652D02*
X442126D01*
X438533Y656298D02*
X442126D01*
X438710Y655944D02*
X442126D01*
X438777Y655589D02*
X442126D01*
X438780Y655235D02*
X442126D01*
X438780Y654881D02*
X442126D01*
X438780Y654526D02*
X442126D01*
X438780Y654172D02*
X442126D01*
X438780Y653818D02*
X442126D01*
X438780Y653463D02*
X442126D01*
X438779Y653109D02*
X442126D01*
X438722Y652755D02*
X442126D01*
X438630Y652400D02*
X442126D01*
X438752Y652046D02*
X442126D01*
X438780Y651692D02*
X442126D01*
X438780Y651337D02*
X442126D01*
X438780Y650983D02*
X442126D01*
X438780Y650629D02*
X442126D01*
X438780Y647440D02*
X441948D01*
X438780Y647085D02*
X441593D01*
X438780Y646731D02*
X441239D01*
X438780Y646377D02*
X440885D01*
X438780Y646022D02*
X440530D01*
X438780Y645668D02*
X440176D01*
X438733Y645314D02*
X439822D01*
X438583Y644959D02*
X439467D01*
X438277Y644605D02*
X439113D01*
X437464Y644251D02*
X438759D01*
X437402Y643896D02*
X438416D01*
X437735Y643542D02*
X438148D01*
X402873Y656652D02*
X432691D01*
X402903Y656298D02*
X432333D01*
X403080Y655944D02*
X431645D01*
X403147Y655589D02*
X431075D01*
X403150Y655235D02*
X430679D01*
X403150Y654881D02*
X430383D01*
X403150Y654526D02*
X430157D01*
X403150Y654172D02*
X429986D01*
X403150Y653818D02*
X429862D01*
X403147Y653463D02*
X429779D01*
X403079Y653109D02*
X429734D01*
X402902Y652755D02*
X429724D01*
X402541Y652400D02*
X429724D01*
X400754Y652046D02*
X429724D01*
X400492Y651692D02*
X429724D01*
X400492Y651337D02*
X429724D01*
X400492Y650983D02*
X429724D01*
X400492Y650629D02*
X429724D01*
X400492Y650274D02*
X429724D01*
X400492Y649920D02*
X429724D01*
X400492Y649566D02*
X429724D01*
X400492Y649211D02*
X429724D01*
X400492Y648857D02*
X429724D01*
X400492Y648503D02*
X429724D01*
X400492Y648148D02*
X429724D01*
X400492Y647794D02*
X429724D01*
X400492Y647440D02*
X429724D01*
X425052Y647085D02*
X429724D01*
X425482Y646731D02*
X429724D01*
X425689Y646377D02*
X429724D01*
X425779Y646022D02*
X429724D01*
X425787Y645668D02*
X429724D01*
X425787Y645314D02*
X429724D01*
X425787Y644959D02*
X429724D01*
X425787Y644605D02*
X429724D01*
X425787Y644251D02*
X429724D01*
X425806Y643896D02*
X426514D01*
X402773Y662322D02*
X425005D01*
X402590Y662676D02*
X424535D01*
X402316Y663030D02*
X424236D01*
X402043Y663385D02*
X424034D01*
X402326Y663739D02*
X423905D01*
X403743Y665156D02*
X423888D01*
X403389Y664802D02*
X423859D01*
X402680Y664093D02*
X423835D01*
X403034Y664448D02*
X423820D01*
X407335Y647085D02*
X417468D01*
X407766Y646731D02*
X417037D01*
X407973Y646377D02*
X416830D01*
X408062Y646022D02*
X416741D01*
X408071Y645668D02*
X416732D01*
X408071Y645314D02*
X416732D01*
X408071Y644959D02*
X416732D01*
X408071Y644605D02*
X416732D01*
X414947Y644251D02*
X416732D01*
X415305Y643896D02*
X416732D01*
X415482Y643542D02*
X416732D01*
X415549Y643188D02*
X416732D01*
X415551Y642833D02*
X416732D01*
X415551Y642479D02*
X416732D01*
X415551Y642125D02*
X416732D01*
X415551Y641770D02*
X416732D01*
X415551Y641416D02*
X416732D01*
X415551Y641062D02*
X416732D01*
X408071Y644251D02*
X409856D01*
X408071Y643896D02*
X409498D01*
X408071Y643542D02*
X409321D01*
X408071Y643188D02*
X409254D01*
X408071Y642833D02*
X409252D01*
X408071Y642479D02*
X409252D01*
X408071Y642125D02*
X409252D01*
X408071Y641770D02*
X409252D01*
X408071Y641416D02*
X409252D01*
X408071Y641062D02*
X409252D01*
X436941Y414290D02*
X439787D01*
X435687Y414644D02*
X439436D01*
X433387Y414999D02*
X439082D01*
X433033Y415353D02*
X438728D01*
X437537Y413936D02*
X438595D01*
X432678Y415707D02*
X438373D01*
X432324Y416062D02*
X438019D01*
X431970Y416416D02*
X437665D01*
X431615Y416770D02*
X437310D01*
X431261Y417125D02*
X436956D01*
X430907Y417479D02*
X436602D01*
X430552Y417833D02*
X436247D01*
X430198Y418188D02*
X435905D01*
X429844Y418542D02*
X435656D01*
X429489Y418896D02*
X435489D01*
X429135Y419251D02*
X435386D01*
X428781Y419605D02*
X435339D01*
X434818Y425274D02*
X435335D01*
X434582Y424920D02*
X435335D01*
X434202Y424566D02*
X435335D01*
X434235Y424211D02*
X435335D01*
X434364Y423857D02*
X435335D01*
X434433Y423503D02*
X435335D01*
X434447Y423148D02*
X435335D01*
X434409Y422794D02*
X435335D01*
X434313Y422440D02*
X435335D01*
X434154Y422085D02*
X435335D01*
X433914Y421731D02*
X435335D01*
X433553Y421377D02*
X435335D01*
X432931Y421022D02*
X435335D01*
X427718Y420668D02*
X435335D01*
X428072Y420314D02*
X435335D01*
X428426Y419959D02*
X435335D01*
X434964Y425629D02*
X435311D01*
X433741Y414644D02*
X434884D01*
X429979Y421022D02*
X431242D01*
X427363D02*
X428289D01*
X427009Y421377D02*
X427667D01*
X425787Y424920D02*
X427453D01*
X425278Y429172D02*
X427398D01*
X425787Y425274D02*
X427387D01*
X425311Y427046D02*
X427365D01*
X425119Y427400D02*
X427314D01*
X426655Y421731D02*
X427307D01*
X425053Y428818D02*
X427282D01*
X425379Y429526D02*
X427256D01*
X425777Y425629D02*
X427244D01*
X425434Y426692D02*
X427233D01*
X424728Y427755D02*
X427205D01*
X424571Y428463D02*
X427190D01*
X425787Y424566D02*
X427187D01*
X425394Y429881D02*
X427180D01*
X425719Y425983D02*
X427175D01*
X425607Y426337D02*
X427172D01*
X423831Y428109D02*
X427166D01*
X425394Y430235D02*
X427160D01*
X426300Y422085D02*
X427067D01*
X425787Y424211D02*
X426986D01*
X425950Y422440D02*
X426907D01*
X425787Y423857D02*
X426857D01*
X425793Y422794D02*
X426812D01*
X425787Y423503D02*
X426788D01*
X425787Y423148D02*
X426773D01*
X425394Y430589D02*
X426454D01*
X425394Y430944D02*
X425954D01*
X491628Y604211D02*
X493898D01*
X491987Y603857D02*
X493898D01*
X492226Y603503D02*
X493898D01*
X492385Y603148D02*
X493898D01*
X492480Y602794D02*
X493898D01*
X492518Y602440D02*
X493898D01*
X492503Y602085D02*
X493898D01*
X492434Y601731D02*
X493898D01*
X492304Y601377D02*
X493898D01*
X492103Y601022D02*
X493898D01*
X491804Y600668D02*
X493898D01*
X491334Y600314D02*
X493898D01*
X398720Y599959D02*
X493898D01*
X398720Y599605D02*
X493898D01*
X398720Y599251D02*
X493898D01*
X398720Y598896D02*
X493898D01*
X398720Y598542D02*
X493898D01*
X398720Y598188D02*
X493898D01*
X445158Y597833D02*
X493898D01*
X446325Y597479D02*
X493898D01*
X446767Y597125D02*
X493898D01*
X447052Y596770D02*
X493898D01*
X447244Y596416D02*
X493898D01*
X447366Y596062D02*
X493898D01*
X472308Y595707D02*
X493898D01*
X472927Y595353D02*
X493898D01*
X473286Y594999D02*
X493898D01*
X473525Y594644D02*
X493898D01*
X473684Y594290D02*
X493898D01*
X473779Y593936D02*
X493898D01*
X473818Y593581D02*
X493898D01*
X473804Y593227D02*
X493898D01*
X480268Y592873D02*
X493898D01*
X480738Y592518D02*
X493898D01*
X481013Y592164D02*
X493898D01*
X481182Y591810D02*
X493898D01*
X481274Y591455D02*
X493898D01*
X481299Y591101D02*
X493898D01*
X481299Y590747D02*
X493898D01*
X481299Y590392D02*
X493898D01*
X481299Y590038D02*
X493898D01*
X485362Y589684D02*
X493898D01*
X485859Y589329D02*
X493898D01*
X486172Y588975D02*
X493898D01*
X486382Y588621D02*
X493898D01*
X486518Y588266D02*
X493898D01*
X486593Y587912D02*
X493898D01*
X486614Y587558D02*
X493898D01*
X486581Y587203D02*
X493898D01*
X486492Y586849D02*
X493898D01*
X486341Y586495D02*
X493898D01*
X486111Y586140D02*
X493898D01*
X485767Y585786D02*
X493898D01*
X485193Y585432D02*
X493898D01*
X481004Y585077D02*
X493898D01*
X481004Y584723D02*
X493898D01*
X481004Y584369D02*
X493898D01*
X481004Y584014D02*
X493898D01*
X488852Y583660D02*
X493898D01*
X489908Y583306D02*
X493898D01*
X490293Y582951D02*
X493898D01*
X490528Y582597D02*
X493898D01*
X490670Y582243D02*
X493898D01*
X490738Y581888D02*
X493898D01*
X490742Y581534D02*
X493898D01*
X490680Y581180D02*
X493898D01*
X490547Y580825D02*
X493898D01*
X490601Y580471D02*
X493898D01*
X490785Y580117D02*
X493898D01*
X491798Y579762D02*
X493898D01*
X492239Y579408D02*
X493898D01*
X492525Y579054D02*
X493898D01*
X492717Y578699D02*
X493898D01*
X492839Y578345D02*
X493898D01*
X492902Y577991D02*
X493898D01*
X492910Y577636D02*
X493898D01*
X492865Y577282D02*
X493898D01*
X492764Y576928D02*
X493898D01*
X492596Y576573D02*
X493898D01*
X492345Y576219D02*
X493898D01*
X491967Y575865D02*
X493898D01*
X491285Y575510D02*
X493898D01*
X490644Y575156D02*
X493898D01*
X490511Y574802D02*
X493898D01*
X490645Y574448D02*
X493898D01*
X490729Y574093D02*
X493898D01*
X490746Y573739D02*
X493898D01*
X490700Y573385D02*
X493898D01*
X490583Y573030D02*
X493898D01*
X490567Y572676D02*
X493898D01*
X490691Y572322D02*
X493898D01*
X490745Y571967D02*
X493898D01*
X490734Y571613D02*
X493898D01*
X490657Y571259D02*
X493898D01*
X490515Y570904D02*
X493898D01*
X490631Y570550D02*
X493898D01*
X490723Y570196D02*
X493898D01*
X490748Y569841D02*
X493898D01*
X490708Y569487D02*
X493898D01*
X490600Y569133D02*
X493898D01*
X490548Y568778D02*
X493898D01*
X490681Y568424D02*
X493898D01*
X490742Y568070D02*
X493898D01*
X490738Y567715D02*
X493898D01*
X490669Y567361D02*
X493898D01*
X490527Y567007D02*
X493898D01*
X490617Y566652D02*
X493898D01*
X490716Y566298D02*
X493898D01*
X490748Y565944D02*
X493898D01*
X490716Y565589D02*
X493898D01*
X490616Y565235D02*
X493898D01*
X490528Y564881D02*
X493898D01*
X490670Y564526D02*
X493898D01*
X490738Y564172D02*
X493898D01*
X490742Y563818D02*
X493898D01*
X490680Y563463D02*
X493898D01*
X490547Y563109D02*
X493898D01*
X490601Y562755D02*
X493898D01*
X490709Y562400D02*
X493898D01*
X490748Y562046D02*
X493898D01*
X490722Y561692D02*
X493898D01*
X490630Y561337D02*
X493898D01*
X490516Y560983D02*
X493898D01*
X490658Y560629D02*
X493898D01*
X490734Y560274D02*
X493898D01*
X490744Y559920D02*
X493898D01*
X490690Y559566D02*
X493898D01*
X490565Y559211D02*
X493898D01*
X490584Y558857D02*
X493898D01*
X490700Y558503D02*
X493898D01*
X490747Y558148D02*
X493898D01*
X490728Y557794D02*
X493898D01*
X490644Y557440D02*
X493898D01*
X490511Y557085D02*
X493898D01*
X490645Y556731D02*
X493898D01*
X490729Y556377D02*
X493898D01*
X490746Y556022D02*
X493898D01*
X490700Y555668D02*
X493898D01*
X490583Y555314D02*
X493898D01*
X490567Y554959D02*
X493898D01*
X490699Y554605D02*
X493898D01*
X491661Y554251D02*
X493898D01*
X492159Y553896D02*
X493898D01*
X492471Y553542D02*
X493898D01*
X492681Y553188D02*
X493898D01*
X492817Y552833D02*
X493898D01*
X492892Y552479D02*
X493898D01*
X492913Y552125D02*
X493898D01*
X492880Y551770D02*
X493898D01*
X492791Y551416D02*
X493898D01*
X492640Y551062D02*
X493898D01*
X492410Y550707D02*
X493898D01*
X492066Y550353D02*
X493898D01*
X491492Y549999D02*
X493898D01*
X490669Y549644D02*
X493898D01*
X490527Y549290D02*
X493898D01*
X490617Y548936D02*
X493898D01*
X490716Y548581D02*
X493898D01*
X490748Y548227D02*
X493898D01*
X490716Y547873D02*
X493898D01*
X490616Y547518D02*
X493898D01*
X490528Y547164D02*
X493898D01*
X490670Y546810D02*
X493898D01*
X490738Y546455D02*
X493898D01*
X490742Y546101D02*
X493898D01*
X490680Y545747D02*
X493898D01*
X490547Y545392D02*
X493898D01*
X490601Y545038D02*
X493898D01*
X490709Y544684D02*
X493898D01*
X490748Y544329D02*
X493898D01*
X490722Y543975D02*
X493898D01*
X490630Y543621D02*
X493898D01*
X490516Y543266D02*
X493898D01*
X490658Y542912D02*
X493898D01*
X490734Y542558D02*
X493898D01*
X490744Y542203D02*
X493898D01*
X490690Y541849D02*
X493898D01*
X490565Y541495D02*
X493898D01*
X490584Y541140D02*
X493898D01*
X490700Y540786D02*
X493898D01*
X490747Y540432D02*
X493898D01*
X490728Y540077D02*
X493898D01*
X490644Y539723D02*
X493898D01*
X490511Y539369D02*
X493898D01*
X490645Y539014D02*
X493898D01*
X490729Y538660D02*
X493898D01*
X490746Y538306D02*
X493898D01*
X490700Y537951D02*
X493898D01*
X490583Y537597D02*
X493898D01*
X490567Y537243D02*
X493898D01*
X490691Y536888D02*
X493898D01*
X490745Y536534D02*
X493898D01*
X490734Y536180D02*
X493898D01*
X490657Y535825D02*
X493898D01*
X490515Y535471D02*
X493898D01*
X490631Y535117D02*
X493898D01*
X491161Y534762D02*
X493898D01*
X491916Y534408D02*
X493898D01*
X492313Y534054D02*
X493898D01*
X492574Y533699D02*
X493898D01*
X492749Y533345D02*
X493898D01*
X492858Y532991D02*
X493898D01*
X492908Y532636D02*
X493898D01*
X492905Y532282D02*
X493898D01*
X492848Y531928D02*
X493898D01*
X492732Y531573D02*
X493898D01*
X492549Y531219D02*
X493898D01*
X492275Y530865D02*
X493898D01*
X491855Y530510D02*
X493898D01*
X490974Y530156D02*
X493898D01*
X490616Y529802D02*
X493898D01*
X490528Y529448D02*
X493898D01*
X490670Y529093D02*
X493898D01*
X490738Y528739D02*
X493898D01*
X490742Y528385D02*
X493898D01*
X490680Y528030D02*
X493898D01*
X490547Y527676D02*
X493898D01*
X490601Y527322D02*
X493898D01*
X490709Y526967D02*
X493898D01*
X490748Y526613D02*
X493898D01*
X490722Y526259D02*
X493898D01*
X490630Y525904D02*
X493898D01*
X490516Y525550D02*
X493898D01*
X490658Y525196D02*
X493898D01*
X490734Y524841D02*
X493898D01*
X490744Y524487D02*
X493898D01*
X490690Y524133D02*
X493898D01*
X490565Y523778D02*
X493898D01*
X490584Y523424D02*
X493898D01*
X490700Y523070D02*
X493898D01*
X490747Y522715D02*
X493898D01*
X490728Y522361D02*
X493898D01*
X490644Y522007D02*
X493898D01*
X490511Y521652D02*
X493898D01*
X490645Y521298D02*
X493898D01*
X490729Y520944D02*
X493898D01*
X490746Y520589D02*
X493898D01*
X490700Y520235D02*
X493898D01*
X490583Y519881D02*
X493898D01*
X490567Y519526D02*
X493898D01*
X490691Y519172D02*
X493898D01*
X490745Y518818D02*
X493898D01*
X490734Y518463D02*
X493898D01*
X490657Y518109D02*
X493898D01*
X490515Y517755D02*
X493898D01*
X490631Y517400D02*
X493898D01*
X490723Y517046D02*
X493898D01*
X490748Y516692D02*
X493898D01*
X490708Y516337D02*
X493898D01*
X490600Y515983D02*
X493898D01*
X490548Y515629D02*
X493898D01*
X490681Y515274D02*
X493898D01*
X491584Y514920D02*
X493898D01*
X492115Y514566D02*
X493898D01*
X492442Y514211D02*
X493898D01*
X492661Y513857D02*
X493898D01*
X492805Y513503D02*
X493898D01*
X492887Y513148D02*
X493898D01*
X492913Y512794D02*
X493898D01*
X492886Y512440D02*
X493898D01*
X492804Y512085D02*
X493898D01*
X492660Y511731D02*
X493898D01*
X492440Y511377D02*
X493898D01*
X492112Y511022D02*
X493898D01*
X491578Y510668D02*
X493898D01*
X486229Y510314D02*
X493898D01*
X486583Y509959D02*
X493898D01*
X486937Y509605D02*
X493898D01*
X487292Y509251D02*
X493898D01*
X487646Y508896D02*
X493898D01*
X488000Y508542D02*
X493898D01*
X488340Y508188D02*
X493898D01*
X488599Y507833D02*
X493898D01*
X488791Y507479D02*
X493898D01*
X488928Y507125D02*
X493898D01*
X489019Y506770D02*
X493898D01*
X489066Y506416D02*
X493898D01*
X489075Y506062D02*
X493898D01*
X489075Y505707D02*
X493898D01*
X489075Y505353D02*
X493898D01*
X489075Y504999D02*
X493898D01*
X489075Y504644D02*
X493898D01*
X489075Y504290D02*
X493898D01*
X489688Y503936D02*
X493898D01*
X490080Y503581D02*
X493898D01*
X490271Y503227D02*
X493898D01*
X490349Y502873D02*
X493898D01*
X490354Y502518D02*
X493898D01*
X490354Y502164D02*
X493898D01*
X490354Y501810D02*
X493898D01*
X490354Y501455D02*
X493898D01*
X490354Y501101D02*
X493898D01*
X490354Y500747D02*
X493898D01*
X490354Y500392D02*
X493898D01*
X490354Y500038D02*
X493898D01*
X490354Y499684D02*
X493898D01*
X490326Y499329D02*
X493898D01*
X490201Y498975D02*
X493898D01*
X489939Y498621D02*
X493898D01*
X489298Y498266D02*
X493898D01*
X488828Y497912D02*
X493898D01*
X489805Y497558D02*
X493898D01*
X490134Y497203D02*
X493898D01*
X490297Y496849D02*
X493898D01*
X490354Y496495D02*
X493898D01*
X490354Y496140D02*
X493898D01*
X490354Y495786D02*
X493898D01*
X490354Y495432D02*
X493898D01*
X490354Y495077D02*
X493898D01*
X490354Y494723D02*
X493898D01*
X490354Y494369D02*
X493898D01*
X490354Y494014D02*
X493898D01*
X490354Y493660D02*
X493898D01*
X490354Y493306D02*
X493898D01*
X490308Y492951D02*
X493898D01*
X490157Y492597D02*
X493898D01*
X489852Y492243D02*
X493898D01*
X479687Y491888D02*
X493898D01*
X479477Y491534D02*
X493898D01*
X479233Y491180D02*
X493898D01*
X479232Y490825D02*
X493898D01*
X479232Y490471D02*
X493898D01*
X479232Y490117D02*
X493898D01*
X479232Y489762D02*
X493898D01*
X479232Y489408D02*
X493898D01*
X479232Y489054D02*
X493898D01*
X479232Y488699D02*
X493898D01*
X479232Y488345D02*
X493898D01*
X479232Y487991D02*
X493898D01*
X479232Y487636D02*
X493898D01*
X479232Y487282D02*
X493898D01*
X479232Y486928D02*
X493898D01*
X479232Y486573D02*
X493898D01*
X479232Y486219D02*
X493898D01*
X479232Y485865D02*
X493898D01*
X479232Y485510D02*
X493898D01*
X479232Y485156D02*
X493898D01*
X479232Y484802D02*
X493898D01*
X479232Y484448D02*
X493898D01*
X479217Y484093D02*
X493898D01*
X479151Y483739D02*
X493898D01*
X479026Y483385D02*
X493898D01*
X478832Y483030D02*
X493898D01*
X478546Y482676D02*
X493898D01*
X478192Y482322D02*
X493898D01*
X477837Y481967D02*
X493898D01*
X477483Y481613D02*
X493898D01*
X477129Y481259D02*
X493898D01*
X476774Y480904D02*
X493898D01*
X476420Y480550D02*
X493898D01*
X476066Y480196D02*
X493898D01*
X475649Y479841D02*
X493898D01*
X474825Y479487D02*
X493898D01*
X415748Y479133D02*
X493898D01*
X415748Y478778D02*
X493898D01*
X415748Y478424D02*
X493898D01*
X415748Y478070D02*
X493898D01*
X457466Y477715D02*
X493898D01*
X457825Y477361D02*
X493898D01*
X458001Y477007D02*
X493898D01*
X458069Y476652D02*
X493898D01*
X458071Y476298D02*
X493898D01*
X458071Y475944D02*
X493898D01*
X458071Y475589D02*
X493898D01*
X458071Y475235D02*
X493898D01*
X458071Y474881D02*
X493898D01*
X458071Y474526D02*
X493898D01*
X458070Y474172D02*
X493898D01*
X458013Y473818D02*
X493898D01*
X457849Y473463D02*
X493898D01*
X457518Y473109D02*
X493898D01*
X454146Y472755D02*
X493898D01*
X454134Y472400D02*
X493898D01*
X454134Y472046D02*
X493898D01*
X454107Y471692D02*
X493898D01*
X454025Y471337D02*
X493898D01*
X453881Y470983D02*
X493898D01*
X453660Y470629D02*
X493898D01*
X453333Y470274D02*
X493898D01*
X452799Y469920D02*
X493898D01*
X417979Y469566D02*
X493898D01*
X418334Y469211D02*
X493898D01*
X418688Y468857D02*
X493898D01*
X419042Y468503D02*
X493898D01*
X419397Y468148D02*
X493898D01*
X419751Y467794D02*
X493898D01*
X420105Y467440D02*
X493898D01*
X420460Y467085D02*
X493898D01*
X420814Y466731D02*
X493898D01*
X421168Y466377D02*
X493898D01*
X421523Y466022D02*
X493898D01*
X421877Y465668D02*
X493898D01*
X422231Y465314D02*
X493898D01*
X422586Y464959D02*
X493898D01*
X422940Y464605D02*
X493898D01*
X423294Y464251D02*
X493898D01*
X423649Y463896D02*
X493898D01*
X424003Y463542D02*
X493898D01*
X424357Y463188D02*
X493898D01*
X424712Y462833D02*
X493898D01*
X425066Y462479D02*
X493898D01*
X425420Y462125D02*
X493898D01*
X425775Y461770D02*
X493898D01*
X426129Y461416D02*
X493898D01*
X426483Y461062D02*
X493898D01*
X426838Y460707D02*
X493898D01*
X427192Y460353D02*
X493898D01*
X427546Y459999D02*
X493898D01*
X427901Y459644D02*
X493898D01*
X428255Y459290D02*
X493898D01*
X428609Y458936D02*
X493898D01*
X428964Y458581D02*
X493898D01*
X429318Y458227D02*
X493898D01*
X429672Y457873D02*
X493898D01*
X430027Y457518D02*
X493898D01*
X430381Y457164D02*
X493898D01*
X430735Y456810D02*
X493898D01*
X431090Y456455D02*
X493898D01*
X431444Y456101D02*
X493898D01*
X431798Y455747D02*
X493898D01*
X432153Y455392D02*
X493898D01*
X432507Y455038D02*
X493898D01*
X432861Y454684D02*
X493898D01*
X433216Y454329D02*
X493898D01*
X433570Y453975D02*
X493898D01*
X433924Y453621D02*
X493898D01*
X434278Y453266D02*
X493898D01*
X434633Y452912D02*
X493898D01*
X434987Y452558D02*
X493898D01*
X435341Y452203D02*
X493898D01*
X435696Y451849D02*
X493898D01*
X436050Y451495D02*
X493898D01*
X436404Y451140D02*
X493898D01*
X436759Y450786D02*
X493898D01*
X437113Y450432D02*
X493898D01*
X437467Y450077D02*
X493898D01*
X437822Y449723D02*
X493898D01*
X438176Y449369D02*
X493898D01*
X438530Y449014D02*
X493898D01*
X438885Y448660D02*
X493898D01*
X439239Y448306D02*
X493898D01*
X439593Y447951D02*
X493898D01*
X439948Y447597D02*
X493898D01*
X440302Y447243D02*
X493898D01*
X440656Y446888D02*
X493898D01*
X441011Y446534D02*
X493898D01*
X441365Y446180D02*
X493898D01*
X441719Y445825D02*
X493898D01*
X442074Y445471D02*
X493898D01*
X442428Y445117D02*
X493898D01*
X442782Y444762D02*
X493898D01*
X443137Y444408D02*
X493898D01*
X443491Y444054D02*
X493898D01*
X443833Y443699D02*
X493898D01*
X444088Y443345D02*
X493898D01*
X444270Y442991D02*
X493898D01*
X444392Y442636D02*
X493898D01*
X444464Y442282D02*
X493898D01*
X444488Y441928D02*
X493898D01*
X444488Y441573D02*
X493898D01*
X444488Y441219D02*
X493898D01*
X444488Y440865D02*
X493898D01*
X444488Y440510D02*
X493898D01*
X444488Y440156D02*
X493898D01*
X444488Y439802D02*
X493898D01*
X444488Y439448D02*
X493898D01*
X444488Y439093D02*
X493898D01*
X444488Y438739D02*
X493898D01*
X444488Y438385D02*
X493898D01*
X444488Y438030D02*
X493898D01*
X444488Y437676D02*
X493898D01*
X444488Y437322D02*
X493898D01*
X444488Y436967D02*
X493898D01*
X444488Y436613D02*
X493898D01*
X444488Y436259D02*
X493898D01*
X444554Y435904D02*
X493898D01*
X444908Y435550D02*
X493898D01*
X445914Y435196D02*
X493898D01*
X446446Y434841D02*
X493898D01*
X446773Y434487D02*
X493898D01*
X446992Y434133D02*
X493898D01*
X447136Y433778D02*
X493898D01*
X447218Y433424D02*
X493898D01*
X447244Y433070D02*
X493898D01*
X447217Y432715D02*
X493898D01*
X447135Y432361D02*
X493898D01*
X447103Y432007D02*
X493898D01*
X447327Y431652D02*
X493898D01*
X447427Y431298D02*
X493898D01*
X447441Y430944D02*
X493898D01*
X447441Y430589D02*
X493898D01*
X447441Y430235D02*
X493898D01*
X447441Y429881D02*
X493898D01*
X447441Y429526D02*
X493898D01*
X447441Y429172D02*
X493898D01*
X447404Y428818D02*
X493898D01*
X447267Y428463D02*
X493898D01*
X447100Y428109D02*
X493898D01*
X447309Y427755D02*
X493898D01*
X447421Y427400D02*
X493898D01*
X447441Y427046D02*
X493898D01*
X447441Y426692D02*
X493898D01*
X447441Y426337D02*
X493898D01*
X447441Y425983D02*
X493898D01*
X447441Y425629D02*
X493898D01*
X447441Y425274D02*
X493898D01*
X447413Y424920D02*
X493898D01*
X447288Y424566D02*
X493898D01*
X447067Y424211D02*
X493898D01*
X447159Y423857D02*
X493898D01*
X447228Y423503D02*
X493898D01*
X447243Y423148D02*
X493898D01*
X447204Y422794D02*
X493898D01*
X447109Y422440D02*
X493898D01*
X447000Y422085D02*
X493898D01*
X447310Y421731D02*
X493898D01*
X447637Y421377D02*
X493898D01*
X447874Y421022D02*
X493898D01*
X448042Y420668D02*
X493898D01*
X448152Y420314D02*
X493898D01*
X448213Y419959D02*
X493898D01*
X448228Y419605D02*
X493898D01*
X448228Y419251D02*
X493898D01*
X448228Y418896D02*
X493898D01*
X448228Y418542D02*
X493898D01*
X448228Y418188D02*
X493898D01*
X448228Y417833D02*
X493898D01*
X448228Y417479D02*
X493898D01*
X448228Y417125D02*
X493898D01*
X448228Y416770D02*
X493898D01*
X450692Y416416D02*
X493898D01*
X451370Y416062D02*
X493898D01*
X451747Y415707D02*
X493898D01*
X451997Y415353D02*
X493898D01*
X452164Y414999D02*
X493898D01*
X454781Y414644D02*
X493898D01*
X456035Y414290D02*
X493898D01*
X456631Y413936D02*
X493898D01*
X457053Y413581D02*
X493898D01*
X457376Y413227D02*
X493898D01*
X457628Y412873D02*
X493898D01*
X457826Y412518D02*
X493898D01*
X457978Y412164D02*
X493898D01*
X458091Y411810D02*
X493898D01*
X471538Y411455D02*
X493898D01*
X472711Y411101D02*
X493898D01*
X473489Y410747D02*
X493898D01*
X474097Y410392D02*
X493898D01*
X474601Y410038D02*
X493898D01*
X475032Y409684D02*
X493898D01*
X475407Y409329D02*
X493898D01*
X475737Y408975D02*
X493898D01*
X476028Y408621D02*
X493898D01*
X476287Y408266D02*
X493898D01*
X476517Y407912D02*
X493898D01*
X476721Y407558D02*
X493898D01*
X476901Y407203D02*
X493898D01*
X477059Y406849D02*
X493898D01*
X477197Y406495D02*
X493898D01*
X477315Y406140D02*
X493898D01*
X477415Y405786D02*
X493898D01*
X477497Y405432D02*
X493898D01*
X477561Y405077D02*
X493898D01*
X477609Y404723D02*
X493898D01*
X477641Y404369D02*
X493898D01*
X477656Y404014D02*
X493898D01*
X477655Y403660D02*
X493898D01*
X477638Y403306D02*
X493896D01*
X491009Y604566D02*
X493882D01*
X477604Y402951D02*
X493846D01*
X471654Y604920D02*
X493797D01*
X477555Y402597D02*
X493718D01*
X471645Y605274D02*
X493625D01*
X477488Y402243D02*
X493489D01*
X471556Y605629D02*
X493332D01*
X477404Y401888D02*
X493145D01*
X477302Y401534D02*
X492791D01*
X471458Y605983D02*
X492765D01*
X477182Y401180D02*
X492437D01*
X477042Y400825D02*
X492083D01*
X476881Y400471D02*
X491728D01*
X476698Y400117D02*
X491374D01*
X476491Y399762D02*
X491020D01*
X476258Y399408D02*
X490665D01*
X475996Y399054D02*
X490311D01*
X475700Y398699D02*
X489957D01*
X475365Y398345D02*
X489602D01*
X485998Y510668D02*
X489524D01*
X471654Y604566D02*
X489306D01*
X474984Y397991D02*
X489248D01*
X398720Y600314D02*
X488981D01*
X474613Y397636D02*
X488894D01*
X471654Y604211D02*
X488687D01*
X474606Y397282D02*
X488539D01*
X470731Y600668D02*
X488511D01*
X471654Y603857D02*
X488328D01*
X471277Y601022D02*
X488212D01*
X474606Y396928D02*
X488185D01*
X471654Y603503D02*
X488089D01*
X471520Y601377D02*
X488011D01*
X471654Y603148D02*
X487930D01*
X471633Y601731D02*
X487881D01*
X471654Y602794D02*
X487835D01*
X474606Y396573D02*
X487831D01*
X471654Y602085D02*
X487812D01*
X471654Y602440D02*
X487797D01*
X474606Y396219D02*
X487451D01*
X456444Y497912D02*
X485581D01*
X481299Y505707D02*
X485335D01*
X481299Y505353D02*
X485335D01*
X481299Y504999D02*
X485335D01*
X481299Y504644D02*
X485335D01*
X481299Y504290D02*
X485334D01*
X481299Y506062D02*
X485191D01*
X456051Y498266D02*
X485111D01*
X481299Y506416D02*
X484837D01*
X481299Y503936D02*
X484721D01*
X456798Y497558D02*
X484605D01*
X479824Y492243D02*
X484558D01*
X481299Y506770D02*
X484483D01*
X455422Y498621D02*
X484470D01*
X481004Y583660D02*
X484376D01*
X481299Y503581D02*
X484330D01*
X457153Y497203D02*
X484275D01*
X479900Y492597D02*
X484252D01*
X449186Y498975D02*
X484208D01*
X481296Y503227D02*
X484138D01*
X481299Y507125D02*
X484128D01*
X457507Y496849D02*
X484112D01*
X479921Y492951D02*
X484102D01*
X449104Y499329D02*
X484083D01*
X481241Y502873D02*
X484060D01*
X457861Y496495D02*
X484056D01*
X481117Y502518D02*
X484055D01*
X480905Y502164D02*
X484055D01*
X480561Y501810D02*
X484055D01*
X479877Y501455D02*
X484055D01*
X438365Y501101D02*
X484055D01*
X447883Y500747D02*
X484055D01*
X448414Y500392D02*
X484055D01*
X448741Y500038D02*
X484055D01*
X448961Y499684D02*
X484055D01*
X458216Y496140D02*
X484055D01*
X458570Y495786D02*
X484055D01*
X458924Y495432D02*
X484055D01*
X478506Y495077D02*
X484055D01*
X479077Y494723D02*
X484055D01*
X479420Y494369D02*
X484055D01*
X479649Y494014D02*
X484055D01*
X479800Y493660D02*
X484055D01*
X479888Y493306D02*
X484055D01*
X481299Y507479D02*
X483774D01*
X481293Y507833D02*
X483420D01*
X481004Y583306D02*
X483320D01*
X481004Y585432D02*
X483311D01*
X481299Y589684D02*
X483142D01*
X481232Y508188D02*
X483065D01*
X481004Y582951D02*
X482935D01*
X481016Y585786D02*
X482737D01*
X467719Y574802D02*
X482717D01*
X480278Y521652D02*
X482717D01*
X468113Y557085D02*
X482717D01*
X461544Y539369D02*
X482717D01*
X461598Y535471D02*
X482713D01*
X466240Y553188D02*
X482713D01*
X440748Y525550D02*
X482713D01*
X478704Y578699D02*
X482713D01*
X459889Y543266D02*
X482713D01*
X481099Y508542D02*
X482711D01*
X458896Y531573D02*
X482701D01*
X465983Y549290D02*
X482701D01*
X481004Y582597D02*
X482700D01*
X452068Y529448D02*
X482700D01*
X447343Y547164D02*
X482700D01*
X480699Y580825D02*
X482682D01*
X459651Y545392D02*
X482682D01*
X446600Y527676D02*
X482682D01*
X466926Y551062D02*
X482680D01*
X459840Y533345D02*
X482680D01*
X459350Y541495D02*
X482663D01*
X476930Y576928D02*
X482663D01*
X440795Y523778D02*
X482663D01*
X481436Y559211D02*
X482663D01*
X466240Y554959D02*
X482662D01*
X465593Y572676D02*
X482662D01*
X481693Y519526D02*
X482662D01*
X462593Y537243D02*
X482662D01*
X466341Y555314D02*
X482645D01*
X462590Y537597D02*
X482645D01*
X465948Y573030D02*
X482645D01*
X481660Y519881D02*
X482645D01*
X481299Y589329D02*
X482645D01*
X459350Y541140D02*
X482644D01*
X480862Y558857D02*
X482644D01*
X440628Y523424D02*
X482644D01*
X476439Y576573D02*
X482644D01*
X466917Y551416D02*
X482628D01*
X459831Y533699D02*
X482628D01*
X480458Y580471D02*
X482627D01*
X459843Y545038D02*
X482627D01*
X441673Y527322D02*
X482627D01*
X447343Y547518D02*
X482613D01*
X452144Y529802D02*
X482613D01*
X465301Y548936D02*
X482612D01*
X458214Y531219D02*
X482612D01*
X440556Y525904D02*
X482598D01*
X479058Y579054D02*
X482598D01*
X459991Y543621D02*
X482598D01*
X466264Y552833D02*
X482597D01*
X460836Y535117D02*
X482597D01*
X468074Y575156D02*
X482584D01*
X468467Y557440D02*
X482584D01*
X460673Y539723D02*
X482584D01*
X440530Y522007D02*
X482584D01*
X467365Y574448D02*
X482583D01*
X467759Y556731D02*
X482583D01*
X461962Y539014D02*
X482583D01*
X480849Y521298D02*
X482583D01*
X461996Y535825D02*
X482571D01*
X466240Y553542D02*
X482571D01*
X478349Y578345D02*
X482571D01*
X459722Y542912D02*
X482571D01*
X440870Y525196D02*
X482571D01*
X459274Y531928D02*
X482559D01*
X466361Y549644D02*
X482559D01*
X481004Y582243D02*
X482559D01*
X447343Y546810D02*
X482559D01*
X451931Y529093D02*
X482559D01*
X480861Y581180D02*
X482548D01*
X459365Y545747D02*
X482548D01*
X450908Y528030D02*
X482548D01*
X466881Y550707D02*
X482548D01*
X459795Y532991D02*
X482548D01*
X477286Y577282D02*
X482538D01*
X459350Y541849D02*
X482538D01*
X440897Y524133D02*
X482538D01*
X481780Y559566D02*
X482538D01*
X465239Y572322D02*
X482537D01*
X466240Y554605D02*
X482537D01*
X481672Y519172D02*
X482537D01*
X462542Y536888D02*
X482537D01*
X466696Y555668D02*
X482529D01*
X462534Y537951D02*
X482529D01*
X466302Y573385D02*
X482529D01*
X481572Y520235D02*
X482529D01*
X469530Y558503D02*
X482528D01*
X459350Y540786D02*
X482528D01*
X469137Y576219D02*
X482528D01*
X440377Y523070D02*
X482528D01*
X466854Y551770D02*
X482520D01*
X459768Y534054D02*
X482520D01*
X480121Y580117D02*
X482520D01*
X459965Y544684D02*
X482520D01*
X441099Y526967D02*
X482520D01*
X447343Y547873D02*
X482513D01*
X452165Y530156D02*
X482513D01*
X447343Y548581D02*
X482512D01*
X452044Y530865D02*
X482512D01*
X440271Y526259D02*
X482506D01*
X479412Y579408D02*
X482506D01*
X460036Y543975D02*
X482506D01*
X466541Y552479D02*
X482505D01*
X459454Y534762D02*
X482505D01*
X468428Y575510D02*
X482500D01*
X468822Y557794D02*
X482500D01*
X459350Y540077D02*
X482500D01*
X440231Y522361D02*
X482500D01*
X467011Y574093D02*
X482499D01*
X467404Y556377D02*
X482499D01*
X462235Y538660D02*
X482499D01*
X481191Y520944D02*
X482499D01*
X466240Y553896D02*
X482495D01*
X462258Y536180D02*
X482495D01*
X477995Y577991D02*
X482494D01*
X459471Y542558D02*
X482494D01*
X440933Y524841D02*
X482494D01*
X459525Y532282D02*
X482490D01*
X466612Y549999D02*
X482490D01*
X481001Y581888D02*
X482490D01*
X457757Y546455D02*
X482490D01*
X451721Y528739D02*
X482490D01*
X480959Y581534D02*
X482487D01*
X458924Y546101D02*
X482487D01*
X451408Y528385D02*
X482487D01*
X466779Y550353D02*
X482486D01*
X459693Y532636D02*
X482486D01*
X477641Y577636D02*
X482484D01*
X482010Y559920D02*
X482484D01*
X459350Y542203D02*
X482484D01*
X440942Y524487D02*
X482484D01*
X464885Y571967D02*
X482484D01*
X466240Y554251D02*
X482484D01*
X462433Y536534D02*
X482484D01*
X481596Y518818D02*
X482484D01*
X466656Y573739D02*
X482482D01*
X467050Y556022D02*
X482482D01*
X462419Y538306D02*
X482482D01*
X481421Y520589D02*
X482482D01*
X468782Y575865D02*
X482482D01*
X469176Y558148D02*
X482482D01*
X459350Y540432D02*
X482482D01*
X440037Y522715D02*
X482482D01*
X466733Y552125D02*
X482481D01*
X459646Y534408D02*
X482481D01*
X479767Y579762D02*
X482481D01*
X460028Y544329D02*
X482481D01*
X440024Y526613D02*
X482481D01*
X447343Y548227D02*
X482480D01*
X452133Y530510D02*
X482480D01*
X464530Y571613D02*
X482425D01*
X481542Y518463D02*
X482425D01*
X481181Y586140D02*
X482393D01*
X480979Y508896D02*
X482357D01*
X481299Y588975D02*
X482332D01*
X481274Y586495D02*
X482163D01*
X481299Y588621D02*
X482122D01*
X481299Y586849D02*
X482012D01*
X480901Y509251D02*
X482002D01*
X481299Y588266D02*
X481986D01*
X481299Y587203D02*
X481923D01*
X481299Y587912D02*
X481911D01*
X481299Y587558D02*
X481890D01*
X480762Y509605D02*
X481648D01*
X480551Y509959D02*
X481294D01*
X480242Y510314D02*
X480997D01*
X479887Y510668D02*
X480776D01*
X479533Y511022D02*
X480616D01*
X479179Y511377D02*
X480505D01*
X478824Y511731D02*
X480438D01*
X478470Y512085D02*
X480414D01*
X477966Y512794D02*
X480413D01*
X478116Y512440D02*
X480413D01*
X441144Y517046D02*
X479605D01*
X441580Y516692D02*
X479483D01*
X441935Y516337D02*
X479128D01*
X478697Y558857D02*
X478980D01*
X477909Y501455D02*
X478784D01*
X440731Y521652D02*
X478384D01*
X440169Y517400D02*
X478226D01*
X440860Y521298D02*
X477812D01*
X407051Y517755D02*
X477726D01*
X440929Y520944D02*
X477470D01*
X407192Y518109D02*
X477413D01*
X440944Y520589D02*
X477241D01*
X439427Y518463D02*
X477202D01*
X440905Y520235D02*
X477090D01*
X440049Y518818D02*
X477066D01*
X440809Y519881D02*
X477001D01*
X440410Y519172D02*
X476990D01*
X440650Y519526D02*
X476969D01*
X475940Y501455D02*
X476815D01*
X476532Y558857D02*
X476815D01*
X471853Y495077D02*
X476612D01*
X472424Y494723D02*
X476041D01*
X474016Y490825D02*
X475886D01*
X474016Y490471D02*
X475886D01*
X474016Y490117D02*
X475886D01*
X474016Y489762D02*
X475886D01*
X474016Y489408D02*
X475886D01*
X474011Y489054D02*
X475886D01*
X473932Y488699D02*
X475886D01*
X473739Y488345D02*
X475886D01*
X473770Y487991D02*
X475886D01*
X473946Y487636D02*
X475886D01*
X474014Y487282D02*
X475886D01*
X474016Y486928D02*
X475886D01*
X474016Y486573D02*
X475886D01*
X474016Y486219D02*
X475886D01*
X474016Y485865D02*
X475886D01*
X474016Y485510D02*
X475886D01*
X474013Y485156D02*
X475886D01*
X474015Y491180D02*
X475885D01*
X473946Y484802D02*
X475884D01*
X472766Y494369D02*
X475698D01*
X473959Y491534D02*
X475641D01*
X473768Y484448D02*
X475585D01*
X472995Y494014D02*
X475469D01*
X473796Y491888D02*
X475431D01*
X473147Y493660D02*
X475318D01*
X473466Y492243D02*
X475294D01*
X473407Y484093D02*
X475231D01*
X473235Y493306D02*
X475230D01*
X473246Y492597D02*
X475218D01*
X473267Y492951D02*
X475197D01*
X433169Y483739D02*
X474876D01*
X473972Y501455D02*
X474847D01*
X474366Y558857D02*
X474649D01*
X432960Y483385D02*
X474522D01*
X432620Y483030D02*
X474168D01*
X464176Y571259D02*
X473753D01*
X463822Y570904D02*
X473264D01*
X463467Y570550D02*
X472908D01*
X472003Y501455D02*
X472878D01*
X463113Y570196D02*
X472554D01*
X469885Y558857D02*
X472484D01*
X462759Y569841D02*
X472199D01*
X470239Y559211D02*
X471910D01*
X462404Y569487D02*
X471845D01*
X470593Y559566D02*
X471567D01*
X462050Y569133D02*
X471491D01*
X470948Y559920D02*
X471337D01*
X461696Y568778D02*
X471136D01*
X470035Y501455D02*
X470910D01*
X461341Y568424D02*
X470782D01*
X467387Y595707D02*
X470605D01*
X460987Y568070D02*
X470428D01*
X460633Y567715D02*
X470073D01*
X468911Y595353D02*
X469987D01*
X464609Y495077D02*
X469958D01*
X460278Y567361D02*
X469719D01*
X468486Y484093D02*
X469506D01*
X465180Y494723D02*
X469387D01*
X459924Y567007D02*
X469365D01*
X468848Y484448D02*
X469144D01*
X466050Y494369D02*
X469045D01*
X459570Y566652D02*
X469010D01*
X468066Y501455D02*
X468941D01*
X466608Y494014D02*
X468816D01*
X466974Y493660D02*
X468664D01*
X459215Y566298D02*
X468656D01*
X467328Y493306D02*
X468576D01*
X467905Y492597D02*
X468565D01*
X467665Y492951D02*
X468544D01*
X458861Y565944D02*
X468302D01*
X458167Y411455D02*
X468225D01*
X458507Y565589D02*
X467947D01*
X458152Y565235D02*
X467593D01*
X457798Y564881D02*
X467239D01*
X458209Y411101D02*
X467053D01*
X466098Y501455D02*
X466973D01*
X464320Y606692D02*
X466918D01*
X457444Y564526D02*
X466884D01*
X457089Y564172D02*
X466530D01*
X398720Y600668D02*
X466277D01*
X458218Y410747D02*
X466275D01*
X456735Y563818D02*
X466176D01*
X464370Y606337D02*
X466090D01*
X456381Y563463D02*
X465821D01*
X447452Y601022D02*
X465731D01*
X447429Y595707D02*
X465684D01*
X458194Y410392D02*
X465667D01*
X464370Y605983D02*
X465659D01*
X448290Y601377D02*
X465488D01*
X456026Y563109D02*
X465467D01*
X464370Y605629D02*
X465452D01*
X448688Y601731D02*
X465375D01*
X464370Y605274D02*
X465363D01*
X464370Y604920D02*
X465354D01*
X464370Y604566D02*
X465354D01*
X464365Y604211D02*
X465354D01*
X464286Y603857D02*
X465354D01*
X464094Y603503D02*
X465354D01*
X463700Y603148D02*
X465354D01*
X459796Y602794D02*
X465354D01*
X459646Y602440D02*
X465354D01*
X459340Y602085D02*
X465354D01*
X458137Y410038D02*
X465163D01*
X455672Y562755D02*
X465113D01*
X447438Y595353D02*
X465065D01*
X464129Y501455D02*
X465004D01*
X455318Y562400D02*
X464758D01*
X458044Y409684D02*
X464732D01*
X447393Y594999D02*
X464706D01*
X461596Y484093D02*
X464585D01*
X447291Y594644D02*
X464467D01*
X454963Y562046D02*
X464404D01*
X457914Y409329D02*
X464357D01*
X447124Y594290D02*
X464308D01*
X461928Y488345D02*
X464253D01*
X461957Y484448D02*
X464224D01*
X461959Y487991D02*
X464223D01*
X446873Y593936D02*
X464213D01*
X446156Y593227D02*
X464179D01*
X446494Y593581D02*
X464174D01*
X462121Y488699D02*
X464060D01*
X454609Y561692D02*
X464050D01*
X462134Y484802D02*
X464047D01*
X462135Y487636D02*
X464046D01*
X457742Y408975D02*
X464027D01*
X462200Y489054D02*
X463982D01*
X462202Y485156D02*
X463979D01*
X462203Y487282D02*
X463979D01*
X462205Y490117D02*
X463976D01*
X462205Y489762D02*
X463976D01*
X462205Y489408D02*
X463976D01*
X462205Y486928D02*
X463976D01*
X462205Y486573D02*
X463976D01*
X462205Y486219D02*
X463976D01*
X462205Y485865D02*
X463976D01*
X462205Y485510D02*
X463976D01*
X462205Y490471D02*
X463940D01*
X447343Y548936D02*
X463833D01*
X457521Y408621D02*
X463735D01*
X454255Y561337D02*
X463695D01*
X457240Y408266D02*
X463477D01*
X453900Y560983D02*
X463341D01*
X456878Y407912D02*
X463247D01*
X447343Y549290D02*
X463151D01*
X456392Y407558D02*
X463043D01*
X462161Y501455D02*
X463036D01*
X453546Y560629D02*
X462987D01*
X455647Y407203D02*
X462863D01*
X447343Y549644D02*
X462773D01*
X459884Y495077D02*
X462714D01*
X452046Y406849D02*
X462704D01*
X453192Y560274D02*
X462632D01*
X451868Y406495D02*
X462567D01*
X462263Y490825D02*
X462557D01*
X447343Y549999D02*
X462522D01*
X451508Y406140D02*
X462449D01*
X447343Y550353D02*
X462355D01*
X427415Y405786D02*
X462349D01*
X452837Y559920D02*
X462278D01*
X427497Y405432D02*
X462267D01*
X447343Y550707D02*
X462253D01*
X447343Y551062D02*
X462208D01*
X427561Y405077D02*
X462202D01*
X427609Y404723D02*
X462155D01*
X460455Y494723D02*
X462143D01*
X452483Y559566D02*
X461924D01*
X460798Y494369D02*
X461801D01*
X461027Y494014D02*
X461571D01*
X447343Y551416D02*
X461571D01*
X452129Y559211D02*
X461569D01*
X451774Y558857D02*
X461215D01*
X460192Y501455D02*
X461067D01*
X447343Y551770D02*
X461037D01*
X451420Y558503D02*
X460861D01*
X447343Y552125D02*
X460710D01*
X451066Y558148D02*
X460506D01*
X447343Y552479D02*
X460490D01*
X447343Y552833D02*
X460345D01*
X447343Y553188D02*
X459814D01*
X459412Y539723D02*
X459800D01*
X459523Y535117D02*
X459636D01*
X450711Y557794D02*
X459626D01*
X458224Y501455D02*
X459099D01*
X447343Y553542D02*
X458932D01*
X450357Y557440D02*
X458871D01*
X447343Y553896D02*
X458513D01*
X450003Y557085D02*
X458474D01*
X447343Y554251D02*
X458239D01*
X449648Y556731D02*
X458213D01*
X447522Y554605D02*
X458055D01*
X449294Y556377D02*
X458038D01*
X447877Y554959D02*
X457940D01*
X448940Y556022D02*
X457930D01*
X431745Y404369D02*
X457920D01*
X448231Y555314D02*
X457882D01*
X448585Y555668D02*
X457879D01*
X452835Y546455D02*
X457598D01*
X456255Y501455D02*
X457130D01*
X432564Y404014D02*
X457102D01*
X453490Y531219D02*
X456747D01*
X433072Y403660D02*
X456593D01*
X454002Y546101D02*
X456431D01*
X433446Y403306D02*
X456219D01*
X454172Y531573D02*
X456065D01*
X454444Y545747D02*
X455989D01*
X433735Y402951D02*
X455930D01*
X452616Y580471D02*
X455796D01*
X433960Y396219D02*
X455705D01*
X433962Y402597D02*
X455704D01*
X454730Y545392D02*
X455703D01*
X411012Y580117D02*
X455703D01*
X454550Y531928D02*
X455686D01*
X434136Y396573D02*
X455529D01*
X434137Y402243D02*
X455528D01*
X454921Y545038D02*
X455512D01*
X454801Y532282D02*
X455435D01*
X434269Y396928D02*
X455396D01*
X434270Y401888D02*
X455395D01*
X455056Y544684D02*
X455377D01*
X410613Y579762D02*
X455349D01*
X434364Y397282D02*
X455302D01*
X434364Y401534D02*
X455301D01*
X434423Y397636D02*
X455243D01*
X434423Y401180D02*
X455242D01*
X454998Y532636D02*
X455238D01*
X453238Y580825D02*
X455226D01*
X434448Y397991D02*
X455218D01*
X434448Y400825D02*
X455218D01*
X434449Y400471D02*
X455217D01*
X434449Y400117D02*
X455217D01*
X434449Y399762D02*
X455217D01*
X434449Y399408D02*
X455217D01*
X434449Y399054D02*
X455217D01*
X434449Y398699D02*
X455217D01*
X434449Y398345D02*
X455217D01*
X454287Y501455D02*
X455162D01*
X409852Y579408D02*
X454995D01*
X453599Y581180D02*
X454866D01*
X440964Y579054D02*
X454640D01*
X453839Y581534D02*
X454626D01*
X453998Y581888D02*
X454466D01*
X441719Y578699D02*
X454286D01*
X452266Y414644D02*
X453979D01*
X453529Y477715D02*
X453951D01*
X442116Y578345D02*
X453932D01*
X442378Y577991D02*
X453577D01*
X442553Y577636D02*
X453223D01*
X452318Y501455D02*
X453193D01*
X452114Y407203D02*
X453113D01*
X442661Y577282D02*
X452869D01*
X452335Y414290D02*
X452724D01*
X447914Y546455D02*
X452677D01*
X445907Y492243D02*
X452639D01*
X445234Y492597D02*
X452580D01*
X442711Y576928D02*
X452514D01*
X446237Y491888D02*
X452385D01*
X445235Y492951D02*
X452378D01*
X446373Y488699D02*
X452249D01*
X446400Y491534D02*
X452222D01*
X446452Y489054D02*
X452171D01*
X446456Y491180D02*
X452166D01*
X446457Y490825D02*
X452165D01*
X446457Y490471D02*
X452165D01*
X446457Y490117D02*
X452165D01*
X446457Y489762D02*
X452165D01*
X446457Y489408D02*
X452165D01*
X442708Y576573D02*
X452160D01*
X445218Y493306D02*
X451963D01*
X442651Y576219D02*
X451806D01*
X449081Y546101D02*
X451509D01*
X442536Y575865D02*
X451451D01*
X450350Y501455D02*
X451225D01*
X442352Y575510D02*
X451097D01*
X449523Y545747D02*
X451068D01*
X411274Y580471D02*
X450927D01*
X449808Y545392D02*
X450782D01*
X447877Y469920D02*
X450745D01*
X442078Y575156D02*
X450743D01*
X450000Y545038D02*
X450590D01*
X450135Y544684D02*
X450456D01*
X441658Y574802D02*
X450388D01*
X447248Y584723D02*
X450368D01*
X411449Y580825D02*
X450305D01*
X448411Y470274D02*
X450211D01*
X447228Y584369D02*
X450123D01*
X440777Y574448D02*
X450034D01*
X448608Y477715D02*
X450014D01*
X411558Y581180D02*
X449945D01*
X448739Y470629D02*
X449883D01*
X447158Y584014D02*
X449824D01*
X411609Y581534D02*
X449704D01*
X430635Y574093D02*
X449680D01*
X448959Y470983D02*
X449663D01*
X448966Y477361D02*
X449656D01*
X447029Y583660D02*
X449624D01*
X411606Y581888D02*
X449545D01*
X449103Y471337D02*
X449519D01*
X446827Y583306D02*
X449495D01*
X449152Y477007D02*
X449470D01*
X411549Y582243D02*
X449450D01*
X446528Y582951D02*
X449425D01*
X446058Y582597D02*
X449411D01*
X430990Y573739D02*
X449325D01*
X448381Y501455D02*
X449256D01*
X448228Y416416D02*
X449209D01*
X431344Y573385D02*
X448971D01*
X448793Y585077D02*
X448845D01*
X447282Y528030D02*
X448698D01*
X431698Y573030D02*
X448617D01*
X448320Y416062D02*
X448531D01*
X432053Y572676D02*
X448262D01*
X447660Y528385D02*
X448199D01*
X432407Y572322D02*
X447908D01*
X447462Y546455D02*
X447755D01*
X432761Y571967D02*
X447554D01*
X446413Y501455D02*
X447288D01*
X433116Y571613D02*
X447199D01*
X433470Y571259D02*
X446845D01*
X445146Y493660D02*
X446499D01*
X433807Y570904D02*
X446491D01*
X434047Y570550D02*
X446136D01*
X445013Y494014D02*
X446005D01*
X417625Y469920D02*
X445823D01*
X444930Y500747D02*
X445818D01*
X434208Y570196D02*
X445782D01*
X444808Y494369D02*
X445645D01*
X434306Y569841D02*
X445428D01*
X444444Y501455D02*
X445319D01*
X444502Y494723D02*
X445291D01*
X417271Y470274D02*
X445289D01*
X442016Y527676D02*
X445132D01*
X444671Y477715D02*
X445093D01*
X434348Y569487D02*
X445073D01*
X416916Y470629D02*
X444962D01*
X444020Y495077D02*
X444937D01*
X416562Y470983D02*
X444742D01*
X434350Y569133D02*
X444719D01*
X416208Y471337D02*
X444597D01*
X438579Y495432D02*
X444582D01*
X415853Y471692D02*
X444515D01*
X415748Y472400D02*
X444488D01*
X415748Y472046D02*
X444488D01*
X415748Y472755D02*
X444476D01*
X442246Y528030D02*
X444451D01*
X434350Y568778D02*
X444365D01*
X438527Y495786D02*
X444228D01*
X442398Y528385D02*
X444072D01*
X434350Y568424D02*
X444010D01*
X441831Y531219D02*
X443891D01*
X438419Y496140D02*
X443874D01*
X442486Y528739D02*
X443821D01*
X421452Y582597D02*
X443706D01*
X441831Y530865D02*
X443701D01*
X434350Y568070D02*
X443656D01*
X442519Y529093D02*
X443654D01*
X442077Y530510D02*
X443579D01*
X442499Y529448D02*
X443552D01*
X442287Y530156D02*
X443516D01*
X442423Y529802D02*
X443507D01*
X442476Y501455D02*
X443351D01*
X434350Y567715D02*
X443302D01*
X441831Y531573D02*
X443298D01*
X421922Y582951D02*
X443236D01*
X434350Y567361D02*
X442947D01*
X422221Y583306D02*
X442936D01*
X438244Y496495D02*
X442871D01*
X438385Y500747D02*
X442865D01*
X422422Y583660D02*
X442735D01*
X422552Y584014D02*
X442606D01*
X434375Y567007D02*
X442593D01*
X441831Y531928D02*
X442536D01*
X422622Y584369D02*
X442536D01*
X422637Y584723D02*
X442516D01*
X437982Y496849D02*
X442337D01*
X438353Y500392D02*
X442334D01*
X434651Y566652D02*
X442239D01*
X441930Y532282D02*
X442125D01*
X437586Y497203D02*
X442009D01*
X438264Y500038D02*
X442007D01*
X434843Y566298D02*
X441884D01*
X436830Y497558D02*
X441789D01*
X438112Y499684D02*
X441787D01*
X439805Y495077D02*
X441728D01*
X422027Y497912D02*
X441645D01*
X437882Y499329D02*
X441644D01*
X422047Y498266D02*
X441562D01*
X437539Y498975D02*
X441562D01*
X436965Y498621D02*
X441535D01*
X434965Y565944D02*
X441530D01*
X440507Y501455D02*
X441382D01*
X440377Y494723D02*
X441246D01*
X440673Y597833D02*
X441217D01*
X435028Y565589D02*
X441176D01*
X415748Y477715D02*
X441156D01*
X415748Y473109D02*
X441104D01*
X440919Y585077D02*
X440971D01*
X440746Y494369D02*
X440909D01*
X435036Y565235D02*
X440821D01*
X415748Y477361D02*
X440797D01*
X415748Y473463D02*
X440773D01*
X415748Y477007D02*
X440621D01*
X415748Y473818D02*
X440609D01*
X415748Y476652D02*
X440553D01*
X415748Y474172D02*
X440552D01*
X415748Y476298D02*
X440551D01*
X415748Y475944D02*
X440551D01*
X415748Y475589D02*
X440551D01*
X415748Y475235D02*
X440551D01*
X415748Y474881D02*
X440551D01*
X415748Y474526D02*
X440551D01*
X434991Y564881D02*
X440467D01*
X434889Y564526D02*
X440113D01*
X430281Y574448D02*
X439932D01*
X434722Y564172D02*
X439758D01*
X409730Y579054D02*
X439745D01*
X438539Y501455D02*
X439414D01*
X434471Y563818D02*
X439404D01*
X434900Y440865D02*
X439173D01*
X435140Y440510D02*
X439173D01*
X435298Y440156D02*
X439173D01*
X435393Y439802D02*
X439173D01*
X435432Y439448D02*
X439173D01*
X435417Y439093D02*
X439173D01*
X435347Y438739D02*
X439173D01*
X435218Y438385D02*
X439173D01*
X435041Y438030D02*
X439173D01*
X435039Y437676D02*
X439173D01*
X435039Y437322D02*
X439173D01*
X435039Y436967D02*
X439173D01*
X435039Y436613D02*
X439173D01*
X435039Y436259D02*
X439173D01*
X435039Y435904D02*
X439173D01*
X435039Y435550D02*
X439173D01*
X435039Y435196D02*
X439173D01*
X435039Y434841D02*
X439173D01*
X435039Y434487D02*
X439054D01*
X429927Y574802D02*
X439051D01*
X434093Y563463D02*
X439050D01*
X438951Y585077D02*
X439002D01*
X410084Y578699D02*
X438989D01*
X434541Y441219D02*
X438952D01*
X435039Y434133D02*
X438835D01*
X435595Y432007D02*
X438723D01*
X433411Y563109D02*
X438695D01*
X435039Y432361D02*
X438692D01*
X435039Y433778D02*
X438691D01*
X429553Y575156D02*
X438631D01*
X435039Y432715D02*
X438610D01*
X435039Y433424D02*
X438609D01*
X433922Y441573D02*
X438598D01*
X410439Y578345D02*
X438592D01*
X435039Y433070D02*
X438583D01*
X436273Y431652D02*
X438500D01*
X436870Y431298D02*
X438400D01*
X437375Y430944D02*
X438386D01*
X437743Y430589D02*
X438386D01*
X428951Y575510D02*
X438357D01*
X438025Y430235D02*
X438353D01*
X407136Y562755D02*
X438341D01*
X410793Y577991D02*
X438331D01*
X395866Y441928D02*
X438244D01*
X398720Y601022D02*
X438178D01*
X412919Y575865D02*
X438173D01*
X427315Y406140D02*
X438158D01*
X411147Y577636D02*
X438156D01*
X412564Y576219D02*
X438058D01*
X411501Y577282D02*
X438048D01*
X412210Y576573D02*
X438000D01*
X411856Y576928D02*
X437997D01*
X407244Y562400D02*
X437987D01*
X395866Y442282D02*
X437889D01*
X427197Y406495D02*
X437797D01*
X407269Y518463D02*
X437738D01*
X407283Y562046D02*
X437632D01*
X427059Y406849D02*
X437619D01*
X436553Y407203D02*
X437552D01*
X395866Y442636D02*
X437535D01*
X398720Y601377D02*
X437340D01*
X427835Y597833D02*
X437280D01*
X407258Y561692D02*
X437278D01*
X395866Y442991D02*
X437181D01*
X428697Y593227D02*
X437116D01*
X407280Y518818D02*
X437116D01*
X436982Y585077D02*
X437034D01*
X433259Y484093D02*
X437026D01*
X398720Y601731D02*
X436947D01*
X407166Y561337D02*
X436924D01*
X429002Y597479D02*
X436889D01*
X395866Y443345D02*
X436826D01*
X429172Y593581D02*
X436811D01*
X407226Y519172D02*
X436756D01*
X429444Y597125D02*
X436697D01*
X398720Y602085D02*
X436697D01*
X429550Y593936D02*
X436661D01*
X429730Y596770D02*
X436619D01*
X429921Y596416D02*
X436614D01*
X430043Y596062D02*
X436614D01*
X430106Y595707D02*
X436614D01*
X430115Y595353D02*
X436614D01*
X430070Y594999D02*
X436614D01*
X429968Y594644D02*
X436614D01*
X429801Y594290D02*
X436614D01*
X407051Y560983D02*
X436604D01*
X398720Y602440D02*
X436537D01*
X407102Y519526D02*
X436515D01*
X395866Y443699D02*
X436472D01*
X398720Y602794D02*
X436447D01*
X398720Y605629D02*
X436417D01*
X398720Y605274D02*
X436417D01*
X398720Y604920D02*
X436417D01*
X398720Y604566D02*
X436417D01*
X398720Y604211D02*
X436417D01*
X398720Y603857D02*
X436417D01*
X398720Y603503D02*
X436417D01*
X398720Y603148D02*
X436417D01*
X398736Y605983D02*
X436401D01*
X407193Y560629D02*
X436383D01*
X407119Y519881D02*
X436356D01*
X407235Y520235D02*
X436261D01*
X415025Y560274D02*
X436238D01*
X433268Y484448D02*
X436234D01*
X407282Y520589D02*
X436222D01*
X407167Y517400D02*
X436209D01*
X415643Y559920D02*
X436153D01*
X416002Y559566D02*
X436122D01*
X416242Y559211D02*
X436122D01*
X416401Y558857D02*
X436122D01*
X416496Y558503D02*
X436122D01*
X416534Y558148D02*
X436122D01*
X433287Y557794D02*
X436122D01*
X434042Y557440D02*
X436122D01*
X434439Y557085D02*
X436122D01*
X434700Y556731D02*
X436122D01*
X434875Y556377D02*
X436122D01*
X434984Y556022D02*
X436122D01*
X435034Y555668D02*
X436122D01*
X435031Y555314D02*
X436122D01*
X434974Y554959D02*
X436122D01*
X434858Y554605D02*
X436122D01*
X434675Y554251D02*
X436122D01*
X434401Y553896D02*
X436122D01*
X433981Y553542D02*
X436122D01*
X433100Y553188D02*
X436122D01*
X407167Y552833D02*
X436122D01*
X407258Y552479D02*
X436122D01*
X407283Y552125D02*
X436122D01*
X424883Y551770D02*
X436122D01*
X426050Y551416D02*
X436122D01*
X426491Y551062D02*
X436122D01*
X426777Y550707D02*
X436122D01*
X426969Y550353D02*
X436122D01*
X427091Y549999D02*
X436122D01*
X427154Y549644D02*
X436122D01*
X427162Y549290D02*
X436122D01*
X427117Y548936D02*
X436122D01*
X427015Y548581D02*
X436122D01*
X426848Y548227D02*
X436122D01*
X426883Y547873D02*
X436122D01*
X395866Y444054D02*
X436118D01*
X426953Y547518D02*
X436091D01*
X407264Y520944D02*
X435942D01*
X395866Y444408D02*
X435764D01*
X426967Y547164D02*
X435743D01*
X433268Y484802D02*
X435622D01*
X421961Y497558D02*
X435611D01*
X423271Y521298D02*
X435590D01*
X426928Y546810D02*
X435423D01*
X395866Y444762D02*
X435409D01*
X423805Y521652D02*
X435316D01*
X407258Y517046D02*
X435234D01*
X426833Y546455D02*
X435202D01*
X433268Y485156D02*
X435183D01*
X424133Y522007D02*
X435130D01*
X422047Y498621D02*
X435083D01*
X435014Y585077D02*
X435065D01*
X426674Y546101D02*
X435056D01*
X395866Y445117D02*
X435055D01*
X424353Y522361D02*
X435012D01*
X426433Y545747D02*
X434972D01*
X424497Y522715D02*
X434952D01*
X426073Y545392D02*
X434941D01*
X425451Y545038D02*
X434941D01*
X410384Y544684D02*
X434941D01*
X410594Y544329D02*
X434941D01*
X410730Y543975D02*
X434941D01*
X410806Y543621D02*
X434941D01*
X410826Y543266D02*
X434941D01*
X410794Y542912D02*
X434941D01*
X410705Y542558D02*
X434941D01*
X410553Y542203D02*
X434941D01*
X410323Y541849D02*
X434941D01*
X409980Y541495D02*
X434941D01*
X409406Y541140D02*
X434941D01*
X407236Y540786D02*
X434941D01*
X407282Y540432D02*
X434941D01*
X407264Y540077D02*
X434941D01*
X407180Y539723D02*
X434941D01*
X407047Y539369D02*
X434941D01*
X407367Y534054D02*
X434941D01*
X407135Y533699D02*
X434941D01*
X407083Y533345D02*
X434941D01*
X407216Y532991D02*
X434941D01*
X407277Y532636D02*
X434941D01*
X407273Y532282D02*
X434941D01*
X407204Y531928D02*
X434941D01*
X407063Y531573D02*
X434941D01*
X407152Y531219D02*
X434941D01*
X407252Y530865D02*
X434941D01*
X407283Y530510D02*
X434941D01*
X407251Y530156D02*
X434941D01*
X407151Y529802D02*
X434941D01*
X407064Y529448D02*
X434941D01*
X407205Y529093D02*
X434941D01*
X407274Y528739D02*
X434941D01*
X407277Y528385D02*
X434941D01*
X407215Y528030D02*
X434941D01*
X423354Y527676D02*
X434941D01*
X432528Y527322D02*
X434941D01*
X433060Y526967D02*
X434941D01*
X433387Y526613D02*
X434941D01*
X433606Y526259D02*
X434941D01*
X433750Y525904D02*
X434941D01*
X433832Y525550D02*
X434941D01*
X433858Y525196D02*
X434941D01*
X433831Y524841D02*
X434941D01*
X433749Y524487D02*
X434941D01*
X433605Y524133D02*
X434941D01*
X433385Y523778D02*
X434941D01*
X433057Y523424D02*
X434941D01*
X432523Y523070D02*
X434941D01*
X408723Y534408D02*
X434908D01*
X421844Y497203D02*
X434855D01*
X433268Y485510D02*
X434843D01*
X407283Y516692D02*
X434798D01*
X395866Y445471D02*
X434701D01*
X433268Y485865D02*
X434573D01*
X422047Y498975D02*
X434509D01*
X421669Y496849D02*
X434459D01*
X407243Y516337D02*
X434443D01*
X433268Y486219D02*
X434358D01*
X395866Y445825D02*
X434346D01*
X421422Y496495D02*
X434197D01*
X433268Y486573D02*
X434187D01*
X422047Y499329D02*
X434165D01*
X407135Y515983D02*
X434089D01*
X433232Y486928D02*
X434055D01*
X421087Y496140D02*
X434022D01*
X426901Y407203D02*
X434018D01*
X395866Y446180D02*
X433992D01*
X433095Y487282D02*
X433959D01*
X422047Y499684D02*
X433935D01*
X428078Y495786D02*
X433914D01*
X432846Y487636D02*
X433895D01*
X428576Y495432D02*
X433863D01*
X433020Y487991D02*
X433863D01*
X428888Y495077D02*
X433858D01*
X429098Y494723D02*
X433858D01*
X429234Y494369D02*
X433858D01*
X429310Y494014D02*
X433858D01*
X429330Y493660D02*
X433858D01*
X429297Y493306D02*
X433858D01*
X429209Y492951D02*
X433858D01*
X429071Y492597D02*
X433858D01*
X432718Y492243D02*
X433858D01*
X433048Y491888D02*
X433858D01*
X433211Y491534D02*
X433858D01*
X433267Y491180D02*
X433858D01*
X433268Y490825D02*
X433858D01*
X433268Y490471D02*
X433858D01*
X433268Y490117D02*
X433858D01*
X433268Y489762D02*
X433858D01*
X433268Y489408D02*
X433858D01*
X433268Y489054D02*
X433858D01*
X433265Y488699D02*
X433858D01*
X433197Y488345D02*
X433858D01*
X407083Y515629D02*
X433791D01*
X422047Y500038D02*
X433783D01*
X422047Y500392D02*
X433695D01*
X422047Y501101D02*
X433682D01*
X422047Y500747D02*
X433662D01*
X395866Y446534D02*
X433638D01*
X407216Y515274D02*
X433589D01*
X432633Y501455D02*
X433508D01*
X407277Y514920D02*
X433458D01*
X407180Y539014D02*
X433400D01*
X407273Y514566D02*
X433385D01*
X407204Y514211D02*
X433366D01*
X416141Y513857D02*
X433342D01*
X395866Y446888D02*
X433283D01*
X426721Y407558D02*
X433273D01*
X433045Y585077D02*
X433097D01*
X409166Y534762D02*
X433076D01*
X416609Y513503D02*
X433066D01*
X395866Y447243D02*
X432929D01*
X416908Y513148D02*
X432874D01*
X426517Y407912D02*
X432788D01*
X408222Y538660D02*
X432782D01*
X417109Y512794D02*
X432752D01*
X417238Y512440D02*
X432658D01*
X409452Y535117D02*
X432606D01*
X395866Y447597D02*
X432575D01*
X426287Y408266D02*
X432425D01*
X408899Y538306D02*
X432423D01*
X409645Y535471D02*
X432307D01*
X407051Y553188D02*
X432255D01*
X395866Y447951D02*
X432220D01*
X395866Y441573D02*
X432219D01*
X409277Y537951D02*
X432183D01*
X426028Y408621D02*
X432132D01*
X409767Y535825D02*
X432105D01*
X416519Y557794D02*
X432067D01*
X409527Y537597D02*
X432024D01*
X409831Y536180D02*
X431976D01*
X407082Y563109D02*
X431944D01*
X409694Y537243D02*
X431930D01*
X409840Y536534D02*
X431906D01*
X409795Y536888D02*
X431891D01*
X395866Y448306D02*
X431866D01*
X425737Y408975D02*
X431844D01*
X395866Y441219D02*
X431601D01*
X430665Y501455D02*
X431540D01*
X395866Y448660D02*
X431512D01*
X407192Y553542D02*
X431373D01*
X425407Y409329D02*
X431343D01*
X416450Y557440D02*
X431312D01*
X407215Y563463D02*
X431262D01*
X395866Y440865D02*
X431242D01*
X395866Y449014D02*
X431157D01*
X431077Y585077D02*
X431128D01*
X401767Y437676D02*
X431102D01*
X401767Y437322D02*
X431102D01*
X401726Y436967D02*
X431102D01*
X401644Y436613D02*
X431102D01*
X401517Y436259D02*
X431102D01*
X401337Y435904D02*
X431102D01*
X401095Y435550D02*
X431102D01*
X400769Y435196D02*
X431102D01*
X401727Y438030D02*
X431101D01*
X426085Y568778D02*
X431004D01*
X425668Y568424D02*
X431004D01*
X424845Y568070D02*
X431004D01*
X410633Y567715D02*
X431004D01*
X410278Y567361D02*
X431004D01*
X399548Y440510D02*
X431002D01*
X409924Y567007D02*
X430980D01*
X409112Y553896D02*
X430954D01*
X401645Y438385D02*
X430924D01*
X425032Y409684D02*
X430917D01*
X416320Y557085D02*
X430915D01*
X417307Y512085D02*
X430906D01*
X407277Y563818D02*
X430883D01*
X426440Y569133D02*
X430863D01*
X400315Y440156D02*
X430843D01*
X395866Y449369D02*
X430803D01*
X401518Y438739D02*
X430795D01*
X400772Y439802D02*
X430748D01*
X401339Y439093D02*
X430725D01*
X401097Y439448D02*
X430710D01*
X409570Y566652D02*
X430703D01*
X409734Y554251D02*
X430680D01*
X416119Y556731D02*
X430654D01*
X407274Y564172D02*
X430632D01*
X424601Y410038D02*
X430553D01*
X409215Y566298D02*
X430512D01*
X426846Y569487D02*
X430509D01*
X410095Y554605D02*
X430496D01*
X415819Y556377D02*
X430479D01*
X424579Y523070D02*
X430469D01*
X407294Y564526D02*
X430465D01*
X423852Y527322D02*
X430464D01*
X395866Y449723D02*
X430449D01*
X417321Y511731D02*
X430438D01*
X408861Y565944D02*
X430390D01*
X410335Y554959D02*
X430380D01*
X415349Y556022D02*
X430371D01*
X407792Y564881D02*
X430363D01*
X408507Y565589D02*
X430327D01*
X410494Y555314D02*
X430323D01*
X410590Y555668D02*
X430320D01*
X408152Y565235D02*
X430318D01*
X424097Y410392D02*
X430198D01*
X428034Y569841D02*
X430155D01*
X417283Y511377D02*
X430139D01*
X395866Y450077D02*
X430094D01*
X417187Y511022D02*
X429939D01*
X424606Y523424D02*
X429935D01*
X424164Y526967D02*
X429932D01*
X423489Y410747D02*
X429844D01*
X417028Y510668D02*
X429810D01*
X428477Y570196D02*
X429800D01*
X416788Y510314D02*
X429740D01*
X395866Y450432D02*
X429740D01*
X416432Y509959D02*
X429726D01*
X428548Y509605D02*
X429658D01*
X424580Y523778D02*
X429607D01*
X424374Y526613D02*
X429605D01*
X428696Y501455D02*
X429571D01*
X422711Y411101D02*
X429490D01*
X428763Y570550D02*
X429446D01*
X424498Y524133D02*
X429387D01*
X424510Y526259D02*
X429386D01*
X399878Y450786D02*
X429386D01*
X428506Y434841D02*
X429368D01*
X424367Y524487D02*
X429243D01*
X424585Y525904D02*
X429242D01*
X424484Y524841D02*
X429161D01*
X424606Y525550D02*
X429160D01*
X429108Y585077D02*
X429160D01*
X421538Y411455D02*
X429135D01*
X424573Y525196D02*
X429134D01*
X400682Y451140D02*
X429031D01*
X415748Y479487D02*
X428915D01*
X395866Y411810D02*
X428781D01*
X401202Y451495D02*
X428677D01*
X395866Y412164D02*
X428427D01*
X401592Y451849D02*
X428323D01*
X415748Y479841D02*
X428091D01*
X395866Y412518D02*
X428072D01*
X401898Y452203D02*
X427968D01*
X426579Y509605D02*
X427751D01*
X395866Y412873D02*
X427718D01*
X398720Y597833D02*
X427677D01*
X415748Y480196D02*
X427674D01*
X402143Y452558D02*
X427614D01*
X426728Y501455D02*
X427603D01*
X395866Y413227D02*
X427364D01*
X415748Y480550D02*
X427320D01*
X402337Y452912D02*
X427260D01*
X427140Y585077D02*
X427191D01*
X395866Y413581D02*
X427009D01*
X415748Y480904D02*
X426966D01*
X402490Y453266D02*
X426905D01*
X395866Y413936D02*
X426655D01*
X400813Y434841D02*
X426612D01*
X415748Y481259D02*
X426611D01*
X410159Y593227D02*
X426597D01*
X402606Y453621D02*
X426551D01*
X398720Y597479D02*
X426509D01*
X410252Y593581D02*
X426340D01*
X395866Y414290D02*
X426301D01*
X415748Y481613D02*
X426257D01*
X402687Y453975D02*
X426197D01*
X398720Y597125D02*
X426068D01*
X401128Y434487D02*
X426041D01*
X410368Y593936D02*
X425962D01*
X395866Y414644D02*
X425946D01*
X415748Y481967D02*
X425908D01*
X425322Y495786D02*
X425859D01*
X402737Y454329D02*
X425842D01*
X424611Y509605D02*
X425783D01*
X408681Y596770D02*
X425782D01*
X410425Y594290D02*
X425711D01*
X424577Y434133D02*
X425698D01*
X415748Y482322D02*
X425646D01*
X424759Y501455D02*
X425634D01*
X395866Y414999D02*
X425592D01*
X409436Y596416D02*
X425590D01*
X410428Y594644D02*
X425544D01*
X402756Y454684D02*
X425488D01*
X425056Y433778D02*
X425469D01*
X415748Y482676D02*
X425469D01*
X409833Y596062D02*
X425468D01*
X410377Y594999D02*
X425442D01*
X410094Y595707D02*
X425405D01*
X410269Y595353D02*
X425397D01*
X415748Y483030D02*
X425330D01*
X395866Y415353D02*
X425238D01*
X425171Y585077D02*
X425223D01*
X402744Y455038D02*
X425134D01*
X415748Y483385D02*
X424914D01*
X395866Y415707D02*
X424883D01*
X402702Y455392D02*
X424779D01*
X422520Y551770D02*
X424724D01*
X415748Y483739D02*
X424705D01*
X415748Y484093D02*
X424608D01*
X395866Y416062D02*
X424529D01*
X402628Y455747D02*
X424425D01*
X415748Y484448D02*
X424210D01*
X395866Y416416D02*
X424175D01*
X402520Y456101D02*
X424071D01*
X415748Y484802D02*
X423855D01*
X395866Y416770D02*
X423820D01*
X422642Y509605D02*
X423814D01*
X423286Y545038D02*
X423762D01*
X402376Y456455D02*
X423716D01*
X422791Y501455D02*
X423666D01*
X415748Y485156D02*
X423501D01*
X395866Y417125D02*
X423466D01*
X402191Y456810D02*
X423362D01*
X423203Y585077D02*
X423254D01*
X415748Y485510D02*
X423152D01*
X395866Y417479D02*
X423112D01*
X420733Y495786D02*
X423103D01*
X401959Y457164D02*
X423008D01*
X415748Y485865D02*
X422890D01*
X395866Y417833D02*
X422757D01*
X415748Y486219D02*
X422713D01*
X401669Y457518D02*
X422653D01*
X420378Y495432D02*
X422605D01*
X415748Y486573D02*
X422601D01*
X415748Y486928D02*
X422547D01*
X416835Y491888D02*
X422539D01*
X416481Y491534D02*
X422539D01*
X416126Y491180D02*
X422539D01*
X415779Y490825D02*
X422539D01*
X415748Y490471D02*
X422539D01*
X415748Y490117D02*
X422539D01*
X415748Y489762D02*
X422539D01*
X415748Y489408D02*
X422539D01*
X415748Y489054D02*
X422539D01*
X415748Y488699D02*
X422539D01*
X415748Y488345D02*
X422539D01*
X415748Y487991D02*
X422539D01*
X415748Y487636D02*
X422539D01*
X415748Y487282D02*
X422539D01*
X395866Y418188D02*
X422403D01*
X407243Y551770D02*
X422362D01*
X417189Y492243D02*
X422354D01*
X401301Y457873D02*
X422299D01*
X420024Y495077D02*
X422293D01*
X417544Y492597D02*
X422124D01*
X419670Y494723D02*
X422083D01*
X395866Y418542D02*
X422049D01*
X417898Y492951D02*
X421972D01*
X419315Y494369D02*
X421947D01*
X400818Y458227D02*
X421945D01*
X418252Y493306D02*
X421884D01*
X418961Y494014D02*
X421871D01*
X418607Y493660D02*
X421851D01*
X420674Y509605D02*
X421846D01*
X395866Y418896D02*
X421728D01*
X410072Y545038D02*
X421596D01*
X400246Y458581D02*
X421590D01*
X395866Y419251D02*
X421451D01*
X400539Y458936D02*
X421236D01*
X407180Y521298D02*
X421217D01*
X400618Y419605D02*
X421213D01*
X407135Y551416D02*
X421194D01*
X407082Y527676D02*
X421134D01*
X409574Y545392D02*
X420974D01*
X401101Y459290D02*
X420882D01*
X407083Y551062D02*
X420753D01*
X407047Y521652D02*
X420683D01*
X407136Y527322D02*
X420637D01*
X407215Y545747D02*
X420614D01*
X401514Y459644D02*
X420527D01*
X407216Y550707D02*
X420467D01*
X407277Y546101D02*
X420374D01*
X407180Y522007D02*
X420355D01*
X407244Y526967D02*
X420324D01*
X407283Y548227D02*
X420293D01*
X407277Y550353D02*
X420275D01*
X407252Y548581D02*
X420229D01*
X407274Y546455D02*
X420214D01*
X401836Y459999D02*
X420173D01*
X407251Y547873D02*
X420164D01*
X407273Y549999D02*
X420153D01*
X407264Y522361D02*
X420135D01*
X407152Y548936D02*
X420127D01*
X407280Y524487D02*
X420121D01*
X407205Y546810D02*
X420119D01*
X407283Y526613D02*
X420115D01*
X407151Y547518D02*
X420095D01*
X407204Y549644D02*
X420090D01*
X407063Y549290D02*
X420082D01*
X407064Y547164D02*
X420080D01*
X407269Y524841D02*
X420004D01*
X407282Y522715D02*
X419991D01*
X407226Y524133D02*
X419990D01*
X407258Y526259D02*
X419978D01*
X407193Y525196D02*
X419915D01*
X418278Y434133D02*
X419911D01*
X407236Y523070D02*
X419909D01*
X407101Y523778D02*
X419908D01*
X407166Y525904D02*
X419903D01*
X407051Y525550D02*
X419882D01*
X407120Y523424D02*
X419882D01*
X418705Y509605D02*
X419877D01*
X402093Y460353D02*
X419819D01*
X402298Y460707D02*
X419464D01*
X418756Y433778D02*
X419433D01*
X402460Y461062D02*
X419110D01*
X411434Y582597D02*
X419099D01*
X402583Y461416D02*
X418756D01*
X411251Y582951D02*
X418629D01*
X402672Y461770D02*
X418401D01*
X410978Y583306D02*
X418330D01*
X395866Y411455D02*
X418225D01*
X410560Y583660D02*
X418129D01*
X402729Y462125D02*
X418047D01*
X409689Y584014D02*
X417999D01*
X402109Y584369D02*
X417930D01*
X402253Y584723D02*
X417915D01*
X416737Y509605D02*
X417909D01*
X402754Y462479D02*
X417693D01*
X417297Y585077D02*
X417349D01*
X402749Y462833D02*
X417338D01*
X395866Y411101D02*
X417053D01*
X402714Y463188D02*
X416984D01*
X402647Y463542D02*
X416630D01*
X415830Y499684D02*
X416535D01*
X415475Y499329D02*
X416535D01*
X415121Y498975D02*
X416523D01*
X416184Y500038D02*
X416492D01*
X402547Y463896D02*
X416275D01*
X395866Y410747D02*
X416275D01*
X414767Y498621D02*
X416194D01*
X402411Y464251D02*
X415921D01*
X414412Y498266D02*
X415840D01*
X395866Y410392D02*
X415667D01*
X402236Y464605D02*
X415567D01*
X414058Y497912D02*
X415485D01*
X415329Y585077D02*
X415380D01*
X402015Y464959D02*
X415212D01*
X395866Y410038D02*
X415163D01*
X401225Y397282D02*
X415157D01*
X401579Y396928D02*
X415157D01*
X401933Y396573D02*
X415157D01*
X402313Y396219D02*
X415157D01*
X400870Y397636D02*
X415151D01*
X413704Y497558D02*
X415131D01*
X401739Y465314D02*
X414858D01*
X400516Y397991D02*
X414780D01*
X413349Y497203D02*
X414777D01*
X395866Y409684D02*
X414732D01*
X401391Y465668D02*
X414504D01*
X412963Y496849D02*
X414422D01*
X400162Y398345D02*
X414399D01*
X395866Y409329D02*
X414357D01*
X400939Y466022D02*
X414149D01*
X412424Y496495D02*
X414068D01*
X399807Y398699D02*
X414064D01*
X395866Y408975D02*
X414027D01*
X400310Y466377D02*
X413795D01*
X407063Y513857D02*
X413780D01*
X399453Y399054D02*
X413768D01*
X395866Y408621D02*
X413735D01*
X412046Y496140D02*
X413714D01*
X399099Y399408D02*
X413506D01*
X395866Y408266D02*
X413477D01*
X400380Y466731D02*
X413441D01*
X413360Y585077D02*
X413412D01*
X411364Y495786D02*
X413359D01*
X407269Y560274D02*
X413322D01*
X407152Y513503D02*
X413312D01*
X398744Y399762D02*
X413272D01*
X395866Y407912D02*
X413247D01*
X401739Y428109D02*
X413176D01*
X400992Y467085D02*
X413086D01*
X398390Y400117D02*
X413066D01*
X395866Y407558D02*
X413043D01*
X407252Y513148D02*
X413013D01*
X402707Y495432D02*
X413005D01*
X410629Y556022D02*
X412997D01*
X398036Y400471D02*
X412883D01*
X395866Y407203D02*
X412863D01*
X407283Y512794D02*
X412813D01*
X401431Y467440D02*
X412732D01*
X397681Y400825D02*
X412722D01*
X395866Y406849D02*
X412704D01*
X407280Y559920D02*
X412703D01*
X407403Y512440D02*
X412684D01*
X402637Y495077D02*
X412651D01*
X407622Y512085D02*
X412614D01*
X411543Y511731D02*
X412589D01*
X397327Y401180D02*
X412582D01*
X395866Y406495D02*
X412567D01*
X410614Y556377D02*
X412527D01*
X402754Y501101D02*
X412497D01*
X412041Y511377D02*
X412488D01*
X396973Y401534D02*
X412462D01*
X395866Y406140D02*
X412449D01*
X401667Y428463D02*
X412437D01*
X401362Y434133D02*
X412431D01*
X401771Y467794D02*
X412378D01*
X401336Y419959D02*
X412367D01*
X396618Y401888D02*
X412360D01*
X395866Y405786D02*
X412349D01*
X407226Y559566D02*
X412344D01*
X402533Y494723D02*
X412296D01*
X396275Y402243D02*
X412276D01*
X395866Y405432D02*
X412267D01*
X410545Y556731D02*
X412228D01*
X396046Y402597D02*
X412209D01*
X395866Y405077D02*
X412202D01*
X402686Y500747D02*
X412160D01*
X395917Y402951D02*
X412159D01*
X395866Y404723D02*
X412155D01*
X395867Y403306D02*
X412126D01*
X395866Y404369D02*
X412123D01*
X395866Y403660D02*
X412109D01*
X395866Y404014D02*
X412108D01*
X407101Y559211D02*
X412105D01*
X410416Y557085D02*
X412026D01*
X402041Y468148D02*
X412023D01*
X401770Y427755D02*
X412005D01*
X401550Y428818D02*
X411955D01*
X401534Y433778D02*
X411952D01*
X407120Y558857D02*
X411946D01*
X402393Y494369D02*
X411942D01*
X410215Y557440D02*
X411897D01*
X410980Y501455D02*
X411855D01*
X407236Y558503D02*
X411851D01*
X409917Y557794D02*
X411827D01*
X409449Y558148D02*
X411812D01*
X410709Y500392D02*
X411806D01*
X401384Y429172D02*
X411730D01*
X401656Y433424D02*
X411729D01*
X402256Y468503D02*
X411669D01*
X401157Y429526D02*
X411628D01*
X401733Y433070D02*
X411628D01*
X401769Y432715D02*
X411614D01*
X401764Y432361D02*
X411614D01*
X401719Y432007D02*
X411614D01*
X401632Y431652D02*
X411614D01*
X401499Y431298D02*
X411614D01*
X401314Y430944D02*
X411614D01*
X401064Y430589D02*
X411614D01*
X400732Y430235D02*
X411614D01*
X400853Y429881D02*
X411614D01*
X402213Y494014D02*
X411588D01*
X401608Y420314D02*
X411570D01*
X411392Y585077D02*
X411443D01*
X401761Y427400D02*
X411404D01*
X402427Y468857D02*
X411322D01*
X401986Y493660D02*
X411253D01*
X401739Y420668D02*
X411147D01*
X402559Y469211D02*
X411056D01*
X401712Y427046D02*
X411038D01*
X401702Y493306D02*
X411006D01*
X402655Y469566D02*
X410867D01*
X401772Y421022D02*
X410862D01*
X401344Y492951D02*
X410832D01*
X401620Y426692D02*
X410787D01*
X402719Y469920D02*
X410738D01*
X400875Y492597D02*
X410716D01*
X401772Y421377D02*
X410665D01*
X402751Y470274D02*
X410660D01*
X400202Y492243D02*
X410649D01*
X402753Y470629D02*
X410630D01*
X395866Y491888D02*
X410630D01*
X395866Y491534D02*
X410630D01*
X395866Y491180D02*
X410630D01*
X395866Y490825D02*
X410630D01*
X395866Y490471D02*
X410630D01*
X395866Y490117D02*
X410630D01*
X395866Y489762D02*
X410630D01*
X395866Y489408D02*
X410630D01*
X395866Y489054D02*
X410630D01*
X395866Y488699D02*
X410630D01*
X395866Y488345D02*
X410630D01*
X395866Y487991D02*
X410630D01*
X395866Y487636D02*
X410630D01*
X395866Y487282D02*
X410630D01*
X395866Y486928D02*
X410630D01*
X395866Y486573D02*
X410630D01*
X395866Y486219D02*
X410630D01*
X395866Y485865D02*
X410630D01*
X395866Y485510D02*
X410630D01*
X395866Y485156D02*
X410630D01*
X395866Y484802D02*
X410630D01*
X395866Y484448D02*
X410630D01*
X395866Y484093D02*
X410630D01*
X395866Y483739D02*
X410630D01*
X395866Y483385D02*
X410630D01*
X395866Y483030D02*
X410630D01*
X395866Y482676D02*
X410630D01*
X402020Y482322D02*
X410630D01*
X402451Y481967D02*
X410630D01*
X402658Y481613D02*
X410630D01*
X402747Y481259D02*
X410630D01*
X402756Y480904D02*
X410630D01*
X402756Y480550D02*
X410630D01*
X402756Y480196D02*
X410630D01*
X402756Y479841D02*
X410630D01*
X402756Y479487D02*
X410630D01*
X402756Y479133D02*
X410630D01*
X402756Y478778D02*
X410630D01*
X402756Y478424D02*
X410630D01*
X402756Y478070D02*
X410630D01*
X402756Y477715D02*
X410630D01*
X402756Y477361D02*
X410630D01*
X402756Y477007D02*
X410630D01*
X402756Y476652D02*
X410630D01*
X402756Y476298D02*
X410630D01*
X402756Y475944D02*
X410630D01*
X402756Y475589D02*
X410630D01*
X402709Y475235D02*
X410630D01*
X402559Y474881D02*
X410630D01*
X402253Y474526D02*
X410630D01*
X400992Y474172D02*
X410630D01*
X401051Y473818D02*
X410630D01*
X401476Y473463D02*
X410630D01*
X401806Y473109D02*
X410630D01*
X402069Y472755D02*
X410630D01*
X402279Y472400D02*
X410630D01*
X402445Y472046D02*
X410630D01*
X402572Y471692D02*
X410630D01*
X402664Y471337D02*
X410630D01*
X402724Y470983D02*
X410630D01*
X401482Y426337D02*
X410613D01*
X402508Y500392D02*
X410551D01*
X401772Y421731D02*
X410534D01*
X401290Y425983D02*
X410502D01*
X401772Y422085D02*
X410458D01*
X401209Y425629D02*
X410444D01*
X401539Y425274D02*
X410433D01*
X401709Y424920D02*
X410433D01*
X401770Y424566D02*
X410433D01*
X401772Y424211D02*
X410433D01*
X401772Y423857D02*
X410433D01*
X401772Y423503D02*
X410433D01*
X401772Y423148D02*
X410433D01*
X401772Y422794D02*
X410433D01*
X401772Y422440D02*
X410433D01*
X402747Y495786D02*
X409896D01*
X402756Y501455D02*
X409886D01*
X402335Y585077D02*
X409500D01*
X402148Y500038D02*
X409383D01*
X407766Y511731D02*
X409323D01*
X402755Y496140D02*
X409214D01*
X402756Y501810D02*
X409203D01*
X402362Y585432D02*
X409029D01*
X400931Y499684D02*
X408942D01*
X402756Y502164D02*
X408859D01*
X402733Y496495D02*
X408836D01*
X407848Y511377D02*
X408826D01*
X401889Y584014D02*
X408815D01*
X402336Y585786D02*
X408752D01*
X401156Y499329D02*
X408656D01*
X402756Y502518D02*
X408647D01*
X402680Y496849D02*
X408585D01*
X402254Y586140D02*
X408582D01*
X398720Y591810D02*
X408581D01*
X402756Y502873D02*
X408522D01*
X407874Y511022D02*
X408513D01*
X402110Y586495D02*
X408490D01*
X398720Y591455D02*
X408490D01*
X402756Y503227D02*
X408468D01*
X395883Y508188D02*
X408465D01*
X402151Y507833D02*
X408465D01*
X398720Y591101D02*
X408465D01*
X398720Y590747D02*
X408465D01*
X398720Y590392D02*
X408465D01*
X398720Y590038D02*
X408465D01*
X398720Y589684D02*
X408465D01*
X398720Y589329D02*
X408465D01*
X398720Y588975D02*
X408465D01*
X398720Y588621D02*
X408465D01*
X398720Y588266D02*
X408465D01*
X398720Y587912D02*
X408465D01*
X401032Y587558D02*
X408465D01*
X401564Y587203D02*
X408465D01*
X401891Y586849D02*
X408465D01*
X402510Y507479D02*
X408465D01*
X402687Y507125D02*
X408465D01*
X402754Y506770D02*
X408465D01*
X402756Y506416D02*
X408465D01*
X402756Y506062D02*
X408465D01*
X402756Y505707D02*
X408465D01*
X402756Y505353D02*
X408465D01*
X402756Y504999D02*
X408465D01*
X402756Y504644D02*
X408465D01*
X402756Y504290D02*
X408465D01*
X402756Y503936D02*
X408465D01*
X402756Y503581D02*
X408465D01*
X401556Y498975D02*
X408464D01*
X402596Y497203D02*
X408418D01*
X395866Y508542D02*
X408345D01*
X401870Y498621D02*
X408342D01*
X402476Y497558D02*
X408316D01*
X407847Y510668D02*
X408304D01*
X402120Y498266D02*
X408279D01*
X402319Y497912D02*
X408271D01*
X406539Y508896D02*
X408193D01*
X407774Y510314D02*
X408131D01*
X407073Y509251D02*
X408104D01*
X407621Y509959D02*
X408092D01*
X407401Y509605D02*
X408071D01*
X403375Y592164D02*
X407648D01*
X407263Y541140D02*
X407523D01*
X403563Y596770D02*
X407461D01*
X404257Y592518D02*
X406767D01*
X404318Y596416D02*
X406706D01*
X404676Y592873D02*
X406347D01*
X404715Y596062D02*
X406309D01*
X404950Y593227D02*
X406073D01*
X404976Y595707D02*
X406048D01*
X405134Y593581D02*
X405890D01*
X405151Y595353D02*
X405873D01*
X405249Y593936D02*
X405774D01*
X405259Y594999D02*
X405764D01*
X405307Y594290D02*
X405717D01*
X405310Y594644D02*
X405714D01*
X395866Y508896D02*
X404485D01*
X395866Y509251D02*
X403951D01*
X395866Y509605D02*
X403623D01*
X395866Y509959D02*
X403403D01*
X395866Y510314D02*
X403259D01*
X395866Y510668D02*
X403176D01*
X398720Y592164D02*
X402530D01*
X398720Y596770D02*
X402343D01*
X398720Y592518D02*
X401649D01*
X398720Y596416D02*
X401588D01*
X398720Y592873D02*
X401229D01*
X398720Y596062D02*
X401191D01*
X398720Y593227D02*
X400955D01*
X398720Y595707D02*
X400929D01*
X398720Y593581D02*
X400772D01*
X398720Y595353D02*
X400755D01*
X398720Y593936D02*
X400656D01*
X398720Y594999D02*
X400646D01*
X398720Y594290D02*
X400599D01*
X398720Y594644D02*
X400596D01*
X395866Y511022D02*
X400129D01*
X395866Y511377D02*
X399619D01*
X395866Y511731D02*
X399328D01*
X395866Y513857D02*
X399236D01*
X395866Y515629D02*
X399216D01*
X395866Y515983D02*
X399164D01*
X395866Y512085D02*
X399148D01*
X395866Y513503D02*
X399147D01*
X395866Y514211D02*
X399095D01*
X395866Y515274D02*
X399083D01*
X395866Y516337D02*
X399056D01*
X395866Y512440D02*
X399048D01*
X395866Y513148D02*
X399048D01*
X395866Y514566D02*
X399026D01*
X395866Y514920D02*
X399022D01*
X395866Y517046D02*
X399020D01*
X395866Y516692D02*
X399016D01*
X395866Y512794D02*
X399016D01*
X398885Y587558D02*
X398950D01*
X395866Y517400D02*
X398427D01*
X395866Y517755D02*
X397989D01*
X395866Y440510D02*
X397696D01*
X395866Y518109D02*
X397635D01*
X395866Y450786D02*
X397366D01*
X395866Y518463D02*
X397281D01*
X395866Y492243D02*
X397043D01*
X395866Y440156D02*
X396929D01*
X395866Y518818D02*
X396926D01*
X395866Y419605D02*
X396626D01*
X395866Y519172D02*
X396572D01*
X395866Y451140D02*
X396562D01*
X395866Y439802D02*
X396472D01*
X395868Y492597D02*
X396369D01*
X395910Y519526D02*
X396218D01*
X401575Y393701D02*
X488189D01*
X496063Y401575*
Y661417*
X488189Y669291*
X401575*
X393701Y661417*
Y401575*
X401575Y393701*
G54D11*
X443754Y650591D02*
G03X444685Y649659I931J-0D01*
G01X443754Y650591D02*
Y659646D01*
X444685Y660577D02*
G03X443754Y659646I0J-931D01*
G01X444685Y660577D02*
X451969D01*
X452900Y659646D02*
G03X451969Y660577I-931J-0D01*
G01X452900Y659646D02*
Y650591D01*
X451969Y649659D02*
G03X452900Y650591I-0J932D01*
G01X451969Y649659D02*
X444685D01*
X443754Y659558D02*
X452900D01*
X443754Y659108D02*
X452900D01*
X443754Y658658D02*
X452900D01*
X443754Y658208D02*
X452900D01*
X443754Y657758D02*
X452900D01*
X443754Y657308D02*
X452900D01*
X443754Y656858D02*
X452900D01*
X443754Y656408D02*
X452900D01*
X443754Y655958D02*
X452900D01*
X443754Y655508D02*
X452900D01*
X443754Y655058D02*
X452900D01*
X443754Y654608D02*
X452900D01*
X443754Y654158D02*
X452900D01*
X443754Y653708D02*
X452900D01*
X443754Y653258D02*
X452900D01*
X443754Y652808D02*
X452900D01*
X443754Y652358D02*
X452900D01*
X443754Y651908D02*
X452900D01*
X443754Y651458D02*
X452900D01*
X443754Y651008D02*
X452900D01*
X443755Y650558D02*
X452899D01*
X443827Y660008D02*
X452826D01*
X443889Y650108D02*
X452765D01*
X444230Y660458D02*
X452423D01*
G54D15*
X447392Y413618D02*
G03X447103Y414314I-985J-0D01*
G01X446745Y414672*
X446457Y415368D02*
G03X446745Y414672I984J0D01*
G01X446457Y415368D02*
Y419671D01*
X444478Y412205D02*
X444833Y413223D01*
X445187Y412205*
X444833Y409941D02*
Y418933D01*
X447037Y412205D02*
X447392Y413223D01*
X447746Y412205*
X447392Y409941D02*
Y413618D01*
X444833Y418933D02*
G03X444544Y419629I-985J-0D01*
G01X440945Y423228*
X442717Y435644D02*
G03X443005Y434948I984J-0D01*
G01X442717Y435644D02*
Y441915D01*
G03X442428Y442611I-985J0*
G01X414265Y470775*
X440945Y441325D02*
G03X440657Y442021I-984J-0D01*
G01X412690Y469987*
X444882Y422061D02*
Y423228D01*
X446168Y420367D02*
X445170Y421365D01*
X446457Y419671D02*
G03X446168Y420367I-985J0D01*
G01X444882Y422061D02*
G03X445170Y421365I984J0D01*
G01X444882Y433071D02*
X443005Y434948D01*
X440945Y433071D02*
Y441325D01*
Y423228D02*
Y426181D01*
X444882Y423228D02*
Y426181D01*
X440945Y430118D02*
Y433071D01*
X444882Y430118D02*
Y433071D01*
X447153Y495367D02*
X443898Y498622D01*
X413976Y471471D02*
G03X414265Y470775I985J-0D01*
G01X413976Y471471D02*
Y491128D01*
X414265Y491824D02*
G03X413976Y491128I696J-696D01*
G01X414265Y491824D02*
X419987Y497546D01*
X412402Y470683D02*
G03X412690Y469987I984J0D01*
G01X412402Y470683D02*
Y491915D01*
X412690Y492611D02*
G03X412402Y491915I696J-696D01*
G01X412690Y492611D02*
X418019Y497940D01*
X442874Y491589D02*
G03X443162Y490893I984J-0D01*
G01X442874Y491589D02*
Y493012D01*
X443898Y490157D02*
X443162Y490893D01*
X438976Y490157D02*
X438858D01*
Y492913*
X453044Y494790D02*
G03X452348Y495079I-696J-696D01*
G01X447849*
X447153Y495367D02*
G03X447849Y495079I696J696D01*
G01X455091Y496759D02*
G03X454395Y497047I-696J-696D01*
G01X448833*
X448137Y497336D02*
G03X448833Y497047I696J695D01*
G01X454921Y492913D02*
X453044Y494790D01*
X458937Y492913D02*
X455091Y496759D01*
X419987Y497546D02*
G03X420276Y498242I-696J696D01*
G01Y505512*
X420276*
X418019Y497940D02*
G03X418307Y498636I-696J696D01*
G01Y505512*
X412402D02*
Y521654D01*
X414370Y523622*
X448137Y497336D02*
X446850Y498622D01*
G54D17*
X437992Y650591D02*
G03X439961Y652559I0J1968D01*
G01Y654331*
X435433Y650591D02*
X437992D01*
G54D19*
X452756Y625591D02*
X454724D01*
X452756Y640157D02*
X454724D01*
G54D23*
X461614Y605315D02*
X462008D01*
X461614Y609252D02*
X462008D01*
X451772Y475591D02*
Y475197D01*
X455709Y475591D02*
Y475197D01*
X446850D02*
Y475591D01*
X442913Y475197D02*
Y475591D01*
Y595276D02*
Y595669D01*
X438976Y595276D02*
Y595669D01*
X435236Y629921D02*
X434843D01*
X435236Y625984D02*
X434843D01*
X429921D02*
X430315D01*
X429921Y629921D02*
X430315D01*
X400394Y654528D02*
X400787D01*
X400394Y658465D02*
X400787D01*
X438780Y486220D02*
X439173D01*
X438780Y490157D02*
X439173D01*
X454528Y486220D02*
X454921D01*
X454528Y490157D02*
X454921D01*
X443701Y486220D02*
X444094D01*
X443701Y490157D02*
X444094D01*
X459449Y486220D02*
X459843D01*
X459449Y490157D02*
X459843D01*
X444685Y426181D02*
X445079D01*
X444685Y430118D02*
X445079D01*
X440748Y426181D02*
X441142D01*
X440748Y430118D02*
X441142D01*
X471654Y490157D02*
X471260D01*
X471654Y486220D02*
X471260D01*
X426969Y490157D02*
Y489764D01*
X430906Y490157D02*
Y489764D01*
X466732Y490157D02*
X466339D01*
X466732Y486220D02*
X466339D01*
X426969Y485630D02*
Y485236D01*
X430906Y485630D02*
Y485236D01*
X452264Y613976D02*
Y614370D01*
X448327Y613976D02*
Y614370D01*
G54D26*
X438386Y438976D02*
Y441142D01*
X409843Y469685*
X427165Y428150D02*
X429134D01*
X433071Y430118D02*
Y439370D01*
X433071*
X448425Y435039D02*
Y439764D01*
X416535Y471654*
Y472047*
X407480Y533465D02*
X407480D01*
X406496Y534449*
X403150*
X407480Y536417D02*
X403150D01*
X414803Y511653D02*
G03X414370Y510609I1043J-1044D01*
G01X414802Y511653D02*
X414961Y511811D01*
X410454Y500787D02*
G03X412402Y502735I-0J1948D01*
G01Y505512*
X409449Y500787D02*
X410454D01*
X438976D02*
X437992Y501772D01*
Y505512*
X436024Y500787D02*
Y505512D01*
X410433D02*
X410433D01*
Y509646*
X414370Y505512D02*
X414370D01*
Y510609*
X458169Y499508D02*
G03X459646Y500984I0J1476D01*
G01Y505512*
X457185Y499508D02*
X458169D01*
X459646Y508465D02*
X460630Y509449D01*
X457677Y505512D02*
Y509449D01*
X459646Y505512D02*
Y508465D01*
X486614Y512795D02*
X490551D01*
X486614Y532480D02*
X490551D01*
X486614Y534449D02*
X481102D01*
X481299*
X403150Y556102D02*
X408268D01*
X408465Y552165D02*
X406496Y554134D01*
X403150*
X486614Y552165D02*
X490551D01*
X486614Y554134D02*
X475394D01*
X475394*
X474409Y555118*
X403150Y581693D02*
X409252D01*
X442913Y595472D02*
G03X441929Y593096I2377J-2376D01*
G01X439961D02*
G03X438976Y595472I-3361J0D01*
G01X420276Y584646D02*
Y588976D01*
X420276*
X441929D02*
Y593096D01*
X439961Y588976D02*
Y593096D01*
X453308Y584213D02*
G03X453740Y585257I-1044J1044D01*
G01Y588976*
X455709Y584273D02*
G03X456141Y583229I1476J-0D01*
G01X455709Y584273D02*
Y588976D01*
X449311Y608858D02*
G03X447835Y607382I0J-1476D01*
G01X449311Y608858D02*
X450000D01*
X464567Y584252D02*
X466043D01*
X468012Y593504D02*
X466535D01*
X467520Y585728D02*
Y588976D01*
X466043Y584252D02*
G03X467520Y585728I0J1476D01*
G01X469488Y592028D02*
G03X468012Y593504I-1476J-0D01*
G01X473425Y582677D02*
Y588976D01*
X451772Y582677D02*
X451772D01*
X453308Y584213*
X456693Y582677D02*
X456141Y583229D01*
X457480Y606299D02*
X453740D01*
X450000*
Y603740D02*
X447835D01*
X457480D02*
X453740D01*
X447835Y607382D02*
Y603740D01*
X446260*
Y604331*
X486614Y577756D02*
X486614D01*
X490551*
X486614Y579724D02*
X489764D01*
X490551Y580512*
X486614Y579724D02*
X482087D01*
X471457Y588976D02*
Y593504D01*
X469488Y588976D02*
Y592028D01*
X433169Y654331D02*
X435433D01*
X433169D02*
G03X431693Y652854I0J-1477D01*
G01Y631299D02*
Y652854D01*
X435039Y640945D02*
X435433D01*
Y646850*
X431693Y629921D02*
X430315D01*
X431693Y631299*
X435039Y629921D02*
X431693D01*
Y631299*
X430118Y629921D02*
X430315D01*
X460827Y658465D02*
X459449D01*
X457874Y662205D02*
Y659252D01*
X460827Y652165D02*
X459449D01*
X457874Y649016D02*
Y651969D01*
X438780Y650591D02*
X436220D01*
X428346Y643898D02*
Y642520D01*
X412402Y644488D02*
Y643110D01*
X415551Y641535D02*
X412598D01*
X409252D02*
X412205D01*
X439715Y413976D02*
Y411811D01*
Y405906D02*
Y408071D01*
X468504Y600591D02*
Y601969D01*
X465354Y603543D02*
X468307D01*
X471654D02*
X468701D01*
X487205Y491929D02*
Y493307D01*
X484055Y494882D02*
X487008D01*
X490354D02*
X487402D01*
X436614Y595472D02*
X437992D01*
X438976Y598031D02*
Y595669D01*
X464370Y605315D02*
X462008D01*
X461811Y602953D02*
Y604331D01*
X427165Y428150D02*
X428543D01*
X459646Y501378D02*
Y503346D01*
X457480Y601772D02*
Y603150D01*
X412402Y501378D02*
Y503346D01*
X453740Y601772D02*
Y605118D01*
X422244Y434252D02*
Y432874D01*
X425394Y431299D02*
X422441D01*
X439961Y584843D02*
Y586811D01*
X482480Y579724D02*
X484449D01*
X433268Y489961D02*
X431890D01*
X430906Y492520D02*
Y490157D01*
X433268Y485433D02*
X431890D01*
X482480Y554134D02*
X484449D01*
X482480Y534449D02*
X484449D01*
X471457Y483858D02*
Y485236D01*
X474016Y486220D02*
X471654D01*
X415354Y434252D02*
Y432874D01*
X411614Y431299D02*
X414567D01*
X440551Y475394D02*
X441929D01*
X442913Y477953D02*
Y475591D01*
Y472835D02*
Y475197D01*
X466535Y483858D02*
Y485236D01*
X463976Y486220D02*
X466339D01*
X458071Y475394D02*
X456693D01*
X455709Y472835D02*
Y475197D01*
Y477953D02*
Y475591D01*
G54D27*
X436165Y634646D02*
G03X438948Y635799I-0J3937D01*
G01X442224Y639075*
X443406*
X443898Y639567*
X421260Y642323D02*
Y642717D01*
X435039Y634646D02*
X436165D01*
X428346Y640945D02*
X421260D01*
Y642323*
Y632874D02*
Y634646D01*
X428346*
X407480Y413386D03*
X401575Y408465D03*
Y413386D03*
X397638Y416929D03*
Y403543D03*
X426181Y410433D03*
X474409Y415354D03*
X484252D03*
X464567D03*
X492126D03*
Y403543D03*
X407480Y431102D03*
X397638Y446457D03*
X407480Y419291D03*
X413780Y439370D03*
X423228Y454724D03*
X415354Y446850D03*
X423228D03*
X419291Y417323D03*
X415354Y454724D03*
X431102Y446850D03*
X427165Y437008D03*
X438976Y450787D03*
X414764Y434843D03*
X421850Y434646D03*
X418307Y434843D03*
X448819Y450787D03*
X456693D03*
X464567D03*
X484252Y438976D03*
X474409D03*
X464567D03*
X456693D03*
X474409Y450787D03*
X484252D03*
X456693Y427165D03*
X464567D03*
X474409D03*
X484252D03*
X492126Y438976D03*
Y450787D03*
Y427165D03*
X427165Y462598D03*
X438976D03*
Y469488D03*
X427165D03*
X456693Y462598D03*
X448819D03*
X449409Y468307D03*
X476378Y472441D03*
X474409Y462598D03*
X484252D03*
X464567D03*
X484252Y484252D03*
Y472441D03*
X492126Y484252D03*
Y462598D03*
Y472441D03*
X425197Y529528D03*
X433268Y517717D03*
X433071Y529528D03*
X414862D03*
X430118Y534449D03*
X426181D03*
X422244D03*
X463780Y498425D03*
X481299Y498031D03*
X483268Y505906D03*
X470472Y499016D03*
X457185Y499508D03*
X474409Y535433D03*
X422244Y538386D03*
X416831Y552165D03*
X428937Y553543D03*
X433563Y548228D03*
X409449D03*
X447343Y576280D03*
X430118Y538386D03*
X426181D03*
X472441Y541339D03*
X465551Y538386D03*
X472441Y548228D03*
X479823Y544291D03*
X469980Y555118D03*
X462106Y546260D03*
X405512Y598425D03*
Y604331D03*
X400000D03*
X439567D03*
X442913D03*
X411417D03*
X446260D03*
X479921Y614567D03*
X476378D03*
Y610236D03*
X480315D03*
X477854Y595472D03*
X483760Y593504D03*
Y604331D03*
X476378D03*
X461122Y595472D03*
X462205Y612402D03*
X458858D03*
X465551D03*
X492126Y593504D03*
Y585630D03*
X403051Y650098D03*
X407480Y654035D03*
X415846Y653543D03*
X423228D03*
X418307Y650098D03*
X411909D03*
X409449Y645669D03*
X414862D03*
X428150Y646654D03*
Y651575D03*
X439961Y654331D03*
X469980Y654035D03*
X478839D03*
X461614Y652559D03*
X465551Y656496D03*
X461614D03*
X462402Y618110D03*
X459055Y622047D03*
Y618110D03*
X462402Y622047D03*
X488681Y649606D03*
Y656496D03*
X428150Y659449D03*
X434547Y661909D03*
X439961D03*
X461614Y660433D03*
X465551D03*
G54D29*
X442434Y417807D02*
X441937Y417906D01*
X442035Y417409*
X442520Y417323D02*
X438386Y421457D01*
Y438976*
X487205Y506183D02*
G03X486844Y507053I-1231J0D01*
G01X482644Y511254*
X482283Y512124D02*
G03X482644Y511254I1231J-0D01*
G01X482283Y512124D02*
Y513533D01*
X483514Y514764D02*
X486614D01*
X483514D02*
G03X482283Y513533I-0J-1231D01*
G01X487205Y501181D02*
Y506183D01*
X400000Y604331D02*
X398622Y605709D01*
Y652559*
X400591Y654528*
G54D33*
X403543Y642717D03*
X486220Y613189D03*
X421260Y642717D03*
X468504Y623031D03*
G54D36*
X453740Y614173D02*
Y620079D01*
Y600394D02*
Y606299D01*
Y614173*
Y620079D02*
Y625000D01*
G54D38*
Y607480D02*
Y605118D01*
G54D41*
X403543Y642717D02*
X412402D01*
X421260*
G54D54*
X403543Y632874D03*
Y623031D03*
Y613189D03*
X486220Y623031D03*
Y632874D03*
Y642717D03*
X421260Y632874D03*
Y623031D03*
X468504Y632874D03*
Y642717D03*
G54D64*
X432652Y411836D02*
G03X435088Y410827I2436J2436D01*
G01X432652Y411836D02*
X424040Y420448D01*
X435285Y410827D02*
X435088D01*
X423031Y422884D02*
G03X424040Y420448I3445J-0D01*
G01X423031Y422884D02*
Y425000D01*
X422244*
G54D65*
X439715Y413780D02*
X436171Y417323D01*
X433563*
X439715Y405512D02*
Y409941D01*
Y413780*
X449951Y409941D02*
Y414173D01*
X436024Y488189D02*
G03X437992Y486220I1968J-0D01*
G01X436024Y488189D02*
Y495079D01*
X436220Y495276*
X430906Y489961D02*
X430827D01*
Y493701*
X454724Y486220D02*
X443898D01*
X438976*
X437992*
X466535D02*
X471457D01*
X474803*
X454724D02*
X459646D01*
X435039Y625984D02*
X443898D01*
Y626969*
X416732Y642717D02*
X418110D01*
X421260Y647244D02*
Y642717D01*
X408071D02*
X406693D01*
X403543Y647244D02*
Y642717D01*
X398622Y450591D02*
Y451969D01*
X402756Y454724D02*
X401378D01*
X401772Y427657D02*
X400394D01*
G54D66*
X442274Y413867D02*
G03X442057Y414389I-739J0D01*
G01X437224Y419223*
X441831Y412303D02*
X442274Y413366D01*
X442717Y412303*
X442274Y413366D02*
Y412303D01*
Y409941D02*
Y413867D01*
X431102Y431584D02*
G03X430886Y432106I-738J-0D01*
G01X430315Y432677*
X437008Y419745D02*
G03X437224Y419223I738J-0D01*
G01X437008Y419745D02*
Y428150D01*
X429134Y430797D02*
G03X428918Y431319I-738J-0D01*
G01X427559Y432677*
X437008Y428150D02*
G03X435039Y430118I-1969J-0D01*
G01X431102Y424518D02*
G03X431319Y423996I739J0D01*
G01X431102Y424518D02*
Y426181D01*
X423425Y431299D02*
X418307D01*
Y434843*
X429134Y423228D02*
Y426181D01*
X429134*
X432087Y423228D02*
X432087D01*
X431319Y423996*
X415354Y431299D02*
X414764D01*
Y434843*
X422244Y431299D02*
X423425D01*
X422244Y425000D02*
X415354D01*
X429134Y430118D02*
Y430797D01*
X431102Y430118D02*
X431102D01*
Y431584*
X428918Y481319D02*
X427185Y483052D01*
X425374Y485649D02*
G03X425896Y485433I522J522D01*
G01X425374Y485649D02*
X424429Y486595D01*
X424213Y487117D02*
G03X424429Y486595I738J-0D01*
G01X424213Y487117D02*
Y493701D01*
X426969Y483573D02*
G03X427185Y483052I738J0D01*
G01X426969Y483573D02*
Y485433D01*
X429440Y481102D02*
X474301D01*
X428918Y481319D02*
G03X429440Y481102I522J522D01*
G01X426969Y485433D02*
X425896D01*
X426969Y489961D02*
Y493701D01*
X474301Y481102D02*
G03X474823Y481319I-0J739D01*
G01X477343Y483839*
G03X477559Y484361I-522J522*
G01Y492913*
X466535Y491427D02*
G03X466319Y491948I-738J-0D01*
G01X465571Y492697*
G03X465049Y492913I-522J-522*
G01X463661*
X466535Y490157D02*
Y491427D01*
X471457Y490157D02*
X470906D01*
Y492913*
X459646Y490157D02*
X458937D01*
Y492913*
X454724Y490157D02*
X454921D01*
Y492913*
X399193Y518917D02*
G03X399715Y518701I522J522D01*
G01X399193Y518917D02*
X396082Y522028D01*
X395866Y522550D02*
G03X396082Y522028I738J-0D01*
G01X395866Y522550D02*
Y659340D01*
X399974Y532875D02*
X400563Y532480D01*
X399974Y532086*
X400563Y532480D02*
X400098D01*
X400922Y532221D02*
X399582Y532480D01*
X400922Y532740*
X399409Y532480D02*
X403150D01*
X399587Y520885D02*
G03X400109Y520669I522J522D01*
G01X399587Y520885D02*
X397263Y523209D01*
X397047Y523731D02*
G03X397263Y523209I738J-0D01*
G01X397047Y523731D02*
Y656584D01*
X405512Y511024D02*
Y512795D01*
X403150*
Y520669D02*
X400109D01*
X403150Y518701D02*
X399715D01*
X440374Y515532D02*
G03X439852Y515748I-522J-522D01*
G01X437707Y514173D02*
G03X437185Y513957I0J-738D01*
G01X440335Y513602D02*
G03X440857Y513386I522J522D01*
G01X440335Y513602D02*
X439980Y513957D01*
G03X439458Y514173I-522J-522*
G01X437707*
X435256Y514783D02*
G03X435039Y514261I522J-522D01*
G01X435256Y514783D02*
X436004Y515532D01*
X436526Y515748D02*
G03X436004Y515532I0J-738D01*
G01X436526Y515748D02*
X439852D01*
X447618Y531674D02*
G03X447835Y532196I-522J522D01*
G01X437795Y525699D02*
G03X438011Y525177I738J0D01*
G01X437795Y525699D02*
Y534340D01*
X438011Y534862D02*
G03X437795Y534340I522J-522D01*
G01X438011Y534862D02*
X440729Y537579D01*
X416339Y502865D02*
Y505512D01*
X416122Y502343D02*
G03X416339Y502865I-522J522D01*
G01X436614Y522944D02*
G03X436830Y522422I738J-0D01*
G01X436614Y522944D02*
Y545364D01*
X441122Y514783D02*
G03X441644Y514567I522J522D01*
G01X441122Y514783D02*
X440374Y515532D01*
X445453Y535414D02*
G03X445669Y535936I-522J522D01*
G01Y554812*
X440374Y533287D02*
G03X440157Y532765I522J-522D01*
G01X440374Y533287D02*
X443091Y536004D01*
G03X443307Y536526I-522J522*
G01Y556387*
X411505Y498032D02*
G03X412027Y498248I0J738D01*
G01X410630Y498031D02*
X411505D01*
X412027Y498248D02*
X416122Y502343D01*
X437008Y513780D02*
X437185Y513957D01*
X435039Y512205D02*
Y514261D01*
X443898Y533858D02*
X445453Y535414D01*
X440157Y529134D02*
Y532765D01*
X438583Y520669D02*
X436830Y522422D01*
X438583Y524606D02*
X438011Y525177D01*
X445866Y529921D02*
X447618Y531674D01*
X479941Y514783D02*
X481674Y516516D01*
X479331Y508553D02*
G03X479114Y509074I-738J-0D01*
G01X475019Y513170*
G03X474497Y513386I-522J-522*
G01X440857*
X447835Y532196D02*
Y544094D01*
X477362Y508159D02*
G03X477146Y508681I-738J-0D01*
G01X473838Y511989*
G03X473316Y512205I-522J-522*
G01X438976*
X482196Y516732D02*
G03X481674Y516516I-0J-738D01*
G01X482196Y516732D02*
X486614D01*
X479419Y514567D02*
X441644D01*
X479419D02*
G03X479941Y514783I-0J738D01*
G01X459646Y508465D02*
X459646D01*
X452756Y533465D02*
Y544094D01*
X457480Y533465D02*
X457677Y533661D01*
Y544094*
X477362Y505512D02*
Y508159D01*
X479331Y505512D02*
Y508553D01*
X399974Y538781D02*
X400563Y538386D01*
X399974Y537991*
X400563Y538386D02*
X400098D01*
X400922Y538126D02*
X399582Y538386D01*
X400922Y538646*
X399409Y538386D02*
X403150D01*
X406190Y565945D02*
G03X406712Y566161I0J738D01*
G01X410020Y569469*
X399213Y568652D02*
G03X399951Y567913I738J-0D01*
G01X399213Y568652D02*
Y584340D01*
X403150Y571850D02*
X416791D01*
X403150Y569882D02*
X407283D01*
X407283*
X403150Y567913D02*
X399951D01*
X403150Y565945D02*
X406190D01*
X440729Y537579D02*
G03X440945Y538101I-522J522D01*
G01Y558749*
X441161Y559271D02*
G03X440945Y558749I522J-522D01*
G01X441161Y559271D02*
X461595Y579705D01*
X410542Y569685D02*
G03X410020Y569469I-0J-738D01*
G01X410542Y569685D02*
X424320D01*
G03X424842Y569901I0J738*
G01X426791Y571850*
X436830Y545885D02*
G03X436614Y545364I522J-521D01*
G01X436830Y545886D02*
X437579Y546634D01*
G03X437795Y547156I-522J522*
G01Y559537*
X438011Y560059D02*
G03X437795Y559537I522J-522D01*
G01X438011Y560059D02*
X459233Y581280D01*
X432677Y569379D02*
G03X432461Y569901I-738J0D01*
G01X428563Y573800*
G03X428041Y574016I-522J-522*
G01X412707*
X412185Y574232D02*
G03X412707Y574016I522J522D01*
G01X412185Y574232D02*
X406909Y579508D01*
X439154Y545059D02*
G03X439370Y545581I-522J522D01*
G01Y559143*
X439586Y559665D02*
G03X439370Y559143I522J-522D01*
G01X439586Y559665D02*
X460414Y580492D01*
X445886Y555334D02*
G03X445669Y554812I521J-522D01*
G01X445886Y555334D02*
X468288Y577737D01*
X443523Y556909D02*
G03X443307Y556387I522J-522D01*
G01X443523Y556909D02*
X467107Y580492D01*
X438780Y544685D02*
X439154Y545059D01*
X432677Y565354D02*
Y569379D01*
X474912Y569882D02*
G03X474390Y569666I0J-738D01*
G01X474912Y569882D02*
X486614D01*
X462815Y556122D02*
G03X462598Y555600I522J-522D01*
G01X462815Y556122D02*
X474390Y567697D01*
X474912Y567913D02*
G03X474390Y567697I0J-738D01*
G01X474912Y567913D02*
X486614D01*
X464783Y556122D02*
G03X464567Y555600I522J-522D01*
G01X464783Y556122D02*
X474390Y565729D01*
X474912Y565945D02*
G03X474390Y565729I0J-738D01*
G01X474912Y565945D02*
X486614D01*
X464567Y551181D02*
Y555600D01*
X460236Y555512D02*
X474390Y569666D01*
X462598Y553543D02*
Y555600D01*
X486614Y569882D02*
X486614D01*
X399429Y584862D02*
G03X399213Y584340I522J-522D01*
G01X399429Y584862D02*
X400000Y585433D01*
X406909Y579508D02*
G03X406387Y579724I-522J-522D01*
G01X403150*
X458858Y609990D02*
G03X459596Y609252I738J0D01*
G01X458858Y609990D02*
Y612402D01*
X461595Y579705D02*
G03X461811Y580227I-522J522D01*
G01Y585827*
X461614Y586024*
Y588976*
X459233Y581280D02*
G03X459449Y581802I-522J522D01*
G01Y583946*
G03X459233Y584468I-738J0*
G01X457893Y585807*
X457677Y586329D02*
G03X457893Y585807I738J0D01*
G01X457677Y586329D02*
Y588976D01*
X460414Y580492D02*
G03X460630Y581014I-522J522D01*
G01Y584734*
G03X460414Y585256I-738J-0*
G01X459862Y585807*
X459646Y586329D02*
G03X459862Y585807I738J0D01*
G01X459646Y586329D02*
Y588976D01*
X468810Y577953D02*
G03X468288Y577737I-0J-738D01*
G01X468810Y577953D02*
X475285D01*
G03X475807Y578169I-0J738*
G01X479114Y581477*
G03X479331Y581999I-521J522*
G01Y588976*
X467629Y580709D02*
G03X467107Y580492I-0J-739D01*
G01X467629Y580709D02*
X474891D01*
G03X475413Y580925I0J738*
G01X477146Y582658*
G03X477362Y583180I-522J522*
G01Y588976*
X453740Y614173D02*
X452264D01*
X482087Y579724D02*
X482087D01*
X471457Y593504D02*
X471457D01*
X453740Y604331D02*
Y606299D01*
Y603740*
X457480D02*
X459449D01*
Y605118*
X461811Y609252D02*
X459596D01*
X490551Y580512D02*
X490551D01*
X397263Y657106D02*
G03X397047Y656584I522J-522D01*
G01X397263Y657106D02*
X398406Y658248D01*
X448081Y652000D02*
G03X447538Y651762I-0J-738D01*
G01X446654Y627411D02*
G03X445915Y628150I-739J0D01*
G01X443898*
X444827Y639567D02*
G03X445559Y640206I0J738D01*
G01X446457Y646850*
X412402Y641535D02*
Y642717D01*
X443898Y626969D02*
Y628150D01*
X446457Y654331D02*
Y650591D01*
X447538Y651762*
X444827Y639567D02*
X443898D01*
X452844*
X446654Y620079D02*
Y627411D01*
X448819Y651262D02*
G03X448081Y652000I-738J-0D01*
G01X452844Y639567D02*
G03X453366Y639783I-0J738D01*
G01X453740Y640157*
Y620079D02*
X452953D01*
X459055Y622047D02*
X460630D01*
Y627165*
X453740Y625000D02*
Y625591D01*
X448819Y651262D02*
Y650787D01*
Y657726*
X396082Y659862D02*
G03X395866Y659340I522J-522D01*
G01X396082Y659862D02*
X402933Y666713D01*
X403455Y666929D02*
G03X402933Y666713I0J-738D01*
G01X403455Y666929D02*
X464655D01*
X398928Y658465D02*
G03X398406Y658248I-0J-739D01*
G01X398928Y658465D02*
X400591D01*
Y661417*
X465177Y666713D02*
G03X464655Y666929I-522J-522D01*
G01X449557Y658465D02*
G03X448819Y657726I0J-739D01*
G01X449557Y658465D02*
X451575D01*
X469488Y662402D02*
X465177Y666713D01*
X458268Y662106D02*
G03X456594Y660433I-0J-1673D01*
G01X458268Y662106D02*
X465551D01*
X467224Y660433D02*
G03X465551Y662106I-1673J0D01*
G01X467224Y660433D02*
Y656496D01*
X465551Y654823D02*
G03X467224Y656496I0J1673D01*
G01X465551Y654823D02*
G03X463287Y652559I0J-2264D01*
G01Y650591*
X461614Y648917D02*
G03X463287Y650591I0J1674D01*
G01X461614Y648917D02*
X456594D01*
Y660433*
X439272Y638583D02*
G03X440157Y637697I885J-0D01*
G01X439272Y638583D02*
Y641704D01*
X439762Y642887D02*
G03X439272Y641704I1183J-1183D01*
G01X439762Y642887D02*
X444610Y647736D01*
X447244*
X448130Y646850D02*
G03X447244Y647736I-886J0D01*
G01X448130Y646850D02*
Y643898D01*
G03X449606Y642421I1476J-0*
G01X454921*
X455807Y641535D02*
G03X454921Y642421I-886J0D01*
G01X455807Y641535D02*
Y638583D01*
X454921Y637697D02*
G03X455807Y638583I0J886D01*
G01X454921Y637697D02*
X440157D01*
X457382Y609449D02*
G03X458268Y608563I886J-0D01*
G01X471260*
G03X472146Y609449I-0J886*
G01Y612205*
G03X470472Y613878I-1674J-0*
G01X458268*
G03X457382Y612992I-0J-886*
G01Y609449*
X453346Y606594D02*
G03X452461Y605709I0J-885D01*
G01X453346Y606594D02*
X472244D01*
X473130Y605709D02*
G03X472244Y606594I-886J-0D01*
G01X473130Y605709D02*
Y601575D01*
X472244Y600689D02*
G03X473130Y601575I0J886D01*
G01X472244Y600689D02*
X453346D01*
X452461Y601575D02*
G03X453346Y600689I885J-0D01*
G01X452461Y601575D02*
Y605709D01*
X412992Y426280D02*
G03X412106Y425394I0J-886D01*
G01X412992Y426280D02*
X423228D01*
X424114Y425394D02*
G03X423228Y426280I-886J-0D01*
G01X424114Y425394D02*
Y422441D01*
X423228Y421555D02*
G03X424114Y422441I0J886D01*
G01X423228Y421555D02*
X412992D01*
X412106Y422441D02*
G03X412992Y421555I886J-0D01*
G01X412106Y422441D02*
Y425394D01*
X424213Y430020D02*
G03X425098Y430906I-0J886D01*
G01X424213Y430020D02*
X412795D01*
X411909Y430906D02*
G03X412795Y430020I886J-0D01*
G01X411909Y430906D02*
Y435630D01*
X412795Y436516D02*
G03X411909Y435630I0J-886D01*
G01X412795Y436516D02*
X424213D01*
X425098Y435630D02*
G03X424213Y436516I-885J-0D01*
G01X425098Y435630D02*
Y430906D01*
X402559Y636516D02*
G03X400886Y634843I0J-1673D01*
G01X402559Y636516D02*
X422736D01*
X424409Y634843D02*
G03X422736Y636516I-1673J-0D01*
G01X424409Y634843D02*
Y631890D01*
X422736Y630217D02*
G03X424409Y631890I0J1673D01*
G01X422736Y630217D02*
X402559D01*
X400886Y631890D02*
G03X402559Y630217I1673J-0D01*
G01X400886Y631890D02*
Y634843D01*
X401575Y647343D02*
G03X400689Y646457I-0J-886D01*
G01Y639665*
X429626*
Y646457*
G03X428740Y647343I-886J-0*
G01X401575*
X456594Y660077D02*
X467224D01*
X456594Y659546D02*
X467224D01*
X456594Y659014D02*
X467224D01*
X456594Y658483D02*
X467224D01*
X456594Y657951D02*
X467224D01*
X456594Y657420D02*
X467224D01*
X456594Y656888D02*
X467224D01*
X456594Y656357D02*
X467219D01*
X456604Y660609D02*
X467215D01*
X456594Y655825D02*
X467084D01*
X456751Y661140D02*
X467068D01*
X456594Y655294D02*
X466715D01*
X457143Y661672D02*
X466676D01*
X456594Y654762D02*
X465032D01*
X456594Y654231D02*
X464025D01*
X456594Y653699D02*
X463596D01*
X456594Y653168D02*
X463371D01*
X456594Y652636D02*
X463289D01*
X456594Y652105D02*
X463287D01*
X456594Y651573D02*
X463287D01*
X456594Y651042D02*
X463287D01*
X456594Y650510D02*
X463285D01*
X456594Y649979D02*
X463172D01*
X456594Y649448D02*
X462836D01*
X439272Y641416D02*
X455807D01*
X439272Y640885D02*
X455807D01*
X439272Y640353D02*
X455807D01*
X439272Y639822D02*
X455807D01*
X439272Y639290D02*
X455807D01*
X439272Y638759D02*
X455807D01*
X439346Y638227D02*
X455733D01*
X439289Y641948D02*
X455705D01*
X439462Y642479D02*
X449197D01*
X439885Y643010D02*
X448426D01*
X440416Y643542D02*
X448173D01*
X443605Y646731D02*
X448130D01*
X443074Y646199D02*
X448130D01*
X442542Y645668D02*
X448130D01*
X442011Y645136D02*
X448130D01*
X441479Y644605D02*
X448130D01*
X440948Y644073D02*
X448130D01*
X444137Y647262D02*
X448028D01*
X457382Y611751D02*
X472146D01*
X457382Y611219D02*
X472146D01*
X457382Y610688D02*
X472146D01*
X457382Y610156D02*
X472146D01*
X457382Y609625D02*
X472146D01*
X457382Y612282D02*
X472144D01*
X457456Y609093D02*
X472071D01*
X457382Y612814D02*
X472031D01*
X457455Y613345D02*
X471697D01*
X458220Y613877D02*
X470539D01*
X452461Y605471D02*
X473130D01*
X452461Y604940D02*
X473130D01*
X452461Y604408D02*
X473130D01*
X452461Y603877D02*
X473130D01*
X452461Y603345D02*
X473130D01*
X452461Y602814D02*
X473130D01*
X452461Y602282D02*
X473130D01*
X452461Y601751D02*
X473130D01*
X452511Y606003D02*
X473080D01*
X452535Y601219D02*
X473055D01*
X453025Y606534D02*
X472566D01*
X412106Y425274D02*
X424114D01*
X412106Y424743D02*
X424114D01*
X412106Y424211D02*
X424114D01*
X412106Y423680D02*
X424114D01*
X412106Y423148D02*
X424114D01*
X412106Y422617D02*
X424114D01*
X412181Y422085D02*
X424040D01*
X412208Y425806D02*
X424012D01*
X411909Y435333D02*
X425098D01*
X411909Y434802D02*
X425098D01*
X411909Y434270D02*
X425098D01*
X411909Y433739D02*
X425098D01*
X411909Y433207D02*
X425098D01*
X411909Y432676D02*
X425098D01*
X411909Y432144D02*
X425098D01*
X411909Y431613D02*
X425098D01*
X411909Y431081D02*
X425098D01*
X411941Y435865D02*
X425067D01*
X411984Y430550D02*
X425024D01*
X412351Y436396D02*
X424657D01*
X400886Y634467D02*
X424409D01*
X400886Y633936D02*
X424409D01*
X400886Y633404D02*
X424409D01*
X400886Y632873D02*
X424409D01*
X400886Y632341D02*
X424409D01*
X400888Y631810D02*
X424408D01*
X400893Y634999D02*
X424402D01*
X401002Y631278D02*
X424294D01*
X401034Y635530D02*
X424262D01*
X401337Y630747D02*
X423958D01*
X401413Y636062D02*
X423882D01*
X400689Y646042D02*
X429626D01*
X400689Y645510D02*
X429626D01*
X400689Y644979D02*
X429626D01*
X400689Y644448D02*
X429626D01*
X400689Y643916D02*
X429626D01*
X400689Y643385D02*
X429626D01*
X400689Y642853D02*
X429626D01*
X400689Y642322D02*
X429626D01*
X400689Y641790D02*
X429626D01*
X400689Y641259D02*
X429626D01*
X400689Y640727D02*
X429626D01*
X400689Y640196D02*
X429626D01*
X400697Y646573D02*
X429618D01*
X400971Y647105D02*
X429344D01*
G54D67*
X427165Y428150D02*
X426575D01*
X423425Y431299*
X409843Y469685D02*
Y492913D01*
X416142Y499213*
X416535Y472047D02*
Y490945D01*
X423622Y498031*
X429134*
X442913Y471260D02*
Y475394D01*
X446850Y472047D02*
Y475394D01*
X430906Y485433D02*
Y489961D01*
X487205Y491339D02*
Y494882D01*
X455709Y471260D02*
Y475394D01*
X451772Y472047D02*
Y475394D01*
X442913Y595472D02*
X445079D01*
X486220Y613189D02*
X485039D01*
X478740Y619488*
X477362*
X407515Y635827D02*
G03X405775Y635106I0J-2461D01*
G01X407515Y635827D02*
X412402D01*
X403543Y632874D02*
X405775Y635106D01*
X421260Y642323D02*
Y646654D01*
X429134Y640354D02*
X428346D01*
Y640945*
X429134Y640354D02*
Y646654D01*
X421260*
X475460Y625327D02*
X468504Y632283D01*
Y632874*
X477200Y624606D02*
X477362D01*
Y625197*
X475460Y625327D02*
G03X477200Y624606I1740J1740D01*
G01X477362Y618898D02*
Y619488D01*
X468504Y632874D02*
X460630D01*
X468504Y623031D02*
X460630D01*
X446358Y404035D03*
X435531D03*
X439715Y413780D03*
Y405512D03*
X462598Y408957D03*
X453740Y404035D03*
X449951Y414173D03*
X404331Y451575D03*
Y455512D03*
X403937Y438583D03*
Y447244D03*
X433071Y439370D03*
X437598Y431496D03*
X442520Y417323D03*
X433563D03*
X444882Y433071D03*
X427165Y428150D03*
X440945Y433071D03*
X427559Y432677D03*
X430315D03*
X429134Y423228D03*
X440945D03*
X432087D03*
X444882D03*
X448819Y424016D03*
Y428150D03*
X448425Y435039D03*
X421654Y496063D03*
X412205Y495276D03*
X412402Y465551D03*
X416339Y461614D03*
X420276Y458661D03*
X424213Y493701D03*
X438858Y492913D03*
X442874Y493012D03*
X436220Y495276D03*
X426969Y493701D03*
X430827D03*
X442913Y471260D03*
X446850Y472047D03*
X487205Y491339D03*
X477559Y492913D03*
X454921D03*
X458937D03*
X463661D03*
X470906D03*
X455709Y471260D03*
X451772Y472047D03*
X474803Y486220D03*
X399409Y532480D03*
X405512Y511024D03*
X407185Y513780D03*
X407480Y533465D03*
Y536417D03*
X423622Y498031D03*
X425984D03*
X414173Y497244D03*
X410630Y498031D03*
X429134D03*
X416142Y499213D03*
X427756Y518701D03*
Y513780D03*
X409449Y500787D03*
X432087Y510039D03*
X437008Y513780D03*
X435039Y512205D03*
X444882Y517323D03*
X443898Y533858D03*
X434252Y536811D03*
X432087Y500787D03*
X438976D03*
X436024D03*
X427165Y524409D03*
Y522047D03*
X422244Y525591D03*
Y523425D03*
X440157Y529134D03*
X438583Y520669D03*
X438976Y512205D03*
X444882Y523622D03*
X431496Y525197D03*
X438583Y524606D03*
X445866Y529921D03*
X444882Y520472D03*
X414961Y511811D03*
X414370Y523622D03*
X410433Y509646D03*
X443898Y498622D03*
X446850D03*
X466732Y518110D03*
X452756Y517323D03*
X448819D03*
Y523622D03*
X470472Y510433D03*
X460630Y509449D03*
X457677D03*
X452756Y523622D03*
X466535Y510236D03*
X449803Y530118D03*
X452756Y533465D03*
X467520Y530906D03*
X472933Y531890D03*
X471850Y518110D03*
X457480Y533465D03*
X481299Y534449D03*
X479331Y519488D03*
X448819Y520472D03*
X452756D03*
X490551Y508661D03*
Y512795D03*
Y532480D03*
X399409Y538386D03*
X407283Y569882D03*
X407480Y573622D03*
X422441Y549409D03*
X417815Y556102D03*
Y562008D03*
X425197Y561024D03*
X436516Y563976D03*
X436024Y569882D03*
X420276Y576772D03*
X429134D03*
X424803Y549409D03*
X408465Y543307D03*
X438780Y544685D03*
X434252Y541535D03*
X440945Y570866D03*
X424409Y558071D03*
X432677Y555512D03*
X422441Y547244D03*
X408465Y552165D03*
X408268Y556102D03*
X408465Y562992D03*
X426791Y571850D03*
X432677Y565354D03*
X414173Y558071D03*
X416791Y571850D03*
X440354Y576772D03*
X424606Y547244D03*
X474409Y557283D03*
X479763Y557302D03*
X477756Y561024D03*
X482087Y557283D03*
X465059Y566929D03*
X462106Y561516D03*
X457677Y558563D03*
X453248D03*
X464567Y551181D03*
X460236Y555512D03*
X452756Y544094D03*
X460236Y537402D03*
X477362Y555118D03*
X474409D03*
X475591Y561024D03*
X473425D03*
X457677Y544094D03*
X462598Y553543D03*
X447835Y544094D03*
X462106Y563976D03*
X479921Y561024D03*
X490551Y552165D03*
X400000Y585433D03*
X402953Y594488D03*
X430709Y602756D03*
X433071D03*
Y604921D03*
X436614Y600000D03*
X446654D03*
X430709Y604921D03*
X444882Y584646D03*
X445079Y595472D03*
X409252Y581693D03*
X412402Y578740D03*
X440354Y580709D03*
X420276Y584646D03*
X432087Y583858D03*
X426791D03*
X408071Y594488D03*
X427756Y595472D03*
X458268Y599409D03*
X482087Y579724D03*
X464173Y601969D03*
X482087Y600984D03*
X447835Y581693D03*
X464567Y584252D03*
X461811Y601969D03*
X459449D03*
X472047Y605315D03*
X453150Y596850D03*
Y594094D03*
X466535Y593504D03*
X484252Y587598D03*
X471457Y593504D03*
X473425Y582677D03*
X451772D03*
X456693D03*
X464173Y605118D03*
X459449D03*
X453740Y604331D03*
Y611811D03*
Y606693D03*
Y600394D03*
Y609055D03*
X476969Y600984D03*
X472047Y602362D03*
X490157D03*
X490551Y580512D03*
Y577756D03*
X444882Y656693D03*
X448031D03*
X400591Y661417D03*
X426181Y664370D03*
X444882Y659449D03*
X486220Y665354D03*
X448031Y659449D03*
X469488Y662402D03*
G54D70*
X398622Y427657D03*
Y432579D03*
Y437500D03*
G54D131*
X434646Y646850D02*
X436220D01*
X434646Y650591D02*
X436220D01*
X434646Y654331D02*
X436220D01*
X445669D02*
X447244D01*
X445669Y650591D02*
X447244D01*
X445669Y646850D02*
X447244D01*
G54D139*
X398622Y470472D03*
Y462598D03*
Y454724D03*
Y496063D03*
G54D141*
Y478346D03*
Y503937D03*
G54D146*
X457874Y608858D02*
X457087D01*
X457874Y606299D02*
X457087D01*
X457874Y603740D02*
X457087D01*
X450394D02*
X449606D01*
X450394Y606299D02*
X449606D01*
X450394Y608858D02*
X449606D01*
G54D161*
X446654Y639567D02*
X441142D01*
X446654Y628150D02*
X441142D01*
G54D170*
X451575Y659252D02*
Y657677D01*
X457874Y659252D02*
Y657677D01*
X446654Y620866D02*
Y619291D01*
X452953Y620866D02*
Y619291D01*
X422047Y425000D02*
X422441D01*
X422047Y431299D02*
X422441D01*
X487402Y501181D02*
X487008D01*
X487402Y494882D02*
X487008D01*
X414567Y425000D02*
X416142D01*
X414567Y431299D02*
X416142D01*
X428150Y634646D02*
X428543D01*
X428150Y640945D02*
X428543D01*
X460827Y633465D02*
X460433D01*
X460827Y627165D02*
X460433D01*
X412205Y635236D02*
X412598D01*
X412205Y641535D02*
X412598D01*
X477559Y625197D02*
X477165D01*
X477559Y618898D02*
X477165D01*
X451575Y652362D02*
Y651969D01*
X457874Y652362D02*
Y651969D01*
X439370Y619882D02*
Y620276D01*
X433071Y619882D02*
Y620276D01*
X434843Y634646D02*
X435236D01*
X434843Y640945D02*
X435236D01*
X468701Y609843D02*
X468307D01*
X468701Y603543D02*
X468307D01*
G54D171*
X398622Y422736D03*
G54D182*
X449951Y408071D02*
Y411811D01*
X447392Y408071D02*
Y411811D01*
X444833Y408071D02*
Y411811D01*
X442274Y408071D02*
Y411811D01*
X439715Y408071D02*
Y411811D01*
G54D196*
X410433Y591142D02*
Y586811D01*
X412402Y591142D02*
Y586811D01*
X414370Y591142D02*
Y586811D01*
X416339Y591142D02*
Y586811D01*
X418307Y591142D02*
Y586811D01*
X420276Y591142D02*
Y586811D01*
X422244Y591142D02*
Y586811D01*
X424213Y591142D02*
Y586811D01*
X426181Y591142D02*
Y586811D01*
X428150Y591142D02*
Y586811D01*
X430118Y591142D02*
Y586811D01*
X432087Y591142D02*
Y586811D01*
X434055Y591142D02*
Y586811D01*
X436024Y591142D02*
Y586811D01*
X437992Y591142D02*
Y586811D01*
X439961Y591142D02*
Y586811D01*
X441929Y591142D02*
Y586811D01*
X443898Y591142D02*
Y586811D01*
X445866Y591142D02*
Y586811D01*
X447835Y591142D02*
Y586811D01*
X449803Y591142D02*
Y586811D01*
X451772Y591142D02*
Y586811D01*
X453740Y591142D02*
Y586811D01*
X455709Y591142D02*
Y586811D01*
X457677Y591142D02*
Y586811D01*
X459646Y591142D02*
Y586811D01*
X461614Y591142D02*
Y586811D01*
X463583Y591142D02*
Y586811D01*
X465551Y591142D02*
Y586811D01*
X467520Y591142D02*
Y586811D01*
X469488Y591142D02*
Y586811D01*
X471457Y591142D02*
Y586811D01*
X473425Y591142D02*
Y586811D01*
X475394Y591142D02*
Y586811D01*
X477362Y591142D02*
Y586811D01*
X479331Y591142D02*
Y586811D01*
X484449Y581693D02*
X488780D01*
X484449Y579724D02*
X488780D01*
X484449Y577756D02*
X488780D01*
X484449Y575787D02*
X488780D01*
X484449Y573819D02*
X488780D01*
X484449Y571850D02*
X488780D01*
X484449Y569882D02*
X488780D01*
X484449Y567913D02*
X488780D01*
X484449Y565945D02*
X488780D01*
X484449Y563976D02*
X488780D01*
X484449Y562008D02*
X488780D01*
X484449Y560039D02*
X488780D01*
X484449Y558071D02*
X488780D01*
X484449Y556102D02*
X488780D01*
X484449Y554134D02*
X488780D01*
X484449Y552165D02*
X488780D01*
X484449Y550197D02*
X488780D01*
X484449Y548228D02*
X488780D01*
X484449Y546260D02*
X488780D01*
X484449Y544291D02*
X488780D01*
X484449Y542323D02*
X488780D01*
X484449Y540354D02*
X488780D01*
X484449Y538386D02*
X488780D01*
X484449Y536417D02*
X488780D01*
X484449Y534449D02*
X488780D01*
X484449Y532480D02*
X488780D01*
X484449Y530512D02*
X488780D01*
X484449Y528543D02*
X488780D01*
X484449Y526575D02*
X488780D01*
X484449Y524606D02*
X488780D01*
X484449Y522638D02*
X488780D01*
X484449Y520669D02*
X488780D01*
X484449Y518701D02*
X488780D01*
X484449Y516732D02*
X488780D01*
X484449Y514764D02*
X488780D01*
X484449Y512795D02*
X488780D01*
X479331Y507677D02*
Y503346D01*
X477362Y507677D02*
Y503346D01*
X475394Y507677D02*
Y503346D01*
X473425Y507677D02*
Y503346D01*
X471457Y507677D02*
Y503346D01*
X469488Y507677D02*
Y503346D01*
X467520Y507677D02*
Y503346D01*
X465551Y507677D02*
Y503346D01*
X463583Y507677D02*
Y503346D01*
X461614Y507677D02*
Y503346D01*
X459646Y507677D02*
Y503346D01*
X457677Y507677D02*
Y503346D01*
X455709Y507677D02*
Y503346D01*
X453740Y507677D02*
Y503346D01*
X451772Y507677D02*
Y503346D01*
X449803Y507677D02*
Y503346D01*
X447835Y507677D02*
Y503346D01*
X445866Y507677D02*
Y503346D01*
X443898Y507677D02*
Y503346D01*
X441929Y507677D02*
Y503346D01*
X439961Y507677D02*
Y503346D01*
X437992Y507677D02*
Y503346D01*
X436024Y507677D02*
Y503346D01*
X434055Y507677D02*
Y503346D01*
X432087Y507677D02*
Y503346D01*
X430118Y507677D02*
Y503346D01*
X428150Y507677D02*
Y503346D01*
X426181Y507677D02*
Y503346D01*
X424213Y507677D02*
Y503346D01*
X422244Y507677D02*
Y503346D01*
X420276Y507677D02*
Y503346D01*
X418307Y507677D02*
Y503346D01*
X416339Y507677D02*
Y503346D01*
X414370Y507677D02*
Y503346D01*
X412402Y507677D02*
Y503346D01*
X410433Y507677D02*
Y503346D01*
X400984Y512795D02*
X405315D01*
X400984Y514764D02*
X405315D01*
X400984Y516732D02*
X405315D01*
X400984Y518701D02*
X405315D01*
X400984Y520669D02*
X405315D01*
X400984Y522638D02*
X405315D01*
X400984Y524606D02*
X405315D01*
X400984Y526575D02*
X405315D01*
X400984Y528543D02*
X405315D01*
X400984Y530512D02*
X405315D01*
X400984Y532480D02*
X405315D01*
X400984Y534449D02*
X405315D01*
X400984Y536417D02*
X405315D01*
X400984Y538386D02*
X405315D01*
X400984Y540354D02*
X405315D01*
X400984Y542323D02*
X405315D01*
X400984Y544291D02*
X405315D01*
X400984Y546260D02*
X405315D01*
X400984Y548228D02*
X405315D01*
X400984Y550197D02*
X405315D01*
X400984Y552165D02*
X405315D01*
X400984Y554134D02*
X405315D01*
X400984Y556102D02*
X405315D01*
X400984Y558071D02*
X405315D01*
X400984Y560039D02*
X405315D01*
X400984Y562008D02*
X405315D01*
X400984Y563976D02*
X405315D01*
X400984Y565945D02*
X405315D01*
X400984Y567913D02*
X405315D01*
X400984Y569882D02*
X405315D01*
X400984Y571850D02*
X405315D01*
X400984Y573819D02*
X405315D01*
X400984Y575787D02*
X405315D01*
X400984Y577756D02*
X405315D01*
X400984Y579724D02*
X405315D01*
X400984Y581693D02*
X405315D01*
X435039Y428150D03*
Y430118D03*
X433071Y426181D03*
Y428150D03*
Y430118D03*
X431102Y426181D03*
Y428150D03*
Y430118D03*
X429134Y426181D03*
Y428150D03*
Y430118D03*
G54D239*
X435285Y410827D03*
X454380D03*
G54D240*
X430659Y398081D02*
Y400738D01*
X459006Y398081D02*
Y400738D01*
G54D257*
X469882Y403858D03*
X419882D03*
G54D258*
X434378Y411657D02*
X433288Y411335D01*
X434330Y410051*
G74*
X0Y0D02*
M02*
