*
*
G04 PADS Layout (Build Number 2005.266.2) generated Gerber (RS-274-X) file*
G04 PC Version=2.1*
*
%IN "COMMXEL_REVD_SMD(181102"*%
*
%MOIN*%
*
%FSLAX35Y35*%
*
*
*
*
G04 PC Standard Apertures*
*
*
G04 Thermal Relief Aperture macro.*
%AMTER*
1,1,$1,0,0*
1,0,$1-$2,0,0*
21,0,$3,$4,0,0,45*
21,0,$3,$4,0,0,135*
%
*
*
G04 Annular Aperture macro.*
%AMANN*
1,1,$1,0,0*
1,0,$2,0,0*
%
*
*
G04 Odd Aperture macro.*
%AMODD*
1,1,$1,0,0*
1,0,$1-0.005,0,0*
%
*
*
G04 PC Custom Aperture Macros*
*
*
*
*
*
*
G04 PC Aperture Table*
*
%ADD010C,0.00394*%
%ADD019R,0.02756X0.02756*%
%ADD023R,0.01969X0.01969*%
%ADD033R,0.06299X0.06299*%
%ADD038R,0.03937X0.03937*%
%ADD054C,0.06299*%
%ADD070C,0.03543*%
%ADD131R,0.02362X0.02362*%
%ADD139C,0.05512*%
%ADD141R,0.05512X0.05512*%
%ADD146R,0.01181X0.01181*%
%ADD161R,0.04331X0.04331*%
%ADD170R,0.0315X0.0315*%
%ADD171R,0.03543X0.03543*%
%ADD182R,0.01575X0.01575*%
%ADD196C,0.01181*%
%ADD239C,0.04921*%
%ADD240C,0.04823*%
%ADD257C,0.12795*%
*
*
*
*
G04 PC Custom Flashes*
G04 Layer Name COMMXEL_REVD_SMD(181102 - flashes*
%LPD*%
*
*
G04 PC Circuitry*
G04 Layer Name COMMXEL_REVD_SMD(181102 - circuitry*
%LPD*%
*
G54D10*
G01X401575Y393701D02*
X488189D01*
X496063Y401575*
Y661417*
X488189Y669291*
X401575*
X393701Y661417*
Y401575*
X401575Y393701*
G54D19*
X452756Y625591D02*
X454724D01*
X452756Y640157D02*
X454724D01*
G54D23*
X461614Y605315D02*
X462008D01*
X461614Y609252D02*
X462008D01*
X451772Y475591D02*
Y475197D01*
X455709Y475591D02*
Y475197D01*
X446850D02*
Y475591D01*
X442913Y475197D02*
Y475591D01*
Y595276D02*
Y595669D01*
X438976Y595276D02*
Y595669D01*
X435236Y629921D02*
X434843D01*
X435236Y625984D02*
X434843D01*
X429921D02*
X430315D01*
X429921Y629921D02*
X430315D01*
X400394Y654528D02*
X400787D01*
X400394Y658465D02*
X400787D01*
X438780Y486220D02*
X439173D01*
X438780Y490157D02*
X439173D01*
X454528Y486220D02*
X454921D01*
X454528Y490157D02*
X454921D01*
X443701Y486220D02*
X444094D01*
X443701Y490157D02*
X444094D01*
X459449Y486220D02*
X459843D01*
X459449Y490157D02*
X459843D01*
X444685Y426181D02*
X445079D01*
X444685Y430118D02*
X445079D01*
X440748Y426181D02*
X441142D01*
X440748Y430118D02*
X441142D01*
X471654Y490157D02*
X471260D01*
X471654Y486220D02*
X471260D01*
X426969Y490157D02*
Y489764D01*
X430906Y490157D02*
Y489764D01*
X466732Y490157D02*
X466339D01*
X466732Y486220D02*
X466339D01*
X426969Y485630D02*
Y485236D01*
X430906Y485630D02*
Y485236D01*
X452264Y613976D02*
Y614370D01*
X448327Y613976D02*
Y614370D01*
G54D33*
X403543Y642717D03*
X486220Y613189D03*
X421260Y642717D03*
X468504Y623031D03*
G54D38*
X453740Y607480D02*
Y605118D01*
G54D54*
X403543Y632874D03*
Y623031D03*
Y613189D03*
X486220Y623031D03*
Y632874D03*
Y642717D03*
X421260Y632874D03*
Y623031D03*
X468504Y632874D03*
Y642717D03*
G54D70*
X398622Y427657D03*
Y432579D03*
Y437500D03*
G54D131*
X434646Y646850D02*
X436220D01*
X434646Y650591D02*
X436220D01*
X434646Y654331D02*
X436220D01*
X445669D02*
X447244D01*
X445669Y650591D02*
X447244D01*
X445669Y646850D02*
X447244D01*
G54D139*
X398622Y470472D03*
Y462598D03*
Y454724D03*
Y496063D03*
G54D141*
Y478346D03*
Y503937D03*
G54D146*
X457874Y608858D02*
X457087D01*
X457874Y606299D02*
X457087D01*
X457874Y603740D02*
X457087D01*
X450394D02*
X449606D01*
X450394Y606299D02*
X449606D01*
X450394Y608858D02*
X449606D01*
G54D161*
X446654Y639567D02*
X441142D01*
X446654Y628150D02*
X441142D01*
G54D170*
X451575Y659252D02*
Y657677D01*
X457874Y659252D02*
Y657677D01*
X446654Y620866D02*
Y619291D01*
X452953Y620866D02*
Y619291D01*
X422047Y425000D02*
X422441D01*
X422047Y431299D02*
X422441D01*
X487402Y501181D02*
X487008D01*
X487402Y494882D02*
X487008D01*
X414567Y425000D02*
X416142D01*
X414567Y431299D02*
X416142D01*
X428150Y634646D02*
X428543D01*
X428150Y640945D02*
X428543D01*
X460827Y633465D02*
X460433D01*
X460827Y627165D02*
X460433D01*
X412205Y635236D02*
X412598D01*
X412205Y641535D02*
X412598D01*
X477559Y625197D02*
X477165D01*
X477559Y618898D02*
X477165D01*
X451575Y652362D02*
Y651969D01*
X457874Y652362D02*
Y651969D01*
X439370Y619882D02*
Y620276D01*
X433071Y619882D02*
Y620276D01*
X434843Y634646D02*
X435236D01*
X434843Y640945D02*
X435236D01*
X468701Y609843D02*
X468307D01*
X468701Y603543D02*
X468307D01*
G54D171*
X398622Y422736D03*
G54D182*
X449951Y408071D02*
Y411811D01*
X447392Y408071D02*
Y411811D01*
X444833Y408071D02*
Y411811D01*
X442274Y408071D02*
Y411811D01*
X439715Y408071D02*
Y411811D01*
G54D196*
X410433Y591142D02*
Y586811D01*
X412402Y591142D02*
Y586811D01*
X414370Y591142D02*
Y586811D01*
X416339Y591142D02*
Y586811D01*
X418307Y591142D02*
Y586811D01*
X420276Y591142D02*
Y586811D01*
X422244Y591142D02*
Y586811D01*
X424213Y591142D02*
Y586811D01*
X426181Y591142D02*
Y586811D01*
X428150Y591142D02*
Y586811D01*
X430118Y591142D02*
Y586811D01*
X432087Y591142D02*
Y586811D01*
X434055Y591142D02*
Y586811D01*
X436024Y591142D02*
Y586811D01*
X437992Y591142D02*
Y586811D01*
X439961Y591142D02*
Y586811D01*
X441929Y591142D02*
Y586811D01*
X443898Y591142D02*
Y586811D01*
X445866Y591142D02*
Y586811D01*
X447835Y591142D02*
Y586811D01*
X449803Y591142D02*
Y586811D01*
X451772Y591142D02*
Y586811D01*
X453740Y591142D02*
Y586811D01*
X455709Y591142D02*
Y586811D01*
X457677Y591142D02*
Y586811D01*
X459646Y591142D02*
Y586811D01*
X461614Y591142D02*
Y586811D01*
X463583Y591142D02*
Y586811D01*
X465551Y591142D02*
Y586811D01*
X467520Y591142D02*
Y586811D01*
X469488Y591142D02*
Y586811D01*
X471457Y591142D02*
Y586811D01*
X473425Y591142D02*
Y586811D01*
X475394Y591142D02*
Y586811D01*
X477362Y591142D02*
Y586811D01*
X479331Y591142D02*
Y586811D01*
X484449Y581693D02*
X488780D01*
X484449Y579724D02*
X488780D01*
X484449Y577756D02*
X488780D01*
X484449Y575787D02*
X488780D01*
X484449Y573819D02*
X488780D01*
X484449Y571850D02*
X488780D01*
X484449Y569882D02*
X488780D01*
X484449Y567913D02*
X488780D01*
X484449Y565945D02*
X488780D01*
X484449Y563976D02*
X488780D01*
X484449Y562008D02*
X488780D01*
X484449Y560039D02*
X488780D01*
X484449Y558071D02*
X488780D01*
X484449Y556102D02*
X488780D01*
X484449Y554134D02*
X488780D01*
X484449Y552165D02*
X488780D01*
X484449Y550197D02*
X488780D01*
X484449Y548228D02*
X488780D01*
X484449Y546260D02*
X488780D01*
X484449Y544291D02*
X488780D01*
X484449Y542323D02*
X488780D01*
X484449Y540354D02*
X488780D01*
X484449Y538386D02*
X488780D01*
X484449Y536417D02*
X488780D01*
X484449Y534449D02*
X488780D01*
X484449Y532480D02*
X488780D01*
X484449Y530512D02*
X488780D01*
X484449Y528543D02*
X488780D01*
X484449Y526575D02*
X488780D01*
X484449Y524606D02*
X488780D01*
X484449Y522638D02*
X488780D01*
X484449Y520669D02*
X488780D01*
X484449Y518701D02*
X488780D01*
X484449Y516732D02*
X488780D01*
X484449Y514764D02*
X488780D01*
X484449Y512795D02*
X488780D01*
X479331Y507677D02*
Y503346D01*
X477362Y507677D02*
Y503346D01*
X475394Y507677D02*
Y503346D01*
X473425Y507677D02*
Y503346D01*
X471457Y507677D02*
Y503346D01*
X469488Y507677D02*
Y503346D01*
X467520Y507677D02*
Y503346D01*
X465551Y507677D02*
Y503346D01*
X463583Y507677D02*
Y503346D01*
X461614Y507677D02*
Y503346D01*
X459646Y507677D02*
Y503346D01*
X457677Y507677D02*
Y503346D01*
X455709Y507677D02*
Y503346D01*
X453740Y507677D02*
Y503346D01*
X451772Y507677D02*
Y503346D01*
X449803Y507677D02*
Y503346D01*
X447835Y507677D02*
Y503346D01*
X445866Y507677D02*
Y503346D01*
X443898Y507677D02*
Y503346D01*
X441929Y507677D02*
Y503346D01*
X439961Y507677D02*
Y503346D01*
X437992Y507677D02*
Y503346D01*
X436024Y507677D02*
Y503346D01*
X434055Y507677D02*
Y503346D01*
X432087Y507677D02*
Y503346D01*
X430118Y507677D02*
Y503346D01*
X428150Y507677D02*
Y503346D01*
X426181Y507677D02*
Y503346D01*
X424213Y507677D02*
Y503346D01*
X422244Y507677D02*
Y503346D01*
X420276Y507677D02*
Y503346D01*
X418307Y507677D02*
Y503346D01*
X416339Y507677D02*
Y503346D01*
X414370Y507677D02*
Y503346D01*
X412402Y507677D02*
Y503346D01*
X410433Y507677D02*
Y503346D01*
X400984Y512795D02*
X405315D01*
X400984Y514764D02*
X405315D01*
X400984Y516732D02*
X405315D01*
X400984Y518701D02*
X405315D01*
X400984Y520669D02*
X405315D01*
X400984Y522638D02*
X405315D01*
X400984Y524606D02*
X405315D01*
X400984Y526575D02*
X405315D01*
X400984Y528543D02*
X405315D01*
X400984Y530512D02*
X405315D01*
X400984Y532480D02*
X405315D01*
X400984Y534449D02*
X405315D01*
X400984Y536417D02*
X405315D01*
X400984Y538386D02*
X405315D01*
X400984Y540354D02*
X405315D01*
X400984Y542323D02*
X405315D01*
X400984Y544291D02*
X405315D01*
X400984Y546260D02*
X405315D01*
X400984Y548228D02*
X405315D01*
X400984Y550197D02*
X405315D01*
X400984Y552165D02*
X405315D01*
X400984Y554134D02*
X405315D01*
X400984Y556102D02*
X405315D01*
X400984Y558071D02*
X405315D01*
X400984Y560039D02*
X405315D01*
X400984Y562008D02*
X405315D01*
X400984Y563976D02*
X405315D01*
X400984Y565945D02*
X405315D01*
X400984Y567913D02*
X405315D01*
X400984Y569882D02*
X405315D01*
X400984Y571850D02*
X405315D01*
X400984Y573819D02*
X405315D01*
X400984Y575787D02*
X405315D01*
X400984Y577756D02*
X405315D01*
X400984Y579724D02*
X405315D01*
X400984Y581693D02*
X405315D01*
X435039Y428150D03*
Y430118D03*
X433071Y426181D03*
Y428150D03*
Y430118D03*
X431102Y426181D03*
Y428150D03*
Y430118D03*
X429134Y426181D03*
Y428150D03*
Y430118D03*
G54D239*
X435285Y410827D03*
X454380D03*
G54D240*
X430659Y398081D02*
Y400738D01*
X459006Y398081D02*
Y400738D01*
G54D257*
X469882Y403858D03*
X419882D03*
X0Y0D02*
M02*
