*
*
G04 PADS Layout (Build Number 2005.266.2) generated Gerber (RS-274-X) file*
G04 PC Version=2.1*
*
%IN "COMMXEL_REVD_SMD(181102"*%
*
%MOIN*%
*
%FSLAX35Y35*%
*
*
*
*
G04 PC Standard Apertures*
*
*
G04 Thermal Relief Aperture macro.*
%AMTER*
1,1,$1,0,0*
1,0,$1-$2,0,0*
21,0,$3,$4,0,0,45*
21,0,$3,$4,0,0,135*
%
*
*
G04 Annular Aperture macro.*
%AMANN*
1,1,$1,0,0*
1,0,$2,0,0*
%
*
*
G04 Odd Aperture macro.*
%AMODD*
1,1,$1,0,0*
1,0,$1-0.005,0,0*
%
*
*
G04 PC Custom Aperture Macros*
*
*
*
*
*
*
G04 PC Aperture Table*
*
%ADD010C,0.00394*%
%ADD019R,0.02756X0.02756*%
%ADD023R,0.01969X0.01969*%
%ADD032R,0.10236X0.10236*%
%ADD033R,0.06299X0.06299*%
%ADD038R,0.03937X0.03937*%
%ADD053R,0.04724X0.04724*%
%ADD054C,0.06299*%
%ADD070C,0.03543*%
%ADD139C,0.05512*%
%ADD141R,0.05512X0.05512*%
%ADD146R,0.01181X0.01181*%
%ADD170R,0.0315X0.0315*%
%ADD171R,0.03543X0.03543*%
%ADD184C,0.04823*%
%ADD236R,0.08661X0.08661*%
%ADD239C,0.04921*%
%ADD250R,0.03189X0.03189*%
%ADD251R,0.02402X0.02402*%
%ADD253R,0.01378X0.01378*%
%ADD256R,0.09843X0.09843*%
%ADD257C,0.12795*%
*
*
*
*
G04 PC Custom Flashes*
G04 Layer Name COMMXEL_REVD_SMD(181102 - flashes*
%LPD*%
*
*
G04 PC Circuitry*
G04 Layer Name COMMXEL_REVD_SMD(181102 - circuitry*
%LPD*%
*
G54D10*
G01X401575Y393701D02*
X488189D01*
X496063Y401575*
Y661417*
X488189Y669291*
X401575*
X393701Y661417*
Y401575*
X401575Y393701*
G54D19*
X411791Y567323D02*
Y568898D01*
X416791Y567323D02*
Y568898D01*
X421791Y567323D02*
Y568898D01*
X426791Y567323D02*
Y568898D01*
Y588583D02*
Y590157D01*
X421791Y588583D02*
Y590157D01*
X416791Y588583D02*
Y590157D01*
X411791Y588583D02*
Y590157D01*
G54D23*
X404528Y537402D02*
X404921D01*
X404528Y533465D02*
X404921D01*
X480512Y551181D02*
X480118D01*
X480512Y555118D02*
X480118D01*
X471457Y582874D02*
Y582480D01*
X467520Y582874D02*
Y582480D01*
X410630Y594488D02*
X410236D01*
X410630Y598425D02*
X410236D01*
X443110Y576772D02*
X442717D01*
X443110Y580709D02*
X442717D01*
X463583Y528346D02*
Y528740D01*
X467520Y528346D02*
Y528740D01*
X436811Y507874D02*
X437205D01*
X436811Y503937D02*
X437205D01*
X466535Y507677D02*
Y508071D01*
X470472Y507677D02*
Y508071D01*
X463583Y533268D02*
Y533661D01*
X467520Y533268D02*
Y533661D01*
X421260Y513583D02*
Y513976D01*
X425197Y513583D02*
Y513976D01*
X462402Y570866D02*
X462795D01*
X462402Y566929D02*
X462795D01*
X456693Y504724D02*
Y505118D01*
X460630Y504724D02*
Y505118D01*
X403346Y557087D02*
X403740D01*
X403346Y553150D02*
X403740D01*
X487402Y576772D02*
X487008D01*
X487402Y580709D02*
X487008D01*
X400787Y594488D02*
X400394D01*
X400787Y598425D02*
X400394D01*
X477953Y661417D02*
Y663386D01*
X472835Y661417D02*
Y663386D01*
X486220Y662598D02*
Y662205D01*
X482283Y662598D02*
Y662205D01*
X401378Y575787D02*
X401772D01*
X401378Y571850D02*
X401772D01*
X411594Y562008D02*
X411988D01*
X411594Y558071D02*
X411988D01*
X434055Y595669D02*
Y595276D01*
X430118Y595669D02*
Y595276D01*
X438583Y536614D02*
Y537008D01*
X442520Y536614D02*
Y537008D01*
X452953Y537402D02*
X452559D01*
X452953Y541339D02*
X452559D01*
X448031Y537402D02*
X447638D01*
X448031Y541339D02*
X447638D01*
X431496Y522441D02*
Y522835D01*
X435433Y522441D02*
Y522835D01*
X457874Y537402D02*
X457480D01*
X457874Y541339D02*
X457480D01*
X452559Y551181D02*
X452953D01*
X452559Y547244D02*
X452953D01*
X457480Y551181D02*
X457874D01*
X457480Y547244D02*
X457874D01*
X447638Y551181D02*
X448031D01*
X447638Y547244D02*
X448031D01*
X466535Y503740D02*
Y504134D01*
X470472Y503740D02*
Y504134D01*
X421988Y558071D02*
X421594D01*
X421988Y562008D02*
X421594D01*
X442520Y541732D02*
Y541339D01*
X438583Y541732D02*
Y541339D01*
X451575Y580709D02*
X451969D01*
X451575Y576772D02*
X451969D01*
X456496Y580709D02*
X456890D01*
X456496Y576772D02*
X456890D01*
X432480Y562008D02*
X432874D01*
X432480Y558071D02*
X432874D01*
X428543Y562008D02*
X428937D01*
X428543Y558071D02*
X428937D01*
X403740Y562992D02*
X403346D01*
X403740Y566929D02*
X403346D01*
X467520Y522835D02*
Y522441D01*
X463583Y522835D02*
Y522441D01*
X441142Y563386D02*
X440748D01*
X441142Y567323D02*
X440748D01*
X431890Y507874D02*
X432283D01*
X431890Y503937D02*
X432283D01*
X421260Y518504D02*
Y518898D01*
X425197Y518504D02*
Y518898D01*
X479331Y516929D02*
Y516535D01*
X475394Y516929D02*
Y516535D01*
X471457Y589764D02*
Y589370D01*
X467520Y589764D02*
Y589370D01*
X486417Y523622D02*
X486024D01*
X486417Y527559D02*
X486024D01*
G54D32*
X448819Y519685D03*
G54D33*
X403543Y642717D03*
X486220Y613189D03*
X421260Y642717D03*
X468504Y623031D03*
G54D38*
X479528Y571457D02*
X480315D01*
X479528Y564370D02*
X480315D01*
X480118Y528346D02*
X479528D01*
X473228D02*
X472638D01*
X473228Y522835D02*
X472638D01*
X480118D02*
X479528D01*
G54D53*
X447638Y563386D02*
X446850D01*
X457087D02*
X456299D01*
X457087Y570866D02*
X456299D01*
X447638D02*
X446850D01*
G54D54*
X403543Y632874D03*
Y623031D03*
Y613189D03*
X486220Y623031D03*
Y632874D03*
Y642717D03*
X421260Y632874D03*
Y623031D03*
X468504Y632874D03*
Y642717D03*
G54D70*
X398622Y427657D03*
Y432579D03*
Y437500D03*
G54D139*
Y470472D03*
Y462598D03*
Y454724D03*
Y496063D03*
G54D141*
Y478346D03*
X405217Y660236D02*
Y662598D01*
X421555Y660236D02*
Y662598D01*
X398622Y503937D03*
G54D146*
X457283Y514764D02*
X455512D01*
X457283Y516732D02*
X455512D01*
X457283Y518701D02*
X455512D01*
X457283Y520669D02*
X455512D01*
X457283Y522638D02*
X455512D01*
X457283Y524606D02*
X455512D01*
X453740Y526378D02*
Y528150D01*
X451772Y526378D02*
Y528150D01*
X449803Y526378D02*
Y528150D01*
X447835Y526378D02*
Y528150D01*
X445866Y526378D02*
Y528150D01*
X443898Y526378D02*
Y528150D01*
X442126Y524606D02*
X440354D01*
X442126Y522638D02*
X440354D01*
X442126Y520669D02*
X440354D01*
X442126Y518701D02*
X440354D01*
X442126Y516732D02*
X440354D01*
X442126Y514764D02*
X440354D01*
X443898Y511220D02*
Y512992D01*
X445866Y511220D02*
Y512992D01*
X447835Y511220D02*
Y512992D01*
X449803Y511220D02*
Y512992D01*
X451772Y511220D02*
Y512992D01*
X453740Y511220D02*
Y512992D01*
X437992Y589370D02*
Y587402D01*
X436024Y589370D02*
Y587402D01*
X434055Y589370D02*
Y587402D01*
X432087Y589370D02*
Y587402D01*
Y577953D02*
Y575984D01*
X434055Y577953D02*
Y575984D01*
X436024Y577953D02*
Y575984D01*
X437992Y577953D02*
Y575984D01*
G54D170*
X473819Y576969D02*
Y576575D01*
X467520Y576969D02*
Y576575D01*
X472638Y596654D02*
Y596260D01*
X466339Y596654D02*
Y596260D01*
X412205Y535630D02*
Y537205D01*
X418504Y535630D02*
Y537205D01*
X427362Y508071D02*
Y507677D01*
X421063Y508071D02*
Y507677D01*
X412205Y543110D02*
Y543504D01*
X418504Y543110D02*
Y543504D01*
X422047Y603543D02*
X422441D01*
X422047Y597244D02*
X422441D01*
X416142Y603543D02*
X416535D01*
X416142Y597244D02*
X416535D01*
X477559Y582480D02*
X477165D01*
X477559Y588780D02*
X477165D01*
X414370Y514567D02*
X413976D01*
X414370Y520866D02*
X413976D01*
X487008Y550000D02*
X485433D01*
X487008Y556299D02*
X485433D01*
X423228Y543110D02*
Y543504D01*
X429528Y543110D02*
Y543504D01*
X473819Y565157D02*
Y564764D01*
X467520Y565157D02*
Y564764D01*
X473819Y571063D02*
Y570669D01*
X467520Y571063D02*
Y570669D01*
G54D171*
X439764Y594587D02*
Y596358D01*
X450000Y594587D02*
Y596358D01*
X398622Y422736D03*
G54D184*
X430659Y398081D02*
Y400738D01*
X459006Y398081D02*
Y400738D01*
G54D236*
X444882Y638189D02*
Y645276D01*
Y614567D02*
Y621654D01*
G54D239*
X435285Y410827D03*
X454380D03*
G54D250*
X470906Y474823D02*
Y489744D01*
X463661Y474823D02*
Y489744D01*
X426102Y474823D02*
Y489744D01*
X418858Y474823D02*
Y489744D01*
G54D251*
X458937Y474429D02*
Y490138D01*
X454921Y474429D02*
Y490138D01*
X450906Y474429D02*
Y490138D01*
X446890Y474429D02*
Y490138D01*
X442874Y474429D02*
Y490138D01*
X438858Y474429D02*
Y490138D01*
X434843Y474429D02*
Y490138D01*
X430827Y474429D02*
Y490138D01*
G54D253*
X400984Y580020D02*
Y581398D01*
X403543Y580020D02*
Y581398D01*
X406102Y580020D02*
Y581398D01*
Y587894D02*
Y589272D01*
X400984Y587894D02*
Y589272D01*
G54D256*
X479016Y401102D02*
Y406614D01*
X410748Y401102D02*
Y406614D01*
G54D257*
X469882Y403858D03*
X419882D03*
X0Y0D02*
M02*
