*
*
G04 PADS Layout (Build Number 2005.266.2) generated Gerber (RS-274-X) file*
G04 PC Version=2.1*
*
%IN "COMMXEL_REVD_SMD(181102"*%
*
%MOIN*%
*
%FSLAX35Y35*%
*
*
*
*
G04 PC Standard Apertures*
*
*
G04 Thermal Relief Aperture macro.*
%AMTER*
1,1,$1,0,0*
1,0,$1-$2,0,0*
21,0,$3,$4,0,0,45*
21,0,$3,$4,0,0,135*
%
*
*
G04 Annular Aperture macro.*
%AMANN*
1,1,$1,0,0*
1,0,$2,0,0*
%
*
*
G04 Odd Aperture macro.*
%AMODD*
1,1,$1,0,0*
1,0,$1-0.005,0,0*
%
*
*
G04 PC Custom Aperture Macros*
*
*
*
*
*
*
G04 PC Aperture Table*
*
%ADD010C,0.00394*%
%ADD015C,0.00787*%
%ADD066C,0.00591*%
%ADD123C,0.00472*%
*
*
*
*
G04 PC Custom Flashes*
G04 Layer Name COMMXEL_REVD_SMD(181102 - flashes*
%LPD*%
*
*
G04 PC Circuitry*
G04 Layer Name COMMXEL_REVD_SMD(181102 - circuitry*
%LPD*%
*
G54D10*
G01X455659Y413386D02*
X459596D01*
Y411713*
Y403642*
X434006Y413386D02*
X430069D01*
Y411713*
Y404035*
X459596Y395374D02*
Y393701D01*
Y388583*
X430069*
Y393701*
Y394980*
Y393701D02*
X444833D01*
X459596*
X450000Y413390D02*
X451575Y414571D01*
X448425*
X450000Y413390*
X399803Y573819D02*
X397835D01*
X399803Y563976D02*
X397835D01*
X406536Y510300D02*
X406393Y510398D01*
X406178Y510694*
Y508627*
X405104Y510694D02*
X405319Y510595D01*
X405462Y510300*
X405534Y509808*
Y509513*
X405462Y509020*
X405319Y508725*
X405104Y508627*
X404961*
X404746Y508725*
X404603Y509020*
X404532Y509513*
Y509808*
X404603Y510300*
X404746Y510595*
X404961Y510694*
X405104*
X402957Y510005D02*
X403028Y509709D01*
X403171Y509513*
X403386Y509414*
X403458*
X403673Y509513*
X403816Y509709*
X403887Y510005*
Y510103*
X403816Y510398*
X403673Y510595*
X403458Y510694*
X403386*
X403171Y510595*
X403028Y510398*
X402957Y510005*
Y509513*
X403028Y509020*
X403171Y508725*
X403386Y508627*
X403529*
X403744Y508725*
X403816Y508922*
X407618Y508036D02*
X407520Y507893D01*
X407225Y507678*
X409292*
X407225Y506605D02*
X407323Y506819D01*
X407618Y506962*
X408111Y507034*
X408406*
X408898Y506962*
X409193Y506819*
X409292Y506605*
Y506461*
X409193Y506247*
X408898Y506104*
X408898D02*
X408406Y506032D01*
X408111*
X407618Y506104*
X407618D02*
X407323Y506247D01*
X407225Y506461*
Y506605*
Y505030D02*
X407323Y505245D01*
X407520Y505316*
X407717*
X407914Y505245*
X408012Y505101*
X408111Y504815*
X408209Y504600*
X408406Y504457*
X408603Y504386*
X408898*
X409095Y504457*
X409193Y504529*
X409292Y504743*
Y505030*
X409193Y505245*
X409095Y505316*
X408898Y505388*
X408603*
X408406Y505316*
X408209Y505173*
X408111Y504958*
X408012Y504672*
X407914Y504529*
X407717Y504457*
X407520*
X407323Y504529*
X407225Y504743*
Y505030*
X481831Y506444D02*
X483898Y507159D01*
X481831Y507446D02*
Y506444D01*
Y505656D02*
Y504869D01*
X482618Y505298*
Y505083*
X482717Y504940*
X482815Y504869*
X483111Y504797*
X483307*
X483603Y504869*
X483800Y505012*
X483898Y505227*
Y505441*
X483800Y505656*
X483701Y505728*
X483504Y505799*
X488211Y510497D02*
X488927Y508430D01*
X489213Y510497D02*
X488211D01*
X487495Y510005D02*
Y510103D01*
X487423Y510300*
X487352Y510398*
X487209Y510497*
X486922*
X486779Y510398*
X486708Y510300*
X486636Y510103*
Y509906*
X486708Y509709*
X486851Y509414*
X487567Y508430*
X486564*
X489070Y584906D02*
X488282D01*
X488712Y584119*
X488497*
X488354Y584020*
X488282Y583922*
X488211Y583627*
Y583430*
X488282Y583135*
X488426Y582938*
X488640Y582839*
X488855*
X489070Y582938*
X489141Y583036*
X489213Y583233*
X486564Y584906D02*
X487280Y582839D01*
X487567Y584906D02*
X486564D01*
X481831Y591554D02*
Y590767D01*
X482618Y591197*
Y590982*
X482717Y590839*
X482815Y590767*
X483111Y590695*
X483307*
X483603Y590767*
X483800Y590910*
X483898Y591125*
Y591340*
X483800Y591554*
X483701Y591626*
X483504Y591698*
X482126Y589192D02*
X481930Y589264D01*
X481831Y589479*
Y589622*
X481930Y589837*
X481930D02*
X482225Y589980D01*
X482717Y590051*
X483209*
X483603Y589980*
X483800Y589837*
X483800D02*
X483898Y589622D01*
Y589550*
X483800Y589335*
X483603Y589192*
X483307Y589121*
X483209*
X482914Y589192*
X482717Y589335*
X482618Y589550*
Y589622*
X482717Y589837*
X482717D02*
X482914Y589980D01*
X483209Y590051*
X406930Y584513D02*
X406786Y584611D01*
X406572Y584906*
Y582839*
X405212Y584906D02*
X405927Y583528D01*
X404854*
X405212Y584906D02*
Y582839D01*
X403494Y584906D02*
X404209Y583528D01*
X403136*
X403494Y584906D02*
Y582839D01*
X399803Y554134D02*
X397835D01*
X399803Y544291D02*
X397835D01*
X399803Y534449D02*
X397835D01*
X399803Y524606D02*
X397835D01*
X399803Y514764D02*
X397835D01*
X416339Y502165D02*
Y500197D01*
X426181Y502165D02*
Y500197D01*
X436024Y502165D02*
Y500197D01*
X445866Y502165D02*
Y500197D01*
X455709Y502165D02*
Y500197D01*
X465551Y502165D02*
Y500197D01*
X475394Y502165D02*
Y500197D01*
X492126Y516732D02*
X490157D01*
X492126Y526575D02*
X490157D01*
X492126Y536417D02*
X490157D01*
X492126Y546260D02*
X490157D01*
X492126Y556102D02*
X490157D01*
X492126Y565945D02*
X490157D01*
X492126Y575787D02*
X490157D01*
X477362Y594488D02*
Y592520D01*
X467520Y594488D02*
Y592520D01*
X457677Y594488D02*
Y592520D01*
X447835Y594488D02*
Y592520D01*
X437992Y594488D02*
Y592520D01*
X428150Y594488D02*
Y592520D01*
X418307Y594488D02*
Y592520D01*
X482677Y585039D02*
X411024D01*
X407087Y581102*
Y509449*
X482677*
Y585039*
X410433Y592913D02*
X408465Y594882D01*
X412598*
X410630Y592913*
X436024Y431102D02*
Y428150D01*
Y425197*
X428150*
Y431102*
X436024*
X434646Y425197D02*
Y424803D01*
X436417*
Y426378*
X436024*
X434646Y425000D02*
Y424409D01*
X436811*
Y426378*
X436220*
X449409Y655512D02*
X460039D01*
Y661417*
X449409*
Y655512*
X453937Y657677D02*
X455512D01*
X453937Y659252D02*
X455512D01*
X454724D02*
Y660433D01*
Y657677D02*
Y656496D01*
X444488Y617126D02*
X455118D01*
Y623031*
X444488*
Y617126*
X449016Y619291D02*
X450591D01*
X449016Y620866D02*
X450591D01*
X449803D02*
Y622047D01*
Y619291D02*
Y618110D01*
X460827Y607283D02*
X462795D01*
X463780Y604134D02*
X463189Y603543D01*
X460433*
X459843Y604134*
Y610433*
X460433Y611024*
X463189*
X463780Y610433*
Y604134*
X453740Y476378D02*
Y474409D01*
X450591Y473425D02*
X450000Y474016D01*
Y476772*
X450591Y477362*
X456890*
X457480Y476772*
Y474016*
X456890Y473425*
X450591*
X444882Y474409D02*
Y476378D01*
X448031Y477362D02*
X448622Y476772D01*
Y474016*
X448031Y473425*
X441732*
X441142Y474016*
Y476772*
X441732Y477362*
X448031*
X440945Y594488D02*
Y596457D01*
X444094Y597441D02*
X444685Y596850D01*
Y594094*
X444094Y593504*
X437795*
X437205Y594094*
Y596850*
X437795Y597441*
X444094*
X444489Y633858D02*
G75*
G03X444487Y632283I-591J-787D01*
G01Y635434D02*
G03X444489Y633859I-589J-788D01*
G01X438386Y640157D02*
Y627559D01*
X449409D02*
Y640157D01*
X444488Y635433D02*
Y636614D01*
Y632283D02*
Y631102D01*
X456890Y627559D02*
Y638189D01*
X450591*
Y627559*
X456890*
X455315Y633661D02*
X452165D01*
X455315Y632087D02*
X452165D01*
X453740Y633661*
X455315Y632087*
X453740D02*
Y630512D01*
Y633661D02*
Y635236D01*
X456890Y638189D02*
Y642126D01*
X450591*
Y638189*
X456890Y642126D02*
Y642520D01*
X450591*
Y642126*
X433071Y631693D02*
X437008D01*
Y628346*
X436614Y627953*
X437008Y627559*
Y624213*
X433071*
Y627559*
X433465Y627953*
X433071Y628346*
Y631693*
X432087Y624213D02*
X428150D01*
Y627559*
X428543Y627953*
X428150Y628346*
Y631693*
X432087*
Y628346*
X431693Y627953*
X432087Y627559*
Y624213*
X402559Y652756D02*
X398622D01*
Y656102*
X399016Y656496*
X398622Y656890*
Y660236*
X402559*
Y656890*
X402165Y656496*
X402559Y656102*
Y652756*
X440945Y484449D02*
X437008D01*
Y487795*
X437402Y488189*
X437008Y488583*
Y491929*
X440945*
Y488583*
X440551Y488189*
X440945Y487795*
Y484449*
X456693D02*
X452756D01*
Y487795*
X453150Y488189*
X452756Y488583*
Y491929*
X456693*
Y488583*
X456299Y488189*
X456693Y487795*
Y484449*
X445866D02*
X441929D01*
Y487795*
X442323Y488189*
X441929Y488583*
Y491929*
X445866*
Y488583*
X445472Y488189*
X445866Y487795*
Y484449*
X461614D02*
X457677D01*
Y487795*
X458071Y488189*
X457677Y488583*
Y491929*
X461614*
Y488583*
X461220Y488189*
X461614Y487795*
Y484449*
X446850Y424409D02*
X442913D01*
Y427756*
X443307Y428150*
X442913Y428543*
Y431890*
X446850*
Y428543*
X446457Y428150*
X446850Y427756*
Y424409*
X442913D02*
X438976D01*
Y427756*
X439370Y428150*
X438976Y428543*
Y431890*
X442913*
Y428543*
X442520Y428150*
X442913Y427756*
Y424409*
X449803Y610236D02*
X457677D01*
Y602362D02*
X449803D01*
X452559Y610236D02*
Y610827D01*
X454921*
Y610236*
X452559*
X456693Y607677D02*
X459055D01*
Y610236*
X457677*
X438189Y644882D02*
X443701D01*
Y656299*
X438189*
Y644882*
Y648622*
X432874*
Y644882*
X438189*
X440945Y649803D02*
Y651378D01*
X441732Y650591D02*
X440157D01*
Y646851D02*
G03X440157I-600J0D01*
G01X484843Y503346D02*
Y492717D01*
X489567*
Y503346*
X484843*
Y498031D02*
X486417D01*
X489567D02*
X487992D01*
X486417Y498819D02*
Y497244D01*
X487992Y498819D02*
Y497244D01*
X418307Y422835D02*
Y433465D01*
X412402*
Y422835*
X418307*
X416142Y427362D02*
Y428937D01*
X414567Y427362D02*
Y428937D01*
Y428150D02*
X413386D01*
X416142D02*
X417323D01*
X469488Y491929D02*
X473425D01*
Y488583*
X473031Y488189*
X473425Y487795*
Y484449*
X469488*
Y487795*
X469882Y488189*
X469488Y488583*
Y491929*
X425197Y487992D02*
Y491929D01*
X428543*
X428937Y491535*
X429331Y491929*
X432677*
Y487992*
X429331*
X428937Y488386*
X428543Y487992*
X425197*
X464567Y491929D02*
X468504D01*
Y488583*
X468110Y488189*
X468504Y487795*
Y484449*
X464567*
Y487795*
X464961Y488189*
X464567Y488583*
Y491929*
X425197Y483465D02*
Y487402D01*
X428543*
X428937Y487008*
X429331Y487402*
X432677*
Y483465*
X429331*
X428937Y483858*
X428543Y483465*
X425197*
X430709Y632480D02*
Y643110D01*
X425984*
Y632480*
X430709*
Y637795D02*
X429134D01*
X425984D02*
X427559D01*
X429134Y637008D02*
Y638583D01*
X427559Y637008D02*
Y638583D01*
X458268Y635630D02*
Y625000D01*
X462992*
Y635630*
X458268*
Y630315D02*
X459843D01*
X462992D02*
X461417D01*
X459843Y631102D02*
Y629528D01*
X461417Y631102D02*
Y629528D01*
X414764Y633071D02*
Y643701D01*
X410039*
Y633071*
X414764*
Y638386D02*
X413189D01*
X410039D02*
X411614D01*
X413189Y637598D02*
Y639173D01*
X411614Y637598D02*
Y639173D01*
X475000Y627362D02*
Y616732D01*
X479724*
Y627362*
X475000*
Y622047D02*
X476575D01*
X479724D02*
X478150D01*
X476575Y622835D02*
Y621260D01*
X478150Y622835D02*
Y621260D01*
X449409Y649803D02*
X460039D01*
Y654528*
X449409*
Y649803*
X454724D02*
Y651378D01*
Y654528D02*
Y652953D01*
X453937Y651378D02*
X455512D01*
X453937Y652953D02*
X455512D01*
X441535Y622441D02*
X430906D01*
Y617717*
X441535*
Y622441*
X436220D02*
Y620866D01*
Y617717D02*
Y619291D01*
X437008Y620866D02*
X435433D01*
X437008Y619291D02*
X435433D01*
X450295Y613189D02*
Y615157D01*
X453445Y616142D02*
X454035Y615551D01*
Y612795*
X453445Y612205*
X447146*
X446555Y612795*
Y615551*
X447146Y616142*
X453445*
X437402Y632480D02*
Y643110D01*
X432677*
Y632480*
X437402*
Y637795D02*
X435827D01*
X432677D02*
X434252D01*
X435827Y637008D02*
Y638583D01*
X434252Y637008D02*
Y638583D01*
X466142Y612008D02*
Y601378D01*
X470866*
Y612008*
X466142*
Y606693D02*
X467717D01*
X470866D02*
X469291D01*
X467717Y607480D02*
Y605906D01*
X469291Y607480D02*
Y605906D01*
X458635Y417384D02*
Y415416D01*
X458724Y415047*
X458814Y414924*
X458992Y414801*
X459171*
X459350Y414924*
X459440Y415047*
X459529Y415416*
Y415662*
X457382Y417384D02*
X457650Y417261D01*
X457740Y417015*
Y416769*
X457650Y416523*
X457471Y416400*
X457113Y416277*
X456845Y416154*
X456666Y415908*
X456577Y415662*
Y415293*
X456666Y415047*
X456756Y414924*
X457024Y414801*
X457382*
X457650Y414924*
X457740Y415047*
X457829Y415293*
Y415662*
X457740Y415908*
X457561Y416154*
X457292Y416277*
X456934Y416400*
X456934D02*
X456756Y416523D01*
X456666Y416769*
Y417015*
X456756Y417261*
X457024Y417384*
X457382*
X412062Y598979D02*
Y597133D01*
X411972Y596764*
X411793Y596518*
X411525Y596395*
X411346*
X411077Y596518*
X410898Y596764*
X410809Y597133*
Y598979*
X410004Y598487D02*
X409825Y598610D01*
X409556Y598979*
Y596395*
X434073Y423782D02*
Y421937D01*
X433984Y421567*
X433805Y421321*
X433536Y421198*
X433357*
X433089Y421321*
X432910Y421567*
X432820Y421937*
Y423782*
X430852Y422921D02*
X430941Y422552D01*
X431120Y422306*
X431389Y422183*
X431478*
X431747Y422306*
X431926Y422552*
X432015Y422921*
Y423044*
X431926Y423413*
X431747Y423659*
X431478Y423782*
X431389*
X431120Y423659*
X430941Y423413*
X430852Y422921*
Y422306*
X430941Y421690*
X431120Y421321*
X431389Y421198*
X431568*
X431836Y421321*
X431926Y421567*
X465390Y658895D02*
X465480Y659141D01*
X465659Y659387*
X465838Y659510*
X466195*
X466374Y659387*
X466553Y659141*
X466643Y658895*
X466732Y658526*
Y657911*
X466643Y657542*
X466553Y657296*
X466374Y657050*
X466195Y656927*
X465838*
X465659Y657050*
X465480Y657296*
X465390Y657542*
X463690Y659510D02*
X464585Y657788D01*
X463243*
X463690Y659510D02*
Y656927D01*
X462258Y659510D02*
X461274D01*
X461811Y658526*
X461543*
X461364Y658403*
X461274Y658280*
X461185Y657911*
Y657665*
X461274Y657296*
X461453Y657050*
X461722Y656927*
X461990*
X462258Y657050*
X462348Y657173*
X462437Y657419*
X460514Y620509D02*
X460603Y620755D01*
X460782Y621001*
X460961Y621125*
X461319*
X461498Y621001*
X461677Y620755*
X461766Y620509*
X461856Y620140*
Y619525*
X461766Y619156*
X461677Y618910*
X461498Y618664*
X461319Y618541*
X460961*
X460782Y618664*
X460603Y618910*
X460514Y619156*
X458814Y621125D02*
X459708Y619402D01*
X458366*
X458814Y621125D02*
Y618541D01*
X456666Y621125D02*
X457561Y619402D01*
X456219*
X456666Y621125D02*
Y618541D01*
X462734Y598139D02*
X462980Y598049D01*
X463226Y597870*
X463349Y597691*
Y597334*
X463226Y597155*
X462980Y596976*
X462734Y596886*
X462365Y596797*
X461750*
X461380Y596886*
X461134Y596976*
X460888Y597155*
X460765Y597334*
Y597691*
X460888Y597870*
X461134Y598049*
X461380Y598139*
X463349Y599839D02*
X461626Y598944D01*
Y600286*
X463349Y599839D02*
X460765D01*
X462980Y602165D02*
X463226Y602076D01*
X463349Y601807*
Y601628*
X463226Y601360*
X462857Y601181*
X462242Y601092*
X461626*
X461134Y601181*
X460888Y601360*
X460765Y601628*
Y601718*
X460888Y601986*
X461134Y602165*
X461503Y602255*
X461626*
X461996Y602165*
X462242Y601986*
X462365Y601718*
Y601628*
X462242Y601360*
X461996Y601181*
X461626Y601092*
X455458Y471887D02*
X455548Y472133D01*
X455727Y472379*
X455906Y472502*
X456263*
X456442Y472379*
X456621Y472133*
X456711Y471887*
X456800Y471518*
Y470903*
X456711Y470534*
X456621Y470288*
X456442Y470042*
X456263Y469919*
X455906*
X455727Y470042*
X455548Y470288*
X455458Y470534*
X454563Y471887D02*
Y472010D01*
X454474Y472256*
X454384Y472379*
X454205Y472502*
X453848*
X453669Y472379*
X453579Y472256*
X453490Y472010*
Y471764*
X453579Y471518*
X453758Y471149*
X454653Y469919*
X453400*
X451432Y471641D02*
X451521Y471272D01*
X451700Y471026*
X451969Y470903*
X451969D02*
X452058D01*
X452326Y471026*
X452505Y471272*
X452595Y471641*
Y471764*
X452505Y472133*
X452326Y472379*
X452058Y472502*
X451969*
X451969D02*
X451700Y472379D01*
X451521Y472133*
X451432Y471641*
Y471026*
X451521Y470411*
X451700Y470042*
X451969Y469919*
X451969D02*
X452147D01*
X452416Y470042*
X452505Y470288*
X446645Y471887D02*
X446734Y472133D01*
X446913Y472379*
X447092Y472502*
X447450*
X447629Y472379*
X447808Y472133*
X447897Y471887*
X447987Y471518*
Y470903*
X447897Y470534*
X447808Y470288*
X447629Y470042*
X447450Y469919*
X447092*
X446913Y470042*
X446734Y470288*
X446645Y470534*
X445660Y472502D02*
X444676D01*
X445213Y471518*
X444945*
X444766Y471395*
X444676Y471272*
X444587Y470903*
Y470657*
X444676Y470288*
X444855Y470042*
X445123Y469919*
X445392*
X445660Y470042*
X445750Y470165*
X445839Y470411*
X443244Y472502D02*
X443513Y472379D01*
X443692Y472010*
X443781Y471395*
Y471026*
X443692Y470411*
X443513Y470042*
X443244Y469919*
X443065*
X442797Y470042*
X442618Y470411*
X442529Y471026*
Y471395*
X442618Y472010*
X442797Y472379*
X443065Y472502*
X443244*
X441231Y600332D02*
X441321Y600578D01*
X441500Y600824*
X441679Y600947*
X442037*
X442215Y600824*
X442394Y600578*
X442484Y600332*
X442573Y599963*
Y599348*
X442484Y598979*
X442394Y598733*
X442215Y598487*
X442037Y598364*
X441679*
X441500Y598487*
X441321Y598733*
X441231Y598979*
X439531Y600947D02*
X440426Y599225D01*
X439084*
X439531Y600947D02*
Y598364D01*
X452326Y646223D02*
Y643639D01*
X451253*
X450447Y645731D02*
X450268Y645854D01*
X450000Y646223*
Y643639*
X458724Y646223D02*
Y643639D01*
Y646223D02*
X458098D01*
X457829Y646100*
X457650Y645854*
X457561Y645608*
X457471Y645239*
Y644624*
X457561Y644254*
X457650Y644008*
X457829Y643762*
X458098Y643639*
X458724*
X456577Y645608D02*
Y645731D01*
X456487Y645977*
X456398Y646100*
X456219Y646223*
X455861*
X455682Y646100*
X455592Y645977*
X455503Y645731*
Y645485*
X455592Y645239*
X455771Y644870*
X456666Y643639*
X455413*
X442287Y625443D02*
Y623376D01*
Y625443D02*
X441643D01*
X441428Y625344*
X441356Y625246*
X441285Y625049*
Y624852*
X441356Y624656*
X441428Y624557*
X441643Y624459*
X442287*
X441786D02*
X441285Y623376D01*
X439925Y625443D02*
X440641Y624065D01*
X439567*
X439925Y625443D02*
Y623376D01*
X437921Y625443D02*
X438636Y623376D01*
X438923Y625443D02*
X437921D01*
X427411Y625626D02*
X425344D01*
X427411D02*
Y626271D01*
X427313Y626485*
X427215Y626557*
X427018Y626628*
X426821*
X426624Y626557*
X426526Y626485*
X426427Y626271*
Y625626*
Y626127D02*
X425344Y626628D01*
X427411Y627989D02*
X426033Y627273D01*
Y628346*
X427411Y627989D02*
X425344D01*
X427411Y629349D02*
X427313Y629134D01*
X427116Y629062*
X426919*
X426722Y629134*
X426624Y629277*
X426526Y629563*
X426427Y629778*
X426230Y629921*
X426033Y629993*
X425738*
X425541Y629921*
X425443Y629850*
X425344Y629635*
Y629349*
X425443Y629134*
X425541Y629062*
X425738Y628991*
X426033*
X426230Y629062*
X426427Y629205*
X426526Y629420*
X426624Y629707*
X426722Y629850*
X426919Y629921*
X427116*
X427313Y629850*
X427411Y629635*
Y629349*
X406065Y654957D02*
X403482D01*
X406065D02*
Y655762D01*
X405942Y656031*
X405819Y656120*
X405573Y656210*
X405327*
X405081Y656120*
X404958Y656031*
X404835Y655762*
Y654957*
Y655583D02*
X403482Y656210D01*
X405450Y657105D02*
X405573D01*
X405819Y657194*
X405942Y657283*
X406065Y657462*
Y657820*
X405942Y657999*
X405819Y658089*
X405573Y658178*
X405327*
X405081Y658089*
X404712Y657910*
X403482Y657015*
Y658268*
X440022Y478239D02*
X437438D01*
X440022D02*
Y479044D01*
X439899Y479313*
X439776Y479402*
X439530Y479492*
X439284*
X439038Y479402*
X438915Y479313*
X438792Y479044*
Y478239*
Y478865D02*
X437438Y479492D01*
X439407Y480387D02*
X439530D01*
X439776Y480476*
X439899Y480565*
X440022Y480744*
Y481102*
X439899Y481281*
X439776Y481371*
X439530Y481460*
X439284*
X439038Y481371*
X438669Y481192*
X437438Y480297*
Y481550*
X440022Y482892D02*
X439899Y482623D01*
X439530Y482445*
X438915Y482355*
X438546*
X437931Y482445*
X437562Y482623*
X437438Y482892*
Y483071*
X437562Y483339*
X437931Y483518*
X438546Y483608*
X438915*
X439530Y483518*
X439899Y483339*
X440022Y483071*
Y482892*
X455770Y478642D02*
X453187D01*
X455770D02*
Y479447D01*
X455647Y479715*
X455524Y479805*
X455278Y479894*
X455032*
X454786Y479805*
X454663Y479715*
X454540Y479447*
Y478642*
Y479268D02*
X453187Y479894D01*
X455155Y480789D02*
X455278D01*
X455524Y480879*
X455647Y480968*
X455770Y481147*
Y481505*
X455647Y481684*
X455524Y481773*
X455278Y481863*
X455032*
X454786Y481773*
X454417Y481594*
X453187Y480700*
Y481952*
X455278Y482758D02*
X455401Y482937D01*
X455770Y483205*
X453187*
X444943Y478194D02*
X442360D01*
X444943D02*
Y479000D01*
X444820Y479268*
X444697Y479358*
X444451Y479447*
X444205*
X443959Y479358*
X443836Y479268*
X443713Y479000*
Y478194*
Y478821D02*
X442360Y479447D01*
X444328Y480342D02*
X444451D01*
X444697Y480431*
X444820Y480521*
X444943Y480700*
Y481058*
X444820Y481237*
X444697Y481326*
X444451Y481416*
X444205*
X443959Y481326*
X443590Y481147*
X442360Y480252*
Y481505*
X444943Y483205D02*
X443221Y482310D01*
Y483652*
X444943Y483205D02*
X442360D01*
X460691Y478194D02*
X458108D01*
X460691D02*
Y479000D01*
X460568Y479268*
X460445Y479358*
X460199Y479447*
X459953*
X459707Y479358*
X459584Y479268*
X459461Y479000*
Y478194*
Y478821D02*
X458108Y479447D01*
X460076Y480342D02*
X460199D01*
X460445Y480431*
X460568Y480521*
X460691Y480700*
Y481058*
X460568Y481237*
X460445Y481326*
X460199Y481416*
X459953*
X459707Y481326*
X459338Y481147*
X458108Y480252*
Y481505*
X460691Y483474D02*
Y482579D01*
X459584Y482489*
X459707Y482579*
X459830Y482847*
Y483116*
X459707Y483384*
X459461Y483563*
X459092Y483652*
X458846Y483563*
X458477Y483474*
X458231Y483295*
X458108Y483026*
Y482758*
X458231Y482489*
X458354Y482400*
X458600Y482310*
X445928Y433411D02*
X443344D01*
X445928D02*
Y434216D01*
X445805Y434485*
X445682Y434574*
X445436Y434664*
X445189*
X444943Y434574*
X444820Y434485*
X444697Y434216*
Y433411*
Y434037D02*
X443344Y434664D01*
X445928Y436364D02*
X444205Y435469D01*
Y436811*
X445928Y436364D02*
X443344D01*
X445313Y437706D02*
X445436D01*
X445682Y437795*
X445805Y437885*
X445928Y438064*
Y438422*
X445805Y438601*
X445682Y438690*
X445436Y438780*
X445189*
X444943Y438690*
X444574Y438511*
X443344Y437616*
Y438869*
X441991Y433411D02*
X439407D01*
X441991D02*
Y434216D01*
X441868Y434485*
X441745Y434574*
X441499Y434664*
X441252*
X441006Y434574*
X440883Y434485*
X440760Y434216*
Y433411*
Y434037D02*
X439407Y434664D01*
X441991Y436364D02*
X440268Y435469D01*
Y436811*
X441991Y436364D02*
X439407D01*
X441991Y437795D02*
Y438780D01*
X441006Y438243*
Y438511*
X440883Y438690*
X440760Y438780*
X440391Y438869*
X440145*
X439776Y438780*
X439530Y438601*
X439407Y438332*
Y438064*
X439530Y437795*
X439653Y437706*
X439899Y437616*
X423290Y415739D02*
X420706D01*
X423290D02*
Y416544D01*
X423167Y416813*
X423044Y416902*
X422798Y416992*
X422552*
X422306Y416902*
X422183Y416813*
X422060Y416544*
Y415739*
Y416365D02*
X420706Y416992D01*
X423290Y418692D02*
X421567Y417797D01*
Y419139*
X423290Y418692D02*
X420706D01*
X422921Y421018D02*
X423167Y420929D01*
X423290Y420660*
Y420481*
X423167Y420213*
X422798Y420034*
X422183Y419945*
X421567*
X421075Y420034*
X420829Y420213*
X420706Y420481*
Y420571*
X420829Y420839*
X421075Y421018*
X421444Y421108*
X421567*
X421937Y421018*
X422183Y420839*
X422306Y420571*
Y420481*
X422183Y420213*
X421937Y420034*
X421567Y419945*
X455279Y601439D02*
Y599594D01*
X455190Y599225*
X455011Y598979*
X454742Y598856*
X454563*
X454295Y598979*
X454116Y599225*
X454026Y599594*
Y601439*
X453042D02*
X452058D01*
X452595Y600455*
X452326*
X452147Y600332*
X452058Y600209*
X451969Y599840*
X451969D02*
Y599594D01*
X451969D02*
X452058Y599225D01*
X452237Y598979*
X452505Y598856*
X452774*
X453042Y598979*
X453132Y599102*
X453221Y599348*
X442976Y660495D02*
Y658649D01*
X442887Y658280*
X442708Y658034*
X442439Y657911*
X442260*
X441992Y658034*
X441813Y658280*
X441723Y658649*
Y660495*
X440829Y659879D02*
Y660002D01*
X440739Y660249*
X440650Y660372*
X440471Y660495*
X440113*
X439934Y660372*
X439844Y660249*
X439755Y660002*
Y659756*
X439844Y659510*
X440023Y659141*
X440918Y657911*
X439665*
X482714Y497164D02*
X482960Y497074D01*
X483206Y496895*
X483329Y496716*
Y496358*
X483206Y496179*
X482960Y496000*
X482714Y495911*
X482345Y495821*
X481730*
X481361Y495911*
X481115Y496000*
X480869Y496179*
X480746Y496358*
Y496716*
X480869Y496895*
X481115Y497074*
X481361Y497164*
X482837Y497969D02*
X482960Y498148D01*
X483329Y498416*
X480746*
X483329Y499758D02*
X483206Y499490D01*
X482837Y499311*
X482222Y499222*
X481853*
X481238Y499311*
X480869Y499490*
X480746Y499758*
Y499937*
X480869Y500206*
X481238Y500385*
X481853Y500474*
X482222*
X482837Y500385*
X483206Y500206*
X483329Y499937*
Y499758*
X415785Y416992D02*
X416031Y416902D01*
X416277Y416723*
X416400Y416544*
Y416186*
X416277Y416008*
X416031Y415829*
X415785Y415739*
X415416Y415650*
X414801*
X414432Y415739*
X414186Y415829*
X413939Y416008*
X413816Y416186*
Y416544*
X413939Y416723*
X414186Y416902*
X414432Y416992*
X416400Y418692D02*
X414678Y417797D01*
Y419139*
X416400Y418692D02*
X413816D01*
X416400Y420481D02*
X416277Y420213D01*
X415908Y420034*
X415293Y419945*
X414924*
X414309Y420034*
X413939Y420213*
X413816Y420481*
Y420660*
X413939Y420929*
X414309Y421108*
X414924Y421197*
X415293*
X415908Y421108*
X416277Y420929*
X416400Y420660*
Y420481*
X472502Y478239D02*
X469919D01*
X472502D02*
Y479044D01*
X472379Y479313*
X472256Y479402*
X472010Y479492*
X471764*
X471518Y479402*
X471395Y479313*
X471272Y479044*
Y478239*
Y478865D02*
X469919Y479492D01*
X472502Y480476D02*
Y481460D01*
X471518Y480923*
Y481192*
X471395Y481371*
X471272Y481460*
X470903Y481550*
X470657*
X470288Y481460*
X470042Y481281*
X469919Y481013*
Y480744*
X470042Y480476*
X470165Y480387*
X470411Y480297*
X472502Y482892D02*
X472379Y482623D01*
X472010Y482445*
X471395Y482355*
X471026*
X470411Y482445*
X470042Y482623*
X469919Y482892*
Y483071*
X470042Y483339*
X470411Y483518*
X471026Y483608*
X471395*
X472010Y483518*
X472379Y483339*
X472502Y483071*
Y482892*
X423917Y491400D02*
Y488816D01*
Y491400D02*
X423112D01*
X422844Y491277*
X422754Y491154*
X422665Y490908*
Y490662*
X422754Y490416*
X422844Y490293*
X423112Y490170*
X423917*
X423291D02*
X422665Y488816D01*
X421680Y491400D02*
X420696D01*
X421233Y490416*
X420965*
X420786Y490293*
X420696Y490170*
X420607Y489801*
Y489555*
X420696Y489186*
X420875Y488939*
X421144Y488816*
X421412*
X421680Y488939*
X421770Y489063*
X421770D02*
X421859Y489309D01*
X419801Y490908D02*
X419622Y491031D01*
X419354Y491400*
Y488816*
X467581Y478239D02*
X464998D01*
X467581D02*
Y479044D01*
X467458Y479313*
X467335Y479402*
X467089Y479492*
X466843*
X466597Y479402*
X466474Y479313*
X466351Y479044*
Y478239*
Y478865D02*
X464998Y479492D01*
X467581Y480476D02*
Y481460D01*
X466597Y480923*
Y481192*
X466474Y481371*
X466351Y481460*
X465982Y481550*
X465736*
X465367Y481460*
X465121Y481281*
X464998Y481013*
Y480744*
X465121Y480476*
X465244Y480387*
X465490Y480297*
X466966Y482445D02*
X467089D01*
X467335Y482534*
X467458Y482623*
X467581Y482802*
Y483160*
X467458Y483339*
X467335Y483429*
X467089Y483518*
X466843*
X466597Y483429*
X466228Y483250*
X464998Y482355*
Y483608*
X424320Y486873D02*
Y484289D01*
Y486873D02*
X423515D01*
X423246Y486750*
X423157Y486626*
X423067Y486380*
Y486134*
X423157Y485888*
X423246Y485765*
X423515Y485642*
X424320*
X423694D02*
X423067Y484289D01*
X422083Y486873D02*
X421099D01*
X421636Y485888*
X421367*
X421188Y485765*
X421099Y485642*
X421009Y485273*
Y485027*
X421099Y484658*
X421278Y484412*
X421546Y484289*
X421815*
X422083Y484412*
X422173Y484535*
X422262Y484781*
X420025Y486873D02*
X419041D01*
X419578Y485888*
X419309*
X419130Y485765*
X419041Y485642*
X418951Y485273*
Y485027*
X419041Y484658*
X419220Y484412*
X419488Y484289*
X419757*
X420025Y484412*
X420115Y484535*
X420204Y484781*
X428045Y645991D02*
X428266Y645911D01*
X428488Y645750*
X428599Y645589*
Y645267*
X428488Y645106*
X428266Y644945*
X428045Y644864*
X427713Y644783*
X427159*
X426827Y644864*
X426606Y644945*
X426384Y645106*
X426273Y645267*
Y645589*
X426384Y645750*
X426606Y645911*
X426827Y645991*
X428045Y646797D02*
X428156D01*
X428377Y646877*
X428488Y646958*
X428599Y647119*
Y647441*
X428488Y647602*
X428377Y647683*
X428156Y647763*
X427934*
X427713Y647683*
X427381Y647521*
X426273Y646716*
Y647844*
X428599Y649615D02*
Y648810D01*
X427602Y648729*
X427713Y648810*
X427824Y649052*
Y649293*
X427713Y649535*
X427491Y649696*
X427159Y649776*
X426938Y649696*
X426606Y649615*
X426384Y649454*
X426273Y649213*
Y648971*
X426384Y648729*
X426495Y648649*
X426716Y648568*
X461061Y638046D02*
X461307Y637956D01*
X461553Y637777*
X461676Y637598*
Y637241*
X461553Y637062*
X461307Y636883*
X461061Y636793*
X460691Y636704*
X460076*
X459707Y636793*
X459461Y636883*
X459215Y637062*
X459092Y637241*
Y637598*
X459215Y637777*
X459461Y637956*
X459707Y638046*
X461061Y638941D02*
X461184D01*
X461430Y639030*
X461553Y639120*
X461676Y639298*
Y639656*
X461553Y639835*
X461430Y639925*
X461184Y640014*
X460938*
X460938D02*
X460691Y639925D01*
X460322Y639746*
X459092Y638851*
Y640104*
X461307Y641983D02*
X461553Y641893D01*
X461676Y641625*
Y641446*
X461553Y641178*
X461184Y640999*
X460568Y640909*
X459953*
X459461Y640999*
X459215Y641178*
X459092Y641446*
Y641535*
X459215Y641804*
X459461Y641983*
X459830Y642072*
X459953*
X460322Y641983*
X460568Y641804*
X460691Y641535*
Y641446*
X460568Y641178*
X460322Y640999*
X459953Y640909*
X412832Y646859D02*
X413078Y646770D01*
X413324Y646591*
X413447Y646412*
Y646054*
X413324Y645875*
X413078Y645696*
X412832Y645607*
X412463Y645517*
X411848*
X411479Y645607*
X411233Y645696*
X410987Y645875*
X410864Y646054*
Y646412*
X410987Y646591*
X411233Y646770*
X411479Y646859*
X412832Y647754D02*
X412955D01*
X413201Y647844*
X413324Y647933*
X413447Y648112*
Y648470*
X413324Y648649*
X413201Y648738*
X412955Y648828*
X412709*
X412463Y648738*
X412094Y648559*
X410864Y647665*
Y648917*
X413447Y650975D02*
X410864Y650081D01*
X413447Y649723D02*
Y650975D01*
X477793Y630127D02*
X478039Y630038D01*
X478285Y629859*
X478408Y629680*
Y629322*
X478285Y629143*
X478039Y628964*
X477793Y628874*
X477424Y628785*
X476809*
X476439Y628874*
X476193Y628964*
X475947Y629143*
X475824Y629322*
Y629680*
X475947Y629859*
X476193Y630038*
X476439Y630127*
X477793Y631022D02*
X477916D01*
X478162Y631111*
X478285Y631201*
X478408Y631380*
Y631738*
X478285Y631917*
X478162Y632006*
X477916Y632096*
X477670*
X477424Y632006*
X477055Y631827*
X475824Y630932*
Y632185*
X478408Y633438D02*
X478285Y633169D01*
X478039Y633080*
X477793*
X477547Y633169*
X477424Y633348*
X477301Y633706*
X477178Y633975*
X476932Y634154*
X476686Y634243*
X476316*
X476070Y634154*
X475947Y634064*
X475824Y633796*
Y633438*
X475947Y633169*
X476070Y633080*
X476316Y632990*
X476686*
X476932Y633080*
X477178Y633259*
X477301Y633527*
X477424Y633885*
X477547Y634064*
X477793Y634154*
X478039*
X478285Y634064*
X478408Y633796*
Y633438*
X466732Y653605D02*
Y651021D01*
Y653605D02*
X466106D01*
X465838Y653482*
X465659Y653236*
X465569Y652990*
X465480Y652621*
Y652005*
X465569Y651636*
X465659Y651390*
X465838Y651144*
X466106Y651021*
X466732*
X463332Y652990D02*
X463422Y653236D01*
X463601Y653482*
X463780Y653605*
X464137*
X464316Y653482*
X464495Y653236*
X464585Y652990*
X464674Y652621*
Y652005*
X464585Y651636*
X464495Y651390*
X464316Y651144*
X464137Y651021*
X463780*
X463601Y651144*
X463422Y651390*
X463332Y651636*
X461364Y653605D02*
X462258D01*
X462348Y652498*
X462258Y652621*
X461990Y652744*
X461722*
X461453Y652621*
X461274Y652375*
X461185Y652005*
X461274Y651759*
X461364Y651390*
X461543Y651144*
X461811Y651021*
X462079*
X462348Y651144*
X462437Y651267*
X462527Y651513*
X439084Y616203D02*
Y613620D01*
Y616203D02*
X438457D01*
X438189Y616080*
X438010Y615834*
X437921Y615588*
X437831Y615219*
Y614604*
X437921Y614235*
X438010Y613989*
X438189Y613743*
X438457Y613620*
X439084*
X435684Y615588D02*
X435773Y615834D01*
X435952Y616080*
X436131Y616203*
X436489*
X436668Y616080*
X436847Y615834*
X436936Y615588*
X437026Y615219*
Y614604*
X436936Y614235*
X436847Y613989*
X436668Y613743*
X436489Y613620*
X436131*
X435952Y613743*
X435773Y613989*
X435684Y614235*
X433805Y615834D02*
X433894Y616080D01*
X434162Y616203*
X434341*
X434610Y616080*
X434789Y615711*
X434878Y615096*
Y614481*
X434789Y613989*
X434610Y613743*
X434341Y613620*
X434252*
X433984Y613743*
X433805Y613989*
X433715Y614358*
Y614481*
X433805Y614850*
X433984Y615096*
X434252Y615219*
X434341*
X434610Y615096*
X434789Y614850*
X434878Y614481*
X459332Y614561D02*
X459422Y614782D01*
X459601Y615004*
X459780Y615114*
X460138*
X460317Y615004*
X460496Y614782*
X460585Y614561*
X460675Y614229*
Y613675*
X460585Y613343*
X460496Y613121*
X460317Y612900*
X460138Y612789*
X459780*
X459601Y612900*
X459422Y613121*
X459332Y613343*
X457632Y615114D02*
X458527Y613564D01*
X457185*
X457632Y615114D02*
Y612789D01*
X455217Y615114D02*
X456111D01*
X456201Y614118*
X456111Y614229*
X455843Y614339*
X455574*
X455306Y614229*
X455127Y614007*
X455038Y613675*
X455127Y613453*
X455217Y613121*
X455395Y612900*
X455664Y612789*
X455932*
X456201Y612900*
X456290Y613011*
X456380Y613232*
X431490Y646027D02*
X431711Y645938D01*
X431933Y645759*
X432044Y645580*
Y645222*
X431933Y645043*
X431711Y644864*
X431490Y644775*
X431158Y644685*
X430604*
X430272Y644775*
X430050Y644864*
X429829Y645043*
X429718Y645222*
Y645580*
X429829Y645759*
X430050Y645938*
X430272Y646027*
X432044Y647727D02*
X430493Y646832D01*
Y648175*
X432044Y647727D02*
X429718D01*
X431490Y649069D02*
X431601D01*
X431822Y649159*
X431933Y649248*
X432044Y649427*
Y649785*
X431933Y649964*
X431822Y650054*
X431601Y650143*
X431379*
X431158Y650054*
X430826Y649875*
X429718Y648980*
Y650233*
X471367Y600351D02*
Y598025D01*
Y600351D02*
X470741D01*
X470472Y600240*
X470293Y600018*
X470204Y599797*
X470115Y599465*
Y598911*
X470204Y598579*
X470293Y598358*
X470472Y598136*
X470741Y598025*
X471367*
X467967Y599797D02*
X468057Y600018D01*
X468236Y600240*
X468414Y600351*
X468772*
X468951Y600240*
X469130Y600018*
X469220Y599797*
X469309Y599465*
Y598911*
X469220Y598579*
X469130Y598358*
X468951Y598136*
X468772Y598025*
X468414*
X468236Y598136*
X468057Y598358*
X467967Y598579*
X465999Y599576D02*
X466088Y599243D01*
X466267Y599022*
X466535Y598911*
X466625*
X466893Y599022*
X467072Y599243*
X467162Y599576*
Y599686*
X467072Y600018*
X466893Y600240*
X466625Y600351*
X466535*
X466267Y600240*
X466088Y600018*
X465999Y599576*
Y599022*
X466088Y598468*
X466267Y598136*
X466535Y598025*
X466714*
X466983Y598136*
X467072Y598358*
X433966Y467458D02*
Y467581D01*
X433876Y467827*
X433787Y467950*
X433608Y468073*
X433250*
X433071Y467950*
X432981Y467827*
X432892Y467581*
Y467335*
X432981Y467089*
X433160Y466720*
X434055Y465490*
X432802*
X431460Y468073D02*
X431729Y467950D01*
X431908Y467581*
X431997Y466966*
Y466597*
X431908Y465982*
X431729Y465613*
X431460Y465490*
X431281*
X431013Y465613*
X430834Y465982*
X430744Y466597*
Y466966*
X430834Y467581*
X431013Y467950*
X431281Y468073*
X431460*
X429939Y467581D02*
X429760Y467704D01*
X429492Y468073*
Y465490*
X428239Y468073D02*
X428508Y467950D01*
X428597Y467704*
Y467458*
X428508Y467212*
X428329Y467089*
X427971Y466966*
X427702Y466843*
X427523Y466597*
X427434Y466351*
Y465982*
X427523Y465736*
X427613Y465613*
X427881Y465490*
X428239*
X428508Y465613*
X428597Y465736*
X428686Y465982*
Y466351*
X428597Y466597*
X428418Y466843*
X428150Y466966*
X427792Y467089*
X427613Y467212*
X427523Y467458*
Y467704*
X427613Y467950*
X427881Y468073*
X428239*
X426628Y466597D02*
X425018D01*
X424213Y467581D02*
X424034Y467704D01*
X423765Y468073*
Y465490*
X422960Y467581D02*
X422781Y467704D01*
X422513Y468073*
Y465490*
X421707Y466597D02*
X420097D01*
X418754Y468073D02*
X419023Y467950D01*
X419202Y467581*
X419291Y466966*
Y466597*
X419202Y465982*
X419023Y465613*
X418754Y465490*
X418576*
X418307Y465613*
X418128Y465982*
X418039Y466597*
Y466966*
X418128Y467581*
X418307Y467950*
X418576Y468073*
X418754*
X417144Y467458D02*
Y467581D01*
X417054Y467827*
X416965Y467950*
X416786Y468073*
X416428*
X416249Y467950*
X416160Y467827*
X416070Y467581*
Y467335*
X416160Y467089*
X416339Y466720*
X417233Y465490*
X415981*
X434055Y472010D02*
Y469427D01*
Y472010D02*
X433250D01*
X432981Y471887*
X432892Y471764*
X432802Y471518*
Y471149*
X432892Y470903*
X432981Y470780*
X433250Y470657*
X434055*
X431997Y472010D02*
Y469427D01*
Y472010D02*
X431192D01*
X430923Y471887*
X430834Y471764*
X430744Y471518*
Y471272*
X430834Y471026*
X430923Y470903*
X431192Y470780*
X431997*
X431371D02*
X430744Y469427D01*
X429760Y472010D02*
X428776D01*
X429313Y471026*
X429044*
X428865Y470903*
X428776Y470780*
X428686Y470411*
Y470165*
X428776Y469796*
X428955Y469550*
X429223Y469427*
X429492*
X429760Y469550*
X429850Y469673*
X429939Y469919*
X427792Y471395D02*
Y471518D01*
X427702Y471764*
X427613Y471887*
X427434Y472010*
X427076*
X426897Y471887*
X426807Y471764*
X426718Y471518*
Y471272*
X426807Y471026*
X426986Y470657*
X427881Y469427*
X426628*
X425823Y470534D02*
X424213D01*
X422065Y471395D02*
X422155Y471641D01*
X422334Y471887*
X422513Y472010*
X422870*
X423049Y471887*
X423228Y471641*
X423318Y471395*
X423407Y471026*
Y470411*
X423318Y470042*
X423228Y469796*
X423049Y469550*
X422870Y469427*
X422513*
X422334Y469550*
X422155Y469796*
X422065Y470042*
X420723Y472010D02*
X420991Y471887D01*
X421170Y471518*
X421260Y470903*
Y470534*
X421170Y469919*
X420991Y469550*
X420723Y469427*
X420544*
X420276Y469550*
X420097Y469919*
X420007Y470534*
Y470903*
X420097Y471518*
X420276Y471887*
X420544Y472010*
X420723*
X419202Y471518D02*
X419023Y471641D01*
X418754Y472010*
Y469427*
X417949Y470534D02*
X416339D01*
X415533Y472010D02*
Y469427D01*
Y472010D02*
X414728D01*
X414460Y471887*
X414370Y471764*
X414281Y471518*
Y471272*
X414370Y471026*
X414460Y470903*
X414728Y470780*
X415533*
X414907D02*
X414281Y469427D01*
X413475Y472010D02*
Y469427D01*
Y472010D02*
X412312D01*
X413475Y470780D02*
X412759D01*
X413475Y469427D02*
X412312D01*
X411507Y472010D02*
X410791Y469427D01*
X410075Y472010D02*
X410791Y469427D01*
X407928Y471395D02*
X408017Y471641D01*
X408196Y471887*
X408375Y472010*
X408733*
X408912Y471887*
X409091Y471641*
X409180Y471395*
X409270Y471026*
Y470411*
X409180Y470042*
X409091Y469796*
X408912Y469550*
X408733Y469427*
X408375*
X408196Y469550*
X408017Y469796*
X407928Y470042*
X407122Y468935D02*
X405243D01*
X404707Y471518D02*
X404528Y471641D01*
X404259Y472010*
Y469427*
X401575Y393701D02*
X488189D01*
X496063Y401575*
Y661417*
X488189Y669291*
X401575*
X393701Y661417*
Y401575*
X401575Y393701*
X424564Y475983D02*
Y475029D01*
Y477591D02*
Y476640D01*
X424520Y475983D02*
Y475029D01*
Y477591D02*
Y476640D01*
X424476Y475983D02*
Y475029D01*
Y477591D02*
Y476640D01*
X424431Y475983D02*
Y475029D01*
Y477591D02*
Y476640D01*
X424387Y475983D02*
Y475029D01*
Y477591D02*
Y476640D01*
X424343Y475983D02*
Y475029D01*
Y477591D02*
Y476640D01*
X424299Y475983D02*
Y475029D01*
Y477591D02*
Y476640D01*
X424255Y475983D02*
Y475029D01*
Y477591D02*
Y476640D01*
X424211Y475983D02*
Y475029D01*
Y477591D02*
Y476640D01*
X424167Y475983D02*
Y475029D01*
Y477591D02*
Y476640D01*
X424123Y475983D02*
Y475029D01*
Y477591D02*
Y476640D01*
X424078Y475983D02*
Y475029D01*
Y477591D02*
Y476640D01*
X424034Y475983D02*
Y475029D01*
Y477591D02*
Y476640D01*
X423990Y475983D02*
Y475029D01*
Y477589D02*
Y476640D01*
X423946Y475985D02*
Y475026D01*
Y477589D02*
Y476635D01*
X423902Y475995D02*
Y475016D01*
Y477586D02*
Y476627D01*
X423858Y476009D02*
Y475002D01*
Y477584D02*
Y476610D01*
X423814Y476034D02*
Y474977D01*
Y477576D02*
Y476586D01*
X423769Y476068D02*
Y474940D01*
Y477569D02*
Y476551D01*
X423725Y476120D02*
Y474891D01*
Y477562D02*
Y476502D01*
X423681Y476208D02*
Y474801D01*
X423725Y474516D02*
Y473452D01*
X413827Y475029D02*
X412513D01*
X414631Y474377D02*
X412513D01*
X414631D02*
X414872Y473896D01*
Y475571D02*
Y473896D01*
X425093Y475983D02*
X423993D01*
X425093D02*
X425510Y475029D01*
X423993*
Y475031D02*
Y475029D01*
X423666Y474703D02*
X423664D01*
X425630Y474377D02*
X423993D01*
X425630Y476640D02*
Y474377D01*
Y476640D02*
X423993D01*
X415823Y477135D02*
Y473425D01*
X412513*
X413827Y475983D02*
X412513D01*
X413827Y476640D02*
X411861D01*
X411385Y477591D02*
X411861Y476640D01*
X413827Y477591D02*
X411385D01*
X414872D02*
Y477052D01*
X418991Y477591D02*
X414872D01*
X418991D02*
X419366Y476841D01*
X420969Y477591D02*
Y477589D01*
X426582Y477591D02*
X423993D01*
X426582D02*
Y476475D01*
X434055Y477591D02*
X431466D01*
X434055D02*
Y473425D01*
X433104*
Y476640D02*
Y473425D01*
Y476640D02*
X431466D01*
X432567Y475983D02*
X431466D01*
X432567D02*
X432986Y475029D01*
X431508Y473425*
X430186*
X431699Y475051D02*
X430186Y473425D01*
X426582Y474538D02*
Y473425D01*
X423993*
Y473423*
X419216Y476640D02*
X418003D01*
Y473425*
X417049*
Y476640D02*
Y473425D01*
Y476640D02*
X416071D01*
X415823Y477135D02*
X416071Y476640D01*
X424652Y474377D02*
Y473425D01*
X428124Y474418D02*
X426650D01*
X432422D02*
X431108D01*
X434009Y477591D02*
Y473425D01*
X433964Y477591D02*
Y473425D01*
X433920Y477591D02*
Y473425D01*
X433876Y477591D02*
Y473425D01*
X433832Y477591D02*
Y473425D01*
X433788Y477591D02*
Y473425D01*
X433744Y477591D02*
Y473425D01*
X433700Y477591D02*
Y473425D01*
X433655Y477591D02*
Y473425D01*
X433611Y477591D02*
Y473425D01*
X433567Y477591D02*
Y473425D01*
X433523Y477591D02*
Y473425D01*
X433479Y477591D02*
Y473425D01*
X433435Y477591D02*
Y473425D01*
X433391Y477591D02*
Y473425D01*
X433347Y477591D02*
Y473425D01*
X433302Y477591D02*
Y473425D01*
X433258Y477591D02*
Y473425D01*
X433214Y477591D02*
Y473425D01*
X433170Y477591D02*
Y473425D01*
X433126Y477591D02*
Y473425D01*
X433082Y477591D02*
Y476640D01*
X433038Y477591D02*
Y476640D01*
X432993Y477591D02*
Y476640D01*
X432949Y475112D02*
Y474990D01*
X432905Y475213D02*
Y474940D01*
X432861Y475313D02*
Y474894D01*
X432817Y475414D02*
Y474845D01*
X432773Y475517D02*
Y474798D01*
X432729Y475617D02*
Y474749D01*
X432685Y475718D02*
Y474700D01*
X432640Y475818D02*
Y474654D01*
X432596Y475919D02*
Y474605D01*
X432552Y475983D02*
Y474558D01*
X432508Y475983D02*
Y474509D01*
X432464Y475983D02*
Y474462D01*
X432420Y475983D02*
Y474413D01*
X432376Y475983D02*
Y474367D01*
X432331Y475983D02*
Y474318D01*
X432287Y475983D02*
Y474269D01*
X432243Y475983D02*
Y474222D01*
X432199Y475983D02*
Y474173D01*
X432155Y475983D02*
Y474126D01*
X432111Y475983D02*
Y474077D01*
X432067Y475983D02*
Y474031D01*
X432023Y475983D02*
Y473982D01*
X431978Y475983D02*
Y473933D01*
X431934Y475983D02*
Y473886D01*
X431890Y475983D02*
Y473837D01*
X431846Y475983D02*
Y473791D01*
X431802Y475983D02*
Y473741D01*
X431758Y475983D02*
Y473695D01*
X431714Y475983D02*
Y473646D01*
X431669Y475019D02*
Y473599D01*
X431625Y474972D02*
Y473550D01*
X431581Y474923D02*
Y473501D01*
X431537Y474877D02*
Y473455D01*
X431493Y474830D02*
Y473425D01*
X431449Y474781D02*
Y473425D01*
X431405Y474735D02*
Y473425D01*
X431360Y474688D02*
Y473425D01*
X431316Y474639D02*
Y473425D01*
X431272Y474592D02*
Y473425D01*
X431228Y474543D02*
Y473425D01*
X431184Y474497D02*
Y473425D01*
X431140Y474450D02*
Y473425D01*
X431096Y474401D02*
Y473425D01*
X431052Y474354D02*
Y473425D01*
X431007Y474308D02*
Y473425D01*
X430963Y474259D02*
Y473425D01*
X430919Y474212D02*
Y473425D01*
X430875Y474163D02*
Y473425D01*
X430831Y474117D02*
Y473425D01*
X430787Y474070D02*
Y473425D01*
X430743Y474021D02*
Y473425D01*
X430698Y473974D02*
Y473425D01*
X430654Y473925D02*
Y473425D01*
X430610Y473879D02*
Y473425D01*
X430566Y473832D02*
Y473425D01*
X430522Y473783D02*
Y473425D01*
X430478Y473737D02*
Y473425D01*
X430434Y473690D02*
Y473425D01*
X430390Y473641D02*
Y473425D01*
X430345Y473594D02*
Y473425D01*
X430301Y473545D02*
Y473425D01*
X430257Y473499D02*
Y473425D01*
X430213Y473452D02*
Y473425D01*
X430169Y476647D02*
Y474364D01*
X430125Y476713D02*
Y474301D01*
X430081Y476772D02*
Y474242D01*
X430036Y476828D02*
Y474185D01*
X429992Y476880D02*
Y474134D01*
X429948Y476929D02*
Y474085D01*
X429904Y476976D02*
Y474038D01*
X429860Y477017D02*
Y473996D01*
X429816Y477059D02*
Y473955D01*
X429772Y477098D02*
Y473916D01*
X429728Y477132D02*
Y473881D01*
X429683Y477167D02*
Y473847D01*
X429639Y477201D02*
Y473813D01*
X430201Y474418D02*
X428727D01*
X429595Y477231D02*
Y473783D01*
X429551Y475387D02*
Y473754D01*
X429507Y475173D02*
Y473727D01*
X429463Y475053D02*
Y473700D01*
X429419Y474965D02*
Y473675D01*
X429374Y474891D02*
Y473653D01*
X429330Y474828D02*
Y473631D01*
X429286Y474771D02*
Y473609D01*
X429242Y474725D02*
Y473589D01*
X429198Y474681D02*
Y473572D01*
X429154Y474641D02*
Y473555D01*
X429110Y474607D02*
Y473538D01*
X429066Y474575D02*
Y473523D01*
X429021Y474546D02*
Y473511D01*
X428977Y474519D02*
Y473499D01*
X428933Y474497D02*
Y473486D01*
X428889Y474475D02*
Y473477D01*
X428845Y474457D02*
Y473467D01*
X428801Y474440D02*
Y473457D01*
X428757Y474426D02*
Y473450D01*
X428712Y474413D02*
Y473445D01*
X428668Y474404D02*
Y473437D01*
X428624Y474394D02*
Y473433D01*
X428580Y474386D02*
Y473430D01*
X428536Y474381D02*
Y473428D01*
X428492Y474379D02*
Y473425D01*
X428448Y474377D02*
Y473425D01*
X428404Y474377D02*
Y473425D01*
X428359Y474379D02*
Y473425D01*
X428315Y474381D02*
Y473428D01*
X428271Y474386D02*
Y473430D01*
X428227Y474394D02*
Y473433D01*
X428183Y474404D02*
Y473437D01*
X428139Y474413D02*
Y473445D01*
X428095Y474426D02*
Y473450D01*
X428050Y474440D02*
Y473460D01*
X428006Y474457D02*
Y473467D01*
X427962Y474475D02*
Y473477D01*
X427918Y474497D02*
Y473486D01*
X427874Y474521D02*
Y473499D01*
X427830Y474546D02*
Y473511D01*
X427786Y474575D02*
Y473526D01*
X427742Y474607D02*
Y473540D01*
X427697Y474641D02*
Y473555D01*
X427653Y474681D02*
Y473572D01*
X427609Y474725D02*
Y473592D01*
X427565Y474774D02*
Y473612D01*
X427521Y474830D02*
Y473631D01*
X427477Y474894D02*
Y473653D01*
X427433Y474967D02*
Y473678D01*
X427388Y475058D02*
Y473702D01*
X427300Y475401D02*
Y473754D01*
X427256Y477231D02*
Y473783D01*
X427212Y477199D02*
Y473815D01*
X427168Y477167D02*
Y473847D01*
X427124Y477132D02*
Y473881D01*
X427079Y477096D02*
Y473918D01*
X427035Y477056D02*
Y473957D01*
X426991Y477017D02*
Y473996D01*
X426947Y476973D02*
Y474041D01*
X426903Y476926D02*
Y474087D01*
X426859Y476877D02*
Y474136D01*
X426815Y476826D02*
Y474188D01*
X426771Y476770D02*
Y474244D01*
X426726Y476711D02*
Y474303D01*
X426682Y476645D02*
Y474369D01*
X426638Y476573D02*
Y474438D01*
X426594Y476497D02*
Y474516D01*
X426550Y477591D02*
Y473425D01*
X426506Y477591D02*
Y473425D01*
X426462Y477591D02*
Y473425D01*
X426417Y477591D02*
Y473425D01*
X426373Y477591D02*
Y473425D01*
X426329Y477591D02*
Y473425D01*
X426285Y477591D02*
Y473425D01*
X426241Y477591D02*
Y473425D01*
X426197Y477591D02*
Y473425D01*
X426153Y477591D02*
Y473425D01*
X426109Y477591D02*
Y473425D01*
X426064Y477591D02*
Y473425D01*
X426020Y477591D02*
Y473425D01*
X425976Y477591D02*
Y473425D01*
X425932Y477591D02*
Y473425D01*
X425888Y477591D02*
Y473425D01*
X425844Y477591D02*
Y473425D01*
X425800Y477591D02*
Y473425D01*
X425755Y477591D02*
Y473425D01*
X425711Y477591D02*
Y473425D01*
X425667Y477591D02*
Y473425D01*
X415823Y474418D02*
X414872D01*
X426582D02*
X425630D01*
X425579Y474377D02*
Y473425D01*
X425535Y474377D02*
Y473425D01*
X425491Y474377D02*
Y473425D01*
X425447Y474377D02*
Y473425D01*
X425402Y474377D02*
Y473425D01*
X425358Y474377D02*
Y473425D01*
X425314Y474377D02*
Y473425D01*
X425270Y474377D02*
Y473425D01*
X425226Y474377D02*
Y473425D01*
X425182Y474377D02*
Y473425D01*
X425138Y474377D02*
Y473425D01*
X425093Y474377D02*
Y473425D01*
X425049Y474377D02*
Y473425D01*
X425005Y474377D02*
Y473425D01*
X424961Y474377D02*
Y473425D01*
X424917Y474377D02*
Y473425D01*
X424873Y474377D02*
Y473425D01*
X424829Y474377D02*
Y473425D01*
X424785Y474377D02*
Y473425D01*
X424740Y474377D02*
Y473425D01*
X424696Y474377D02*
Y473425D01*
X425623Y477591D02*
Y473425D01*
X424608Y474377D02*
Y473425D01*
X424564Y474377D02*
Y473425D01*
X424520Y474377D02*
Y473425D01*
X424476Y474377D02*
Y473425D01*
X424431Y474377D02*
Y473425D01*
X424387Y474377D02*
Y473425D01*
X424343Y474377D02*
Y473425D01*
X424299Y474377D02*
Y473425D01*
X424255Y474377D02*
Y473425D01*
X424211Y474377D02*
Y473425D01*
X424167Y474377D02*
Y473425D01*
X424123Y474377D02*
Y473425D01*
X424078Y474377D02*
Y473425D01*
X424034Y474377D02*
Y473425D01*
X423990Y474377D02*
Y473423D01*
X423946Y474379D02*
Y473425D01*
X423902Y474389D02*
Y473428D01*
X423858Y474406D02*
Y473430D01*
X423814Y474428D02*
Y473435D01*
X423769Y474465D02*
Y473442D01*
X423681Y474605D02*
Y473462D01*
X423637Y477539D02*
Y473474D01*
X423593Y477525D02*
Y473486D01*
X423549Y477510D02*
Y473504D01*
X423505Y477493D02*
Y473521D01*
X423461Y477473D02*
Y473540D01*
X423416Y477451D02*
Y473560D01*
X423372Y477429D02*
Y473585D01*
X423328Y477402D02*
Y473609D01*
X423284Y477375D02*
Y473639D01*
X423240Y477343D02*
Y473668D01*
X423196Y477311D02*
Y473702D01*
X423152Y477275D02*
Y473739D01*
X423107Y477233D02*
Y473781D01*
X423063Y477189D02*
Y473825D01*
X423019Y477140D02*
Y473874D01*
X422975Y477086D02*
Y473928D01*
X422931Y477025D02*
Y473992D01*
X422887Y476953D02*
Y474060D01*
X422843Y476870D02*
Y474144D01*
X422798Y476770D02*
Y474247D01*
X422754Y476630D02*
Y474401D01*
X422710Y476662D02*
Y474332D01*
X412780Y474377D02*
Y473425D01*
X422622Y476784D02*
Y474210D01*
X422578Y476838D02*
Y474153D01*
X422534Y476890D02*
Y474104D01*
X422490Y476936D02*
Y474055D01*
X422445Y476983D02*
Y474011D01*
X422401Y477025D02*
Y473967D01*
X422357Y477066D02*
Y473928D01*
X422313Y477103D02*
Y473889D01*
X422269Y477140D02*
Y473854D01*
X422225Y477172D02*
Y473820D01*
X422181Y477206D02*
Y473788D01*
X415823Y475610D02*
X411611D01*
X422666Y476725D02*
Y474269D01*
X422092Y475298D02*
Y473729D01*
X422048Y475127D02*
Y473702D01*
X422004Y475016D02*
Y473675D01*
X421960Y474931D02*
Y473651D01*
X421916Y474860D02*
Y473629D01*
X421872Y474798D02*
Y473607D01*
X421828Y474747D02*
Y473587D01*
X421783Y474698D02*
Y473567D01*
X421739Y474656D02*
Y473548D01*
X421695Y474617D02*
Y473533D01*
X421651Y474582D02*
Y473516D01*
X421607Y474551D02*
Y473501D01*
X421563Y474524D02*
Y473489D01*
X421519Y474497D02*
Y473477D01*
X421474Y474475D02*
Y473464D01*
X421430Y474455D02*
Y473455D01*
X421386Y474435D02*
Y473445D01*
X421342Y474421D02*
Y473435D01*
X421298Y474406D02*
Y473428D01*
X421254Y474394D02*
Y473423D01*
X421210Y474381D02*
Y473415D01*
X421166Y474374D02*
Y473413D01*
X421121Y474367D02*
Y473408D01*
X421077Y474362D02*
Y473406D01*
X421033Y474359D02*
Y473403D01*
X422136Y477235D02*
Y473756D01*
X420945Y474357D02*
Y473403D01*
X420901Y474359D02*
Y473403D01*
X420857Y474364D02*
Y473406D01*
X420812Y474369D02*
Y473408D01*
X420768Y474377D02*
Y473413D01*
X420724Y474384D02*
Y473415D01*
X420680Y474396D02*
Y473423D01*
X420636Y474408D02*
Y473430D01*
X420592Y474423D02*
Y473437D01*
X420548Y474438D02*
Y473445D01*
X420504Y474457D02*
Y473455D01*
X420459Y474480D02*
Y473464D01*
X420415Y474502D02*
Y473477D01*
X420371Y474529D02*
Y473489D01*
X420327Y474558D02*
Y473504D01*
X420283Y474590D02*
Y473518D01*
X420239Y474624D02*
Y473533D01*
X420195Y474663D02*
Y473550D01*
X420150Y474708D02*
Y473570D01*
X420106Y474754D02*
Y473589D01*
X420062Y474811D02*
Y473609D01*
X420018Y474872D02*
Y473631D01*
X419974Y474945D02*
Y473656D01*
X419930Y475036D02*
Y473680D01*
X415823Y474948D02*
X414872D01*
X419797Y477231D02*
Y473761D01*
X419753Y477199D02*
Y473793D01*
X419709Y477167D02*
Y473825D01*
X419665Y477132D02*
Y473859D01*
X419621Y477096D02*
Y473896D01*
X419577Y477059D02*
Y473933D01*
X419533Y477017D02*
Y473974D01*
X419488Y476976D02*
Y474016D01*
X419444Y476929D02*
Y474063D01*
X419400Y476880D02*
Y474112D01*
X419356Y476860D02*
Y474163D01*
X419312Y476949D02*
Y474220D01*
X419268Y477037D02*
Y474278D01*
X419224Y477125D02*
Y474342D01*
X419180Y476581D02*
Y474411D01*
X419135Y476502D02*
Y474489D01*
X419091Y476419D02*
Y474573D01*
X419047Y476323D02*
Y474668D01*
X419003Y476211D02*
Y474781D01*
X418959Y476076D02*
Y474916D01*
X418915Y475892D02*
Y475100D01*
X418871Y477591D02*
Y476640D01*
X418826Y477591D02*
Y476640D01*
X418782Y477591D02*
Y476640D01*
X418738Y477591D02*
Y476640D01*
X418694Y477591D02*
Y476640D01*
X418650Y477591D02*
Y476640D01*
X418606Y477591D02*
Y476640D01*
X418562Y477591D02*
Y476640D01*
X418517Y477591D02*
Y476640D01*
X418473Y477591D02*
Y476640D01*
X418429Y477591D02*
Y476640D01*
X418385Y477591D02*
Y476640D01*
X418341Y477591D02*
Y476640D01*
X418297Y477591D02*
Y476640D01*
X418253Y477591D02*
Y476640D01*
X418209Y477591D02*
Y476640D01*
X418164Y477591D02*
Y476640D01*
X418120Y477591D02*
Y476640D01*
X418076Y477591D02*
Y476640D01*
X418032Y477591D02*
Y476640D01*
X417988Y477591D02*
Y473425D01*
X417944Y477591D02*
Y473425D01*
X417900Y477591D02*
Y473425D01*
X417855Y477591D02*
Y473425D01*
X417811Y477591D02*
Y473425D01*
X417767Y477591D02*
Y473425D01*
X417723Y477591D02*
Y473425D01*
X417679Y477591D02*
Y473425D01*
X417635Y477591D02*
Y473425D01*
X417591Y477591D02*
Y473425D01*
X417547Y477591D02*
Y473425D01*
X417502Y477591D02*
Y473425D01*
X417458Y477591D02*
Y473425D01*
X417414Y477591D02*
Y473425D01*
X417370Y477591D02*
Y473425D01*
X417326Y477591D02*
Y473425D01*
X417282Y477591D02*
Y473425D01*
X417238Y477591D02*
Y473425D01*
X417193Y477591D02*
Y473425D01*
X417149Y477591D02*
Y473425D01*
X417105Y477591D02*
Y473425D01*
X417061Y477591D02*
Y473425D01*
X417017Y477591D02*
Y476640D01*
X416973Y477591D02*
Y476640D01*
X416929Y477591D02*
Y476640D01*
X416885Y477591D02*
Y476640D01*
X416840Y477591D02*
Y476640D01*
X416796Y477591D02*
Y476640D01*
X416752Y477591D02*
Y476640D01*
X416708Y477591D02*
Y476640D01*
X416664Y477591D02*
Y476640D01*
X416620Y477591D02*
Y476640D01*
X416576Y477591D02*
Y476640D01*
X416531Y477591D02*
Y476640D01*
X416487Y477591D02*
Y476640D01*
X416443Y477591D02*
Y476640D01*
X416399Y477591D02*
Y476640D01*
X416355Y477591D02*
Y476640D01*
X416311Y477591D02*
Y476640D01*
X416267Y477591D02*
Y476640D01*
X416223Y477591D02*
Y476640D01*
X416178Y477591D02*
Y476640D01*
X416134Y477591D02*
Y476640D01*
X416090Y477591D02*
Y476640D01*
X416046Y477591D02*
Y476689D01*
X416002Y477591D02*
Y476777D01*
X415958Y477591D02*
Y476865D01*
X415914Y477591D02*
Y476953D01*
X415869Y477591D02*
Y477042D01*
X415825Y477591D02*
Y477130D01*
X415781Y477591D02*
Y473425D01*
X415737Y477591D02*
Y473425D01*
X415693Y477591D02*
Y473425D01*
X415649Y477591D02*
Y473425D01*
X415605Y477591D02*
Y473425D01*
X415561Y477591D02*
Y473425D01*
X415516Y477591D02*
Y473425D01*
X415472Y477591D02*
Y473425D01*
X415428Y477591D02*
Y473425D01*
X415384Y477591D02*
Y473425D01*
X415340Y477591D02*
Y473425D01*
X415296Y477591D02*
Y473425D01*
X415252Y477591D02*
Y473425D01*
X415207Y477591D02*
Y473425D01*
X415163Y477591D02*
Y473425D01*
X415119Y477591D02*
Y473425D01*
X415075Y477591D02*
Y473425D01*
X415031Y477591D02*
Y473425D01*
X414987Y477591D02*
Y473425D01*
X414943Y477591D02*
Y473425D01*
X420945Y477589D02*
Y476635D01*
X420989Y474357D02*
Y473403D01*
X414810Y477130D02*
Y475490D01*
X414766Y477179D02*
Y475438D01*
X414722Y477226D02*
Y475394D01*
X414678Y477267D02*
Y475352D01*
X414634Y477304D02*
Y475316D01*
X414590Y477338D02*
Y475281D01*
X414545Y477370D02*
Y475249D01*
X414501Y477397D02*
Y475220D01*
X414457Y477424D02*
Y475195D01*
X414413Y477449D02*
Y475171D01*
X414369Y477471D02*
Y475149D01*
X414325Y477490D02*
Y475129D01*
X414281Y477508D02*
Y475112D01*
X414236Y477522D02*
Y475097D01*
X414192Y477537D02*
Y475083D01*
X414148Y476240D02*
Y475070D01*
X414104Y476132D02*
Y475061D01*
X414060Y476078D02*
Y475051D01*
X414016Y476041D02*
Y475043D01*
X413972Y476014D02*
Y475039D01*
X413928Y475997D02*
Y475034D01*
X413883Y475985D02*
Y475031D01*
X413839Y475983D02*
Y475029D01*
X413795Y475983D02*
Y475029D01*
X413751Y475983D02*
Y475029D01*
X413707Y475983D02*
Y475029D01*
X413663Y475983D02*
Y475029D01*
X413619Y475983D02*
Y475029D01*
X413574Y475983D02*
Y475029D01*
X413530Y475983D02*
Y475029D01*
X413486Y475983D02*
Y475029D01*
X413442Y475983D02*
Y475029D01*
X413398Y475983D02*
Y475029D01*
X413354Y475983D02*
Y475029D01*
X413310Y475983D02*
Y475029D01*
X413266Y475983D02*
Y475029D01*
X413221Y475983D02*
Y475029D01*
X413177Y475983D02*
Y475029D01*
X413133Y475983D02*
Y475029D01*
X413089Y475983D02*
Y475029D01*
X413045Y475983D02*
Y475029D01*
X413001Y475983D02*
Y475029D01*
X412957Y475983D02*
Y475029D01*
X412912Y475983D02*
Y475029D01*
X412868Y475983D02*
Y475029D01*
X412824Y475983D02*
Y475029D01*
X412780Y475983D02*
Y475029D01*
X412736Y475983D02*
Y475029D01*
X412692Y475983D02*
Y475029D01*
X412648Y475983D02*
Y475029D01*
X412604Y475983D02*
Y475029D01*
X412559Y475983D02*
Y475029D01*
X412515Y475983D02*
Y475029D01*
X412471Y475980D02*
Y475026D01*
X412427Y475978D02*
Y475016D01*
X412383Y475975D02*
Y475002D01*
X412339Y475970D02*
Y474977D01*
X412295Y475963D02*
Y474945D01*
X412250Y475953D02*
Y474894D01*
X415823Y474551D02*
X414872D01*
X412162Y475931D02*
Y473474D01*
X412118Y475919D02*
Y473486D01*
X412074Y475904D02*
Y473501D01*
X412030Y475887D02*
Y473518D01*
X411986Y475867D02*
Y473538D01*
X411942Y475845D02*
Y473560D01*
X411897Y475823D02*
Y473582D01*
X411853Y475796D02*
Y473609D01*
X411809Y475769D02*
Y473636D01*
X411765Y475740D02*
Y473668D01*
X411721Y475705D02*
Y473700D01*
X411677Y475669D02*
Y473737D01*
X411633Y475629D02*
Y473776D01*
X411588Y475585D02*
Y473820D01*
X411544Y475536D02*
Y473869D01*
X411500Y475482D02*
Y473925D01*
X411456Y475421D02*
Y473987D01*
X411412Y475350D02*
Y474055D01*
X414835Y475522D02*
X411530D01*
X418003Y475566D02*
X417049D01*
X414143Y477552D02*
X411405D01*
X414281Y477508D02*
X411427D01*
X414384Y477463D02*
X411449D01*
X414467Y477419D02*
X411471D01*
X414538Y477375D02*
X411493D01*
X414599Y477331D02*
X411515D01*
X414656Y477287D02*
X411537D01*
X414705Y477243D02*
X411559D01*
X414749Y477199D02*
X411581D01*
X414788Y477155D02*
X411603D01*
X414825Y477110D02*
X411625D01*
X415823Y477066D02*
X411647D01*
X415823Y477022D02*
X411669D01*
X415823Y476978D02*
X411691D01*
X415823Y476934D02*
X411714D01*
X415823Y476890D02*
X411736D01*
X415823Y476846D02*
X411758D01*
X415823Y476801D02*
X411780D01*
X415823Y476757D02*
X411802D01*
X415823Y476713D02*
X411824D01*
X415823Y473977D02*
X414872D01*
X423681Y477552D02*
Y476414D01*
X415823Y475522D02*
X414872D01*
X415823Y476625D02*
X413923D01*
X415823Y476581D02*
X414013D01*
X415823Y476537D02*
X414065D01*
X415823Y476493D02*
X414099D01*
X415823Y476448D02*
X414124D01*
X415823Y476404D02*
X414141D01*
X415823Y476360D02*
X414151D01*
X415823Y476316D02*
X414153D01*
X415823Y476272D02*
X414153D01*
X415823Y476228D02*
X414143D01*
X415823Y476184D02*
X414129D01*
X415823Y476139D02*
X414107D01*
X415823Y476095D02*
X414075D01*
X415823Y476051D02*
X414026D01*
X415823Y476007D02*
X413950D01*
X415823Y475963D02*
X412290D01*
X415823Y475919D02*
X412116D01*
X415823Y475875D02*
X411998D01*
X415823Y475831D02*
X411910D01*
X415823Y475786D02*
X411834D01*
X415823Y475742D02*
X411767D01*
X415823Y475698D02*
X411709D01*
X415823Y475654D02*
X411657D01*
X412353Y474418D02*
X411267D01*
X412206Y475943D02*
Y474811D01*
Y474592D02*
Y473462D01*
X415823Y474904D02*
X414872D01*
X414759Y475433D02*
X411463D01*
X415823Y474860D02*
X414872D01*
X414666Y475345D02*
X411407D01*
X415823Y474815D02*
X414872D01*
X414553Y475257D02*
X411360D01*
X415823Y474771D02*
X414872D01*
X414403Y475168D02*
X411321D01*
X415823Y474727D02*
X414872D01*
X414180Y475080D02*
X411292D01*
X415823Y474683D02*
X414872D01*
X412358Y474992D02*
X411267D01*
X415823Y474639D02*
X414872D01*
X412255Y474904D02*
X411250D01*
X415823Y474595D02*
X414872D01*
X412206Y474815D02*
X411240D01*
X411412Y477591D02*
Y477539D01*
X412187Y474727D02*
X411235D01*
X415823Y474506D02*
X414872D01*
X412192Y474639D02*
X411235D01*
X415823Y474462D02*
X414872D01*
X412223Y474551D02*
X411245D01*
X426582Y474374D02*
X421158D01*
X415823D02*
X414872D01*
X415823Y474330D02*
X414872D01*
X415823Y474286D02*
X414872D01*
X415823Y474242D02*
X414872D01*
X415823Y474198D02*
X414872D01*
X415823Y474153D02*
X414872D01*
X415823Y474109D02*
X414872D01*
X415823Y474065D02*
X414872D01*
X415823Y474021D02*
X414872D01*
X414830Y473977D02*
X411461D01*
X415823Y473933D02*
X411493D01*
X415823Y473889D02*
X411527D01*
X415823Y473844D02*
X411566D01*
X415823Y473800D02*
X411608D01*
X415823Y473756D02*
X411655D01*
X415823Y473712D02*
X411706D01*
X415823Y473668D02*
X411765D01*
X415823Y473624D02*
X411829D01*
X415823Y473580D02*
X411905D01*
X415823Y473536D02*
X411993D01*
X415823Y473491D02*
X412108D01*
X415823Y473447D02*
X412277D01*
X432787Y474815D02*
X431478D01*
X434055Y474771D02*
X433104D01*
X432746D02*
X431437D01*
X434055Y474727D02*
X433104D01*
X432707D02*
X431395D01*
X434055Y474683D02*
X433104D01*
X432665D02*
X431356D01*
X434055Y474639D02*
X433104D01*
X432626D02*
X431314D01*
X434055Y474595D02*
X433104D01*
X432584D02*
X431272D01*
X434055Y474551D02*
X433104D01*
X432542D02*
X431231D01*
X434055Y474506D02*
X433104D01*
X432503D02*
X431191D01*
X434055Y474462D02*
X433104D01*
X432461D02*
X431150D01*
X427994D02*
X426623D01*
X434055Y474418D02*
X433104D01*
X432949Y477591D02*
Y476640D01*
X432905Y477591D02*
Y476640D01*
X432861Y477591D02*
Y476640D01*
X432817Y477591D02*
Y476640D01*
X432773Y477591D02*
Y476640D01*
X432729Y477591D02*
Y476640D01*
X432685Y477591D02*
Y476640D01*
X432640Y477591D02*
Y476640D01*
X432596Y477591D02*
Y476640D01*
X432552Y477591D02*
Y476640D01*
X432508Y477591D02*
Y476640D01*
X432464Y477591D02*
Y476640D01*
X432420Y477591D02*
Y476640D01*
X432376Y477591D02*
Y476640D01*
X432331Y477591D02*
Y476640D01*
X432287Y477591D02*
Y476640D01*
X432243Y477591D02*
Y476640D01*
X432199Y477591D02*
Y476640D01*
X432155Y477591D02*
Y476640D01*
X432111Y477591D02*
Y476640D01*
X432067Y477591D02*
Y476640D01*
X432023Y477591D02*
Y476640D01*
X431978Y477591D02*
Y476640D01*
X431934Y477591D02*
Y476640D01*
X431890Y477591D02*
Y476640D01*
X431846Y477591D02*
Y476640D01*
X431802Y477591D02*
Y476640D01*
X431758Y477591D02*
Y476640D01*
X431714Y477591D02*
Y476640D01*
X431669Y477591D02*
Y476640D01*
Y475983D02*
Y475046D01*
X431625Y477591D02*
Y476640D01*
Y475983D02*
Y475039D01*
X431581Y477591D02*
Y476640D01*
Y475983D02*
Y475034D01*
X431537Y477591D02*
Y476640D01*
Y475983D02*
Y475031D01*
X431493Y477591D02*
Y476640D01*
Y475983D02*
Y475029D01*
X431449Y477589D02*
Y476637D01*
Y475983D02*
Y475031D01*
X431405Y477589D02*
Y476632D01*
Y475987D02*
Y475031D01*
X431360Y477586D02*
Y476620D01*
Y476000D02*
Y475034D01*
X431316Y477581D02*
Y476603D01*
Y476017D02*
Y475039D01*
X431272Y477574D02*
Y476576D01*
Y476044D02*
Y475043D01*
X431228Y477566D02*
Y476537D01*
Y476083D02*
Y475053D01*
X431184Y477559D02*
Y476478D01*
Y476142D02*
Y475061D01*
X431140Y477547D02*
Y476350D01*
Y476269D02*
Y475073D01*
X431096Y477535D02*
Y475085D01*
X431052Y477520D02*
Y475100D01*
X431007Y477505D02*
Y475115D01*
X430963Y477488D02*
Y475132D01*
X430919Y477466D02*
Y475151D01*
X430875Y477446D02*
Y475173D01*
X430831Y477422D02*
Y475198D01*
X430787Y477395D02*
Y475225D01*
X430743Y477365D02*
Y475254D01*
X430698Y477334D02*
Y475286D01*
X430654Y477299D02*
Y475321D01*
X430610Y477262D02*
Y475357D01*
X430566Y477221D02*
Y475399D01*
X430522Y477174D02*
Y475446D01*
X430478Y477123D02*
Y475144D01*
X430434Y477066D02*
Y474950D01*
X430390Y477003D02*
Y474811D01*
X430345Y476929D02*
Y474695D01*
X430301Y476841D02*
Y474600D01*
X430257Y476730D02*
Y474514D01*
X430213Y476578D02*
Y474435D01*
X414148Y477549D02*
Y476380D01*
X414104Y477559D02*
Y476488D01*
X414060Y477569D02*
Y476542D01*
X414016Y477576D02*
Y476578D01*
X413972Y477581D02*
Y476605D01*
X413928Y477586D02*
Y476622D01*
X413883Y477589D02*
Y476635D01*
X413839Y477591D02*
Y476637D01*
X413795Y477591D02*
Y476640D01*
X413751Y477591D02*
Y476640D01*
X413707Y477591D02*
Y476640D01*
X413663Y477591D02*
Y476640D01*
X413619Y477591D02*
Y476640D01*
X413574Y477591D02*
Y476640D01*
X413530Y477591D02*
Y476640D01*
X413486Y477591D02*
Y476640D01*
X413442Y477591D02*
Y476640D01*
X413398Y477591D02*
Y476640D01*
X413354Y477591D02*
Y476640D01*
X413310Y477591D02*
Y476640D01*
X413266Y477591D02*
Y476640D01*
X413221Y477591D02*
Y476640D01*
X413177Y477591D02*
Y476640D01*
X413133Y477591D02*
Y476640D01*
X413089Y477591D02*
Y476640D01*
X413045Y477591D02*
Y476640D01*
X413001Y477591D02*
Y476640D01*
X412957Y477591D02*
Y476640D01*
X412912Y477591D02*
Y476640D01*
X412868Y477591D02*
Y476640D01*
X412824Y477591D02*
Y476640D01*
X412780Y477591D02*
Y476640D01*
X419832Y475477D02*
X418875D01*
X418003D02*
X417049D01*
X419834Y475433D02*
X418878D01*
X418003D02*
X417049D01*
X419837Y475389D02*
X418878D01*
X418003D02*
X417049D01*
X419842Y475345D02*
X418880D01*
X418003D02*
X417049D01*
X419849Y475301D02*
X418885D01*
X418003D02*
X417049D01*
X419856Y475257D02*
X418890D01*
X418003D02*
X417049D01*
X419868Y475213D02*
X418895D01*
X418003D02*
X417049D01*
X419881Y475168D02*
X418902D01*
X418003D02*
X417049D01*
X419893Y475124D02*
X418910D01*
X418003D02*
X417049D01*
X419910Y475080D02*
X418917D01*
X418003D02*
X417049D01*
X419930Y475036D02*
X418927D01*
X418003D02*
X417049D01*
X419949Y474992D02*
X418937D01*
X418003D02*
X417049D01*
X419971Y474948D02*
X418949D01*
X418003D02*
X417049D01*
X419180Y477213D02*
Y476640D01*
X419135Y477302D02*
Y476640D01*
X419091Y477390D02*
Y476640D01*
X419047Y477478D02*
Y476640D01*
X419003Y477566D02*
Y476640D01*
X418959Y477591D02*
Y476640D01*
X418915Y477591D02*
Y476640D01*
X412736Y477591D02*
Y476640D01*
X412692Y477591D02*
Y476640D01*
X412648Y477591D02*
Y476640D01*
X412604Y477591D02*
Y476640D01*
X412559Y477591D02*
Y476640D01*
X412515Y477591D02*
Y476640D01*
X412471Y477591D02*
Y476640D01*
X412427Y477591D02*
Y476640D01*
X412383Y477591D02*
Y476640D01*
X412339Y477591D02*
Y476640D01*
X412295Y477591D02*
Y476640D01*
X412250Y477591D02*
Y476640D01*
X412206Y477591D02*
Y476640D01*
X419998Y474904D02*
X418961D01*
X418003D02*
X417049D01*
X420025Y474860D02*
X418976D01*
X418003D02*
X417049D01*
X420057Y474815D02*
X418991D01*
X418003D02*
X417049D01*
X420092Y474771D02*
X419005D01*
X418003D02*
X417049D01*
X420131Y474727D02*
X419023D01*
X418003D02*
X417049D01*
X420175Y474683D02*
X419040D01*
X418003D02*
X417049D01*
X420222Y474639D02*
X419059D01*
X418003D02*
X417049D01*
X420276Y474595D02*
X419081D01*
X418003D02*
X417049D01*
X420337Y474551D02*
X419101D01*
X418003D02*
X417049D01*
X412162Y477591D02*
Y476640D01*
X412118Y477591D02*
Y476640D01*
X412074Y477591D02*
Y476640D01*
X412030Y477591D02*
Y476640D01*
X411986Y477591D02*
Y476640D01*
X411942Y477591D02*
Y476640D01*
X411897Y477591D02*
Y476640D01*
X411853Y477591D02*
Y476657D01*
X411809Y477591D02*
Y476745D01*
X411765Y477591D02*
Y476833D01*
X411721Y477591D02*
Y476922D01*
X411677Y477591D02*
Y477010D01*
X411633Y477591D02*
Y477098D01*
X411588Y477591D02*
Y477186D01*
X411544Y477591D02*
Y477275D01*
X411500Y477591D02*
Y477363D01*
X411456Y477591D02*
Y477451D01*
X420408Y474506D02*
X419126D01*
X418003D02*
X417049D01*
X420494Y474462D02*
X419150D01*
X418003D02*
X417049D01*
X420607Y474418D02*
X419175D01*
X418003D02*
X417049D01*
X434055Y474374D02*
X433104D01*
X432380D02*
X431069D01*
X430171D02*
X426677D01*
X420783D02*
X419202D01*
X418003D02*
X417049D01*
X434055Y474330D02*
X433104D01*
X432341D02*
X431027D01*
X430142D02*
X426707D01*
X426582D02*
X422769D01*
X422708D02*
X419231D01*
X418003D02*
X417049D01*
X434055Y474286D02*
X433104D01*
X432300D02*
X430985D01*
X430112D02*
X426739D01*
X426582D02*
X422784D01*
X422676D02*
X419263D01*
X418003D02*
X417049D01*
X434055Y474242D02*
X433104D01*
X432260D02*
X430944D01*
X430078D02*
X426771D01*
X426582D02*
X422798D01*
X422644D02*
X419295D01*
X418003D02*
X417049D01*
X434055Y474198D02*
X433104D01*
X432219D02*
X430904D01*
X430044D02*
X426807D01*
X426582D02*
X422818D01*
X422610D02*
X419329D01*
X418003D02*
X417049D01*
X434055Y474153D02*
X433104D01*
X432177D02*
X430863D01*
X430007D02*
X426844D01*
X426582D02*
X422838D01*
X422575D02*
X419363D01*
X418003D02*
X417049D01*
X434055Y474109D02*
X433104D01*
X432138D02*
X430821D01*
X429968D02*
X426881D01*
X426582D02*
X422860D01*
X422536D02*
X419403D01*
X418003D02*
X417049D01*
X434055Y474065D02*
X433104D01*
X432096D02*
X430782D01*
X429929D02*
X426923D01*
X426582D02*
X422884D01*
X422497D02*
X419442D01*
X418003D02*
X417049D01*
X434055Y474021D02*
X433104D01*
X432057D02*
X430740D01*
X429884D02*
X426967D01*
X426582D02*
X422911D01*
X422453D02*
X419484D01*
X418003D02*
X417049D01*
X434055Y473977D02*
X433104D01*
X432015D02*
X430698D01*
X429838D02*
X427013D01*
X426582D02*
X422941D01*
X422409D02*
X419530D01*
X418003D02*
X417049D01*
X434055Y473933D02*
X433104D01*
X431976D02*
X430657D01*
X429789D02*
X427062D01*
X426582D02*
X422973D01*
X422360D02*
X419577D01*
X418003D02*
X417049D01*
X434055Y473889D02*
X433104D01*
X431934D02*
X430618D01*
X429735D02*
X427116D01*
X426582D02*
X423007D01*
X422308D02*
X419628D01*
X418003D02*
X417049D01*
X434055Y473844D02*
X433104D01*
X431893D02*
X430576D01*
X429678D02*
X427173D01*
X426582D02*
X423044D01*
X422254D02*
X419685D01*
X418003D02*
X417049D01*
X434055Y473800D02*
X433104D01*
X431853D02*
X430534D01*
X429617D02*
X427234D01*
X426582D02*
X423088D01*
X422195D02*
X419743D01*
X418003D02*
X417049D01*
X434055Y473756D02*
X433104D01*
X431812D02*
X430495D01*
X429551D02*
X427298D01*
X426582D02*
X423132D01*
X422132D02*
X419807D01*
X418003D02*
X417049D01*
X434055Y473712D02*
X433104D01*
X431772D02*
X430453D01*
X429480D02*
X427371D01*
X426582D02*
X423183D01*
X422063D02*
X419876D01*
X418003D02*
X417049D01*
X434055Y473668D02*
X433104D01*
X431731D02*
X430412D01*
X429401D02*
X427450D01*
X426582D02*
X423242D01*
X421987D02*
X419949D01*
X418003D02*
X417049D01*
X434055Y473624D02*
X433104D01*
X431691D02*
X430370D01*
X429313D02*
X427538D01*
X426582D02*
X423306D01*
X421904D02*
X420035D01*
X418003D02*
X417049D01*
X434055Y473580D02*
X433104D01*
X431650D02*
X430331D01*
X429213D02*
X427639D01*
X426582D02*
X423382D01*
X421810D02*
X420128D01*
X418003D02*
X417049D01*
X434055Y473536D02*
X433104D01*
X431611D02*
X430289D01*
X429095D02*
X427756D01*
X426582D02*
X423470D01*
X421700D02*
X420236D01*
X418003D02*
X417049D01*
X434055Y473491D02*
X433104D01*
X431569D02*
X430247D01*
X428945D02*
X427906D01*
X426582D02*
X423583D01*
X421568D02*
X420369D01*
X418003D02*
X417049D01*
X434055Y473447D02*
X433104D01*
X431527D02*
X430208D01*
X428727D02*
X428124D01*
X426582D02*
X423752D01*
X421394D02*
X420543D01*
X426582Y476625D02*
X425630D01*
X426582Y476581D02*
X425630D01*
X426582Y476537D02*
X425630D01*
X431191Y476493D02*
X428982D01*
X431167Y476448D02*
X429056D01*
X431150Y476404D02*
X429117D01*
X431140Y476360D02*
X429169D01*
X431137Y476316D02*
X429218D01*
X431137Y476272D02*
X429259D01*
X431147Y476228D02*
X429298D01*
X431162Y476184D02*
X429333D01*
X431184Y476139D02*
X429365D01*
X431216Y476095D02*
X429392D01*
X431265Y476051D02*
X429419D01*
X431341Y476007D02*
X429441D01*
X432577Y475963D02*
X429460D01*
X432596Y475919D02*
X429480D01*
X432613Y475875D02*
X429495D01*
X432633Y475831D02*
X429509D01*
X432653Y475786D02*
X429522D01*
X432672Y475742D02*
X429531D01*
X432692Y475698D02*
X429541D01*
X432711Y475654D02*
X429546D01*
X432731Y475610D02*
X429551D01*
X432751Y475566D02*
X429556D01*
X414854Y477074D02*
Y475546D01*
X432790Y475477D02*
X429556D01*
X430507Y475433D02*
X429553D01*
X430505Y475389D02*
X429551D01*
X430502Y475345D02*
X429544D01*
X430497Y475301D02*
X429536D01*
X430493Y475257D02*
X429529D01*
X430488Y475213D02*
X429517D01*
X430480Y475168D02*
X429504D01*
X430473Y475124D02*
X429490D01*
X430463Y475080D02*
X429473D01*
X430453Y475036D02*
X429453D01*
X430443Y474992D02*
X429431D01*
X430431Y474948D02*
X429409D01*
X430419Y474904D02*
X429382D01*
X430404Y474860D02*
X429352D01*
X430390Y474815D02*
X429318D01*
X430375Y474771D02*
X429284D01*
X430355Y474727D02*
X429242D01*
X430338Y474683D02*
X429198D01*
X430318Y474639D02*
X429149D01*
X430296Y474595D02*
X429092D01*
X430274Y474551D02*
X429026D01*
X430252Y474506D02*
X428950D01*
X426582Y474462D02*
X425630D01*
X432770Y475522D02*
X429556D01*
X429551Y477260D02*
Y475629D01*
X429507Y477287D02*
Y475843D01*
X429463Y477314D02*
Y475960D01*
X429419Y477338D02*
Y476051D01*
X429374Y477360D02*
Y476125D01*
X429330Y477383D02*
Y476186D01*
X429286Y477405D02*
Y476242D01*
X429242Y477424D02*
Y476291D01*
X429198Y477441D02*
Y476336D01*
X429154Y477459D02*
Y476372D01*
X429110Y477476D02*
Y476409D01*
X429066Y477490D02*
Y476441D01*
X429021Y477503D02*
Y476470D01*
X428977Y477515D02*
Y476495D01*
X428933Y477527D02*
Y476519D01*
X428889Y477537D02*
Y476539D01*
X428845Y477547D02*
Y476559D01*
X428801Y477557D02*
Y476576D01*
X428757Y477564D02*
Y476588D01*
X428712Y477571D02*
Y476603D01*
X428668Y477576D02*
Y476613D01*
X428624Y477581D02*
Y476620D01*
X428580Y477584D02*
Y476627D01*
X428536Y477586D02*
Y476632D01*
X428492Y477589D02*
Y476637D01*
X428448Y477591D02*
Y476637D01*
X428404Y477589D02*
Y476637D01*
X428359Y477589D02*
Y476637D01*
X428315Y477586D02*
Y476632D01*
X428271Y477584D02*
Y476627D01*
X428227Y477581D02*
Y476620D01*
X428183Y477576D02*
Y476613D01*
X428139Y477569D02*
Y476600D01*
X428095Y477564D02*
Y476588D01*
X428050Y477557D02*
Y476573D01*
X428006Y477547D02*
Y476559D01*
X427962Y477537D02*
Y476539D01*
X427918Y477527D02*
Y476517D01*
X427874Y477515D02*
Y476495D01*
X427830Y477503D02*
Y476468D01*
X427786Y477488D02*
Y476439D01*
X427742Y477473D02*
Y476407D01*
X427697Y477459D02*
Y476372D01*
X427653Y477441D02*
Y476333D01*
X427609Y477422D02*
Y476289D01*
X427565Y477402D02*
Y476240D01*
X427521Y477383D02*
Y476186D01*
X427477Y477360D02*
Y476122D01*
X427433Y477338D02*
Y476046D01*
X427388Y477311D02*
Y475958D01*
X427344Y477287D02*
Y475838D01*
X425295Y475522D02*
X422107D01*
X423892Y476625D02*
X421124D01*
X423804Y476581D02*
X421318D01*
X423752Y476537D02*
X421433D01*
X423718Y476493D02*
X421521D01*
X423693Y476448D02*
X421595D01*
X423676Y476404D02*
X421658D01*
X423666Y476360D02*
X421712D01*
X423664Y476316D02*
X421761D01*
X423666Y476272D02*
X421803D01*
X423674Y476228D02*
X421842D01*
X423689Y476184D02*
X421879D01*
X423713Y476139D02*
X421911D01*
X423745Y476095D02*
X421938D01*
X423792Y476051D02*
X421965D01*
X423868Y476007D02*
X421987D01*
X425101Y475963D02*
X422009D01*
X425120Y475919D02*
X422026D01*
X425140Y475875D02*
X422043D01*
X425160Y475831D02*
X422058D01*
X425179Y475786D02*
X422070D01*
X425199Y475742D02*
X422083D01*
X425219Y475698D02*
X422090D01*
X425236Y475654D02*
X422097D01*
X425255Y475610D02*
X422102D01*
X425275Y475566D02*
X422107D01*
X415823D02*
X411569D01*
X422092Y477265D02*
Y475693D01*
X422048Y477292D02*
Y475865D01*
X422004Y477316D02*
Y475975D01*
X421960Y477341D02*
Y476061D01*
X421916Y477365D02*
Y476132D01*
X421872Y477385D02*
Y476193D01*
X421828Y477407D02*
Y476245D01*
X421783Y477427D02*
Y476294D01*
X421739Y477444D02*
Y476336D01*
X421695Y477461D02*
Y476375D01*
X421651Y477476D02*
Y476409D01*
X421607Y477490D02*
Y476441D01*
X421563Y477505D02*
Y476468D01*
X421519Y477517D02*
Y476495D01*
X421474Y477527D02*
Y476517D01*
X421430Y477539D02*
Y476537D01*
X421386Y477549D02*
Y476556D01*
X421342Y477557D02*
Y476571D01*
X421298Y477564D02*
Y476586D01*
X421254Y477571D02*
Y476598D01*
X421210Y477576D02*
Y476610D01*
X421166Y477581D02*
Y476618D01*
X421121Y477584D02*
Y476625D01*
X421077Y477586D02*
Y476630D01*
X421033Y477589D02*
Y476632D01*
X420989Y477589D02*
Y476635D01*
X415823Y476669D02*
X411846D01*
X420901Y477589D02*
Y476632D01*
X420857Y477586D02*
Y476627D01*
X420812Y477584D02*
Y476622D01*
X420768Y477579D02*
Y476615D01*
X420724Y477576D02*
Y476608D01*
X420680Y477569D02*
Y476595D01*
X420636Y477562D02*
Y476583D01*
X420592Y477554D02*
Y476569D01*
X420548Y477547D02*
Y476554D01*
X420504Y477537D02*
Y476534D01*
X420459Y477527D02*
Y476512D01*
X420415Y477515D02*
Y476490D01*
X420371Y477503D02*
Y476463D01*
X420327Y477488D02*
Y476434D01*
X420283Y477473D02*
Y476402D01*
X420239Y477459D02*
Y476367D01*
X420195Y477441D02*
Y476328D01*
X420150Y477422D02*
Y476284D01*
X420106Y477402D02*
Y476238D01*
X420062Y477383D02*
Y476181D01*
X420018Y477360D02*
Y476120D01*
X419974Y477336D02*
Y476046D01*
X419930Y477311D02*
Y475956D01*
X419886Y477287D02*
Y475840D01*
X425314Y475477D02*
X422107D01*
X425334Y475433D02*
X422107D01*
X425353Y475389D02*
X422102D01*
X425373Y475345D02*
X422097D01*
X425393Y475301D02*
X422092D01*
X425410Y475257D02*
X422083D01*
X425429Y475213D02*
X422073D01*
X425449Y475168D02*
X422060D01*
X425469Y475124D02*
X422046D01*
X425488Y475080D02*
X422029D01*
X425508Y475036D02*
X422011D01*
X423836Y474992D02*
X421989D01*
X423774Y474948D02*
X421967D01*
X423733Y474904D02*
X421940D01*
X423703Y474860D02*
X421913D01*
X423684Y474815D02*
X421881D01*
X423671Y474771D02*
X421847D01*
X423666Y474727D02*
X421808D01*
X423666Y474683D02*
X421766D01*
X423671Y474639D02*
X421717D01*
X423684Y474595D02*
X421663D01*
X423703Y474551D02*
X421602D01*
X423730Y474506D02*
X421531D01*
X423772Y474462D02*
X421445D01*
X423833Y474418D02*
X421335D01*
X412292Y474462D02*
X411257D01*
X427344Y475178D02*
Y473727D01*
X419842Y477260D02*
Y475639D01*
X414854Y473930D02*
Y473425D01*
X414810Y474019D02*
Y473425D01*
X414766Y474107D02*
Y473425D01*
X414722Y474195D02*
Y473425D01*
X414678Y474286D02*
Y473425D01*
X414634Y474377D02*
Y473425D01*
X414590Y474377D02*
Y473425D01*
X414545Y474377D02*
Y473425D01*
X414501Y474377D02*
Y473425D01*
X414457Y474377D02*
Y473425D01*
X414413Y474377D02*
Y473425D01*
X414369Y474377D02*
Y473425D01*
X414325Y474377D02*
Y473425D01*
X414281Y474377D02*
Y473425D01*
X414236Y474377D02*
Y473425D01*
X414192Y474377D02*
Y473425D01*
X414148Y474377D02*
Y473425D01*
X414104Y474377D02*
Y473425D01*
X414060Y474377D02*
Y473425D01*
X414016Y474377D02*
Y473425D01*
X413972Y474377D02*
Y473425D01*
X413928Y474377D02*
Y473425D01*
X413883Y474377D02*
Y473425D01*
X413839Y474377D02*
Y473425D01*
X413795Y474377D02*
Y473425D01*
X413751Y474377D02*
Y473425D01*
X413707Y474377D02*
Y473425D01*
X413663Y474377D02*
Y473425D01*
X413619Y474377D02*
Y473425D01*
X413574Y474377D02*
Y473425D01*
X413530Y474377D02*
Y473425D01*
X413486Y474377D02*
Y473425D01*
X413442Y474377D02*
Y473425D01*
X413398Y474377D02*
Y473425D01*
X413354Y474377D02*
Y473425D01*
X413310Y474377D02*
Y473425D01*
X413266Y474377D02*
Y473425D01*
X413221Y474377D02*
Y473425D01*
X413177Y474377D02*
Y473425D01*
X413133Y474377D02*
Y473425D01*
X413089Y474377D02*
Y473425D01*
X413045Y474377D02*
Y473425D01*
X413001Y474377D02*
Y473425D01*
X412957Y474377D02*
Y473425D01*
X412912Y474377D02*
Y473425D01*
X412868Y474377D02*
Y473425D01*
X412824Y474377D02*
Y473425D01*
X414899Y477591D02*
Y473425D01*
X412736Y474377D02*
Y473425D01*
X412692Y474377D02*
Y473425D01*
X412648Y474377D02*
Y473425D01*
X412604Y474377D02*
Y473425D01*
X412559Y474377D02*
Y473425D01*
X412515Y474377D02*
Y473425D01*
X412471Y474379D02*
Y473425D01*
X412427Y474386D02*
Y473428D01*
X412383Y474404D02*
Y473430D01*
X412339Y474426D02*
Y473435D01*
X412295Y474460D02*
Y473442D01*
X412250Y474509D02*
Y473452D01*
X419886Y475151D02*
Y473705D01*
X419842Y475352D02*
Y473732D01*
X415823Y475477D02*
X414872D01*
X415823Y475433D02*
X414872D01*
X415823Y475389D02*
X414872D01*
X415823Y475345D02*
X414872D01*
X415823Y475301D02*
X414872D01*
X415823Y475257D02*
X414872D01*
X415823Y475213D02*
X414872D01*
X415823Y475168D02*
X414872D01*
X415823Y475124D02*
X414872D01*
X415823Y475080D02*
X414872D01*
X415823Y475036D02*
X414872D01*
X415823Y474992D02*
X414872D01*
X414798Y475477D02*
X411495D01*
X414715Y475389D02*
X411434D01*
X414614Y475301D02*
X411382D01*
X414484Y475213D02*
X411341D01*
X414308Y475124D02*
X411306D01*
X413947Y475036D02*
X411277D01*
X412297Y474948D02*
X411257D01*
X412226Y474860D02*
X411243D01*
X412194Y474771D02*
X411235D01*
X412187Y474683D02*
X411235D01*
X412204Y474595D02*
X411240D01*
X412253Y474506D02*
X411250D01*
X414634Y474374D02*
X411277D01*
X414656Y474330D02*
X411292D01*
X414678Y474286D02*
X411304D01*
X414697Y474242D02*
X411321D01*
X414720Y474198D02*
X411338D01*
X414742Y474153D02*
X411360D01*
X414764Y474109D02*
X411382D01*
X414786Y474065D02*
X411405D01*
X414808Y474021D02*
X411432D01*
X418003Y473447D02*
X417049D01*
X430184Y476625D02*
X428607D01*
X431277Y476581D02*
X428786D01*
X431226Y476537D02*
X428896D01*
X427867Y476493D02*
X425630D01*
X427795Y476448D02*
X425630D01*
X427734Y476404D02*
X425630D01*
X427680Y476360D02*
X425630D01*
X427634Y476316D02*
X425630D01*
X427589Y476272D02*
X425630D01*
X427553Y476228D02*
X425630D01*
X427518Y476184D02*
X425630D01*
X427487Y476139D02*
X425630D01*
X427457Y476095D02*
X425630D01*
X427433Y476051D02*
X425630D01*
X427410Y476007D02*
X425630D01*
X427388Y475963D02*
X425630D01*
X427371Y475919D02*
X425630D01*
X427354Y475875D02*
X425630D01*
X427342Y475831D02*
X425630D01*
X427330Y475786D02*
X425630D01*
X427317Y475742D02*
X425630D01*
X427310Y475698D02*
X425630D01*
X427303Y475654D02*
X425630D01*
X427298Y475610D02*
X425630D01*
X427295Y475566D02*
X425630D01*
X427295Y475522D02*
X425630D01*
X427295Y475477D02*
X425630D01*
X427298Y475433D02*
X425630D01*
X427300Y475389D02*
X425630D01*
X427305Y475345D02*
X425630D01*
X427312Y475301D02*
X425630D01*
X427322Y475257D02*
X425630D01*
X427334Y475213D02*
X425630D01*
X427347Y475168D02*
X425630D01*
X427361Y475124D02*
X425630D01*
X427379Y475080D02*
X425630D01*
X427398Y475036D02*
X425630D01*
X427418Y474992D02*
X425630D01*
X427442Y474948D02*
X425630D01*
X427469Y474904D02*
X425630D01*
X427499Y474860D02*
X425630D01*
X427531Y474815D02*
X425630D01*
X427567Y474771D02*
X425630D01*
X427607Y474727D02*
X425630D01*
X427651Y474683D02*
X425630D01*
X427702Y474639D02*
X425630D01*
X427759Y474595D02*
X425630D01*
X427822Y474551D02*
X425630D01*
X427901Y474506D02*
X425630D01*
X430228Y474462D02*
X428855D01*
X427300Y477260D02*
Y475612D01*
X425579Y477591D02*
Y476640D01*
X425535Y477591D02*
Y476640D01*
X425491Y475075D02*
Y475029D01*
Y477591D02*
Y476640D01*
X425447Y475176D02*
Y475029D01*
Y477591D02*
Y476640D01*
X425402Y475276D02*
Y475029D01*
Y477591D02*
Y476640D01*
X425358Y475379D02*
Y475029D01*
Y477591D02*
Y476640D01*
X425314Y475480D02*
Y475029D01*
Y477591D02*
Y476640D01*
X425270Y475580D02*
Y475029D01*
Y477591D02*
Y476640D01*
X425226Y475681D02*
Y475029D01*
Y477591D02*
Y476640D01*
X425182Y475781D02*
Y475029D01*
Y477591D02*
Y476640D01*
X425138Y475882D02*
Y475029D01*
Y477591D02*
Y476640D01*
X425093Y475983D02*
Y475029D01*
Y477591D02*
Y476640D01*
X425049Y475983D02*
Y475029D01*
Y477591D02*
Y476640D01*
X425005Y475983D02*
Y475029D01*
Y477591D02*
Y476640D01*
X424961Y475983D02*
Y475029D01*
Y477591D02*
Y476640D01*
X424917Y475983D02*
Y475029D01*
Y477591D02*
Y476640D01*
X424873Y475983D02*
Y475029D01*
Y477591D02*
Y476640D01*
X424829Y475983D02*
Y475029D01*
Y477591D02*
Y476640D01*
X424785Y475983D02*
Y475029D01*
Y477591D02*
Y476640D01*
X424740Y475983D02*
Y475029D01*
Y477591D02*
Y476640D01*
X424696Y475983D02*
Y475029D01*
Y477591D02*
Y476640D01*
X424652Y475983D02*
Y475029D01*
Y477591D02*
Y476640D01*
X424608Y475983D02*
Y475029D01*
Y477591D02*
Y476640D01*
X434055Y476625D02*
X433104D01*
X431368D02*
X430223D01*
X428244D02*
X426668D01*
X434055Y476581D02*
X433104D01*
X428065D02*
X426641D01*
X434055Y476537D02*
X433104D01*
X427955D02*
X426614D01*
X434055Y476493D02*
X433104D01*
X434055Y476448D02*
X433104D01*
X434055Y476404D02*
X433104D01*
X434055Y476360D02*
X433104D01*
X434055Y476316D02*
X433104D01*
X434055Y476272D02*
X433104D01*
X434055Y476228D02*
X433104D01*
X434055Y476184D02*
X433104D01*
X434055Y476139D02*
X433104D01*
X434055Y476095D02*
X433104D01*
X434055Y476051D02*
X433104D01*
X434055Y476007D02*
X433104D01*
X434055Y475963D02*
X433104D01*
X434055Y475919D02*
X433104D01*
X434055Y475875D02*
X433104D01*
X434055Y475831D02*
X433104D01*
X434055Y475786D02*
X433104D01*
X434055Y475742D02*
X433104D01*
X434055Y475698D02*
X433104D01*
X434055Y475654D02*
X433104D01*
X434055Y475610D02*
X433104D01*
X434055Y475566D02*
X433104D01*
X434055Y475522D02*
X433104D01*
X419832D02*
X418875D01*
X418003D02*
X417049D01*
X420815Y476625D02*
X419206D01*
X418003D02*
X417049D01*
X420621Y476581D02*
X419177D01*
X418003D02*
X417049D01*
X420506Y476537D02*
X419153D01*
X418003D02*
X417049D01*
X420418Y476493D02*
X419128D01*
X418003D02*
X417049D01*
X420344Y476448D02*
X419103D01*
X418003D02*
X417049D01*
X420283Y476404D02*
X419081D01*
X418003D02*
X417049D01*
X420226Y476360D02*
X419062D01*
X418003D02*
X417049D01*
X420180Y476316D02*
X419042D01*
X418003D02*
X417049D01*
X420136Y476272D02*
X419025D01*
X418003D02*
X417049D01*
X420097Y476228D02*
X419008D01*
X418003D02*
X417049D01*
X420062Y476184D02*
X418991D01*
X418003D02*
X417049D01*
X420030Y476139D02*
X418976D01*
X418003D02*
X417049D01*
X420001Y476095D02*
X418964D01*
X418003D02*
X417049D01*
X419976Y476051D02*
X418951D01*
X418003D02*
X417049D01*
X419952Y476007D02*
X418939D01*
X418003D02*
X417049D01*
X419930Y475963D02*
X418929D01*
X418003D02*
X417049D01*
X419913Y475919D02*
X418920D01*
X418003D02*
X417049D01*
X419895Y475875D02*
X418910D01*
X418003D02*
X417049D01*
X419881Y475831D02*
X418902D01*
X418003D02*
X417049D01*
X419868Y475786D02*
X418895D01*
X418003D02*
X417049D01*
X419859Y475742D02*
X418890D01*
X418003D02*
X417049D01*
X419849Y475698D02*
X418885D01*
X418003D02*
X417049D01*
X419842Y475654D02*
X418883D01*
X418003D02*
X417049D01*
X419837Y475610D02*
X418878D01*
X418003D02*
X417049D01*
X419834Y475566D02*
X418878D01*
X434055Y477552D02*
X431150D01*
X428828D02*
X428023D01*
X426582D02*
X423679D01*
X421371D02*
X420567D01*
X419010D02*
X414872D01*
X434055Y477508D02*
X431010D01*
X429009D02*
X427842D01*
X426582D02*
X423539D01*
X421555D02*
X420386D01*
X419032D02*
X414872D01*
X434055Y477463D02*
X430907D01*
X429144D02*
X427707D01*
X426582D02*
X423436D01*
X421688D02*
X420251D01*
X419054D02*
X414872D01*
X434055Y477419D02*
X430824D01*
X429254D02*
X427597D01*
X426582D02*
X423353D01*
X421801D02*
X420141D01*
X419077D02*
X414872D01*
X434055Y477375D02*
X430752D01*
X429350D02*
X427501D01*
X426582D02*
X423282D01*
X421896D02*
X420045D01*
X419099D02*
X414872D01*
X434055Y477331D02*
X430691D01*
X429433D02*
X427418D01*
X426582D02*
X423220D01*
X421980D02*
X419959D01*
X419121D02*
X414872D01*
X434055Y477287D02*
X430637D01*
X429509D02*
X427342D01*
X426582D02*
X423164D01*
X422056D02*
X419883D01*
X419143D02*
X414872D01*
X434055Y477243D02*
X430588D01*
X429578D02*
X427273D01*
X426582D02*
X423115D01*
X422127D02*
X419815D01*
X419165D02*
X414872D01*
X434055Y477199D02*
X430542D01*
X429642D02*
X427209D01*
X426582D02*
X423071D01*
X422190D02*
X419748D01*
X419187D02*
X414872D01*
X434055Y477155D02*
X430502D01*
X429701D02*
X427151D01*
X426582D02*
X423029D01*
X422249D02*
X419689D01*
X419209D02*
X414872D01*
X434055Y477110D02*
X430466D01*
X429757D02*
X427094D01*
X426582D02*
X422992D01*
X422303D02*
X419636D01*
X419231D02*
X414872D01*
X434055Y477066D02*
X430431D01*
X429808D02*
X427043D01*
X426582D02*
X422958D01*
X422357D02*
X419584D01*
X419253D02*
X415857D01*
X434055Y477022D02*
X430399D01*
X429855D02*
X426996D01*
X426582D02*
X422928D01*
X422404D02*
X419535D01*
X419275D02*
X415879D01*
X434055Y476978D02*
X430372D01*
X429902D02*
X426950D01*
X426582D02*
X422899D01*
X422450D02*
X419488D01*
X419297D02*
X415901D01*
X434055Y476934D02*
X430345D01*
X429943D02*
X426908D01*
X426582D02*
X422875D01*
X422492D02*
X419447D01*
X419319D02*
X415923D01*
X434055Y476890D02*
X430323D01*
X429985D02*
X426866D01*
X426582D02*
X422850D01*
X422534D02*
X419405D01*
X419341D02*
X415945D01*
X434055Y476846D02*
X430301D01*
X430022D02*
X426829D01*
X426582D02*
X422830D01*
X422570D02*
X415968D01*
X434055Y476801D02*
X430282D01*
X430059D02*
X426793D01*
X426582D02*
X422811D01*
X422607D02*
X415990D01*
X434055Y476757D02*
X430264D01*
X430093D02*
X426758D01*
X426582D02*
X422794D01*
X422642D02*
X416012D01*
X434055Y476713D02*
X430250D01*
X430125D02*
X426726D01*
X426582D02*
X422776D01*
X422673D02*
X416034D01*
X434055Y476669D02*
X430235D01*
X430154D02*
X426697D01*
X426582D02*
X422764D01*
X422705D02*
X416056D01*
X434055Y475477D02*
X433104D01*
X434055Y475433D02*
X433104D01*
X432807D02*
X430534D01*
X434055Y475389D02*
X433104D01*
X432827D02*
X430576D01*
X434055Y475345D02*
X433104D01*
X432846D02*
X430625D01*
X434055Y475301D02*
X433104D01*
X432866D02*
X430679D01*
X434055Y475257D02*
X433104D01*
X432886D02*
X430738D01*
X434055Y475213D02*
X433104D01*
X432905D02*
X430809D01*
X434055Y475168D02*
X433104D01*
X432925D02*
X430887D01*
X434055Y475124D02*
X433104D01*
X432944D02*
X430985D01*
X434055Y475080D02*
X433104D01*
X432964D02*
X431113D01*
X434055Y475036D02*
X433104D01*
X432981D02*
X431682D01*
X431586D02*
X431351D01*
X434055Y474992D02*
X433104D01*
X432949D02*
X431642D01*
X434055Y474948D02*
X433104D01*
X432910D02*
X431601D01*
X434055Y474904D02*
X433104D01*
X432868D02*
X431559D01*
X434055Y474860D02*
X433104D01*
X432827D02*
X431517D01*
X434055Y474815D02*
X433104D01*
X428426Y474377D02*
X428426D01*
G03X429556Y475507I-0J1130*
G01X427295D02*
X427295D01*
G03X428426Y474377I1135J4*
G01Y476640D02*
X428426D01*
G03X427293Y475507I-0J-1133*
G01X429556D02*
X429556D01*
G03X428426Y476637I-1128J2*
G01X420969Y474357D02*
X420969D01*
G03X422110Y475497I0J1140*
G01X419832D02*
X419832D01*
G03X420969Y474359I1143J6*
G01Y476635D02*
X420969D01*
G03X419832Y475497I0J-1138*
G01X422110D02*
X422110D01*
G03X420969Y476637I-1141J0*
G01X412513Y475029D02*
X412513D01*
G03X412187Y474703I-0J-326*
G01X412187*
G03X412513Y474377I330J4*
G01X413827Y475029D02*
X413827D01*
G03X414874Y475570I0J1282*
G01X423993Y475031D02*
X423993D01*
G03X423664Y474703I-0J-328*
G01X423666D02*
X423666D01*
G03X423993Y474377I329J2*
G01Y476640D02*
X423993D01*
G03X423664Y476311I-0J-329*
G01X423664*
G03X423993Y475983I332J4*
G01X411235Y474703D02*
X411235D01*
G03X412513Y473425I1280J2*
G01Y475983D02*
X412513D01*
G03X411233Y474703I-0J-1280*
G01X413827Y475983D02*
X413827D01*
G03X414156Y476311I0J328*
G01X414156*
G03X413827Y476640I-329J0*
G01X414872Y477052D02*
X414872D01*
Y477051D02*
G03X413827Y477591I-1045J-740D01*
G01X420969D02*
X420969D01*
G03X419365Y476843I0J-2094*
G01X422747Y476605D02*
X422747D01*
X422748Y476604D02*
G03X420969Y477592I-1779J-1107D01*
G01X423993Y477591D02*
X423993D01*
G03X422747Y476605I-0J-1280*
G01X428426Y477591D02*
X428426D01*
G03X426581Y476474I3J-2088*
G01X430213Y476576D02*
X430213D01*
G03X428426Y477590I-1787J-1069*
G01X431466Y477591D02*
X431466D01*
X431467D02*
G03X430213Y476576I-0J-1282D01*
G01X431466Y476640D02*
X431466D01*
G03X431137Y476311I-0J-329*
G01X431137*
G03X431466Y475983I330J1*
G01Y475029D02*
X431466D01*
X431465D02*
G03X431698Y475050I0J1288D01*
G01X430507Y475460D02*
X430507D01*
G03X431466Y475029I961J857*
G01X428426Y473425D02*
X428426D01*
X428425D02*
G03X430507Y475460I0J2083D01*
G01X426582Y474538D02*
X426582D01*
X426581Y474539D02*
G03X428424Y473425I1847J974D01*
G01X422752Y474396D02*
X422752D01*
G03X423993Y473425I1243J310*
G01X420969Y473403D02*
X420969D01*
G03X422751Y474397I0J2094*
G01X418875Y475497D02*
X418875D01*
G03X420969Y473403I2098J4*
G01X419216Y476640D02*
X419216D01*
G03X418877Y475497I1754J-1143*
G54D15*
G01X398622Y492618D02*
G03Y499508I0J3445D01*
Y492618I0J-3445*
G01Y500000D02*
X402559D01*
Y507874*
X394685*
Y500000*
X398622*
X401083Y427657D02*
G03X396161I-2461J0D01*
X401083I2461J0*
G01Y422736D02*
Y425197D01*
X396161*
Y422736*
X401083D02*
Y420276D01*
X396161*
Y422736*
X401083Y432579D02*
G03X396161I-2461J-0D01*
X401083I2461J-0*
G01Y437500D02*
G03X396161I-2461J0D01*
X401083I2461J0*
G54D66*
G01X399803Y632878D02*
G03X407382Y632872I3790J-6D01*
G01Y632693D02*
G03X399803Y632686I-3789J165D01*
G01X407382Y641339D02*
Y646555D01*
X399705*
Y638780*
X407382*
Y641634*
X399705Y623036D02*
G03X407283Y623029I3789J-7D01*
G01X407284Y622850D02*
G03X399705Y622844I-3790J166D01*
G01Y613193D02*
G03X407283Y613187I3789J-6D01*
G01X407284Y613008D02*
G03X399705Y613001I-3790J165D01*
G01X489961Y623027D02*
G03X482382Y623034I-3790J7D01*
G01Y623213D02*
G03X489960Y623219I3789J-166D01*
G01X482382Y614567D02*
Y609350D01*
X490059*
Y617126*
X482382*
Y614272*
X490059Y632870D02*
G03X482480Y632876I-3789J6D01*
G01Y633055D02*
G03X490059Y633062I3790J-165D01*
G01Y642712D02*
G03X482480Y642719I-3789J7D01*
G01Y642898D02*
G03X490059Y642904I3790J-166D01*
G01X417520Y632878D02*
G03X425098Y632872I3789J-6D01*
G01X425099Y632693D02*
G03X417520Y632686I-3790J165D01*
G01X425098Y641339D02*
Y646555D01*
X417421*
Y638780*
X425098*
Y641634*
X417421Y623036D02*
G03X425000Y623029I3790J-7D01*
G01Y622850D02*
G03X417421Y622844I-3789J166D01*
G01X472244Y632870D02*
G03X464665Y632876I-3789J6D01*
G01Y633055D02*
G03X472244Y633062I3790J-165D01*
G01X464665Y624409D02*
Y619193D01*
X472343*
Y626969*
X464665*
Y624114*
X472343Y642712D02*
G03X464764Y642719I-3790J7D01*
G01Y642898D02*
G03X472342Y642904I3789J-166D01*
G54D123*
G01X424606Y422835D02*
Y433465D01*
X419882*
Y422835*
X424606*
Y428150D02*
X423819D01*
X423031Y427362*
X421457Y428937*
X420669Y428150*
X419882*
G74*
X0Y0D02*
M02*
